<svg xmlns="http://www.w3.org/2000/svg" xmlns:xlink="http://www.w3.org/1999/xlink" width="295.53pt" height="276.023pt" viewBox="0 0 295.53 276.023"><defs><path id="a" d="M.45313-.54687c0 .39062.32812.70312.89062.70312.95313 0 1.48438-.95312 2.0625-1.89062l.5625-.92188H4l.26563 1.10938C4.53125-.4375 4.78125.15624 5.5.15624c1.01563 0 1.5625-1.04687 1.96875-1.90625L7.125-1.9375c-.34375.625-.73437 1.375-1.125 1.375-.26562 0-.375-.3125-.6875-1.5625L4.875-3.95312c.5-.90625 1.21875-2.01563 1.625-2.01563s.42188.21875.84375.21875c.3125 0 .59375-.29687.59375-.67187 0-.42188-.32812-.60938-.71875-.60938-.73437 0-1.35937.67188-1.85937 1.46875L4.75-4.60937h-.03125l-.5625-2.35938-.07812-.0625-2.3125.70313.03124.34375 1.10938-.07813c.21875 0 .32813.10938.45313.70313l.5 2.03125-.39063.65625C2.875-1.64062 2.35938-.90625 2.01563-.90625 1.60938-.90625 1.5-1.25 1.0625-1.25c-.35937 0-.60937.35938-.60937.70313m0 0"/><path id="c" d="M0 2.625c0 .375.42188.75 1.03125.75 1.1875 0 1.6875-.875 2.92188-3 .29687-.48437 1.14062-1.95312 2-3.39062.8125-1.29688 1.6875-2.65625 1.6875-3.21875 0-.5-.15625-.79688-.25-.79688-.26563 0-.75.125-1.10938.35938 0 0-.04687 1.4375-.17187 1.92187C5.875-3.95312 5.0625-2.4375 4.14063-.84375h-.04688c-.10937-2.15625-.375-5.09375-.5625-6.125l-.10937-.0625-2.34375.67188L1.10937-6l.96876-.03125c.29687 0 .34375.23438.46875.95313.14062 1.09375.46875 3.78125.46875 4.90625 0 .40625-.01563.96875-.32813 1.71875-.26562.57812-.625 1-.90625 1-.5 0-.5625-.78125-1.0625-.78125C.35938 1.76563 0 2.21875 0 2.625m0 0"/><path id="d" d="M1.26563-3.95312c0 1.60937 1.17187 2.79687 2.79687 2.79687 1.5625 0 2.75-1.1875 2.75-2.79687 0-1.5625-1.1875-2.73438-2.75-2.73438-1.625 0-2.79687 1.17188-2.79687 2.73438m0 0"/><path id="e" d="M1.51563 0H6.125v-.40625L4.9375-.5c-.29687-.03125-.45312-.14062-.45312-.6875v-8.25l-.07813-.07812-2.89062.48437v.34375l1.3125.17188c.23437.03125.32812.125.32812.53125v6.79687c0 .54688-.14062.65625-.46875.6875l-1.17187.09375Zm0 0"/><path id="k" d="M.45313-2.59375C.45313-1 1 .17188 2.71875.17188c2.5625 0 3.67188-2.57813 4.26563-5.26563.15625-.8125.29687-1.6875.29687-2.46875 0-1.54687-.5-2.8125-2.26562-2.8125-3.34375 0-4.5625 4.98438-4.5625 7.78125m1.26562.5c0-.96875.21875-2.125.375-2.92187h3.5C5.23438-3.35937 4.46875-.23437 2.8125-.23437c-.84375 0-1.09375-.82813-1.09375-1.85938m.5-3.4375c.25-1.1875 1.01563-4.39062 2.6875-4.39062.89063 0 1.14063.875 1.14063 1.875 0 .92187-.20313 1.9375-.32813 2.51562Zm0 0"/><path id="m" d="M.60938 0H9.4375L5.46875-9.70312H4.42188Zm.85937-.76562 3.01563-7.64063L7.65625-.76562Zm0 0"/><path id="l" d="M.39063-3.26562c0 1.90625.59375 3.375 2.25 3.375 1.67187 0 2.25-1.46875 2.25-3.375 0-1.92188-.57813-3.39063-2.25-3.39063-1.65625 0-2.25 1.46875-2.25 3.39063m1.125 0c0-1.48438.23437-3.03125 1.125-3.03125.90625 0 1.125 1.54687 1.125 3.03125 0 1.46875-.21875 3.01562-1.125 3.01562-.89063 0-1.125-1.54687-1.125-3.01562m0 0"/><path id="n" d="M.3125-1.84375C.3125-.70312.70313.125 1.96875.125c1.79688 0 2.5625-1.70312 3.01563-3.60937.14062-.59375.23437-1.21875.23437-1.76563 0-1.10937-.375-2.01562-1.65625-2.01562-2.28125 0-3.25 3.23437-3.25 5.42187m1.01563.40625c0-.67187.15624-1.48437.28124-2.04687h2.28125C3.64063-2.34375 3.125-.1875 2.04688-.1875c-.5625 0-.71875-.54687-.71875-1.25m.35937-2.45312c.17188-.8125.70313-3.03125 1.79688-3.03125.5625 0 .75.57812.75 1.25 0 .64062-.15625 1.375-.25 1.78125Zm0 0"/><path id="o" d="M.29688-2.57812c0 1.48437.46875 2.67187 1.8125 2.67187s1.8125-1.1875 1.8125-2.67187c0-1.46875-.46875-2.65625-1.8125-2.65625S.29688-4.04687.29688-2.57812m.98437 0c0-1.07813.14063-2.34375.82813-2.34375s.84375 1.26562.84375 2.34375c0 1.09375-.15625 2.35937-.84375 2.35937s-.82813-1.26562-.82813-2.35937m0 0"/><clipPath id="b"><path d="M148 20h1v255.05078h-1Zm0 0"/></clipPath><clipPath id="f"><path d="M63 63h171v170H63Zm0 0"/></clipPath><clipPath id="g"><path d="M233.32031 147.74219C233.32031 100.9414 195.38281 63 148.58203 63s-84.74219 37.9414-84.74219 84.74219 37.94141 84.74219 84.7422 84.74219c46.80077 0 84.73827-37.94141 84.73827-84.7422m0 0"/></clipPath><clipPath id="h"><path d="M53.26953 34.15625v227.17188L233.3125 147.74219Zm0 0"/></clipPath><clipPath id="i"><path d="M185 99h49v49h-49Zm0 0"/></clipPath><clipPath id="j"><path d="M53.26953 34.15625.28516 147.74219H233.3125Zm0 0"/></clipPath></defs><path fill="none" stroke="#000" stroke-miterlimit="10" stroke-width=".39709" d="M21.46874 147.74219h253.82424"/><path fill="none" stroke="#000" stroke-linecap="round" stroke-linejoin="round" stroke-miterlimit="10" stroke-width=".39709" d="M273.42969 145.35937c.375 1.4297 1.21484 2.10547 2.0625 2.38282-.84766.27734-1.6875.95312-2.0625 2.38281"/><use xlink:href="#a" x="280.95058" y="151.17391"/><g clip-path="url(#b)"><path fill="none" stroke="#000" stroke-miterlimit="10" stroke-width=".39709" d="M148.58203 274.85157V21.02733"/></g><path fill="none" stroke="#000" stroke-linecap="round" stroke-linejoin="round" stroke-miterlimit="10" stroke-width=".39709" d="M146.19922 22.89453c1.42969-.3789 2.10547-1.21875 2.38281-2.0664.27735.84765.95313 1.6875 2.38281 2.0664"/><use xlink:href="#c" x="144.32916" y="11.99155"/><use xlink:href="#d" x="144.55237" y="66.34517"/><use xlink:href="#e" x="153.84149" y="57.74162"/><use xlink:href="#d" x="229.29243" y="151.08523"/><use xlink:href="#e" x="238.58155" y="162.51875"/><path fill="none" stroke="#000" stroke-miterlimit="10" stroke-width=".39709" d="M233.32032 147.74219c0-46.80079-37.9375-84.7422-84.73829-84.7422-46.80078 0-84.7422 37.94141-84.7422 84.7422s37.94142 84.7422 84.7422 84.7422c46.80079 0 84.73829-37.94142 84.73829-84.7422Zm0 0"/><g clip-path="url(#f)"><g clip-path="url(#g)"><g clip-path="url(#h)"><path fill="#b2b2ff" fill-opacity=".3" d="M614.64453 147.74219c0-210.60547-170.72656-381.33203-381.33203-381.33203S-148.01953-62.86328-148.01953 147.74219 22.70703 529.07422 233.3125 529.07422s381.33203-170.72656 381.33203-381.33203m0 0"/></g></g></g><g clip-path="url(#i)"><g clip-path="url(#j)"><path fill="none" stroke="#000" stroke-miterlimit="10" stroke-width=".39709" d="M275.6836 147.74219c0-23.40235-18.96875-42.3711-42.3711-42.3711s-42.3711 18.96875-42.3711 42.3711 18.96876 42.3711 42.3711 42.3711 42.3711-18.96876 42.3711-42.3711Zm0 0"/></g></g><use xlink:href="#k" x="171.64348" y="136.40618"/><use xlink:href="#l" x="178.65666" y="139.68258"/><path fill="none" stroke="#000" stroke-miterlimit="10" stroke-width=".39709" d="M233.3125 147.74219 53.26953 34.15624M233.3125 147.74219 53.26953 261.32813m-33.10157-39.44531c30.03516-35.79297 74.19141-86 106.94923-53.23829"/><path fill="none" stroke="#000" stroke-linecap="round" stroke-linejoin="round" stroke-miterlimit="10" stroke-width=".39709" d="M127.48437 165.64063c-.74609 1.27734-.6289 2.34765-.22656 3.14453-.79687-.40235-1.86718-.51953-3.14453.22265"/><use xlink:href="#m" x="5.26439" y="232.84085"/><use xlink:href="#n" x="15.24157" y="236.11725"/><use xlink:href="#o" x="20.26679" y="238.41013"/></svg>