<svg xmlns="http://www.w3.org/2000/svg" xmlns:xlink="http://www.w3.org/1999/xlink" width="359.509pt" height="297.283pt" viewBox="0 0 359.509 297.283"><defs><path id="b" d="M.45313-.54687c0 .39062.32812.70312.89062.70312.95313 0 1.48438-.95312 2.0625-1.89062l.57813-.92188h.03125l.25 1.10938C4.53125-.4375 4.78125.15624 5.5.15624c1.03125 0 1.5625-1.04687 1.98438-1.90625L7.125-1.9375c-.34375.625-.73437 1.375-1.125 1.375-.26562 0-.35937-.3125-.67187-1.5625L4.875-3.96875c.5-.89062 1.21875-2.01562 1.625-2.01562.42188 0 .4375.23437.84375.23437.3125 0 .59375-.29687.59375-.67187 0-.4375-.32812-.60938-.70312-.60938-.75 0-1.375.67188-1.875 1.45313L4.75-4.625h-.03125l-.5625-2.34375-.07812-.0625-2.29688.70313L1.79688-6l1.10937-.0625c.21875 0 .32813.09375.46875.70313l.48438 2.01562-.39063.67188C2.875-1.64062 2.35938-.90625 2.01563-.90625 1.60938-.90625 1.5-1.25 1.0625-1.25c-.35937 0-.60937.35938-.60937.70313m0 0"/><path id="d" d="M0 2.625c0 .375.42188.76563 1.03125.76563 1.1875 0 1.70313-.89063 2.9375-3.01563.28125-.48437 1.125-1.95312 2-3.39062.79688-1.3125 1.67188-2.65625 1.67188-3.23438 0-.48437-.14063-.78125-.25-.78125-.26563 0-.75.10938-1.09375.35938 0 0-.04688 1.42187-.1875 1.92187-.21875.78125-1.04688 2.3125-1.96875 3.90625h-.04688C4-3 3.71875-5.95312 3.53125-6.96875l-.10937-.0625-2.34375.67188L1.125-6l.96875-.03125c.28125 0 .34375.23438.45313.95313C2.70313-4 3.01563-1.29687 3.01563-.17187c0 .40625-.01563.98437-.32813 1.71875-.25.57812-.60937 1-.90625 1-.5 0-.5625-.76563-1.0625-.76563C.35938 1.78125 0 2.21875 0 2.625m0 0"/><path id="e" d="M1.84375 2.79688h.82813v-13.5h-.82813Zm0 0"/><path id="f" d="M1.51563 0H6.125v-.40625L4.95313-.5c-.29688-.03125-.46875-.14062-.46875-.6875v-8.26562l-.07813-.07813-2.89062.5v.34375l1.3125.15625c.25.03125.32812.14063.32812.54688v6.79687c0 .54688-.125.65625-.45312.6875l-1.1875.09375Zm0 0"/><path id="g" d="M1.1875-3.54687h7.71875V-4.375H1.1875Zm0 0"/><path id="h" d="M1.0625-2.10937c0 1.21875.54688 2.26562 2.0625 2.26562 1.04688 0 1.89063-1.01562 2.51563-1.90625 0 1.32813.20312 1.90625.875 1.90625 1.42187 0 2.15625-1.48437 2.375-2l-.34375-.20312c-.35938.71875-.9375 1.48437-1.25 1.48437-.39063 0-.40625-.71875-.40625-1.0625 0-.60937.07812-1.4375.15625-2.14062l2.125-3.10938H8.14063L6.98438-4.64062c0-1.875-.5-2.39063-2.01563-2.39063-2.70312 0-3.90625 2.89063-3.90625 4.92188m1.35938.03125c0-1.625.85937-4.46875 2.5625-4.46875.67187 0 .85937.9375.85937 1.98437 0 .57813-.04687 1.20313-.125 1.75C5-1.64062 4.26563-.57812 3.34375-.57812c-.70312 0-.92187-.70313-.92187-1.5m0 0"/><path id="m" d="M1.26563-3.95312c0 1.60937 1.17187 2.79687 2.79687 2.79687 1.57813 0 2.75-1.1875 2.75-2.79687 0-1.5625-1.17187-2.73438-2.75-2.73438-1.625 0-2.79687 1.17188-2.79687 2.73438m0 0"/><path id="n" d="M1.64063-.64062c0 .48437.23437.79687.79687.79687 1.01563 0 1.79688-.95312 2.26563-2L4.375-2.04687c-.26562.5-.875 1.48437-1.26562 1.48437-.15625 0-.21875-.10937-.21875-.28125 0-.14062.03125-.29687.07812-.48437L4.5-6.96875l-.07812-.0625-2.54688.39063-.09375.32812.8125.07813c.25.01562.35938.09375.35938.28125 0 .09375-.01563.21875-.0625.35937L1.71875-1.20312c-.0625.20312-.07812.39062-.07812.5625M3.4375-9.09375c0 .51563.35938.79688.78125.79688.54688 0 .89063-.375.89063-.9375s-.375-.78125-.75-.78125c-.60938 0-.92188.46875-.92188.92187m0 0"/><path id="o" d="M.5625-2.10937c0 1.15625.5625 2 2.375 2.23437.53125.07813 1.15625.10938 1.15625.46875 0 .78125-.76562 1.375-1.09375 1.70313l.17188.26562c.6875-.42187 2.09375-1.45312 2.09375-2.625 0-.625-.4375-.75-1.60938-1.01562-1.125-.23438-1.875-.89063-1.875-1.84375 0-.75.4375-2.59375 2.67188-2.59375.29687 0 .46875.09375.67187.09375.26563 0 .40625-.20313.40625-.54688 0-.15625-.07812-.21875-.23437-.21875-.29688 0-.29688.09375-.71875.09375-.79688 0-.95313-.51562-.95313-.96875 0-.76562.26563-1.34375 1.03125-1.84375.1875.04688.4375.0625.65625.0625.64063 0 1.32813-.10937 1.32813-.875 0-.125-.07813-.1875-.375-.1875-.59375 0-1.0625.04688-1.875.60938-.45313-.29688-.70313-.40625-.70313-.625 0-.125.03125-.23438.15625-.39063l-.21875-.10937c-.48437.15625-.89062.32812-.89062.65625 0 .35937.46875.51562 1.29687.75-.95312.70312-1.5625 1.10937-1.5625 1.875 0 .5.35938 1.09375 1.57813 1.3125C.82813-5.125.5625-3.8125.5625-2.10937m0 0"/><path id="i" d="m.34375 3.32813.73438.39062L7.3125-8.26562l-.73437-.39063Zm0 0"/><path id="j" d="M1.46875-1.60937C.9375-.57812 1.04688.42188 2.54688 1.46875c.4375.32813.96875.625.79687.95313-.35937.6875-1.29687.85937-1.75 1l.03125.3125c.8125-.04688 2.53125-.3125 3.07813-1.35938.28125-.54687-.04688-.85937-.95313-1.64062-.89062-.73438-1.26562-1.65625-.82812-2.5.35937-.65625 1.59375-2.09375 3.57812-1.0625.26563.125.35938.28125.54688.375.23437.125.45312.01562.60937-.29688.07813-.14062.04688-.21875-.09375-.28125-.26562-.14062-.3125-.0625-.6875-.26562-.70312-.35938-.60937-.89063-.39062-1.29688.34375-.67187.84375-1.0625 1.75-1.15625.15625.125.35937.26563.5625.35938.5625.29687 1.23437.51562 1.57812-.17188.0625-.10937.03125-.1875-.23437-.32812-.53125-.26563-.98438-.45313-1.95313-.32813-.25-.48437-.4375-.6875-.34375-.875.0625-.10937.14063-.20312.32813-.26562l-.14063-.21875c-.51562-.07813-.95312-.10938-1.09375.1875-.17187.3125.17188.67187.79688 1.25-1.15625.1875-1.89063.26562-2.25.95312-.23438.4375-.17188 1.14063.79687 1.89063-3.1875-.875-4.01562.1875-4.8125 1.6875m0 0"/><path id="k" d="M2.6875-2.59375 9.54688.96875l.375-.73437-6.85938-3.5625Zm0 0"/><path id="l" d="M1.90625-1.39062c-.5625 1.07812-.5625 2.28125.78125 2.96875.9375.48437 2.15625-.03126 3.125-.51563-.625 1.17188-.70312 1.78125-.10937 2.09375 1.26562.65625 2.59375-.32812 3.03125-.6875l-.21875-.32812c-.64063.46875-1.5.875-1.78125.73437-.34375-.1875-.03125-.82812.125-1.125.28125-.54687.73437-1.25 1.125-1.84375l3.32812-1.76562-.92187-.46875-2.0625 1.4375C9.20313-2.5625 9-3.23437 7.65625-3.9375c-2.39062-1.25-4.8125.75-5.75 2.54688m1.1875.67187c.75-1.4375 2.82813-3.57812 4.34375-2.79687.59375.3125.34375 1.25-.14062 2.17187C7.03125-.82812 6.6875-.3125 6.375.14063c-1.1875.71875-2.32812 1.3125-3.14062.89062-.625-.32812-.5-1.04687-.14063-1.75m0 0"/><clipPath id="a"><path d="M.1875 168H340v2H.1875Zm0 0"/></clipPath><clipPath id="c"><path d="M127 20h1v276.5664h-1Zm0 0"/></clipPath></defs><g clip-path="url(#a)"><path fill="none" stroke="#000" stroke-miterlimit="10" stroke-width=".39754" d="M.3828 169.11719h338.94924"/></g><path fill="none" stroke="#000" stroke-linecap="round" stroke-linejoin="round" stroke-miterlimit="10" stroke-width=".39754" d="M337.46094 166.73047c.3789 1.4336 1.21875 2.10937 2.0664 2.38672-.84765.27734-1.6875.95312-2.0664 2.38672"/><use xlink:href="#b" x="344.99197" y="172.55283"/><g clip-path="url(#c)"><path fill="none" stroke="#000" stroke-miterlimit="10" stroke-width=".39754" d="M127.63672 296.3711V21.05077"/></g><path fill="none" stroke="#000" stroke-linecap="round" stroke-linejoin="round" stroke-miterlimit="10" stroke-width=".39754" d="M125.2539 22.92187c1.4297-.3789 2.10547-1.22265 2.38282-2.0703.28125.84765.95703 1.6914 2.38672 2.0703"/><use xlink:href="#d" x="123.38246" y="12.00505"/><path fill="none" stroke="#ff7f00" stroke-miterlimit="10" stroke-width=".79509" d="M212.47266 169.11719h84.83594"/><g fill="#ff7f00"><use xlink:href="#e" x="234.51343" y="185.38588"/><use xlink:href="#f" x="239.03055" y="185.38588"/></g><use xlink:href="#g" x="248.54186" y="185.38588" fill="#ff7f00"/><use xlink:href="#h" x="260.69189" y="185.38588" fill="#ff7f00"/><use xlink:href="#e" x="270.73988" y="185.38588" fill="#ff7f00"/><path fill="none" stroke="#007f7f" stroke-miterlimit="10" stroke-width=".79509" d="m187.625 109.1289 109.6836 59.98829"/><g fill="#007f7f"><use xlink:href="#i" x="232.1631" y="126.81813"/><use xlink:href="#j" x="236.16961" y="128.90375"/></g><use xlink:href="#k" x="244.67187" y="133.32967" fill="#007f7f"/><use xlink:href="#l" x="255.44846" y="138.93949" fill="#007f7f"/><use xlink:href="#i" x="264.36063" y="143.57879" fill="#007f7f"/><use xlink:href="#m" x="123.60592" y="87.62865"/><use xlink:href="#n" x="132.90549" y="78.85082"/><use xlink:href="#m" x="208.44031" y="172.46404"/><use xlink:href="#f" x="217.73988" y="183.91044"/><path fill="none" stroke="#000" stroke-miterlimit="10" stroke-width=".39754" d="M212.47266 169.11719c0-46.85547-37.98047-84.83594-84.83594-84.83594-46.85157 0-84.83594 37.98047-84.83594 84.83594s37.98437 84.83594 84.83594 84.83594c46.85547 0 84.83594-37.98047 84.83594-84.83594Zm0 0"/><use xlink:href="#m" x="293.27571" y="172.46404"/><use xlink:href="#h" x="292.2841" y="181.42044"/><use xlink:href="#m" x="183.59324" y="112.47672"/><use xlink:href="#o" x="192.89281" y="101.29868"/></svg>