<svg xmlns="http://www.w3.org/2000/svg" xmlns:xlink="http://www.w3.org/1999/xlink" width="248.778pt" height="259.279pt" viewBox="0 0 248.778 259.279"><defs><path id="a" d="M1.26563-3.95312c0 1.60937 1.17187 2.79687 2.79687 2.79687 1.57813 0 2.75-1.1875 2.75-2.79687 0-1.5625-1.17187-2.73438-2.75-2.73438-1.625 0-2.79687 1.17188-2.79687 2.73438m0 0"/></defs><use xlink:href="#a" x="235.2936" y="132.6252"/><use xlink:href="#a" x="147.40699" y="11.65758"/><use xlink:href="#a" x="5.20144" y="57.86409"/><use xlink:href="#a" x="5.20144" y="207.3863"/><use xlink:href="#a" x="147.40699" y="253.59281"/><path fill="#66cef5" fill-opacity=".2" stroke="#000" stroke-miterlimit="10" stroke-width=".3974" d="M239.32813 129.28125 151.4375 8.30858 9.23046 54.51562v149.52735l142.20704 46.20704 87.89063-120.96876"/><use xlink:href="#a" x="191.34082" y="72.14837"/><use xlink:href="#a" x="76.3077" y="34.77131"/><use xlink:href="#a" x="5.21241" y="132.6252"/><use xlink:href="#a" x="76.3077" y="230.47909"/><use xlink:href="#a" x="191.33484" y="193.10302"/><path fill="#66cef5" fill-opacity=".2" stroke="#000" stroke-miterlimit="10" stroke-width=".3974" d="m195.375 68.80078-115.03516-37.375-71.09766 97.85547 71.09766 97.85157 115.02735-37.375.00782-120.95704"/><use xlink:href="#a" x="133.82177" y="53.46832"/><use xlink:href="#a" x="40.76654" y="83.70424"/><use xlink:href="#a" x="40.76654" y="181.54716"/><use xlink:href="#a" x="133.81778" y="211.78308"/><use xlink:href="#a" x="191.32487" y="132.62819"/><path fill="#66cef5" fill-opacity=".2" stroke="#000" stroke-miterlimit="10" stroke-width=".3974" d="M137.85156 50.12109 44.79687 80.35546v97.84767l93.0547 30.23438 57.5039-79.15626-57.5039-79.16016"/><use xlink:href="#a" x="87.29615" y="68.59326"/><use xlink:href="#a" x="40.77451" y="132.6252"/><use xlink:href="#a" x="87.29515" y="196.65813"/><use xlink:href="#a" x="162.56584" y="172.20114"/><use xlink:href="#a" x="162.56584" y="93.05723"/><path fill="#66cef5" fill-opacity=".2" stroke="#000" stroke-miterlimit="10" stroke-width=".3974" d="m91.32812 65.24609-46.52344 64.03516 46.51954 64.03125 75.27344-24.45703V89.71093L91.32812 65.2461"/><use xlink:href="#a" x="64.03982" y="100.61222"/><use xlink:href="#a" x="64.03882" y="164.63818"/><use xlink:href="#a" x="124.9285" y="184.42416"/><use xlink:href="#a" x="162.55985" y="132.62919"/><use xlink:href="#a" x="124.93049" y="80.83422"/><path fill="#66cef5" fill-opacity=".2" stroke="#000" stroke-miterlimit="10" stroke-width=".3974" d="M68.0703 97.26562v64.02735l60.89064 19.78516 37.6289-51.79688-37.6289-51.79297L68.0703 97.26562"/><use xlink:href="#a" x="64.0448" y="132.6252"/><use xlink:href="#a" x="94.48516" y="174.52668"/><use xlink:href="#a" x="143.74019" y="158.52418"/><use xlink:href="#a" x="143.74119" y="106.73419"/><use xlink:href="#a" x="94.48914" y="90.7297"/><path fill="#66cef5" fill-opacity=".2" stroke="#000" stroke-miterlimit="10" stroke-width=".3974" d="m68.07421 129.28125 30.44141 41.89844 49.25782-16v-51.79297L98.51953 87.3828l-30.44532 41.89844"/><use xlink:href="#a" x="79.26747" y="153.57394"/><use xlink:href="#a" x="119.11168" y="166.52194"/><use xlink:href="#a" x="143.7372" y="132.62919"/><use xlink:href="#a" x="119.11367" y="98.73544"/><use xlink:href="#a" x="79.27246" y="111.67944"/><path fill="#66cef5" fill-opacity=".2" stroke="#000" stroke-miterlimit="10" stroke-width=".3974" d="m83.29687 150.22656 39.84766 12.94922 24.625-33.89453-24.625-33.89063-39.83984 12.94141-.00782 41.89453"/><use xlink:href="#a" x="99.19107" y="160.04495"/><use xlink:href="#a" x="131.42144" y="149.57307"/><use xlink:href="#a" x="131.42344" y="115.68431"/><use xlink:href="#a" x="99.19406" y="105.21043"/><use xlink:href="#a" x="79.27445" y="132.6252"/><path fill="#66cef5" fill-opacity=".2" stroke="#000" stroke-miterlimit="10" stroke-width=".3974" d="m103.22266 156.69922 32.23047-10.47266v-33.88672l-32.22657-10.47656-19.92187 27.41797 19.91797 27.41797"/><use xlink:href="#a" x="115.30526" y="154.80652"/><use xlink:href="#a" x="131.41945" y="132.62919"/><use xlink:href="#a" x="115.30725" y="110.44986"/><use xlink:href="#a" x="89.23675" y="118.91931"/><use xlink:href="#a" x="89.23476" y="146.33208"/><path fill="#66cef5" fill-opacity=".2" stroke="#000" stroke-miterlimit="10" stroke-width=".3974" d="m119.33594 151.46094 16.11719-22.17969-16.11329-22.17578-26.07422 8.46875v27.41406l26.07032 8.47266"/><use xlink:href="#a" x="123.36086" y="143.71635"/><use xlink:href="#a" x="123.36186" y="121.54002"/><use xlink:href="#a" x="102.2725" y="114.68708"/><use xlink:href="#a" x="89.23775" y="132.62619"/><use xlink:href="#a" x="102.27051" y="150.56631"/><path fill="#66cef5" fill-opacity=".2" stroke="#000" stroke-miterlimit="10" stroke-width=".3974" d="m127.39063 140.3711.0039-22.17579-21.08984-6.85547-13.03516 17.94141 13.03125 17.9375 21.08985-6.84766"/><use xlink:href="#a" x="123.35986" y="132.62819"/><use xlink:href="#a" x="112.81718" y="118.11555"/><use xlink:href="#a" x="95.75662" y="123.65714"/><use xlink:href="#a" x="95.75562" y="141.59525"/><use xlink:href="#a" x="112.81419" y="147.13884"/><path fill="#66cef5" fill-opacity=".2" stroke="#000" stroke-miterlimit="10" stroke-width=".3974" d="m127.39063 129.28125-10.54297-14.51172-17.0586 5.54297-.0039 17.9375 17.05859 5.54297 10.54688-14.51172"/></svg>