<svg xmlns="http://www.w3.org/2000/svg" xmlns:xlink="http://www.w3.org/1999/xlink" width="234.237" height="321.474" viewBox="0 0 234.237 321.474"><defs><path id="a" d="M1.10938 0h3.78125v-7.34375h4.71875v-1.0625H4.89063V-13.5H10.75v-1.04687H1.10938Zm1.0625-1.04687V-13.5h1.67187v12.45313Zm0 0"/><path id="b" d="M.42188-.17187.59375 0H6.8125l.53125-2.09375-.4375-.07812c-.34375.78125-.60937.89062-1.20312.89062h-3.75c.23437-.70312 1.01562-1.6875 2.4375-2.64062 1.48437-1 2.54687-1.6875 2.54687-3.29688C6.9375-9.28125 5.54688-10 3.92188-10c-2 0-3.14063 1.15625-3.14063 2.04688 0 .54687.60938.79687.92188.79687.28124 0 .42187-.15625.48437-.4375.23438-1.04687.78125-1.85937 1.64063-1.85937 1.03125 0 1.35937.89062 1.35937 1.96875 0 1.42187-.64062 2.35937-2.01562 3.54687-1.875 1.60938-2.53125 2.67188-2.75 3.76563m0 0"/><path id="c" d="M1.25 0h3.9375v-.375l-.89062-.07812c-.25-.03125-.375-.10938-.375-.53125v-6.79688l-.09375-.0625-2.54688.40625v.34375l.92188.125c.23437.04688.32812.14063.32812.51563v5.46875c0 .42187-.125.5-.39062.53125L1.25-.375Zm0 0"/><path id="d" d="M.35938-.15625.48438 0h5l.4375-1.75-.375-.0625c-.28125.625-.48438.70313-.95313.70313h-2.9375C1.84375-1.625 2.375-2.375 3.54688-3.09375 4.76563-3.875 5.57813-4.42187 5.57813-5.67187c0-1.60938-1.10938-2.17188-2.4375-2.17188-1.54688 0-2.53125.85938-2.53125 1.64063 0 .4375.51562.65625.79687.65625.23438 0 .34375-.125.40625-.375.1875-.84375.60938-1.46875 1.25-1.46875.75 0 1.01563.65625 1.01563 1.48437 0 1.01563-.42188 1.79688-1.54688 2.76563C1.01563-1.85937.48438-1 .35938-.15625m0 0"/><path id="e" d="m.25-2.32812.15625.29687h3.04688V-.875c0 .32813-.125.40625-.35938.4375l-.75.0625V0h3.26563v-.375l-.53125-.0625c-.23438-.03125-.3125-.10937-.3125-.4375v-1.15625h1.15625v-.65625H4.76563v-5.03125H3.65625C2.5-6.01562 1.29688-4.10937.25-2.32812m1-.35938c.625-1.17187 1.39063-2.4375 2.20313-3.75v3.75Zm0 0"/><path id="f" d="M.45313-3.64062C.45313-1.23437 1.3125.14063 3.25.14063 5.10938.14063 6-1.01562 6-2.5c0-1.60937-1.01562-2.40625-2.23437-2.40625-.85938 0-1.5.51563-1.85938.96875.01563-1.8125.46875-3.45312 1.54688-3.45312.5 0 .85937.45312 1.04687 1.17187.04688.15625.17188.28125.39063.28125.26562 0 .73437-.20312.73437-.59375 0-.51562-.64062-1.3125-2.09375-1.3125-1.89062 0-3.07812 1.39063-3.07812 4.20313m1.45312.92187c0-.6875.46875-1.4375 1.32813-1.4375.6875 0 1.3125.5625 1.3125 1.89063 0 1.14062-.375 1.95312-1.26563 1.95312-.9375 0-1.375-1.07812-1.375-2.40625m0 0"/><path id="g" d="M.34375-1.26562c0 .46875.70313 1.40625 2.54688 1.40625 1.75 0 2.84375-.82813 2.84375-2.29688 0-1.60937-1.40625-2-1.95313-2.0625v-.04687c.625-.125 1.625-.54688 1.625-1.67188 0-1.4375-1.1875-1.90625-2.40625-1.90625-1.45312 0-2.39062.78125-2.39062 1.4375 0 .42188.51562.64063.73437.64063.1875 0 .29688-.10938.35938-.3125.26562-.82813.64062-1.3125 1.25-1.3125.8125 0 .98437.82812.98437 1.40625 0 .5625-.15625 1.54687-1.07812 1.54687-.5 0-.85938-.125-1.04688-.125-.20312 0-.26562.125-.26562.375 0 .23438.0625.39063.26562.39063.1875 0 .53125-.14063 1.04688-.14063.79687 0 1.35937.625 1.35937 1.8125 0 1.28125-.54687 1.8125-1.3125 1.8125-.64062 0-1.09375-.5-1.375-1.32812-.0625-.21876-.20312-.34375-.40625-.34375-.3125 0-.78125.25-.78125.71875m0 0"/></defs><use xlink:href="#a" x="99.64143" y="22.2521"/><use xlink:href="#b" x="110.96928" y="27.16584"/><use xlink:href="#c" x="118.89945" y="22.55262"/><use xlink:href="#d" x="125.22815" y="22.55262"/><use xlink:href="#a" x="198.1645" y="117.61048"/><use xlink:href="#b" x="209.49235" y="122.52647"/><use xlink:href="#e" x="217.42028" y="117.911"/><use xlink:href="#a" x="7.44674" y="117.61048"/><use xlink:href="#b" x="18.77459" y="122.52647"/><use xlink:href="#f" x="26.70476" y="117.911"/><use xlink:href="#a" x="7.44674" y="212.96886"/><use xlink:href="#b" x="18.77459" y="217.88485"/><use xlink:href="#g" x="26.70476" y="213.27163"/><use xlink:href="#a" x="102.80512" y="212.96886"/><use xlink:href="#b" x="114.13298" y="217.88485"/><use xlink:href="#d" x="122.06314" y="213.27163"/><use xlink:href="#a" x="106.43929" y="308.32724"/><use xlink:href="#b" x="117.76714" y="313.24323"/><path fill="none" stroke="#000" stroke-miterlimit="10" stroke-width=".3972" d="M116.73828 285.89453V225.8008m-18.1875 60.09373-55.3242-60.09373m-21.82031-35.23828V130.4727m73.5117 60.08982-51.6914-60.08983m95.33202 60.08983 51.68749-60.08983M43.22658 95.23442 91.7539 35.14068m98.49218 60.09374-48.52343-60.09374"/></svg>