<svg xmlns="http://www.w3.org/2000/svg" xmlns:xlink="http://www.w3.org/1999/xlink" width="156.158pt" height="214.316pt" viewBox="0 0 156.158 214.316"><defs><path id="a" d="M.75 0h2.5v-4.89062h3.14063v-.70313H3.25v-3.375h3.89063v-.70312H.75Zm.6875-.70312v-8.26563h1.125v8.26563Zm0 0"/><path id="b" d="M.28125-.10937.39063 0h4.14062l.35938-1.39062-.29688-.0625c-.21875.53125-.40625.59375-.79687.59375h-2.5c.15624-.46875.6875-1.125 1.625-1.75.98437-.67188 1.70312-1.125 1.70312-2.20313 0-1.35937-.9375-1.84375-2.01562-1.84375-1.32813 0-2.09375.78125-2.09375 1.375 0 .34375.40625.51563.625.51563.1875 0 .28124-.10938.3125-.29688.15624-.6875.53125-1.21875 1.09375-1.21875.6875 0 .90625.59375.90625 1.29688 0 .95312-.42188 1.57812-1.34375 2.35937C.85938-1.54687.42188-.84375.28124-.10937m0 0"/><path id="c" d="M.82813 0h2.625v-.25l-.59375-.04687c-.17188-.01563-.25-.07813-.25-.35938v-4.51562l-.0625-.04688-1.70313.28125v.21875l.625.07813c.15625.03125.21875.09375.21875.34375v3.64062c0 .28125-.07812.34375-.26562.35938L.82813-.25Zm0 0"/><path id="d" d="M.23438-.10937.32813 0h3.3125l.29687-1.15625-.25-.04687c-.1875.40625-.32812.46875-.625.46875H1.10938c.10937-.34375.46875-.84375 1.25-1.32813.8125-.51562 1.34375-.875 1.34375-1.71875 0-1.0625-.73438-1.4375-1.60938-1.4375-1.03125 0-1.6875.5625-1.6875 1.09375 0 .29688.34375.4375.53125.4375.15625 0 .23438-.09375.26563-.25.125-.5625.40625-.98437.84375-.98437.5 0 .67187.4375.67187.98437 0 .6875-.28125 1.20313-1.03125 1.84375C.67188-1.23437.32813-.65625.23438-.10937m0 0"/><path id="e" d="m.15625-1.54687.10938.1875h2.03125v.78125c0 .21874-.07813.26562-.23438.28124l-.5.04688V0h2.17188v-.25L3.375-.28125c-.15625-.03125-.20312-.07812-.20312-.29687v-.78125h.76562v-.4375h-.76562V-5.125H2.4375C1.67188-4 .85938-2.73437.15625-1.54687m.67188-.25C1.25-2.5625 1.75-3.40625 2.29688-4.28125v2.48438Zm0 0"/><path id="f" d="M.29688-2.42187C.29688-.8125.875.09375 2.15625.09375c1.25 0 1.82813-.76562 1.82813-1.76562 0-1.0625-.67188-1.59375-1.48438-1.59375-.5625 0-.98437.34375-1.23437.64062.01562-1.20312.3125-2.29687 1.03125-2.29687.32812 0 .57812.3125.6875.78125.04687.10937.125.1875.26562.1875.1875 0 .5-.125.5-.39063 0-.34375-.4375-.875-1.39062-.875-1.26563 0-2.0625.92188-2.0625 2.79688m.96875.60937c0-.45312.3125-.95312.89062-.95312.45313 0 .875.375.875 1.25 0 .76562-.25 1.29687-.84375 1.29687-.625 0-.92187-.70312-.92187-1.59375m0 0"/><path id="g" d="M.23438-.84375c0 .3125.45312.9375 1.6875.9375 1.17187 0 1.89062-.54687 1.89062-1.53125 0-1.0625-.92187-1.32812-1.29687-1.35937v-.03125c.42187-.09375 1.07812-.375 1.07812-1.125 0-.95313-.79687-1.26563-1.59375-1.26563-.96875 0-1.59375.51563-1.59375.96875 0 .26563.34375.40625.48438.40625.125 0 .20312-.07812.25-.20312.17187-.54688.42187-.875.82812-.875.53125 0 .65625.5625.65625.9375s-.10937 1.03125-.71875 1.03125c-.34375 0-.57812-.09375-.70312-.09375s-.17188.09375-.17188.26562c0 .15625.04688.25.17188.25s.35937-.07812.70312-.07812c.53125 0 .90625.40625.90625 1.20312 0 .84375-.375 1.1875-.875 1.1875-.4375 0-.73437-.32812-.92187-.875C.96875-1.23437.875-1.32812.75-1.32812c-.20312 0-.51562.17187-.51562.48437m0 0"/></defs><use xlink:href="#a" x="66.28658" y="14.86464"/><use xlink:href="#b" x="73.82245" y="18.13501"/><use xlink:href="#c" x="79.09801" y="14.80496"/><use xlink:href="#d" x="83.30818" y="14.80496"/><use xlink:href="#a" x="131.82918" y="78.30259"/><use xlink:href="#b" x="139.36505" y="81.57146"/><use xlink:href="#e" x="144.6406" y="78.24291"/><use xlink:href="#a" x="4.95429" y="78.30259"/><use xlink:href="#b" x="12.49015" y="81.57146"/><use xlink:href="#f" x="17.76571" y="78.24291"/><use xlink:href="#a" x="4.95429" y="141.73954"/><use xlink:href="#b" x="12.49015" y="145.0099"/><use xlink:href="#g" x="17.76571" y="141.67986"/><use xlink:href="#a" x="68.39124" y="141.73954"/><use xlink:href="#b" x="75.9271" y="145.0099"/><use xlink:href="#d" x="81.20266" y="141.67986"/><use xlink:href="#a" x="70.8092" y="205.17748"/><use xlink:href="#b" x="78.34507" y="208.44636"/><path fill="none" stroke="#000" stroke-miterlimit="10" stroke-width=".39636" d="M77.66016 190.25v-39.98438M65.5586 190.25l-36.8125-39.98438M14.23047 126.8203V86.83594m48.91015 39.98436L28.7461 86.83594m63.43359 39.98436 34.39453-39.98437M28.7461 63.38671l32.28906-39.98438m65.53906 39.98438L94.28516 23.40233"/></svg>