<svg xmlns="http://www.w3.org/2000/svg" xmlns:xlink="http://www.w3.org/1999/xlink" width="695.355" height="179.1" viewBox="0 0 695.355 179.1"><defs><path id="a" d="M.89063-5.96875c0 2.09375.6875 3.8125 1.78125 4.75C3.90625-.15625 5.625.3125 7.5625.3125c1.53125 0 3.23438-.35937 4.4375-.79687l1-4.25c.17188-.70313.28125-1 .64063-1.04688l.92187-.07812.125-.60938H9.15625l-.10937.60938 1.5625.125c.29687.03125.42187.15625.42187.5 0 .125-.01562.28125-.0625.5l-.75 3.17187c-.15625.60938-.4375 1.14063-2.60937 1.14063-2.54688 0-4.40625-1.70313-4.40625-5.39063 0-3.34375 1.64062-8.28125 6.65625-8.28125 2.73437 0 3.20312 1.60938 3.34375 3.59375h.625l.75-3.28125c-1.26563-.6875-2.9375-1.04687-4.70313-1.04687-3.20312 0-5.53125 1.15625-7 3.03125C1.5-10.03125.89063-7.82812.89063-5.96875m0 0"/><path id="c" d="M.89063-4.0625C.89063-1.57812 2.8125.09375 5.3125.25L4.28125 5.0625l2-.57812L7.20313.25c4.09375-.23437 6.98437-3.73437 6.98437-7.42187 0-2.64063-1.64062-3.35938-3.53125-3.35938-1.78125 0-3.39062 2.10938-3.92187 4.42188-.45313 1.92187-.9375 3.96875-1.25 5.53125-1.98438-.14063-2.625-1.20313-2.625-2.75 0-2.25.64062-4.51563 2.42187-6.57813l-.21875-.39062C2.125-8.73437.89063-6.6875.89063-4.0625M7.35938-.51562l1.29687-5.95313c.28125-1.32812.95313-3.3125 2.25-3.3125.98438 0 1.25 1.07813 1.25 2.29688 0 3.15625-1.25 6.875-4.79687 6.96875m0 0"/><path id="d" d="M1.8125-5.90625c0 4.71875 1.0625 9.92188 5.5 10.09375v-.625c-1.5-.28125-3.82812-2.14062-3.82812-9.46875 0-7.29687 2.21875-9.14062 3.82812-9.48437v-.625c-4.4375.1875-5.5 5.375-5.5 10.10937m0 0"/><path id="e" d="M1.25 3.5625v.625c4.4375-.17187 5.5-5.375 5.5-10.09375 0-4.73437-1.0625-9.92187-5.5-10.10937v.625c1.60938.34375 3.82813 2.1875 3.82813 9.48437 0 7.32813-2.32813 9.1875-3.82813 9.46875m0 0"/><path id="g" d="M1.92188 4.1875h1.40625l5.75-20.20312H7.67188Zm0 0"/><path id="k" d="M.73438-.51562c0 .5.64062.76562.95312.76562 1.125 0 1.90625-1.39062 2.28125-2.32812.48438-1.21875 1.20313-3.85938 1.82813-6.84375h2.625L7.0625-2.59375c-.0625.45313-.10937.85938-.10937 1.1875C6.95313-.32812 7.29688.25 8.04688.25c1.54687 0 2.70312-1.17187 3.4375-2.92187L11-2.96875C10.45313-1.89062 9.60938-.82812 9.14063-.82812c-.25 0-.3125-.23438-.3125-.625 0-.21876.03125-.51563.0625-.78125l1.40625-6.6875H12.125l.85938-1.60938c-.60938.15625-1.48438.23438-2.45313.23438H4.57813c-1.07813 0-2.54688.53125-3.35938 1.79687l.34375.39063c.84375-.65625 1.9375-.8125 3.04688-.8125-.89063 3.6875-1.51563 7-2.6875 7.20312C1.375-1.625.73438-1.3125.73438-.51562m0 0"/><path id="b" d="M1.59375 0h4.92188v-.45312L5.34375-.5625c-.32812-.03125-.48437-.14062-.48437-.6875v-8.64062l-.09375-.07813-3.15625.53125v.39063L2.875-8.875c.28125.04688.375.15625.375.60938V-1.25c0 .54688-.14062.65625-.48437.6875l-1.17188.10938Zm0 0"/><path id="f" d="M.42188-.17187.59375 0H6.8125l.53125-2.09375-.4375-.07812c-.34375.78125-.60937.89062-1.20312.89062h-3.75c.23437-.70312 1.01562-1.6875 2.4375-2.64062 1.48437-1 2.54687-1.6875 2.54687-3.29688 0-2.03125-1.39062-2.75-3.01562-2.75-2 0-3.14063 1.15625-3.14063 2.04688 0 .51562.60938.76562.92188.76562.28124 0 .42187-.15625.48437-.4375.23438-1.01562.78125-1.82812 1.64063-1.82812 1.03125 0 1.35937.89062 1.35937 1.9375 0 1.42187-.64062 2.35937-2.01562 3.54687-1.875 1.60938-2.53125 2.67188-2.75 3.76563m0 0"/><path id="l" d="M.78125-4.1875C.78125-.40625 3.57813.21875 5.4375.21875c1.07813 0 2.29688-.23437 3.1875-.625l.6875-2.875c.125-.5.1875-.71875.46875-.75l.64063-.0625.09375-.45312H6.48438l-.09375.45312L7.45313-4c.20312.01563.29687.10938.29687.34375 0 .09375-.03125.21875-.0625.375L7.17188-1.125C7.0625-.65625 6.875-.34375 5.5-.34375 3.75-.34375 2.625-1.5 2.625-3.9375c0-2.40625 1.125-5.875 4.46875-5.875 1.8125 0 2.21875 1.125 2.3125 2.53125H9.875l.51563-2.35937C9.5-10.15625 8.28125-10.375 7.125-10.375c-5.0625 0-6.34375 3.95313-6.34375 6.1875m0 0"/><path id="n" d="M1.28125 2.9375h1.10938l4.03125-14.14062H5.3125Zm0 0"/><path id="r" d="M1.26563-4.14062c0 3.17187.79687 6.95312 3.76562 7.07812v-.48437C4.01563 2.25 2.5625.76563 2.5625-4.14062c0-4.875 1.40625-6.35938 2.46875-6.57813v-.48437c-2.96875.125-3.76562 3.89062-3.76562 7.0625m0 0"/><path id="s" d="M.625-2.75C.625-1.04687 1.85938.09375 3.75.17188l-.70312 3.375 1.64062-.40625.625-2.96875c3.01563-.15625 4.89063-2.5625 4.89063-5.15625 0-1.84375-1.17188-2.375-2.46875-2.375C6.32813-7.35937 5.14063-6 4.75-4.28125c-.3125 1.32813-.64062 2.76563-.85937 3.84375C2.60938-.53125 2.125-1.29687 2.125-2.35937c0-1.53125.54688-3.20313 1.6875-4.53125l-.1875-.32813C1.5-6.125.625-4.64062.625-2.75M5.4375-.40625l.89063-4.125c.20312-.92187.67187-2.28125 1.5-2.28125.64062 0 .82812.70313.82812 1.48438 0 2.15625-.85937 4.85937-3.21875 4.92187m0 0"/><path id="t" d="M.89063 2.45313v.48437c2.96875-.125 3.78125-3.90625 3.78125-7.07812s-.8125-6.9375-3.78125-7.0625v.48437C1.96875-10.5 3.375-9 3.375-4.14062c0 4.90625-1.48437 6.40625-2.48437 6.59375m0 0"/><path id="h" d="M.42188 0h5.10937v-.60937c-1.5-.10938-1.5625-.15626-1.5625-1.21875v-3.5h.04688c.875 1.35937 2.34375 3.1875 3.4375 4.29687C8.23438-.25 9.03125 0 9.70313.04688l1.57812.0625v-.59375c-.625-.1875-1.15625-.46875-1.8125-1.125C8.1875-2.875 6.5625-4.89062 5.75-6.01562c-.10937-.15625-.15625-.25.04688-.46875 1-1.15625 1.6875-1.76563 2.40625-2.29688s1.23437-.76562 2.45312-.89062v-.60938H8.5c-.71875 0-.92187.10938-1.34375.625C6.5625-8.92187 4.5-6.32812 4.01563-5.625h-.04688v-9.79687l-.15625-.125-3.28125.51562V-14.5l.78125.07813c.53125.0625.67188.17187.67188.98437v11.60938c0 1.0625-.04688 1.10937-1.5625 1.21875Zm0 0"/><path id="i" d="M1.03125-5.0625C1.03125-1.73437 2.45313.25 5.85938.25 8.1875.25 9.39063-1.04687 9.9375-2.70312l-.625-.32813C8.73438-1.8125 7.9375-.82812 6.28125-.82812c-2.60937 0-3.10937-2.5-3.07812-4.67188H9.25c.45313 0 .82813-.125.82813-.8125 0-1.21875-.40625-4.21875-4.23438-4.21875-3.28125 0-4.8125 2.32813-4.8125 5.46875m2.20313-1.25c0-.85937.3125-3.46875 2.5-3.46875 1.9375 0 2.15625 1.98438 2.15625 2.79688 0 .40625-.125.67187-.71875.67187Zm0 0"/><path id="j" d="M.67188 0h5.53125v-.60937c-1.875-.10938-1.98438-.15626-1.98438-1.21875v-4.90625c0-1.60938.70313-2.15625 1.20313-2.15625.32812 0 .6875.125 1.29687.46875.15625.07812.3125.10937.42188.10937.5 0 .95312-.54687.95312-1.1875 0-.46875-.29687-1.03125-1.10937-1.03125-.76563 0-1.39063.45313-2.76563 1.67188l-.25-1.67188-3.1875.54688v.51562l.78125.10938c.53125.07812.6875.17187.6875.9375v6.59375c0 1.0625-.10937 1.10937-1.57812 1.21875Zm0 0"/><path id="m" d="M1.25 0h3.92188v-.375l-.875-.07812c-.26563-.03125-.39063-.10938-.39063-.53125v-6.78125l-.07812-.07813-2.54688.42188v.32812l.92188.14063c.23437.03125.32812.14062.32812.5v5.46875c0 .42187-.125.5-.39062.53125L1.25-.375Zm0 0"/><path id="o" d="M.29688 0H3.875v-.42187C2.82813-.5 2.78125-.53125 2.78125-1.28125v-2.45312h.03125C3.42188-2.78125 4.45313-1.5 5.21875-.71875c.54688.54688 1.10938.71875 1.57813.75l1.09375.04688v-.42188c-.42188-.125-.79688-.32812-1.25-.78125-.90625-.89062-2.04688-2.29687-2.60938-3.09375-.07812-.10937-.10937-.17187.03125-.32812.70313-.8125 1.1875-1.23438 1.6875-1.60938s.85938-.53125 1.71875-.625v-.42187H5.95313c-.5 0-.64063.07812-.9375.4375C4.59375-6.25 3.15625-4.4375 2.8125-3.9375h-.03125v-6.85937l-.10937-.07813-2.29688.35938v.375l.54688.04687c.375.04688.46875.125.46875.6875v8.125c0 .75-.03126.78125-1.09375.85938Zm0 0"/><path id="p" d="M.71875-3.54687c0 2.32812 1 3.71875 3.39063 3.71875 1.625 0 2.46875-.90625 2.85937-2.0625l-.4375-.23438c-.40625.85938-.96875 1.54688-2.125 1.54688-1.82812 0-2.1875-1.75-2.15625-3.28125h4.23438c.3125 0 .57812-.07813.57812-.5625 0-.85938-.28125-2.95313-2.96875-2.95313-2.29687 0-3.375 1.625-3.375 3.82813m1.54688-.875c0-.60938.21875-2.4375 1.75-2.4375 1.35937 0 1.51562 1.39062 1.51562 1.96875 0 .28125-.09375.46875-.5.46875Zm0 0"/><path id="q" d="M.46875 0h3.875v-.42187C3.03125-.5 2.95313-.53125 2.95313-1.28125v-3.4375c0-1.125.5-1.51562.84375-1.51562.23437 0 .48437.09375.90625.32812.10937.0625.21875.07813.29687.07813.35938 0 .67188-.375.67188-.82813 0-.32812-.20313-.71875-.78125-.71875-.53125 0-.96875.3125-1.9375 1.17188L2.78125-7.375.54688-7v.35938l.54687.07812c.375.0625.48438.125.48438.65625v4.625c0 .75-.07813.78125-1.10938.85938Zm0 0"/></defs><use xlink:href="#a" x="97.78723" y="38.27367"/><use xlink:href="#b" x="112.7085" y="43.18101"/><use xlink:href="#c" x="355.2793" y="38.7861"/><use xlink:href="#d" x="370.78048" y="38.7861"/><use xlink:href="#a" x="379.34517" y="38.7861"/><use xlink:href="#b" x="394.26713" y="43.69344"/><use xlink:href="#e" x="403.51988" y="38.7861"/><use xlink:href="#a" x="661.68656" y="38.27367"/><use xlink:href="#f" x="676.60783" y="43.18101"/><use xlink:href="#a" x="196.68028" y="165.7073"/><use xlink:href="#b" x="211.60155" y="170.61464"/><use xlink:href="#g" x="220.85654" y="165.7073"/><use xlink:href="#h" x="234.32934" y="165.7073"/><use xlink:href="#i" x="245.30284" y="165.7073"/><use xlink:href="#j" x="256.0756" y="165.7073"/><use xlink:href="#d" x="264.21665" y="165.7073"/><use xlink:href="#c" x="272.78133" y="165.7073"/><use xlink:href="#e" x="288.28252" y="165.7073"/><path fill="none" stroke="#000" stroke-miterlimit="10" stroke-width=".39651" d="M129.83984 33.3125h217.14063"/><path fill="none" stroke="#000" stroke-linecap="round" stroke-linejoin="round" stroke-miterlimit="10" stroke-width=".39651" d="M345.11719 30.92969c.375 1.42969 1.21484 2.10156 2.0625 2.38281-.84766.27734-1.6875.94922-2.0625 2.3789"/><use xlink:href="#c" x="231.09036" y="17.96074"/><path fill="none" stroke="#000" stroke-miterlimit="10" stroke-width=".39651" d="M109.875 51.0586c0 52.59765 26.32031 109.16015 78.52344 109.16015"/><path fill="none" stroke="#000" stroke-linecap="round" stroke-linejoin="round" stroke-miterlimit="10" stroke-width=".39651" d="M184.07422 157.83984c.375 1.4297 1.21484 2.10157 2.0625 2.37891-.84766.27734-1.6875.95312-2.0625 2.3789m2.45703-4.75781c.3789 1.4297 1.21875 2.10157 2.0625 2.37891-.84375.27734-1.6836.95312-2.0625 2.3789"/><use xlink:href="#k" x="8.85115" y="97.46821"/><use xlink:href="#l" x="21.38591" y="102.37555"/><use xlink:href="#m" x="32.01773" y="105.80979"/><use xlink:href="#n" x="39.27352" y="102.37555"/><use xlink:href="#o" x="48.70537" y="102.37555"/><use xlink:href="#p" x="56.38682" y="102.37555"/><use xlink:href="#q" x="63.92776" y="102.37555"/><use xlink:href="#r" x="69.62649" y="102.37555"/><use xlink:href="#s" x="75.54371" y="102.37555"/><use xlink:href="#t" x="86.65995" y="102.37555"/><path fill="none" stroke="#000" stroke-dasharray="2.9738858500000003 2.9738858500000003" stroke-miterlimit="10" stroke-width=".39651" d="M304.70703 160.21875c52.53125 0 78.94922-55.96484 78.94922-108.09375"/><path fill="none" stroke="#000" stroke-linecap="round" stroke-linejoin="round" stroke-miterlimit="10" stroke-width=".39651" d="M381.27734 53.98828c1.42578-.3789 2.10157-1.21875 2.37891-2.0625.27734.84375.95312 1.6836 2.3789 2.0625"/><path fill="none" stroke="#000" stroke-miterlimit="10" stroke-width="1.22684" d="M400.125 96.94922h15.03125"/><use xlink:href="#c" x="400.12395" y="111.77233"/><path fill="none" stroke="#000" stroke-miterlimit="10" stroke-width=".39651" d="M421.91797 33.3125h231.4414"/><path fill="none" stroke="#000" stroke-linecap="round" stroke-miterlimit="10" stroke-width=".39651" d="M421.91797 33.3125h-.35547c-.79297 0-1.42969-.79297-1.42969-1.42969 0-.79297.63672-1.42578 1.42969-1.42578"/><path fill="none" stroke="#000" stroke-linecap="round" stroke-linejoin="round" stroke-miterlimit="10" stroke-width=".39651" d="M651.4961 30.92969c.375 1.42969 1.21484 2.10156 2.0625 2.38281-.84766.27734-1.6875.94922-2.0625 2.3789"/></svg>