<svg xmlns="http://www.w3.org/2000/svg" xmlns:xlink="http://www.w3.org/1999/xlink" width="463.518pt" height="119.4pt" viewBox="0 0 463.518 119.4"><defs><path id="a" d="M.59375-3.98437c0 1.39062.46875 2.54687 1.1875 3.17187C2.60938-.10937 3.75.20313 5.04688.20313 6.0625.20313 7.20313-.03126 8-.32812l.67188-2.82813c.125-.46875.1875-.67187.4375-.70312l.60937-.04688.07813-.40625h-3.6875l-.0625.40625 1.03125.07813c.20312.01562.28125.10937.28125.32812 0 .09375-.01563.20313-.04688.34375l-.5 2.10938c-.10937.40625-.28125.76562-1.73437.76562-1.70313 0-2.9375-1.125-2.9375-3.59375 0-2.23437 1.09375-5.53125 4.4375-5.53125C8.40625-9.40625 8.71875-8.32812 8.8125-7h.40625l.51563-2.1875c-.85938-.46875-1.96875-.70312-3.14063-.70312-2.14062 0-3.6875.76562-4.67187 2.01562C1-6.6875.59375-5.21875.59375-3.98437m0 0"/><path id="c" d="M.59375-2.70312C.59375-1.0625 1.875.0625 3.54688.15625L2.85938 3.375l1.32812-.39062.60938-2.82813c2.75-.14062 4.65625-2.48437 4.65625-4.95312 0-1.75-1.07813-2.21875-2.34375-2.21875-1.1875 0-2.26563 1.39062-2.60938 2.9375-.3125 1.28125-.625 2.65625-.84375 3.6875-1.32812-.07813-1.75-.79688-1.75-1.82813 0-1.5.42188-3.01562 1.625-4.39062L3.375-6.875C1.40625-5.82812.59375-4.46875.59375-2.70312m4.3125 2.35937.85938-3.96875c.20312-.89062.64062-2.21875 1.51562-2.21875.64063 0 .82813.73438.82813 1.53125 0 2.10938-.82813 4.59375-3.20313 4.65625m0 0"/><path id="d" d="M1.20313-3.9375c0 3.15625.71875 6.60938 3.67187 6.73438V2.375c-1-.1875-2.54687-1.42187-2.54687-6.3125 0-4.875 1.48437-6.10937 2.54687-6.32812v-.42188c-2.95312.125-3.67187 3.59375-3.67187 6.75m0 0"/><path id="e" d="M.82813 2.375v.42188C3.79688 2.67188 4.5-.78125 4.5-3.9375s-.70312-6.625-3.67187-6.75v.42188c1.07812.21875 2.5625 1.45312 2.5625 6.32812 0 4.89063-1.5625 6.125-2.5625 6.3125m0 0"/><path id="g" d="M1.28125 2.79688h.9375L6.04688-10.6875h-.9375Zm0 0"/><path id="k" d="M.48438-.34375c0 .32813.4375.5.64062.5.75 0 1.26563-.92187 1.51563-1.54687.32812-.8125.8125-2.5625 1.23437-4.5625h1.75l-.90625 4.23437c-.04687.29688-.07812.5625-.07812.78125 0 .71875.21875 1.09375.73437 1.09375 1.01563 0 1.79688-.76562 2.28125-1.9375l-.32812-.20312c-.35938.71875-.92188 1.4375-1.23438 1.4375-.15625 0-.20312-.17188-.20312-.42188 0-.14062.01562-.34375.04687-.51562l.9375-4.46875h1.21875l.5625-1.0625c-.40625.09375-.98437.14062-1.64062.14062H3.04688c-.71875 0-1.6875.35938-2.23438 1.20313l.23438.25c.5625-.42188 1.28125-.53125 2.03125-.53125C2.48438-3.5 2.0625-1.28125 1.28125-1.14062c-.35937.0625-.79687.26562-.79687.79687m0 0"/><path id="b" d="M1.0625 0h3.28125v-.29687L3.5625-.375c-.21875-.01562-.32812-.09375-.32812-.45312v-5.76563l-.0625-.0625-2.09375.35938v.26562l.84375.10938c.1875.03125.25.10937.25.40625v4.6875c0 .35937-.09375.4375-.32813.45312l-.78125.07813Zm0 0"/><path id="f" d="M.28125-.10937.39063 0h4.14062l.35938-1.39062-.29688-.0625c-.21875.53125-.40625.59375-.79687.59375h-2.5c.15624-.46875.6875-1.125 1.625-1.75.98437-.67188 1.70312-1.125 1.70312-2.20313 0-1.35937-.9375-1.84375-2.01562-1.84375-1.32813 0-2.09375.78125-2.09375 1.375 0 .34375.40625.51563.625.51563.1875 0 .28124-.10938.3125-.29688.15624-.6875.53125-1.21875 1.09375-1.21875.6875 0 .90625.59375.90625 1.29688 0 .95312-.42188 1.57812-1.34375 2.35937C.85938-1.54687.42188-.84375.28124-.10937m0 0"/><path id="l" d="M.51563-2.78125c0 2.51563 1.875 2.92188 3.10937 2.92188.71875 0 1.53125-.15625 2.125-.40625l.46875-1.92188c.07813-.32812.125-.46875.3125-.5l.42188-.03125.0625-.3125H4.3125l-.0625.3125.71875.0625c.125 0 .1875.0625.1875.21875 0 .0625-.01562.14063-.03125.25L4.78125-.75c-.07812.3125-.20312.51563-1.125.51563C2.5-.23437 1.75-1 1.75-2.625c0-1.59375.75-3.92187 2.96875-3.92187 1.21875 0 1.5.75 1.5625 1.70312h.3125L6.9375-6.4375c-.59375-.34375-1.40625-.48437-2.1875-.48437-3.375 0-4.23437 2.64062-4.23437 4.14062m0 0"/><path id="n" d="M.85938 1.95313h.73437l2.6875-9.42188h-.75Zm0 0"/><path id="r" d="M.84375-2.75c0 2.10938.53125 4.625 2.5 4.70313v-.3125C2.67188 1.5 1.70313.51563 1.70313-2.75S2.64063-7 3.34375-7.15625v-.3125C1.375-7.39062.84375-4.875.84375-2.75m0 0"/><path id="s" d="M.42188-1.82812c0 1.125.8125 1.89062 2.07812 1.9375l-.46875 2.25L3.125 2.09375 3.53125.10938C5.5625.01563 6.8125-1.59375 6.8125-3.3125c0-1.23437-.78125-1.59375-1.65625-1.59375-.9375 0-1.73437.90625-2 2.0625-.20312.875-.42187 1.82813-.5625 2.54688-.85937-.0625-1.17187-.5625-1.17187-1.28125 0-1.01563.35937-2.125 1.125-3.01563l-.125-.21875c-1.42188.73438-2 1.71875-2 2.98438M3.625-.26562l.59375-2.75c.125-.60938.4375-1.51563 1-1.51563.4375 0 .5625.46875.5625.98438 0 1.4375-.57812 3.23437-2.15625 3.28125m0 0"/><path id="t" d="M.59375 1.64063v.3125C2.57813 1.875 3.10938-.64062 3.10938-2.75c0-2.125-.53125-4.64062-2.51563-4.71875v.3125C1.3125-7 2.25-6 2.25-2.75c0 3.26563-.98437 4.26563-1.65625 4.39063m0 0"/><path id="h" d="M.28125 0H3.6875v-.40625c-1-.0625-1.04687-.09375-1.04687-.8125V-3.5625h.03125c.57812.92188 1.5625 2.14063 2.29687 2.875.51563.53125 1.0625.6875 1.5.71875l1.0625.04688v-.40625c-.42187-.125-.78125-.3125-1.20312-.75-.875-.84375-1.95313-2.17188-2.48438-2.9375-.07812-.10938-.10937-.17188.03125-.3125C4.53125-5.10937 5-5.5 5.46875-5.85937c.48438-.35938.82813-.5 1.64063-.59375v-.40625h-1.4375c-.48438 0-.60938.07812-.89063.42187C4.375-5.95312 3-4.21875 2.67188-3.75h-.03125v-6.54687l-.09375-.07813-2.1875.34375v.35938L.875-9.625c.35938.04688.45313.125.45313.65625v7.75c0 .71875-.03126.75-1.04688.8125Zm0 0"/><path id="i" d="M.6875-3.375c0 2.21875.95313 3.53125 3.21875 3.53125 1.54688 0 2.35938-.85937 2.73438-1.95312l-.42188-.21876c-.39062.8125-.92187 1.46875-2.03125 1.46875-1.73437 0-2.07812-1.67187-2.04687-3.125h4.03125c.29687 0 .54687-.07812.54687-.53125 0-.82812-.26562-2.8125-2.82812-2.8125C1.70313-7.01562.6875-5.46874.6875-3.375m1.46875-.82812c0-.59375.20313-2.32813 1.67188-2.32813 1.28125 0 1.4375 1.32813 1.4375 1.875 0 .26563-.09375.45313-.46875.45313Zm0 0"/><path id="j" d="M.45313 0h3.6875v-.40625C2.89063-.46875 2.8125-.5 2.8125-1.21875V-4.5c0-1.0625.46875-1.4375.79688-1.4375.23437 0 .46875.09375.875.3125.09375.0625.20312.07813.28125.07813.34375 0 .64062-.35938.64062-.79688 0-.3125-.20312-.67187-.75-.67187-.5 0-.92187.29687-1.84375 1.10937l-.17187-1.10937-2.125.35937v.32813l.53125.07812c.34375.0625.45312.125.45312.625v4.40625c0 .71875-.07812.75-1.04687.8125Zm0 0"/><path id="m" d="M.82813 0h2.625v-.25l-.59375-.04687c-.17188-.01563-.25-.07813-.25-.35938v-4.51562l-.0625-.04688-1.70313.28125v.21875l.625.07813c.15625.03125.21875.09375.21875.34375v3.64062c0 .28125-.07812.34375-.26562.35938L.82813-.25Zm0 0"/><path id="o" d="M.20313 0h2.375v-.28125c-.6875-.04687-.71875-.07812-.71875-.57812v-1.625H1.875c.40625.625 1.09375 1.48437 1.59375 2 .375.375.75.48437 1.0625.5l.73438.03125v-.28125C4.96875-.3125 4.71875-.45312 4.42188-.75 3.8125-1.34375 3.0625-2.28125 2.6875-2.8125c-.0625-.0625-.07812-.10937.01563-.21875.46875-.53125.79687-.8125 1.125-1.0625.32812-.25.57812-.35937 1.14062-.42187v-.28125h-1c-.34375 0-.4375.04687-.625.29687-.28125.34375-1.23437 1.54688-1.46875 1.875h-.01562v-4.57812L1.78125-7.25.25-7.01562v.25l.35938.03125c.25.03125.3125.07812.3125.45312v5.42188c0 .5-.01563.53125-.71875.57812Zm0 0"/><path id="p" d="M.48438-2.35937c0 1.54687.65625 2.46875 2.25 2.46875 1.07812 0 1.64062-.59375 1.90625-1.375l-.29688-.15626C4.07813-.84374 3.70313-.39061 2.9375-.39061c-1.21875 0-1.45312-1.15625-1.4375-2.1875h2.8125c.21875 0 .39063-.04688.39063-.35938 0-.57812-.1875-1.96875-1.98438-1.96875-1.51562 0-2.23437 1.07813-2.23437 2.54688m1.03125-.57813c0-.40625.14062-1.625 1.15625-1.625.90625 0 1.01562.92188 1.01562 1.3125 0 .1875-.0625.3125-.34375.3125Zm0 0"/><path id="q" d="M.3125 0h2.57813v-.28125c-.875-.04687-.92188-.07812-.92188-.57812v-2.28125c0-.75.32813-1.01563.5625-1.01563.15625 0 .3125.0625.59375.21875.07813.04688.15625.0625.20313.0625.23437 0 .45312-.25.45312-.5625 0-.21875-.14062-.46875-.53125-.46875-.34375 0-.64062.20313-1.28125.78125l-.10937-.78125-1.5.25v.23438l.375.04687c.25.04688.3125.09375.3125.4375v3.07813c0 .5-.04688.53125-.73438.57812Zm0 0"/></defs><use xlink:href="#a" x="65.11342" y="25.51578"/><use xlink:href="#b" x="75.06093" y="28.78734"/><use xlink:href="#c" x="236.7748" y="25.85806"/><use xlink:href="#d" x="247.10892" y="25.85806"/><use xlink:href="#a" x="252.8187" y="25.85806"/><use xlink:href="#b" x="262.76668" y="29.12813"/><use xlink:href="#e" x="268.93518" y="25.85806"/><use xlink:href="#a" x="441.04631" y="25.51578"/><use xlink:href="#f" x="450.99382" y="28.78734"/><use xlink:href="#a" x="131.04211" y="110.47186"/><use xlink:href="#b" x="140.98963" y="113.74343"/><use xlink:href="#g" x="147.15962" y="110.47186"/><use xlink:href="#h" x="156.14149" y="110.47186"/><use xlink:href="#i" x="163.45715" y="110.47186"/><use xlink:href="#j" x="170.639" y="110.47186"/><use xlink:href="#d" x="176.06636" y="110.47186"/><use xlink:href="#c" x="181.77615" y="110.47186"/><use xlink:href="#e" x="192.11027" y="110.47186"/><path fill="none" stroke="#000" stroke-miterlimit="10" stroke-width=".39651" d="M86.48047 22.20703h144.6289"/><path fill="none" stroke="#000" stroke-linecap="round" stroke-linejoin="round" stroke-miterlimit="10" stroke-width=".39651" d="M229.2461 19.82813c.3789 1.42578 1.21874 2.10156 2.0625 2.3789-.84376.27735-1.6836.95313-2.0625 2.3789"/><use xlink:href="#c" x="153.82662" y="11.97383"/><path fill="none" stroke="#000" stroke-miterlimit="10" stroke-width=".39651" d="M73.17188 34.03906c0 35.0664 17.54687 72.77344 52.21484 72.77344"/><path fill="none" stroke="#000" stroke-linecap="round" stroke-linejoin="round" stroke-miterlimit="10" stroke-width=".39651" d="M121.0664 104.4336c.375 1.42968 1.21485 2.10156 2.0625 2.3789-.84765.27734-1.6875.95312-2.0625 2.3789m2.45704-4.7578c.3789 1.42968 1.21484 2.10156 2.0625 2.3789-.84766.27734-1.6836.95312-2.0625 2.3789"/><use xlink:href="#k" x="5.87509" y="64.97848"/><use xlink:href="#l" x="14.2316" y="68.25003"/><use xlink:href="#m" x="21.21501" y="70.53953"/><use xlink:href="#n" x="26.0522" y="68.25003"/><use xlink:href="#o" x="32.34011" y="68.25003"/><use xlink:href="#p" x="37.46107" y="68.25003"/><use xlink:href="#q" x="42.48836" y="68.25003"/><use xlink:href="#r" x="46.28603" y="68.25003"/><use xlink:href="#s" x="50.23084" y="68.25003"/><use xlink:href="#t" x="57.65208" y="68.25003"/><path fill="none" stroke="#000" stroke-dasharray="2.9738858500000003 2.9738858500000003" stroke-miterlimit="10" stroke-width=".39651" d="M203.0625 106.8125c35.01953 0 52.6289-37.3086 52.6289-71.92969"/><path fill="none" stroke="#000" stroke-linecap="round" stroke-linejoin="round" stroke-miterlimit="10" stroke-width=".39651" d="M253.3125 36.7461c1.42969-.37891 2.10156-1.21876 2.3789-2.0625.28126.84374.95313 1.68359 2.38282 2.0625"/><path fill="none" stroke="#000" stroke-miterlimit="10" stroke-width=".81789" d="M266.51563 64.63281h10.33203"/><use xlink:href="#c" x="266.51535" y="74.51456"/><path fill="none" stroke="#000" stroke-miterlimit="10" stroke-width=".39651" d="M281.86328 22.20703h153.5"/><path fill="none" stroke="#000" stroke-linecap="round" stroke-miterlimit="10" stroke-width=".39651" d="M281.86328 22.20703h-.35937c-.79297 0-1.42579-.79297-1.42579-1.42578 0-.79297.63282-1.42969 1.42579-1.42969"/><path fill="none" stroke="#000" stroke-linecap="round" stroke-linejoin="round" stroke-miterlimit="10" stroke-width=".39651" d="M433.5 19.82813c.375 1.42578 1.21484 2.10156 2.0625 2.3789-.84766.27735-1.6875.95313-2.0625 2.3789"/></svg>