<svg xmlns="http://www.w3.org/2000/svg" xmlns:xlink="http://www.w3.org/1999/xlink" width="274.669pt" height="276.134pt" viewBox="0 0 274.669 276.134"><defs><path id="b" d="M.45313-.54687c0 .39062.32812.70312.89062.70312.95313 0 1.48438-.95312 2.0625-1.89062l.5625-.92188H4l.26563 1.10938C4.53125-.4375 4.78125.15624 5.5.15624c1.01563 0 1.5625-1.04687 1.96875-1.90625L7.125-1.9375c-.34375.625-.73437 1.375-1.125 1.375-.26562 0-.375-.3125-.6875-1.5625L4.875-3.95312c.5-.90625 1.21875-2.01563 1.625-2.01563s.42188.21875.84375.21875c.3125 0 .59375-.29687.59375-.67187 0-.42188-.32812-.60938-.71875-.60938-.73437 0-1.35937.67188-1.85937 1.46875L4.75-4.60937h-.03125l-.5625-2.35938-.07812-.0625-2.3125.70313.03124.34375 1.10938-.07813c.21875 0 .32813.10938.45313.70313l.5 2.03125-.39063.65625C2.875-1.64062 2.35938-.90625 2.01563-.90625 1.60938-.90625 1.5-1.25 1.0625-1.25c-.35937 0-.60937.35938-.60937.70313m0 0"/><path id="d" d="M0 2.625c0 .375.42188.75 1.03125.75 1.1875 0 1.6875-.875 2.92188-3 .29687-.48437 1.14062-1.95312 2-3.39062.8125-1.29688 1.6875-2.65625 1.6875-3.21875 0-.5-.15625-.79688-.25-.79688-.26563 0-.75.125-1.10938.35938 0 0-.04687 1.4375-.17187 1.92187C5.875-3.95312 5.0625-2.4375 4.14063-.84375h-.04688c-.10937-2.15625-.375-5.09375-.5625-6.125l-.10937-.0625-2.34375.67188L1.10937-6l.96876-.03125c.29687 0 .34375.23438.46875.95313.14062 1.09375.46875 3.78125.46875 4.90625 0 .40625-.01563.96875-.32813 1.71875-.26562.57812-.625 1-.90625 1-.5 0-.5625-.78125-1.0625-.78125C.35938 1.76563 0 2.21875 0 2.625m0 0"/><path id="g" d="M1.26563-3.95312c0 1.60937 1.17187 2.79687 2.79687 2.79687 1.5625 0 2.75-1.1875 2.75-2.79687 0-1.5625-1.1875-2.73438-2.75-2.73438-1.625 0-2.79687 1.17188-2.79687 2.73438m0 0"/><path id="j" d="M.98438-1.5c0 .82813.39062 1.65625 1.34375 1.65625C3.82813.15625 5.125-1.5625 5.9375-3h.03125L5.5-1.40625c-.09375.3125-.15625.59375-.15625.8125 0 .48438.23438.75.76563.75 1.04687 0 1.84375-.95312 2.3125-2l-.32813-.20312c-.25.5-.875 1.48437-1.26562 1.48437-.15625 0-.21875-.10937-.21875-.26562 0-.14063.04687-.29688.09375-.5l1.46875-5.57813H7l-.0625.17188c-.23437-.15625-.65625-.29688-1.03125-.29688C2.57813-7.03125.98438-3.34375.98438-1.5M2.375-1.53125c0-1.53125 1.35938-5 3.5625-5 .34375 0 .64063.10938.85938.3125-.26563 1.03125-.75 2.42188-1.5 3.53125-.78125 1.20313-1.65625 2.125-2.3125 2.125-.46875 0-.60938-.42187-.60938-.96875m0 0"/><path id="k" d="M-.29687 2.57813c.01562.45312.625.79687 1.28125.79687 1.39062 0 2-1.125 2.57812-3.8125l1.29688-5.89062H6.625l.14063-.53125H4.9375l.39063-1.57813C5.59375-9.5 5.85938-9.90625 6.25-9.90625c.375 0 .625.3125.9375.98438.07813.14062.1875.23437.39063.23437.28125 0 .6875-.25.6875-.60937 0-.59375-.76563-1.07813-1.59375-1.07813-1.65625 0-2.34375 1.15625-2.875 3l-.15625.51563H2.4375l-.15625.53125h1.25l-1.625 8.25c-.15625.85937-.3125.95312-.45312.95312s-.35938-.10937-.73438-.6875c-.10937-.125-.20312-.3125-.375-.3125-.3125 0-.64062.34375-.64062.70313m0 0"/><path id="l" d="M1.20313-3.95312c0 3.15625.71875 6.64062 3.6875 6.75V2.375c-1-.1875-2.5625-1.42187-2.5625-6.32812 0-4.85938 1.48437-6.09375 2.5625-6.32813v-.40625c-2.96875.10938-3.6875 3.57813-3.6875 6.73438m0 0"/><path id="m" d="M.82813 2.375v.42188c2.96875-.10938 3.6875-3.59375 3.6875-6.75s-.71875-6.625-3.6875-6.73438v.40625c1.07812.23438 2.5625 1.46875 2.5625 6.32813 0 4.90625-1.5625 6.14062-2.5625 6.32812m0 0"/><path id="h" d="M.39063-3.26562c0 1.90625.59375 3.375 2.25 3.375 1.67187 0 2.25-1.46875 2.25-3.375 0-1.92188-.57813-3.39063-2.25-3.39063-1.65625 0-2.25 1.46875-2.25 3.39063m1.125 0c0-1.48438.23437-3.03125 1.125-3.03125.90625 0 1.125 1.54687 1.125 3.03125 0 1.46875-.21875 3.01562-1.125 3.01562-.89063 0-1.125-1.54687-1.125-3.01562m0 0"/><path id="i" d="M1.0625 0h3.28125v-.29687L3.5625-.375c-.21875-.01562-.32812-.09375-.32812-.45312v-5.78125l-.0625-.04688-2.09375.34375v.26563l.84375.10937c.1875.03125.25.10938.25.40625v4.70313c0 .35937-.09375.4375-.32813.45312l-.78125.07813Zm0 0"/><clipPath id="a"><path d="M.26563 232H255v1H.26563Zm0 0"/></clipPath><clipPath id="c"><path d="M42 20h2v255.26953h-2Zm0 0"/></clipPath><clipPath id="e"><path d="M.26563 6H224v269.26953H.26563Zm0 0"/></clipPath><clipPath id="f"><path d="M92 24h127v251.26953H92Zm0 0"/></clipPath></defs><g clip-path="url(#a)"><path fill="none" stroke="#000" stroke-miterlimit="10" stroke-width=".39725" d="M.66014 232.57422h253.92587"/></g><path fill="none" stroke="#000" stroke-linecap="round" stroke-linejoin="round" stroke-miterlimit="10" stroke-width=".39725" d="M252.71875 230.1914c.3789 1.4297 1.21875 2.10547 2.0664 2.38282-.84765.27734-1.6875.95312-2.0664 2.38281"/><use xlink:href="#b" x="260.24503" y="236.00884"/><g clip-path="url(#c)"><path fill="none" stroke="#000" stroke-miterlimit="10" stroke-width=".39725" d="M43.04688 274.96095V21.03508"/></g><path fill="none" stroke="#000" stroke-linecap="round" stroke-linejoin="round" stroke-miterlimit="10" stroke-width=".39725" d="M40.66406 22.90234c1.42969-.3789 2.10547-1.21875 2.38282-2.0664.28125.84765.95312 1.6875 2.38671 2.0664"/><use xlink:href="#d" x="38.79553" y="11.99638"/><g clip-path="url(#e)"><path fill="none" stroke="#007f7f" stroke-miterlimit="10" stroke-width=".79452" d="m.66014 271.78126 8.83204 2.09766 8.82812.9961 8.83204-.10938 8.83203-1.21484 8.82813-2.32032 8.83203-3.42187 8.82813-4.52344 8.83204-5.62891 8.83203-6.73438 8.82813-7.83594 8.83203-8.9414 8.82813-10.04298 8.83204-11.14844 8.83203-12.25391 8.82813-13.35548 8.83203-14.46094 8.82813-15.5625 8.83204-16.66798 8.83203-17.76954 8.82813-18.875 8.83203-19.97657 8.82813-21.08595 8.83204-22.1836 8.83203-23.28907"/></g><g clip-path="url(#f)"><path fill="none" stroke="#000" stroke-miterlimit="10" stroke-width=".39725" d="m98.15236 270.51173 4.76563-10.01563 9.53907-20.02344 4.76562-10.01172 4.76954-10.01563 4.76953-10.01172 4.76563-10.01173 4.76953-10.01563 4.76563-10.01172 4.76953-10.01172 4.76953-10.01563 4.76563-10.01172 4.76953-10.01172 4.76953-10.01563 4.76563-10.01172 4.76953-10.01173 4.76563-10.01172 4.76953-10.01563 4.76954-10.01172 4.76562-10.01172 4.76954-10.01563 4.76953-10.01172 4.76563-10.01172 4.76953-10.01563"/></g><use xlink:href="#g" x="166.17904" y="122.53471"/><path fill="none" stroke="#000" stroke-miterlimit="10" stroke-width=".39725" d="M170.21098 228.33594v8.47656"/><use xlink:href="#b" x="162.99901" y="249.10776"/><use xlink:href="#h" x="171.23668" y="252.38548"/><path fill="none" stroke="#000" stroke-miterlimit="10" stroke-width=".39725" d="M116.21878 228.33594v8.47656"/><use xlink:href="#b" x="113.24604" y="249.10776"/><use xlink:href="#i" x="121.48371" y="252.38548"/><path fill="none" stroke="#000" stroke-miterlimit="10" stroke-width=".39725" d="M99.2422 236.8125v-8.47656"/><use xlink:href="#j" x="94.56463" y="222.90892"/><path fill="none" stroke="#000" stroke-dasharray="2.9794749621000003 2.9794749621000003" stroke-miterlimit="10" stroke-width=".39725" d="M170.21098 232.57422V119.18746"/><use xlink:href="#k" x="130.34043" y="110.53435"/><use xlink:href="#l" x="139.08511" y="110.53435"/><use xlink:href="#b" x="144.80565" y="110.53435"/><use xlink:href="#h" x="153.04373" y="113.81207"/><use xlink:href="#m" x="159.22535" y="110.53435"/></svg>