<svg xmlns="http://www.w3.org/2000/svg" xmlns:xlink="http://www.w3.org/1999/xlink" width="411.31" height="414.002" viewBox="0 0 411.31 414.002"><defs><path id="b" d="M.67188-.82812C.67188-.21876 1.15625.25 2.01563.25 3.4375.25 4.25-1.1875 5.125-2.59375l.84375-1.39062h.04688l.375 1.65625C6.79688-.64062 7.17188.25 8.25.25c1.54688 0 2.34375-1.59375 2.96875-2.85937l-.53125-.29688c-.51562.9375-1.09375 2.0625-1.67187 2.0625-.40625 0-.5625-.46875-1.03125-2.35937l-.67188-2.75C8.07813-7.29687 9.14063-8.96875 9.75-8.96875c.625 0 .64063.34375 1.26563.34375.48437 0 .90625-.45312.90625-1.01562 0-.64063-.5-.90625-1.07813-.90625-1.125 0-2.0625 1-2.79687 2.1875L7.125-6.9375h-.03125l-.85937-3.53125-.10938-.07812L2.65625-9.5l.04688.51563 1.65625-.10938c.34375 0 .5.15625.6875 1.04688l.75 3.03125L5.20313-4c-.89063 1.54688-1.67188 2.64063-2.1875 2.64063-.59375 0-.75-.51563-1.42188-.51563-.54687 0-.92187.53125-.92187 1.04688m0 0"/><path id="c" d="M0 3.9375C0 4.5.625 5.07813 1.54688 5.07813c1.78125 0 2.54687-1.32813 4.40625-4.51563C6.375-.15625 7.64063-2.375 8.9375-4.51562c1.21875-1.96875 2.53125-4 2.53125-4.85938 0-.73437-.21875-1.17187-.375-1.17187-.40625 0-1.125.17187-1.65625.53125 0 0-.0625 2.14062-.26562 2.89062-.34375 1.17188-1.5625 3.45313-2.95313 5.84375h-.0625C6-4.5 5.59375-8.92187 5.29688-10.46875l-.15625-.07812-3.53125 1 .0625.53125L3.125-9.0625c.4375 0 .51563.35938.70313 1.4375.21875 1.625.6875 5.6875.6875 7.35938 0 .625-.01563 1.46875-.48438 2.59375-.39062.875-.92187 1.5-1.34375 1.5-.76562 0-.85937-1.17188-1.60937-1.17188C.53125 2.65625 0 3.32813 0 3.9375m0 0"/><path id="e" d="M1.90625-5.92187c0 2.40625 1.76563 4.17187 4.20313 4.17187 2.34375 0 4.10937-1.76562 4.10937-4.17187 0-2.34375-1.76562-4.125-4.10937-4.125-2.4375 0-4.20313 1.78125-4.20313 4.125m0 0"/><path id="h" d="M1.46875-2.26562C1.46875-1 2.0625.25 3.48438.25 5.75.25 7.6875-2.34375 8.92188-4.5h.04687L8.25-2.10937c-.14062.48437-.21875.875-.21875 1.21875C8.03125-.15626 8.39063.25 9.17188.25c1.57812 0 2.76562-1.4375 3.48437-3.01562l-.5-.29688c-.375.73438-1.3125 2.21875-1.89062 2.21875-.25 0-.34375-.15625-.34375-.40625 0-.20312.07812-.45312.14062-.73437l2.21875-8.39063h-1.76562l-.09375.26563c-.35938-.25-.98438-.4375-1.54688-.4375-5 0-7.40625 5.51562-7.40625 8.28125m2.09375-.03125c0-2.3125 2.04688-7.51563 5.35938-7.51563.51562 0 .96875.17188 1.28125.46875-.39063 1.5625-1.125 3.64063-2.25 5.3125-1.17188 1.79688-2.46875 3.1875-3.48438 3.1875-.6875 0-.90625-.625-.90625-1.45312m0 0"/><path id="i" d="M-.45312 3.875c.03125.6875.9375 1.20313 1.92187 1.20313 2.10938 0 3-1.70313 3.875-5.71875L7.29688-9.5h2.65625l.20312-.8125H7.42188L8-12.67187c.40625-1.59375.8125-2.20313 1.39063-2.20313.5625 0 .9375.46875 1.40625 1.48438.10937.20312.26562.35937.57812.35937.4375 0 1.03125-.39062 1.03125-.92187 0-.89063-1.14062-1.625-2.39062-1.625-2.48438 0-3.51563 1.73437-4.3125 4.51562l-.21875.75h-1.8125l-.25.8125h1.875L2.85938 2.89063c-.25 1.29687-.46875 1.42187-.67188 1.42187-.21875 0-.5625-.15625-1.10937-1.03125-.15626-.20312-.29688-.46875-.5625-.46875-.46875 0-.96875.51563-.96875 1.0625m0 0"/><path id="j" d="M1.8125-5.92187c0 4.73437 1.07813 9.95312 5.51563 10.125v-.625c-1.5-.29688-3.84375-2.14063-3.84375-9.5 0-7.3125 2.23437-9.17188 3.84375-9.5v-.625c-4.4375.17187-5.51563 5.375-5.51563 10.125m0 0"/><path id="k" d="M1.25 3.57813v.625c4.45313-.17188 5.53125-5.39063 5.53125-10.125 0-4.75-1.07812-9.95313-5.53125-10.125v.625c1.60938.32812 3.84375 2.1875 3.84375 9.5 0 7.35937-2.34375 9.20312-3.84375 9.5m0 0"/><path id="f" d="M.59375-4.92187c0 2.89062.875 5.09375 3.39063 5.09375 2.5 0 3.375-2.20313 3.375-5.09375 0-2.875-.875-5.07813-3.375-5.07813C1.46875-10 .59375-7.79687.59375-4.92187m1.6875 0c0-2.21875.34375-4.53125 1.70313-4.53125 1.34375 0 1.6875 2.3125 1.6875 4.53125 0 2.23437-.34375 4.54687-1.6875 4.54687-1.35938 0-1.70313-2.3125-1.70313-4.54687m0 0"/><path id="g" d="M1.59375 0h4.9375v-.45312L5.35938-.5625C5.03125-.59375 4.875-.70312 4.875-1.25v-8.67187L4.78125-10l-3.17187.53125v.39063l1.26562.17187c.28125.04688.375.15625.375.60938V-1.25c0 .54688-.14062.65625-.48437.6875l-1.17188.10938Zm0 0"/><clipPath id="a"><path d="M.15234 348H383v2H.15234Zm0 0"/></clipPath><clipPath id="d"><path d="M.15234 14H330v399.00781H.15234Zm0 0"/></clipPath></defs><g clip-path="url(#a)"><path fill="none" stroke="#000" stroke-miterlimit="10" stroke-width=".39754" d="M.54689 349.11328h381.3632"/></g><path fill="none" stroke="#000" stroke-linecap="round" stroke-linejoin="round" stroke-miterlimit="10" stroke-width=".39754" d="M380.04297 346.73047c.3789 1.42969 1.21875 2.10547 2.0664 2.38281-.84765.28125-1.6875.95703-2.0664 2.38672"/><use xlink:href="#b" x="390.20512" y="354.26899"/><path fill="none" stroke="#000" stroke-miterlimit="10" stroke-width=".39754" d="M64.17578 412.74218V31.37896"/><path fill="none" stroke="#000" stroke-linecap="round" stroke-linejoin="round" stroke-miterlimit="10" stroke-width=".39754" d="M61.78906 33.2461c1.42969-.37891 2.10547-1.21876 2.38672-2.06641.27734.84765.95313 1.6875 2.38281 2.0664"/><use xlink:href="#c" x="57.78945" y="18.00759"/><g clip-path="url(#d)"><path fill="none" stroke="#007F7F" stroke-miterlimit="10" stroke-width=".7951" d="m.54689 407.96874 13.2539 3.14844 13.25781 1.49218 13.2539-.16406 13.2539-1.82422 13.25782-3.48047 13.2539-5.13671 13.25781-6.79297 13.2539-8.44922 13.25391-10.10546 13.25781-11.76563 13.2539-13.41796 13.2539-15.07813 13.25782-16.73437 13.2539-18.39062 13.2539-20.05078 13.25781-21.70312 13.25391-23.36328 13.2539-25.01952 13.25781-26.67578 13.2539-28.33203 13.25391-29.98827 13.25781-31.64843 13.2539-33.30468 13.25781-34.95703"/></g><path fill="none" stroke="#000" stroke-miterlimit="10" stroke-width=".39754" d="m146.89061 406.05858 7.15625-15.02734 14.3125-30.0625 7.16015-15.03124 7.15625-15.02734 14.3125-30.0625 7.16015-15.03124 7.15625-15.02734 14.3125-30.0625 7.16015-15.03125 7.15625-15.02734 7.15625-15.03124 7.16016-15.03125 7.15624-15.02734 14.3125-30.0625 7.16016-15.03124 7.15624-15.02734 14.3125-30.0625 7.16016-15.03125 7.15625-15.02734"/><use xlink:href="#e" x="249.0035" y="183.9346"/><path fill="none" stroke="#000" stroke-miterlimit="10" stroke-width=".39754" d="M255.05465 342.75v12.72656"/><use xlink:href="#b" x="244.23001" y="373.93259"/><use xlink:href="#f" x="256.5977" y="378.85273"/><path fill="none" stroke="#000" stroke-miterlimit="10" stroke-width=".39754" d="M174.0078 342.75v12.72656"/><use xlink:href="#b" x="169.54604" y="373.93259"/><use xlink:href="#g" x="181.91149" y="378.85273"/><path fill="none" stroke="#000" stroke-miterlimit="10" stroke-width=".39754" d="M148.52733 355.47656V342.75"/><use xlink:href="#h" x="141.97351" y="334.60539"/><path fill="none" stroke="#000" stroke-dasharray="2.9816568080000003 2.9816568080000003" stroke-miterlimit="10" stroke-width=".39754" d="M255.05465 349.11328V178.9141"/><use xlink:href="#i" x="195.20719" y="165.92203"/><use xlink:href="#j" x="208.3337" y="165.92203"/><use xlink:href="#b" x="216.92072" y="165.92203"/><use xlink:href="#f" x="229.28678" y="170.84216"/><use xlink:href="#k" x="238.56591" y="165.92203"/></svg>