<svg xmlns="http://www.w3.org/2000/svg" xmlns:xlink="http://www.w3.org/1999/xlink" width="785.486" height="541.694" viewBox="0 0 785.486 541.694"><defs><path id="a" d="M.67188-.82812c0 .60937.5 1.07812 1.34375 1.07812C3.45313.25 4.25-1.1875 5.125-2.59375l.85938-1.39062h.04687l.375 1.65625C6.8125-.65625 7.1875.25 8.26563.25 9.8125.25 10.625-1.34375 11.25-2.625l-.54687-.28125c-.51563.9375-1.09375 2.0625-1.67188 2.0625-.40625 0-.5625-.48437-1.03125-2.35937l-.67187-2.75c.76562-1.34375 1.84375-3.03125 2.4375-3.03125.625 0 .65625.32812 1.28125.32812.46875 0 .89062-.4375.89062-1 0-.65625-.48437-.92187-1.07812-.92187C9.75-10.57812 8.8125-9.5625 8.0625-8.375l-.92187 1.42188h-.03125L6.25-10.48437l-.10937-.09375-3.46875 1.0625L2.71875-9 4.375-9.125c.32813 0 .48438.15625.6875 1.0625l.73438 3.04688-.57813 1c-.89062 1.54687-1.67187 2.65625-2.1875 2.65625-.60937 0-.76562-.51563-1.4375-.51563-.54687 0-.92187.53125-.92187 1.04688m0 0"/><path id="c" d="M0 3.9375C0 4.5.625 5.09375 1.54688 5.09375c1.79687 0 2.54687-1.32812 4.40625-4.53125.4375-.71875 1.70312-2.9375 3.01562-5.09375C10.17188-6.5 11.5-8.53125 11.5-9.39062c0-.73438-.23437-1.1875-.39062-1.1875-.40625 0-1.10938.1875-1.65625.54687 0 0-.0625 2.14063-.26563 2.89063-.34375 1.1875-1.5625 3.46875-2.95312 5.85937h-.07813C6-4.5 5.60938-8.9375 5.3125-10.48437l-.15625-.09375L1.60938-9.5625l.07812.53125 1.45313-.04687c.42187 0 .51562.35937.6875 1.4375.23437 1.64062.70312 5.6875.70312 7.375 0 .625-.03125 1.46875-.5 2.59375-.375.875-.92187 1.5-1.34375 1.5-.76562 0-.84375-1.15625-1.60937-1.15625C.53125 2.67188 0 3.34375 0 3.9375m0 0"/><path id="e" d="M1.79688-3H13.375v-1.23437H1.79688Zm0-4.64062H13.375V-8.875H1.79688Zm0 0"/><path id="f" d="m.53125-7.53125.5.3125c.53125-1.07812 1.5-2.1875 1.96875-2.1875.21875 0 .34375.20313.34375.59375 0 1-.82812 3.89063-.82812 5.14063C2.51563-.875 3.60938.25 6.34375.25c0 .20313-.76562 4.35938-.76562 4.65625.0625.1875.10937.1875.35937.1875.26563 0 .3125 0 .45313-.14062C6.46875 4.84375 7.21875 1.8125 7.625.25c2.125 0 3.92188-1.6875 4.85938-3.46875 1.29687-2.46875 1.29687-5.90625 3.57812-6.89062 0-.10938-.09375-.46875-.09375-.46875-.84375 0-1.96875.09375-2.84375.92187-1.07812 1-.78125 5.95313-2.90625 7.84375-1.375 1.1875-1.70312 1.23438-2.375 1.23438 0 0 2.375-9.78125 2.84375-11.3125-.35937 0-1.76562.42187-2.15625.59375C8.10938-8.875 6.5-.57812 6.5-.57812 4.79688-.57812 4.48438-1.25 4.48438-3.5c0-1.5625.79687-3.71875.79687-5.57812 0-.82813-.23437-1.5-1.09375-1.5-1.54687 0-3.01562 1.17187-3.65625 3.04687m0 0"/><path id="h" d="M1.8125-5.9375c0 4.75 1.07813 9.96875 5.53125 10.15625v-.64062C5.84375 3.29688 3.5 1.4375 3.5-5.9375c0-7.32812 2.23438-9.1875 3.84375-9.51562v-.64063C2.89063-15.90625 1.8125-10.6875 1.8125-5.9375m0 0"/><path id="i" d="M1.25 3.57813v.64062C5.71875 4.03125 6.79688-1.1875 6.79688-5.9375S5.71875-15.90625 1.25-16.09375v.64063c1.625.32812 3.85938 2.1875 3.85938 9.51562 0 7.375-2.35938 9.23438-3.85938 9.51563m0 0"/><path id="j" d="M.89063-4.07812c0 2.48437 1.9375 4.17187 4.4375 4.32812L4.29688 5.09375 6.3125 4.5 7.23438.25C11.35938.01563 14.25-3.5 14.25-7.21875c0-2.64062-1.64062-3.35937-3.54687-3.35937-1.78125 0-3.40625 2.10937-3.9375 4.4375-.45313 1.92187-.9375 3.98437-1.25 5.5625-2-.14063-2.64063-1.21875-2.64063-2.76563 0-2.26562.64063-4.54687 2.4375-6.60937l-.21875-.40625C2.125-8.78125.89063-6.71875.89063-4.07812m6.5 3.5625L8.6875-6.5c.29688-1.34375.96875-3.34375 2.26563-3.34375.98437 0 1.26562 1.10938 1.26562 2.3125 0 3.1875-1.26562 6.92188-4.82812 7.01563m0 0"/><path id="g" d="M1.59375 0h4.95313v-.45312L5.35938-.5625C5.03125-.59375 4.875-.70312 4.875-1.25v-8.70312l-.09375-.07813-3.17187.54688v.39062l1.28125.17188c.28125.04687.375.15625.375.60937V-1.25c0 .54688-.14063.65625-.48438.6875l-1.1875.10938Zm0 0"/><path id="k" d="M1.1875-3.67187h8.21875v-.96875H1.1875Zm0 0"/><path id="l" d="M.42188-.17187.59375 0h6.25L7.375-2.10937l-.4375-.07813c-.34375.79688-.60937.90625-1.21875.90625H1.95313C2.20313-2 2.98438-2.98437 4.40625-3.9375c1.5-1 2.5625-1.6875 2.5625-3.3125 0-2.04687-1.40625-2.78125-3.03125-2.78125-2.01562 0-3.15625 1.17188-3.15625 2.0625 0 .53125.60938.78125.92188.78125.29687 0 .4375-.15625.5-.4375.23437-1.03125.78125-1.84375 1.64062-1.84375 1.03125 0 1.35938.89063 1.35938 1.95313 0 1.42187-.64063 2.375-2.01563 3.5625C1.29688-2.34375.64063-1.26562.42188-.17187m0 0"/><clipPath id="b"><path d="M403 31h2v510.36328h-2Zm0 0"/></clipPath><clipPath id="d"><path d="M137 120h544v421.36328H137Zm0 0"/></clipPath></defs><path fill="none" stroke="#000" stroke-miterlimit="10" stroke-width=".39824" d="M21.68752 477.22656h700.72652"/><path fill="none" stroke="#000" stroke-linecap="round" stroke-linejoin="round" stroke-miterlimit="10" stroke-width=".39824" d="M720.54297 474.83984c.375 1.4336 1.21875 2.10938 2.07031 2.38672-.85156.28125-1.69531.95703-2.07031 2.39063"/><use xlink:href="#a" x="730.72184" y="482.39157"/><g clip-path="url(#b)"><path fill="none" stroke="#000" stroke-miterlimit="10" stroke-width=".39824" d="M404.11719 540.96484V31.45706"/></g><path fill="none" stroke="#000" stroke-linecap="round" stroke-linejoin="round" stroke-miterlimit="10" stroke-width=".39824" d="M401.73047 33.32812c1.4336-.3789 2.10937-1.22265 2.38672-2.0703.28125.84765.95703 1.6914 2.39062 2.0703"/><use xlink:href="#c" x="397.72274" y="18.06441"/><g clip-path="url(#d)"><path fill="none" stroke="#007F7F" stroke-miterlimit="10" stroke-width=".79649" d="M244.77345 219.72267c10.21875 7.15625 22.3125 10.57031 31.86718 2.55078 105.45703-105.45702 319.40233-135.16405 382.43357 0 38.02344 81.54297-38.87109 175.59374-127.47655 191.21484-101.0625 17.8203-153.89452-81.5586-254.95702-63.73828-88.60546 15.625-127.47655 101.24608-127.47655 191.21483"/></g><path fill="none" stroke="#000" stroke-miterlimit="10" stroke-width=".39824" d="m244.47657 350.01954-69.52343 63.20312"/><path fill="none" stroke="#000" stroke-linecap="round" stroke-linejoin="round" stroke-miterlimit="10" stroke-width=".39822" d="M241.48437 349.50781c1.2461.8086 2.32422.7422 3.14063.375-.4414.78125-.60937 1.84766.07422 3.16406m-66.75391 60.6836c-1.24219-.80469-2.32422-.73828-3.14062-.375.4414-.77735.60937-1.84375-.07422-3.16016"/><use xlink:href="#a" x="7.46611" y="368.75418"/><use xlink:href="#e" x="25.14072" y="368.75418"/><use xlink:href="#f" x="44.65224" y="368.75418"/><use xlink:href="#g" x="59.72642" y="373.68296"/><use xlink:href="#h" x="69.01959" y="368.75418"/><use xlink:href="#a" x="77.62168" y="368.75418"/><use xlink:href="#i" x="90.95044" y="368.75418"/><use xlink:href="#e" x="103.89838" y="368.75418"/><use xlink:href="#j" x="123.4099" y="368.75418"/><use xlink:href="#k" x="138.99829" y="359.7938"/><use xlink:href="#g" x="149.59858" y="359.7938"/><use xlink:href="#g" x="137.40858" y="374.74201"/><use xlink:href="#h" x="158.89327" y="368.75418"/><use xlink:href="#c" x="167.49537" y="368.75418"/><use xlink:href="#i" x="180.2865" y="368.75418"/><use xlink:href="#c" x="7.46611" y="395.63534"/><use xlink:href="#e" x="24.60309" y="395.63534"/><use xlink:href="#j" x="44.11461" y="395.63534"/><use xlink:href="#g" x="58.11422" y="400.56412"/><use xlink:href="#h" x="67.40739" y="395.63534"/><use xlink:href="#a" x="76.00948" y="395.63534"/><use xlink:href="#i" x="89.33825" y="395.63534"/><path fill="none" stroke="#000" stroke-miterlimit="10" stroke-width=".39824" d="M461.8828 416.03907h88.4336"/><path fill="none" stroke="#000" stroke-linecap="round" stroke-linejoin="round" stroke-miterlimit="10" stroke-width=".39824" d="M463.7539 418.42969c-.3789-1.4336-1.22265-2.11328-2.0703-2.39063.84765-.27734 1.6914-.95703 2.0703-2.39062m84.69141 0c.3789 1.4336 1.22266 2.11328 2.07032 2.39062-.84766.27735-1.69141.95703-2.07032 2.39063"/><use xlink:href="#c" x="460.86242" y="444.48438"/><use xlink:href="#e" x="477.99941" y="444.48438"/><use xlink:href="#j" x="497.51092" y="444.48438"/><use xlink:href="#l" x="511.50828" y="449.41315"/><use xlink:href="#h" x="520.80145" y="444.48438"/><use xlink:href="#a" x="529.40354" y="444.48438"/><use xlink:href="#i" x="542.73231" y="444.48438"/><path fill="none" stroke="#000" stroke-miterlimit="10" stroke-width=".39824" d="M669.26952 311.10938V222.6719"/><path fill="none" stroke="#000" stroke-linecap="round" stroke-linejoin="round" stroke-miterlimit="10" stroke-width=".39824" d="M671.66016 309.23828c-1.4336.3789-2.10938 1.21875-2.39063 2.07031-.27734-.85156-.95312-1.6914-2.38672-2.0703m0-84.69532c1.4336-.3789 2.10938-1.22266 2.38672-2.07031.28125.84765.95703 1.6914 2.39063 2.0703"/><use xlink:href="#a" x="685.95713" y="272.39399"/><use xlink:href="#e" x="703.63174" y="272.39399"/><use xlink:href="#f" x="723.14326" y="272.39399"/><use xlink:href="#l" x="738.21518" y="277.32051"/><use xlink:href="#h" x="747.5106" y="272.39399"/><use xlink:href="#c" x="756.11269" y="272.39399"/><use xlink:href="#i" x="768.90382" y="272.39399"/></svg>