<svg xmlns="http://www.w3.org/2000/svg" xmlns:xlink="http://www.w3.org/1999/xlink" width="551.171pt" height="302.52pt" viewBox="0 0 551.171 302.52"><defs><path id="c" d="M1.26563-3.95312c0 1.60937 1.1875 2.79687 2.8125 2.79687 1.5625 0 2.73437-1.1875 2.73437-2.79687 0-1.5625-1.17187-2.75-2.73437-2.75-1.625 0-2.8125 1.1875-2.8125 2.75m0 0"/><path id="d" d="M.98438-1.5c0 .82813.39062 1.67188 1.34375 1.67188 1.5 0 2.8125-1.73438 3.625-3.17188h.03125L5.5-1.40625c-.07812.3125-.14062.57813-.14062.8125 0 .48438.23437.76563.76562.76563 1.04688 0 1.84375-.96875 2.32813-2.01563L8.125-2.04687c-.26562.5-.89062 1.48437-1.28125 1.48437-.15625 0-.21875-.10937-.21875-.26562 0-.14063.04688-.3125.09375-.5L8.1875-6.92187H7.01563l-.0625.17187c-.23438-.15625-.65625-.29687-1.03125-.29687-3.34375 0-4.9375 3.6875-4.9375 5.54687M2.375-1.53125c0-1.54687 1.375-5.01562 3.57813-5.01562.34375 0 .64062.10937.84375.3125-.25 1.04687-.73438 2.42187-1.48438 3.54687C4.51563-1.5 3.65625-.5625 2.98438-.5625c-.46875 0-.60938-.42187-.60938-.96875m0 0"/><path id="e" d="m1.04688-9.29687.5625.0625c.32812.04687.45312.15625.53125.67187.15625 1.28125.32812 2.67188.5 4.07813L3.23438 0h.96875l2.84375-4.82812C7.95313-6.39062 8.8125-7.8125 9.39063-8.6875c.3125-.46875.51562-.54687 1.26562-.60937l.07813-.40625H7.64063l-.07813.40625.78125.0625q.23438.02343.23438.1875c0 .25-1.04688 2.10937-2.21875 4.15625L4.34375-1.40625l-.51562-3.73437c-.15625-1.23438-.42188-3.5-.42188-3.78125 0-.17188.0625-.26563.25-.29688l.89063-.07812.07812-.40625h-3.5Zm0 0"/><path id="f" d="M-.29687 2.57813c.01562.46875.625.8125 1.28125.8125 1.40625 0 2-1.14063 2.57812-3.82813l1.29688-5.90625h1.78125l.14062-.53125H4.95313l.39062-1.57812c.26563-1.0625.53125-1.46875.92188-1.46875.375 0 .625.3125.9375.98437.07812.14063.1875.23438.39062.23438.28125 0 .6875-.25.6875-.60938 0-.59375-.76562-1.09375-1.59375-1.09375-1.65625 0-2.34375 1.17188-2.875 3.01563l-.15625.51562H2.45313l-.17188.53125h1.25l-1.625 8.26563c-.15625.875-.3125.95312-.4375.95312-.15625 0-.375-.09375-.75-.6875-.10937-.125-.20312-.3125-.375-.3125-.3125 0-.64062.34375-.64062.70313m0 0"/><path id="g" d="M1.20313-3.95312c0 3.15625.71875 6.64062 3.6875 6.76562v-.42187c-1-.20313-2.5625-1.4375-2.5625-6.34375 0-4.875 1.48437-6.125 2.5625-6.34375v-.42188c-2.96875.125-3.6875 3.59375-3.6875 6.76563m0 0"/><path id="h" d="M.82813 2.39063v.42187c2.98437-.125 3.6875-3.60937 3.6875-6.76562 0-3.17188-.70313-6.64063-3.6875-6.76563v.42188c1.07812.21875 2.57812 1.46875 2.57812 6.34375 0 4.90625-1.57812 6.14062-2.57812 6.34375m0 0"/><path id="i" d="m1.04688-9.29687.60937.0625c.3125.03125.375.17187.40625.59375L2.6875 0h.98438L7.5-7.73437h.07813L8.3125 0h.96875l2.45313-5.01562c.78125-1.59375 1.5-3.01563 1.75-3.4375.39062-.67188.5-.75 1.35937-.84375l.0625-.40625h-3.14062l-.0625.40625.90625.09375c.14062.01562.20312.07812.20312.1875 0 .23437-.8125 2-1.67187 3.78125l-1.6875 3.51562h-.04688L8.6875-9.45312h-.98437L3.90625-1.71875h-.07812L3.375-8.875c0-.25.10938-.32812.29688-.34375l.90625-.07812.09375-.40625H1.125Zm0 0"/><path id="n" d="M1.15625-2.40625C1.15625-.5 2.53125.20313 4.5625.20313 6.46875.20313 8.21875-.1875 9-3.46875l1.1875-5.0625c.125-.48437.25-.67187.59375-.70312l.78125-.0625.09375-.40625H7.8125l-.09375.40625.8125.0625c.25.01562.35938.125.35938.39062 0 .07813-.01563.1875-.04688.3125l-1.125 4.89063c-.4375 1.85937-1.125 3.35937-3.07812 3.35937-1.23438 0-2.10938-.54687-2.10938-2.09375q0-.58593.1875-1.40625l1.10938-4.75c.125-.48437.23437-.67187.59375-.70312l.76562-.0625.09375-.40625H1.45313l-.10938.40625.82813.0625c.25.01562.34375.125.34375.375 0 .07812-.01563.1875-.03125.32812l-1.1875 4.9375c-.10938.4375-.14063.82813-.14063 1.1875m0 0"/><path id="j" d="M.79688-2.4375h5.46875v-.65625H.79688Zm0 0"/><path id="k" d="M1.0625 0h3.29688v-.29687L3.5625-.375C3.34375-.39062 3.25-.46875 3.25-.82812V-6.625l-.0625-.04687-2.10937.35937v.26563l.84375.10937c.1875.03125.25.10938.25.40625v4.70313c0 .35937-.09375.4375-.32813.45312l-.78125.07813Zm0 0"/><path id="l" d="M1.25 1.96875h.65625V-7.5H1.25Zm0 0"/><path id="m" d="m.5-6.48437.375.04687c.21875.03125.29688.14063.35938.46875.10937.82813.21874 1.8125.34375 2.85938L1.96875 0h.8125l1.9375-3.34375c.625-1.07812 1.21875-2.07812 1.60938-2.67187.1875-.3125.32812-.42188.89062-.46875l.0625-.29688H5.07813l-.0625.29688.54687.04687c.10938.01563.17188.04688.17188.14063 0 .1875-.75 1.53125-1.5 2.84375L2.875-1.0625l-.32812-2.54687C2.45313-4.32812 2.25-6.03125 2.25-6.21875c0-.10937.04688-.1875.1875-.20312l.60938-.0625.0625-.29688H.54688Zm0 0"/><clipPath id="a"><path d="M.02344 42H239v258H.02344Zm0 0"/></clipPath><clipPath id="b"><path d="M337 48h213.32031v253H337Zm0 0"/></clipPath></defs><path fill="#007f7f" fill-opacity=".05" d="M51.11719 75.54297s25.96094-18.75 42.45312-21.22656c16.49219-2.47266 24.3086 4.36718 42.45313 8.49218 18.14062 4.1211 38.57422 2.01563 50.9414 12.73438 12.3711 10.72266 6.14063 21.83984 12.73828 42.45312 6.59375 20.6172 17.10157 34.81641 21.22657 63.6797 4.1211 28.86327 12.36719 64.28905 0 84.90624-12.3711 20.61328-30.69531 21.22656-63.67969 21.22656-32.98437 0-77.26953-4.73437-106.13281-21.22656s-34.20703-38.9414-42.45313-63.67969-8.2461-38.9414 0-63.67968 42.45313-63.6797 42.45313-63.6797"/><g clip-path="url(#a)"><path fill="none" stroke="#000" stroke-miterlimit="10" stroke-width=".79575" d="M51.11716 75.54295s25.96094-18.75 42.45313-21.22656c16.4922-2.47266 24.3086 4.36718 42.45313 8.49218 18.14063 4.1211 38.57423 2.01563 50.94142 12.73438 12.3711 10.72266 6.14062 21.83985 12.73828 42.45313 6.59375 20.6172 17.10157 34.81641 21.22657 63.6797 4.1211 28.86329 12.36719 64.28907 0 84.90626-12.3711 20.61329-30.69532 21.22657-63.6797 21.22657s-77.26954-4.73438-106.13283-21.22657-34.20704-38.9414-42.45313-63.6797c-8.2461-24.73828-8.2461-38.9414 0-63.6797 8.2461-24.73828 42.45313-63.67969 42.45313-63.67969"/></g><path fill="#007f7f" fill-opacity=".05" d="M348.28516 139.22266s21.25-44.59375 42.45312-63.6797c21.20703-19.08202 21.25-18.03515 42.45313-12.73437 21.20703 5.30078 26.55078 9.57813 42.45312 33.96094 15.90235 24.38672 10.625 42.47656 21.22656 63.67969 10.60157 21.20312 10.625 5.32422 21.22657 21.22656s31.82812 21.25 21.22656 42.45313c-10.60156 21.20312-26.57031 26.55078-63.67969 42.45312-37.10547 15.90235-58.39844 26.52735-84.90625 21.22656-26.5039-5.30078-10.6211-5.34765-21.22656-42.45312-10.60156-37.10938-21.22656-106.13281-21.22656-106.13281"/><g clip-path="url(#b)"><path fill="none" stroke="#000" stroke-miterlimit="10" stroke-width=".79575" d="M348.28518 139.22265s21.25-44.59376 42.45313-63.6797c21.20703-19.08203 21.25-18.03516 42.45313-12.73438 21.20703 5.30079 26.55079 9.57813 42.45313 33.96095 15.90235 24.38672 10.625 42.47657 21.22657 63.6797s10.625 5.32422 21.22656 21.22656c10.60157 15.90235 31.82813 21.25 21.22657 42.45313s-26.57032 26.55079-63.6797 42.45313c-37.10547 15.90235-58.39844 26.52735-84.90626 21.22657-26.50391-5.30078-10.6211-5.34766-21.22657-42.45313-10.60156-37.10938-21.22656-106.13283-21.22656-106.13283"/></g><path fill="#007f7f" fill-opacity=".2" stroke="#000" stroke-miterlimit="10" stroke-width=".79575" d="M84.4492 222.27344s-20.1172-14.33594-27.67188-26.4336c-7.5547-12.09765-7.03516-12.02734-2.58594-22.01172 4.45313-9.98047 7.02344-12.23828 20.41016-17.95312 13.38672-5.71485 21.83594-1.54297 33.19922-4.92188 11.35938-3.38281 3.54297-4.76953 12.29297-8.60938 8.75391-3.83984 13.22657-13.82812 22.7461-6.76562 9.52344 7.0586 10.76953 15.38672 15.375 35.03907 4.60938 19.65234 7.9922 31.0586 3.08203 43.65235-4.91015 12.58984-3.55468 4.76562-22.7461 6.76562-19.1914 2-54.10156 1.23828-54.10156 1.23828"/><use xlink:href="#c" x="92.08965" y="189.9606"/><use xlink:href="#d" x="91.44068" y="181.17553"/><use xlink:href="#e" x="127.02921" y="197.91098"/><path fill="#007f7f" fill-opacity=".2" stroke="#000" stroke-miterlimit="10" stroke-width=".79575" d="M411.96487 171.0625s10.625-13.27344 21.22657-21.22657 10.625-10.61328 21.22657-10.61328 13.27734 2.66016 21.22656 10.61328c7.95313 7.95313 5.3125 10.625 10.61328 21.22657 5.30079 10.60156 10.61329 7.97266 10.61329 21.22656 0 13.25391-.01172 21.23829-10.61329 31.83985-10.60156 10.60157-15.9375 10.61329-31.83984 10.61329-15.90235 0-15.9336-5.3125-31.83985-10.61329-15.90235-5.30078-23.88673 2.64063-31.83985-10.61328-7.94922-13.2539-5.30078-31.85157 0-42.45313s21.22656 0 21.22656 0"/><use xlink:href="#c" x="445.07358" y="195.63759"/><use xlink:href="#f" x="434.31565" y="183.63064"/><use xlink:href="#g" x="443.07385" y="183.63064"/><use xlink:href="#d" x="448.80325" y="183.63064"/><use xlink:href="#h" x="458.17318" y="183.63064"/><use xlink:href="#i" x="404.19743" y="202.44379"/><path fill="none" stroke="#000" stroke-miterlimit="10" stroke-width=".39787" d="M93.5703 96.76952c93.65235-93.65236 245.96878-93.65236 339.33989-.28125"/><path fill="none" stroke="#000" stroke-linecap="round" stroke-linejoin="round" stroke-miterlimit="10" stroke-width=".39787" d="M433.27734 93.47656c-.74609 1.28125-.6289 2.35547-.22656 3.15235-.79687-.40235-1.8711-.51954-3.14844.22656"/><path fill="none" stroke="#000" stroke-miterlimit="10" stroke-width=".39787" d="M93.85154 203.1836c93.37111 93.3711 245.68754 93.3711 339.3399-.28125"/><path fill="none" stroke="#000" stroke-linecap="round" stroke-linejoin="round" stroke-miterlimit="10" stroke-width=".39787" d="M93.48437 206.19531c.7461-1.28125.62891-2.35547.22657-3.15234.79687.40234 1.8711.51953 3.14844-.22656"/><use xlink:href="#f" x="259.00181" y="15.37261"/><use xlink:href="#f" x="252.37633" y="291.18598"/><use xlink:href="#j" x="261.13443" y="285.21795"/><use xlink:href="#k" x="268.19471" y="285.21795"/><use xlink:href="#l" x="257.67192" y="295.10377"/><use xlink:href="#m" x="260.83652" y="295.10377"/><use xlink:href="#n" x="108.50161" y="271.3245"/></svg>