<svg xmlns="http://www.w3.org/2000/svg" xmlns:xlink="http://www.w3.org/1999/xlink" width="316.102pt" height="318.075pt" viewBox="0 0 316.102 318.075"><defs><path id="a" d="M.15625 0h7.29688l.71875-2.45312H7.75C7.03125-.73437 6.40625-.48437 4.6875-.48437c-1.65625 0-1.75-.21875-1.75-.59375 0-.14063.04688-.35938.10938-.64063L3.75-4.78125h1.84375c1.04688 0 1.23438.20313 1.23438.8125 0 .125 0 .25-.01563.39063h.42188L7.89063-6.5h-.4375c-.35938.96875-.5 1.1875-1.75 1.1875H3.875l.79688-3.48437c.0625-.34375.15625-.42188.39062-.42188H6.75c1.375 0 1.65625.35938 1.65625 1.125 0 .34375-.04687.73438-.04687.73438h.42187l.51563-2.32813H2.21875l-.10937.40625.85937.04688c.23438.01562.34375.125.34375.34375q0 .14062-.04687.32812L1.59375-1.15625c-.125.46875-.23437.64063-.57812.67188l-.79688.07812Zm0 0"/><path id="f" d="M.45313-2.59375C.45313-1 1 .17188 2.73438.17188c2.5625 0 3.65625-2.59375 4.25-5.26563.17187-.82812.3125-1.6875.3125-2.48437 0-1.54688-.51563-2.8125-2.28125-2.8125-3.34375 0-4.5625 5-4.5625 7.79687m1.26562.48438c0-.96875.21875-2.10938.39063-2.90625h3.5C5.25-3.375 4.46875-.23437 2.8125-.23437c-.84375 0-1.09375-.82813-1.09375-1.875m.5-3.42188c.25-1.1875 1.01563-4.39062 2.70313-4.39062.875 0 1.125.85937 1.125 1.875 0 .90625-.20313 1.9375-.32813 2.51562Zm0 0"/><path id="g" d="M1.26563-3.95312c0 1.60937 1.17187 2.79687 2.79687 2.79687 1.57813 0 2.75-1.1875 2.75-2.79687 0-1.5625-1.17187-2.73438-2.75-2.73438-1.625 0-2.79687 1.17188-2.79687 2.73438m0 0"/><path id="h" d="M.45313-.54687c0 .39062.32812.70312.89062.70312.95313 0 1.48438-.95312 2.0625-1.89062l.57813-.92188h.03125l.25 1.10938C4.53125-.4375 4.78125.15624 5.5.15624c1.03125 0 1.5625-1.04687 1.98438-1.90625L7.125-1.9375c-.34375.625-.73437 1.375-1.125 1.375-.26562 0-.35937-.3125-.67187-1.5625L4.875-3.96875c.5-.89062 1.21875-2.01562 1.625-2.01562.42188 0 .4375.23437.84375.23437.3125 0 .59375-.29687.59375-.67187 0-.4375-.32812-.60938-.70312-.60938-.75 0-1.375.67188-1.875 1.45313L4.75-4.625h-.03125l-.5625-2.34375-.07812-.0625-2.29688.70313L1.79688-6l1.10937-.0625c.21875 0 .32813.09375.46875.70313l.48438 2.01562-.39063.67188C2.875-1.64062 2.35938-.90625 2.01563-.90625 1.60938-.90625 1.5-1.25 1.0625-1.25c-.35937 0-.60937.35938-.60937.70313m0 0"/><path id="i" d="M-.26562 0h3.15625l.09375-.40625-.78125-.07812c-.17188 0-.25-.09375-.25-.23438 0-.07812.03124-.17187.07812-.28125.45313-.89062.90625-1.79687 1.42188-2.73437h3.15625l.34375 2.89062S6.875-.5 6.57813-.48437l-.75.07812L5.75 0h3.45313l.07812-.40625L8.75-.45312c-.4375-.03125-.48437-.23438-.5625-.8125L7.15625-9.6875h-1l-2.35937 4.125c-.71875 1.25-1.875 3.34375-2.39063 4.17188C.95313-.65625.71875-.5.28125-.46875l-.45312.0625Zm4-4.28125 2.28125-4.10937.51562 4.10937Zm0 0"/><path id="j" d="M.98438-3.9375c0 1.53125.5625 2.82813 1.84375 3.375L2.4375.90625l.79688.03125.35937-1.29687c.20313.04687.4375.0625.6875.0625h2.9375v-.8125h-2.9375c-.17187 0-.32812-.01563-.46875-.03126l.65625-2.40625h1.4375V-4.375H4.70313l.64062-2.39062h1.875v-.82813H5.57813l.35937-1.25h-.85937l-.34375 1.25h-.45313c-2.32812 0-3.29687 1.64063-3.29687 3.65625m.875.39063h1.78125L3.0625-1.375C2.25-1.78125 1.96875-2.67187 1.85938-3.54687m0-.82813c.20312-1.25.5-2.375 2.67187-2.39062L3.85938-4.375Zm0 0"/><path id="n" d="M1.20313-3.95312c0 3.15625.71875 6.64062 3.6875 6.75v-.40625c-1-.20313-2.5625-1.4375-2.5625-6.34375 0-4.875 1.48437-6.10938 2.5625-6.32813v-.42187c-2.96875.125-3.6875 3.59375-3.6875 6.75m0 0"/><path id="o" d="M.75 0h2.51563v-3.9375h.875L6.40625 0h2.54688l-2.3125-4.04687c1.26562-.39063 2.01562-1.625 2.01562-2.78125 0-1.625-1.23437-2.875-2.9375-2.875H.75Zm.70313-.70312V-9H2.5625v8.29688Zm1.8125-3.9375V-9H5.75v4.35938Zm1.71875.70312h1.10937L7.89063-.70312h-1.125Zm1.46875-.78125V-8.9375c.9375.25 1.53125 1.25 1.53125 2.10938 0 .89062-.67188 1.95312-1.53125 2.10937m0 0"/><path id="p" d="M.82813 2.39063v.40625c2.96875-.10938 3.6875-3.59375 3.6875-6.75s-.71875-6.625-3.6875-6.75v.42187c1.07812.21875 2.57812 1.45313 2.57812 6.32813 0 4.90625-1.57812 6.14062-2.57812 6.34375m0 0"/><path id="b" d="M.79688-2.4375h5.46875v-.65625H.79688Zm0 0"/><path id="c" d="M1.0625 0h3.29688v-.29687L3.5625-.375C3.34375-.39062 3.25-.46875 3.25-.82812V-6.625l-.0625-.04687-2.10937.35937v.26563l.84375.10937c.1875.03125.25.10938.25.40625v4.70313c0 .35937-.09375.4375-.32813.45312l-.78125.07813Zm0 0"/><path id="m" d="M.26563-1.04687c0 .40625.65625 1.15625 2.14062 1.15625 1.45313 0 2.35938-.70313 2.35938-1.95313 0-1.34375-1.15625-1.6875-1.65625-1.75V-3.625c.53125-.09375 1.375-.48437 1.375-1.45312 0-1.14063-.9375-1.59375-1.98438-1.59375-1.25 0-1.98437.70312-1.98437 1.20312 0 .32813.39062.51563.5625.51563.14062 0 .21874-.09375.28124-.25.21876-.6875.54688-1.09375 1.07813-1.09375.73438 0 .90625.6875.90625 1.20312 0 .51563-.15625 1.32813-.96875 1.32813-.4375 0-.73437-.10938-.875-.10938-.15625 0-.20312.125-.20312.3125s.04687.29688.20312.29688c.14063 0 .4375-.10938.875-.10938.75 0 1.21875.625 1.21875 1.5625 0 1.14063-.51562 1.5625-1.1875 1.5625-.59375 0-1-.45312-1.20312-1.09375Q1.10938-1.625.875-1.625c-.21875 0-.60937.20313-.60937.57813m0 0"/><path id="k" d="m.70313-2.875.125 2.25c.625.57813 1.79687.82813 2.78125.82813 2.46875 0 3.45312-1.40625 3.45312-2.84375 0-1.65625-1.10937-2.4375-2.75-3.03125l-.46875-.17188C2.90625-6.20312 2.125-6.79687 2.125-7.625c0-1.03125.625-1.79687 1.79688-1.79687 1.20312 0 1.875.6875 2.09375 2.10937h.4375v-1.96875c-.46875-.375-1.42188-.625-2.375-.625-1.70313 0-3.23438.85938-3.23438 2.70313 0 1.48437 1.1875 2.23437 2.65625 2.76562l.25.09375c.625.25 1.95313.875 1.95313 2.125 0 1.20313-.76563 1.9375-2.01563 1.9375C2.375-.28125 1.5-1.3125 1.14063-2.875Zm0 0"/><path id="l" d="M.67188-4.84375c0 1.5625.4375 2.85938 1.1875 3.70313.79687.875 1.9375 1.34375 3.48437 1.34375 1.53125 0 2.67188-.46875 3.46875-1.34375C9.5625-1.98437 10-3.28125 10-4.84375s-.4375-2.85937-1.1875-3.70312c-.79687-.875-1.9375-1.35938-3.46875-1.35938-1.54687 0-2.6875.48438-3.48437 1.35938-.75.84375-1.1875 2.14062-1.1875 3.70312m1.5625 0c0-2.0625.60937-4.57812 3.10937-4.57812 2.48438 0 3.09375 2.51562 3.09375 4.57812s-.60937 4.5625-3.09375 4.5625c-2.5 0-3.10937-2.5-3.10937-4.5625m0 0"/><clipPath id="d"><path d="M16 213h109v104.15234H16Zm0 0"/></clipPath><clipPath id="e"><path d="M21 313h4v4.15234h-4Zm0 0"/></clipPath></defs><path fill="none" stroke="#000" stroke-miterlimit="10" stroke-width=".39734" d="M60.6211 235.17578h253.9804"/><path fill="none" stroke="#000" stroke-linecap="round" stroke-linejoin="round" stroke-miterlimit="10" stroke-width=".39734" d="M312.73438 232.79297c.3789 1.42969 1.21875 2.10547 2.0664 2.38281-.84765.27735-1.6875.95313-2.0664 2.38281"/><path fill="none" stroke="#000" stroke-miterlimit="10" stroke-width=".39734" d="M103.01562 277.5742V23.58992"/><path fill="none" stroke="#000" stroke-linecap="round" stroke-linejoin="round" stroke-miterlimit="10" stroke-width=".39734" d="M100.63281 25.45703c1.42969-.3789 2.10547-1.21875 2.38281-2.0664.27735.84765.95313 1.6875 2.38282 2.0664"/><use xlink:href="#a" x="91.89938" y="14.65139"/><use xlink:href="#b" x="100.89871" y="17.92986"/><use xlink:href="#c" x="107.94968" y="17.92986"/><g clip-path="url(#d)"><path fill="none" stroke="#000" stroke-miterlimit="10" stroke-width=".39734" d="M119.33984 218.85547 21.68362 316.5078"/></g><g clip-path="url(#e)"><path fill="none" stroke="#000" stroke-linecap="round" stroke-linejoin="round" stroke-miterlimit="10" stroke-width=".39734" d="M24.6914 316.875c-1.28124-.7461-2.35156-.6289-3.14843-.22656.40234-.79688.51953-1.86719-.22266-3.14844"/></g><path fill="none" stroke="#007f7f" stroke-dasharray="2.980162393 2.980162393" stroke-miterlimit="10" stroke-width=".39734" d="M70.37501 98.23051c46.8242 0 99.3945-14.61328 117.42184-32.64061s-5.3164-32.64062-52.14061-32.64062c-46.8242 0-99.3945 14.61328-117.42184 32.64062s5.3164 32.6406 52.14061 32.6406Zm0 0"/><path fill="none" stroke="#007f7f" stroke-miterlimit="10" stroke-width=".39734" d="m94.30469 81.6602 1.625-.11328 1.63672-.13672 1.64453-.15234 1.64453-.17969 1.65234-.1953 1.65235-.21876 1.64843-.23437 1.64844-.25782 1.64062-.27734 1.63282-.29297 1.62109-.3125 1.60937-.33203 1.59375-.34766 1.58203-.36718 1.5586-.38282 1.53906-.40234 1.51562-.41406 1.4922-.42969 1.46483-.44531 1.4375-.45703 1.40625-.47266 1.3711-.48437 1.33984-.4961.9336-.36328"/><path fill="none" stroke="#007f7f" stroke-linecap="round" stroke-linejoin="round" stroke-miterlimit="10" stroke-width=".39732" d="M128.58985 72.34766c.87109 1.19921 1.90234 1.51953 2.79296 1.47265-.6914.5664-1.23047 1.5-1.0625 2.97266"/><use xlink:href="#f" x="115.35816" y="90.7461" fill="#007f7f"/><path fill="none" stroke="#000" stroke-miterlimit="10" stroke-width=".39734" d="M103.01562 65.5899 85.59376 97.7305m17.42186-32.1406 57.09764 16.3164m-57.09764 153.26948L85.59376 97.74614"/><use xlink:href="#g" x="81.56443" y="101.09401" fill="#ff7f00"/><use xlink:href="#h" x="71.4648" y="92.32052" fill="#ff7f00"/><path fill="none" stroke="#000" stroke-dasharray="2.980162393 2.980162393" stroke-miterlimit="10" stroke-width=".39734" d="m103.01562 235.17578 57.09764-153.24995"/><use xlink:href="#g" x="156.08073" y="85.27202" fill="#ff7f00"/><path fill="none" stroke="#000" stroke-dasharray="2.980162393 2.980162393" stroke-miterlimit="10" stroke-width=".39734" d="M160.11326 81.92583v169.57026"/><path fill="none" stroke="#000" stroke-miterlimit="10" stroke-width=".39734" d="m103.01562 235.17578 57.09764 16.3203"/><use xlink:href="#g" x="156.08073" y="254.8389" fill="#ff7f00"/><use xlink:href="#i" x="165.3757" y="266.44315" fill="#ff7f00"/><use xlink:href="#h" x="175.58263" y="266.44315" fill="#ff7f00"/><use xlink:href="#i" x="153.08444" y="293.53536"/><use xlink:href="#j" x="166.1821" y="293.53536"/><use xlink:href="#k" x="177.40073" y="293.53536"/><use xlink:href="#l" x="184.97025" y="293.53536"/><use xlink:href="#m" x="195.63869" y="296.81233"/><use xlink:href="#n" x="201.82021" y="293.53536"/><use xlink:href="#o" x="207.54206" y="293.53536"/><use xlink:href="#p" x="216.81025" y="293.53536"/></svg>