<svg xmlns="http://www.w3.org/2000/svg" xmlns:xlink="http://www.w3.org/1999/xlink" width="255.516pt" height="279.595pt" viewBox="0 0 255.516 279.595"><defs><path id="c" d="M.3125-1.84375C.3125-.70312.70313.125 1.96875.125 3.76563.125 4.54688-1.57812 5-3.5c.14063-.59375.23438-1.20312.23438-1.76562 0-1.09375-.375-2.01563-1.67188-2.01563-2.28125 0-3.25 3.23438-3.25 5.4375m1.01563.40625c0-.6875.17187-1.5.28124-2.0625h2.29688c-.25 1.15625-.78125 3.3125-1.85937 3.3125-.54688 0-.71875-.54687-.71875-1.25m.35937-2.45312C1.875-4.71875 2.39063-6.9375 3.5-6.9375c.5625 0 .73438.57813.73438 1.26563 0 .625-.15625 1.375-.23438 1.78125Zm0 0"/><path id="d" d="M.28125-.10937.39063 0h4.15625l.35937-1.40625-.29687-.04687c-.21875.53125-.40625.59375-.79688.59375H1.29688c.17187-.46875.6875-1.125 1.64062-1.76563.98438-.65625 1.70313-1.125 1.70313-2.20312 0-1.35938-.9375-1.84375-2.01563-1.84375-1.34375 0-2.10937.78125-2.10937 1.375 0 .34375.40625.51562.625.51562.1875 0 .28124-.10937.32812-.29687.15625-.6875.51563-1.21875 1.09375-1.21875.6875 0 .90625.59375.90625 1.29687 0 .95313-.4375 1.57813-1.34375 2.375C.85938-1.5625.42188-.84375.28125-.10937m0 0"/><path id="e" d="M1.26563-3.95312c0 1.60937 1.1875 2.79687 2.8125 2.79687 1.5625 0 2.73437-1.1875 2.73437-2.79687 0-1.5625-1.17187-2.75-2.73437-2.75-1.625 0-2.8125 1.1875-2.8125 2.75m0 0"/><path id="f" d="M.45313-.54687c0 .39062.32812.71875.89062.71875.95313 0 1.48438-.96875 2.07813-1.90625l.5625-.92188h.03125l.25 1.10938C4.53125-.4375 4.79688.17188 5.5.17188c1.03125 0 1.57813-1.0625 1.98438-1.92188L7.125-1.9375c-.32812.625-.71875 1.375-1.10937 1.375-.26563 0-.375-.3125-.6875-1.57812L4.875-3.96875c.51563-.89062 1.23438-2.01562 1.625-2.01562.42188 0 .4375.21875.85938.21875.3125 0 .59375-.29688.59375-.67188 0-.42187-.32813-.60937-.71875-.60937-.75 0-1.375.67187-1.85938 1.46875l-.60937.95312h-.03125l-.57813-2.35937-.0625-.0625-2.3125.70312L1.8125-6l1.09375-.07812c.23438 0 .32813.10937.46875.70312l.48438 2.03125-.375.67188C2.875-1.64062 2.35938-.90625 2.01563-.90625 1.60938-.90625 1.5-1.25 1.0625-1.25c-.35937 0-.60937.35938-.60937.70313m0 0"/><path id="g" d="M-.26562 0h3.15625l.09375-.40625-.78125-.07812c-.17188-.01563-.25-.09375-.25-.23438 0-.07812.03124-.17187.07812-.28125.45313-.89062.90625-1.8125 1.4375-2.75h3.14063l.34375 2.90625S6.875-.5 6.57813-.48437l-.75.07812L5.76563 0h3.4375l.09375-.40625-.53125-.04687c-.4375-.04688-.5-.23438-.57813-.8125l-1.03125-8.4375h-1L3.8125-5.5625c-.71875 1.25-1.89062 3.34375-2.40625 4.17188C.95313-.65625.71875-.5.28125-.46875l-.45312.0625ZM3.75-4.28125l2.28125-4.125.5 4.125Zm0 0"/><path id="h" d="M.98438-3.9375c0 1.53125.5625 2.82813 1.84375 3.375l-.375 1.46875.78125.03125.35937-1.29687c.21875.04687.4375.0625.6875.0625h2.9375v-.8125h-2.9375c-.15625 0-.32812-.01563-.46875-.03126l.67188-2.40625h1.42187V-4.375H4.70313l.65625-2.40625h1.85937v-.8125H5.57813l.35937-1.25h-.84375l-.34375 1.25h-.46875c-2.32812 0-3.29687 1.64063-3.29687 3.65625m.875.39063h1.78125L3.0625-1.375C2.25-1.79687 1.96875-2.67187 1.85938-3.54687m0-.82813c.20312-1.25.5-2.39062 2.67187-2.40625L3.85938-4.375Zm0 0"/><path id="k" d="M1.20313-3.95312c0 3.15625.71875 6.64062 3.6875 6.76562v-.42187c-1-.20313-2.5625-1.4375-2.5625-6.34375 0-4.875 1.48437-6.125 2.5625-6.34375v-.42188c-2.96875.125-3.6875 3.59375-3.6875 6.76563m0 0"/><path id="l" d="M.75 0h2.51563v-3.9375h.875L6.42188 0h2.54687l-2.3125-4.0625c1.25-.39062 2.01563-1.625 2.01563-2.76562 0-1.625-1.23438-2.89063-2.9375-2.89063H.75Zm.70313-.70312v-8.3125H2.5625v8.3125Zm1.8125-3.9375v-4.375h2.5v4.375Zm1.71875.70312h1.125L7.89063-.70312H6.78125Zm1.48437-.79687v-4.21875c.9375.25 1.53125 1.25 1.53125 2.125C8-5.9375 7.32813-4.875 6.46875-4.73437m0 0"/><path id="m" d="M.82813 2.39063v.42187c2.98437-.125 3.6875-3.60937 3.6875-6.76562 0-3.17188-.70313-6.64063-3.6875-6.76563v.42188c1.07812.21875 2.57812 1.46875 2.57812 6.34375 0 4.90625-1.57812 6.14062-2.57812 6.34375m0 0"/><path id="i" d="m.70313-2.875.125 2.25c.625.57813 1.79687.82813 2.78125.82813 2.48437 0 3.46875-1.40625 3.46875-2.84375 0-1.65625-1.125-2.45313-2.76563-3.04688l-.46875-.15625c-.9375-.35937-1.70312-.95312-1.70312-1.79687 0-1.03125.60937-1.79688 1.78125-1.79688 1.21875 0 1.875.6875 2.10937 2.10938h.4375v-1.96875c-.48437-.375-1.42187-.625-2.375-.625-1.71875 0-3.25.85937-3.25 2.71875 0 1.46875 1.1875 2.23437 2.65625 2.75l.26563.10937c.60937.23438 1.95312.85938 1.95312 2.125 0 1.20313-.78125 1.9375-2.03125 1.9375C2.375-.28125 1.5-1.3125 1.15625-2.875Zm0 0"/><path id="j" d="M.67188-4.84375c0 1.5625.4375 2.85938 1.1875 3.6875C2.65625-.26562 3.8125.20313 5.34375.20313s2.6875-.46875 3.46875-1.35938c.76563-.82812 1.20313-2.125 1.20313-3.6875 0-1.57812-.4375-2.875-1.20313-3.70312-.78125-.89063-1.9375-1.375-3.46875-1.375s-2.6875.48437-3.48437 1.375c-.75.82812-1.1875 2.125-1.1875 3.70312m1.5625 0c0-2.0625.60937-4.59375 3.10937-4.59375 2.48438 0 3.10938 2.53125 3.10938 4.59375 0 2.04688-.625 4.5625-3.10938 4.5625-2.5 0-3.10937-2.51562-3.10937-4.5625m0 0"/><clipPath id="a"><path d="M42 .0625h1V256h-1Zm0 0"/></clipPath><clipPath id="b"><path d="M40 .0625h6V3h-6Zm0 0"/></clipPath></defs><path fill="none" stroke="#000" stroke-miterlimit="10" stroke-width=".39775" d="M.19923 212.45703h254.2421"/><path fill="none" stroke="#000" stroke-linecap="round" stroke-linejoin="round" stroke-miterlimit="10" stroke-width=".39775" d="M252.57031 210.07031c.3789 1.4336 1.21875 2.10938 2.0664 2.38672-.84765.27734-1.6875.95313-2.0664 2.38672"/><g clip-path="url(#a)"><path fill="none" stroke="#000" stroke-miterlimit="10" stroke-width=".39775" d="M42.63672 254.89842V.65633"/></g><g clip-path="url(#b)"><path fill="none" stroke="#000" stroke-linecap="round" stroke-linejoin="round" stroke-miterlimit="10" stroke-width=".39775" d="M40.25 2.52344c1.4336-.375 2.10937-1.21875 2.38672-2.0664.28125.84765.95703 1.6914 2.38672 2.0664"/></g><path fill="none" stroke="#000" stroke-dasharray="2.9831811113000004 2.9831811113000004" stroke-miterlimit="10" stroke-width=".39775" d="M202.14447 154.40237 72.11327 45.29303"/><path fill="none" stroke="#007f7f" stroke-miterlimit="10" stroke-width=".39775" d="M42.63672 212.45703 179.039 49.90631"/><use xlink:href="#c" x="186.0965" y="33.39056" fill="#007f7f"/><path fill="none" stroke="#007f7f" stroke-miterlimit="10" stroke-width=".82044" d="M186.09766 35.4336h5.82421"/><use xlink:href="#d" x="186.36149" y="44.63725" fill="#007f7f"/><path fill="none" stroke="#000" stroke-miterlimit="10" stroke-width=".39775" d="m42.63672 212.45703 159.50775-58.05466"/><use xlink:href="#e" x="198.10674" y="157.75049" fill="#ff7f00"/><use xlink:href="#f" x="207.41112" y="157.84032" fill="#ff7f00"/><path fill="none" stroke="#000" stroke-miterlimit="10" stroke-width=".39775" d="m42.63672 212.45703 29.47655-167.164"/><use xlink:href="#e" x="68.07805" y="48.64416" fill="#ff7f00"/><use xlink:href="#g" x="77.38242" y="39.8618" fill="#ff7f00"/><use xlink:href="#f" x="87.59968" y="39.8618" fill="#ff7f00"/><use xlink:href="#g" x="92.7573" y="270.87621"/><use xlink:href="#h" x="105.86821" y="270.87621"/><use xlink:href="#i" x="117.09819" y="270.87621"/><use xlink:href="#j" x="124.67537" y="270.87621"/><use xlink:href="#d" x="135.35461" y="274.1565"/><use xlink:href="#k" x="141.54389" y="270.87621"/><use xlink:href="#l" x="147.27152" y="270.87621"/><use xlink:href="#m" x="156.54909" y="270.87621"/></svg>