<svg xmlns="http://www.w3.org/2000/svg" xmlns:xlink="http://www.w3.org/1999/xlink" width="482.057" height="255.516" viewBox="0 0 482.057 255.516"><defs><path id="b" d="M1.90625-5.92187c0 2.40625 1.76563 4.17187 4.20313 4.17187 2.34375 0 4.10937-1.76562 4.10937-4.17187 0-2.35938-1.76562-4.125-4.10937-4.125-2.4375 0-4.20313 1.76562-4.20313 4.125m0 0"/><path id="c" d="M2.01563.25 3.875 0c.59375-2.14062.98438-3.29687 1.51563-4.59375.78125-1.8125 2.79687-4.875 4.5-4.875.53125 0 .78125.35938.78125.90625 0 .17188-.01563.375-.09375.59375L8.76563-1.8125c-.07813.3125-.125.60938-.125.84375C8.64063-.21875 9 .25 9.84375.25c1.5625 0 2.75-1.4375 3.46875-3.03125l-.51562-.28125c-.375.73438-1.29688 2.21875-1.875 2.21875-.25 0-.34375-.15625-.34375-.4375 0-.20312.04687-.4375.10937-.70312l1.65625-5.53125c.14063-.46875.23438-.92188.23438-1.32813 0-1-.5-1.71875-1.71875-1.71875-2.01563 0-4.21875 2.23438-5.46875 4.70313h-.0625l1.35937-4.59375-.10937-.10938-3.84375.57813-.14063.51562 1.32813.10938c.3125.03125.42187.15625.42187.39062 0 .15625-.04687.35938-.10937.625Zm0 0"/><path id="d" d="M1.79688-5.32812h11.5625V-6.5625H1.79688Zm0 0"/><path id="e" d="M2.28125 0h6.92188v-.60937L7.42188-.76563c-.4375-.04687-.6875-.20312-.6875-1.03124V-14.1875l-.10938-.10937-4.34375.73437v.51563l1.96875.25c.35938.04687.5.20312.5.79687v10.20313c0 .82812-.20312.98437-.70312 1.03125l-1.76563.15624Zm0 0"/><path id="f" d="M1.79688-5.32812h5.15625v5.17187H8.1875v-5.17187h5.17188V-6.5625H8.1875v-5.15625H6.95313v5.15625H1.79688Zm0 0"/><path id="g" d="M.67188-.82812C.67188-.21876 1.15625.25 2.01563.25 3.45313.25 4.25-1.1875 5.125-2.59375l.84375-1.39062h.04688l.39062 1.65625C6.79688-.65625 7.1875.25 8.25.25c1.54688 0 2.35938-1.59375 2.98438-2.875l-.54688-.28125c-.5.9375-1.09375 2.0625-1.67187 2.0625-.40625 0-.5625-.46875-1.03125-2.35937l-.67188-2.75C8.07813-7.29687 9.15625-8.96875 9.75-8.96875c.625 0 .65625.32813 1.28125.32813.46875 0 .89063-.4375.89063-1 0-.65625-.48438-.92188-1.0625-.92188-1.125 0-2.0625 1.01563-2.79688 2.1875l-.92187 1.4375h-.04688L6.25-10.46875l-.125-.09375-3.46875 1.04688L2.70313-9l1.65625-.10937c.34375 0 .5.15625.70312 1.04687l.73438 3.04688L5.21875-4c-.90625 1.53125-1.6875 2.64063-2.20312 2.64063-.59375 0-.75-.51563-1.42188-.51563-.54687 0-.92187.53125-.92187 1.04688m0 0"/><path id="h" d="M-.45312 3.875c.03125.6875.95312 1.20313 1.9375 1.20313 2.09375 0 2.98437-1.70313 3.85937-5.73438l1.95313-8.85937h2.65625l.20312-.79688H7.42188l.59375-2.375c.39062-1.59375.79687-2.1875 1.375-2.1875.5625 0 .95312.46875 1.42187 1.46875.10938.20313.26563.35938.57813.35938.42187 0 1.03125-.375 1.03125-.92188 0-.89062-1.14063-1.625-2.39063-1.625-2.48437 0-3.51562 1.75-4.32812 4.51563l-.21875.76562h-1.8125l-.25.79688h1.875L2.85938 2.89063C2.625 4.1875 2.39063 4.3125 2.1875 4.3125c-.21875 0-.54687-.15625-1.10937-1.01562-.15626-.20313-.29688-.48438-.5625-.48438-.46875 0-.96875.51563-.96875 1.0625m0 0"/><path id="i" d="M1.8125-5.92187c0 4.73437 1.07813 9.95312 5.53125 10.125v-.625c-1.5-.28125-3.85937-2.14063-3.85937-9.5 0-7.32813 2.25-9.1875 3.85937-9.51563v-.625c-4.45312.17188-5.53125 5.39063-5.53125 10.14063m0 0"/><path id="j" d="M1.25 3.57813v.625c4.45313-.17188 5.53125-5.39063 5.53125-10.125 0-4.75-1.07812-9.96875-5.53125-10.14063v.625c1.60938.32813 3.84375 2.1875 3.84375 9.51563 0 7.35937-2.34375 9.21875-3.84375 9.5m0 0"/><clipPath id="a"><path d="M47 .00781h385V200H47Zm0 0"/></clipPath></defs><g clip-path="url(#a)"><path fill="none" stroke="#000" stroke-miterlimit="10" stroke-width=".39772" d="M53.42188.20303c54.1094 190.96882 245.07431 254.6251 372.38686 127.31255"/></g><use xlink:href="#b" x="56.4865" y="32.93649"/><use xlink:href="#c" x="7.45641" y="50.11389"/><use xlink:href="#d" x="25.24229" y="50.11389"/><use xlink:href="#e" x="43.47562" y="50.11389"/><use xlink:href="#b" x="206.09284" y="188.24468"/><use xlink:href="#c" x="189.81069" y="201.68538"/><use xlink:href="#b" x="315.43794" y="193.21695"/><use xlink:href="#c" x="297.06189" y="207.82138"/><use xlink:href="#f" x="314.84777" y="207.82138"/><use xlink:href="#g" x="333.08109" y="207.82138"/><use xlink:href="#b" x="358.81109" y="177.16036"/><use xlink:href="#c" x="372.76679" y="194.33776"/><use xlink:href="#f" x="390.55267" y="194.33776"/><use xlink:href="#e" x="408.786" y="194.33776"/><use xlink:href="#h" x="430.03377" y="150.69313"/><use xlink:href="#i" x="443.16623" y="150.69313"/><use xlink:href="#g" x="451.75715" y="150.69313"/><use xlink:href="#j" x="465.0686" y="150.69313"/><path fill="none" stroke="#000" stroke-miterlimit="10" stroke-width=".39772" d="m62.53907 27.91007 149.60552 155.31256m.00001 0 109.3477 4.97266m-109.3477-4.97266 152.72271-11.08594"/></svg>