<svg xmlns="http://www.w3.org/2000/svg" xmlns:xlink="http://www.w3.org/1999/xlink" width="321.401pt" height="170.477pt" viewBox="0 0 321.401 170.477"><defs><path id="a" d="M1.26563-3.95312c0 1.60937 1.17187 2.79687 2.79687 2.79687 1.5625 0 2.75-1.1875 2.75-2.79687 0-1.5625-1.1875-2.73438-2.75-2.73438-1.625 0-2.79687 1.17188-2.79687 2.73438m0 0"/><path id="b" d="M1.34375.15625 2.57813 0c.40625-1.42187.65625-2.1875 1.01562-3.04687.51563-1.21875 1.85938-3.25 2.98438-3.25.35937 0 .53125.23437.53125.59375 0 .125-.01563.25-.0625.40625L5.84375-1.20312C5.78125-1 5.75-.79687 5.75-.64062c0 .48437.23438.79687.79688.79687 1.04687 0 1.84375-.95312 2.3125-2l-.34375-.20312c-.25.5-.85938 1.48437-1.25 1.48437-.15625 0-.21875-.10937-.21875-.28125 0-.14062.03125-.29687.07812-.48437L8.21875-5c.09375-.3125.15625-.60937.15625-.875 0-.67187-.32812-1.15625-1.15625-1.15625-1.34375 0-2.79687 1.48438-3.625 3.125h-.04687l.90625-3.04687-.07813-.07813-2.5625.39063-.07812.34375.875.07812c.20312.01563.28125.09375.28125.25 0 .10938-.03125.23438-.07813.42188Zm0 0"/><path id="c" d="M1.1875-3.54687h7.70313v-.8125H1.1875Zm0 0"/><path id="d" d="M1.51563 0H6.125v-.40625L4.9375-.5c-.29687-.03125-.45312-.14062-.45312-.6875v-8.25l-.07813-.07812-2.89062.48437v.34375l1.3125.17188c.23437.03125.32812.125.32812.53125v6.79687c0 .54688-.14062.65625-.46875.6875l-1.17187.09375Zm0 0"/><path id="e" d="M1.1875-3.54687H4.625v3.4375h.82813v-3.4375h3.4375v-.8125h-3.4375v-3.4375H4.625v3.4375H1.1875Zm0 0"/><path id="f" d="M.45313-.54687c0 .39062.32812.70312.89062.70312.95313 0 1.48438-.95312 2.0625-1.89062l.5625-.92188H4l.26563 1.10938C4.53125-.4375 4.78125.15624 5.5.15624c1.01563 0 1.5625-1.04687 1.96875-1.90625L7.125-1.9375c-.34375.625-.73437 1.375-1.125 1.375-.26562 0-.375-.3125-.6875-1.5625L4.875-3.95312c.5-.90625 1.21875-2.01563 1.625-2.01563s.42188.21875.84375.21875c.3125 0 .59375-.29687.59375-.67187 0-.42188-.32812-.60938-.71875-.60938-.73437 0-1.35937.67188-1.85937 1.46875L4.75-4.60937h-.03125l-.5625-2.35938-.07812-.0625-2.3125.70313.03124.34375 1.10938-.07813c.21875 0 .32813.10938.45313.70313l.5 2.03125-.39063.65625C2.875-1.64062 2.35938-.90625 2.01563-.90625 1.60938-.90625 1.5-1.25 1.0625-1.25c-.35937 0-.60937.35938-.60937.70313m0 0"/><path id="g" d="M-.29687 2.57813c.01562.45312.625.79687 1.28125.79687 1.39062 0 2-1.125 2.57812-3.8125l1.29688-5.89062H6.625l.14063-.53125H4.9375l.39063-1.57813C5.59375-9.5 5.85938-9.90625 6.25-9.90625c.375 0 .625.3125.9375.98438.07813.14062.1875.23437.39063.23437.28125 0 .6875-.25.6875-.60937 0-.59375-.76563-1.07813-1.59375-1.07813-1.65625 0-2.34375 1.15625-2.875 3l-.15625.51563H2.4375l-.15625.53125h1.25l-1.625 8.25c-.15625.85937-.3125.95312-.45312.95312s-.35938-.10937-.73438-.6875c-.10937-.125-.20312-.3125-.375-.3125-.3125 0-.64062.34375-.64062.70313m0 0"/><path id="h" d="M1.20313-3.95312c0 3.15625.71875 6.64062 3.6875 6.75V2.375c-1-.1875-2.5625-1.42187-2.5625-6.32812 0-4.85938 1.48437-6.09375 2.5625-6.32813v-.40625c-2.96875.10938-3.6875 3.57813-3.6875 6.73438m0 0"/><path id="i" d="M.82813 2.375v.42188c2.96875-.10938 3.6875-3.59375 3.6875-6.75s-.71875-6.625-3.6875-6.73438v.40625c1.07812.23438 2.5625 1.46875 2.5625 6.32813 0 4.90625-1.5625 6.14062-2.5625 6.32812m0 0"/></defs><path fill="none" stroke="#000" stroke-miterlimit="10" stroke-width=".39728" d="M35.79688.19523c36.03517 127.17194 163.2032 169.56258 247.9845 84.7813"/><use xlink:href="#a" x="37.83842" y="21.99452"/><use xlink:href="#b" x="5.15868" y="33.43343"/><use xlink:href="#c" x="17.00279" y="33.43343"/><use xlink:href="#d" x="29.14487" y="33.43343"/><use xlink:href="#a" x="137.46578" y="125.41823"/><use xlink:href="#b" x="126.4436" y="134.36877"/><use xlink:href="#a" x="210.28139" y="128.73007"/><use xlink:href="#b" x="197.88044" y="138.45524"/><use xlink:href="#e" x="209.72455" y="138.45524"/><use xlink:href="#f" x="221.86663" y="138.45524"/><use xlink:href="#a" x="239.16578" y="118.03688"/><use xlink:href="#b" x="248.45927" y="129.47579"/><use xlink:href="#e" x="260.30338" y="129.47579"/><use xlink:href="#d" x="272.44546" y="129.47579"/><use xlink:href="#g" x="286.59427" y="100.41195"/><use xlink:href="#h" x="295.33955" y="100.41195"/><use xlink:href="#f" x="301.06048" y="100.41195"/><use xlink:href="#i" x="309.92494" y="100.41195"/><path fill="none" stroke="#000" stroke-miterlimit="10" stroke-width=".39728" d="m41.8672 18.64836 99.62895 103.42584m0 0 72.81644 3.3125m-72.81644-3.3125 101.70317-7.38282"/></svg>