<svg xmlns="http://www.w3.org/2000/svg" xmlns:xlink="http://www.w3.org/1999/xlink" width="694.714" height="521.692" viewBox="0 0 694.714 521.692"><defs><path id="b" d="M.34375 1.04688c0 .90625.98438 1.5 2.40625 1.5 1.54688 0 2.65625-.59375 2.65625-1.78125 0-.875-.6875-1.40625-1.85937-1.6875-.9375-.21876-1.28125-.32813-1.28125-.60938 0-.1875.17187-.3125.40625-.375.23437.03125.42187.03125.59375.03125 1.48437 0 2.39062-.75 2.39062-1.85937 0-.28125-.07812-.54688-.20312-.71875l.84375-.125.32812-.71875-.04687-.09375-1.53125.42187c-.29688-.1875-.84375-.3125-1.375-.3125-1.85938 0-2.40625 1.07813-2.40625 1.9375 0 .70313.57812 1.1875.95312 1.3125-.42187.15625-1.09375.42188-1.09375.875 0 .35938.42188.67188.85938.8125C1.26563-.21875.34375.1875.34375 1.04688M1.53125.9375c0-.71875.60938-1.03125.95313-1.07812C3.125-.0625 4.3125.1875 4.3125 1.04688c0 .76562-.64062 1.07812-1.32812 1.07812-.79688 0-1.45313-.4375-1.45313-1.1875m1-4.0625c0-.6875.34375-1.73437 1.20313-1.73437.28125 0 .75.14062.75.76562 0 .95313-.48438 1.78125-1.20313 1.78125-.5 0-.75-.34375-.75-.8125m0 0"/><path id="c" d="M1.14063 0h3.59375v-.34375l-.8125-.07812c-.23438-.01563-.34375-.09375-.34375-.46875v-6.20313L3.5-7.15625l-2.32812.375v.3125L2-6.35937c.23438.04687.3125.125.3125.46875v5c0 .375-.10937.45312-.35937.46875l-.8125.07812Zm0 0"/><path id="d" d="M.09375 0h3.0625l.07813-.34375-.57813-.04687c-.1875-.01563-.26562-.09375-.26562-.26563 0-.07812.03125-.17187.04687-.28125l.59375-2.64062h3.17188L5.59375-.9375c-.07812.35938-.15625.51563-.4375.53125l-.54687.0625L4.54688 0h3.0625l.07812-.34375-.57812-.04687C6.92188-.40625 6.84375-.5 6.84375-.65625c0-.07812.03125-.17187.04688-.28125l1.21875-5.40625c.09375-.35937.17187-.53125.45312-.54687l.53125-.04688.07813-.34375h-3.0625l-.09375.34375.59375.04688c.17187.01562.26562.10937.26562.26562 0 .07813-.03125.17188-.04687.28125l-.51563 2.3125H3.14063l.51562-2.3125c.09375-.35937.17188-.53125.45313-.54687l.54687-.04688.07813-.34375h-3.0625l-.09376.34375.57813.04688c.1875.01562.26563.10937.26563.26562 0 .07813-.03125.17188-.04688.28125L1.15625-.9375c-.09375.35938-.17187.51563-.45312.53125l-.53125.0625Zm0 0"/><path id="e" d="M.32813-.14062.45313 0H5l.40625-1.59375-.34375-.04687c-.25.54687-.45312.625-.875.625H1.51563c.17187-.46875.65625-1.14063 1.71875-1.8125 1.10937-.70313 1.85937-1.20313 1.85937-2.34375 0-1.46875-1.01562-1.98438-2.21875-1.98438-1.42187 0-2.3125.78125-2.3125 1.5 0 .40625.46875.59375.71875.59375.20313 0 .32813-.10937.375-.34375C1.82813-6.17187 2.20313-6.75 2.79688-6.75c.6875 0 .92187.60938.92187 1.35938 0 .9375-.375 1.65625-1.40625 2.51562C.9375-1.6875.45313-.90625.32813-.14062m0 0"/><path id="f" d="M.3125-1.15625C.3125-.73437.95313.125 2.625.125c1.60938 0 2.60938-.75 2.60938-2.09375 0-1.45312-1.28125-1.8125-1.78125-1.875v-.04687c.5625-.10938 1.46875-.5 1.46875-1.53125 0-1.29688-1.07813-1.73438-2.1875-1.73438-1.32813 0-2.17188.71875-2.17188 1.3125 0 .39063.45313.57813.65625.57813.1875 0 .28125-.09375.34375-.28125.23438-.75.57813-1.20313 1.125-1.20313.73438 0 .90625.76563.90625 1.29688 0 .51562-.14062 1.40625-.98437 1.40625-.45313 0-.78125-.125-.96875-.125-.17188 0-.23438.125-.23438.35937 0 .20313.0625.34375.23438.34375.1875 0 .5-.10937.96875-.10937.73437 0 1.25.54687 1.25 1.64062 0 1.17188-.51563 1.64063-1.20313 1.64063-.59375 0-1.01562-.4375-1.25-1.20313-.07812-.20312-.20312-.3125-.39062-.3125-.28126 0-.70313.23438-.70313.65625m0 0"/><path id="g" d="m.21875-2.125.15625.26563h2.76563v1.0625c0 .29687-.10938.375-.3125.39062l-.6875.0625V0H5.125v-.34375l-.5-.04687C4.40625-.42187 4.34375-.5 4.34375-.79687v-1.0625h1.0625v-.59375h-1.0625v-4.57813h-1C2.28125-5.48437 1.17188-3.73437.21875-2.125m.92188-.32812c.57812-1.0625 1.26562-2.21875 2-3.42188v3.42188Zm0 0"/><path id="h" d="M.46875-1.15625c0 .42188.625 1.28125 2.21875 1.28125 1.84375 0 2.57813-1.07812 2.57813-2.39062 0-1.23438-.71875-2.25-2.25-2.25-.64063 0-1.25.28125-1.60938.57812l.20313-1.73437c.04687-.3125.09374-.34375.34375-.34375h2.70312l.3125-.90625-.0625-.10938h-3.75l-.09375.09375-.21875 3.5.34375.21875c.42188-.5.84375-.73437 1.375-.73437.70313 0 1.34375.51562 1.34375 1.82812 0 1.07813-.35937 1.82813-1.15625 1.82813-.625 0-.96875-.4375-1.21875-1.1875-.07812-.20313-.20312-.3125-.40625-.3125-.28125 0-.65625.25-.65625.64062m0 0"/><path id="j" d="M1.01563.125 1.92188 0c.28124-1.07812.4375-1.65625.70312-2.3125.32813-.82812 1.35938-2.42187 2.28125-2.42187.25 0 .375.15625.375.4375 0 .07812 0 .1875-.03125.29687l-.875 2.98438c-.04687.20312-.07812.375-.07812.51562 0 .40625.20312.625.625.625.73437 0 1.32812-.71875 1.6875-1.51562l-.25-.14063c-.20313.35938-.67188 1.10938-.95313 1.10938-.125 0-.17187-.07813-.17187-.20313 0-.10937.01562-.21875.0625-.375L6.125-3.76562c.07813-.25.10938-.46875.10938-.6875 0-.48438-.23438-.82813-.82813-.82813-1 0-2.14062 1.07813-2.8125 2.34375h-.01562L3.75-7.76562l-.04687-.04688-1.90625.25-.0625.25.60937.0625c.17188.03125.25.0625.25.21875 0 .07813 0 .15625-.04687.29688Zm0 0"/><path id="i" d="M0 0h5.76563l.125-.60937-1.25-.07813C4.28125-.71875 4.125-.92187 4.125-1.25c0-.14062.01563-.3125.0625-.5l1.32813-5.84375h.04687C6.51563-5.625 7.54688-3.51562 8.82813-1.76562 9.84375-.40625 10.75.04688 12.375.09374l1.03125.01563.15625-.625C12.34375-.625 11.85938-1.1875 11.09375-2.125 9.67188-3.90625 8.25-6.45312 7.375-8.3125c1.90625-1.59375 3.65625-3.04687 5.57813-4.39062 1.20312-.85938 1.70312-1.14063 3.40625-1.25l.09374-.60938h-5.25l-.09375.60938.8125.0625c.21875.01562.29688.10937.29688.25 0 .10937-.125.26562-.32812.4375L5.67188-7.84375h-.09375l1.125-4.96875c.15625-.65625.35937-1.01562.89062-1.0625l1.17188-.07812.125-.60938h-5.75l-.15625.60938 1.25.07812c.35937.03125.51562.25.51562.59375 0 .125-.01562.28125-.0625.46875L2.15625-1.75c-.15625.67188-.35937.96875-.875 1.01563l-1.17187.125Zm0 0"/><path id="k" d="M.73438-.51562c0 .5.65625.76562.96875.76562 1.125 0 1.90625-1.39062 2.28125-2.32812.5-1.23438 1.21875-3.875 1.84375-6.89063h2.64062l-1.35937 6.375c-.07813.4375-.125.84375-.125 1.1875C6.98438-.34375 7.32813.25 8.09375.25c1.54688 0 2.70313-1.17187 3.45313-2.9375l-.5-.29687C10.51563-1.90625 9.65625-.82812 9.1875-.82812c-.25 0-.3125-.25-.3125-.625 0-.23438.01563-.51563.0625-.78125l1.42188-6.73438h1.82812l.85938-1.60937c-.60938.15625-1.48438.21875-2.46875.21875H4.59375c-1.07812 0-2.5625.54687-3.35937 1.82812l.32812.375c.85938-.65625 1.95313-.8125 3.07813-.8125-.90625 3.70313-1.53125 7.04688-2.71875 7.25-.53125.07813-1.1875.39063-1.1875 1.20313m0 0"/><path id="o" d="M1.8125-5.9375c0 4.75 1.07813 9.96875 5.53125 10.15625v-.64062C5.84375 3.29688 3.5 1.4375 3.5-5.9375c0-7.32812 2.23438-9.1875 3.84375-9.51562v-.64063C2.89063-15.90625 1.8125-10.6875 1.8125-5.9375m0 0"/><path id="p" d="M1.25 3.57813v.64062C5.71875 4.03125 6.79688-1.1875 6.79688-5.9375S5.71875-15.90625 1.25-16.09375v.64063c1.625.32812 3.85938 2.1875 3.85938 9.51562 0 7.375-2.35938 9.23438-3.85938 9.51563m0 0"/><path id="z" d="M.89063-6c0 2.09375.70312 3.82813 1.79687 4.76563C3.92188-.15626 5.64063.3125 7.59375.3125c1.54688 0 3.25-.35937 4.45313-.8125l1.01562-4.25c.17188-.71875.29688-1.01562.65625-1.04687l.90625-.09375.14063-.60938h-5.5625l-.10938.60938 1.57813.125c.28125.03125.42187.15625.42187.5 0 .14062-.03125.29687-.0625.51562l-.76562 3.1875c-.15625.59375-.42188 1.14063-2.625 1.14063-2.54688 0-4.42188-1.70313-4.42188-5.42188 0-3.35937 1.64063-8.3125 6.6875-8.3125 2.75 0 3.21875 1.60938 3.35938 3.60938h.625l.76562-3.29688c-1.28125-.70312-2.95312-1.0625-4.73437-1.0625-3.21875 0-5.54688 1.17188-7.03125 3.04688-1.39063 1.78125-2 4-2 5.85937m0 0"/><path id="C" d="m1.79688-4.57812.51562.25C2.75-5.32812 3.35938-6.25 4.09375-6.25 5.51563-6.25 9-4.1875 11.0625-4.1875c1.84375 0 2.21875-2.04687 2.35938-3.14062l-.53125-.26563c-.39063 1-1 1.98438-1.75 1.98438-1.53125 0-5.14063-2.125-7.17188-2.125-1.07812 0-2.04687 2.09375-2.17187 3.15625m0 0"/><path id="E" d="M.67188 2.01563c0 1.89062 1.96875 3.07812 4.64062 3.07812 2.84375 0 5.125-1.21875 5.125-3.53125C10.4375 0 9.25-1.14062 6.76563-1.71875 5-2.15625 4.21875-2.4375 4.21875-3.03125c0-.39062.39063-.6875.90625-.82812.4375.07812.82813.07812 1.15625.07812 2.92188 0 4.54688-1.59375 4.54688-3.76562 0-.5625-.15625-1.10938-.4375-1.45313l1.75-.28125.71875-1.3125-.125-.1875-3.0625.82813c-.53125-.35938-1.57813-.625-2.60938-.625-3.45312 0-4.48437 2.375-4.48437 3.875 0 1.57812 1.15625 2.40625 1.79687 2.625-.65625.26562-1.95312.73437-1.95312 1.59375 0 .76562.92187 1.35937 1.5 1.59375-1.4375.23437-3.25 1.15625-3.25 2.90625M2.625 1.84375c0-1.53125 1.34375-2.25 2.21875-2.375 1.3125.17188 3.8125.73438 3.8125 2.5 0 1.59375-1.3125 2.40625-2.875 2.40625C3.9375 4.375 2.625 3.35938 2.625 1.84375m1.92188-8.1875c0-1.3125.67187-3.5 2.67187-3.5.625 0 1.67188.32813 1.67188 1.78125 0 1.95313-1.03125 3.53125-2.59375 3.53125-1.125 0-1.75-.75-1.75-1.8125m0 0"/><path id="F" d="M2.01563.25 3.85938 0c.54687-2.15625.875-3.3125 1.40625-4.64062.625-1.64063 2.71875-4.84375 4.54687-4.84375.5 0 .76563.34375.76563.875q0 .28125-.09375.60937L8.76563-2.01562c-.10938.375-.1875.73437-.1875 1.03125C8.57813-.20312 8.98438.25 9.85938.25 11.3125.25 12.5-1.1875 13.21875-2.78125l-.51562-.28125c-.375.73438-1.32813 2.21875-1.90625 2.21875-.25 0-.32813-.17187-.32813-.40625 0-.20312.04688-.45312.125-.75L12.25-7.53125q.23438-.72656.23438-1.35937c0-.98438-.46875-1.6875-1.6875-1.6875-1.98438 0-4.25 2.17187-5.59375 4.70312h-.04688L7.5-15.53125l-.10937-.09375-3.78125.5-.14063.5 1.21875.125c.35938.04688.51563.10938.51563.42188 0 .15625-.03125.34375-.09375.60937Zm0 0"/><path id="G" d="M1.90625-5.625C3.35938-5.09375 6.10938-3 8.6875-.71875l.40625-.51562L7.4375-3h24.42188l-1.70313 1.76563.46875.46875C33.03125-2.90625 35.76563-5 37.32813-5.625v-.625c-1.45313-.54687-4.1875-2.625-6.76563-4.90625l-.40625.48438L31.8125-8.875H7.39063l1.70312-1.79687-.48437-.4375C6.20313-8.96875 3.46875-6.875 1.90625-6.25Zm2.85938-.32812 1.59375-1.6875h26.48437l1.64063 1.71875-1.59376 1.6875H6.40626Zm0 0"/><path id="H" d="M1.48438-5.92187c0 3.03125 1.46875 5.46875 4.95312 5.46875h4.40625v-1.20313H6.4375c-2.625 0-3.4375-1.8125-3.64062-3.67187H8.875V-6.5625H2.79688c.23437-1.89062.98437-3.60937 3.64062-3.60937h4.40625v-1.23438H6.4375c-3.5 0-4.95312 2.46875-4.95312 5.48438m0 0"/><path id="I" d="M0 0h5.76563l.125-.60937-1.25-.07813C4.28125-.71875 4.125-.89062 4.125-1.23437c0-.15626.01563-.3125.0625-.51563l1.21875-5.4375h7.03125L11.20313-1.75c-.17188.71875-.375.96875-.89063 1.01563l-1.17187.125L9.03125 0h5.75l.14063-.60937L13.6875-.6875c-.375-.03125-.53125-.20312-.53125-.5625 0-.14062.01563-.29687.0625-.5L15.75-12.8125c.1875-.70312.34375-1.01562.875-1.0625l1.17188-.07812.125-.60938h-5.75l-.15625.60938 1.25.07812c.35937.03125.51562.23438.51562.59375 0 .125-.03125.28125-.0625.46875l-1.07812 4.82813H5.60938l1.09375-4.82813c.17187-.70312.35937-1.01562.89062-1.0625l1.17188-.07812.125-.60938h-5.75l-.15625.60938 1.25.07812c.35937.03125.51562.23438.51562.59375 0 .125-.01562.28125-.0625.46875L2.15625-1.75c-.1875.71875-.35937.96875-.875 1.01563l-1.17187.125Zm0 0"/><path id="J" d="M1.92188 4.21875h1.42187L9.125-16.09375H7.70313Zm0 0"/><path id="l" d="M.07813 0H4.25l.10938-.45312-.84375-.0625c-.25-.01563-.35938-.14063-.35938-.375 0-.10938.01563-.23438.04688-.39063l.84375-3.73437H8.6875l-.84375 3.73437c-.125.5-.25.71875-.625.75l-.78125.07813L6.34375 0h4.17188l.10937-.45312-.84375-.0625c-.26562-.01563-.375-.14063-.375-.39063 0-.09375.03125-.21875.0625-.375l1.75-7.625c.125-.5.21875-.73437.60938-.76562l.78125-.0625.09375-.46875H8.53125l-.10937.46875.84375.0625c.25.01562.35937.14062.35937.39062 0 .09375-.03125.23438-.0625.375l-.71875 3.29688H4.1875l.73438-3.29688c.125-.5.25-.73437.64062-.76562l.78125-.0625.10938-.46875H2.28125l-.125.46875L3-9.67187c.25.01562.35938.14062.35938.39062 0 .09375-.01563.23438-.04688.375l-1.75 7.625c-.125.5-.25.71875-.625.75l-.76562.07813Zm0 0"/><path id="m" d="M1.1875-3.67187h8.21875v-.96875H1.1875Zm0 0"/><path id="n" d="M1.59375 0h4.95313v-.45312L5.35938-.5625C5.03125-.59375 4.875-.70312 4.875-1.25v-8.70312l-.09375-.07813-3.17187.54688v.39062l1.28125.17188c.28125.04687.375.15625.375.60937V-1.25c0 .54688-.14063.65625-.48438.6875l-1.1875.10938Zm0 0"/><path id="q" d="M.73438 0h6.21875v-.60937c-2.1875-.125-2.21875-.15626-2.21875-1.34375v-4.03125h1.1875c.95312 0 1.89062-.09375 2.6875-.26563 1.60937-.42187 3.48437-1.54687 3.48437-4.1875 0-1.59375-.71875-2.71875-1.65625-3.29687-1-.625-2.34375-.82813-3.82812-.82813h-5.875v.60938c1.85937.125 1.90625.15625 1.90625 1.34375v10.65625c0 1.1875-.04688 1.21875-1.90625 1.34375Zm4-7.54687v-5.51563c0-.57812.21875-.78125 1.57812-.78125 2.17188 0 3.5 1.25 3.5 3.53125 0 2.65625-1.71875 3.59375-3.53125 3.59375-1.23437 0-1.54687-.04687-1.54687-.82812m0 0"/><path id="r" d="M1.03125-2.73437C1.03125-1.17187 2.07813.25 4.0625.25c1.21875 0 2.45313-.8125 3.125-1.26562C7.48438-.21876 7.84375.25 8.57813.25c.78125 0 1.6875-.23437 2.48437-.625l-.125-.5c-.29687.0625-.76562.09375-1.07812 0-.375-.09375-.73438-.46875-.73438-1.79687v-5.10938c0-1.21875-.28125-2.79687-3.45312-2.79687-2.375 0-4.26563 1.23437-4.26563 2.40625 0 .67187.79688.98437 1.1875.98437.45313 0 .5625-.23437.67188-.59375.46875-1.5625 1.32812-2.0625 2.17187-2.0625s1.78125.4375 1.78125 2.10938v.875C6.67188-6.3125 4.64063-5.78125 2.98438-5.25c-1.53125.48438-1.95313 1.53125-1.95313 2.51563m2.125-.29688c0-.98437.45313-1.5 1.64063-1.9375.84375-.3125 1.95312-.71875 2.42187-1.01562V-3c0 1.70313-1.29687 2.125-2.125 2.125-1.3125 0-1.9375-.92187-1.9375-2.15625m0 0"/><path id="s" d="M.67188 0h5.5625v-.60937c-1.89063-.10938-2-.15626-2-1.23438v-4.92187c0-1.60938.71875-2.17188 1.20312-2.17188.34375 0 .70313.125 1.3125.46875.15625.09375.3125.10938.42188.10938.51562 0 .96875-.53125.96875-1.1875 0-.46875-.29688-1.03125-1.125-1.03125-.76563 0-1.39063.45312-2.78125 1.6875l-.25-1.6875-3.20313.54687v.51563l.78125.10937c.54688.07813.70313.17188.70313.9375v6.625c0 1.07813-.10938 1.125-1.59375 1.23438Zm0 0"/><path id="t" d="M.65625-9.48437h1.51563v7.32812C2.17188 0 3.76563.25 4.5.25c1.07813 0 2.09375-.54687 2.6875-.92187L7.03125-1.125c-.51562.20313-.95312.28125-1.5.28125-.71875 0-1.39062-.51562-1.39062-2.10937v-6.53125h2.71875v-.84375H4.14063v-2.64063h-.59375l-1.28125 2.64063H.65625Zm0 0"/><path id="u" d="M1.92188-13.78125c0 .76563.54687 1.29688 1.29687 1.29688.76563 0 1.28125-.53125 1.28125-1.29688 0-.76562-.51562-1.28125-1.28125-1.28125-.75 0-1.29687.51563-1.29687 1.28125M.67188 0h5.125v-.60937c-1.5-.10938-1.5625-.15626-1.5625-1.23438v-8.59375l-.15625-.14062-3.29688.54687v.51563l.78125.10937c.54688.07813.70313.17188.70313.9375v6.625c0 1.07813-.0625 1.125-1.59375 1.23438Zm0 0"/><path id="v" d="M1.03125-5.15625C1.03125-1.75 2.71875.25 6.09375.25c3.39063 0 5.04688-2 5.04688-5.40625s-1.65625-5.42187-5.04688-5.42187c-3.375 0-5.0625 2.01562-5.0625 5.42187m2.1875 0c0-2.90625.95313-4.6875 2.875-4.6875 1.92188 0 2.875 1.78125 2.875 4.6875C8.96875-2.23437 8.01563-.5 6.09375-.5c-1.92187 0-2.875-1.73437-2.875-4.65625m0 0"/><path id="w" d="M.67188 0h5.125v-.60937c-1.5-.10938-1.5625-.15626-1.5625-1.23438v-4.92187c0-.53125.01562-.8125.20312-1.14063.45313-.82812 1.39063-1.53125 2.51563-1.53125 1.42187 0 2.21875.78125 2.21875 2.625v4.96875c0 1.07813-.07813 1.125-1.59375 1.23438V0h5.15625v-.60937c-1.51563-.10938-1.59375-.15626-1.59375-1.23438v-5.375c0-2.125-1.17188-3.35937-3.09375-3.35937-1.57813 0-2.53125.76562-3.82813 1.60937l-.29687-1.60937-3.14063.54687v.51563l.78125.10937c.54688.07813.70313.17188.70313.9375v6.625c0 1.07813-.0625 1.125-1.59375 1.23438Zm0 0"/><path id="x" d="M1.03125-4.95312C1.03125-1.84375 2.67188.25 5.4375.25c1.15625 0 2.10938-.51562 3.25-1.4375v1.03125L8.875 0h3.40625v-.60937c-1.5-.10938-1.57812-.15626-1.57812-1.23438V-15.5l-.15625-.125-3.3125.51563v.54687l.8125.0625c.53125.07813.67187.1875.67187.98438v3.45312c-.57812-.3125-1.375-.51562-2.32812-.51562-1.73438 0-3.03125.5625-3.90625 1.45312-.89063.95313-1.45313 2.32813-1.45313 4.17188m2.1875-.25c0-2.73438 1-4.64063 3.14063-4.64063.98437 0 1.79687.45313 2.17187 1.32813.1875.35937.1875.67187.1875 1.23437v3.70313c0 .46875 0 .82812-.14062 1.1875C8.15625-1.29687 7.23438-.875 6.14063-.875c-1.92188 0-2.92188-1.90625-2.92188-4.32812m0 0"/><path id="y" d="M1.03125-5.09375C1.03125-1.75 2.46875.25 5.89063.25 8.21875.25 9.4375-1.04687 10-2.71875l-.64062-.32812C8.78125-1.8125 7.98438-.82812 6.3125-.82812c-2.60937 0-3.125-2.51563-3.09375-4.70313h6.07813c.45312 0 .82812-.10937.82812-.8125 0-1.23437-.40625-4.23437-4.25-4.23437-3.29687 0-4.84375 2.32812-4.84375 5.48437m2.21875-1.25c0-.875.3125-3.5 2.51563-3.5 1.9375 0 2.17187 2 2.17187 2.82813 0 .40625-.14062.67187-.71875.67187Zm0 0"/><path id="A" d="m.98438-3.51562.21874 2.75C1.96876-.09376 3.25.25 4.48438.25c2.5 0 3.9375-1.32812 3.9375-3.125 0-1.85937-1.14063-2.6875-3.3125-3.35937C4.23438-6.5 2.875-6.95312 2.875-8.14062c0-1.09375.82813-1.70313 1.875-1.70313 1.5 0 2.21875 1.17188 2.375 2.45313h.60938v-2.46875c-.70313-.51563-1.78125-.71875-2.71875-.71875C2.73438-10.57812 1.1875-9.5 1.1875-7.5c0 1.73438 1.4375 2.53125 3.1875 3.0625.9375.29688 2.25.76563 2.25 2.20313C6.625-1.17187 5.79688-.5 4.6875-.5c-1.70312 0-2.67187-1.21875-3.09375-3.01562Zm0 0"/><path id="B" d="M.42188 0H5.5625v-.60937c-1.5-.10938-1.57812-.15626-1.57812-1.23438V-15.5l-.15625-.125-3.29688.51563v.54687l.79688.0625c.53125.07813.67187.1875.67187.98438v11.67187C2-.76562 1.95313-.71875.42188-.60937Zm0 0"/><path id="D" d="M2.57813-14.3125c0 .4375.53125.79688 1.15625 1.14063l3.1875 1.76562.3125-.42187L4.75-14.35937c-.625-.65625-1.01562-.875-1.35937-.875-.32813 0-.8125.48437-.8125.92187M.53125-9.51562l.8125.10937c.53125.07813.67188.17188.67188.9375v5.5625C2.01563-.5 3.45313.25 5.01563.25c1.79687 0 3.25-1.21875 3.85937-1.5L9.07813 0h3.375v-.60937C11-.71875 10.85938-.76563 10.85938-1.84375v-8.59375l-.15625-.14062-3.28125.54687v.51563l.79687.10937c.54688.07813.67188.17188.67188.9375v4.75c0 .57813-.0625 1.04688-.17188 1.25C8.21875-1.5 7.23438-.875 6.14063-.875c-1.23438 0-2.125-.78125-2.125-2.42187v-7.14063l-.15625-.14062-3.32813.54687Zm0 0"/><clipPath id="a"><path d="M.0625 85H437v436.38281H.0625Zm0 0"/></clipPath></defs><path fill="#E5F2F2" stroke="#000" stroke-miterlimit="10" stroke-width=".19913" d="M376.52344 204.5664c-10.3164-58.5039-97.72266-91.99609-195.23047-74.80078-97.51172 17.19141-168.19141 78.5547-157.87891 137.0586 10.3164 58.50782 97.72266 91.9961 195.23047 74.8047 97.51172-17.19532 168.19141-78.5586 157.87891-137.06251Zm0 0"/><g clip-path="url(#a)"><path fill="none" stroke="#000" stroke-miterlimit="10" stroke-width=".39826" d="M430.51954 306.0586c0-118.81641-96.3125-215.13282-215.12891-215.13282C96.5742 90.92578.2578 187.24218.2578 306.0586c0 118.8125 96.3164 215.12891 215.13282 215.12891 118.8164 0 215.12891-96.3164 215.12891-215.12891Zm0 0"/></g><path fill="#E5F2F2" stroke="#000" stroke-miterlimit="10" stroke-width=".19913" d="M563.38673 126.64062c-17.1914-14.42578-49.01172-4.80469-71.07813 21.48828-22.0625 26.29297-26.01171 59.30079-8.8203 73.72657 17.1953 14.42578 49.01562 4.8086 71.07812-21.48828 22.0625-26.29297 26.01172-59.30079 8.82031-73.72657Zm0 0"/><use xlink:href="#b" x="541.6383" y="145.47012"/><use xlink:href="#c" x="547.37466" y="148.50582"/><use xlink:href="#d" x="553.81486" y="145.47012"/><use xlink:href="#b" x="490.86228" y="161.96838"/><use xlink:href="#e" x="496.59864" y="165.00408"/><use xlink:href="#d" x="503.03884" y="161.96838"/><use xlink:href="#b" x="490.86228" y="215.29589"/><use xlink:href="#f" x="496.59864" y="218.32935"/><use xlink:href="#d" x="503.03884" y="215.29589"/><use xlink:href="#b" x="541.6383" y="231.91808"/><use xlink:href="#g" x="547.37466" y="234.83011"/><use xlink:href="#d" x="553.81486" y="231.91808"/><use xlink:href="#b" x="573.01977" y="188.66262"/><use xlink:href="#h" x="578.75613" y="191.57465"/><use xlink:href="#d" x="585.19633" y="188.66262"/><path fill="none" stroke="#000" stroke-miterlimit="10" stroke-width=".39826" d="M609.7969 186.53906c0-39.60547-32.10548-71.71094-71.71095-71.71094s-71.71094 32.10547-71.71094 71.71094S498.48048 258.25 538.08595 258.25s71.71094-32.10547 71.71094-71.71094Zm0 0"/><use xlink:href="#i" x="530.19705" y="193.7656"/><path fill="#CCE5E5" stroke="#CCE5E5" stroke-miterlimit="10" stroke-width=".39826" d="M244.07422 186.53906c0-29.04297-23.54297-52.58594-52.58985-52.58594-29.04296 0-52.58594 23.54297-52.58594 52.58594s23.54298 52.58985 52.58594 52.58985c29.04688 0 52.58985-23.54688 52.58985-52.58985Zm0 0"/><path fill="none" stroke="#000" stroke-miterlimit="10" stroke-width=".19913" d="M191.48437 186.53906C240.14844 52.84374 503.40236.09765 552.00001 133.60546"/><path fill="none" stroke="#000" stroke-linecap="round" stroke-linejoin="round" stroke-miterlimit="10" stroke-width=".19913" d="M553.3125 131.28516c-1.03125.73047-1.3164 1.6289-1.28125 2.41406-.48047-.625-1.27344-1.1289-2.53125-1.02735"/><path fill="#CCE5E5" stroke="#CCE5E5" stroke-miterlimit="10" stroke-width=".39826" d="M363.58985 234.34766c0-29.04297-23.54297-52.58985-52.58594-52.58985s-52.58985 23.54688-52.58985 52.58985 23.54688 52.58594 52.58985 52.58594 52.58594-23.54297 52.58594-52.58594Zm0 0"/><path fill="none" stroke="#000" stroke-miterlimit="10" stroke-width=".19913" d="M311.00391 234.34766c27.75781-76.26172 162.53516-160.32032 190.22657-84.2461"/><path fill="none" stroke="#000" stroke-linecap="round" stroke-linejoin="round" stroke-miterlimit="10" stroke-width=".19913" d="M502.54297 147.78125c-1.02734.73047-1.3125 1.6289-1.28125 2.41406-.47656-.625-1.27344-1.1289-2.53125-1.02734"/><path fill="#CCE5E5" stroke="#CCE5E5" stroke-miterlimit="10" stroke-width=".39826" d="M160.41015 270.20313c0-29.04297-23.54297-52.58985-52.58593-52.58985-29.04298 0-52.58985 23.54688-52.58985 52.58985s23.54687 52.58594 52.58985 52.58594c29.04296 0 52.58593-23.54297 52.58593-52.58594Zm0 0"/><path fill="none" stroke="#000" stroke-miterlimit="10" stroke-width=".19913" d="M107.82422 270.20313c53.3125-146.47266 340.16016-213.00392 393.40626-66.71876"/><path fill="none" stroke="#000" stroke-linecap="round" stroke-linejoin="round" stroke-miterlimit="10" stroke-width=".19913" d="M502.54297 201.16016c-1.02734.73046-1.3125 1.6289-1.28125 2.41797-.47656-.625-1.27344-1.12891-2.53125-1.02735"/><path fill="none" stroke="#000" stroke-dasharray="2.9870665903 2.9870665903" stroke-miterlimit="10" stroke-width=".39826" d="M244.07422 186.53906c0-29.04297-23.54297-52.58594-52.58985-52.58594-29.04296 0-52.58594 23.54297-52.58594 52.58594s23.54298 52.58985 52.58594 52.58985c29.04688 0 52.58985-23.54688 52.58985-52.58985Zm0 0"/><use xlink:href="#b" x="189.95393" y="154.82659"/><use xlink:href="#c" x="195.68804" y="157.8623"/><use xlink:href="#j" x="202.13049" y="154.82659"/><use xlink:href="#c" x="208.73934" y="157.8623"/><use xlink:href="#b" x="149.8666" y="167.8519"/><use xlink:href="#c" x="155.60296" y="170.88761"/><use xlink:href="#j" x="162.04316" y="167.8519"/><use xlink:href="#e" x="168.65201" y="170.88761"/><use xlink:href="#b" x="149.8666" y="209.93905"/><use xlink:href="#c" x="155.60296" y="212.97476"/><use xlink:href="#j" x="162.04316" y="209.93905"/><use xlink:href="#f" x="168.65201" y="212.97476"/><use xlink:href="#b" x="189.95393" y="223.02533"/><use xlink:href="#c" x="195.68804" y="226.06104"/><use xlink:href="#j" x="202.13049" y="223.02533"/><use xlink:href="#g" x="208.73934" y="225.93961"/><use xlink:href="#b" x="214.7293" y="188.92646"/><use xlink:href="#c" x="220.46342" y="191.96217"/><use xlink:href="#j" x="226.90361" y="188.92646"/><use xlink:href="#h" x="233.51246" y="191.83849"/><path fill="none" stroke="#000" stroke-dasharray="2.9870665903 2.9870665903" stroke-miterlimit="10" stroke-width=".39826" d="M363.58985 234.34766c0-29.04297-23.54297-52.58985-52.58594-52.58985s-52.58985 23.54688-52.58985 52.58985 23.54688 52.58594 52.58985 52.58594 52.58594-23.54297 52.58594-52.58594Zm0 0"/><use xlink:href="#b" x="309.47037" y="202.63237"/><use xlink:href="#e" x="315.20448" y="205.66808"/><use xlink:href="#j" x="321.64468" y="202.63237"/><use xlink:href="#c" x="328.25353" y="205.66808"/><use xlink:href="#b" x="269.38304" y="215.65868"/><use xlink:href="#e" x="275.11715" y="218.69214"/><use xlink:href="#j" x="281.55735" y="215.65868"/><use xlink:href="#e" x="288.1662" y="218.69214"/><use xlink:href="#b" x="269.38304" y="257.74483"/><use xlink:href="#e" x="275.11715" y="260.78054"/><use xlink:href="#j" x="281.55735" y="257.74483"/><use xlink:href="#f" x="288.1662" y="260.78054"/><use xlink:href="#b" x="309.47037" y="270.8321"/><use xlink:href="#e" x="315.20448" y="273.86781"/><use xlink:href="#j" x="321.64468" y="270.8321"/><use xlink:href="#g" x="328.25353" y="273.74414"/><use xlink:href="#b" x="334.24474" y="236.73224"/><use xlink:href="#e" x="339.98111" y="239.76794"/><use xlink:href="#j" x="346.4213" y="236.73224"/><use xlink:href="#h" x="353.03015" y="239.64427"/><path fill="none" stroke="#000" stroke-dasharray="2.9870665903 2.9870665903" stroke-miterlimit="10" stroke-width=".39826" d="M160.41015 270.20313c0-29.04297-23.54297-52.58985-52.58593-52.58985-29.04298 0-52.58985 23.54688-52.58985 52.58985s23.54687 52.58594 52.58985 52.58594c29.04296 0 52.58593-23.54297 52.58593-52.58594Zm0 0"/><use xlink:href="#b" x="106.29232" y="238.42624"/><use xlink:href="#f" x="112.02868" y="241.46194"/><use xlink:href="#j" x="118.46888" y="238.42624"/><use xlink:href="#c" x="125.07773" y="241.46194"/><use xlink:href="#b" x="66.20599" y="251.45155"/><use xlink:href="#f" x="71.9401" y="254.48725"/><use xlink:href="#j" x="78.3803" y="251.45155"/><use xlink:href="#e" x="84.98915" y="254.48725"/><use xlink:href="#b" x="66.20599" y="293.59966"/><use xlink:href="#f" x="71.9401" y="296.63537"/><use xlink:href="#j" x="78.3803" y="293.59966"/><use xlink:href="#f" x="84.98915" y="296.63537"/><use xlink:href="#b" x="106.29232" y="306.62497"/><use xlink:href="#f" x="112.02868" y="309.66068"/><use xlink:href="#j" x="118.46888" y="306.62497"/><use xlink:href="#g" x="125.07773" y="309.53925"/><use xlink:href="#b" x="131.06769" y="272.5261"/><use xlink:href="#f" x="136.80181" y="275.56181"/><use xlink:href="#j" x="143.24426" y="272.5261"/><use xlink:href="#h" x="149.8531" y="275.43813"/><path fill="none" stroke="#000" stroke-dasharray="2.9870665903 2.9870665903" stroke-miterlimit="10" stroke-width=".39826" d="M351.64063 389.71876c0-29.04297-23.54297-52.58594-52.58984-52.58594-29.04297 0-52.58594 23.54297-52.58594 52.58594s23.54297 52.58984 52.58594 52.58984c29.04687 0 52.58984-23.54687 52.58984-52.58984Zm0 0"/><use xlink:href="#b" x="297.51842" y="358.00364"/><use xlink:href="#g" x="303.25254" y="360.91567"/><use xlink:href="#j" x="309.69498" y="358.00364"/><use xlink:href="#c" x="316.30383" y="361.03935"/><use xlink:href="#b" x="257.43109" y="371.02895"/><use xlink:href="#g" x="263.16745" y="373.94098"/><use xlink:href="#j" x="269.60765" y="371.02895"/><use xlink:href="#e" x="276.2165" y="374.06466"/><use xlink:href="#b" x="257.43109" y="413.1161"/><use xlink:href="#g" x="263.16745" y="416.02813"/><use xlink:href="#j" x="269.60765" y="413.1161"/><use xlink:href="#f" x="276.2165" y="416.15181"/><use xlink:href="#b" x="297.51842" y="426.26434"/><use xlink:href="#g" x="303.25254" y="429.17637"/><use xlink:href="#j" x="309.69498" y="426.26434"/><use xlink:href="#g" x="316.30383" y="429.17637"/><use xlink:href="#b" x="322.2928" y="392.10351"/><use xlink:href="#g" x="328.02916" y="395.01554"/><use xlink:href="#j" x="334.46936" y="392.10351"/><use xlink:href="#h" x="341.07821" y="395.01554"/><path fill="none" stroke="#000" stroke-dasharray="2.9870665903 2.9870665903" stroke-miterlimit="10" stroke-width=".39826" d="M208.21875 425.57423c0-29.04297-23.54297-52.58594-52.58594-52.58594-29.04688 0-52.58984 23.54297-52.58984 52.58594s23.54296 52.58984 52.58984 52.58984c29.04297 0 52.58594-23.54687 52.58594-52.58984Zm0 0"/><use xlink:href="#b" x="154.0991" y="393.85847"/><use xlink:href="#h" x="159.83321" y="396.7705"/><use xlink:href="#j" x="166.27566" y="393.85847"/><use xlink:href="#c" x="172.88451" y="396.89418"/><use xlink:href="#b" x="114.01176" y="406.88378"/><use xlink:href="#h" x="119.74813" y="409.79581"/><use xlink:href="#j" x="126.18833" y="406.88378"/><use xlink:href="#e" x="132.79717" y="409.91949"/><use xlink:href="#b" x="114.01176" y="448.97093"/><use xlink:href="#h" x="119.74813" y="451.88296"/><use xlink:href="#j" x="126.18833" y="448.97093"/><use xlink:href="#f" x="132.79717" y="452.00664"/><use xlink:href="#b" x="154.0991" y="462.05821"/><use xlink:href="#h" x="159.83321" y="464.97024"/><use xlink:href="#j" x="166.27566" y="462.05821"/><use xlink:href="#g" x="172.88451" y="464.97024"/><use xlink:href="#b" x="178.87447" y="427.95834"/><use xlink:href="#h" x="184.60858" y="430.87037"/><use xlink:href="#j" x="191.04878" y="427.95834"/><use xlink:href="#h" x="197.65763" y="430.87037"/><use xlink:href="#k" x="405.49967" y="93.75065"/><use xlink:href="#l" x="418.08999" y="98.67749"/><use xlink:href="#k" x="192.7063" y="312.46652"/><use xlink:href="#m" x="207.04384" y="303.50556"/><use xlink:href="#n" x="217.64481" y="303.50556"/><use xlink:href="#l" x="205.29662" y="318.62789"/><use xlink:href="#o" x="226.93784" y="312.46652"/><use xlink:href="#i" x="235.54049" y="312.46652"/><use xlink:href="#p" x="253.37305" y="312.46652"/><use xlink:href="#q" x="460.97692" y="465.2016"/><use xlink:href="#r" x="472.85036" y="465.2016"/><use xlink:href="#s" x="483.85009" y="465.2016"/><use xlink:href="#t" x="492.2063" y="465.2016"/><use xlink:href="#u" x="499.44238" y="465.2016"/><use xlink:href="#t" x="505.55832" y="465.2016"/><use xlink:href="#u" x="512.7944" y="465.2016"/><use xlink:href="#v" x="518.91034" y="465.2016"/><use xlink:href="#w" x="531.05261" y="465.2016"/><use xlink:href="#x" x="548.79556" y="465.2016"/><use xlink:href="#y" x="561.38588" y="465.2016"/><use xlink:href="#z" x="576.93196" y="465.2016"/><use xlink:href="#A" x="596.87094" y="465.2016"/><use xlink:href="#y" x="606.03365" y="465.2016"/><use xlink:href="#B" x="616.85416" y="465.2016"/><use xlink:href="#v" x="622.72367" y="465.2016"/><use xlink:href="#w" x="634.86594" y="465.2016"/><use xlink:href="#C" x="652.60878" y="465.2016"/><use xlink:href="#v" x="460.97692" y="492.08448"/><use xlink:href="#D" x="473.11919" y="492.08448"/><use xlink:href="#E" x="490.59194" y="492.08448"/><use xlink:href="#C" x="509.18619" y="492.08448"/><use xlink:href="#F" x="528.67655" y="492.08448"/><use xlink:href="#G" x="551.72894" y="492.08448"/><use xlink:href="#E" x="599.67075" y="492.08448"/><use xlink:href="#m" x="613.93387" y="483.12352"/><use xlink:href="#n" x="624.53483" y="483.12352"/><use xlink:href="#F" x="633.83012" y="492.08448"/><use xlink:href="#H" x="652.78282" y="492.08448"/><use xlink:href="#I" x="669.62966" y="492.08448"/><use xlink:href="#z" x="635.37596" y="240.28314"/><use xlink:href="#J" x="651.52831" y="240.28314"/><use xlink:href="#I" x="662.57285" y="240.28314"/></svg>