<svg xmlns="http://www.w3.org/2000/svg" xmlns:xlink="http://www.w3.org/1999/xlink" width="463.986pt" height="347.901pt" viewBox="0 0 463.986 347.901"><defs><path id="b" d="M.21875.70313c.01563.59375.67188 1 1.60938 1 1.03125 0 1.78125-.40625 1.78125-1.1875 0-.59375-.46875-.9375-1.25-1.125-.625-.15626-.84375-.23438-.84375-.40625 0-.125.10937-.20313.26562-.25.15625.01562.28125.01562.40625.01562.98438 0 1.57813-.5 1.57813-1.25 0-.1875-.04688-.35937-.125-.46875l.5625-.09375.21875-.46875-.03125-.0625L3.375-3.3125c-.20312-.125-.57812-.21875-.92187-.21875-1.25 0-1.60938.73438-1.60938 1.29688 0 .46875.39063.79687.64063.875C1.1875-1.25.75-1.0625.75-.76562c0 .23437.28125.4375.57813.54687C.84375-.15625.21874.125.21874.70313M1.01563.625c0-.46875.40625-.6875.64062-.71875C2.07813-.03125 2.875.125 2.875.70313c0 .5-.42187.71875-.875.71875-.54687 0-.98437-.29688-.98437-.79688m.67187-2.70312c0-.46875.23438-1.15625.79688-1.15625.20312 0 .5.09375.5.51562 0 .625-.3125 1.1875-.79688 1.1875-.32812 0-.5-.23437-.5-.54687m0 0"/><path id="c" d="M.76563 0h2.39062v-.23437l-.54687-.04688c-.15625-.01562-.23438-.0625-.23438-.3125v-4.14062l-.04687-.03125-1.54688.25v.20312l.5625.07813c.14063.01562.1875.07812.1875.3125v3.32812c0 .25-.0625.29688-.23437.3125l-.53125.04688Zm0 0"/><path id="d" d="M.0625 0h2.04688l.04687-.23437-.39062-.03126c-.10938 0-.17188-.0625-.17188-.17187 0-.04687.01563-.10937.03125-.1875l.40625-1.76562h2.10938L3.73438-.625c-.0625.25-.10938.34375-.29688.35938l-.35937.03125L3.03125 0h2.04688L5.125-.23437 4.75-.26563c-.14062 0-.1875-.0625-.1875-.17187 0-.0625.01563-.10937.03125-.1875l.8125-3.60937c.0625-.23438.10938-.34375.29688-.35938L6.0625-4.625l.04688-.23437H4.07813l-.0625.23437.39062.03125c.125.01563.17188.0625.17188.1875 0 .04688-.01563.10938-.03125.17188L4.20313-2.6875H2.09375l.34375-1.54687c.0625-.23438.10938-.34375.29688-.35938l.35937-.03125.0625-.23437H1.10938l-.0625.23437.39062.03125c.125.01563.17188.0625.17188.1875 0 .04688-.01563.10938-.03126.17188L.76563-.625c-.0625.25-.10937.34375-.29687.35938l-.35937.03125Zm0 0"/><path id="e" d="M.21875-.09375.29688 0h3.03125l.26562-1.0625-.21875-.03125c-.17187.375-.29687.42188-.57812.42188H1.01563c.10937-.3125.4375-.76563 1.14062-1.20313.73438-.48437 1.23438-.8125 1.23438-1.57812 0-.96875-.67188-1.3125-1.48438-1.3125-.9375 0-1.53125.51562-1.53125 1 0 .26562.3125.39062.48438.39062.14062 0 .20312-.07812.25-.21875.10937-.51562.35937-.90625.75-.90625.46875 0 .625.40625.625.90625 0 .625-.26563 1.09375-.95313 1.6875C.625-1.125.29688-.60937.21875-.09375m0 0"/><path id="f" d="M.20313-.76562c0 .28124.4375.84375 1.54687.84375 1.07813 0 1.73438-.5 1.73438-1.39063 0-.96875-.84375-1.21875-1.1875-1.25v-.03125c.39062-.07812.98437-.32812.98437-1.01562 0-.875-.71875-1.15625-1.45312-1.15625-.89063 0-1.45313.46875-1.45313.875 0 .25.29688.375.4375.375.125 0 .1875-.0625.21875-.1875.15625-.5.39063-.79688.76563-.79688.48437 0 .59375.51563.59375.85938s-.09375.9375-.65625.9375c-.29688 0-.51563-.07813-.64063-.07813-.10937 0-.15625.07813-.15625.23438 0 .14062.04688.23437.15625.23437.125 0 .32813-.07812.64063-.07812.48437 0 .82812.375.82812 1.09375 0 .78125-.32812 1.10937-.79687 1.10937C1.375-.1875 1.09375-.5.9375-1c-.04687-.14062-.125-.20312-.26562-.20312-.17188 0-.46875.15624-.46875.4375m0 0"/><path id="g" d="M.15625-1.40625.25-1.23437h1.84375v.70312c0 .20313-.0625.25-.21875.26563l-.45312.03125V0h1.98437v-.23437l-.32812-.03126c-.14063-.01562-.1875-.0625-.1875-.26562v-.70312h.70312v-.40625h-.70312V-4.6875h-.67188C1.53125-3.65625.78125-2.5.15625-1.40625m.60938-.23437c.375-.70313.84375-1.46875 1.32812-2.26563v2.26563Zm0 0"/><path id="h" d="M.3125-.76562c0 .28124.42188.84375 1.48438.84375 1.21875 0 1.71875-.71875 1.71875-1.59375 0-.82813-.48438-1.5-1.5-1.5-.4375 0-.82813.1875-1.07813.39062l.14063-1.15625c.03124-.20312.0625-.23437.21874-.23437h1.79688l.21875-.59375-.04687-.07813h-2.5l-.0625.0625L.5625-2.29687l.23438.15625c.28124-.34375.5625-.5.90625-.5.46875 0 .90625.34375.90625 1.21875 0 .71875-.23438 1.23437-.78125 1.23437-.40625 0-.64063-.3125-.8125-.8125-.04688-.125-.125-.20312-.26563-.20312-.1875 0-.4375.17187-.4375.4375m0 0"/><path id="j" d="M.67188.07813 1.28125 0c.1875-.71875.29688-1.10937.46875-1.54687.21875-.54688.90625-1.60938 1.51563-1.60938.17187 0 .26562.10938.26562.28125 0 .0625-.01562.14063-.03125.20313l-.57812 2c-.03125.125-.0625.25-.0625.34375 0 .26562.14062.40625.42187.40625.48438 0 .89063-.46875 1.125-1l-.17187-.09376c-.125.23438-.4375.73438-.64063.73438-.07812 0-.10937-.0625-.10937-.14062 0-.0625.01562-.14063.04687-.25l.54688-1.84375c.0625-.15625.07812-.3125.07812-.45313 0-.32812-.15625-.5625-.5625-.5625-.65625 0-1.40625.73438-1.85937 1.57813h-.01563L2.5-5.17187l-.03125-.03125-1.26562.15625-.04688.17187.40625.04688c.125.01562.17188.03125.17188.14062 0 .04688-.01563.10938-.03126.20313Zm0 0"/><path id="i" d="M0 0h3.84375l.07813-.40625-.82813-.0625C2.85938-.48437 2.75-.60937 2.75-.84375c0-.07812.01563-.20312.04688-.32812l.875-3.89063h.03125c.64062 1.3125 1.32812 2.71875 2.1875 3.875C6.5625-.26562 7.17188.03125 8.25.0625l.6875.01563.09375-.42188c-.79687-.07812-1.125-.45312-1.64062-1.07812-.9375-1.17188-1.89063-2.875-2.46875-4.125 1.26562-1.0625 2.42187-2.03125 3.71875-2.92188.79687-.5625 1.125-.76562 2.26562-.84375l.0625-.39062h-3.5l-.0625.39062.54688.04688c.14062.01562.1875.07812.1875.17187 0 .07813-.07813.17188-.20313.29688l-4.15625 3.5625h-.0625l.75-3.3125c.10938-.4375.23438-.67188.59375-.70313l.78125-.0625.09375-.39062H2.09375l-.10937.39062.84375.0625c.23437.01563.34375.17188.34375.39063 0 .09375-.01563.20312-.04688.3125l-1.6875 7.375c-.10937.45312-.25.65625-.59375.67187l-.76562.09375Zm0 0"/><path id="k" d="M.5-.34375c0 .32813.42188.51563.64063.51563.73437 0 1.26562-.9375 1.51562-1.5625.32813-.8125.8125-2.57813 1.23438-4.57813h1.75l-.90625 4.23438c-.04688.29687-.07813.5625-.07813.79687 0 .71875.23438 1.10938.73438 1.10938 1.03125 0 1.8125-.78125 2.29687-1.96875l-.32812-.1875C7-1.26562 6.4375-.54687 6.125-.54687c-.17187 0-.20312-.17188-.20312-.42188 0-.15625.01562-.34375.03125-.53125l.95312-4.46875H8.125l.5625-1.07812c-.39062.09375-.98437.14062-1.64062.14062H3.0625c-.71875 0-1.70312.35938-2.23437 1.21875l.21874.25c.5625-.4375 1.29688-.53125 2.04688-.53125-.59375 2.45313-1.01562 4.6875-1.8125 4.8125C.92188-1.09375.5-.875.5-.34375m0 0"/><path id="o" d="M1.20313-3.95312c0 3.15625.71875 6.64062 3.70312 6.76562v-.42187c-1-.1875-2.57812-1.4375-2.57812-6.34375 0-4.89063 1.5-6.125 2.57812-6.35938v-.40625c-2.98437.10938-3.70312 3.59375-3.70312 6.76563m0 0"/><path id="p" d="M.84375 2.39063v.42187c2.96875-.125 3.6875-3.60937 3.6875-6.76562 0-3.17188-.71875-6.65625-3.6875-6.76563v.40625c1.0625.23438 2.5625 1.46875 2.5625 6.35938 0 4.90625-1.5625 6.15625-2.5625 6.34375m0 0"/><path id="z" d="M.59375-4c0 1.40625.46875 2.54688 1.20313 3.17188C2.60938-.10937 3.76563.20313 5.0625.20313c1.03125 0 2.17188-.23438 2.96875-.53125l.67188-2.84375c.125-.46875.20312-.67188.4375-.70313L9.75-3.92187l.09375-.40625H6.14063l-.07813.40625 1.04688.07812c.1875.01563.28125.10938.28125.32813 0 .09375-.01563.20312-.04688.34375l-.5 2.125c-.10937.40625-.28125.76562-1.75.76562-1.70312 0-2.9375-1.14062-2.9375-3.625 0-2.23437 1.07813-5.53125 4.45313-5.53125 1.82812 0 2.14062 1.07813 2.23437 2.40625h.42188l.5-2.20312C8.92188-9.6875 7.79688-9.9375 6.625-9.9375c-2.15625 0-3.71875.78125-4.70312 2.03125C1-6.71875.59375-5.25.59375-4m0 0"/><path id="C" d="m1.1875-3.04687.34375.15625c.3125-.67188.70313-1.28125 1.20313-1.28125.9375 0 3.26562 1.375 4.64062 1.375 1.23438 0 1.48438-1.35938 1.57813-2.09375l-.35938-.17188c-.26562.67188-.65625 1.32813-1.17187 1.32813-1.01563 0-3.42188-1.42188-4.78125-1.42188-.71875 0-1.35938 1.39063-1.45313 2.10938m0 0"/><path id="E" d="M.45313 1.34375c0 1.25 1.3125 2.04688 3.09375 2.04688 1.89062 0 3.40625-.8125 3.40625-2.34375 0-1.04688-.78125-1.8125-2.4375-2.20313C3.32813-1.4375 2.8125-1.625 2.8125-2.01562c0-.26563.26563-.46875.60938-.54688.28125.03125.54687.03125.76562.03125 1.95313 0 3.03125-1.04687 3.03125-2.5 0-.375-.10937-.73437-.28125-.96875l1.15625-.1875.48438-.875-.09375-.125-2.03125.5625c-.35938-.25-1.0625-.42187-1.75-.42187-2.29688 0-2.98438 1.57812-2.98438 2.57812 0 1.04688.78125 1.59375 1.1875 1.75-.42187.17188-1.29687.5-1.29687 1.0625 0 .5.60937.90625 1 1.0625C1.65625-.4375.45313.17188.45313 1.34375m1.29687-.125c0-1.01562.89063-1.48437 1.46875-1.57812.89063.125 2.54688.5 2.54688 1.67187 0 1.0625-.85938 1.59375-1.90625 1.59375-1.23438 0-2.10938-.67187-2.10938-1.6875m1.28125-5.45312c0-.875.45313-2.32813 1.78125-2.32813.42188 0 1.125.21875 1.125 1.1875 0 1.29688-.6875 2.35938-1.73437 2.35938-.75 0-1.17188-.51563-1.17188-1.21875m0 0"/><path id="F" d="M1.34375.17188 2.5625 0c.375-1.4375.59375-2.20312.95313-3.09375C3.92188-4.1875 5.3125-6.3125 6.54688-6.3125c.32812 0 .5.21875.5.57813 0 .125-.01563.25-.0625.40625L5.84375-1.34375c-.07812.25-.125.5-.125.6875 0 .51563.26563.82813.85938.82813.96875 0 1.75-.96875 2.23437-2.03125l-.34375-.1875c-.25.5-.875 1.48437-1.26562 1.48437-.17188 0-.23438-.10937-.23438-.28125 0-.125.03125-.29687.09375-.48437l1.10938-3.6875c.10937-.32813.14062-.625.14062-.92188 0-.65625-.3125-1.10937-1.10937-1.10937-1.32813 0-2.84375 1.45312-3.73438 3.14062H3.4375L5-10.35937l-.07812-.04688-2.51563.32813L2.3125-9.75l.8125.07813c.23438.03125.34375.07812.34375.29687 0 .09375-.01562.21875-.0625.39063Zm0 0"/><path id="G" d="M1.26563-3.75c.96875.35938 2.8125 1.75 4.53125 3.26563l.26562-.34375L4.95313-2h16.28124l-1.125 1.17188.3125.3125c1.59376-1.42188 3.42188-2.8125 4.46876-3.23438v-.42187c-.96876-.35938-2.79688-1.75-4.51563-3.26563l-.26562.32813 1.10937 1.1875H4.92188l1.14062-1.1875-.32812-.29688C4.14063-5.96875 2.3125-4.57812 1.26563-4.17187Zm1.92187-.21875 1.0625-1.125h17.64063l1.09374 1.15625-1.0625 1.10938H4.26563Zm0 0"/><path id="H" d="M.98438-3.9375c0 2.01563.98437 3.64063 3.29687 3.64063h2.95313v-.8125H4.28125C2.54688-1.10937 2-2.3125 1.85938-3.5625h4.0625v-.8125h-4.0625c.15624-1.25.67187-2.40625 2.42187-2.40625h2.95313v-.82812H4.28125c-2.32812 0-3.29687 1.65625-3.29687 3.67187m0 0"/><path id="I" d="M0 0h3.84375l.07813-.40625-.82813-.0625C2.85938-.48437 2.75-.59375 2.75-.82812c0-.09376.01563-.20313.04688-.34375l.79687-3.625h4.70313l-.82813 3.625c-.125.48437-.25.65625-.59375.67187l-.78125.09375L6.01563 0h3.84375l.09375-.40625-.82813-.0625c-.25-.01562-.35937-.125-.35937-.375q0-.11718.04687-.32812l1.6875-7.375c.125-.45313.21875-.67188.57813-.70313l.78125-.0625.09375-.39062H8.10938L8-9.3125l.84375.0625c.23438.01563.34375.15625.34375.39063 0 .09375-.01562.20312-.04687.3125L8.42188-5.3125h-4.6875l.73437-3.23437C4.57813-9 4.70313-9.21875 5.0625-9.25l.78125-.0625.09375-.39062H2.09375l-.10937.39062.84375.0625c.23437.01563.34375.15625.34375.39063 0 .09375-.01563.20312-.04688.3125l-1.6875 7.375c-.125.48437-.25.65625-.59375.67187l-.76562.09375Zm0 0"/><path id="J" d="M1.28125 2.8125h.9375l3.85938-13.53125h-.9375Zm0 0"/><path id="l" d="M.04688 0h2.78125l.07812-.29687-.5625-.04688c-.17187-.01562-.25-.09375-.25-.25 0-.07812.01563-.15625.03125-.26562l.57813-2.48438h3.09375l-.5625 2.48438c-.09375.34375-.17188.48437-.42188.5l-.53125.0625L4.21875 0H7l.07813-.29687-.5625-.04688c-.17188-.01562-.25-.09375-.25-.26562 0-.0625.03125-.14063.04687-.25L7.46875-5.9375c.09375-.32812.15625-.48437.40625-.51562l.53125-.03125.0625-.3125H5.6875l-.07812.3125.5625.03125c.17187.01562.25.09375.25.26562 0 .0625-.03125.15625-.04688.25L5.89063-3.75H2.79688l.48437-2.1875c.07813-.32812.17188-.48437.42188-.51562l.51562-.03125.07813-.3125H1.51563l-.07813.3125L2-6.45312c.15625.01562.23438.09375.23438.26562 0 .0625-.01563.15625-.03125.25L1.04688-.85937C.96875-.51562.875-.375.625-.35937l-.51562.0625Zm0 0"/><path id="m" d="M.79688-2.45312h5.46875v-.64063H.79688Zm0 0"/><path id="n" d="M1.0625 0h3.29688v-.29687L3.57813-.375C3.35938-.39062 3.25-.46875 3.25-.84375V-6.625l-.0625-.04687-2.10937.34375v.26562l.84375.10938c.1875.03125.25.10937.25.40625v4.70312c0 .375-.09375.45313-.32813.46875l-.78125.07813Zm0 0"/><path id="q" d="M.5 0h4.125v-.40625C3.1875-.5 3.15625-.51562 3.15625-1.29687v-2.6875h.78125c.64063 0 1.28125-.0625 1.79688-.1875C6.8125-4.45312 8.0625-5.20312 8.0625-6.95312c0-1.0625-.46875-1.8125-1.10937-2.20313-.67188-.42187-1.5625-.54687-2.54688-.54687H.5v.39062c1.23438.09375 1.26563.10938 1.26563.90625v7.10938C1.76563-.51562 1.73437-.5.5-.40625Zm2.65625-5.03125v-3.67187c0-.39063.14063-.53125 1.0625-.53125 1.4375 0 2.32813.84375 2.32813 2.35937 0 1.76563-1.15625 2.39063-2.35938 2.39063-.82812 0-1.03125-.03125-1.03125-.54688m0 0"/><path id="r" d="M.6875-1.82812c0 1.04687.70313 2 2.01563 2 .82812 0 1.64062-.54688 2.09375-.84375.1875.51562.4375.84375.92187.84375C6.25.17188 6.84375.01563 7.375-.25l-.07812-.32812c-.20313.04687-.51563.0625-.71875 0-.26563-.0625-.5-.3125-.5-1.20313V-5.1875c0-.8125-.17188-1.85937-2.29688-1.85937-1.57812 0-2.84375.8125-2.84375 1.59375 0 .45312.53125.65625.79688.65625.29687 0 .375-.14063.45312-.39063.3125-1.04687.875-1.375 1.4375-1.375s1.1875.28125 1.1875 1.40625v.57813c-.35937.35937-1.71875.71875-2.82812 1.07812C.96875-3.1875.6875-2.48437.6875-1.82812m1.42188-.1875c0-.65625.29687-1 1.09375-1.29688.5625-.21875 1.29687-.48437 1.60937-.67187V-2c0 1.14063-.875 1.42188-1.42187 1.42188-.85938 0-1.28125-.60938-1.28125-1.4375m0 0"/><path id="s" d="M.45313 0h3.70312v-.40625c-1.26562-.07812-1.32812-.10937-1.32812-.8125v-3.29687c0-1.07813.46875-1.4375.79687-1.4375.23438 0 .46875.07812.875.3125.09375.04687.20313.0625.28125.0625.34375 0 .64063-.35938.64063-.78125 0-.3125-.1875-.6875-.75-.6875-.5 0-.92188.29687-1.84375 1.10937l-.17188-1.10937-2.14062.35937v.34375l.53125.0625c.35937.0625.46875.125.46875.64063v4.42187c0 .70313-.07813.73438-1.0625.8125Zm0 0"/><path id="t" d="M.4375-6.3125h1.01563v4.875C1.45313 0 2.51563.17188 3 .17188c.71875 0 1.39063-.35938 1.79688-.625L4.6875-.75c-.34375.14063-.64062.1875-1 .1875-.46875 0-.92187-.34375-.92187-1.40625V-6.3125h1.8125v-.57812h-1.8125v-1.76563h-.40625l-.84375 1.76563H.4375Zm0 0"/><path id="u" d="M1.28125-9.1875c0 .51563.35938.875.875.875.5 0 .84375-.35937.84375-.875 0-.5-.34375-.84375-.84375-.84375-.51562 0-.875.34375-.875.84375M.45313 0H3.875v-.40625c-1-.07812-1.04687-.10937-1.04687-.8125v-5.73437l-.10938-.09375-2.20312.35937v.34375l.53125.0625c.35937.0625.46875.125.46875.64063v4.42187c0 .70313-.04688.73438-1.0625.8125Zm0 0"/><path id="v" d="M.6875-3.4375c0 2.26563 1.125 3.60938 3.375 3.60938S7.42188-1.17187 7.42188-3.4375 6.3125-7.04687 4.0625-7.04687.6875-5.70312.6875-3.4375m1.46875 0c0-1.9375.625-3.125 1.90625-3.125s1.90625 1.1875 1.90625 3.125-.625 3.10938-1.90625 3.10938S2.15625-1.5 2.15625-3.4375m0 0"/><path id="w" d="M.45313 0H3.875v-.40625c-1-.07812-1.04687-.10937-1.04687-.8125v-3.29687c0-.35938.01562-.53125.125-.75.29687-.5625.9375-1.01563 1.67187-1.01563.96875 0 1.48438.51563 1.48438 1.73438v3.32812c0 .70313-.04688.73438-1.0625.8125V0h3.4375v-.40625c-1-.07812-1.0625-.10937-1.0625-.8125V-4.8125c0-1.42187-.78125-2.23437-2.0625-2.23437-1.04688 0-1.6875.5-2.54688 1.07812l-.20312-1.07812-2.09375.35937v.34375l.53125.0625c.35937.0625.46875.125.46875.64063v4.42187c0 .70313-.04688.73438-1.0625.8125Zm0 0"/><path id="x" d="M.6875-3.29687C.6875-1.21875 1.78125.17188 3.625.17188c.76563 0 1.40625-.34375 2.17188-.96875v.6875L5.92188 0H8.1875v-.40625c-1-.07812-1.04687-.10937-1.04687-.8125v-9.125l-.10938-.0625-2.20312.34375v.35938l.53125.03125c.35937.04687.45312.125.45312.67187v2.29688c-.39062-.21875-.90625-.34375-1.5625-.34375-1.14062 0-2.01562.375-2.59375.96875-.59375.625-.96875 1.54687-.96875 2.78125m1.46875-.17188c0-1.8125.65625-3.09375 2.09375-3.09375.65625 0 1.1875.29688 1.4375.89063.125.23437.125.4375.125.8125v2.46875c0 .3125 0 .54687-.09375.79687-.28125.73438-.89062 1.01563-1.625 1.01563-1.28125 0-1.9375-1.28125-1.9375-2.89063m0 0"/><path id="y" d="M.6875-3.39062c0 2.21875.95313 3.5625 3.23438 3.5625 1.5625 0 2.35937-.875 2.73437-1.98438L6.25-2.03125c-.39062.82813-.9375 1.48438-2.03125 1.48438-1.75 0-2.09375-1.67188-2.0625-3.14063h4.04688c.29687 0 .54687-.07812.54687-.54687 0-.8125-.26562-2.8125-2.84375-2.8125C1.71875-7.04687.6875-5.5.6875-3.39062m1.48438-.84375c0-.57813.20312-2.32813 1.67187-2.32813 1.29688 0 1.4375 1.32813 1.4375 1.89063 0 .26562-.07812.4375-.46875.4375Zm0 0"/><path id="A" d="M.65625-2.34375.8125-.51562c.5.45312 1.35938.6875 2.17188.6875 1.67187 0 2.625-.89063 2.625-2.07813 0-1.25-.75-1.79687-2.20313-2.25-.57812-.17187-1.5-.46875-1.5-1.26562 0-.73438.5625-1.14063 1.26563-1.14063 1 0 1.46875.78125 1.57812 1.64063h.40625v-1.65625c-.46875-.34375-1.1875-.46875-1.8125-.46875C1.82813-7.04687.79688-6.32812.79688-5c0 1.15625.95312 1.6875 2.10937 2.04688.64063.1875 1.51563.5 1.51563 1.45312 0 .71875-.54688 1.17188-1.29688 1.17188-1.14062 0-1.78125-.82813-2.0625-2.01563Zm0 0"/><path id="B" d="M.28125 0h3.42188v-.40625c-1-.07812-1.04688-.10937-1.04688-.8125v-9.125l-.10937-.0625-2.1875.34375v.35938l.51562.03125c.35938.04687.45313.125.45313.67187v7.78125c0 .70313-.03126.73438-1.04688.8125Zm0 0"/><path id="D" d="M1.71875-9.54687c0 .29687.35938.54687.78125.76562l2.10938 1.17188.21875-.28125-1.65625-1.6875C2.75-10.01562 2.5-10.15625 2.25-10.15625c-.20312 0-.53125.32813-.53125.60938M.35938-6.34375l.53125.0625c.35937.0625.45312.125.45312.64063v3.70312c0 1.60938.95313 2.10938 2 2.10938 1.20313 0 2.17188-.8125 2.57813-1.01563L6.04688 0H8.3125v-.40625C7.32813-.48437 7.25-.51562 7.25-1.21875v-5.73437l-.10937-.09375-2.20313.35937v.34375l.54688.0625c.35937.0625.45312.125.45312.64063v3.15625c0 .39062-.04687.70312-.125.84375C5.48438-1 4.82813-.57812 4.09375-.57812c-.82812 0-1.42187-.53125-1.42187-1.625v-4.75l-.10938-.09375-2.20312.35937Zm0 0"/><clipPath id="a"><path d="M.0586 55H293v292.80078H.0586Zm0 0"/></clipPath></defs><path fill="#e5f2f2" stroke="#000" stroke-miterlimit="10" stroke-width=".19919" d="M251.17584 136.46094c-6.87891-39.01564-65.168-61.34768-130.19147-49.88283-65.02738 11.46485-112.16412 52.38674-105.2852 91.39848 6.8789 39.01564 65.168 61.35159 130.19537 49.88674 65.02347-11.46485 112.1602-52.38674 105.2813-91.40239Zm0 0"/><g clip-path="url(#a)"><path fill="none" stroke="#000" stroke-miterlimit="10" stroke-width=".39839" d="M287.18757 204.14066c0-79.23441-64.2305-143.46491-143.4649-143.46491-79.23442 0-143.46492 64.2305-143.46492 143.46491 0 79.23442 64.2305 143.46492 143.46491 143.46492s143.46491-64.2305 143.46491-143.46492Zm0 0"/></g><path fill="#e5f2f2" stroke="#000" stroke-miterlimit="10" stroke-width=".19919" d="M375.78918 84.49217c-11.46485-9.6211-32.68361-3.20313-47.39846 14.33204-14.71095 17.53125-17.34376 39.54689-5.87891 49.16799 11.46485 9.6172 32.6836 3.20312 47.39846-14.33204 14.71094-17.53516 17.34376-39.5469 5.8789-49.168Zm0 0"/><use xlink:href="#b" x="360.94331" y="97.04938"/><use xlink:href="#c" x="364.76722" y="99.07381"/><use xlink:href="#d" x="369.06349" y="97.04938"/><use xlink:href="#b" x="327.08194" y="108.05225"/><use xlink:href="#e" x="330.90735" y="110.07668"/><use xlink:href="#d" x="335.20213" y="108.05225"/><use xlink:href="#b" x="327.08194" y="143.61413"/><use xlink:href="#f" x="330.90735" y="145.63856"/><use xlink:href="#d" x="335.20213" y="143.61413"/><use xlink:href="#b" x="360.94331" y="154.69898"/><use xlink:href="#g" x="364.76722" y="156.64093"/><use xlink:href="#d" x="369.06349" y="154.69898"/><use xlink:href="#b" x="381.87035" y="125.85319"/><use xlink:href="#h" x="385.69576" y="127.79663"/><use xlink:href="#d" x="389.99054" y="125.85319"/><path fill="none" stroke="#000" stroke-miterlimit="10" stroke-width=".39839" d="M406.74232 124.4375c0-26.41017-21.41017-47.82034-47.82424-47.82034-26.41017 0-47.82034 21.41017-47.82034 47.82034 0 26.41407 21.41017 47.82424 47.82034 47.82424 26.41407 0 47.82424-21.41017 47.82424-47.82424Zm0 0"/><use xlink:href="#i" x="352.96957" y="129.25622"/><path fill="#cce5e5" stroke="#cce5e5" stroke-miterlimit="10" stroke-width=".39839" d="M162.85158 124.4375c0-19.3672-15.70314-35.06642-35.07033-35.06642S92.71092 105.0703 92.71092 124.4375c0 19.3711 15.70313 35.07033 35.07033 35.07033s35.07033-15.69923 35.07033-35.07033Zm0 0"/><path fill="none" stroke="#000" stroke-miterlimit="10" stroke-width=".19919" d="M127.78125 124.4375C160.23439 35.2773 335.80088.0976 368.1837 89.0742"/><path fill="none" stroke="#000" stroke-linecap="round" stroke-linejoin="round" stroke-miterlimit="10" stroke-width=".19919" d="M369.5 86.75c-1.03125.73437-1.3164 1.6289-1.28125 2.41797-.48047-.625-1.27344-1.1289-2.53516-1.02735"/><path fill="#cce5e5" stroke="#cce5e5" stroke-miterlimit="10" stroke-width=".39839" d="M242.55474 156.32033c0-19.3711-15.70313-35.07033-35.07033-35.07033s-35.07033 15.69922-35.07033 35.07033c0 19.3672 15.70313 35.07033 35.07033 35.07033s35.07033-15.70314 35.07033-35.07033Zm0 0"/><path fill="none" stroke="#000" stroke-miterlimit="10" stroke-width=".19919" d="M207.48441 156.32033c18.51173-50.8633 108.39849-106.91802 126.84381-56.24222"/><path fill="none" stroke="#000" stroke-linecap="round" stroke-linejoin="round" stroke-miterlimit="10" stroke-width=".19919" d="M335.64453 97.7539c-1.03125.73047-1.3164 1.62891-1.28125 2.41407-.48047-.625-1.27734-1.1289-2.53516-1.02735"/><path fill="#cce5e5" stroke="#cce5e5" stroke-miterlimit="10" stroke-width=".39839" d="M107.05858 180.2305c0-19.3672-15.69923-35.07033-35.07033-35.07033-19.3672 0-35.07033 15.70313-35.07033 35.07033s15.70313 35.07032 35.07033 35.07032c19.3711 0 35.07033-15.70313 35.07033-35.07032Zm0 0"/><path fill="none" stroke="#000" stroke-miterlimit="10" stroke-width=".19919" d="M71.98825 180.2305c35.5547-97.67974 226.85558-142.04695 262.33997-44.55471"/><path fill="none" stroke="#000" stroke-linecap="round" stroke-linejoin="round" stroke-miterlimit="10" stroke-width=".19919" d="M335.64453 133.35156c-1.03125.73438-1.3164 1.6289-1.28125 2.41797-.48047-.625-1.27734-1.1289-2.53516-1.02734"/><path fill="none" stroke="#000" stroke-dasharray="2.9879931276000002 2.9879931276000002" stroke-miterlimit="10" stroke-width=".39839" d="M162.85158 124.4375c0-19.3672-15.70314-35.06642-35.07033-35.06642S92.71092 105.0703 92.71092 124.4375c0 19.3711 15.70313 35.07033 35.07033 35.07033s35.07033-15.69923 35.07033-35.07033Zm0 0"/><use xlink:href="#b" x="126.75895" y="103.28861"/><use xlink:href="#c" x="130.58286" y="105.31303"/><use xlink:href="#j" x="134.87764" y="103.28861"/><use xlink:href="#c" x="139.28488" y="105.31303"/><use xlink:href="#b" x="100.02555" y="111.97514"/><use xlink:href="#c" x="103.85097" y="113.99956"/><use xlink:href="#j" x="108.14574" y="111.97514"/><use xlink:href="#e" x="112.55299" y="113.99956"/><use xlink:href="#b" x="100.02555" y="140.04215"/><use xlink:href="#c" x="103.85097" y="142.06657"/><use xlink:href="#j" x="108.14574" y="140.04215"/><use xlink:href="#f" x="112.55299" y="142.06657"/><use xlink:href="#b" x="126.75895" y="148.76967"/><use xlink:href="#c" x="130.58286" y="150.79409"/><use xlink:href="#j" x="134.87764" y="148.76967"/><use xlink:href="#g" x="139.28488" y="150.71161"/><use xlink:href="#b" x="143.28024" y="126.02914"/><use xlink:href="#c" x="147.10566" y="128.05356"/><use xlink:href="#j" x="151.40043" y="126.02914"/><use xlink:href="#h" x="155.80768" y="127.97108"/><path fill="none" stroke="#000" stroke-dasharray="2.9879931276000002 2.9879931276000002" stroke-miterlimit="10" stroke-width=".39839" d="M242.55474 156.32033c0-19.3711-15.70313-35.07033-35.07033-35.07033s-35.07033 15.69922-35.07033 35.07033c0 19.3672 15.70313 35.07033 35.07033 35.07033s35.07033-15.70314 35.07033-35.07033Zm0 0"/><use xlink:href="#b" x="206.46027" y="135.16954"/><use xlink:href="#e" x="210.28568" y="137.19396"/><use xlink:href="#j" x="214.58046" y="135.16954"/><use xlink:href="#c" x="218.9877" y="137.19396"/><use xlink:href="#b" x="179.72787" y="143.85606"/><use xlink:href="#e" x="183.55178" y="145.88049"/><use xlink:href="#j" x="187.84656" y="143.85606"/><use xlink:href="#e" x="192.25381" y="145.88049"/><use xlink:href="#b" x="179.72787" y="171.92208"/><use xlink:href="#e" x="183.55178" y="173.9465"/><use xlink:href="#j" x="187.84656" y="171.92208"/><use xlink:href="#f" x="192.25381" y="173.9465"/><use xlink:href="#b" x="206.46027" y="180.64959"/><use xlink:href="#e" x="210.28568" y="182.67402"/><use xlink:href="#j" x="214.58046" y="180.64959"/><use xlink:href="#g" x="218.9877" y="182.59154"/><use xlink:href="#b" x="222.98156" y="157.91007"/><use xlink:href="#e" x="226.80698" y="159.93449"/><use xlink:href="#j" x="231.10175" y="157.91007"/><use xlink:href="#h" x="235.509" y="159.85201"/><path fill="none" stroke="#000" stroke-dasharray="2.9879931276000002 2.9879931276000002" stroke-miterlimit="10" stroke-width=".39839" d="M107.05858 180.2305c0-19.3672-15.69923-35.07033-35.07033-35.07033-19.3672 0-35.07033 15.70313-35.07033 35.07033s15.70313 35.07032 35.07033 35.07032c19.3711 0 35.07033-15.70313 35.07033-35.07032Zm0 0"/><use xlink:href="#b" x="70.96782" y="159.03874"/><use xlink:href="#f" x="74.79173" y="161.06317"/><use xlink:href="#j" x="79.08651" y="159.03874"/><use xlink:href="#c" x="83.49376" y="161.06317"/><use xlink:href="#b" x="44.23443" y="167.72527"/><use xlink:href="#f" x="48.05984" y="169.7497"/><use xlink:href="#j" x="52.35462" y="167.72527"/><use xlink:href="#e" x="56.76186" y="169.7497"/><use xlink:href="#b" x="44.23443" y="195.83327"/><use xlink:href="#f" x="48.05984" y="197.8577"/><use xlink:href="#j" x="52.35462" y="195.83327"/><use xlink:href="#f" x="56.76186" y="197.8577"/><use xlink:href="#b" x="70.96782" y="204.5198"/><use xlink:href="#f" x="74.79173" y="206.54272"/><use xlink:href="#j" x="79.08651" y="204.5198"/><use xlink:href="#g" x="83.49376" y="206.46175"/><use xlink:href="#b" x="87.48912" y="181.77927"/><use xlink:href="#f" x="91.31303" y="183.8037"/><use xlink:href="#j" x="95.60931" y="181.77927"/><use xlink:href="#h" x="100.01656" y="183.72122"/><path fill="none" stroke="#000" stroke-dasharray="2.9879931276000002 2.9879931276000002" stroke-miterlimit="10" stroke-width=".39839" d="M234.58208 259.93366c0-19.3672-15.69923-35.07033-35.07033-35.07033-19.3672 0-35.06642 15.70313-35.06642 35.07033s15.69922 35.07033 35.06642 35.07033c19.3711 0 35.07033-15.70313 35.07033-35.07033Zm0 0"/><use xlink:href="#b" x="198.49053" y="238.78205"/><use xlink:href="#g" x="202.31445" y="240.724"/><use xlink:href="#j" x="206.60922" y="238.78205"/><use xlink:href="#c" x="211.01647" y="240.80648"/><use xlink:href="#b" x="171.75714" y="247.46858"/><use xlink:href="#g" x="175.58255" y="249.41053"/><use xlink:href="#j" x="179.87733" y="247.46858"/><use xlink:href="#e" x="184.28458" y="249.493"/><use xlink:href="#b" x="171.75714" y="275.53459"/><use xlink:href="#g" x="175.58255" y="277.47654"/><use xlink:href="#j" x="179.87733" y="275.53459"/><use xlink:href="#f" x="184.28458" y="277.55902"/><use xlink:href="#b" x="198.49053" y="284.3031"/><use xlink:href="#g" x="202.31445" y="286.24505"/><use xlink:href="#j" x="206.60922" y="284.3031"/><use xlink:href="#g" x="211.01647" y="286.24505"/><use xlink:href="#b" x="215.01183" y="261.52158"/><use xlink:href="#g" x="218.83574" y="263.46503"/><use xlink:href="#j" x="223.13202" y="261.52158"/><use xlink:href="#h" x="227.53927" y="263.46503"/><path fill="none" stroke="#000" stroke-dasharray="2.9879931276000002 2.9879931276000002" stroke-miterlimit="10" stroke-width=".39839" d="M138.9414 283.84383c0-19.3672-15.70312-35.07033-35.07032-35.07033-19.3711 0-35.07033 15.70313-35.07033 35.07033s15.69923 35.07033 35.07033 35.07033c19.3672 0 35.07033-15.70314 35.07033-35.07033Zm0 0"/><use xlink:href="#b" x="102.84775" y="262.69225"/><use xlink:href="#h" x="106.67316" y="264.63419"/><use xlink:href="#j" x="110.96794" y="262.69225"/><use xlink:href="#c" x="115.37519" y="264.71667"/><use xlink:href="#b" x="76.11536" y="271.37878"/><use xlink:href="#h" x="79.93927" y="273.32072"/><use xlink:href="#j" x="84.23555" y="271.37878"/><use xlink:href="#e" x="88.64279" y="273.4032"/><use xlink:href="#b" x="76.11536" y="299.44479"/><use xlink:href="#h" x="79.93927" y="301.38824"/><use xlink:href="#j" x="84.23555" y="299.44479"/><use xlink:href="#f" x="88.64279" y="301.46921"/><use xlink:href="#b" x="102.84775" y="308.1723"/><use xlink:href="#h" x="106.67316" y="310.11425"/><use xlink:href="#j" x="110.96794" y="308.1723"/><use xlink:href="#g" x="115.37519" y="310.11425"/><use xlink:href="#b" x="119.37005" y="285.43278"/><use xlink:href="#h" x="123.19396" y="287.37472"/><use xlink:href="#j" x="127.48874" y="285.43278"/><use xlink:href="#h" x="131.89598" y="287.37472"/><use xlink:href="#k" x="270.00818" y="62.5592"/><use xlink:href="#l" x="278.40429" y="65.84626"/><use xlink:href="#k" x="128.59342" y="208.82558"/><use xlink:href="#m" x="138.1562" y="202.84978"/><use xlink:href="#n" x="145.22567" y="202.84978"/><use xlink:href="#l" x="136.98953" y="212.11264"/><use xlink:href="#o" x="151.42293" y="208.82558"/><use xlink:href="#i" x="157.15977" y="208.82558"/><use xlink:href="#p" x="169.05178" y="208.82558"/><use xlink:href="#q" x="306.71874" y="310.26921"/><use xlink:href="#r" x="314.63678" y="310.26921"/><use xlink:href="#s" x="321.97218" y="310.26921"/><use xlink:href="#t" x="327.54469" y="310.26921"/><use xlink:href="#u" x="332.37022" y="310.26921"/><use xlink:href="#t" x="336.44876" y="310.26921"/><use xlink:href="#u" x="341.27428" y="310.26921"/><use xlink:href="#v" x="345.35282" y="310.26921"/><use xlink:href="#w" x="353.45015" y="310.26921"/><use xlink:href="#x" x="365.28239" y="310.26921"/><use xlink:href="#y" x="373.67851" y="310.26921"/><use xlink:href="#z" x="384.04723" y="310.26921"/><use xlink:href="#A" x="397.97077" y="310.26921"/><use xlink:href="#y" x="404.08111" y="310.26921"/><use xlink:href="#B" x="411.29699" y="310.26921"/><use xlink:href="#v" x="415.21119" y="310.26921"/><use xlink:href="#w" x="423.30851" y="310.26921"/><use xlink:href="#C" x="435.14069" y="310.26921"/><use xlink:href="#v" x="306.71874" y="328.19661"/><use xlink:href="#D" x="314.81606" y="328.19661"/><use xlink:href="#E" x="326.46961" y="328.19661"/><use xlink:href="#C" x="338.86957" y="328.19661"/><use xlink:href="#F" x="351.86712" y="328.19661"/><use xlink:href="#G" x="367.41936" y="328.19661"/><use xlink:href="#E" x="399.39033" y="328.19661"/><use xlink:href="#m" x="408.90116" y="322.22081"/><use xlink:href="#n" x="415.97063" y="322.22081"/><use xlink:href="#F" x="422.16938" y="328.19661"/><use xlink:href="#H" x="434.80838" y="328.19661"/><use xlink:href="#I" x="446.04304" y="328.19661"/><use xlink:href="#z" x="423.10962" y="160.27739"/><use xlink:href="#J" x="433.88115" y="160.27739"/><use xlink:href="#I" x="441.24642" y="160.27739"/></svg>