<svg xmlns="http://www.w3.org/2000/svg" xmlns:xlink="http://www.w3.org/1999/xlink" width="538.67" height="445.825" viewBox="0 0 538.67 445.825"><defs><path id="a" d="M.67188-.82812c0 .60937.5 1.07812 1.34375 1.07812C3.45313.25 4.25-1.1875 5.125-2.59375l.85938-1.39062h.04687l.375 1.65625C6.8125-.65625 7.1875.25 8.26563.25 9.8125.25 10.625-1.34375 11.25-2.625l-.54687-.28125c-.51563.9375-1.09375 2.0625-1.67188 2.0625-.40625 0-.5625-.48437-1.03125-2.35937l-.67187-2.75c.76562-1.34375 1.84375-3.03125 2.4375-3.03125.625 0 .65625.32812 1.28125.32812.46875 0 .89062-.4375.89062-1 0-.65625-.48437-.92187-1.07812-.92187C9.75-10.57812 8.8125-9.5625 8.0625-8.375l-.92187 1.42188h-.03125L6.25-10.48437l-.10937-.09375-3.46875 1.0625L2.71875-9 4.375-9.125c.32813 0 .48438.15625.6875 1.0625l.73438 3.04688-.57813 1c-.89062 1.54687-1.67187 2.65625-2.1875 2.65625-.60937 0-.76562-.51563-1.4375-.51563-.54687 0-.92187.53125-.92187 1.04688m0 0"/><path id="c" d="M0 3.9375C0 4.5.625 5.09375 1.54688 5.09375c1.79687 0 2.54687-1.32812 4.40625-4.53125.4375-.71875 1.70312-2.9375 3.01562-5.09375C10.17188-6.5 11.5-8.53125 11.5-9.39062c0-.73438-.23437-1.1875-.39062-1.1875-.40625 0-1.10938.1875-1.65625.54687 0 0-.0625 2.14063-.26563 2.89063-.34375 1.1875-1.5625 3.46875-2.95312 5.85937h-.07813C6-4.5 5.60938-8.9375 5.3125-10.48437l-.15625-.09375L1.60938-9.5625l.07812.53125 1.45313-.04687c.42187 0 .51562.35937.6875 1.4375.23437 1.64062.70312 5.6875.70312 7.375 0 .625-.03125 1.46875-.5 2.59375-.375.875-.92187 1.5-1.34375 1.5-.76562 0-.84375-1.15625-1.60937-1.15625C.53125 2.67188 0 3.34375 0 3.9375m0 0"/><path id="d" d="M2.78125 4.21875h1.23438v-20.3125H2.78125Zm0 0"/><path id="e" d="M2.28125 0h6.92188v-.60937L7.4375-.76563C6.98438-.8125 6.75-.96874 6.75-1.79686v-12.40625l-.125-.10938-4.34375.73438v.51562l1.96875.25c.35938.04688.5.20313.5.79688v10.21875c0 .82812-.20312.98437-.6875 1.03125l-1.78125.15624Zm0 0"/><path id="f" d="M1.79688-5.32812H13.375V-6.5625H1.79688Zm0 0"/><path id="g" d="M1.5625-2.26562c0 1.84375.96875 2.51562 2 2.51562C5.3125.25 7.4375-1.39062 9-4.01562h.07813L6.98438 5.09375l1.98437-.40625 3.73438-15.75h-.8125L11-10.10937c-.32812-.17188-1.07812-.46875-2.0625-.46875-5.23437 0-7.375 5.42187-7.375 8.3125m2.09375-.32813c0-2.0625 1.8125-7.25 5.3125-7.25.67188 0 1.14063.23438 1.45313.45313C9.90625-6.96875 9-4.8125 7.85938-3.29687 6.70313-1.76562 5.53125-.84375 4.65625-.84375c-.75 0-1-.76562-1-1.75m0 0"/><path id="l" d="M1.90625-5.9375c0 2.42188 1.76563 4.1875 4.20313 4.1875 2.35937 0 4.125-1.76562 4.125-4.1875 0-2.35937-1.76563-4.125-4.125-4.125-2.4375 0-4.20313 1.76563-4.20313 4.125m0 0"/><path id="m" d="M2.46875-.96875c0 .75.35938 1.21875 1.20313 1.21875 1.53125 0 2.6875-1.4375 3.40625-3.03125L6.5625-3.0625c-.375.73438-1.29687 2.21875-1.875 2.21875-.25 0-.34375-.17187-.34375-.4375 0-.20312.04688-.4375.10938-.71875l2.3125-8.46875-.10938-.10937L2.82813-10l-.14063.51563 1.21875.125c.375.01562.53125.125.53125.42187 0 .125-.03125.3125-.09375.53125L2.57813-1.8125c-.09375.3125-.10938.57813-.10938.84375m2.70313-12.70312c0 .78125.54687 1.1875 1.17187 1.1875.82813 0 1.34375-.5625 1.34375-1.40625 0-.82813-.5625-1.17188-1.14062-1.17188-.90625 0-1.375.71875-1.375 1.39063m0 0"/><path id="n" d="M.84375-3.1875c0 1.75.84375 3.03125 3.5625 3.35938.8125.14062 1.75.1875 1.75.71875C6.15625 2.0625 5 2.95313 4.5 3.45313l.26563.40625c1.03125-.64063 3.14062-2.20313 3.14062-3.95313 0-.9375-.64062-1.14062-2.42187-1.51562C3.8125-1.96875 2.6875-2.95312 2.6875-4.39062c0-1.125.65625-3.90625 4.01563-3.90625.4375 0 .6875.14062 1 .14062.40625 0 .60937-.29687.60937-.8125 0-.23437-.10937-.32812-.35937-.32812-.45313 0-.45313.125-1.07813.125-1.1875 0-1.4375-.75-1.4375-1.45313 0-1.14062.40625-2.01562 1.54688-2.75.29687.0625.67187.09375 1 .09375.95312 0 2.01562-.1875 2.01562-1.32812 0-.17188-.14062-.29688-.59375-.29688-.89062 0-1.59375.09375-2.79687.92188-.6875-.4375-1.07813-.60938-1.07813-.9375 0-.1875.07813-.34375.25-.57813l-.34375-.15625c-.70312.21875-1.34375.48438-1.34375.98438 0 .53125.71875.75 1.95313 1.10937-1.4375 1.0625-2.32813 1.6875-2.32813 2.82813 0 .76562.53125 1.64062 2.375 1.96875C1.25-7.70312.84375-5.73437.84375-3.1875m0 0"/><path id="h" d="m.51563 5.01563 1.09375.57812L11-12.42187 9.90625-13Zm0 0"/><path id="i" d="M2.21875-2.4375c-.8125 1.54688-.64062 3.07813 1.60938 4.625.65625.5 1.45312.96875 1.21875 1.45313-.54688 1.03125-1.96875 1.29687-2.65625 1.5l.0625.48437c1.20312-.09375 3.79687-.5 4.60937-2.04687.42188-.84375-.0625-1.3125-1.45312-2.46875-1.32813-1.09375-1.85938-2.5-1.1875-3.76563.51562-1 2.375-3.15625 5.35937-1.60937.375.20312.54688.4375.8125.59375.35938.1875.6875.01562.92188-.4375.10937-.20313.0625-.35938-.17188-.46875-.39062-.20313-.45312-.09375-1.01562-.39063-1.04688-.54687-.92188-1.3125-.59375-1.9375.53125-1.01562 1.29687-1.60937 2.625-1.73437.23437.1875.5625.39062.84375.54687.84375.4375 1.89062.76563 2.42187-.23437.07813-.15625 0-.34375-.40625-.54688-.79687-.40625-1.4375-.65625-2.90625-.48437-.40625-.70313-.67187-1.03125-.51562-1.32813.07812-.17187.21875-.26562.48437-.39062l-.21875-.29688c-.73437-.125-1.4375-.1875-1.65625.25-.25.46875.28125 1 1.21875 1.89063-1.76562.26562-2.84375.42187-3.375 1.4375-.34375.67187-.28125 1.70312 1.20313 2.82812C4.67188-6.25 3.39063-4.70312 2.21875-2.4375m0 0"/><path id="j" d="M4.04688-3.89062 14.3125 1.45313l.57813-1.10938L4.625-5Zm0 0"/><path id="k" d="M2.4375-1.29687c-.85937 1.64062-.29687 2.6875.60938 3.15625 1.5625.8125 4.1875.34375 6.79687-1.26563l.0625.03125-6.07812 7.10938 1.95312.5625 10.59375-12.25-.71875-.375-1.23437.4375c-.20313-.3125-.73438-.92188-1.60938-1.375C8.17188-7.6875 3.76563-3.85937 2.4375-1.29687m2.01563.6875C5.40625-2.4375 9.39063-6.20312 12.5-4.59375c.59375.3125.90625.73438 1.09375 1.07813C12-1.60937 10.20313-.10937 8.48438.70313c-1.71875.82812-3.1875 1.09375-3.96875.70312C3.85938 1.04688 4 .26563 4.45313-.60937m0 0"/><clipPath id="b"><path d="M191 31h1v414.60156h-1Zm0 0"/></clipPath></defs><path fill="none" stroke="#000" stroke-miterlimit="10" stroke-width=".39826" d="M.19527 254.17969h509.53528"/><path fill="none" stroke="#000" stroke-linecap="round" stroke-linejoin="round" stroke-miterlimit="10" stroke-width=".39826" d="M507.85547 251.78906c.3789 1.4336 1.22265 2.11328 2.07422 2.39063-.85157.28125-1.69531.95703-2.07422 2.39062"/><use xlink:href="#a" x="518.03764" y="259.34418"/><g clip-path="url(#b)"><path fill="none" stroke="#000" stroke-miterlimit="10" stroke-width=".39826" d="M191.42188 445.40239V31.48432"/></g><path fill="none" stroke="#000" stroke-linecap="round" stroke-linejoin="round" stroke-miterlimit="10" stroke-width=".39826" d="M189.03125 33.35547c1.4336-.3789 2.10938-1.22266 2.39063-2.07031.27734.84765.95312 1.6914 2.38671 2.0703"/><use xlink:href="#c" x="185.02465" y="18.08898"/><path fill="none" stroke="#FF7F00" stroke-miterlimit="10" stroke-width=".79652" d="M318.90238 254.17969h127.4844"/><g fill="#FF7F00"><use xlink:href="#d" x="352.54702" y="278.62837"/><use xlink:href="#e" x="359.33489" y="278.62837"/></g><use xlink:href="#f" x="373.5827" y="278.62837" fill="#FF7F00"/><use xlink:href="#g" x="391.84051" y="278.62837" fill="#FF7F00"/><use xlink:href="#d" x="405.9315" y="278.62837" fill="#FF7F00"/><path fill="none" stroke="#007F7F" stroke-miterlimit="10" stroke-width=".79652" d="m281.56643 164.03513 164.82035 90.14456"/><g fill="#007F7F"><use xlink:href="#h" x="349.34099" y="190.07662"/><use xlink:href="#i" x="355.36159" y="193.21065"/></g><use xlink:href="#j" x="368.13798" y="199.86143" fill="#007F7F"/><use xlink:href="#k" x="384.332" y="208.29126" fill="#007F7F"/><use xlink:href="#h" x="396.83021" y="214.79723" fill="#007F7F"/><use xlink:href="#l" x="185.36044" y="131.72936"/><use xlink:href="#m" x="199.33488" y="118.53844"/><use xlink:href="#l" x="312.84135" y="259.21026"/><use xlink:href="#e" x="326.81579" y="276.40973"/><path fill="none" stroke="#000" stroke-miterlimit="10" stroke-width=".39826" d="M318.90238 254.17969c0-70.40627-57.07424-127.4805-127.4805-127.4805-70.41018 0-127.48441 57.07423-127.48441 127.4805 0 70.41017 57.07423 127.4844 127.4844 127.4844 70.40627 0 127.4805-57.07423 127.4805-127.4844Zm0 0"/><use xlink:href="#l" x="440.32225" y="259.21026"/><use xlink:href="#g" x="439.47077" y="273.16172"/><use xlink:href="#l" x="275.50322" y="169.06749"/><use xlink:href="#n" x="289.47766" y="152.26978"/></svg>