<svg xmlns="http://www.w3.org/2000/svg" xmlns:xlink="http://www.w3.org/1999/xlink" width="274.469pt" height="276.023pt" viewBox="0 0 274.469 276.023"><defs><path id="b" d="M.45313-.54687c0 .39062.32812.70312.89062.70312.95313 0 1.48438-.95312 2.0625-1.89062l.5625-.92188H4l.26563 1.10938C4.53125-.4375 4.78125.15624 5.5.15624c1.01563 0 1.5625-1.04687 1.96875-1.90625L7.125-1.9375c-.34375.625-.73437 1.375-1.125 1.375-.26562 0-.375-.3125-.6875-1.5625L4.875-3.95312c.5-.90625 1.21875-2.01563 1.625-2.01563s.42188.21875.84375.21875c.3125 0 .59375-.29687.59375-.67187 0-.42188-.32812-.60938-.71875-.60938-.73437 0-1.35937.67188-1.85937 1.46875L4.75-4.60937h-.03125l-.5625-2.35938-.07812-.0625-2.3125.70313.03124.34375 1.10938-.07813c.21875 0 .32813.10938.45313.70313l.5 2.03125-.39063.65625C2.875-1.64062 2.35938-.90625 2.01563-.90625 1.60938-.90625 1.5-1.25 1.0625-1.25c-.35937 0-.60937.35938-.60937.70313m0 0"/><path id="d" d="M0 2.625c0 .375.42188.75 1.03125.75 1.1875 0 1.6875-.875 2.92188-3 .29687-.48437 1.14062-1.95312 2-3.39062.8125-1.29688 1.6875-2.65625 1.6875-3.21875 0-.5-.15625-.79688-.25-.79688-.26563 0-.75.125-1.10938.35938 0 0-.04687 1.4375-.17187 1.92187C5.875-3.95312 5.0625-2.4375 4.14063-.84375h-.04688c-.10937-2.15625-.375-5.09375-.5625-6.125l-.10937-.0625-2.34375.67188L1.10937-6l.96876-.03125c.29687 0 .34375.23438.46875.95313.14062 1.09375.46875 3.78125.46875 4.90625 0 .40625-.01563.96875-.32813 1.71875-.26562.57812-.625 1-.90625 1-.5 0-.5625-.78125-1.0625-.78125C.35938 1.76563 0 2.21875 0 2.625m0 0"/><path id="h" d="M1.26563-3.95312c0 1.60937 1.17187 2.79687 2.79687 2.79687 1.5625 0 2.75-1.1875 2.75-2.79687 0-1.5625-1.1875-2.73438-2.75-2.73438-1.625 0-2.79687 1.17188-2.79687 2.73438m0 0"/><path id="k" d="M1.1875-3.54687h7.70313v-.8125H1.1875Zm0 0"/><path id="i" d="M.70313-1.04687c0 .57812.26562 1.15625.9375 1.15625 1.09375 0 1.9375-1.1875 2.5-2.17188h.03125l-.3125 1.04688q-.09375.32812-.09375.5625 0 .5625.5625.5625c.79687 0 1.35937-.6875 1.71875-1.4375l-.25-.15626c-.20313.375-.60938 1.03126-.875 1.03126-.125 0-.15625-.07813-.15625-.1875 0-.09376.03125-.21876.0625-.34375l1.01562-3.84375h-.95312l-.03125.10937c-.17188-.10937-.46875-.20312-.71875-.20312-2.34375 0-3.4375 2.57812-3.4375 3.875m1.09375-.03126c0-1.0625.9375-3.46874 2.375-3.46874.23437 0 .42187.07812.5625.20312-.17188.71875-.51563 1.6875-1.03125 2.46875-.53125.8125-1.09375 1.42188-1.51563 1.42188-.29687 0-.39062-.28125-.39062-.625m0 0"/><path id="j" d="M.28125-.10937.39063 0h4.15625l.34375-1.39062-.28125-.0625c-.23438.53125-.40625.59375-.8125.59375h-2.5c.15624-.46875.6875-1.125 1.625-1.75 1-.67188 1.70312-1.125 1.70312-2.20313 0-1.375-.92187-1.84375-2.01562-1.84375-1.32813 0-2.09375.76563-2.09375 1.35938 0 .35937.40625.53125.625.53125.1875 0 .28124-.10938.3125-.29688.15624-.6875.53125-1.23437 1.09375-1.23437.6875 0 .90625.59375.90625 1.3125 0 .9375-.42188 1.5625-1.34375 2.35937C.85938-1.54687.42188-.84375.28124-.10937m0 0"/><clipPath id="a"><path d="M.21875 147H255v1H.21875Zm0 0"/></clipPath><clipPath id="c"><path d="M127 20h1v255.05078h-1Zm0 0"/></clipPath><clipPath id="e"><path d="M.21875 62H255v2H.21875Zm0 0"/></clipPath><clipPath id="f"><path d="M.21875 232H255v1H.21875Zm0 0"/></clipPath><clipPath id="g"><path d="M.21875 63H255v170H.21875Zm0 0"/></clipPath></defs><g clip-path="url(#a)"><path fill="none" stroke="#000" stroke-miterlimit="10" stroke-width=".39709" d="M.41796 147.74219H254.2422"/></g><path fill="none" stroke="#000" stroke-linecap="round" stroke-linejoin="round" stroke-miterlimit="10" stroke-width=".39709" d="M252.375 145.35937c.375 1.4297 1.21875 2.10547 2.0625 2.38282-.84375.27734-1.6875.95312-2.0625 2.38281"/><use xlink:href="#b" x="259.89733" y="151.17391"/><g clip-path="url(#c)"><path fill="none" stroke="#000" stroke-miterlimit="10" stroke-width=".39709" d="M127.52734 274.85157V21.02733"/></g><path fill="none" stroke="#000" stroke-linecap="round" stroke-linejoin="round" stroke-miterlimit="10" stroke-width=".39709" d="M125.14453 22.89453c1.42969-.3789 2.10547-1.21875 2.38281-2.0664.27735.84765.95313 1.6875 2.38282 2.0664"/><use xlink:href="#d" x="123.27591" y="11.99155"/><g clip-path="url(#e)"><path fill="none" stroke="#000" stroke-miterlimit="10" stroke-width=".39709" d="M.41796 63h254.21877"/></g><g clip-path="url(#f)"><path fill="none" stroke="#000" stroke-miterlimit="10" stroke-width=".39709" d="M.41796 232.48438h254.21877"/></g><g clip-path="url(#g)"><path fill="#b2b2ff" fill-opacity=".3" d="M.41797 232.48438V63h254.21875v169.48438Zm0 0"/></g><use xlink:href="#h" x="123.49912" y="66.34517"/><use xlink:href="#i" x="134.57442" y="46.51436"/><path fill="none" stroke="#000" stroke-miterlimit="10" stroke-width=".8191" d="M134.57422 48.55469h6.8086"/><use xlink:href="#j" x="135.33522" y="57.74112"/><use xlink:href="#h" x="123.49912" y="235.82429"/><use xlink:href="#k" x="132.78824" y="248.64889"/><use xlink:href="#i" x="144.64128" y="242.66258"/><path fill="none" stroke="#000" stroke-miterlimit="10" stroke-width=".8191" d="M144.64062 244.70313h6.8086"/><use xlink:href="#j" x="145.40209" y="253.89084"/></svg>