<svg xmlns="http://www.w3.org/2000/svg" xmlns:xlink="http://www.w3.org/1999/xlink" width="411.111" height="413.936" viewBox="0 0 411.111 413.936"><defs><path id="a" d="M.67188-.82812C.67188-.21876 1.15625.25 2.01563.25 3.45313.25 4.25-1.1875 5.125-2.59375l.84375-1.39062h.04688l.39062 1.65625C6.79688-.65625 7.1875.25 8.25.25c1.54688 0 2.35938-1.59375 2.98438-2.875l-.54688-.28125c-.5.9375-1.09375 2.0625-1.67187 2.0625-.40625 0-.5625-.46875-1.03125-2.35937l-.67188-2.75C8.07813-7.29687 9.15625-8.96875 9.75-8.96875c.625 0 .65625.32813 1.28125.32813.46875 0 .89063-.4375.89063-1 0-.65625-.48438-.92188-1.0625-.92188-1.125 0-2.0625 1.01563-2.79688 2.1875l-.92187 1.4375h-.04688L6.25-10.46875l-.125-.09375-3.46875 1.04688L2.70313-9l1.65625-.10937c.34375 0 .5.15625.70312 1.04687l.73438 3.04688L5.21875-4c-.90625 1.53125-1.6875 2.64063-2.20312 2.64063-.59375 0-.75-.51563-1.42188-.51563-.54687 0-.92187.53125-.92187 1.04688m0 0"/><path id="c" d="M0 3.9375C0 4.5.625 5.07813 1.54688 5.07813c1.78125 0 2.54687-1.3125 4.40625-4.51563.42187-.71875 1.70312-2.9375 3-5.07812 1.20312-1.96875 2.53125-4.01563 2.53125-4.85938 0-.73437-.23438-1.1875-.39063-1.1875-.40625 0-1.10937.1875-1.65625.53125 0 0-.0625 2.15625-.26562 2.89063-.32813 1.1875-1.5625 3.46875-2.95313 5.85937h-.0625C6-4.5 5.59375-8.92187 5.29688-10.46875l-.15625-.09375-3.53125 1.01563.0625.53125L3.125-9.0625c.4375 0 .51563.35938.70313 1.4375.21875 1.625.6875 5.67188.6875 7.35938 0 .625-.01563 1.46875-.48438 2.59375-.39062.875-.92187 1.5-1.34375 1.5-.76562 0-.85937-1.17188-1.60937-1.17188C.53125 2.65625 0 3.32813 0 3.9375m0 0"/><path id="d" d="M1.90625-5.92187c0 2.40625 1.76563 4.17187 4.20313 4.17187 2.34375 0 4.10937-1.76562 4.10937-4.17187 0-2.35938-1.76562-4.125-4.10937-4.125-2.4375 0-4.20313 1.76562-4.20313 4.125m0 0"/><path id="g" d="M1.79688-5.32812h11.5625V-6.5625H1.79688Zm0 0"/><path id="e" d="M1.04688-1.57812c0 .875.40625 1.75 1.42187 1.75 1.64063 0 2.92188-1.79688 3.76563-3.26563h.03125L5.8125-1.51562c-.09375.32812-.15625.60937-.15625.84375 0 .5625.28125.84375.85938.84375C7.70313.17188 8.54688-.85937 9.07813-2l-.375-.21875c-.29688.54688-.92188 1.53125-1.3125 1.53125-.17188 0-.21875-.10937-.21875-.28125 0-.125.03125-.3125.07812-.5l1.53125-5.79687H7.35938l-.0625.17187c-.25-.17187-.6875-.29687-1.07813-.29687-3.51562 0-5.17187 3.875-5.17187 5.8125M2.70313-1.625c0-1.59375 1.42187-5.20312 3.57812-5.20312.34375 0 .625.10937.84375.29687C6.85938-5.45312 6.34375-4 5.57813-2.8125 4.78125-1.59375 3.9375-.6875 3.28125-.6875c-.45312 0-.57812-.40625-.57812-.9375m0 0"/><path id="f" d="M.42188-.17187.59375 0h6.23438l.53125-2.09375-.4375-.07812c-.34375.78125-.60938.89062-1.20313.89062H1.95313c.23437-.70312 1.01562-1.6875 2.45312-2.65625 1.48438-1 2.54688-1.6875 2.54688-3.29687C6.95313-9.28125 5.5625-10 3.9375-10 1.92188-10 .78125-8.84375.78125-7.95312c0 .53125.60938.78125.92188.78125.28124 0 .42187-.15625.48437-.4375.23438-1.03125.78125-1.84375 1.64063-1.84375 1.04687 0 1.375.89062 1.375 1.95312 0 1.42188-.64063 2.35938-2.03125 3.54688-1.875 1.625-2.53125 2.6875-2.75 3.78125m0 0"/><clipPath id="b"><path d="M190 31h2v382.45703h-2Zm0 0"/></clipPath></defs><path fill="none" stroke="#000" stroke-miterlimit="10" stroke-width=".39764" d="M.19536 222.33203H381.6562"/><path fill="none" stroke="#000" stroke-linecap="round" stroke-linejoin="round" stroke-miterlimit="10" stroke-width=".39764" d="M379.78516 219.94531c.3789 1.4336 1.21875 2.10938 2.0703 2.38672-.85155.27734-1.6914.95313-2.0703 2.38672"/><use xlink:href="#a" x="389.95275" y="227.48863"/><g clip-path="url(#b)"><path fill="none" stroke="#000" stroke-miterlimit="10" stroke-width=".39764" d="M191.125 413.26167V31.80083"/></g><path fill="none" stroke="#000" stroke-linecap="round" stroke-linejoin="round" stroke-miterlimit="10" stroke-width=".39764" d="M188.73828 33.67187c1.4336-.3789 2.10938-1.21875 2.38672-2.0703.27734.85155.95313 1.6914 2.38672 2.0703"/><use xlink:href="#c" x="184.73852" y="18.42771"/><path fill="none" stroke="#000" stroke-miterlimit="10" stroke-width=".39764" d="M.19536 95.0469h381.85928M.19536 349.61716h381.85928"/><path fill="#B2B2FF" fill-opacity=".3" d="M.19531 349.61719V95.04688H382.0547v254.5703Zm0 0"/><use xlink:href="#d" x="185.07379" y="100.07116"/><use xlink:href="#e" x="201.71181" y="70.28133"/><path fill="none" stroke="#000" stroke-miterlimit="10" stroke-width="1.23034" d="M201.71094 73.34766h9.5664"/><use xlink:href="#f" x="202.52455" y="87.14686"/><use xlink:href="#d" x="185.07379" y="354.63867"/><use xlink:href="#g" x="199.02662" y="373.90102"/><use xlink:href="#e" x="216.83062" y="364.90921"/><path fill="none" stroke="#000" stroke-miterlimit="10" stroke-width="1.23034" d="M216.83203 367.97266h9.5664"/><use xlink:href="#f" x="217.64561" y="381.77474"/></svg>