<svg xmlns="http://www.w3.org/2000/svg" xmlns:xlink="http://www.w3.org/1999/xlink" width="373.168" height="388.919" viewBox="0 0 373.168 388.919"><defs><path id="a" d="M1.90625-5.92187c0 2.40625 1.76563 4.17187 4.20313 4.17187 2.34375 0 4.10937-1.76562 4.10937-4.17187 0-2.34375-1.76562-4.125-4.10937-4.125-2.4375 0-4.20313 1.78125-4.20313 4.125m0 0"/></defs><use xlink:href="#a" x="352.78245" y="199.44039"/><use xlink:href="#a" x="220.88053" y="17.88917"/><use xlink:href="#a" x="7.45438" y="87.23656"/><use xlink:href="#a" x="7.45438" y="311.64423"/><use xlink:href="#a" x="220.88053" y="380.99162"/><path fill="#66CEF5" fill-opacity=".2" stroke="#000" stroke-miterlimit="10" stroke-width=".39761" d="m358.83586 194.41797-131.9062-181.5507-213.4257 69.34762v224.41007l213.4257 69.34762 131.9062-181.55461"/><use xlink:href="#a" x="286.81852" y="108.67476"/><use xlink:href="#a" x="114.17245" y="52.57883"/><use xlink:href="#a" x="7.47134" y="199.44039"/><use xlink:href="#a" x="114.17245" y="346.30196"/><use xlink:href="#a" x="286.80755" y="290.20603"/><path fill="#66CEF5" fill-opacity=".2" stroke="#000" stroke-miterlimit="10" stroke-width=".39761" d="M292.87104 103.65238 120.22268 47.55475 13.51959 194.41797l106.70309 146.86322 172.63664-56.09373.01172-181.53508"/><use xlink:href="#a" x="200.49099" y="80.63927"/><use xlink:href="#a" x="60.83237" y="126.0171"/><use xlink:href="#a" x="60.83237" y="272.86369"/><use xlink:href="#a" x="200.48601" y="318.24152"/><use xlink:href="#a" x="286.79258" y="199.44538"/><path fill="#66CEF5" fill-opacity=".2" stroke="#000" stroke-miterlimit="10" stroke-width=".39761" d="m206.54295 75.61724-139.6601 45.37888v146.8476l139.6523 45.37889 86.30855-118.79683-86.30075-118.80854"/><use xlink:href="#a" x="130.66567" y="103.33866"/><use xlink:href="#a" x="60.84335" y="199.44039"/><use xlink:href="#a" x="130.66268" y="295.54213"/><use xlink:href="#a" x="243.63081" y="258.83697"/><use xlink:href="#a" x="243.63081" y="140.0548"/><path fill="#66CEF5" fill-opacity=".2" stroke="#000" stroke-miterlimit="10" stroke-width=".39761" d="m136.71486 98.31645-69.8242 96.10152 69.8203 96.10543 112.9726-36.70702v-118.7812l-112.9687-36.71873"/><use xlink:href="#a" x="95.76149" y="151.39452"/><use xlink:href="#a" x="95.7605" y="247.48627"/><use xlink:href="#a" x="187.14375" y="277.18107"/><use xlink:href="#a" x="243.62183" y="199.44538"/><use xlink:href="#a" x="187.14675" y="121.7107"/><path fill="#66CEF5" fill-opacity=".2" stroke="#000" stroke-miterlimit="10" stroke-width=".39761" d="m101.81253 146.37502-.0039 96.0898 91.38667 29.6953 56.47654-77.73434-56.47263-77.73825-91.38668 29.68749"/><use xlink:href="#a" x="95.76748" y="199.44039"/><use xlink:href="#a" x="141.45462" y="262.32718"/><use xlink:href="#a" x="215.3778" y="238.30874"/><use xlink:href="#a" x="215.3788" y="160.58203"/><use xlink:href="#a" x="141.45961" y="136.56159"/><path fill="#66CEF5" fill-opacity=".2" stroke="#000" stroke-miterlimit="10" stroke-width=".39761" d="m101.81643 194.41797 45.68748 62.8906 73.92576-24.01952v-77.72653l-73.91794-24.02343-45.6953 62.87888"/><use xlink:href="#a" x="118.61554" y="230.8803"/><use xlink:href="#a" x="178.41422" y="250.31297"/><use xlink:href="#a" x="215.37281" y="199.44538"/><use xlink:href="#a" x="178.41721" y="148.5778"/><use xlink:href="#a" x="118.62252" y="168.00448"/><path fill="#66CEF5" fill-opacity=".2" stroke="#000" stroke-miterlimit="10" stroke-width=".39761" d="m124.66408 225.85936 59.80076 19.43359 36.95701-50.86717-36.9531-50.87107-59.79686 19.42968-.00781 62.87497"/><use xlink:href="#a" x="148.51587" y="240.59165"/><use xlink:href="#a" x="196.88902" y="224.87668"/><use xlink:href="#a" x="196.89102" y="174.01408"/><use xlink:href="#a" x="148.52186" y="158.29513"/><use xlink:href="#a" x="118.62552" y="199.44039"/><path fill="#66CEF5" fill-opacity=".2" stroke="#000" stroke-miterlimit="10" stroke-width=".39761" d="m154.56641 235.5703 48.37498-15.71484V168.9922l-48.37107-15.71875-29.89452 41.14452 29.89061 41.15233"/><use xlink:href="#a" x="172.70195" y="232.73017"/><use xlink:href="#a" x="196.88703" y="199.44538"/><use xlink:href="#a" x="172.70494" y="166.1586"/><use xlink:href="#a" x="133.57718" y="178.87026"/><use xlink:href="#a" x="133.57519" y="220.01153"/><path fill="#66CEF5" fill-opacity=".2" stroke="#000" stroke-miterlimit="10" stroke-width=".39761" d="m178.75 227.71092 24.18749-33.28514-24.18359-33.28905-39.12889 12.71093v41.14452L178.75 227.71092"/><use xlink:href="#a" x="184.79199" y="216.08628"/><use xlink:href="#a" x="184.79299" y="182.80349"/><use xlink:href="#a" x="153.14156" y="172.51742"/><use xlink:href="#a" x="133.57918" y="199.44139"/><use xlink:href="#a" x="153.13857" y="226.36636"/><path fill="#66CEF5" fill-opacity=".2" stroke="#000" stroke-miterlimit="10" stroke-width=".39761" d="M190.84374 211.0664v-33.28514l-31.65233-10.28516-19.5625 26.92578 19.5586 26.92577 31.65623-10.28125"/><use xlink:href="#a" x="184.79" y="199.44439"/><use xlink:href="#a" x="168.96728" y="177.66295"/><use xlink:href="#a" x="143.36237" y="185.9804"/><use xlink:href="#a" x="143.36037" y="212.90238"/><use xlink:href="#a" x="168.96329" y="221.22283"/><path fill="#66CEF5" fill-opacity=".2" stroke="#000" stroke-miterlimit="10" stroke-width=".39761" d="m190.83983 194.42578-15.8242-21.78515-25.60156 8.32031-.0039 26.92187 25.60155 8.3203 15.82811-21.77733"/></svg>