<svg xmlns="http://www.w3.org/2000/svg" xmlns:xlink="http://www.w3.org/1999/xlink" width="473.955" height="476.93" viewBox="0 0 473.955 476.93"><defs><path id="c" d="M.21875 0h10.98438l1.07812-3.70312h-.625c-1.07812 2.60937-2.01562 2.96875-4.625 2.96875-2.48437 0-2.625-.3125-2.625-.875 0-.23438.07813-.54688.17188-.96875l1.0625-4.60938h2.76562c1.5625 0 1.85938.3125 1.85938 1.23438 0 .17187 0 .34375-.03125.57812h.625l1-4.39062h-.65625c-.53125 1.45312-.76563 1.78125-2.625 1.78125h-2.75l1.1875-5.23438c.10937-.51562.25-.625.60937-.625h2.53125c2.0625 0 2.48438.53125 2.48438 1.67188 0 .51562-.07813 1.10937-.07813 1.10937h.64063l.78125-3.5H3.34375l-.15625.60938 1.26563.07812c.35937.03125.51562.1875.51562.51563 0 .14062-.01562.29687-.0625.5L2.39063-1.75c-.17188.71875-.35938.96875-.85938 1.01563l-1.1875.125Zm0 0"/><path id="h" d="M.67188-3.90625C.67188-1.5 1.5.26563 4.09375.26563c3.85938 0 5.51563-3.89063 6.42188-7.92188.23437-1.23437.4375-2.53125.4375-3.71875 0-2.34375-.76563-4.25-3.40625-4.25-5.03125 0-6.875 7.51563-6.875 11.71875m1.90625.75c0-1.45312.32812-3.1875.57812-4.39062h5.26563c-.53125 2.48437-1.70313 7.1875-4.1875 7.1875-1.28125 0-1.65625-1.23438-1.65625-2.79688m.76562-5.15625c.375-1.79687 1.51563-6.60937 4.04688-6.60937 1.32812 0 1.70312 1.29687 1.70312 2.82812 0 1.35938-.3125 2.90625-.48437 3.78125Zm0 0"/><path id="i" d="M1.90625-5.9375c0 2.42188 1.76563 4.1875 4.20313 4.1875 2.35937 0 4.125-1.76562 4.125-4.1875 0-2.35937-1.76563-4.125-4.125-4.125-2.4375 0-4.20313 1.76563-4.20313 4.125m0 0"/><path id="j" d="M.67188-.82812c0 .60937.5 1.07812 1.34375 1.07812C3.45313.25 4.25-1.1875 5.125-2.59375l.85938-1.39062h.04687l.375 1.65625C6.8125-.65625 7.1875.25 8.26563.25 9.8125.25 10.625-1.34375 11.25-2.625l-.54687-.28125c-.51563.9375-1.09375 2.0625-1.67188 2.0625-.40625 0-.5625-.48437-1.03125-2.35937l-.67187-2.75c.76562-1.34375 1.84375-3.03125 2.4375-3.03125.625 0 .65625.32812 1.28125.32812.46875 0 .89062-.4375.89062-1 0-.65625-.48437-.92187-1.07812-.92187C9.75-10.57812 8.8125-9.5625 8.0625-8.375l-.92187 1.42188h-.03125L6.25-10.48437l-.10937-.09375-3.46875 1.0625L2.71875-9 4.375-9.125c.32813 0 .48438.15625.6875 1.0625l.73438 3.04688-.57813 1c-.89062 1.54687-1.67187 2.65625-2.1875 2.65625-.60937 0-.76562-.51563-1.4375-.51563-.54687 0-.92187.53125-.92187 1.04688m0 0"/><path id="k" d="M-.40625 0h4.75l.14063-.60937L3.3125-.71875c-.26562-.01562-.375-.15625-.375-.35937 0-.10938.04688-.26563.10938-.42188.6875-1.34375 1.35937-2.71875 2.15625-4.125h4.71875l.51562 4.34375s-.10937.51563-.5625.5625l-1.10937.10938L8.65625 0h5.17188l.125-.60937-.79688-.0625c-.65625-.0625-.75-.35938-.85937-1.23438L10.75-14.5625h-1.5L5.71875-8.35937C4.64063-6.46875 2.89063-3.34375 2.10938-2.07812 1.4375-.98437 1.07813-.76562.42188-.6875l-.6875.07813ZM5.625-6.4375l3.42188-6.17187.76562 6.17187Zm0 0"/><path id="l" d="M1.48438-5.92187c0 2.3125.84375 4.26562 2.76562 5.07812l-.57812 2.20313 1.1875.04687.54687-1.9375c.3125.0625.64063.07813 1.03125.07813h4.40625v-1.20313H6.4375c-.25 0-.5-.03125-.70312-.04687l.98437-3.625H8.875V-6.5625H7.0625l.98438-3.60937h2.79687v-1.23438H8.375l.54688-1.875H7.64063l-.51563 1.875h-.6875c-3.5 0-4.95312 2.46875-4.95312 5.48438m1.3125.59375h2.67187l-.875 3.26562c-1.20312-.625-1.64062-1.95312-1.79687-3.26562m0-1.23438c.29687-1.89062.75-3.59375 4.01562-3.60937L5.79688-6.5625Zm0 0"/><path id="p" d="M1.8125-5.9375c0 4.75 1.07813 9.96875 5.53125 10.15625v-.64062C5.84375 3.29688 3.5 1.4375 3.5-5.9375c0-7.32812 2.23438-9.1875 3.84375-9.51562v-.64063C2.89063-15.90625 1.8125-10.6875 1.8125-5.9375m0 0"/><path id="q" d="M1.125 0h3.78125v-5.92187h1.32813L9.64063 0h3.82812L10-6.09375c1.875-.57812 3.01563-2.4375 3.01563-4.17187 0-2.4375-1.85938-4.32813-4.40625-4.32813H1.125Zm1.04688-1.04687v-12.48438h1.6875v12.48438Zm2.73437-5.92188v-6.5625h3.75v6.5625Zm2.57813 1.04688h1.6875l2.6875 4.875h-1.6875Zm2.21875-1.1875v-6.32813c1.40625.375 2.3125 1.875 2.3125 3.17188 0 1.34375-1.01563 2.9375-2.3125 3.15625m0 0"/><path id="r" d="M1.25 3.57813v.64062C5.71875 4.03125 6.79688-1.1875 6.79688-5.9375S5.71875-15.90625 1.25-16.09375v.64063c1.625.32812 3.85938 2.1875 3.85938 9.51562 0 7.375-2.35938 9.23438-3.85938 9.51563m0 0"/><path id="d" d="M1.1875-3.67187h8.21875v-.96875H1.1875Zm0 0"/><path id="e" d="M1.59375 0h4.95313v-.45312L5.35938-.5625C5.03125-.59375 4.875-.70312 4.875-1.25v-8.70312l-.09375-.07813-3.17187.54688v.39062l1.28125.17188c.28125.04687.375.15625.375.60937V-1.25c0 .54688-.14063.65625-.48438.6875l-1.1875.10938Zm0 0"/><path id="o" d="M.40625-1.5625c0 .60938.96875 1.73438 3.20313 1.73438 2.1875 0 3.5625-1.0625 3.5625-2.95313 0-2-1.75-2.53125-2.5-2.60937v-.0625C5.46875-5.59375 6.75-6.1875 6.75-7.625c0-1.71875-1.42187-2.40625-2.98437-2.40625-1.89063 0-2.98438 1.0625-2.98438 1.8125 0 .5.57813.76563.82813.76563.21874 0 .34375-.14063.4375-.35938.32812-1.03125.82812-1.65625 1.625-1.65625 1.09375 0 1.35937 1.03125 1.35937 1.8125s-.25 2-1.45312 2c-.67188 0-1.10938-.15625-1.32813-.15625s-.3125.17188-.3125.45313.09375.45312.3125.45312.65625-.15625 1.32813-.15625c1.125 0 1.82812.9375 1.82812 2.34375C5.40625-1.01562 4.625-.375 3.625-.375c-.89062 0-1.5-.67187-1.82812-1.64062-.09376-.28125-.25-.4375-.48438-.4375-.32812 0-.90625.3125-.90625.89062m0 0"/><path id="m" d="M1.04688-4.32812 1.25-.9375c.92188.875 2.6875 1.25 4.17188 1.25 3.71875 0 5.20312-2.125 5.20312-4.28125 0-2.48437-1.6875-3.67187-4.15625-4.5625l-.6875-.25c-1.40625-.54687-2.57812-1.4375-2.57812-2.6875 0-1.54687.92187-2.6875 2.6875-2.6875 1.8125 0 2.82812 1.03125 3.15625 3.15625h.65625v-2.95312c-.71875-.5625-2.125-.95313-3.5625-.95313-2.57813 0-4.85938 1.3125-4.85938 4.07813 0 2.21875 1.76563 3.35937 3.98438 4.15625l.375.15625c.92187.35937 2.9375 1.29687 2.9375 3.17187 0 1.8125-1.15625 2.92188-3.04688 2.92188-1.96875 0-3.26562-1.54688-3.8125-3.90625Zm0 0"/><path id="n" d="M1.01563-7.28125c0 2.35938.64062 4.29688 1.78125 5.5625C3.98438-.40625 5.71875.3125 8.01563.3125c2.3125 0 4.03125-.71875 5.21875-2.03125 1.15625-1.26562 1.79687-3.20312 1.79687-5.5625s-.64062-4.29687-1.79687-5.5625c-1.1875-1.3125-2.90625-2.0625-5.21875-2.0625-2.29688 0-4.03125.75-5.21875 2.0625-1.14063 1.26563-1.78125 3.20313-1.78125 5.5625m2.34375 0c0-3.09375.92187-6.875 4.65625-6.875 3.75 0 4.67187 3.78125 4.67187 6.875S11.76563-.42187 8.01563-.42187c-3.73438 0-4.65625-3.76563-4.65625-6.85938m0 0"/><clipPath id="a"><path d="M90 353h383.89844v1H90Zm0 0"/></clipPath><clipPath id="b"><path d="M471 351h2.89844v6H471Zm0 0"/></clipPath><clipPath id="f"><path d="M26 323h160v153.85938H26Zm0 0"/></clipPath><clipPath id="g"><path d="M31 473h5v3.85938h-5Zm0 0"/></clipPath></defs><g clip-path="url(#a)"><path fill="none" stroke="#000" stroke-miterlimit="10" stroke-width=".39844" d="M91.07814 353.73828h382.22647"/></g><g clip-path="url(#b)"><path fill="none" stroke="#000" stroke-linecap="round" stroke-linejoin="round" stroke-miterlimit="10" stroke-width=".39844" d="M471.42969 351.34766c.3789 1.43359 1.22265 2.11328 2.07422 2.39062-.85157.27735-1.69532.95703-2.07422 2.39063"/></g><path fill="none" stroke="#000" stroke-miterlimit="10" stroke-width=".39844" d="M154.84766 417.5078V35.28133"/><path fill="none" stroke="#000" stroke-linecap="round" stroke-linejoin="round" stroke-miterlimit="10" stroke-width=".39844" d="M152.45703 37.15625c1.4336-.3789 2.11328-1.22266 2.39063-2.07422.27734.85156.95703 1.69531 2.39062 2.07422"/><use xlink:href="#c" x="138.12601" y="22.03777"/><use xlink:href="#d" x="151.66452" y="26.96904"/><use xlink:href="#e" x="162.27019" y="26.96904"/><g clip-path="url(#f)"><path fill="none" stroke="#000" stroke-miterlimit="10" stroke-width=".39844" d="M179.39843 329.1875 32.37113 476.21482"/></g><g clip-path="url(#g)"><path fill="none" stroke="#000" stroke-linecap="round" stroke-linejoin="round" stroke-miterlimit="10" stroke-width=".39844" d="M35.38672 476.57812c-1.28125-.74609-2.35938-.6289-3.15625-.22265.40625-.80078.52344-1.875-.22656-3.15625"/></g><path fill="none" stroke="#007F7F" stroke-dasharray="2.9883816755000003 2.9883816755000003" stroke-miterlimit="10" stroke-width=".39844" d="M105.75392 147.75005c70.42967 0 149.49996-21.98046 176.61714-49.09764 27.11328-27.11328-8-49.09374-78.42967-49.09374S54.44143 71.53913 27.32425 98.65241c-27.11327 27.11718 8 49.09764 78.42967 49.09764Zm0 0"/><path fill="none" stroke="#007F7F" stroke-miterlimit="10" stroke-width=".39844" d="m141.7461 122.82818 2.4453-.17187 2.45704-.20313 2.47265-.23437 2.48047-.26563 2.48438-.29297 2.48047-.32812 2.48437-.35547 2.47656-.38672 2.46875-.41406 2.45313-.44531 2.4414-.46875 2.42188-.5 2.39843-.52344 2.375-.55078 2.34375-.57813 2.3164-.60156 2.28126-.625 2.24218-.64453 2.20703-.66797 2.16016-.6914 2.11328-.71094 2.0664-.72656 2.01563-.75 1.58984-.6172"/><path fill="none" stroke="#007F7F" stroke-linecap="round" stroke-linejoin="round" stroke-miterlimit="10" stroke-width=".39843" d="M194.8086 109.52344c.87109 1.19922 1.90624 1.52734 2.79687 1.47656-.6914.57031-1.23047 1.50781-1.0625 2.98047"/><use xlink:href="#h" x="173.70479" y="136.49597" fill="#007F7F"/><path fill="none" stroke="#000" stroke-miterlimit="10" stroke-width=".39844" d="m154.84766 98.6524-26.20312 48.34765m26.20312-48.34765 85.88279 24.54688m-85.88279 230.539L128.64454 147.0274"/><use xlink:href="#i" x="122.58129" y="152.06068" fill="#FF7F00"/><use xlink:href="#j" x="107.88345" y="138.86362" fill="#FF7F00"/><path fill="none" stroke="#000" stroke-dasharray="2.9883816755000003 2.9883816755000003" stroke-miterlimit="10" stroke-width=".39844" d="m154.84766 353.73828 85.88279-230.51166"/><use xlink:href="#i" x="234.66484" y="128.26118" fill="#FF7F00"/><path fill="none" stroke="#000" stroke-dasharray="2.9883816755000003 2.9883816755000003" stroke-miterlimit="10" stroke-width=".39844" d="M240.73045 123.22662v255.05462"/><path fill="none" stroke="#000" stroke-miterlimit="10" stroke-width=".39844" d="m154.84766 353.73828 85.88279 24.54296"/><use xlink:href="#i" x="234.66484" y="383.31474" fill="#FF7F00"/><use xlink:href="#k" x="248.64579" y="400.76918" fill="#FF7F00"/><use xlink:href="#j" x="263.99845" y="400.76918" fill="#FF7F00"/><use xlink:href="#k" x="230.1575" y="441.5192"/><use xlink:href="#l" x="249.85822" y="441.5192"/><use xlink:href="#m" x="266.73263" y="441.5192"/><use xlink:href="#n" x="278.11826" y="441.5192"/><use xlink:href="#o" x="294.16511" y="446.44822"/><use xlink:href="#p" x="303.46524" y="441.5192"/><use xlink:href="#q" x="312.0717" y="441.5192"/><use xlink:href="#r" x="326.01237" y="441.5192"/></svg>