<svg xmlns="http://www.w3.org/2000/svg" xmlns:xlink="http://www.w3.org/1999/xlink" width="383.075" height="419.293" viewBox="0 0 383.075 419.293"><defs><path id="c" d="M.46875-2.76562C.46875-1.0625 1.0625.1875 2.95313.1875 5.65625.1875 6.8125-2.35937 7.5-5.25c.20313-.89062.34375-1.8125.34375-2.64062 0-1.65625-.5625-3.01563-2.48437-3.01563-3.4375 0-4.89063 4.84375-4.89063 8.14063m1.51563.60937c0-1.01562.25-2.25.42187-3.09375h3.45313C5.48438-3.51562 4.70313-.28125 3.0625-.28125c-.82812 0-1.07812-.82812-1.07812-1.875m.54687-3.6875c.26563-1.23437 1.04688-4.54687 2.71875-4.54687.84375 0 1.10938.85937 1.10938 1.875 0 .95312-.23438 2.0625-.35938 2.67187Zm0 0"/><path id="d" d="M.42188-.17187.59375 0h6.23438l.53125-2.09375-.4375-.07812c-.34375.78125-.60938.89062-1.20313.89062H1.95313c.23437-.70312 1.01562-1.6875 2.45312-2.65625 1.48438-1 2.54688-1.6875 2.54688-3.29687C6.95313-9.28125 5.5625-10 3.9375-10 1.92188-10 .78125-8.84375.78125-7.95312c0 .53125.60938.78125.92188.78125.28124 0 .42187-.15625.48437-.4375.23438-1.03125.78125-1.84375 1.64063-1.84375 1.04687 0 1.375.89062 1.375 1.95312 0 1.42188-.64063 2.35938-2.03125 3.54688-1.875 1.625-2.53125 2.6875-2.75 3.78125m0 0"/><path id="e" d="M1.90625-5.92187c0 2.40625 1.76563 4.17187 4.20313 4.17187 2.34375 0 4.10937-1.76562 4.10937-4.17187 0-2.34375-1.76562-4.125-4.10937-4.125-2.4375 0-4.20313 1.78125-4.20313 4.125m0 0"/><path id="f" d="M.67188-.82812C.67188-.21876 1.15625.25 2.01563.25 3.4375.25 4.25-1.1875 5.125-2.59375l.84375-1.39062h.04688l.375 1.65625C6.79688-.64062 7.17188.25 8.25.25c1.54688 0 2.34375-1.59375 2.96875-2.85937l-.53125-.29688c-.51562.9375-1.09375 2.0625-1.67187 2.0625-.40625 0-.5625-.46875-1.03125-2.35937l-.67188-2.75C8.07813-7.29687 9.14063-8.96875 9.75-8.96875c.625 0 .64063.34375 1.26563.34375.48437 0 .90625-.45312.90625-1.01562 0-.64063-.5-.90625-1.07813-.90625-1.125 0-2.0625 1-2.79687 2.1875L7.125-6.9375h-.03125l-.85937-3.53125-.10938-.07812L2.65625-9.5l.04688.51563 1.65625-.10938c.34375 0 .5.15625.6875 1.04688l.75 3.03125L5.20313-4c-.89063 1.54688-1.67188 2.64063-2.1875 2.64063-.59375 0-.75-.51563-1.42188-.51563-.54687 0-.92187.53125-.92187 1.04688m0 0"/><path id="g" d="M-.40625 0h4.75l.125-.60937L3.3125-.71875c-.26562-.01562-.39062-.15625-.39062-.35937 0-.10938.04687-.26563.125-.42188.6875-1.34375 1.35937-2.70312 2.14062-4.10937h4.71875l.51563 4.32812s-.10938.51563-.5625.5625L8.75-.60937 8.625 0h5.17188l.14062-.60937-.8125-.0625c-.65625-.0625-.73437-.35938-.84375-1.23438l-1.54687-12.625h-1.5l-3.53125 6.1875c-1.07813 1.875-2.8125 5.01563-3.59375 6.26563C1.4375-.98437 1.07813-.76562.42188-.6875l-.6875.07813Zm6.01563-6.42187 3.42187-6.17188.76563 6.17188Zm0 0"/><path id="h" d="M1.46875-5.90625c0 2.3125.85938 4.25 2.78125 5.0625l-.57812 2.20313 1.1875.04687.53125-1.9375c.3125.0625.64062.07813 1.03125.07813h4.40625v-1.20313H6.42188c-.25 0-.5-.01562-.70313-.04687l.98438-3.625h2.15625v-1.21875h-1.8125l.98437-3.60938h2.79688V-11.375H8.35938l.54687-1.89062H7.625L7.10938-11.375h-.6875c-3.5 0-4.95313 2.45313-4.95313 5.46875m1.32813.57813h2.65625l-.875 3.26562C3.375-2.6875 2.95313-4 2.79688-5.32812m0-1.21875c.28125-1.875.73437-3.57813 4-3.60938l-1 3.60938Zm0 0"/><path id="k" d="M1.8125-5.92187c0 4.73437 1.07813 9.95312 5.51563 10.125v-.625c-1.5-.29688-3.84375-2.14063-3.84375-9.5 0-7.3125 2.23437-9.17188 3.84375-9.5v-.625c-4.4375.17187-5.51563 5.375-5.51563 10.125m0 0"/><path id="l" d="M1.125 0h3.76563v-5.90625h1.32812L9.60938 0h3.82812L9.96875-6.07812c1.875-.57813 3.01563-2.4375 3.01563-4.15625 0-2.4375-1.84375-4.32813-4.39063-4.32813H1.125Zm1.04688-1.04687V-13.5h1.67187v12.45313Zm2.71875-5.90625V-13.5H8.625v6.54688Zm2.57812 1.04687h1.67188l2.6875 4.85938h-1.67188Zm2.21875-1.1875v-6.32812c1.40625.39062 2.29688 1.89062 2.29688 3.1875 0 1.32812-1 2.92187-2.29688 3.14062m0 0"/><path id="m" d="M1.25 3.57813v.625c4.45313-.17188 5.53125-5.39063 5.53125-10.125 0-4.75-1.07812-9.95313-5.53125-10.125v.625c1.60938.32812 3.84375 2.1875 3.84375 9.5 0 7.35937-2.34375 9.20312-3.84375 9.5m0 0"/><path id="i" d="M1.04688-4.3125 1.25-.9375c.92188.875 2.6875 1.25 4.15625 1.25 3.71875 0 5.1875-2.125 5.1875-4.26562 0-2.48438-1.67187-3.67188-4.125-4.5625l-.70312-.25c-1.40625-.53125-2.5625-1.4375-2.5625-2.6875 0-1.53125.90625-2.67188 2.67187-2.67188 1.8125 0 2.82813 1.01563 3.15625 3.14063h.65625v-2.95313c-.71875-.54687-2.125-.9375-3.5625-.9375-2.5625 0-4.84375 1.29688-4.84375 4.07813 0 2.20312 1.76563 3.34375 3.96875 4.14062L5.64063-6.5c.90625.34375 2.92187 1.29688 2.92187 3.17188 0 1.8125-1.15625 2.90625-3.04687 2.90625-1.95313 0-3.25-1.54688-3.79688-3.89063Zm0 0"/><path id="j" d="M1-7.26562c0 2.34375.65625 4.29687 1.79688 5.54687C3.98438-.40625 5.70313.3125 8 .3125c2.3125 0 4.03125-.71875 5.21875-2.03125C14.35938-2.96875 15-4.92187 15-7.26562s-.64062-4.29688-1.78125-5.54688C12.03125-14.125 10.3125-14.875 8-14.875c-2.29687 0-4.01562.75-5.20312 2.0625C1.65625-11.5625 1-9.60937 1-7.26562m2.35938 0c0-3.09375.90625-6.85938 4.64062-6.85938s4.65625 3.76563 4.65625 6.85938c0 3.07812-.92187 6.84375-4.65625 6.84375S3.35938-4.1875 3.35938-7.26562m0 0"/><clipPath id="a"><path d="M63 .15234h2V383h-2Zm0 0"/></clipPath><clipPath id="b"><path d="M61 .15234h6V3h-6Zm0 0"/></clipPath></defs><path fill="none" stroke="#000" stroke-miterlimit="10" stroke-width=".39754" d="M.19923 318.48047h381.36322"/><path fill="none" stroke="#000" stroke-linecap="round" stroke-linejoin="round" stroke-miterlimit="10" stroke-width=".39754" d="M379.6914 316.09375c.37891 1.4336 1.21876 2.10938 2.06641 2.38672-.84765.27734-1.6875.95312-2.0664 2.38672"/><g clip-path="url(#a)"><path fill="none" stroke="#000" stroke-miterlimit="10" stroke-width=".39754" d="M63.82422 382.10546V.74614"/></g><g clip-path="url(#b)"><path fill="none" stroke="#000" stroke-linecap="round" stroke-linejoin="round" stroke-miterlimit="10" stroke-width=".39754" d="M61.4414 2.61328c1.4297-.3789 2.10548-1.21875 2.38282-2.0664.27734.84765.95312 1.6875 2.38672 2.0664"/></g><path fill="none" stroke="#000" stroke-dasharray="2.9816269197 2.9816269197" stroke-miterlimit="10" stroke-width=".39754" d="M302.957 231.44142 108.01562 67.86332"/><path fill="none" stroke="#007F7F" stroke-miterlimit="10" stroke-width=".39754" d="m63.82422 318.48047 204.49606-243.7031"/><use xlink:href="#c" x="278.8983" y="50.02069" fill="#007F7F"/><path fill="none" stroke="#007F7F" stroke-miterlimit="10" stroke-width="1.23003" d="M278.89844 53.08203h8.32812"/><use xlink:href="#d" x="279.09582" y="66.87973" fill="#007F7F"/><path fill="none" stroke="#000" stroke-miterlimit="10" stroke-width=".39754" d="M63.82422 318.48047 302.957 231.44142"/><use xlink:href="#e" x="296.90607" y="236.46374" fill="#FF7F00"/><use xlink:href="#f" x="310.85539" y="236.59742" fill="#FF7F00"/><path fill="none" stroke="#000" stroke-miterlimit="10" stroke-width=".39754" d="m63.82422 318.48047 44.1914-250.61715"/><use xlink:href="#e" x="101.96379" y="72.88773" fill="#FF7F00"/><use xlink:href="#g" x="115.91311" y="59.72152" fill="#FF7F00"/><use xlink:href="#f" x="131.23104" y="59.72152" fill="#FF7F00"/><use xlink:href="#g" x="138.96445" y="406.06222"/><use xlink:href="#h" x="158.6206" y="406.06222"/><use xlink:href="#i" x="175.45683" y="406.06222"/><use xlink:href="#j" x="186.8167" y="406.06222"/><use xlink:href="#d" x="202.82724" y="410.98234"/><use xlink:href="#k" x="212.10409" y="406.06222"/><use xlink:href="#l" x="220.69108" y="406.06222"/><use xlink:href="#m" x="234.6002" y="406.06222"/></svg>