<svg xmlns="http://www.w3.org/2000/svg" xmlns:xlink="http://www.w3.org/1999/xlink" width="229.821pt" height="108.54pt" viewBox="0 0 229.821 108.54"><defs><path id="a" d="M.15625 0h4.04688l.09375-.40625L3.25-.46875c-.26562-.01562-.35937-.14062-.35937-.34375 0-.09375.01562-.1875.04687-.29687l.76563-3.45313H5.5625c1.03125 0 1.21875.1875 1.21875.78125 0 .125 0 .25-.01562.40625h.42187l.65625-2.9375h-.42187c-.35938.98438-.51563 1.20313-1.75 1.20313H3.82813l.82812-3.65625c.09375-.35938.15625-.42188.42188-.42188h1.70312c1.375 0 1.64063.35938 1.64063 1.09375 0 .35938-.04688.73438-.04688.73438h.4375l.51563-2.3125H2.21875l-.09375.40625.82813.07812c.25.01563.34375.125.34375.35938 0 .0625-.01563.17187-.04688.28125l-1.65625 7.4375c-.10937.40625-.23437.60937-.57812.64062l-.79688.0625Zm0 0"/><path id="b" d="M.15625 0H7.4375l.71875-2.45312h-.42187C7.01563-.73437 6.39063-.48437 4.67188-.48437c-1.65625 0-1.73438-.21875-1.73438-.59375 0-.14063.03125-.34375.09375-.625L3.75-4.78125h1.82813c1.04687 0 1.23437.21875 1.23437.82813 0 .10937 0 .23437-.01562.39062h.42187L7.875-6.48437h-.4375c-.35937.96875-.5 1.1875-1.73437 1.1875H3.875l.78125-3.48438c.07813-.34375.15625-.40625.40625-.40625h1.67188c1.375 0 1.65625.35938 1.65625 1.10938 0 .34375-.04688.73437-.04688.73437h.42188l.51562-2.32812h-7.0625l-.10937.40625.84375.0625c.25.01562.34375.10937.34375.34375q0 .11719-.04688.32812l-1.65625 7.375c-.125.46875-.23437.64063-.57812.67188l-.79688.07812Zm0 0"/><path id="c" d="M1.28125 2.79688h.9375L6.04688-10.6875h-.9375Zm0 0"/><path id="d" d="M1.64063-.9375c0 .65625.28124 1.09375 1.0625 1.09375 1.34375 0 2.8125-1.46875 3.65625-3.09375H6.375l-.45312 1.59375c-.07813.28125-.125.53125-.125.73438 0 .48437.25.76562.76562.76562 1.01563 0 1.84375-.9375 2.32813-1.98437l-.32813-.20313C8.28125-1.5625 7.65625-.5625 7.28125-.5625c-.1875 0-.26562-.125-.26562-.3125 0-.125.03125-.26562.07812-.4375l1.5-5.70312-1.25.15625c-.39062 1.4375-.64062 2.17187-.98437 3.01562-.625 1.42188-1.84375 3.28125-3 3.28125-.29688 0-.4375-.1875-.4375-.54687 0-.1875.01562-.40625.09375-.67188l1.34375-5.17187-.07813-.0625-2.54687.375-.07813.34375.875.07812c.20313.01563.28125.10938.28125.26563 0 .10937-.03125.23437-.07812.40625l-.96875 3.6875c-.07813.32812-.125.64062-.125.92187m0 0"/><path id="e" d="M1.25 1.95313h.65625v-9.4375H1.25Zm0 0"/><path id="f" d="M.125 0h2.9375l.0625-.29687-.6875-.0625c-.1875 0-.26562-.09375-.26562-.25 0-.0625.01562-.125.03125-.20313l.53125-2.375h1.25c.6875 0 .82812.17188.82812.60938 0 .0625 0 .15625-.01562.25H5.125l.46875-2.10938h-.3125C5-3.73437 4.875-3.57812 4.07813-3.57812h-1.25l.5625-2.54688c.0625-.23437.125-.28125.3125-.28125h1.09375c.9375 0 1.125.26563 1.14062.78125 0 .21875 0 .40625-.01562.5H6.25l.35938-1.65625H1.57813l-.0625.3125.5625.04688c.15625.01562.23437.09375.23437.25 0 .0625-.01562.14062-.04687.21875L1.125-.82812c-.07812.3125-.17187.45312-.42187.46875l-.51563.0625Zm0 0"/></defs><use xlink:href="#a" x="35.88641" y="16.53692"/><use xlink:href="#a" x="35.88641" y="101.21703"/><use xlink:href="#b" x="120.5745" y="101.21703"/><use xlink:href="#b" x="120.5745" y="16.53692"/><use xlink:href="#b" x="196.45989" y="100.32482"/><use xlink:href="#c" x="206.69794" y="100.32482"/><use xlink:href="#a" x="214.03422" y="100.32482"/><use xlink:href="#b" x="196.45989" y="15.6437"/><use xlink:href="#c" x="206.69794" y="15.6437"/><use xlink:href="#a" x="214.03422" y="15.6437"/><path fill="none" stroke="#000" stroke-miterlimit="10" stroke-width=".81853" d="M180.0586 49.6289h9.8203"/><use xlink:href="#d" x="180.0584" y="59.51676"/><use xlink:href="#d" x="95.37828" y="57.47143"/><use xlink:href="#d" x="5.3558" y="54.93717"/><use xlink:href="#e" x="14.55232" y="58.2098"/><use xlink:href="#f" x="17.70856" y="58.2098"/><path fill="none" stroke="#000" stroke-miterlimit="10" stroke-width=".39682" d="M53.3789 11.71092h61.53518"/><path fill="none" stroke="#000" stroke-linecap="round" stroke-miterlimit="10" stroke-width=".39682" d="M53.3789 11.71094h-.35546c-.79297 0-1.4297-.79297-1.4297-1.42969a1.4254 1.4254 0 0 1 1.4297-1.42969"/><path fill="none" stroke="#000" stroke-linecap="round" stroke-linejoin="round" stroke-miterlimit="10" stroke-width=".39682" d="M113.04688 9.32812c.3789 1.4297 1.21875 2.10547 2.0664 2.38282-.84765.27734-1.6875.95312-2.0664 2.3789"/><path fill="none" stroke="#000" stroke-miterlimit="10" stroke-width=".39682" d="M53.3789 96.38281h61.53518"/><path fill="none" stroke="#000" stroke-linecap="round" stroke-miterlimit="10" stroke-width=".39682" d="M53.3789 96.38281h-.35546c-.79297 0-1.4297-.79297-1.4297-1.42969a1.4254 1.4254 0 0 1 1.4297-1.42968"/><path fill="none" stroke="#000" stroke-linecap="round" stroke-linejoin="round" stroke-miterlimit="10" stroke-width=".39682" d="M113.04688 94c.3789 1.42969 1.21875 2.10547 2.0664 2.38281-.84765.27735-1.6875.94922-2.0664 2.3789"/><path fill="none" stroke="#000" stroke-miterlimit="10" stroke-width=".39682" d="M136.06252 96.38281H190.793"/><path fill="none" stroke="#000" stroke-linecap="round" stroke-linejoin="round" stroke-miterlimit="10" stroke-width=".39682" d="M186.46484 94c.37891 1.42969 1.21875 2.10547 2.06641 2.38281-.84766.27735-1.6875.94922-2.0664 2.3789M188.92578 94c.3789 1.42969 1.21875 2.10547 2.0625 2.38281-.84375.27735-1.6836.94922-2.0625 2.3789"/><path fill="none" stroke="#000" stroke-miterlimit="10" stroke-width=".39682" d="M136.06252 11.71092H190.793"/><path fill="none" stroke="#000" stroke-linecap="round" stroke-linejoin="round" stroke-miterlimit="10" stroke-width=".39682" d="M186.46484 9.33203c.37891 1.42578 1.21875 2.10156 2.06641 2.3789-.84766.27735-1.6875.95313-2.0664 2.38282m2.46093-4.76172c.3789 1.42578 1.21875 2.10156 2.0625 2.3789-.84375.27735-1.6836.95313-2.0625 2.38282"/><path fill="none" stroke="#000" stroke-miterlimit="10" stroke-width=".39682" d="M41.01172 21.80077v64.08985"/><path fill="none" stroke="#000" stroke-linecap="round" stroke-linejoin="round" stroke-miterlimit="10" stroke-width=".39682" d="M43.39453 84.02734c-1.42969.375-2.10547 1.21485-2.38281 2.0625-.27735-.84765-.95313-1.6875-2.3789-2.0625"/><path fill="none" stroke="#000" stroke-miterlimit="10" stroke-width=".39682" d="M125.6836 21.80077v64.08985"/><path fill="none" stroke="#000" stroke-linecap="round" stroke-linejoin="round" stroke-miterlimit="10" stroke-width=".39682" d="M128.0664 84.02734c-1.42968.375-2.10546 1.21485-2.3828 2.0625-.27735-.84765-.95313-1.6875-2.37891-2.0625"/><path fill="none" stroke="#000" stroke-miterlimit="10" stroke-width=".39682" d="M210.3555 23.70702v60.28126"/><path fill="none" stroke="#000" stroke-linecap="round" stroke-linejoin="round" stroke-miterlimit="10" stroke-width=".39681" d="M212.73438 82.1211c-1.42579.3789-2.10157 1.21874-2.37891 2.0664-.27735-.84766-.95313-1.6875-2.38281-2.0664"/></svg>