<svg xmlns="http://www.w3.org/2000/svg" xmlns:xlink="http://www.w3.org/1999/xlink" width="343.64" height="162.81" viewBox="0 0 343.64 162.81"><defs><path id="a" d="M.21875 0h6.125l.125-.60937L4.875-.71875c-.375-.01562-.53125-.20312-.53125-.51562 0-.125.01563-.26563.0625-.4375L5.57813-6.875H8.375c1.54688 0 1.82813.29688 1.82813 1.1875 0 .17188 0 .375-.01563.60938h.625L11.79688-9.5h-.625c-.53125 1.48438-.78125 1.8125-2.64063 1.8125H5.75l1.26563-5.5c.125-.53125.23437-.65625.625-.65625h2.5625c2.0625 0 2.46875.54688 2.46875 1.65625 0 .54688-.0625 1.10938-.0625 1.10938H13.25l.78125-3.46875H3.34375l-.14062.59375 1.25.10937c.35937.03125.51562.20313.51562.54688 0 .10937-.01562.26562-.0625.42187L2.39063-1.67187c-.15625.625-.35938.90625-.875.95312l-1.1875.10938Zm0 0"/><path id="b" d="M.21875 0H11.1875l1.07813-3.6875h-.625C10.5625-1.09375 9.625-.73437 7.03125-.73437c-2.48437 0-2.625-.3125-2.625-.875 0-.23438.07813-.54688.15625-.96875L5.64063-7.1875h2.75c1.57812 0 1.85937.3125 1.85937 1.23438 0 .17187 0 .35937-.01562.57812h.625l.98437-4.39062h-.65625c-.53125 1.45312-.75 1.79687-2.60937 1.79687h-2.75l1.1875-5.23437c.10937-.51563.23437-.64063.59375-.64063h2.53125c2.0625 0 2.48437.54688 2.48437 1.6875 0 .51563-.0625 1.09375-.0625 1.09375h.625l.78125-3.48437h-10.625l-.17187.59375 1.28125.09375c.35937.01562.51562.17187.51562.51562 0 .14063-.01562.29688-.0625.48438L2.39063-1.75c-.17188.71875-.35938.96875-.875 1.01563l-1.1875.125Zm0 0"/><path id="c" d="M1.92188 4.20313h1.42187l5.76563-20.28126H7.70313Zm0 0"/><path id="d" d="M2.46875-1.40625C2.46875-.42187 2.89063.25 4.07813.25 6.09375.25 8.3125-1.96875 9.5625-4.40625h.04688l-.70313 2.39063c-.10937.42187-.17187.78125-.17187 1.09375C8.73438-.17187 9.09375.25 9.875.25c1.51563 0 2.78125-1.4375 3.51563-3l-.5-.3125c-.42188.71875-1.35938 2.21875-1.9375 2.21875-.26563 0-.39063-.1875-.39063-.48437 0-.17188.04688-.39063.125-.64063l2.25-8.59375-1.875.23438c-.60937 2.15625-.96875 3.28125-1.5 4.54687-.92187 2.125-2.75 4.9375-4.5 4.9375-.45312 0-.67187-.28125-.67187-.82812 0-.28126.04687-.60938.15625-1.01563l2.01562-7.76562-.10937-.10938-3.82813.57813-.14062.51562 1.32812.10938c.3125.01562.42188.15625.42188.40625 0 .15625-.04688.35937-.10938.59375l-1.45312 5.5625c-.14063.48437-.20313.95312-.20313 1.39062m0 0"/><path id="e" d="M1.875 2.95313h1V-11.25h-1Zm0 0"/><path id="f" d="M.1875 0h4.42188l.09375-.45312-1.03125-.07813c-.28125-.01562-.40625-.14062-.40625-.375 0-.09375.03125-.1875.0625-.3125l.78125-3.57812H6c1.01563 0 1.23438.25 1.23438.90625 0 .09375 0 .25-.01563.375h.46875l.71875-3.15625H7.9375C7.51563-5.625 7.32813-5.39062 6.125-5.39062H4.25l.85938-3.8125c.09375-.35938.17187-.4375.46875-.4375h1.625c1.42187 0 1.70312.40625 1.71875 1.17187 0 .32813 0 .60938-.01563.78125h.48438l.54687-2.5H2.375l-.10937.45313.85937.07812c.25.01563.35938.14063.35938.375 0 .09375-.03125.20313-.0625.32813L1.6875-1.23437c-.10937.46875-.25.67187-.625.70312l-.78125.07813Zm0 0"/></defs><use xlink:href="#a" x="53.53804" y="24.88196"/><use xlink:href="#a" x="53.53804" y="152.29227"/><use xlink:href="#b" x="180.96033" y="152.29227"/><use xlink:href="#b" x="180.96033" y="24.88196"/><use xlink:href="#b" x="295.13809" y="150.94884"/><use xlink:href="#c" x="310.54228" y="150.94884"/><use xlink:href="#a" x="321.58045" y="150.94884"/><use xlink:href="#b" x="295.13809" y="23.53853"/><use xlink:href="#c" x="310.54228" y="23.53853"/><use xlink:href="#a" x="321.58045" y="23.53853"/><path fill="none" stroke="#000" stroke-miterlimit="10" stroke-width="1.23156" d="M270.10156 74.67188h14.28516"/><use xlink:href="#d" x="270.1023" y="89.54949"/><use xlink:href="#d" x="142.69199" y="86.47109"/><use xlink:href="#d" x="7.48278" y="82.65754"/><use xlink:href="#e" x="21.31988" y="87.58379"/><use xlink:href="#f" x="26.06876" y="87.58379"/><path fill="none" stroke="#000" stroke-miterlimit="10" stroke-width=".39803" d="M77.65624 17.61723h94.98435"/><path fill="none" stroke="#000" stroke-linecap="round" stroke-miterlimit="10" stroke-width=".39803" d="M77.65625 17.61719h-.35937c-.79688 0-1.4336-.79297-1.4336-1.42969 0-.79687.63672-1.4336 1.4336-1.4336"/><path fill="none" stroke="#000" stroke-linecap="round" stroke-linejoin="round" stroke-miterlimit="10" stroke-width=".39803" d="M170.76953 15.23047c.3789 1.4336 1.22266 2.10937 2.07031 2.38672-.84765.28125-1.6914.95703-2.0703 2.39062"/><path fill="none" stroke="#000" stroke-miterlimit="10" stroke-width=".39803" d="M77.65624 145.01562h94.98435"/><path fill="none" stroke="#000" stroke-linecap="round" stroke-miterlimit="10" stroke-width=".39803" d="M77.65625 145.01562h-.35937c-.79688 0-1.4336-.79687-1.4336-1.43359 0-.79687.63672-1.4336 1.4336-1.4336"/><path fill="none" stroke="#000" stroke-linecap="round" stroke-linejoin="round" stroke-miterlimit="10" stroke-width=".39803" d="M170.76953 142.625c.3789 1.4336 1.22266 2.10938 2.07031 2.39062-.84765.27735-1.6914.95313-2.0703 2.38672"/><path fill="none" stroke="#000" stroke-miterlimit="10" stroke-width=".39803" d="M203.05073 145.01562h83.75778"/><path fill="none" stroke="#000" stroke-linecap="round" stroke-linejoin="round" stroke-miterlimit="10" stroke-width=".39803" d="M282.46875 142.625c.3789 1.4336 1.22266 2.10938 2.07031 2.39062-.84765.27735-1.6914.95313-2.0703 2.38672m2.46874-4.77734c.3789 1.4336 1.21875 2.10938 2.07031 2.39062-.85156.27735-1.6914.95313-2.0703 2.38672"/><path fill="none" stroke="#000" stroke-miterlimit="10" stroke-width=".39803" d="m203.05073 17.61723 83.75778.0039"/><path fill="none" stroke="#000" stroke-linecap="round" stroke-linejoin="round" stroke-miterlimit="10" stroke-width=".39803" d="M282.46875 15.23047c.3789 1.4336 1.22266 2.10937 2.07031 2.39062-.84765.27735-1.6914.95313-2.0703 2.38672m2.46874-4.77734c.3789 1.4336 1.21875 2.10937 2.07031 2.39062-.85156.27735-1.6914.95313-2.0703 2.38672"/><path fill="none" stroke="#000" stroke-miterlimit="10" stroke-width=".39803" d="M60.64844 32.80082v96.62887"/><path fill="none" stroke="#000" stroke-linecap="round" stroke-linejoin="round" stroke-miterlimit="10" stroke-width=".39803" d="M63.03516 127.5586c-1.4336.3789-2.10938 1.22265-2.38672 2.0703-.28125-.84765-.95703-1.6914-2.39063-2.0703"/><path fill="none" stroke="#000" stroke-miterlimit="10" stroke-width=".39803" d="M188.04292 32.80082v96.62887"/><path fill="none" stroke="#000" stroke-linecap="round" stroke-linejoin="round" stroke-miterlimit="10" stroke-width=".39803" d="M190.4336 127.5586c-1.4336.3789-2.11329 1.22265-2.39063 2.0703-.27734-.84765-.95313-1.6914-2.38672-2.0703"/><path fill="none" stroke="#000" stroke-miterlimit="10" stroke-width=".39803" d="M315.4374 35.668v90.89841"/><path fill="none" stroke="#000" stroke-linecap="round" stroke-linejoin="round" stroke-miterlimit="10" stroke-width=".39803" d="M317.82812 124.69531c-1.43359.3789-2.10937 1.21875-2.39062 2.07031-.27734-.85156-.95312-1.6914-2.38672-2.0703"/></svg>