<svg xmlns="http://www.w3.org/2000/svg" xmlns:xlink="http://www.w3.org/1999/xlink" width="319.262" height="169.068" viewBox="0 0 319.262 169.068"><defs><clipPath id="a"><path d="M.50781 141H255v2H.50781Zm0 0"/></clipPath><clipPath id="c"><path d="M.50781 9H70v139H.50781Zm0 0"/></clipPath><clipPath id="e"><path d="M248 9h70.01953v139H248Zm0 0"/></clipPath><clipPath id="f"><path d="M63 15h255.01953v1H63Zm0 0"/></clipPath><clipPath id="g"><path d="M.50781 9h317.51172v139H.50781Zm0 0"/></clipPath><path id="b" d="M.67188-.82812C.67188-.21876 1.15625.25 2 .25c1.4375 0 2.23438-1.4375 3.10938-2.84375l.84375-1.375H6l.375 1.65625C6.78125-.64062 7.15625.25 8.23438.25c1.53125 0 2.32812-1.59375 2.95312-2.85937l-.53125-.29688c-.51562.9375-1.09375 2.0625-1.67187 2.0625-.40625 0-.5625-.46875-1.03125-2.34375l-.65625-2.75c.75-1.32812 1.82812-3 2.42187-3 .625 0 .65625.32813 1.28125.32813.45313 0 .89063-.4375.89063-1 0-.64063-.5-.92188-1.07813-.92188-1.10937 0-2.04687 1.01563-2.78125 2.1875l-.92187 1.4375H7.0625l-.84375-3.53125-.10937-.09375-3.45313 1.0625.04688.5 1.64062-.10937c.34375 0 .5.15625.70313 1.04687L5.78125-5 5.1875-3.98437c-.89062 1.53125-1.67187 2.625-2.17187 2.625-.60938 0-.76563-.51563-1.4375-.51563-.53125 0-.90625.53125-.90625 1.04688m0 0"/><path id="d" d="M0 3.92188c0 .5625.625 1.14062 1.53125 1.14062 1.79688 0 2.54688-1.3125 4.40625-4.5C6.35938-.15625 7.625-2.35937 8.92188-4.5c1.20312-1.96875 2.51562-4 2.51562-4.84375 0-.73437-.21875-1.1875-.375-1.1875-.40625 0-1.125.1875-1.65625.54688 0 0-.0625 2.14062-.26562 2.875-.32813 1.17187-1.5625 3.45312-2.9375 5.84375H6.125c-.15625-3.21875-.54687-7.625-.84375-9.17188l-.15625-.09375-3.51562 1.01563.0625.53125L3.125-9.03125c.42188 0 .51563.35938.6875 1.42188C4.03125-5.96875 4.5-1.9375 4.5-.26562c0 .625-.01562 1.46875-.48437 2.57812-.375.875-.92188 1.5-1.34375 1.5-.75 0-.84375-1.15625-1.60938-1.15625C.53125 2.65625 0 3.32813 0 3.92188m0 0"/><path id="h" d="M1.78125-5.3125H6.9375v5.15625h1.21875V-5.3125h5.15625v-1.21875H8.15625v-5.15625H6.9375v5.15625H1.78125Zm0 0"/><path id="i" d="M1.78125-5.3125H13.3125v-1.21875H1.78125Zm0 0"/></defs><g clip-path="url(#a)"><path fill="none" stroke="red" stroke-miterlimit="10" stroke-width=".39632" d="M.70703 142.0664H254.004"/></g><path fill="none" stroke="red" stroke-linecap="round" stroke-linejoin="round" stroke-miterlimit="10" stroke-width=".39632" d="M252.14062 139.6875c.37891 1.42969 1.21875 2.10156 2.0625 2.3789-.84375.27735-1.68359.95313-2.0625 2.37891"/><use xlink:href="#b" x="248.01179" y="160.46542" fill="red"/><g clip-path="url(#c)"><path fill="none" stroke="red" stroke-miterlimit="10" stroke-width=".39632" d="M.70703 142.0664 63.95315 15.57418"/></g><path fill="none" stroke="red" stroke-linecap="round" stroke-linejoin="round" stroke-miterlimit="10" stroke-width=".39628" d="M60.99219 16.17578c1.44531.30078 2.42187-.14844 3.05078-.78125-.13281.88281.09766 1.9336 1.20312 2.91016"/><use xlink:href="#d" x="43.52405" y="17.95204" fill="red"/><g clip-path="url(#e)"><path fill="none" stroke="#000" stroke-dasharray="2.9724512116 2.9724512116" stroke-miterlimit="10" stroke-width=".39632" d="m254.40243 142.0664 63.4219-126.8477"/></g><g clip-path="url(#f)"><path fill="none" stroke="#000" stroke-dasharray="2.9724512116 2.9724512116" stroke-miterlimit="10" stroke-width=".39632" d="M64.12893 15.2187h253.6954"/></g><g clip-path="url(#g)"><path fill="none" stroke="#00ADEF" stroke-miterlimit="10" stroke-width=".39632" d="M.70703 142.0664 317.45714 15.36715"/></g><path fill="none" stroke="#00ADEF" stroke-linecap="round" stroke-linejoin="round" stroke-miterlimit="10" stroke-width=".3963" d="M314.84375 13.85156c.8789 1.1836 1.91016 1.4961 2.79688 1.4414-.6797.57032-1.21094 1.50782-1.03125 2.97267"/><use xlink:href="#b" x="192.70567" y="37.56094" fill="#00ADEF"/><use xlink:href="#h" x="209.04648" y="37.56094" fill="#00ADEF"/><use xlink:href="#d" x="227.21531" y="37.56094" fill="#00ADEF"/><path fill="none" stroke="#007F7F" stroke-miterlimit="10" stroke-width=".39632" d="M64.12893 15.2187 254.0704 141.84766"/><path fill="none" stroke="#007F7F" stroke-linecap="round" stroke-linejoin="round" stroke-miterlimit="10" stroke-width=".3963" d="M253.83984 138.83594c-.47656 1.39453-.15234 2.42187.39844 3.1211-.85937-.23829-1.92969-.14454-3.03516.83593"/><use xlink:href="#b" x="154.65443" y="128.9412" fill="#007F7F"/><use xlink:href="#i" x="170.99524" y="128.9412" fill="#007F7F"/><use xlink:href="#d" x="189.16407" y="128.9412" fill="#007F7F"/></svg>