<svg xmlns="http://www.w3.org/2000/svg" xmlns:xlink="http://www.w3.org/1999/xlink" width="212.974pt" height="112.712pt" viewBox="0 0 212.974 112.712"><defs><clipPath id="a"><path d="M.25781 94H170v2H.25781Zm0 0"/></clipPath><clipPath id="c"><path d="M.25781 4H49v97H.25781Zm0 0"/></clipPath><clipPath id="e"><path d="M164 4h48.6914v97H164Zm0 0"/></clipPath><clipPath id="f"><path d="M42 9h170.6914v2H42Zm0 0"/></clipPath><clipPath id="g"><path d="M.25781 4h212.4336v97H.2578Zm0 0"/></clipPath><clipPath id="h"><path d="M209 8h3.6914v6H209Zm0 0"/></clipPath><path id="b" d="M.45313-.54687c0 .39062.32812.70312.89062.70312.95313 0 1.48438-.95312 2.0625-1.89062l.57813-.92188h.03125l.25 1.10938C4.53125-.4375 4.78125.15624 5.5.15624c1.03125 0 1.5625-1.04687 1.98438-1.90625L7.125-1.9375c-.34375.625-.73437 1.375-1.125 1.375-.26562 0-.35937-.3125-.67187-1.5625L4.875-3.96875c.5-.89062 1.21875-2.01562 1.625-2.01562.42188 0 .4375.23437.84375.23437.3125 0 .59375-.29687.59375-.67187 0-.4375-.32812-.60938-.70312-.60938-.75 0-1.375.67188-1.875 1.45313L4.75-4.625h-.03125l-.5625-2.34375-.07812-.0625-2.29688.70313L1.79688-6l1.10937-.0625c.21875 0 .32813.09375.46875.70313l.48438 2.01562-.39063.67188C2.875-1.64062 2.35938-.90625 2.01563-.90625 1.60938-.90625 1.5-1.25 1.0625-1.25c-.35937 0-.60937.35938-.60937.70313m0 0"/><path id="d" d="M0 2.625c0 .375.42188.76563 1.03125.76563 1.1875 0 1.70313-.89063 2.9375-3.01563.28125-.48437 1.125-1.95312 2-3.39062.79688-1.3125 1.67188-2.65625 1.67188-3.23438 0-.48437-.14063-.78125-.25-.78125-.26563 0-.75.10938-1.09375.35938 0 0-.04688 1.42187-.1875 1.92187-.21875.78125-1.04688 2.3125-1.96875 3.90625h-.04688C4-3 3.71875-5.95312 3.53125-6.96875l-.10937-.0625-2.34375.67188L1.125-6l.96875-.03125c.28125 0 .34375.23438.45313.95313C2.70313-4 3.01563-1.29687 3.01563-.17187c0 .40625-.01563.98437-.32813 1.71875-.25.57812-.60937 1-.90625 1-.5 0-.5625-.76563-1.0625-.76563C.35938 1.78125 0 2.21875 0 2.625m0 0"/><path id="i" d="M1.1875-3.54687h3.45313v3.4375h.8125v-3.4375h3.45312V-4.375H5.45313v-3.4375h-.8125v3.4375H1.1875Zm0 0"/><path id="j" d="M1.1875-3.54687h7.71875V-4.375H1.1875Zm0 0"/></defs><g clip-path="url(#a)"><path fill="none" stroke="red" stroke-miterlimit="10" stroke-width=".39748" d="M.45703 94.99219h169.23041"/></g><path fill="none" stroke="red" stroke-linecap="round" stroke-linejoin="round" stroke-miterlimit="10" stroke-width=".39748" d="M167.82031 92.60547c.3789 1.4336 1.21875 2.10937 2.0664 2.38672-.84765.27734-1.6875.95312-2.0664 2.3828"/><use xlink:href="#b" x="165.64983" y="107.29285" fill="red"/><g clip-path="url(#c)"><path fill="none" stroke="red" stroke-miterlimit="10" stroke-width=".39748" d="M.45703 94.99219 42.6875 10.53128"/></g><path fill="none" stroke="red" stroke-linecap="round" stroke-linejoin="round" stroke-miterlimit="10" stroke-width=".39745" d="M39.71875 11.13672c1.44922.30078 2.42969-.14844 3.05469-.78125-.1289.88281.10156 1.9375 1.21094 2.91406"/><use xlink:href="#d" x="29.08677" y="12.00333" fill="red"/><g clip-path="url(#e)"><path fill="none" stroke="#000" stroke-dasharray="2.9812084835 2.9812084835" stroke-miterlimit="10" stroke-width=".39748" d="m170.08588 94.99219 42.40624-84.81638"/></g><g clip-path="url(#f)"><path fill="none" stroke="#000" stroke-dasharray="2.9812084835 2.9812084835" stroke-miterlimit="10" stroke-width=".39748" d="M42.86327 10.1758h169.62885"/></g><g clip-path="url(#g)"><path fill="none" stroke="#00adef" stroke-miterlimit="10" stroke-width=".39748" d="m.45703 94.99219 211.6679-84.66794"/></g><g clip-path="url(#h)"><path fill="none" stroke="#00adef" stroke-linecap="round" stroke-linejoin="round" stroke-miterlimit="10" stroke-width=".39747" d="M209.5039 8.80469c.88282 1.1875 1.91407 1.5039 2.8047 1.44531-.6836.57422-1.21485 1.51172-1.03126 2.98047"/></g><use xlink:href="#b" x="128.8339" y="25.11483" fill="#00adef"/><use xlink:href="#i" x="139.7599" y="25.11483" fill="#00adef"/><use xlink:href="#d" x="151.90819" y="25.11483" fill="#00adef"/><path fill="none" stroke="#007f7f" stroke-miterlimit="10" stroke-width=".39748" d="m42.86327 10.1758 126.89058 84.59373"/><path fill="none" stroke="#007f7f" stroke-linecap="round" stroke-linejoin="round" stroke-miterlimit="10" stroke-width=".39747" d="M169.52344 91.75c-.48047 1.39844-.15235 2.42969.39844 3.13281-.85938-.24219-1.9375-.14453-3.04297.83594"/><use xlink:href="#b" x="103.39191" y="86.21371" fill="#007f7f"/><use xlink:href="#j" x="114.31791" y="86.21371" fill="#007f7f"/><use xlink:href="#d" x="126.4662" y="86.21371" fill="#007f7f"/></svg>