<svg xmlns="http://www.w3.org/2000/svg" xmlns:xlink="http://www.w3.org/1999/xlink" width="584.036" height="285.278" viewBox="0 0 584.036 285.278"><defs><path id="a" d="M.73438 0h5.54687v-.60937C5.40625-.6875 4.92188-.6875 4.76563-.9375c-.0625-.09375-.04688-.10937-.04688-1v-4.90625h1.4375c1.25 0 2.23438.375 2.59375 1.8125.15625.57813.375 2.26563.59375 3.21875C9.65625-.46875 10.48438 0 11.71875 0h1.70313v-.60937c-1.64063-.17188-2-1.32813-2.17188-2.76563-.25-1.875-.625-3.28125-2.85937-3.82812V-7.25c1.96875-.375 3.42187-1.71875 3.42187-3.70312 0-2.01563-1.28125-3.57813-4.95312-3.57813h-6.125v.59375c1.85937.14063 1.90625.17188 1.90625 1.34375V-1.9375c0 1.17188-.04688 1.20313-1.90625 1.32813Zm3.98437-7.57812v-5.1875c0-.875.14063-1.04688 1.51563-1.04688 1.5625 0 3.32812.57813 3.32812 3.0625 0 2.20313-1.15625 3.17188-3.1875 3.17188Zm0 0"/><path id="b" d="M1.03125-5.07812C1.03125-1.75 2.45313.25 5.875.25c2.32813 0 3.53125-1.29687 4.09375-2.95312l-.625-.34375C8.76563-1.8125 7.95313-.82812 6.3125-.82812c-2.625 0-3.14062-2.5-3.09375-4.6875h6.0625c.4375 0 .82813-.125.82813-.8125 0-1.23438-.40625-4.21875-4.25-4.21875-3.28125 0-4.82813 2.3125-4.82813 5.46875m2.20313-1.25c0-.875.32812-3.48438 2.51562-3.48438 1.9375 0 2.17188 1.98438 2.17188 2.8125 0 .40625-.14063.67188-.71875.67188Zm0 0"/><path id="d" d="M.73438 0h5.85937v-.60937c-1.82812-.125-1.875-.15626-1.875-1.32813v-10.65625c0-1.17187.04688-1.20312 1.875-1.34375v-.59375H.73438v.59375c1.85937.14063 1.90625.17188 1.90625 1.34375V-1.9375c0 1.17188-.04688 1.20313-1.90625 1.32813Zm0 0"/><path id="e" d="M.67188 0h5.125v-.60937c-1.5-.10938-1.57813-.15626-1.57813-1.21875V-6.75c0-.54687 0-.82812.15625-1.125.40625-.84375 1.32813-1.53125 2.48438-1.53125 1.8125 0 2.04687 1.3125 2.04687 2.60938v4.96875c0 1.0625-.07812 1.10937-1.59375 1.21875V0h5.125v-.60937c-1.5-.10938-1.57812-.15626-1.57812-1.21875V-6.75c0-.54687.03125-.8125.15625-1.14062.32812-.85938 1.21875-1.51563 2.40625-1.51563 1.3125 0 2.125.73438 2.125 2.60938v4.96875c0 1.0625-.07813 1.10937-1.59375 1.21875V0h5.14062v-.60937C17.59375-.71875 17.5-.76563 17.5-1.82812v-5.375c0-2.125-1.14062-3.34375-3.125-3.34375-1.71875 0-2.95312 1.14062-3.6875 1.60937-.51562-.98437-1.3125-1.60937-2.79687-1.60937-1.60938 0-2.92188 1.0625-3.67188 1.60937l-.1875-1.60937-3.25.53125V-9.5l.78125.10938c.54688.09375.70313.17187.70313.9375v6.625c0 1.0625-.07813 1.10937-1.59375 1.21875Zm0 0"/><path id="f" d="M.89063 0H7.0625v-.625C5.54688-.73437 5.01563-.89062 5.01563-2.1875v-11c0-.46875.10937-.60937.64062-.60937h2.85938c1.92187 0 2.375.5 2.73437 2.625h.59375v-3.40625H.92188v.625c1.92187.15625 1.98437.3125 1.98437 1.5625v10.28125c0 1.34375-.35937 1.39062-2.01562 1.48437Zm0 0"/><path id="g" d="M1.8125-5.92187c0 4.73437 1.07813 9.95312 5.51563 10.125v-.625c-1.5-.29688-3.84375-2.14063-3.84375-9.5 0-7.3125 2.23437-9.17188 3.84375-9.5v-.625c-4.4375.17187-5.51563 5.375-5.51563 10.125m0 0"/><path id="h" d="M0 0h5.75l.125-.60937-1.25-.10938c-.35937-.01562-.53125-.17187-.53125-.51562 0-.125.04688-.3125.09375-.51563l1.14063-5.09375h1.26562c2.03125 0 2.32813.5 2.32813 2.95313 0 2.54687 0 3.89062 2.21875 3.89062h1.625l.20312-.60937C11.5-.8125 10.98438-.875 10.98438-3.57812c0-2.14063-.1875-3.0625-1.92188-3.64063 2.5625-.35937 4.3125-1.85937 4.3125-3.9375 0-1.5-.65625-3.375-4.59375-3.375H3.125l-.15625.59375 1.25.09375c.35938.03125.51563.20313.51563.5625 0 .14063-.01563.29688-.0625.48438L2.14063-1.75c-.17188.75-.35938.96875-.85938 1.01563l-1.17187.125Zm5.5-7.57812 1.23438-5.4375c.15625-.59375.21875-.79688 1.8125-.79688 1.35937 0 2.625.59375 2.625 2.4375 0 2.5-1.625 3.79688-4.32813 3.79688Zm0 0"/><path id="i" d="M1.25 3.57813v.625c4.45313-.17188 5.53125-5.39063 5.53125-10.125 0-4.75-1.07812-9.95313-5.53125-10.125v.625c1.60938.32812 3.84375 2.1875 3.84375 9.5 0 7.35937-2.34375 9.20312-3.84375 9.5m0 0"/><path id="j" d="M1.90625-5.92187c0 2.40625 1.76563 4.17187 4.20313 4.17187 2.34375 0 4.10937-1.76562 4.10937-4.17187 0-2.34375-1.76562-4.125-4.10937-4.125-2.4375 0-4.20313 1.78125-4.20313 4.125m0 0"/><path id="k" d="M1.78125-5.32812h5.17188v5.17187H8.1875v-5.17187h5.15625v-1.21875H8.1875v-5.17188H6.95313v5.17188H1.78125Zm0 0"/><path id="l" d="M2.45313-.96875c0 .75.35937 1.21875 1.21875 1.21875C5.1875.25 6.34375-1.1875 7.0625-2.76562l-.51562-.29688c-.375.73438-1.29688 2.21875-1.875 2.21875-.25 0-.32813-.15625-.32813-.4375 0-.1875.03125-.4375.10938-.70312L6.75-10.4375l-.10937-.10937-3.82813.57812-.125.51563 1.20313.10937c.375.01563.53125.125.53125.42188 0 .14062-.01563.3125-.07813.53125L2.57813-1.8125c-.09375.3125-.125.57813-.125.84375m2.71875-12.67187c0 .78125.53125 1.1875 1.15625 1.1875.82812 0 1.34375-.5625 1.34375-1.40625 0-.82813-.5625-1.17188-1.14063-1.17188-.89062 0-1.35937.71875-1.35937 1.39063m0 0"/><path id="p" d="M1.78125-5.32812h11.5625v-1.21875H1.78125Zm0 0"/><path id="m" d="M.5625-2.20312c0 1.1875.70313 2.125 2.5 2.32812.64063.09375 1.35938.14063 1.35938.51563 0 .76562-.84375 1.4375-1.1875 1.76562l.20312.29688c.73438-.42188 2.375-1.57813 2.375-2.85938 0-.71875-.5625-.89062-1.73437-1.14062-1.03125-.21876-1.9375-.73438-1.9375-1.75 0-.85938.48437-2.59375 2.59375-2.75.3125.01562.54687.10937.78125.10937.29687 0 .46875-.21875.46875-.59375 0-.1875-.09375-.26562-.26563-.26562-.3125 0-.39062.09375-.8125.09375-.73437 0-.95312-.53125-.95312-1 0-.75.28125-1.34375 1.03125-1.8125.21875.03125.57812.0625.8125.0625.625 0 1.375-.17188 1.375-.9375 0-.15625-.14063-.25-.46875-.25-.59375 0-1.0625.04687-1.98438.625-.5-.29688-.73437-.375-.73437-.625 0-.15625.0625-.28125.1875-.4375l-.32813-.125c-.53125.15625-1 .34375-1 .71875 0 .42187.59375.57812 1.39063.79687-.96875.67188-1.64063 1.15625-1.64063 1.95313 0 .54687.375 1.125 1.59375 1.375C1.0625-5.25.5625-3.96875.5625-2.20312m0 0"/><path id="n" d="M.42188-.17187.59375 0h6.23438l.53125-2.09375-.4375-.07812c-.34375.78125-.60938.89062-1.20313.89062H1.95313c.23437-.70312 1.01562-1.6875 2.45312-2.65625 1.48438-1 2.54688-1.6875 2.54688-3.29687C6.95313-9.28125 5.5625-10 3.9375-10 1.92188-10 .78125-8.84375.78125-7.95312c0 .53125.60938.78125.92188.78125.28124 0 .42187-.15625.48437-.4375.23438-1.03125.78125-1.84375 1.64063-1.84375 1.04687 0 1.375.89062 1.375 1.95312 0 1.42188-.64063 2.35938-2.03125 3.54688-1.875 1.625-2.53125 2.6875-2.75 3.78125m0 0"/><path id="o" d="M1.04688-1.57812c0 .875.40625 1.75 1.42187 1.75 1.64063 0 2.92188-1.79688 3.76563-3.26563h.03125L5.8125-1.51562c-.09375.32812-.15625.60937-.15625.84375 0 .5625.28125.84375.85938.84375C7.70313.17188 8.54688-.85937 9.07813-2l-.375-.21875c-.29688.54688-.92188 1.53125-1.3125 1.53125-.17188 0-.21875-.10937-.21875-.28125 0-.125.03125-.3125.07812-.5l1.53125-5.79687H7.35938l-.0625.17187c-.25-.17187-.6875-.29687-1.07813-.29687-3.51562 0-5.17187 3.875-5.17187 5.8125M2.70313-1.625c0-1.59375 1.42187-5.20312 3.57812-5.20312.34375 0 .625.10937.84375.29687C6.85938-5.45312 6.34375-4 5.57813-2.8125 4.78125-1.59375 3.9375-.6875 3.28125-.6875c-.45312 0-.57812-.40625-.57812-.9375m0 0"/><clipPath id="c"><path d="M288 30h2v254.5586h-2Zm0 0"/></clipPath></defs><path fill="none" stroke="#000" stroke-miterlimit="10" stroke-width=".3975" d="M34.61316 220.74219h508.55493"/><path fill="none" stroke="#000" stroke-linecap="round" stroke-linejoin="round" stroke-miterlimit="10" stroke-width=".3975" d="M541.30078 218.35547c.3789 1.42969 1.21875 2.10547 2.0664 2.38672-.84765.27734-1.6875.95312-2.0664 2.38281"/><use xlink:href="#a" x="551.46338" y="227.88426"/><use xlink:href="#b" x="564.56596" y="227.88426"/><g clip-path="url(#c)"><path fill="none" stroke="#000" stroke-miterlimit="10" stroke-width=".3975" d="M289.08984 284.3594V30.28117"/></g><path fill="none" stroke="#000" stroke-linecap="round" stroke-linejoin="round" stroke-miterlimit="10" stroke-width=".3975" d="M286.70312 32.14844c1.4336-.3789 2.10938-1.21875 2.38672-2.0664.27735.84765.95313 1.6875 2.38282 2.0664"/><use xlink:href="#d" x="275.91974" y="21.98536"/><use xlink:href="#e" x="282.8735" y="21.98536"/><path fill="none" stroke="#EC008C" stroke-miterlimit="10" stroke-width=".3975" d="M98.23038 220.74219H479.9493V93.49994H98.23038Zm0 0h317.69937"/><path fill="none" stroke="#EC008C" stroke-linecap="round" stroke-linejoin="round" stroke-miterlimit="10" stroke-width=".3975" d="M414.0625 218.35547c.3789 1.42969 1.21875 2.10547 2.0664 2.38672-.84765.27734-1.6875.95312-2.0664 2.38281"/><path fill="none" stroke="#EC008C" stroke-miterlimit="10" stroke-width=".3975" d="M479.94931 220.74219v-95.0352"/><path fill="none" stroke="#EC008C" stroke-linecap="round" stroke-linejoin="round" stroke-miterlimit="10" stroke-width=".3975" d="M477.5625 127.57813c1.42969-.37891 2.10547-1.21875 2.38672-2.06641.27734.84766.95312 1.6875 2.38281 2.0664"/><path fill="none" stroke="#EC008C" stroke-miterlimit="10" stroke-width=".3975" d="M479.94931 93.49994H162.24994"/><path fill="none" stroke="#EC008C" stroke-linecap="round" stroke-linejoin="round" stroke-miterlimit="10" stroke-width=".3975" d="M164.11719 95.88672c-.3789-1.42969-1.21875-2.10547-2.0664-2.38672.84765-.27734 1.6875-.95312 2.0664-2.38281"/><path fill="none" stroke="#EC008C" stroke-miterlimit="10" stroke-width=".3975" d="M98.23038 93.49994v95.0352"/><path fill="none" stroke="#EC008C" stroke-linecap="round" stroke-linejoin="round" stroke-miterlimit="10" stroke-width=".3975" d="M100.61719 186.66406c-1.4336.3789-2.10938 1.21875-2.38672 2.0664-.27735-.84765-.95313-1.6875-2.38281-2.0664"/><g fill="#EC008C"><use xlink:href="#f" x="487.84439" y="163.04735"/><use xlink:href="#g" x="500.67866" y="163.04735"/><use xlink:href="#h" x="509.26465" y="163.04735"/></g><use xlink:href="#i" x="524.02182" y="163.04735" fill="#EC008C"/><use xlink:href="#j" x="473.89669" y="225.76063"/><use xlink:href="#h" x="487.84439" y="243.17356"/><use xlink:href="#j" x="473.89669" y="98.52365"/><use xlink:href="#h" x="487.84439" y="77.5617"/><use xlink:href="#k" x="505.68715" y="77.5617"/><use xlink:href="#l" x="523.91002" y="77.5617"/><use xlink:href="#m" x="540.0742" y="67.08297"/><path fill="none" stroke="#000" stroke-miterlimit="10" stroke-width="1.22989" d="M535.17578 71.63672h17.4961"/><use xlink:href="#n" x="535.17485" y="85.43253"/><use xlink:href="#o" x="543.11019" y="85.43253"/><use xlink:href="#j" x="92.18575" y="98.52365"/><use xlink:href="#p" x="7.70855" y="77.5617"/><use xlink:href="#h" x="22.82347" y="77.5617"/><use xlink:href="#k" x="40.66623" y="77.5617"/><use xlink:href="#l" x="58.8891" y="77.5617"/><use xlink:href="#m" x="75.05161" y="67.08297"/><path fill="none" stroke="#000" stroke-miterlimit="10" stroke-width="1.22989" d="M70.15625 71.63672h17.4961"/><use xlink:href="#n" x="70.15451" y="85.43253"/><use xlink:href="#o" x="78.08984" y="85.43253"/><use xlink:href="#j" x="92.18575" y="225.76063"/><use xlink:href="#p" x="60.73136" y="243.17356"/><use xlink:href="#h" x="75.84628" y="243.17356"/><use xlink:href="#j" x="283.04172" y="98.52365"/><use xlink:href="#l" x="296.98942" y="77.5617"/><use xlink:href="#m" x="313.13506" y="67.08297"/><path fill="none" stroke="#000" stroke-miterlimit="10" stroke-width="1.22989" d="M308.23437 71.63672h17.5"/><use xlink:href="#n" x="308.2357" y="85.43253"/><use xlink:href="#o" x="316.17104" y="85.43253"/></svg>