<svg xmlns="http://www.w3.org/2000/svg" xmlns:xlink="http://www.w3.org/1999/xlink" width="390.125pt" height="190.252pt" viewBox="0 0 390.125 190.252"><defs><path id="a" d="M.48438 0H4.1875v-.40625c-.57812-.0625-.90625-.0625-1.01562-.21875-.04688-.0625-.03125-.07812-.03125-.67187V-4.5625h.95312c.82813 0 1.48438.26563 1.73438 1.21875.09375.375.25 1.5.39062 2.14063C6.4375-.3125 6.98438 0 7.79688 0H8.9375v-.40625C7.84375-.51562 7.60938-1.29687 7.48438-2.25c-.15625-1.25-.40625-2.1875-1.90625-2.54687v-.03125c1.3125-.25 2.28125-1.14063 2.28125-2.46875 0-1.34375-.84375-2.375-3.28125-2.375H.48438v.39062c1.25.09375 1.26562.10938 1.26562.89063v7.09375c0 .79687-.01562.8125-1.26562.89062Zm2.65625-5.04687V-8.5c0-.57812.09375-.70312 1.01562-.70312 1.04688 0 2.21875.39062 2.21875 2.04687 0 1.46875-.78125 2.10938-2.125 2.10938Zm0 0"/><path id="b" d="M.6875-3.375c0 2.21875.95313 3.53125 3.23438 3.53125 1.54687 0 2.34375-.85937 2.71875-1.95312l-.42188-.23438c-.375.82813-.92187 1.48438-2.01562 1.48438-1.75 0-2.09375-1.67188-2.0625-3.125h4.03125c.3125 0 .5625-.07813.5625-.54688 0-.8125-.26563-2.8125-2.82813-2.8125C1.71875-7.03125.6875-5.48437.6875-3.375m1.46875-.84375c0-.57812.21875-2.3125 1.67188-2.3125 1.29687 0 1.4375 1.3125 1.4375 1.875 0 .26563-.07813.4375-.46875.4375Zm0 0"/><path id="d" d="M.48438 0h3.90625v-.40625c-1.21875-.07812-1.25-.09375-1.25-.89062v-7.09375c0-.78125.03125-.79688 1.25-.89063v-.39062H.48438v.39062c1.25.09375 1.26562.10938 1.26562.89063v7.09375c0 .79687-.01562.8125-1.26562.89062Zm0 0"/><path id="e" d="M.45313 0h3.40625v-.40625c-1-.0625-1.04688-.09375-1.04688-.8125V-4.5c0-.35937 0-.54687.10938-.73437.26562-.57813.875-1.03125 1.65625-1.03125 1.20312 0 1.34375.875 1.34375 1.73437v3.3125c0 .71875-.04688.75-1.04688.8125V0h3.40625v-.40625c-1-.0625-1.04687-.09375-1.04687-.8125V-4.5c0-.35937.01562-.53125.10937-.75.20313-.57812.79688-1.01562 1.59375-1.01562.875 0 1.40625.48437 1.40625 1.73437v3.3125c0 .71875-.04687.75-1.04687.8125V0h3.42187v-.40625c-1-.0625-1.0625-.09375-1.0625-.8125v-3.57812c0-1.40625-.75-2.23438-2.07812-2.23438-1.15625 0-1.96875.76563-2.45313 1.07813-.34375-.65625-.89062-1.07813-1.875-1.07813-1.0625 0-1.9375.71875-2.4375 1.07813l-.125-1.07813-2.17187.35938v.34375l.53125.07812c.35937.0625.45312.10938.45312.625v4.40625c0 .71875-.04687.75-1.04687.8125Zm0 0"/><path id="f" d="M.59375 0h4.10938v-.42187c-1.01563-.0625-1.375-.17188-1.375-1.03125v-7.32813c0-.3125.07812-.40625.4375-.40625h1.90625c1.28125 0 1.57812.32813 1.8125 1.73438h.40625v-2.25H.60938v.40625C1.89063-9.1875 1.9375-9.07812 1.9375-8.25v6.84375c0 .90625-.23437.9375-1.34375.98438Zm0 0"/><path id="g" d="M1.20313-3.95312c0 3.15625.71875 6.64062 3.6875 6.75V2.375c-1-.1875-2.5625-1.42187-2.5625-6.32812 0-4.85938 1.48437-6.09375 2.5625-6.32813v-.40625c-2.96875.10938-3.6875 3.57813-3.6875 6.73438m0 0"/><path id="h" d="M0 0h3.82813l.09375-.40625-.84375-.0625c-.23438-.01562-.35938-.125-.35938-.34375 0-.09375.03125-.21875.0625-.34375l.76563-3.40625h.84375c1.35937 0 1.54687.32813 1.54687 1.96875C5.9375-.89062 5.9375 0 7.42188 0H8.5l.14063-.40625C7.65625-.53125 7.3125-.57812 7.3125-2.375c0-1.4375-.125-2.04687-1.28125-2.4375 1.71875-.23437 2.875-1.23437 2.875-2.625 0-.98437-.4375-2.23437-3.04687-2.23437H2.07813l-.09375.39062.82812.0625c.23438.01563.34375.14063.34375.375 0 .09375-.01562.1875-.04687.32813l-1.6875 7.35937c-.10938.48438-.23438.64063-.57813.67188l-.76562.07812Zm3.65625-5.04687.82813-3.625c.10937-.39063.14062-.53125 1.20312-.53125.90625 0 1.76563.40625 1.76563 1.625 0 1.67187-1.09375 2.53125-2.89063 2.53125Zm0 0"/><path id="i" d="M.82813 2.375v.42188c2.96875-.10938 3.6875-3.59375 3.6875-6.75s-.71875-6.625-3.6875-6.73438v.40625c1.07812.23438 2.5625 1.46875 2.5625 6.32813 0 4.90625-1.5625 6.14062-2.5625 6.32812m0 0"/><path id="j" d="M1.26563-3.95312c0 1.60937 1.17187 2.79687 2.79687 2.79687 1.5625 0 2.75-1.1875 2.75-2.79687 0-1.5625-1.1875-2.73438-2.75-2.73438-1.625 0-2.79687 1.17188-2.79687 2.73438m0 0"/><path id="k" d="M1.1875-3.54687H4.625v3.4375h.82813v-3.4375h3.4375v-.8125h-3.4375v-3.4375H4.625v3.4375H1.1875Zm0 0"/><path id="l" d="M1.64063-.64062c0 .48437.23437.79687.79687.79687 1.01563 0 1.79688-.95312 2.26563-2l-.34375-.20312c-.25.5-.85938 1.48437-1.25 1.48437-.15625 0-.21875-.10937-.21875-.28125 0-.14062.03125-.29687.07812-.48437L4.5-6.95312l-.07812-.07813-2.54688.39063-.09375.34375.8125.07812c.25.01563.35938.07813.35938.28125 0 .07813-.01563.20313-.0625.35938l-1.17188 4.375c-.0625.20312-.07812.39062-.07812.5625m1.79687-8.4375c0 .51562.35938.78125.78125.78125.54688 0 .89063-.375.89063-.9375 0-.54688-.375-.76563-.76563-.76563-.59375 0-.90625.46875-.90625.92188m0 0"/><path id="p" d="M1.1875-3.54687h7.70313v-.8125H1.1875Zm0 0"/><path id="m" d="M.375-1.46875c0 .79688.46875 1.42188 1.67188 1.54688.42187.0625.89062.09375.89062.34375 0 .51562-.54687.96875-.78125 1.1875l.14063.1875C2.76563 1.51562 3.85938.75 3.85938-.10937c0-.46875-.375-.59375-1.15625-.75-.67188-.15626-1.28125-.5-1.28125-1.17188 0-.57812.32812-1.71875 1.71875-1.82812.21875.01562.375.07812.53125.07812.1875 0 .3125-.14062.3125-.39062q0-.1875-.1875-.1875c-.20313 0-.25.0625-.53125.0625-.5 0-.64063-.34375-.64063-.65625 0-.51563.1875-.90625.6875-1.21875.14063.01562.39063.04687.54688.04687.40625 0 .90625-.125.90625-.625 0-.10937-.09375-.17187-.3125-.17187-.39063 0-.70313.03125-1.3125.42187-.34375-.20312-.5-.25-.5-.42187 0-.10938.04687-.1875.125-.29688l-.20313-.07812c-.35937.10937-.67187.23437-.67187.48437 0 .28125.40625.375.92187.53125-.64062.4375-1.07812.76563-1.07812 1.29688 0 .375.25.75 1.04687.92187C.70313-3.48437.375-2.64062.375-1.46875m0 0"/><path id="n" d="M.28125-.10937.39063 0h4.15625l.34375-1.39062-.28125-.0625c-.23438.53125-.40625.59375-.8125.59375h-2.5c.15624-.46875.6875-1.125 1.625-1.75 1-.67188 1.70312-1.125 1.70312-2.20313 0-1.375-.92187-1.84375-2.01562-1.84375-1.32813 0-2.09375.76563-2.09375 1.35938 0 .35937.40625.53125.625.53125.1875 0 .28124-.10938.3125-.29688.15624-.6875.53125-1.23437 1.09375-1.23437.6875 0 .90625.59375.90625 1.3125 0 .9375-.42188 1.5625-1.34375 2.35937C.85938-1.54687.42188-.84375.28124-.10937m0 0"/><path id="o" d="M.70313-1.04687c0 .57812.26562 1.15625.9375 1.15625 1.09375 0 1.9375-1.1875 2.5-2.17188h.03125l-.3125 1.04688q-.09375.32812-.09375.5625 0 .5625.5625.5625c.79687 0 1.35937-.6875 1.71875-1.4375l-.25-.15626c-.20313.375-.60938 1.03126-.875 1.03126-.125 0-.15625-.07813-.15625-.1875 0-.09376.03125-.21876.0625-.34375l1.01562-3.84375h-.95312l-.03125.10937c-.17188-.10937-.46875-.20312-.71875-.20312-2.34375 0-3.4375 2.57812-3.4375 3.875m1.09375-.03126c0-1.0625.9375-3.46874 2.375-3.46874.23437 0 .42187.07812.5625.20312-.17188.71875-.51563 1.6875-1.03125 2.46875-.53125.8125-1.09375 1.42188-1.51563 1.42188-.29687 0-.39062-.28125-.39062-.625m0 0"/><clipPath id="c"><path d="M193 20h1v169.50781h-1Zm0 0"/></clipPath></defs><path fill="none" stroke="#000" stroke-miterlimit="10" stroke-width=".39694" d="M23.9648 146.95703h338.43368"/><path fill="none" stroke="#000" stroke-linecap="round" stroke-linejoin="round" stroke-miterlimit="10" stroke-width=".39694" d="M360.53125 144.57422c.3789 1.42969 1.21875 2.10156 2.0664 2.38281-.84765.27735-1.6875.94922-2.0664 2.3789"/><use xlink:href="#a" x="368.05137" y="151.71153"/><use xlink:href="#b" x="376.77424" y="151.71153"/><g clip-path="url(#c)"><path fill="none" stroke="#000" stroke-miterlimit="10" stroke-width=".39694" d="M193.3789 189.3086V20.29294"/></g><path fill="none" stroke="#000" stroke-linecap="round" stroke-linejoin="round" stroke-miterlimit="10" stroke-width=".39694" d="M191 22.15625c1.42578-.375 2.10156-1.21875 2.3789-2.0625.27735.84375.95313 1.6875 2.38282 2.0625"/><use xlink:href="#d" x="184.61258" y="14.63645"/><use xlink:href="#e" x="189.24196" y="14.63645"/><path fill="none" stroke="#ec008c" stroke-miterlimit="10" stroke-width=".39694" d="M66.32028 146.95703h254.12116V62.24607H66.32028Zm0 0h211.37115"/><path fill="none" stroke="#ec008c" stroke-linecap="round" stroke-linejoin="round" stroke-miterlimit="10" stroke-width=".39694" d="M275.82422 144.57422c.3789 1.42969 1.21875 2.10156 2.0664 2.38281-.84765.27735-1.6875.94922-2.0664 2.3789"/><path fill="none" stroke="#ec008c" stroke-miterlimit="10" stroke-width=".39694" d="M320.44144 146.95703V83.8203"/><path fill="none" stroke="#ec008c" stroke-linecap="round" stroke-linejoin="round" stroke-miterlimit="10" stroke-width=".39694" d="M318.0586 85.6875c1.42968-.3789 2.10546-1.21875 2.3828-2.0625.27735.84375.95313 1.6836 2.38282 2.0625"/><path fill="none" stroke="#ec008c" stroke-miterlimit="10" stroke-width=".39694" d="M320.44144 62.24607H109.07029"/><path fill="none" stroke="#ec008c" stroke-linecap="round" stroke-linejoin="round" stroke-miterlimit="10" stroke-width=".39694" d="M110.9336 64.6289c-.375-1.42968-1.21485-2.10156-2.0625-2.3828.84765-.27735 1.6875-.94923 2.0625-2.37891"/><path fill="none" stroke="#ec008c" stroke-miterlimit="10" stroke-width=".39694" d="M66.32028 62.24607v63.13674"/><path fill="none" stroke="#ec008c" stroke-linecap="round" stroke-linejoin="round" stroke-miterlimit="10" stroke-width=".39694" d="M68.69922 123.51562c-1.42578.37891-2.10156 1.21876-2.3789 2.0625-.27735-.84374-.95313-1.68359-2.38282-2.0625"/><g fill="#ec008c"><use xlink:href="#f" x="325.69889" y="108.54723"/><use xlink:href="#g" x="334.24313" y="108.54723"/><use xlink:href="#h" x="339.95913" y="108.54723"/></g><use xlink:href="#i" x="349.78352" y="108.54723" fill="#ec008c"/><use xlink:href="#j" x="316.41339" y="150.29709"/><use xlink:href="#h" x="325.69889" y="161.88951"/><use xlink:href="#j" x="316.41339" y="65.59112"/><use xlink:href="#h" x="325.69889" y="51.63599"/><use xlink:href="#k" x="337.57746" y="51.63599"/><use xlink:href="#l" x="349.70909" y="51.63599"/><use xlink:href="#m" x="360.89451" y="44.65991"/><path fill="none" stroke="#000" stroke-miterlimit="10" stroke-width=".81878" d="M357.53516 47.6914h12.08594"/><use xlink:href="#n" x="357.53422" y="56.87588"/><use xlink:href="#o" x="362.81706" y="56.87588"/><use xlink:href="#j" x="62.29449" y="65.59112"/><use xlink:href="#p" x="5.28962" y="51.63599"/><use xlink:href="#h" x="15.35217" y="51.63599"/><use xlink:href="#k" x="27.23075" y="51.63599"/><use xlink:href="#l" x="39.36238" y="51.63599"/><use xlink:href="#m" x="50.54818" y="44.65991"/><path fill="none" stroke="#000" stroke-miterlimit="10" stroke-width=".81878" d="M47.1875 47.6914h12.08594"/><use xlink:href="#n" x="47.18789" y="56.87588"/><use xlink:href="#o" x="52.47073" y="56.87588"/><use xlink:href="#j" x="62.29449" y="150.29709"/><use xlink:href="#p" x="41.17453" y="161.88951"/><use xlink:href="#h" x="51.23709" y="161.88951"/><use xlink:href="#j" x="189.35394" y="65.59112"/><use xlink:href="#l" x="198.63944" y="51.63599"/><use xlink:href="#m" x="209.814" y="44.65991"/><path fill="none" stroke="#000" stroke-miterlimit="10" stroke-width=".81878" d="M206.45313 47.6914h12.08984"/><use xlink:href="#n" x="206.45371" y="56.87588"/><use xlink:href="#o" x="211.73656" y="56.87588"/></svg>