<svg xmlns="http://www.w3.org/2000/svg" xmlns:xlink="http://www.w3.org/1999/xlink" width="347.531" height="350.156" viewBox="0 0 347.531 350.156"><defs><clipPath id="a"><path d="M.1836 189H319v2H.1836Zm0 0"/></clipPath><clipPath id="c"><path d="M159 31h1v318.3125h-1Zm0 0"/></clipPath><clipPath id="e"><path d="M.1836 19H330v183H.1836Zm0 0"/></clipPath><path id="b" d="M.67188-.82812C.67188-.21876 1.15625.25 2.01563.25 3.4375.25 4.25-1.1875 5.125-2.59375l.84375-1.39062h.04688l.375 1.65625C6.79688-.64062 7.17188.25 8.25.25c1.54688 0 2.34375-1.59375 2.96875-2.85937l-.53125-.29688c-.51562.9375-1.09375 2.0625-1.67187 2.0625-.40625 0-.5625-.46875-1.03125-2.35937l-.67188-2.75C8.07813-7.29687 9.14063-8.96875 9.75-8.96875c.625 0 .64063.34375 1.26563.34375.48437 0 .90625-.45312.90625-1.01562 0-.64063-.5-.90625-1.07813-.90625-1.125 0-2.0625 1-2.79687 2.1875L7.125-6.9375h-.03125l-.85937-3.53125-.10938-.07812L2.65625-9.5l.04688.51563 1.65625-.10938c.34375 0 .5.15625.6875 1.04688l.75 3.03125L5.20313-4c-.89063 1.54688-1.67188 2.64063-2.1875 2.64063-.59375 0-.75-.51563-1.42188-.51563-.54687 0-.92187.53125-.92187 1.04688m0 0"/><path id="d" d="M0 3.9375C0 4.5.625 5.07813 1.54688 5.07813c1.78125 0 2.54687-1.32813 4.40625-4.51563C6.375-.15625 7.64063-2.375 8.9375-4.51562c1.21875-1.96875 2.53125-4 2.53125-4.85938 0-.73437-.21875-1.17187-.375-1.17187-.40625 0-1.125.17187-1.65625.53125 0 0-.0625 2.14062-.26562 2.89062-.34375 1.17188-1.5625 3.45313-2.95313 5.84375h-.0625C6-4.5 5.59375-8.92187 5.29688-10.46875l-.15625-.07812-3.53125 1 .0625.53125L3.125-9.0625c.4375 0 .51563.35938.70313 1.4375.21875 1.625.6875 5.6875.6875 7.35938 0 .625-.01563 1.46875-.48438 2.59375-.39062.875-.92187 1.5-1.34375 1.5-.76562 0-.85937-1.17188-1.60937-1.17188C.53125 2.65625 0 3.32813 0 3.9375m0 0"/></defs><g clip-path="url(#a)"><path fill="none" stroke="#000" stroke-miterlimit="10" stroke-width=".39754" d="M.5782 190.05078h317.73814"/></g><path fill="none" stroke="#000" stroke-linecap="round" stroke-linejoin="round" stroke-miterlimit="10" stroke-width=".39754" d="M316.44922 187.66406c.375 1.4336 1.21875 2.10938 2.0664 2.38672-.84765.27734-1.6914.95313-2.0664 2.38281"/><use xlink:href="#b" x="326.61209" y="195.20449"/><g clip-path="url(#c)"><path fill="none" stroke="#000" stroke-miterlimit="10" stroke-width=".39754" d="M159.64844 349.11712V31.37898"/></g><path fill="none" stroke="#000" stroke-linecap="round" stroke-linejoin="round" stroke-miterlimit="10" stroke-width=".39754" d="M157.26172 33.25c1.42969-.3789 2.10547-1.22266 2.38672-2.07031.27734.84765.95312 1.6914 2.3828 2.0703"/><use xlink:href="#d" x="153.26192" y="18.00759"/><g clip-path="url(#e)"><path fill="none" stroke="#007F7F" stroke-miterlimit="10" stroke-width=".7951" d="M.5782 30.98444S10.15632 49.6485 13.836 56.39068c3.67578 6.74219 9.57422 17.0664 13.2539 23.1953 3.67969 6.13282 9.57812 15.47266 13.2539 20.98828 3.67969 5.51953 9.57812 13.875 13.25781 18.77733 3.67578 4.90625 9.57421 12.28125 13.2539 16.5703 3.67969 4.29298 9.57812 10.6836 13.2539 14.35938 3.67969 3.67968 9.57812 9.08593 13.2578 12.15234 3.67579 3.0664 9.57422 7.48827 13.2539 9.9414 3.6797 2.45312 9.57813 5.89453 13.2539 7.73046 3.6797 1.83985 9.57813 4.30078 13.25781 5.52734 3.67578 1.22657 9.57813 2.69922 13.2539 3.3125 3.6797.61328 9.57813 1.10547 13.25781 1.10547 3.67578 0 9.57422-.49219 13.2539-1.10547 3.67969-.60937 9.57812-2.08593 13.2539-3.3125 3.67969-1.22656 9.57812-3.68359 13.2578-5.51952 3.67579-1.83985 9.57422-5.28125 13.25391-7.73047 3.67969-2.45312 9.57812-6.8789 13.2539-9.9414 3.67969-3.0664 9.57812-8.47265 13.2578-12.15234 3.67579-3.67578 9.57422-10.0664 13.2539-14.35546 3.6797-4.29297 9.57813-11.66406 13.2539-16.5703 3.6797-4.90235 9.57813-13.25781 13.25781-18.77734 3.67578-5.51563 9.57422-14.85547 13.2539-20.98437 3.67969-6.1289 9.57812-16.45312 13.2539-23.1953 3.67969-6.74219 13.25781-25.40233 13.25781-25.40233"/></g></svg>