<svg xmlns="http://www.w3.org/2000/svg" xmlns:xlink="http://www.w3.org/1999/xlink" width="231.95pt" height="233.703pt" viewBox="0 0 231.95 233.703"><defs><clipPath id="a"><path d="M.1211 126H213v2H.1211Zm0 0"/></clipPath><clipPath id="c"><path d="M106 20h1v213.40625h-1Zm0 0"/></clipPath><clipPath id="e"><path d="M63 20h2v213.40625h-2Zm0 0"/></clipPath><clipPath id="f"><path d="M148 20h2v213.40625h-2Zm0 0"/></clipPath><path id="b" d="M.45313-.54687c0 .39062.32812.71875.89062.71875.95313 0 1.48438-.96875 2.07813-1.90625l.5625-.92188h.03125l.25 1.10938C4.53125-.4375 4.79688.17188 5.5.17188c1.03125 0 1.57813-1.0625 1.98438-1.92188L7.125-1.9375c-.32812.625-.71875 1.375-1.10937 1.375-.26563 0-.375-.3125-.6875-1.57812L4.875-3.96875c.51563-.89062 1.23438-2.01562 1.625-2.01562.42188 0 .4375.21875.85938.21875.3125 0 .59375-.29688.59375-.67188 0-.42187-.32813-.60937-.71875-.60937-.75 0-1.375.67187-1.85938 1.46875l-.60937.95312h-.03125l-.57813-2.35937-.0625-.0625-2.3125.70312L1.8125-6l1.09375-.07812c.23438 0 .32813.10937.46875.70312l.48438 2.03125-.375.67188C2.875-1.64062 2.35938-.90625 2.01563-.90625 1.60938-.90625 1.5-1.25 1.0625-1.25c-.35937 0-.60937.35938-.60937.70313m0 0"/><path id="d" d="M0 2.625c0 .375.42188.76563 1.03125.76563 1.1875 0 1.70313-.89063 2.9375-3.01563.28125-.48437 1.14063-1.95312 2-3.39062.8125-1.3125 1.6875-2.67188 1.6875-3.23438 0-.5-.15625-.79687-.25-.79687-.28125 0-.75.125-1.10937.35937 0 0-.04688 1.4375-.17188 1.92188-.23437.79687-1.04687 2.3125-1.98437 3.92187h-.03125C4-3 3.73438-5.95312 3.53125-6.98437l-.09375-.0625-2.35937.67187.04687.35938.96875-.03125c.28125 0 .34375.25.45313.95312C2.70313-4 3.01563-1.29687 3.01563-.17187c0 .40625-.01563.98437-.32813 1.71875-.25.59375-.60937 1-.89062 1-.51563 0-.57813-.76563-1.07813-.76563C.35938 1.78125 0 2.21875 0 2.625m0 0"/></defs><g clip-path="url(#a)"><path fill="none" stroke="#000" stroke-miterlimit="10" stroke-width=".39799" d="M.32029 126.84375h211.93364"/></g><path fill="none" stroke="#000" stroke-linecap="round" stroke-linejoin="round" stroke-miterlimit="10" stroke-width=".39799" d="M210.38281 124.45703c.3789 1.42969 1.21875 2.10938 2.07031 2.38672-.85156.27734-1.6914.95703-2.0703 2.38672"/><use xlink:href="#b" x="217.92244" y="130.28443"/><g clip-path="url(#c)"><path fill="none" stroke="#000" stroke-miterlimit="10" stroke-width=".39799" d="M106.48437 233.00784V21.0781"/></g><path fill="none" stroke="#000" stroke-linecap="round" stroke-linejoin="round" stroke-miterlimit="10" stroke-width=".39799" d="M104.09766 22.94531c1.43359-.375 2.10937-1.21875 2.38671-2.0664.27735.84765.95704 1.6914 2.39063 2.0664"/><use xlink:href="#d" x="102.22447" y="12.01873"/><g clip-path="url(#e)"><path fill="none" stroke="#007f7f" stroke-miterlimit="10" stroke-width=".796" d="M64.01952 233.00784V20.67966"/></g><g clip-path="url(#f)"><path fill="none" stroke="#007f7f" stroke-miterlimit="10" stroke-width=".796" d="M148.95313 233.00784V20.67966"/></g></svg>