<svg xmlns="http://www.w3.org/2000/svg" xmlns:xlink="http://www.w3.org/1999/xlink" width="347.332" height="350.156" viewBox="0 0 347.332 350.156"><defs><clipPath id="a"><path d="M.08594 189H319v2H.08594Zm0 0"/></clipPath><clipPath id="c"><path d="M159 31h1v318.3125h-1Zm0 0"/></clipPath><path id="b" d="M.67188-.82812C.67188-.21876 1.15625.25 2.01563.25 3.4375.25 4.25-1.1875 5.125-2.59375l.84375-1.39062h.04688l.375 1.65625C6.79688-.64062 7.17188.25 8.25.25c1.54688 0 2.34375-1.59375 2.96875-2.85937l-.53125-.29688c-.51562.9375-1.09375 2.0625-1.67187 2.0625-.40625 0-.5625-.46875-1.03125-2.35937l-.67188-2.75C8.07813-7.29687 9.14063-8.96875 9.75-8.96875c.625 0 .64063.34375 1.26563.34375.48437 0 .90625-.45312.90625-1.01562 0-.64063-.5-.90625-1.07813-.90625-1.125 0-2.0625 1-2.79687 2.1875L7.125-6.9375h-.03125l-.85937-3.53125-.10938-.07812L2.65625-9.5l.04688.51563 1.65625-.10938c.34375 0 .5.15625.6875 1.04688l.75 3.03125L5.20313-4c-.89063 1.54688-1.67188 2.64063-2.1875 2.64063-.59375 0-.75-.51563-1.42188-.51563-.54687 0-.92187.53125-.92187 1.04688m0 0"/><path id="d" d="M0 3.9375C0 4.5.625 5.07813 1.54688 5.07813c1.78125 0 2.54687-1.32813 4.40625-4.51563C6.375-.15625 7.64063-2.375 8.9375-4.51562c1.21875-1.96875 2.53125-4 2.53125-4.85938 0-.73437-.21875-1.17187-.375-1.17187-.40625 0-1.125.17187-1.65625.53125 0 0-.0625 2.14062-.26562 2.89062-.34375 1.17188-1.5625 3.45313-2.95313 5.84375h-.0625C6-4.5 5.59375-8.92187 5.29688-10.46875l-.15625-.07812-3.53125 1 .0625.53125L3.125-9.0625c.4375 0 .51563.35938.70313 1.4375.21875 1.625.6875 5.6875.6875 7.35938 0 .625-.01563 1.46875-.48438 2.59375-.39062.875-.92187 1.5-1.34375 1.5-.76562 0-.85937-1.17188-1.60937-1.17188C.53125 2.65625 0 3.32813 0 3.9375m0 0"/></defs><g clip-path="url(#a)"><path fill="none" stroke="#000" stroke-miterlimit="10" stroke-width=".39754" d="M.28132 190.05078h317.73814"/></g><path fill="none" stroke="#000" stroke-linecap="round" stroke-linejoin="round" stroke-miterlimit="10" stroke-width=".39754" d="M316.14844 187.66406c.3789 1.4336 1.22265 2.10938 2.07031 2.38672-.84766.27734-1.6914.95313-2.07031 2.38281"/><use xlink:href="#b" x="326.31406" y="195.20449"/><g clip-path="url(#c)"><path fill="none" stroke="#000" stroke-miterlimit="10" stroke-width=".39754" d="M159.34766 349.11712V31.37898"/></g><path fill="none" stroke="#000" stroke-linecap="round" stroke-linejoin="round" stroke-miterlimit="10" stroke-width=".39754" d="M156.96484 33.25c1.4297-.3789 2.10547-1.22266 2.38282-2.07031.27734.84765.95312 1.6914 2.38671 2.0703"/><use xlink:href="#d" x="152.9639" y="18.00759"/><path fill="none" stroke="#007F7F" stroke-miterlimit="10" stroke-width=".7951" d="M286.6015 190.05078c0-35.1406-56.97262-63.62888-127.25384-63.62888S32.0938 154.91017 32.0938 190.05078s56.97263 63.62497 127.25385 63.62497S286.6015 225.1914 286.6015 190.05078Zm0 0"/></svg>