<svg xmlns="http://www.w3.org/2000/svg" xmlns:xlink="http://www.w3.org/1999/xlink" width="232.149pt" height="233.504pt" viewBox="0 0 232.149 233.504"><defs><path id="a" d="M.45313-.54687c0 .39062.32812.70312.89062.70312.95313 0 1.48438-.95312 2.0625-1.89062l.5625-.92188H4l.26563 1.10938C4.53125-.4375 4.78125.15624 5.5.15624c1.01563 0 1.5625-1.04687 1.96875-1.90625L7.125-1.9375c-.34375.625-.73437 1.375-1.125 1.375-.26562 0-.375-.3125-.6875-1.5625L4.875-3.95312c.5-.90625 1.21875-2.01563 1.625-2.01563s.42188.21875.84375.21875c.3125 0 .59375-.29687.59375-.67187 0-.42188-.32812-.60938-.71875-.60938-.73437 0-1.35937.67188-1.85937 1.46875L4.75-4.60937h-.03125l-.5625-2.35938-.07812-.0625-2.3125.70313.03124.34375 1.10938-.07813c.21875 0 .32813.10938.45313.70313l.5 2.03125-.39063.65625C2.875-1.64062 2.35938-.90625 2.01563-.90625 1.60938-.90625 1.5-1.25 1.0625-1.25c-.35937 0-.60937.35938-.60937.70313m0 0"/><path id="c" d="M0 2.625c0 .375.42188.75 1.03125.75 1.1875 0 1.6875-.875 2.92188-3 .29687-.48437 1.14062-1.95312 2-3.39062.8125-1.29688 1.6875-2.65625 1.6875-3.21875 0-.5-.15625-.79688-.25-.79688-.26563 0-.75.125-1.10938.35938 0 0-.04687 1.4375-.17187 1.92187C5.875-3.95312 5.0625-2.4375 4.14063-.84375h-.04688c-.10937-2.15625-.375-5.09375-.5625-6.125l-.10937-.0625-2.34375.67188L1.10937-6l.96876-.03125c.29687 0 .34375.23438.46875.95313.14062 1.09375.46875 3.78125.46875 4.90625 0 .40625-.01563.96875-.32813 1.71875-.26562.57812-.625 1-.90625 1-.5 0-.5625-.78125-1.0625-.78125C.35938 1.76563 0 2.21875 0 2.625m0 0"/><clipPath id="b"><path d="M106 21h1v211.83203h-1Zm0 0"/></clipPath></defs><path fill="none" stroke="#000" stroke-miterlimit="10" stroke-width=".39705" d="M.3945 126.72266h211.42976"/><path fill="none" stroke="#000" stroke-linecap="round" stroke-linejoin="round" stroke-miterlimit="10" stroke-width=".39705" d="M209.95703 124.33984c.3789 1.42969 1.21875 2.10547 2.0664 2.38282-.84765.27734-1.6875.95312-2.0664 2.3828"/><use xlink:href="#a" x="217.47878" y="130.15288"/><g clip-path="url(#b)"><path fill="none" stroke="#000" stroke-miterlimit="10" stroke-width=".39705" d="M106.3086 232.63285V21.20699"/></g><path fill="none" stroke="#000" stroke-linecap="round" stroke-linejoin="round" stroke-miterlimit="10" stroke-width=".39705" d="M103.92578 23.07422c1.42969-.3789 2.10547-1.21875 2.38281-2.0664.27735.84765.95313 1.6875 2.38282 2.0664"/><use xlink:href="#c" x="102.05688" y="12.17037"/><path fill="none" stroke="#007f7f" stroke-miterlimit="10" stroke-width=".7941" d="M.3945 20.81246s6.3789 12.42579 8.82812 16.91407c2.44922 4.49219 6.375 11.36328 8.82422 15.44532 2.44922 4.08203 6.37891 10.30078 8.82813 13.97266 2.44922 3.67578 6.375 9.23828 8.82422 12.50391s6.375 8.17578 8.82422 11.03516c2.44922 2.85547 6.37891 7.10938 8.82813 9.5586s6.375 6.05078 8.82422 8.08984c2.44922 2.04297 6.37891 4.98829 8.82813 6.6211s6.375 3.92188 8.82423 5.14844c2.44921 1.22266 6.375 2.86328 8.82422 3.67969s6.3789 1.79687 8.82813 2.20703c2.44922.40625 6.375.73438 8.82422.73438s6.3789-.32813 8.82813-.73438c2.44921-.41016 6.375-1.39063 8.82422-2.20703s6.3789-2.45313 8.82422-3.67578c2.44922-1.22657 6.3789-3.51563 8.82813-5.14844 2.44922-1.63282 6.375-4.57813 8.82422-6.6172 2.44922-2.04296 6.3789-5.64453 8.82813-8.09375 2.44922-2.44531 6.375-6.70312 8.82422-9.5586 2.44922-2.85546 6.3789-7.76562 8.82813-11.03125 2.44531-3.26562 6.375-8.82813 8.82422-12.5039 2.44922-3.67188 6.375-9.89064 8.82422-13.97267 2.44922-4.07813 6.37891-10.95313 8.82813-15.44141 2.44922-4.4922 8.82422-16.91407 8.82422-16.91407"/></svg>