<svg xmlns="http://www.w3.org/2000/svg" xmlns:xlink="http://www.w3.org/1999/xlink" width="231.95pt" height="233.504pt" viewBox="0 0 231.95 233.504"><defs><clipPath id="a"><path d="M.22266 126H213v1H.22266Zm0 0"/></clipPath><clipPath id="c"><path d="M106 20h1v213.00781h-1Zm0 0"/></clipPath><path id="b" d="M.45313-.54687c0 .39062.32812.70312.89062.70312.95313 0 1.48438-.95312 2.0625-1.89062l.57813-.92188h.03125l.25 1.10938C4.53125-.4375 4.78125.15624 5.5.15624c1.03125 0 1.5625-1.04687 1.98438-1.90625L7.125-1.9375c-.34375.625-.73437 1.375-1.125 1.375-.26562 0-.35937-.3125-.67187-1.5625L4.875-3.96875c.5-.89062 1.21875-2.01562 1.625-2.01562.42188 0 .4375.23437.84375.23437.3125 0 .59375-.29687.59375-.67187 0-.4375-.32812-.60938-.70312-.60938-.75 0-1.375.67188-1.875 1.45313L4.75-4.625h-.03125l-.5625-2.34375-.07812-.0625-2.29688.70313L1.79688-6l1.10937-.0625c.21875 0 .32813.09375.46875.70313l.48438 2.01562-.39063.67188C2.875-1.64062 2.35938-.90625 2.01563-.90625 1.60938-.90625 1.5-1.25 1.0625-1.25c-.35937 0-.60937.35938-.60937.70313m0 0"/><path id="d" d="M0 2.625c0 .375.42188.76563 1.03125.76563 1.1875 0 1.70313-.89063 2.9375-3.01563.28125-.48437 1.125-1.95312 2-3.39062.79688-1.3125 1.67188-2.65625 1.67188-3.23438 0-.48437-.14063-.78125-.25-.78125-.26563 0-.75.10938-1.09375.35938 0 0-.04688 1.42187-.1875 1.92187-.21875.78125-1.04688 2.3125-1.96875 3.90625h-.04688C4-3 3.71875-5.95312 3.53125-6.96875l-.10937-.0625-2.34375.67188L1.125-6l.96875-.03125c.28125 0 .34375.23438.45313.95313C2.70313-4 3.01563-1.29687 3.01563-.17187c0 .40625-.01563.98437-.32813 1.71875-.25.57812-.60937 1-.90625 1-.5 0-.5625-.76563-1.0625-.76563C.35938 1.78125 0 2.21875 0 2.625m0 0"/></defs><g clip-path="url(#a)"><path fill="none" stroke="#000" stroke-miterlimit="10" stroke-width=".39766" d="M.418 126.73828h211.75384"/></g><path fill="none" stroke="#000" stroke-linecap="round" stroke-linejoin="round" stroke-miterlimit="10" stroke-width=".39766" d="M210.30078 124.35156c.3789 1.4297 1.21875 2.10547 2.07031 2.38672-.85156.27735-1.6914.95313-2.0703 2.38281"/><use xlink:href="#b" x="217.83563" y="130.17349"/><g clip-path="url(#c)"><path fill="none" stroke="#000" stroke-miterlimit="10" stroke-width=".39766" d="M106.49219 232.81246V21.05863"/></g><path fill="none" stroke="#000" stroke-linecap="round" stroke-linejoin="round" stroke-miterlimit="10" stroke-width=".39766" d="M104.10547 22.92969c1.4336-.3789 2.10937-1.22266 2.38672-2.07032.28125.84766.95703 1.69141 2.38672 2.07032"/><use xlink:href="#d" x="102.23618" y="12.00949"/><path fill="none" stroke="#007f7f" stroke-miterlimit="10" stroke-width=".79532" d="M191.35153 126.73828c0-23.43358-37.99217-42.42967-84.85934-42.42967s-84.85935 18.99609-84.85935 42.42967 37.99218 42.42967 84.85935 42.42967 84.85934-18.99608 84.85934-42.42967Zm0 0"/></svg>