<svg xmlns="http://www.w3.org/2000/svg" xmlns:xlink="http://www.w3.org/1999/xlink" width="232.267pt" height="233.504pt" viewBox="0 0 232.267 233.504"><defs><path id="a" d="M.45313-.54687c0 .39062.32812.70312.89062.70312.95313 0 1.48438-.95312 2.0625-1.89062l.5625-.92188H4l.26563 1.10938C4.53125-.4375 4.78125.15624 5.5.15624c1.01563 0 1.5625-1.04687 1.96875-1.90625L7.125-1.9375c-.34375.625-.73437 1.375-1.125 1.375-.26562 0-.375-.3125-.6875-1.5625L4.875-3.95312c.5-.90625 1.21875-2.01563 1.625-2.01563s.42188.21875.84375.21875c.3125 0 .59375-.29687.59375-.67187 0-.42188-.32812-.60938-.71875-.60938-.73437 0-1.35937.67188-1.85937 1.46875L4.75-4.60937h-.03125l-.5625-2.35938-.07812-.0625-2.3125.70313.03124.34375 1.10938-.07813c.21875 0 .32813.10938.45313.70313l.5 2.03125-.39063.65625C2.875-1.64062 2.35938-.90625 2.01563-.90625 1.60938-.90625 1.5-1.25 1.0625-1.25c-.35937 0-.60937.35938-.60937.70313m0 0"/><path id="c" d="M0 2.625c0 .375.42188.75 1.03125.75 1.1875 0 1.6875-.875 2.92188-3 .29687-.48437 1.14062-1.95312 2-3.39062.8125-1.29688 1.6875-2.65625 1.6875-3.21875 0-.5-.15625-.79688-.25-.79688-.26563 0-.75.125-1.10938.35938 0 0-.04687 1.4375-.17187 1.92187C5.875-3.95312 5.0625-2.4375 4.14063-.84375h-.04688c-.10937-2.15625-.375-5.09375-.5625-6.125l-.10937-.0625-2.34375.67188L1.10937-6l.96876-.03125c.29687 0 .34375.23438.46875.95313.14062 1.09375.46875 3.78125.46875 4.90625 0 .40625-.01563.96875-.32813 1.71875-.26562.57812-.625 1-.90625 1-.5 0-.5625-.78125-1.0625-.78125C.35938 1.76563 0 2.21875 0 2.625m0 0"/><clipPath id="b"><path d="M106 20h1v212.89063h-1Zm0 0"/></clipPath></defs><path fill="none" stroke="#000" stroke-miterlimit="10" stroke-width=".39724" d="M.51563 126.72656h211.53124"/><path fill="none" stroke="#000" stroke-linecap="round" stroke-linejoin="round" stroke-miterlimit="10" stroke-width=".39724" d="M210.1836 124.34375c.375 1.42969 1.21484 2.10547 2.0625 2.38281-.84766.27735-1.6875.95313-2.0625 2.38281"/><use xlink:href="#a" x="217.70795" y="130.15969"/><g clip-path="url(#b)"><path fill="none" stroke="#000" stroke-miterlimit="10" stroke-width=".39724" d="M106.48047 232.6914V21.15626"/></g><path fill="none" stroke="#000" stroke-linecap="round" stroke-linejoin="round" stroke-miterlimit="10" stroke-width=".39724" d="M104.09766 23.02344c1.42968-.375 2.10546-1.21875 2.3828-2.0625.27735.84375.95313 1.6875 2.38282 2.0625"/><use xlink:href="#c" x="102.22639" y="12.11721"/><path fill="none" stroke="#007f7f" stroke-miterlimit="10" stroke-width=".7945" d="M.39454 211.64452 212.56249 41.8086m-212.16795 0 212.16795 169.83592"/></svg>