<svg xmlns="http://www.w3.org/2000/svg" xmlns:xlink="http://www.w3.org/1999/xlink" width="232.261pt" height="233.504pt" viewBox="0 0 232.261 233.504"><defs><path id="a" d="M.45313-.54687c0 .39062.32812.70312.89062.70312.95313 0 1.48438-.95312 2.0625-1.89062l.5625-.92188H4l.26563 1.10938C4.53125-.4375 4.78125.15624 5.5.15624c1.01563 0 1.5625-1.04687 1.96875-1.90625L7.125-1.9375c-.34375.625-.73437 1.375-1.125 1.375-.26562 0-.375-.3125-.6875-1.5625L4.875-3.95312c.5-.90625 1.21875-2.01563 1.625-2.01563s.42188.21875.84375.21875c.3125 0 .59375-.29687.59375-.67187 0-.42188-.32812-.60938-.71875-.60938-.73437 0-1.35937.67188-1.85937 1.46875L4.75-4.60937h-.03125l-.5625-2.35938-.07812-.0625-2.3125.70313.03124.34375 1.10938-.07813c.21875 0 .32813.10938.45313.70313l.5 2.03125-.39063.65625C2.875-1.64062 2.35938-.90625 2.01563-.90625 1.60938-.90625 1.5-1.25 1.0625-1.25c-.35937 0-.60937.35938-.60937.70313m0 0"/><path id="c" d="M0 2.625c0 .375.42188.75 1.03125.75 1.1875 0 1.6875-.875 2.92188-3 .29687-.48437 1.14062-1.95312 2-3.39062.8125-1.29688 1.6875-2.65625 1.6875-3.21875 0-.5-.15625-.79688-.25-.79688-.26563 0-.75.125-1.10938.35938 0 0-.04687 1.4375-.17187 1.92187C5.875-3.95312 5.0625-2.4375 4.14063-.84375h-.04688c-.10937-2.15625-.375-5.09375-.5625-6.125l-.10937-.0625-2.34375.67188L1.10937-6l.96876-.03125c.29687 0 .34375.23438.46875.95313.14062 1.09375.46875 3.78125.46875 4.90625 0 .40625-.01563.96875-.32813 1.71875-.26562.57812-.625 1-.90625 1-.5 0-.5625-.78125-1.0625-.78125C.35938 1.76563 0 2.21875 0 2.625m0 0"/><clipPath id="b"><path d="M106 20h1v212.88672h-1Zm0 0"/></clipPath></defs><path fill="none" stroke="#000" stroke-miterlimit="10" stroke-width=".39724" d="M.50785 126.72656h211.53118"/><path fill="none" stroke="#000" stroke-linecap="round" stroke-linejoin="round" stroke-miterlimit="10" stroke-width=".39724" d="M210.17188 124.34375c.375 1.42969 1.21874 2.10547 2.0625 2.38281-.84376.27735-1.6875.95313-2.0625 2.38281"/><use xlink:href="#a" x="217.69634" y="130.15934"/><g clip-path="url(#b)"><path fill="none" stroke="#000" stroke-miterlimit="10" stroke-width=".39724" d="M106.47266 232.69137V21.1602"/></g><path fill="none" stroke="#000" stroke-linecap="round" stroke-linejoin="round" stroke-miterlimit="10" stroke-width=".39724" d="M104.08594 23.02734c1.4336-.3789 2.10547-1.21875 2.38672-2.0664.27734.84765.95312 1.6875 2.3828 2.0664"/><use xlink:href="#c" x="102.21777" y="12.11992"/><path fill="none" stroke="#000" stroke-dasharray="2.9793554089 2.9793554089" stroke-miterlimit="10" stroke-width=".39724" d="M.39066 211.6445 212.55075 41.80862m-212.16009 0L212.55075 211.6445"/><path fill="none" stroke="#007f7f" stroke-miterlimit="10" stroke-width=".79448" d="M.39457 211.6445s5.42578-6.86718 7.34765-9.3828c1.92578-2.51563 4.82031-6.39454 6.51953-8.7461 1.70312-2.34765 4.25-5.98046 5.74219-8.18359 1.49218-2.20312 3.71874-5.61328 5.01562-7.6914 1.29687-2.07422 3.21875-5.29688 4.33203-7.26172 1.10937-1.96484 2.7461-5.02343 3.67968-6.89453.9375-1.86718 2.29688-4.79296 3.06641-6.58593s1.86719-4.60156 2.47266-6.33203c.60937-1.73047 1.45312-4.44922 1.90624-6.13281.44922-1.67969 1.04688-4.33594 1.34766-5.98047.29688-1.64844.65625-4.25781.80469-5.88672.14843-1.625.26562-4.21484.26562-5.83593 0-1.61719-.11719-4.20703-.26562-5.83203-.14844-1.6289-.5039-4.24219-.80469-5.88672-.29687-1.64843-.89453-4.30078-1.34375-5.98437-.45312-1.67969-1.29687-4.40234-1.90234-6.1289-.60938-1.73047-1.70703-4.53907-2.47266-6.33203-.76953-1.79297-2.1289-4.71485-3.0664-6.58594-.9336-1.8711-2.57032-4.92969-3.67969-6.89453-1.11328-1.96094-3.03125-5.1875-4.32812-7.26171-1.29688-2.07422-3.52344-5.48828-5.01563-7.6914-1.49609-2.19923-4.04296-5.83204-5.74218-8.1797-1.70313-2.34765-4.59375-6.22655-6.51562-8.74218-1.92579-2.51562-7.34766-9.3789-7.34766-9.3789M212.54684 211.6445s-5.42187-6.86718-7.34765-9.3828c-1.92188-2.51563-4.8164-6.39454-6.51953-8.7461-1.69922-2.34765-4.25-5.98046-5.74219-8.18359-1.49218-2.20312-3.71875-5.61328-5.01562-7.6914-1.29688-2.07422-3.21875-5.29688-4.32812-7.26172-1.11329-1.96484-2.7461-5.02343-3.6836-6.89453-.9375-1.86718-2.29687-4.79296-3.0664-6.58593s-1.86719-4.60156-2.47266-6.33203c-.60937-1.73047-1.45312-4.44922-1.90234-6.13281-.45313-1.67969-1.05078-4.33594-1.35156-5.98047-.29688-1.64844-.65235-4.25781-.80078-5.88672-.14844-1.625-.26954-4.21484-.26954-5.83593 0-1.61719.1211-4.20703.26954-5.83203.14843-1.6289.5039-4.24219.80078-5.88672.29687-1.64843.89453-4.30078 1.34765-5.98437.44922-1.67969 1.29297-4.40234 1.90235-6.1289.60546-1.73047 1.70312-4.53907 2.47265-6.33203.76563-1.79297 2.125-4.71485 3.0625-6.58594.9336-1.8711 2.57031-4.92969 3.6836-6.89453 1.10937-1.96094 3.02734-5.1875 4.32421-7.26171 1.29688-2.07422 3.52734-5.48828 5.01953-7.6914 1.49219-2.19923 4.03906-5.83204 5.73828-8.1797 1.70312-2.34765 4.59375-6.22655 6.51953-8.74218 1.92187-2.51562 7.34375-9.3789 7.34375-9.3789"/></svg>