<svg xmlns="http://www.w3.org/2000/svg" xmlns:xlink="http://www.w3.org/1999/xlink" width="347.332" height="350.355" viewBox="0 0 347.332 350.355"><defs><clipPath id="b"><path d="M159 31h1v318.69531h-1Zm0 0"/></clipPath><clipPath id="d"><path d="M95 30h2v319.69531h-2Zm0 0"/></clipPath><clipPath id="e"><path d="M222 30h2v319.69531h-2Zm0 0"/></clipPath><path id="a" d="M.67188-.82812C.67188-.21876 1.15625.25 2.01563.25 3.45313.25 4.25-1.1875 5.125-2.59375l.84375-1.39062h.04688l.39062 1.65625C6.79688-.65625 7.1875.25 8.25.25c1.54688 0 2.35938-1.59375 2.98438-2.875l-.54688-.28125c-.5.9375-1.09375 2.0625-1.67187 2.0625-.40625 0-.5625-.46875-1.03125-2.35937l-.67188-2.75C8.07813-7.29687 9.15625-8.96875 9.75-8.96875c.625 0 .65625.32813 1.28125.32813.46875 0 .89063-.4375.89063-1 0-.65625-.48438-.92188-1.0625-.92188-1.125 0-2.0625 1.01563-2.79688 2.1875l-.92187 1.4375h-.04688L6.25-10.46875l-.125-.09375-3.46875 1.04688L2.70313-9l1.65625-.10937c.34375 0 .5.15625.70312 1.04687l.73438 3.04688L5.21875-4c-.90625 1.53125-1.6875 2.64063-2.20312 2.64063-.59375 0-.75-.51563-1.42188-.51563-.54687 0-.92187.53125-.92187 1.04688m0 0"/><path id="c" d="M0 3.9375C0 4.5.625 5.07813 1.54688 5.07813c1.78125 0 2.54687-1.3125 4.40625-4.51563.42187-.71875 1.70312-2.9375 3-5.07812 1.20312-1.96875 2.53125-4.01563 2.53125-4.85938 0-.73437-.23438-1.1875-.39063-1.1875-.40625 0-1.10937.1875-1.65625.53125 0 0-.0625 2.15625-.26562 2.89063-.32813 1.1875-1.5625 3.46875-2.95313 5.85937h-.0625C6-4.5 5.59375-8.92187 5.29688-10.46875l-.15625-.09375-3.53125 1.01563.0625.53125L3.125-9.0625c.4375 0 .51563.35938.70313 1.4375.21875 1.625.6875 5.67188.6875 7.35938 0 .625-.01563 1.46875-.48438 2.59375-.39062.875-.92187 1.5-1.34375 1.5-.76562 0-.85937-1.17188-1.60937-1.17188C.53125 2.65625 0 3.32813 0 3.9375m0 0"/></defs><path fill="none" stroke="#000" stroke-miterlimit="10" stroke-width=".39773" d="M.19539 190.15625h317.89438"/><path fill="none" stroke="#000" stroke-linecap="round" stroke-linejoin="round" stroke-miterlimit="10" stroke-width=".39773" d="M316.21875 187.76953c.3789 1.4336 1.21875 2.10938 2.07031 2.38672-.85156.27734-1.6914.95313-2.0703 2.38672"/><use xlink:href="#a" x="326.38828" y="195.31377"/><g clip-path="url(#b)"><path fill="none" stroke="#000" stroke-miterlimit="10" stroke-width=".39773" d="M159.33984 349.3007V31.41024"/></g><path fill="none" stroke="#000" stroke-linecap="round" stroke-linejoin="round" stroke-miterlimit="10" stroke-width=".39773" d="M156.95703 33.27734c1.42969-.375 2.10547-1.21875 2.38281-2.0664.28125.84765.95703 1.6914 2.38672 2.0664"/><use xlink:href="#c" x="152.95383" y="18.03073"/><g clip-path="url(#d)"><path fill="none" stroke="#007F7F" stroke-miterlimit="10" stroke-width=".79548" d="M95.68362 349.3007V31.0118"/></g><g clip-path="url(#e)"><path fill="none" stroke="#007F7F" stroke-miterlimit="10" stroke-width=".79548" d="M222.99997 349.3007V31.0118"/></g></svg>