<svg xmlns="http://www.w3.org/2000/svg" xmlns:xlink="http://www.w3.org/1999/xlink" width="347.699" height="350.156" viewBox="0 0 347.699 350.156"><defs><clipPath id="a"><path d="M.26953 189H319v2H.26953Zm0 0"/></clipPath><clipPath id="c"><path d="M159 31h2v318.3125h-2Zm0 0"/></clipPath><clipPath id="e"><path d="M.26953 56H325v268H.26953Zm0 0"/></clipPath><clipPath id="f"><path d="M.26953 51H76v278H.26953Zm0 0"/></clipPath><path id="b" d="M.67188-.82812C.67188-.21876 1.15625.25 2.01563.25 3.4375.25 4.25-1.1875 5.125-2.59375l.84375-1.39062h.04688l.375 1.65625C6.79688-.64062 7.17188.25 8.25.25c1.54688 0 2.34375-1.59375 2.96875-2.85937l-.53125-.29688c-.51562.9375-1.09375 2.0625-1.67187 2.0625-.40625 0-.5625-.46875-1.03125-2.35937l-.67188-2.75C8.07813-7.29687 9.14063-8.96875 9.75-8.96875c.625 0 .64063.34375 1.26563.34375.48437 0 .90625-.45312.90625-1.01562 0-.64063-.5-.90625-1.07813-.90625-1.125 0-2.0625 1-2.79687 2.1875L7.125-6.9375h-.03125l-.85937-3.53125-.10938-.07812L2.65625-9.5l.04688.51563 1.65625-.10938c.34375 0 .5.15625.6875 1.04688l.75 3.03125L5.20313-4c-.89063 1.54688-1.67188 2.64063-2.1875 2.64063-.59375 0-.75-.51563-1.42188-.51563-.54687 0-.92187.53125-.92187 1.04688m0 0"/><path id="d" d="M0 3.9375C0 4.5.625 5.07813 1.54688 5.07813c1.78125 0 2.54687-1.32813 4.40625-4.51563C6.375-.15625 7.64063-2.375 8.9375-4.51562c1.21875-1.96875 2.53125-4 2.53125-4.85938 0-.73437-.21875-1.17187-.375-1.17187-.40625 0-1.125.17187-1.65625.53125 0 0-.0625 2.14062-.26562 2.89062-.34375 1.17188-1.5625 3.45313-2.95313 5.84375h-.0625C6-4.5 5.59375-8.92187 5.29688-10.46875l-.15625-.07812-3.53125 1 .0625.53125L3.125-9.0625c.4375 0 .51563.35938.70313 1.4375.21875 1.625.6875 5.6875.6875 7.35938 0 .625-.01563 1.46875-.48438 2.59375-.39062.875-.92187 1.5-1.34375 1.5-.76562 0-.85937-1.17188-1.60937-1.17188C.53125 2.65625 0 3.32813 0 3.9375m0 0"/></defs><g clip-path="url(#a)"><path fill="none" stroke="#000" stroke-miterlimit="10" stroke-width=".39754" d="M.8321 190.05078h317.73814"/></g><path fill="none" stroke="#000" stroke-linecap="round" stroke-linejoin="round" stroke-miterlimit="10" stroke-width=".39754" d="M316.69922 187.66406c.3789 1.4336 1.21875 2.10938 2.07031 2.38672-.85156.27734-1.6914.95313-2.07031 2.38281"/><use xlink:href="#b" x="326.86468" y="195.20449"/><g clip-path="url(#c)"><path fill="none" stroke="#000" stroke-miterlimit="10" stroke-width=".39754" d="M159.89844 349.11712V31.37898"/></g><path fill="none" stroke="#000" stroke-linecap="round" stroke-linejoin="round" stroke-miterlimit="10" stroke-width=".39754" d="M157.51563 33.25c1.42968-.3789 2.10546-1.22266 2.3828-2.07031.27735.84765.95313 1.6914 2.38672 2.0703"/><use xlink:href="#d" x="153.51451" y="18.00759"/><g fill="none" stroke="#000" stroke-dasharray="2.98883 2.98883" stroke-miterlimit="10" stroke-width=".3985" clip-path="url(#e)"><path stroke-width=".39754" d="m.65632 317.52338 318.48814-254.9491m-318.48814 0 318.48814 254.9491"/></g><g clip-path="url(#f)"><path fill="none" stroke="#007F7F" stroke-miterlimit="10" stroke-width=".7951" d="M.66413 317.52338s8.14062-10.30859 11.02734-14.08593c2.89063-3.77344 7.23437-9.59765 9.78906-13.125 2.55078-3.52343 6.3789-8.97655 8.61718-12.28515 2.24219-3.30468 5.58203-8.42968 7.52734-11.54296 1.94922-3.11719 4.83594-7.95703 6.5039-10.90234 1.66798-2.94922 4.1211-7.54296 5.52735-10.35156 1.40625-2.80468 3.44922-7.1953 4.60156-9.88671 1.15234-2.6914 2.80078-6.91015 3.71484-9.5039.91016-2.59766 2.17969-6.6836 2.85547-9.20703.67969-2.52344 1.57812-6.5078 2.02343-8.98046.44922-2.47266.98438-6.39063 1.20704-8.83203s.40234-6.33203.40234-8.76172c0-2.42968-.17969-6.3164-.40234-8.7578-.22266-2.44141-.75391-6.36719-1.20313-8.83985-.44531-2.46874-1.34375-6.45312-2.01953-8.97655-.67578-2.52344-1.94531-6.60938-2.85937-9.20703-.91016-2.59375-2.55469-6.8125-3.71094-9.5039-1.15234-2.6875-3.1914-7.07812-4.59765-9.88672-1.40625-2.80468-3.85938-7.39843-5.52734-10.34374-1.66797-2.94922-4.55078-7.79297-6.4961-10.90625-1.9453-3.11328-5.28906-8.23437-7.53124-11.54296-2.24219-3.30469-6.0664-8.75781-8.61719-12.28125-2.55468-3.52343-6.89452-9.34765-9.78124-13.12108C8.82428 72.9141.68757 62.60943.68757 62.60943"/></g><path fill="none" stroke="#007F7F" stroke-miterlimit="10" stroke-width=".7951" d="M319.13274 317.52338s-8.14062-10.30859-11.02734-14.08593c-2.88672-3.77344-7.23437-9.59765-9.78515-13.125-2.55469-3.52343-6.3789-8.97655-8.62109-12.28515-2.23828-3.30468-5.58203-8.42968-7.52734-11.54296-1.94531-3.11719-4.83203-7.95703-6.5039-10.90234-1.66797-2.94922-4.1211-7.54296-5.52734-10.35156-1.40625-2.80468-3.44531-7.1953-4.60156-9.88671-1.15235-2.6914-2.80078-6.91015-3.71094-9.5039-.91406-2.59766-2.17969-6.6836-2.85937-9.20703-.67579-2.52344-1.57422-6.5078-2.02344-8.98046s-.98438-6.39063-1.20703-8.83203-.40234-6.33203-.40234-8.76172c0-2.42968.17968-6.3164.40234-8.7578.22265-2.44141.7539-6.36719 1.20312-8.83985.44922-2.46874 1.34375-6.45312 2.01953-8.97655.6797-2.52344 1.94922-6.60938 2.85938-9.20703.91015-2.59375 2.55859-6.8125 3.71093-9.5039 1.15235-2.6875 3.19531-7.07812 4.59766-9.88672 1.40625-2.80468 3.85937-7.39843 5.52734-10.34374 1.66797-2.94922 4.55078-7.79297 6.49609-10.90625s5.29297-8.23437 7.53125-11.54296c2.24218-3.30469 6.0664-8.75781 8.62109-12.28125 2.55078-3.52343 6.89452-9.34765 9.78124-13.12108 2.88672-3.77735 11.02734-14.08203 11.02734-14.08203"/></svg>