<?xml version="1.0" encoding="UTF-8"?>
<svg xmlns="http://www.w3.org/2000/svg" xmlns:xlink="http://www.w3.org/1999/xlink" width="196.913pt" height="184.082pt" viewBox="0 0 196.913 184.082" version="1.2">
<defs>
<g>
<symbol overflow="visible" id="glyph0-0">
<path style="stroke:none;" d="M 0.84375 0 L 4.828125 0 L 4.828125 -6.4375 L 0.84375 -6.4375 Z M 1.234375 -0.859375 L 1.234375 -5.59375 L 2.609375 -3.21875 Z M 1.421875 -0.390625 L 2.828125 -2.828125 L 4.234375 -0.390625 Z M 1.421875 -6.046875 L 4.234375 -6.046875 L 2.828125 -3.625 Z M 3.046875 -3.21875 L 4.421875 -5.59375 L 4.421875 -0.859375 Z M 3.046875 -3.21875 "/>
</symbol>
<symbol overflow="visible" id="glyph0-1">
<path style="stroke:none;" d="M 0.390625 -0.359375 C 0.390625 -0.09375 0.609375 0.109375 0.984375 0.109375 C 1.625 0.109375 1.984375 -0.53125 2.375 -1.15625 L 2.75 -1.765625 L 2.765625 -1.765625 L 2.9375 -1.03125 C 3.109375 -0.28125 3.28125 0.109375 3.75 0.109375 C 4.4375 0.109375 4.796875 -0.59375 5.078125 -1.15625 L 4.828125 -1.28125 C 4.609375 -0.875 4.34375 -0.375 4.09375 -0.375 C 3.90625 -0.375 3.84375 -0.578125 3.640625 -1.421875 L 3.34375 -2.640625 C 3.671875 -3.234375 4.15625 -3.96875 4.421875 -3.96875 C 4.5 -3.96875 4.59375 -3.96875 4.6875 -3.90625 C 4.78125 -3.859375 4.875 -3.828125 4.984375 -3.828125 C 5.1875 -3.828125 5.375 -4.015625 5.375 -4.265625 C 5.375 -4.5625 5.15625 -4.671875 4.90625 -4.671875 C 4.40625 -4.671875 4 -4.234375 3.671875 -3.703125 L 3.265625 -3.078125 L 3.234375 -3.078125 L 2.859375 -4.640625 L 2.8125 -4.671875 L 1.28125 -4.203125 L 1.296875 -3.984375 L 2 -4.03125 L 2.03125 -4.03125 C 2.171875 -4.03125 2.25 -3.96875 2.34375 -3.5625 L 2.671875 -2.21875 L 2.40625 -1.765625 C 2.015625 -1.09375 1.671875 -0.609375 1.4375 -0.609375 C 1.34375 -0.609375 1.25 -0.640625 1.171875 -0.6875 C 1.078125 -0.75 0.953125 -0.828125 0.796875 -0.828125 C 0.5625 -0.828125 0.390625 -0.59375 0.390625 -0.359375 Z M 0.390625 -0.359375 "/>
</symbol>
<symbol overflow="visible" id="glyph0-2">
<path style="stroke:none;" d="M 0 1.75 C 0 1.984375 0.28125 2.25 0.6875 2.25 C 1.46875 2.25 1.8125 1.671875 2.640625 0.25 C 2.828125 -0.0625 3.390625 -1.046875 3.96875 -2 C 4.5 -2.875 5.078125 -3.78125 5.078125 -4.15625 C 5.078125 -4.484375 4.984375 -4.671875 4.90625 -4.671875 C 4.734375 -4.671875 4.421875 -4.59375 4.1875 -4.4375 L 4.1875 -4.28125 C 4.1875 -3.953125 4.15625 -3.484375 4.0625 -3.15625 C 3.90625 -2.640625 3.375 -1.625 2.75 -0.5625 L 2.71875 -0.5625 C 2.65625 -1.984375 2.484375 -3.953125 2.34375 -4.640625 L 2.28125 -4.671875 L 0.71875 -4.234375 L 0.75 -4 L 1.359375 -4.015625 L 1.390625 -4.015625 C 1.578125 -4.015625 1.609375 -3.859375 1.6875 -3.375 C 1.796875 -2.65625 2 -0.859375 2 -0.125 C 2 0.15625 1.984375 0.53125 1.78125 1.03125 C 1.609375 1.421875 1.375 1.6875 1.1875 1.6875 C 1.046875 1.6875 0.9375 1.59375 0.796875 1.40625 C 0.6875 1.265625 0.609375 1.171875 0.46875 1.171875 C 0.234375 1.1875 0 1.46875 0 1.75 Z M 0 1.75 "/>
</symbol>
<symbol overflow="visible" id="glyph0-3">
<path style="stroke:none;" d="M 4.53125 -2.625 C 4.53125 -3.671875 3.75 -4.453125 2.703125 -4.453125 C 1.625 -4.453125 0.84375 -3.671875 0.84375 -2.625 C 0.84375 -1.5625 1.625 -0.765625 2.703125 -0.765625 C 3.75 -0.765625 4.53125 -1.5625 4.53125 -2.625 Z M 4.53125 -2.625 "/>
</symbol>
<symbol overflow="visible" id="glyph0-4">
<path style="stroke:none;" d="M 1.015625 0 L 4.078125 0 L 4.078125 -0.265625 L 3.28125 -0.34375 C 3.09375 -0.359375 2.984375 -0.421875 2.984375 -0.796875 L 2.984375 -6.28125 L 2.9375 -6.328125 L 1.015625 -6 L 1.015625 -5.78125 L 1.875 -5.671875 C 2.046875 -5.640625 2.09375 -5.578125 2.09375 -5.3125 L 2.09375 -0.796875 C 2.09375 -0.609375 2.078125 -0.5 2.015625 -0.4375 C 1.96875 -0.359375 1.890625 -0.34375 1.796875 -0.34375 L 1.015625 -0.265625 Z M 1.015625 0 "/>
</symbol>
<symbol overflow="visible" id="glyph0-5">
<path style="stroke:none;" d="M 4.640625 -3.390625 C 4.75 -3.9375 4.84375 -4.5 4.84375 -5.03125 C 4.84375 -6.0625 4.5 -6.90625 3.34375 -6.90625 C 1.109375 -6.90625 0.296875 -3.59375 0.296875 -1.71875 C 0.296875 -0.65625 0.65625 0.125 1.8125 0.125 C 3.515625 0.125 4.25 -1.609375 4.640625 -3.390625 Z M 3.796875 -3.671875 L 1.46875 -3.671875 C 1.640625 -4.46875 2.15625 -6.59375 3.265625 -6.59375 C 3.859375 -6.59375 4.015625 -6.015625 4.015625 -5.34375 C 4.015625 -4.75 3.890625 -4.0625 3.796875 -3.671875 Z M 3.71875 -3.34375 C 3.484375 -2.234375 2.96875 -0.15625 1.875 -0.15625 C 1.3125 -0.15625 1.140625 -0.703125 1.140625 -1.390625 C 1.140625 -2.046875 1.28125 -2.796875 1.390625 -3.34375 Z M 3.71875 -3.34375 "/>
</symbol>
<symbol overflow="visible" id="glyph0-6">
<path style="stroke:none;" d="M 6.28125 0 L 3.640625 -6.453125 L 2.9375 -6.453125 L 0.40625 0 Z M 5.09375 -0.5 L 0.984375 -0.5 L 2.984375 -5.59375 Z M 5.09375 -0.5 "/>
</symbol>
<symbol overflow="visible" id="glyph1-0">
<path style="stroke:none;" d="M 0.640625 0 L 3.671875 0 L 3.671875 -4.890625 L 0.640625 -4.890625 Z M 0.9375 -0.65625 L 0.9375 -4.25 L 1.984375 -2.453125 Z M 1.078125 -0.296875 L 2.15625 -2.15625 L 3.21875 -0.296875 Z M 1.078125 -4.59375 L 3.21875 -4.59375 L 2.15625 -2.75 Z M 2.3125 -2.453125 L 3.359375 -4.25 L 3.359375 -0.65625 Z M 2.3125 -2.453125 "/>
</symbol>
<symbol overflow="visible" id="glyph1-1">
<path style="stroke:none;" d="M 0.296875 -2.359375 C 0.296875 -0.953125 0.703125 0.078125 1.875 0.078125 C 3.046875 0.078125 3.46875 -0.953125 3.46875 -2.359375 C 3.46875 -3.78125 3.046875 -4.8125 1.875 -4.8125 C 0.703125 -4.8125 0.296875 -3.78125 0.296875 -2.359375 Z M 1.015625 -2.359375 C 1.015625 -3.515625 1.203125 -4.5625 1.875 -4.5625 C 2.546875 -4.5625 2.734375 -3.515625 2.734375 -2.359375 C 2.734375 -1.21875 2.546875 -0.171875 1.875 -0.171875 C 1.203125 -0.171875 1.015625 -1.21875 1.015625 -2.359375 Z M 1.015625 -2.359375 "/>
</symbol>
<symbol overflow="visible" id="glyph1-2">
<path style="stroke:none;" d="M 3.53125 -2.578125 C 3.609375 -2.984375 3.6875 -3.421875 3.6875 -3.828125 C 3.6875 -4.609375 3.421875 -5.25 2.53125 -5.25 C 0.84375 -5.25 0.21875 -2.71875 0.21875 -1.3125 C 0.21875 -0.5 0.5 0.09375 1.375 0.09375 C 2.671875 0.09375 3.234375 -1.21875 3.53125 -2.578125 Z M 2.890625 -2.796875 L 1.125 -2.796875 C 1.25 -3.390625 1.640625 -5.015625 2.484375 -5.015625 C 2.921875 -5.015625 3.0625 -4.578125 3.0625 -4.0625 C 3.0625 -3.609375 2.953125 -3.09375 2.890625 -2.796875 Z M 2.828125 -2.53125 C 2.65625 -1.703125 2.265625 -0.125 1.421875 -0.125 C 1 -0.125 0.859375 -0.53125 0.859375 -1.0625 C 0.859375 -1.546875 0.984375 -2.125 1.0625 -2.53125 Z M 2.828125 -2.53125 "/>
</symbol>
<symbol overflow="visible" id="glyph2-0">
<path style="stroke:none;" d="M 0.5 0 L 2.90625 0 L 2.90625 -3.875 L 0.5 -3.875 Z M 0.75 -0.515625 L 0.75 -3.359375 L 1.5625 -1.9375 Z M 0.859375 -0.234375 L 1.703125 -1.703125 L 2.546875 -0.234375 Z M 0.859375 -3.625 L 2.546875 -3.625 L 1.703125 -2.171875 Z M 1.828125 -1.9375 L 2.65625 -3.359375 L 2.65625 -0.515625 Z M 1.828125 -1.9375 "/>
</symbol>
<symbol overflow="visible" id="glyph2-1">
<path style="stroke:none;" d="M 0.234375 -1.875 C 0.234375 -0.75 0.5625 0.0625 1.484375 0.0625 C 2.40625 0.0625 2.734375 -0.75 2.734375 -1.875 C 2.734375 -2.984375 2.40625 -3.796875 1.484375 -3.796875 C 0.5625 -3.796875 0.234375 -2.984375 0.234375 -1.875 Z M 0.796875 -1.875 C 0.796875 -2.78125 0.953125 -3.609375 1.484375 -3.609375 C 2.015625 -3.609375 2.171875 -2.78125 2.171875 -1.875 C 2.171875 -0.953125 2.015625 -0.125 1.484375 -0.125 C 0.953125 -0.125 0.796875 -0.953125 0.796875 -1.875 Z M 0.796875 -1.875 "/>
</symbol>
</g>
<clipPath id="clip1">
  <path d="M 98 13 L 100 13 L 100 183.167969 L 98 183.167969 Z M 98 13 "/>
</clipPath>
<clipPath id="clip2">
  <path d="M 42 41 L 156 41 L 156 155 L 42 155 Z M 42 41 "/>
</clipPath>
<clipPath id="clip3">
  <path d="M 155.589844 98.351562 C 155.589844 67.195312 130.332031 41.941406 99.179688 41.941406 C 68.023438 41.941406 42.765625 67.195312 42.765625 98.351562 C 42.765625 129.507812 68.023438 154.765625 99.179688 154.765625 C 130.332031 154.765625 155.589844 129.507812 155.589844 98.351562 Z M 155.589844 98.351562 "/>
</clipPath>
<clipPath id="clip4">
  <path d="M 35.71875 22.726562 L 35.71875 173.976562 L 155.589844 98.351562 Z M 35.71875 22.726562 "/>
</clipPath>
<clipPath id="clip5">
  <path d="M 121 64 L 156 64 L 156 99 L 121 99 Z M 121 64 "/>
</clipPath>
<clipPath id="clip6">
  <path d="M 35.71875 22.726562 L 0.457031 98.351562 L 155.589844 98.351562 Z M 35.71875 22.726562 "/>
</clipPath>
</defs>
<g id="surface1">
<path style="fill:none;stroke-width:0.3985;stroke-linecap:butt;stroke-linejoin:miter;stroke:rgb(0%,0%,0%);stroke-opacity:1;stroke-miterlimit:10;" d="M -85.041297 0.000967305 L 84.581649 0.000967305 " transform="matrix(0.995038,0,0,-0.995038,99.177902,98.352525)"/>
<path style="fill:none;stroke-width:0.31879;stroke-linecap:round;stroke-linejoin:round;stroke:rgb(0%,0%,0%);stroke-opacity:1;stroke-miterlimit:10;" d="M -1.193913 1.594814 C -1.09577 0.998103 -0.000490823 0.0991106 0.297865 0.000967305 C -0.000490823 -0.101102 -1.09577 -0.996168 -1.193913 -1.592879 " transform="matrix(0.995038,0,0,-0.995038,183.340332,98.352525)"/>
<g style="fill:rgb(0%,0%,0%);fill-opacity:1;">
  <use xlink:href="#glyph0-1" x="187.297458" y="100.638127"/>
</g>
<g clip-path="url(#clip1)" clip-rule="nonzero">
<path style="fill:none;stroke-width:0.3985;stroke-linecap:butt;stroke-linejoin:miter;stroke:rgb(0%,0%,0%);stroke-opacity:1;stroke-miterlimit:10;" d="M 0.00179397 -85.042124 L 0.00179397 84.580823 " transform="matrix(0.995038,0,0,-0.995038,99.177902,98.352525)"/>
</g>
<path style="fill:none;stroke-width:0.31879;stroke-linecap:round;stroke-linejoin:round;stroke:rgb(0%,0%,0%);stroke-opacity:1;stroke-miterlimit:10;" d="M -1.194739 1.592052 C -1.096596 0.995341 -0.00131749 0.100275 0.297038 -0.00179397 C -0.00131749 -0.0999372 -1.096596 -0.995004 -1.194739 -1.59564 " transform="matrix(0,-0.995038,-0.995038,0,99.177902,14.190095)"/>
<g style="fill:rgb(0%,0%,0%);fill-opacity:1;">
  <use xlink:href="#glyph0-2" x="96.348015" y="7.983189"/>
</g>
<g style="fill:rgb(0%,0%,0%);fill-opacity:1;">
  <use xlink:href="#glyph0-3" x="96.496275" y="44.166745"/>
</g>
<g style="fill:rgb(0%,0%,0%);fill-opacity:1;">
  <use xlink:href="#glyph0-4" x="102.680436" y="38.439307"/>
</g>
<g style="fill:rgb(0%,0%,0%);fill-opacity:1;">
  <use xlink:href="#glyph0-3" x="152.907956" y="100.578425"/>
</g>
<g style="fill:rgb(0%,0%,0%);fill-opacity:1;">
  <use xlink:href="#glyph0-4" x="159.092116" y="108.189469"/>
</g>
<path style="fill:none;stroke-width:0.3985;stroke-linecap:butt;stroke-linejoin:miter;stroke:rgb(0%,0%,0%);stroke-opacity:1;stroke-miterlimit:10;" d="M 56.693262 0.000967305 C 56.693262 31.312591 31.309492 56.692436 0.00179397 56.692436 C -31.309829 56.692436 -56.6936 31.312591 -56.6936 0.000967305 C -56.6936 -31.310656 -31.309829 -56.694427 0.00179397 -56.694427 C 31.309492 -56.694427 56.693262 -31.310656 56.693262 0.000967305 Z M 56.693262 0.000967305 " transform="matrix(0.995038,0,0,-0.995038,99.177902,98.352525)"/>
<g clip-path="url(#clip2)" clip-rule="nonzero">
<g clip-path="url(#clip3)" clip-rule="nonzero">
<g clip-path="url(#clip4)" clip-rule="nonzero">
<path style=" stroke:none;fill-rule:nonzero;fill:rgb(69.999695%,69.999695%,100%);fill-opacity:0.3;" d="M 409.445312 98.351562 C 409.445312 -41.851562 295.792969 -155.503906 155.589844 -155.503906 C 15.386719 -155.503906 -98.265625 -41.851562 -98.265625 98.351562 C -98.265625 238.554688 15.386719 352.207031 155.589844 352.207031 C 295.792969 352.207031 409.445312 238.554688 409.445312 98.351562 Z M 409.445312 98.351562 "/>
</g>
</g>
</g>
<g clip-path="url(#clip5)" clip-rule="nonzero">
<g clip-path="url(#clip6)" clip-rule="nonzero">
<path style="fill:none;stroke-width:0.3985;stroke-linecap:butt;stroke-linejoin:miter;stroke:rgb(0%,0%,0%);stroke-opacity:1;stroke-miterlimit:10;" d="M 85.04096 0.000967305 C 85.04096 15.656779 72.349074 28.348664 56.693262 28.348664 C 41.037451 28.348664 28.345565 15.656779 28.345565 0.000967305 C 28.345565 -15.654844 41.037451 -28.34673 56.693262 -28.34673 C 72.349074 -28.34673 85.04096 -15.654844 85.04096 0.000967305 Z M 85.04096 0.000967305 " transform="matrix(0.995038,0,0,-0.995038,99.177902,98.352525)"/>
</g>
</g>
<g style="fill:rgb(0%,0%,0%);fill-opacity:1;">
  <use xlink:href="#glyph0-5" x="114.513426" y="90.644962"/>
</g>
<g style="fill:rgb(0%,0%,0%);fill-opacity:1;">
  <use xlink:href="#glyph1-1" x="119.182143" y="93.142507"/>
</g>
<path style="fill:none;stroke-width:0.3985;stroke-linecap:butt;stroke-linejoin:miter;stroke:rgb(0%,0%,0%);stroke-opacity:1;stroke-miterlimit:10;" d="M 56.693262 0.000967305 L -63.775617 76.003102 " transform="matrix(0.995038,0,0,-0.995038,99.177902,98.352525)"/>
<path style="fill:none;stroke-width:0.3985;stroke-linecap:butt;stroke-linejoin:miter;stroke:rgb(0%,0%,0%);stroke-opacity:1;stroke-miterlimit:10;" d="M 56.693262 0.000967305 L -63.775617 -76.001168 " transform="matrix(0.995038,0,0,-0.995038,99.177902,98.352525)"/>
<path style="fill:none;stroke-width:0.3985;stroke-linecap:butt;stroke-linejoin:miter;stroke:rgb(0%,0%,0%);stroke-opacity:1;stroke-miterlimit:10;" d="M -85.920661 -49.608484 C -65.824849 -25.657605 -36.279804 7.934868 -14.495927 -13.849009 " transform="matrix(0.995038,0,0,-0.995038,99.177902,98.352525)"/>
<path style="fill:none;stroke-width:0.31879;stroke-linecap:round;stroke-linejoin:round;stroke:rgb(0%,0%,0%);stroke-opacity:1;stroke-miterlimit:10;" d="M -1.195601 1.591923 C -1.095667 0.997872 0.000828169 0.101245 0.297853 -0.00146484 C 0.000828169 -0.0986226 -1.095667 -0.99525 -1.195601 -1.594853 " transform="matrix(0.703591,0.703591,0.703591,-0.703591,84.752401,112.133152)"/>
<g style="fill:rgb(0%,0%,0%);fill-opacity:1;">
  <use xlink:href="#glyph0-6" x="3.749794" y="154.656741"/>
</g>
<g style="fill:rgb(0%,0%,0%);fill-opacity:1;">
  <use xlink:href="#glyph1-2" x="10.390676" y="157.155281"/>
</g>
<g style="fill:rgb(0%,0%,0%);fill-opacity:1;">
  <use xlink:href="#glyph2-1" x="13.939976" y="159.053813"/>
</g>
</g>
</svg>
