<svg xmlns="http://www.w3.org/2000/svg" xmlns:xlink="http://www.w3.org/1999/xlink" width="244.78pt" height="215.324pt" viewBox="0 0 244.78 215.324"><defs><path id="c" d="M1.20313-3.95312c0 3.15625.71875 6.64062 3.6875 6.75V2.375c-1-.1875-2.5625-1.42187-2.5625-6.32812 0-4.85938 1.48437-6.09375 2.5625-6.32813v-.40625c-2.96875.10938-3.6875 3.57813-3.6875 6.73438m0 0"/><path id="d" d="M1.64063-6.29687 2.5-6.21875c.20313.01563.26563.07813.26563.25 0 .10938-.01563.23438-.0625.42188l-.84375 3.875q-.09376.39843-.09376.70312c0 .79688.42188 1.125 1.0625 1.125 1.20313 0 2.40625-1.10937 3.375-2.40625.95313-1.28125 1.625-2.82812 1.64063-3.6875 0-.5625-.3125-1.09375-.42187-1.09375-.34375 0-.73438.125-1.03125.29688.125.5.17187 1.01562.17187 1.75C6.45313-3.07812 4.64063-.5625 3.51563-.5625c-.3125 0-.5-.20312-.5-.59375 0-.10937 0-.25.03125-.375l1.23437-5.42187-.07812-.07813-2.46875.39063Zm0 0"/><path id="e" d="M1.1875-3.54687H4.625v3.4375h.82813v-3.4375h3.4375v-.8125h-3.4375v-3.4375H4.625v3.4375H1.1875Zm0 0"/><path id="f" d="M1.51563 0H6.125v-.40625L4.9375-.5c-.29687-.03125-.45312-.14062-.45312-.6875v-8.25l-.07813-.07812-2.89062.48437v.34375l1.3125.17188c.23437.03125.32812.125.32812.53125v6.79687c0 .54688-.14062.65625-.46875.6875l-1.17187.09375Zm0 0"/><path id="g" d="M1.1875-3.54687h7.70313v-.8125H1.1875Zm0 0"/><path id="h" d="M1.64063-.9375c0 .65625.28124 1.09375 1.0625 1.09375 1.34375 0 2.82812-1.46875 3.65625-3.09375h.03125l-.46875 1.59375c-.0625.28125-.10938.53125-.10938.73438 0 .48437.23438.76562.75.76562 1.01563 0 1.84375-.95312 2.34375-1.98437l-.32812-.21876C8.29688-1.5625 7.67188-.5625 7.28125-.5625c-.17187 0-.25-.125-.25-.3125 0-.125.03125-.26562.07813-.4375l1.5-5.71875-1.25.17188c-.40625 1.42187-.64063 2.17187-1 3.01562-.60938 1.42188-1.82813 3.28125-3 3.28125-.29688 0-.4375-.1875-.4375-.54687 0-.1875.03125-.40625.09375-.67188l1.34375-5.17187-.07813-.07813L1.75-6.64062l-.09375.34375.875.07812c.20313.01563.28125.09375.28125.26563 0 .09375-.03125.23437-.07812.40625l-.96875 3.6875c-.07813.32812-.125.64062-.125.92187m0 0"/><path id="i" d="m.71875 1.71875.26563.26563C1.6875 1.32813 2.6875.39063 2.6875-.71875c0-.73437-.39062-1.26562-.9375-1.26562-.42187 0-.6875.34375-.6875.70312 0 .5.45313.78125.45313 1.375 0 .57813-.35938 1.125-.79688 1.625m0 0"/><path id="j" d="M.82813 2.375v.42188c2.96875-.10938 3.6875-3.59375 3.6875-6.75s-.71875-6.625-3.6875-6.73438v.40625c1.07812.23438 2.5625 1.46875 2.5625 6.32813 0 4.90625-1.5625 6.14062-2.5625 6.32812m0 0"/><path id="k" d="M1.26563-3.95312c0 1.60937 1.17187 2.79687 2.79687 2.79687 1.5625 0 2.75-1.1875 2.75-2.79687 0-1.5625-1.1875-2.73438-2.75-2.73438-1.625 0-2.79687 1.17188-2.79687 2.73438m0 0"/><path id="l" d="M.57813-4.67187c0 2.79687.84375 4.82812 3.14062 4.82812 2.3125 0 3.125-2.03125 3.125-4.82812s-.8125-4.84375-3.125-4.84375c-2.29687 0-3.14062 2.04687-3.14062 4.84375m1.42187 0c0-2.28125.39063-4.35938 1.71875-4.35938 1.32813 0 1.70313 2.07813 1.70313 4.35938s-.375 4.34375-1.70313 4.34375C2.39063-.32812 2-2.39062 2-4.67187m0 0"/><clipPath id="a"><path d="M.27344 150H171v2H.27344Zm0 0"/></clipPath><clipPath id="b"><path d="M63 2h2v212.64844h-2Zm0 0"/></clipPath></defs><g clip-path="url(#a)"><path fill="none" stroke="#000" stroke-miterlimit="10" stroke-width=".39725" d="M.47268 150.8711h169.54681"/></g><g clip-path="url(#b)"><path fill="none" stroke="#000" stroke-miterlimit="10" stroke-width=".39725" d="M64.05078 214.4531V2.51568"/></g><path fill="none" stroke="#007f7f" stroke-miterlimit="10" stroke-width=".39725" d="M201.79682 172.0625 117.03123 2.5313m95.35934 148.3398H42.85938"/><path fill="none" stroke="#00adef" stroke-dasharray="2.9794749621000003 2.9794749621000003" stroke-miterlimit="10" stroke-width=".39725" d="m64.05078 150.8711 63.5742-127.1484m-21.1914 127.1484 42.3828-84.7656"/><use xlink:href="#c" x="132.88804" y="15.66183"/><use xlink:href="#d" x="138.60856" y="15.66183"/><use xlink:href="#e" x="149.43882" y="15.66183"/><use xlink:href="#f" x="161.58003" y="15.66183"/><use xlink:href="#g" x="171.09934" y="15.66183"/><use xlink:href="#h" x="183.24055" y="15.66183"/><use xlink:href="#i" x="193.07269" y="15.66183"/><use xlink:href="#d" x="198.43568" y="15.66183"/><use xlink:href="#e" x="209.28084" y="15.66183"/><use xlink:href="#f" x="221.42205" y="15.66183"/><use xlink:href="#j" x="228.87064" y="15.66183"/><use xlink:href="#k" x="123.59522" y="27.07002"/><use xlink:href="#c" x="154.07951" y="58.04377"/><use xlink:href="#d" x="159.80003" y="58.04377"/><use xlink:href="#i" x="168.57448" y="58.04377"/><use xlink:href="#d" x="173.93747" y="58.04377"/><use xlink:href="#j" x="182.71191" y="58.04377"/><use xlink:href="#k" x="144.78669" y="69.45196"/><use xlink:href="#c" x="27.0862" y="166.83124"/><use xlink:href="#l" x="32.80672" y="166.83124"/><use xlink:href="#i" x="40.25532" y="166.83124"/><use xlink:href="#l" x="45.61831" y="166.83124"/><use xlink:href="#j" x="53.0669" y="166.83124"/><use xlink:href="#k" x="60.0218" y="154.21585"/><use xlink:href="#c" x="90.58286" y="166.83124"/><use xlink:href="#f" x="96.30338" y="166.83124"/><use xlink:href="#i" x="103.75197" y="166.83124"/><use xlink:href="#l" x="109.11496" y="166.83124"/><use xlink:href="#j" x="116.56356" y="166.83124"/><use xlink:href="#k" x="102.40375" y="154.21585"/><g fill="#007f7f"><use xlink:href="#c" x="196.46146" y="166.83124"/><use xlink:href="#h" x="202.18198" y="166.83124"/></g><use xlink:href="#d" x="212.01412" y="166.83124" fill="#007f7f"/><use xlink:href="#i" x="220.78857" y="166.83124" fill="#007f7f"/><g fill="#007f7f"><use xlink:href="#l" x="226.15156" y="166.83124"/><use xlink:href="#j" x="233.60015" y="166.83124"/></g><use xlink:href="#k" x="187.16863" y="154.21585" fill="#007f7f"/></svg>