<svg xmlns="http://www.w3.org/2000/svg" xmlns:xlink="http://www.w3.org/1999/xlink" width="212.997pt" height="183.22pt" viewBox="0 0 212.997 183.22"><defs><path id="c" d="M0 0h3.96875l.07813-.40625-.96875-.07812c-.23438-.01563-.34375-.125-.34375-.34375q0-.14064.04687-.32813l.625-2.75h1.04688c1.1875 0 2.28125-.17187 3.09375-.65625.89062-.54687 1.40625-1.5 1.40625-2.54687 0-.95313-.4375-1.6875-1.125-2.0625-.65625-.375-1.54688-.5-2.46875-.5H2.07813l-.09375.40625.82812.0625c.23438.01562.34375.125.34375.375 0 .07812-.01562.1875-.04687.3125l-1.6875 7.35937c-.10938.46875-.23438.64063-.57813.67188l-.76562.07812Zm3.59375-4.70312c0-.09375.01563-.17188.04688-.29688L4.5-8.70312c.07813-.35938.17188-.48438.89063-.48438 1.375 0 2.09375.65625 2.09375 1.84375 0 1.98438-1.125 2.9375-3 2.9375-.71875 0-.89063-.07812-.89063-.29687m0 0"/><path id="d" d="M1.26563-3.9375c0 1.60938 1.17187 2.78125 2.79687 2.78125 1.5625 0 2.73438-1.17187 2.73438-2.78125 0-1.5625-1.17188-2.73437-2.73438-2.73437-1.625 0-2.79687 1.17187-2.79687 2.73437m0 0"/><path id="e" d="M.89063-3.78125c0 2.07813 1.09375 3.64063 3.3125 3.9375.65625 1.21875 2.07812 2.6875 3.82812 2.6875.35938 0 .79688-.09375 1.04688-.21875l-.04688-.25c-1.34375-.01562-2.375-1.04687-3.1875-2.21875 2.84375-.40625 4.5-3.21875 4.5-5.9375 0-2.875-1.75-4.10937-4.04687-4.10937-3.60938 0-5.40625 3.3125-5.40625 6.10937m1.46875.5625c0-2.5 1.20312-6.1875 4-6.1875 1.53125 0 2.5.90625 2.5 2.89063 0 3.40625-1.57813 6.23437-4 6.23437-1.51563 0-2.5-.98437-2.5-2.9375m0 0"/><path id="f" d="M1.20313-3.9375c0 3.15625.71875 6.60938 3.67187 6.73438V2.375c-1-.1875-2.54687-1.42187-2.54687-6.3125 0-4.875 1.48437-6.10937 2.54687-6.32812v-.42188c-2.95312.125-3.67187 3.59375-3.67187 6.75m0 0"/><path id="g" d="M.57813-4.67187c0 2.79687.82812 4.82812 3.14062 4.82812s3.125-2.03125 3.125-4.82812S6.03125-9.5 3.71875-9.5.57813-7.46875.57813-4.67187m1.42187 0c0-2.28125.39063-4.34375 1.71875-4.34375 1.32813 0 1.70313 2.0625 1.70313 4.34375s-.375 4.34375-1.70313 4.34375C2.39063-.32812 2-2.39062 2-4.67187m0 0"/><path id="h" d="m.71875 1.70313.26563.28124C1.6875 1.32814 2.6875.39064 2.6875-.71875c0-.73437-.39062-1.26562-.9375-1.26562-.42187 0-.6875.34375-.6875.70312 0 .5.45313.78125.45313 1.375 0 .57813-.35938 1.125-.79688 1.60938m0 0"/><path id="i" d="M.82813 2.375v.42188C3.79688 2.67188 4.5-.78125 4.5-3.9375s-.70312-6.625-3.67187-6.75v.42188c1.07812.21875 2.5625 1.45312 2.5625 6.32812 0 4.89063-1.5625 6.125-2.5625 6.3125m0 0"/><path id="j" d="M1.51563 0h4.59375v-.40625L4.9375-.5c-.29687-.03125-.45312-.14062-.45312-.6875v-8.25L4.40625-9.5l-2.89062.48438v.34375l1.3125.15625c.23437.03125.32812.14062.32812.54687v6.78125c0 .54688-.14062.65625-.46875.6875l-1.17187.09375Zm0 0"/><path id="k" d="M1.54688-3.9375c0 6.57813.54687 11.125 3.375 11.84375v-.39062C3.01563 6.34375 2.65625 1.625 2.65625-3.9375c0-5.45312.3125-10.25 2.26563-11.4375v-.42187c-2.71875.78125-3.375 5.14062-3.375 11.85937m0 0"/><path id="n" d="M.5 7.51563v.39062C3.32813 7.1875 3.85938 2.64063 3.85938-3.9375c0-6.71875-.625-11.07812-3.35938-11.85937v.42187c1.95313 1.1875 2.25 5.98438 2.25 11.4375C2.75 1.625 2.40625 6.34375.5 7.51563m0 0"/><path id="l" d="m.51563 2.35938 1-.10938.54687-2.34375c.20313.125.53125.20313 1.04688.20313 2.39062 0 3.0625-2.96875 3.0625-3.73438 0-.82812-.375-1.29687-1.10938-1.29687-.76562 0-1.70312.71875-2.45312 2.125h-.03125l.5625-2.0625-.04688-.0625-1.89062.28125-.0625.25.59375.0625c.15624 0 .1875.07812.1875.1875 0 .07812 0 .15625-.03126.26562ZM2.15625-.54687c.125-.59375.40625-1.59375.78125-2.25.45313-.8125 1.10938-1.53125 1.64063-1.53125.32812 0 .48437.25.48437.73437C5.0625-2.8125 4.46875-.25 2.98438-.25c-.35938 0-.625-.10937-.82813-.29687m0 0"/><path id="m" d="M.73438-1.0625c0 .8125.45312 1.17188.95312 1.17188.82813 0 1.76563-.75 2.5-1.96875h.01563L3.25 2.35938l1.04688-.1875L6.03125-5.125h-.42187l-.42188.42188C5-4.79687 4.64063-4.92187 4.17188-4.92187c-2.45313 0-3.4375 2.53125-3.4375 3.85937m1.09375-.14062c0-.95313.82812-3.34375 2.375-3.34375.28125 0 .5.09375.64062.1875C4.60938-3.25 4.17188-2.25 3.64063-1.54687c-.51563.70312-1 1.09375-1.375 1.09375-.32813 0-.4375-.34375-.4375-.75m0 0"/><clipPath id="a"><path d="M.44922 118h212.09375v1H.44922Zm0 0"/></clipPath><clipPath id="b"><path d="M106 12h1v170.4414h-1Zm0 0"/></clipPath></defs><g clip-path="url(#a)"><path fill="none" stroke="#000" stroke-miterlimit="10" stroke-width=".39681" d="M.64842 118.73438h211.69925"/></g><g clip-path="url(#b)"><path fill="none" stroke="#000" stroke-miterlimit="10" stroke-width=".39681" d="M106.4961 182.2461V12.8867"/></g><path fill="none" stroke="#007f7f" stroke-miterlimit="10" stroke-width=".39681" d="m81.09375.1953 114.3086 152.40627M170 161.07032 62.04297 17.12889"/><use xlink:href="#c" x="175.25678" y="113.4789"/><use xlink:href="#d" x="165.9743" y="122.0763"/><use xlink:href="#e" x="111.75413" y="25.96646"/><use xlink:href="#d" x="102.47164" y="37.40675"/><use xlink:href="#f" x="69.5717" y="134.67765"/><use xlink:href="#g" x="75.28586" y="134.67765"/><use xlink:href="#h" x="82.72616" y="134.67765"/><use xlink:href="#g" x="88.08318" y="134.67765"/><use xlink:href="#i" x="95.52349" y="134.67765"/><use xlink:href="#d" x="102.47164" y="122.0763"/><use xlink:href="#f" x="69.5717" y="92.34288"/><use xlink:href="#g" x="75.28586" y="92.34288"/><use xlink:href="#h" x="82.72616" y="92.34288"/><use xlink:href="#j" x="88.08318" y="92.34288"/><use xlink:href="#i" x="95.52349" y="92.34288"/><use xlink:href="#d" x="102.47164" y="79.74153"/><use xlink:href="#k" x="121.21883" y="139.79586" fill="#007f7f"/><use xlink:href="#l" x="128.40624" y="132.26044" fill="#007f7f"/><path fill="none" stroke="#007f7f" stroke-miterlimit="10" stroke-width=".81851" d="M128.40625 135.85156h6.88672"/><use xlink:href="#m" x="128.51527" y="145.03406" fill="#007f7f"/><use xlink:href="#h" x="137.07682" y="139.79586" fill="#007f7f"/><g fill="#007f7f"><use xlink:href="#g" x="142.43384" y="139.79586"/><use xlink:href="#n" x="149.87415" y="139.79586"/></g><use xlink:href="#d" x="134.22247" y="122.0763" fill="#007f7f"/></svg>