<svg xmlns="http://www.w3.org/2000/svg" xmlns:xlink="http://www.w3.org/1999/xlink" width="212.997pt" height="127.957pt" viewBox="0 0 212.997 127.957"><defs><path id="c" d="M1.26563-3.95312c0 1.60937 1.1875 2.78125 2.8125 2.78125 1.5625 0 2.75-1.17188 2.75-2.78125 0-1.57813-1.1875-2.75-2.75-2.75-1.625 0-2.8125 1.17187-2.8125 2.75m0 0"/><path id="d" d="M1.20313-3.95312c0 3.15625.71875 6.64062 3.70312 6.76562v-.42187c-1-.1875-2.57812-1.4375-2.57812-6.34375 0-4.89063 1.5-6.125 2.57812-6.35938v-.40625c-2.98437.10938-3.70312 3.59375-3.70312 6.76563m0 0"/><path id="e" d="M1.64063-.9375c0 .65625.28124 1.10938 1.07812 1.10938C4.0625.17188 5.54688-1.3125 6.375-2.9375h.03125L5.9375-1.34375c-.0625.28125-.10937.51563-.10937.73438 0 .48437.23437.78125.76562.78125 1.01563 0 1.84375-.96875 2.34375-2.01563l-.32812-.20312C8.3125-1.5625 7.6875-.5625 7.29688-.5625c-.17188 0-.25-.125-.25-.3125 0-.125.03125-.28125.07812-.4375l1.51563-5.73437-1.26563.15625c-.40625 1.4375-.64062 2.1875-1 3.03125-.60937 1.42187-1.82812 3.29687-3 3.29687-.29687 0-.45312-.1875-.45312-.5625 0-.17187.03125-.40625.10937-.67187L4.375-6.96875l-.07812-.07812L1.75-6.65625l-.09375.34375.89063.0625c.20312.01563.28125.10938.28125.28125 0 .09375-.03125.23438-.07813.39063l-.96875 3.71875c-.09375.32812-.14062.64062-.14062.92187m0 0"/><path id="f" d="m.71875 1.71875.26563.26563C1.6875 1.32813 2.70313.39063 2.70313-.71875c0-.75-.40625-1.26562-.9375-1.26562-.4375 0-.70313.34375-.70313.70312 0 .5.46875.76563.46875 1.375 0 .57813-.35937 1.125-.8125 1.625m0 0"/><path id="g" d="M.57813-4.6875c0 2.8125.84375 4.85938 3.15625 4.85938S6.875-1.875 6.875-4.6875s-.82812-4.85937-3.14062-4.85937S.57813-7.5.57813-4.6875M2-4.6875c0-2.28125.40625-4.35937 1.73438-4.35937 1.32812 0 1.70312 2.07812 1.70312 4.35937S5.0625-.32812 3.73438-.32812C2.40625-.32812 2-2.40625 2-4.6875m0 0"/><path id="h" d="M.84375 2.39063v.42187c2.96875-.125 3.6875-3.60937 3.6875-6.76562 0-3.17188-.71875-6.65625-3.6875-6.76563v.40625c1.0625.23438 2.5625 1.46875 2.5625 6.35938 0 4.90625-1.5625 6.15625-2.5625 6.34375m0 0"/><path id="i" d="M1.1875-3.5625h7.73438v-.8125H1.1875Zm0 0"/><clipPath id="a"><path d="M.03516 63h212.92578v2H.03516Zm0 0"/></clipPath><clipPath id="b"><path d="M106 0h1v127.91406h-1Zm0 0"/></clipPath></defs><g clip-path="url(#a)"><path fill="none" stroke="#000" stroke-miterlimit="10" stroke-width=".39836" d="M.23048 63.95703H212.7617"/></g><g clip-path="url(#b)"><path fill="none" stroke="#000" stroke-miterlimit="10" stroke-width=".39836" d="M106.4961 127.71484V.19922"/></g><use xlink:href="#c" x="144.96157" y="67.31038"/><use xlink:href="#d" x="154.27544" y="55.87022"/><use xlink:href="#e" x="160.012" y="55.87022"/><use xlink:href="#f" x="169.8717" y="55.87022"/><use xlink:href="#g" x="175.24972" y="55.87022"/><use xlink:href="#h" x="182.71919" y="55.87022"/><use xlink:href="#c" x="59.95014" y="67.31038" fill="#007f7f"/><g fill="#007f7f"><use xlink:href="#d" x="14.43744" y="55.87022"/><use xlink:href="#i" x="20.17399" y="55.87022"/><use xlink:href="#e" x="30.27271" y="55.87022"/></g><use xlink:href="#f" x="40.13241" y="55.87022" fill="#007f7f"/><g fill="#007f7f"><use xlink:href="#g" x="45.51043" y="55.87022"/><use xlink:href="#h" x="52.9799" y="55.87022"/></g><path fill="none" stroke="#007f7f" stroke-miterlimit="10" stroke-width=".39836" d="M149.0039 63.95703c0-23.47656-19.03124-42.5078-42.5078-42.5078s-42.50391 19.03124-42.50391 42.5078 19.02734 42.5039 42.5039 42.5039 42.50781-19.02734 42.50781-42.5039Zm0 0"/></svg>