<svg xmlns="http://www.w3.org/2000/svg" xmlns:xlink="http://www.w3.org/1999/xlink" width="319.296" height="274.63" viewBox="0 0 319.296 274.63"><defs><path id="d" d="M0 0h5.96875l.10938-.60937-1.45313-.125c-.35937-.03126-.51562-.1875-.51562-.51563 0-.14062.03125-.29687.07812-.5l.9375-4.125h1.5625c1.78125 0 3.4375-.25 4.65625-.98437 1.32813-.82813 2.10938-2.26563 2.10938-3.82813 0-1.4375-.65625-2.53125-1.6875-3.10937-.98438-.5625-2.32813-.73438-3.71875-.73438H3.125l-.15625.59375 1.25.09375c.35938.03125.51563.20313.51563.5625 0 .14063-.01563.29688-.0625.48438L2.14063-1.75c-.17188.71875-.35938.96875-.85938 1.01563l-1.17187.125Zm5.40625-7.0625c0-.14062.03125-.26562.07813-.45312L6.75-13.07812c.14063-.53125.26563-.73438 1.34375-.73438 2.07813 0 3.15625.98438 3.15625 2.76563 0 3-1.6875 4.42187-4.51562 4.42187-1.07813 0-1.32813-.10937-1.32813-.4375m0 0"/><path id="e" d="M1.90625-5.92187c0 2.40625 1.76563 4.17187 4.20313 4.17187 2.34375 0 4.10937-1.76562 4.10937-4.17187 0-2.34375-1.76562-4.125-4.10937-4.125-2.4375 0-4.20313 1.78125-4.20313 4.125m0 0"/><path id="f" d="M1.34375-5.67187c0 3.125 1.625 5.46875 4.98438 5.89062.98437 1.84375 3.10937 4.04688 5.75 4.04688.53125 0 1.20312-.125 1.5625-.32813l-.0625-.35937C11.5625 3.5625 10 1.98438 8.78125.21875c4.28125-.59375 6.76563-4.82812 6.76563-8.92187 0-4.3125-2.625-6.17188-6.09375-6.17188-5.40625 0-8.10938 4.98438-8.10938 9.20313m2.21875.84375c0-3.76563 1.79688-9.29688 5.98438-9.29688 2.29687 0 3.78125 1.35938 3.78125 4.32813 0 5.125-2.39063 9.375-6.01563 9.375-2.28125 0-3.75-1.48438-3.75-4.40625m0 0"/><path id="g" d="M1.8125-5.92187c0 4.73437 1.07813 9.95312 5.51563 10.125v-.625c-1.5-.29688-3.84375-2.14063-3.84375-9.5 0-7.3125 2.23437-9.17188 3.84375-9.5v-.625c-4.4375.17187-5.51563 5.375-5.51563 10.125m0 0"/><path id="h" d="M.875-7.01562C.875-2.8125 2.10938.25 5.5625.25c3.46875 0 4.71875-3.0625 4.71875-7.26562s-1.25-7.26563-4.71875-7.26563c-3.45312 0-4.6875 3.0625-4.6875 7.26563m2.125 0c0-3.42188.57813-6.53125 2.5625-6.53125 2 0 2.57813 3.10937 2.57813 6.53125S7.5625-.48437 5.5625-.48437C3.57813-.48437 3-3.59375 3-7.01562m0 0"/><path id="i" d="m1.07813 2.57813.39062.39062c1.0625-.98437 2.57813-2.39062 2.57813-4.04687 0-1.10938-.60938-1.89063-1.40625-1.89063-.65625 0-1.04688.51563-1.04688 1.04688 0 .76562.6875 1.15625.6875 2.0625 0 .85937-.53125 1.6875-1.20312 2.4375m0 0"/><path id="j" d="M1.25 3.57813v.625c4.45313-.17188 5.53125-5.39063 5.53125-10.125 0-4.75-1.07812-9.95313-5.53125-10.125v.625c1.60938.32812 3.84375 2.1875 3.84375 9.5 0 7.35937-2.34375 9.20312-3.84375 9.5m0 0"/><path id="k" d="M2.28125 0H9.1875v-.60937L7.42188-.76563c-.45313-.04687-.6875-.20312-.6875-1.01562v-12.39062l-.10938-.10938-4.34375.73438v.51562l1.96875.23438c.35938.04687.48438.20312.48438.8125v10.20312c0 .8125-.20313.96875-.6875 1.01563l-1.76563.15624Zm0 0"/><path id="l" d="M2.32813-5.92187c0 9.875.82812 16.71874 5.07812 17.8125v-.59375C4.53125 9.53125 4 2.4375 4-5.92188c0-8.1875.46875-15.40624 3.40625-17.20312v-.625C3.3125-22.5625 2.32813-16.01562 2.32813-5.92187m0 0"/><path id="o" d="M.76563 11.29688v.59375c4.25-1.09375 5.03125-7.9375 5.03125-17.8125 0-10.09375-.9375-16.64063-5.03125-17.82813v.625c2.92187 1.79688 3.375 9.01563 3.375 17.20313 0 8.35937-.51563 15.45312-3.375 17.21874m0 0"/><path id="m" d="M.78125 3.54688 2.26563 3.375l.82812-3.51562c.3125.1875.79688.3125 1.57813.3125 3.57812 0 4.59375-4.46875 4.59375-5.625 0-1.25-.5625-1.9375-1.65625-1.9375-1.15625 0-2.5625 1.07812-3.67188 3.17187H3.875l.84375-3.09375-.0625-.07812-2.85937.40625-.09376.39062.90626.07813c.21875.01562.28125.125.28125.29687 0 .10938-.01563.23438-.0625.39063ZM3.23438-.8125c.1875-.90625.60937-2.39062 1.1875-3.39062.6875-1.21875 1.67187-2.3125 2.45312-2.3125.5 0 .73438.39062.73438 1.10937C7.60938-4.23437 6.71875-.375 4.5-.375c-.54687 0-.95312-.15625-1.26562-.4375m0 0"/><path id="n" d="M1.09375-1.59375c0 1.21875.6875 1.76563 1.4375 1.76563 1.23438 0 2.67188-1.14063 3.76563-2.96875h.03125l-1.4375 6.34375 1.5625-.28125L9.04688-7.6875h-.625l-.625.625c-.28125-.14062-.8125-.32812-1.53125-.32812-3.6875 0-5.17188 3.79687-5.17188 5.79687M2.75-1.8125c0-1.42187 1.25-5.01562 3.57813-5.01562.42187 0 .73437.125.95312.28125C6.92188-4.89062 6.26563-3.375 5.48438-2.3125c-.78125 1.04688-1.5 1.625-2.07813 1.625-.5 0-.65625-.51562-.65625-1.125m0 0"/><clipPath id="a"><path d="M0 178h318.59375v1H0Zm0 0"/></clipPath><clipPath id="b"><path d="M159 19h1v255.14453h-1Zm0 0"/></clipPath><clipPath id="c"><path d="M115 .11719h184V236H115Zm0 0"/></clipPath></defs><g clip-path="url(#a)"><path fill="none" stroke="#000" stroke-miterlimit="10" stroke-width=".39762" d="M.19531 178.48438h318.20313"/></g><g clip-path="url(#b)"><path fill="none" stroke="#000" stroke-miterlimit="10" stroke-width=".39762" d="M159.29687 273.94531V19.38671"/></g><g clip-path="url(#c)"><path fill="none" stroke="#007F7F" stroke-miterlimit="10" stroke-width=".39762" d="m121.11719.3125 171.8086 229.07813"/></g><path fill="none" stroke="#007F7F" stroke-miterlimit="10" stroke-width=".39762" d="M254.7461 242.1211 92.48046 25.76562"/><use xlink:href="#d" x="262.6469" y="170.58365"/><use xlink:href="#e" x="248.69466" y="183.50715"/><use xlink:href="#f" x="167.19835" y="39.04667"/><use xlink:href="#e" x="153.24612" y="56.24275"/><use xlink:href="#g" x="103.88595" y="202.44739"/><use xlink:href="#h" x="112.47473" y="202.44739"/><use xlink:href="#i" x="123.61331" y="202.44739"/><use xlink:href="#h" x="131.66529" y="202.44739"/><use xlink:href="#j" x="142.80387" y="202.44739"/><use xlink:href="#e" x="153.24612" y="183.50715"/><use xlink:href="#g" x="103.88595" y="138.81469"/><use xlink:href="#h" x="112.47473" y="138.81469"/><use xlink:href="#i" x="123.61331" y="138.81469"/><use xlink:href="#k" x="131.66529" y="138.81469"/><use xlink:href="#j" x="142.80387" y="138.81469"/><use xlink:href="#e" x="153.24612" y="119.87445"/><use xlink:href="#l" x="181.60359" y="210.14143" fill="#007F7F"/><use xlink:href="#m" x="192.40677" y="198.81515" fill="#007F7F"/><path fill="none" stroke="#007F7F" stroke-miterlimit="10" stroke-width="1.23029" d="M192.40625 204.21484h10.03516"/><use xlink:href="#n" x="192.5078" y="218.01482" fill="#007F7F"/><use xlink:href="#i" x="205.12723" y="210.14143" fill="#007F7F"/><g fill="#007F7F"><use xlink:href="#h" x="213.17921" y="210.14143"/><use xlink:href="#o" x="224.31779" y="210.14143"/></g><use xlink:href="#e" x="200.97089" y="183.50715" fill="#007F7F"/></svg>