<svg xmlns="http://www.w3.org/2000/svg" xmlns:xlink="http://www.w3.org/1999/xlink" width="344.479" height="287.386" viewBox="0 0 344.479 287.386"><defs><path id="b" d="M1.8125-5.92187c0 4.73437 1.07813 9.95312 5.53125 10.125v-.625c-1.5-.28125-3.85937-2.14063-3.85937-9.5 0-7.32813 2.25-9.1875 3.85937-9.51563v-.625c-4.45312.17188-5.53125 5.39063-5.53125 10.14063m0 0"/><path id="c" d="M.875-7.03125C.875-2.8125 2.10938.25 5.57813.25s4.71875-3.0625 4.71875-7.28125c0-4.20312-1.25-7.26562-4.71875-7.26562S.875-11.23437.875-7.03125m2.125 0c0-3.42187.57813-6.53125 2.57813-6.53125 1.98437 0 2.5625 3.10938 2.5625 6.53125S7.5625-.5 5.57813-.5C3.57813-.5 3-3.60937 3-7.03125m0 0"/><path id="d" d="m1.07813 2.57813.40625.39062c1.04687-.98437 2.5625-2.39062 2.5625-4.04687 0-1.10938-.59375-1.89063-1.40625-1.89063-.65625 0-1.04688.5-1.04688 1.04688 0 .76562.6875 1.15625.6875 2.0625 0 .85937-.53125 1.6875-1.20312 2.4375m0 0"/><path id="e" d="M2.46875-1.40625C2.46875-.42187 2.89063.25 4.07813.25c2.01562 0 4.21875-2.21875 5.46875-4.65625h.04687l-.6875 2.39063c-.10937.42187-.1875.78125-.1875 1.09375C8.71875-.17187 9.07813.25 9.875.25c1.51563 0 2.76563-1.4375 3.5-3l-.48437-.3125c-.42188.71875-1.375 2.21875-1.95313 2.21875-.26562 0-.375-.1875-.375-.46875 0-.1875.04688-.40625.10938-.65625l2.26562-8.59375-1.89062.25c-.59375 2.14063-.95313 3.26563-1.5 4.54688-.90625 2.125-2.75 4.92187-4.48438 4.92187-.45312 0-.67187-.28125-.67187-.82812 0-.28126.04687-.60938.15625-1.01563l2.01562-7.76562-.125-.10938-3.8125.57813-.14062.51562 1.3125.10938c.3125.03125.4375.15625.4375.40625 0 .15625-.04688.35937-.125.60937L2.65625-2.79687c-.125.5-.1875.96875-.1875 1.39062m0 0"/><path id="f" d="M1.25 3.57813v.625c4.45313-.17188 5.53125-5.39063 5.53125-10.125 0-4.75-1.07812-9.96875-5.53125-10.14063v.625c1.60938.32813 3.84375 2.1875 3.84375 9.51563 0 7.35937-2.34375 9.21875-3.84375 9.5m0 0"/><path id="g" d="M1.90625-5.92187c0 2.40625 1.76563 4.17187 4.20313 4.17187 2.34375 0 4.10937-1.76562 4.10937-4.17187 0-2.35938-1.76562-4.125-4.10937-4.125-2.4375 0-4.20313 1.76562-4.20313 4.125m0 0"/><path id="h" d="M1.79688-5.32812h11.5625V-6.5625H1.79688Zm0 0"/><path id="i" d="m2.46875-9.46875 1.29688.10938c.3125.03125.39062.14062.39062.39062 0 .15625-.01562.35938-.07812.625L2.79688-2.5c-.09375.39063-.14063.73438-.14063 1.04688C2.65625-.26562 3.29688.25 4.25.25c1.8125 0 3.625-1.6875 5.07813-3.625 1.4375-1.92187 2.4375-4.25 2.46875-5.54687 0-.82813-.46875-1.64063-.65625-1.64063-.51563 0-1.09375.1875-1.54688.45313C9.79688-9.375 9.875-8.59375 9.875-7.5 9.6875-4.625 6.98438-.84375 5.28125-.84375c-.46875 0-.76562-.29687-.76562-.90625 0-.15625.03125-.35937.07812-.54687l1.82813-8.15625-.10938-.10938-3.71875.57813Zm0 0"/><path id="j" d="M1.79688-5.32812h5.15625v5.17187H8.1875v-5.17187h5.17188V-6.5625H8.1875v-5.15625H6.95313v5.15625H1.79688Zm0 0"/><clipPath id="a"><path d="M176 31h2v255.77344h-2Zm0 0"/></clipPath></defs><path fill="none" stroke="#007F7F" stroke-miterlimit="10" stroke-width=".39765" d="M272.6328.19532 33.9922 238.83593M240.8164.19532v241.8242"/><path fill="none" stroke="#00ADEF" stroke-dasharray="2.9824637921000003 2.9824637921000003" stroke-miterlimit="10" stroke-width=".39765" d="m240.8164 127.47266-63.64062 63.63671"/><path fill="none" stroke="#000" stroke-miterlimit="10" stroke-width=".39765" d="M18.06642 191.10937h318.22263"/><g clip-path="url(#a)"><path fill="none" stroke="#000" stroke-miterlimit="10" stroke-width=".39765" d="M177.17578 286.57812V32"/></g><use xlink:href="#b" x="118.13809" y="83.5465"/><use xlink:href="#c" x="126.72746" y="83.5465"/><use xlink:href="#d" x="137.8668" y="83.5465"/><use xlink:href="#e" x="145.91933" y="83.5465"/><use xlink:href="#f" x="160.68231" y="83.5465"/><use xlink:href="#g" x="171.12688" y="100.67591"/><use xlink:href="#b" x="7.56233" y="179.00156"/><use xlink:href="#h" x="16.1517" y="179.00156"/><use xlink:href="#e" x="31.27257" y="179.00156"/><use xlink:href="#d" x="46.03555" y="179.00156"/><use xlink:href="#c" x="54.08809" y="179.00156"/><use xlink:href="#f" x="65.22742" y="179.00156"/><use xlink:href="#g" x="75.67182" y="196.13097"/><use xlink:href="#b" x="248.71611" y="215.0725"/><use xlink:href="#i" x="257.30548" y="215.0725"/><use xlink:href="#d" x="270.48032" y="215.0725"/><use xlink:href="#c" x="278.53285" y="215.0725"/><use xlink:href="#f" x="289.67219" y="215.0725"/><use xlink:href="#g" x="234.76292" y="196.13097"/><use xlink:href="#b" x="248.71611" y="133.39999"/><use xlink:href="#i" x="257.30548" y="133.39999"/><use xlink:href="#d" x="270.48032" y="133.39999"/><use xlink:href="#i" x="278.53285" y="133.39999"/><use xlink:href="#f" x="291.70769" y="133.39999"/><use xlink:href="#g" x="234.76292" y="132.49393"/><g fill="#007F7F"><use xlink:href="#b" x="248.71611" y="37.94493"/><use xlink:href="#i" x="257.30548" y="37.94493"/></g><use xlink:href="#d" x="270.48032" y="37.94493" fill="#007F7F"/><use xlink:href="#e" x="278.53285" y="37.94493" fill="#007F7F"/><use xlink:href="#j" x="296.40501" y="37.94493" fill="#007F7F"/><use xlink:href="#i" x="314.61268" y="37.94493" fill="#007F7F"/><use xlink:href="#f" x="327.78752" y="37.94493" fill="#007F7F"/><use xlink:href="#g" x="234.76292" y="37.03887" fill="#007F7F"/></svg>