<svg xmlns="http://www.w3.org/2000/svg" xmlns:xlink="http://www.w3.org/1999/xlink" width="331.255" height="322.9" viewBox="0 0 331.255 322.9"><defs><path id="d" d="M1.8125-5.92187c0 4.73437 1.07813 9.95312 5.51563 10.125v-.625c-1.5-.29688-3.84375-2.14063-3.84375-9.5 0-7.3125 2.23437-9.17188 3.84375-9.5v-.625c-4.4375.17187-5.51563 5.375-5.51563 10.125m0 0"/><path id="e" d="M2.28125 0H9.1875v-.60937L7.42188-.76563c-.45313-.04687-.6875-.20312-.6875-1.01562v-12.39062l-.10938-.10938-4.34375.73438v.51562l1.96875.23438c.35938.04687.48438.20312.48438.8125v10.20312c0 .8125-.20313.96875-.6875 1.01563l-1.76563.15624Zm0 0"/><path id="f" d="m1.07813 2.57813.39062.39062c1.0625-.98437 2.57813-2.39062 2.57813-4.04687 0-1.10938-.60938-1.89063-1.40625-1.89063-.65625 0-1.04688.51563-1.04688 1.04688 0 .76562.6875 1.15625.6875 2.0625 0 .85937-.53125 1.6875-1.20312 2.4375m0 0"/><path id="g" d="M.875-7.01562C.875-2.8125 2.10938.25 5.5625.25c3.46875 0 4.71875-3.0625 4.71875-7.26562s-1.25-7.26563-4.71875-7.26563c-3.45312 0-4.6875 3.0625-4.6875 7.26563m2.125 0c0-3.42188.57813-6.53125 2.5625-6.53125 2 0 2.57813 3.10937 2.57813 6.53125S7.5625-.48437 5.5625-.48437C3.57813-.48437 3-3.59375 3-7.01562m0 0"/><path id="h" d="M1.25 3.57813v.625c4.45313-.17188 5.53125-5.39063 5.53125-10.125 0-4.75-1.07812-9.95313-5.53125-10.125v.625c1.60938.32812 3.84375 2.1875 3.84375 9.5 0 7.35937-2.34375 9.20312-3.84375 9.5m0 0"/><path id="i" d="M1.90625-5.92187c0 2.40625 1.76563 4.17187 4.20313 4.17187 2.34375 0 4.10937-1.76562 4.10937-4.17187 0-2.34375-1.76562-4.125-4.10937-4.125-2.4375 0-4.20313 1.78125-4.20313 4.125m0 0"/><path id="j" d="M2.45313-1.40625C2.45313-.42187 2.89063.25 4.0625.25c2.01563 0 4.23438-2.21875 5.48438-4.65625h.04687l-.6875 2.39063c-.125.42187-.1875.78125-.1875 1.09375 0 .75.35938 1.17187 1.14063 1.17187 1.51562 0 2.78125-1.4375 3.51562-3l-.5-.3125c-.42187.71875-1.35937 2.21875-1.9375 2.21875-.26562 0-.39062-.1875-.39062-.46875 0-.1875.04687-.40625.125-.65625l2.25-8.57812-1.875.23437c-.60938 2.15625-.96875 3.26563-1.5 4.54688-.92188 2.125-2.75 4.92187-4.5 4.92187-.4375 0-.67188-.28125-.67188-.82812 0-.26563.04688-.60938.15625-1.01563l2.01563-7.75-.10938-.10937-3.82812.57812-.125.51563 1.3125.10937c.3125.01563.42187.15625.42187.40625 0 .15625-.03125.34375-.10937.59375L2.65625-2.79687c-.125.5-.20312.96875-.20312 1.39062m0 0"/><path id="k" d="M1.78125-5.32812h11.5625v-1.21875H1.78125Zm0 0"/><path id="l" d="M1.1875-3.65625h8.20313v-.98437H1.1875Zm0 0"/><path id="m" d="M1.59375 0h4.9375v-.45312L5.35938-.5625C5.03125-.59375 4.875-.70312 4.875-1.25v-8.67187L4.78125-10l-3.17187.53125v.39063l1.26562.17187c.28125.04688.375.15625.375.60938V-1.25c0 .54688-.14062.65625-.48437.6875l-1.17188.10938Zm0 0"/><clipPath id="a"><path d="M95 .3125h1V319h-1Zm0 0"/></clipPath><clipPath id="b"><path d="M105 58h140v264.48828H105Zm0 0"/></clipPath><clipPath id="c"><path d="M0 58h261v264.48828H0Zm0 0"/></clipPath></defs><path fill="none" stroke="#000" stroke-miterlimit="10" stroke-width=".39761" d="M.19532 223.23828h254.55077"/><g clip-path="url(#a)"><path fill="none" stroke="#000" stroke-miterlimit="10" stroke-width=".39761" d="M95.65234 318.69531V.50781"/></g><g clip-path="url(#b)"><path fill="none" stroke="#007F7F" stroke-miterlimit="10" stroke-width=".39761" d="M111.5586 318.6836 238.8203 64.16406"/></g><g clip-path="url(#c)"><path fill="none" stroke="#007F7F" stroke-miterlimit="10" stroke-width=".39761" d="M254.73047 64.16407.20703 318.68359"/></g><path fill="none" stroke="#00ADEF" stroke-dasharray="2.9821350208 2.9821350208" stroke-miterlimit="10" stroke-width=".39761" d="m32.01563 286.875 95.45312-.0039"/><use xlink:href="#d" x="167.185" y="247.19915"/><use xlink:href="#e" x="175.7734" y="247.19915"/><use xlink:href="#f" x="186.91149" y="247.19915"/><use xlink:href="#g" x="194.96312" y="247.19915"/><use xlink:href="#h" x="206.10121" y="247.19915"/><use xlink:href="#i" x="153.23337" y="228.25974"/><use xlink:href="#d" x="135.36955" y="310.82904"/><use xlink:href="#j" x="143.95796" y="310.82904"/><use xlink:href="#f" x="158.71928" y="310.82904"/><use xlink:href="#k" x="166.77091" y="310.82904"/><use xlink:href="#e" x="181.89008" y="310.82904"/><use xlink:href="#h" x="193.02817" y="310.82904"/><use xlink:href="#i" x="121.41793" y="291.88964"/><use xlink:href="#d" x="40.24449" y="211.13226"/><use xlink:href="#g" x="48.8329" y="211.13226"/><use xlink:href="#f" x="59.97098" y="211.13226"/><use xlink:href="#g" x="68.02261" y="211.13226"/><use xlink:href="#h" x="79.1607" y="211.13226"/><use xlink:href="#i" x="89.60348" y="228.25974"/><use xlink:href="#d" x="135.52919" y="147.50237"/><use xlink:href="#e" x="144.1176" y="147.50237"/><use xlink:href="#f" x="155.25569" y="147.50237"/><use xlink:href="#e" x="163.30732" y="147.50237"/><use xlink:href="#h" x="174.4454" y="147.50237"/><use xlink:href="#i" x="153.23337" y="164.63085"/><g fill="#007F7F"><use xlink:href="#d" x="230.81389" y="103.35266"/><use xlink:href="#j" x="239.4023" y="103.35266"/></g><g fill="#007F7F"><use xlink:href="#l" x="253.04565" y="94.40653"/><use xlink:href="#m" x="263.62907" y="94.40653"/></g><use xlink:href="#f" x="272.90897" y="103.35266" fill="#007F7F"/><use xlink:href="#j" x="280.9606" y="103.35266" fill="#007F7F"/><g fill="#007F7F"><use xlink:href="#l" x="294.60642" y="94.40653"/><use xlink:href="#m" x="305.18985" y="94.40653"/></g><use xlink:href="#h" x="314.46975" y="103.35266" fill="#007F7F"/><use xlink:href="#i" x="216.86227" y="101.00095" fill="#007F7F"/></svg>