<svg xmlns="http://www.w3.org/2000/svg" xmlns:xlink="http://www.w3.org/1999/xlink" width="220.903pt" height="215.333pt" viewBox="0 0 220.903 215.333"><defs><path id="d" d="M1.20313-3.95312c0 3.15625.71875 6.64062 3.6875 6.75V2.375c-1-.1875-2.5625-1.42187-2.5625-6.32812 0-4.85938 1.48437-6.09375 2.5625-6.32813v-.40625c-2.96875.10938-3.6875 3.57813-3.6875 6.73438m0 0"/><path id="e" d="M1.51563 0H6.125v-.40625L4.9375-.5c-.29687-.03125-.45312-.14062-.45312-.6875v-8.25l-.07813-.07812-2.89062.48437v.34375l1.3125.17188c.23437.03125.32812.125.32812.53125v6.79687c0 .54688-.14062.65625-.46875.6875l-1.17187.09375Zm0 0"/><path id="f" d="m.71875 1.71875.26563.26563C1.6875 1.32813 2.6875.39063 2.6875-.71875c0-.73437-.39062-1.26562-.9375-1.26562-.42187 0-.6875.34375-.6875.70312 0 .5.45313.78125.45313 1.375 0 .57813-.35938 1.125-.79688 1.625m0 0"/><path id="g" d="M.57813-4.67187c0 2.79687.84375 4.82812 3.14062 4.82812 2.3125 0 3.125-2.03125 3.125-4.82812s-.8125-4.84375-3.125-4.84375c-2.29687 0-3.14062 2.04687-3.14062 4.84375m1.42187 0c0-2.28125.39063-4.35938 1.71875-4.35938 1.32813 0 1.70313 2.07813 1.70313 4.35938s-.375 4.34375-1.70313 4.34375C2.39063-.32812 2-2.39062 2-4.67187m0 0"/><path id="h" d="M.82813 2.375v.42188c2.96875-.10938 3.6875-3.59375 3.6875-6.75s-.71875-6.625-3.6875-6.73438v.40625c1.07812.23438 2.5625 1.46875 2.5625 6.32813 0 4.90625-1.5625 6.14062-2.5625 6.32812m0 0"/><path id="i" d="M1.26563-3.95312c0 1.60937 1.17187 2.79687 2.79687 2.79687 1.5625 0 2.75-1.1875 2.75-2.79687 0-1.5625-1.1875-2.73438-2.75-2.73438-1.625 0-2.79687 1.17188-2.79687 2.73438m0 0"/><path id="j" d="M1.64063-.9375c0 .65625.28124 1.09375 1.0625 1.09375 1.34375 0 2.82812-1.46875 3.65625-3.09375h.03125l-.46875 1.59375c-.0625.28125-.10938.53125-.10938.73438 0 .48437.23438.76562.75.76562 1.01563 0 1.84375-.95312 2.34375-1.98437l-.32812-.21876C8.29688-1.5625 7.67188-.5625 7.28125-.5625c-.17187 0-.25-.125-.25-.3125 0-.125.03125-.26562.07813-.4375l1.5-5.71875-1.25.17188c-.40625 1.42187-.64063 2.17187-1 3.01562-.60938 1.42188-1.82813 3.28125-3 3.28125-.29688 0-.4375-.1875-.4375-.54687 0-.1875.03125-.40625.09375-.67188l1.34375-5.17187-.07813-.07813L1.75-6.64062l-.09375.34375.875.07812c.20313.01563.28125.09375.28125.26563 0 .09375-.03125.23437-.07812.40625l-.96875 3.6875c-.07813.32812-.125.64062-.125.92187m0 0"/><path id="k" d="M1.1875-3.54687h7.70313v-.8125H1.1875Zm0 0"/><path id="l" d="M.79688-2.4375H6.25v-.64062H.79688Zm0 0"/><path id="m" d="M1.0625 0h3.28125v-.29687L3.5625-.375c-.21875-.01562-.32812-.09375-.32812-.45312v-5.78125l-.0625-.04688-2.09375.34375v.26563l.84375.10937c.1875.03125.25.10938.25.40625v4.70313c0 .35937-.09375.4375-.32813.45312l-.78125.07813Zm0 0"/><clipPath id="a"><path d="M.29297 148H171v1H.29297Zm0 0"/></clipPath><clipPath id="b"><path d="M69 36h97v178.66797H69Zm0 0"/></clipPath><clipPath id="c"><path d="M.29297 36H176v178.66797H.29297Zm0 0"/></clipPath></defs><g clip-path="url(#a)"><path fill="none" stroke="#000" stroke-miterlimit="10" stroke-width=".39727" d="M.49219 148.5586h169.55468"/></g><path fill="none" stroke="#000" stroke-miterlimit="10" stroke-width=".39727" d="M64.07422 212.14062V.19532"/><g clip-path="url(#b)"><path fill="none" stroke="#007f7f" stroke-miterlimit="10" stroke-width=".39727" d="M74.67187 212.13281 159.4375 42.59766"/></g><g clip-path="url(#c)"><path fill="none" stroke="#007f7f" stroke-miterlimit="10" stroke-width=".39727" d="M170.03515 42.59766.4961 212.13281"/></g><path fill="none" stroke="#00adef" stroke-dasharray="2.9795945153 2.9795945153" stroke-miterlimit="10" stroke-width=".39727" d="m21.6836 190.94531 63.58202-.0039"/><use xlink:href="#d" x="111.72057" y="164.5184"/><use xlink:href="#e" x="117.44133" y="164.5184"/><use xlink:href="#f" x="124.89024" y="164.5184"/><use xlink:href="#g" x="130.25345" y="164.5184"/><use xlink:href="#h" x="137.70236" y="164.5184"/><use xlink:href="#i" x="102.42736" y="151.90248"/><use xlink:href="#d" x="90.52921" y="206.90212"/><use xlink:href="#j" x="96.24997" y="206.90212"/><use xlink:href="#f" x="106.08253" y="206.90212"/><use xlink:href="#k" x="111.44574" y="206.90212"/><use xlink:href="#e" x="121.51666" y="206.90212"/><use xlink:href="#h" x="128.96557" y="206.90212"/><use xlink:href="#i" x="81.236" y="194.28619"/><use xlink:href="#d" x="27.10666" y="140.49382"/><use xlink:href="#g" x="32.82742" y="140.49382"/><use xlink:href="#f" x="40.27633" y="140.49382"/><use xlink:href="#g" x="45.63954" y="140.49382"/><use xlink:href="#h" x="53.08845" y="140.49382"/><use xlink:href="#i" x="60.04364" y="151.90248"/><use xlink:href="#d" x="90.60597" y="98.1101"/><use xlink:href="#e" x="96.32673" y="98.1101"/><use xlink:href="#f" x="103.77564" y="98.1101"/><use xlink:href="#e" x="109.13885" y="98.1101"/><use xlink:href="#h" x="116.58776" y="98.1101"/><use xlink:href="#i" x="102.42736" y="109.51876"/><g fill="#007f7f"><use xlink:href="#d" x="154.10528" y="68.7012"/><use xlink:href="#j" x="159.82604" y="68.7012"/></g><g fill="#007f7f"><use xlink:href="#l" x="168.91242" y="62.74215"/><use xlink:href="#m" x="175.96206" y="62.74215"/></g><use xlink:href="#f" x="182.14343" y="68.7012" fill="#007f7f"/><use xlink:href="#j" x="187.50664" y="68.7012" fill="#007f7f"/><g fill="#007f7f"><use xlink:href="#l" x="196.59616" y="62.74215"/><use xlink:href="#m" x="203.64581" y="62.74215"/></g><use xlink:href="#h" x="209.82718" y="68.7012" fill="#007f7f"/><use xlink:href="#i" x="144.81207" y="67.13505" fill="#007f7f"/></svg>