<svg xmlns="http://www.w3.org/2000/svg" xmlns:xlink="http://www.w3.org/1999/xlink" width="390.278" height="322.893" viewBox="0 0 390.278 322.893"><defs><path id="b" d="M1.90625-5.92187c0 2.40625 1.76563 4.17187 4.20313 4.17187 2.34375 0 4.10937-1.76562 4.10937-4.17187 0-2.35938-1.76562-4.125-4.10937-4.125-2.4375 0-4.20313 1.76562-4.20313 4.125m0 0"/><path id="c" d="M1.8125-5.92187c0 4.73437 1.07813 9.95312 5.53125 10.125v-.625c-1.5-.28125-3.85937-2.14063-3.85937-9.5 0-7.32813 2.25-9.1875 3.85937-9.51563v-.625c-4.45312.17188-5.53125 5.39063-5.53125 10.14063m0 0"/><path id="d" d="M.67188-.82812C.67188-.21876 1.15625.25 2.01563.25 3.45313.25 4.25-1.1875 5.125-2.59375l.84375-1.39062h.04688l.39062 1.65625C6.79688-.65625 7.1875.25 8.25.25c1.54688 0 2.35938-1.59375 2.98438-2.875l-.54688-.28125c-.5.9375-1.09375 2.0625-1.67187 2.0625-.40625 0-.5625-.46875-1.03125-2.35937l-.67188-2.75C8.07813-7.29687 9.15625-8.96875 9.75-8.96875c.625 0 .65625.32813 1.28125.32813.46875 0 .89063-.4375.89063-1 0-.65625-.48438-.92188-1.0625-.92188-1.125 0-2.0625 1.01563-2.79688 2.1875l-.92187 1.4375h-.04688L6.25-10.46875l-.125-.09375-3.46875 1.04688L2.70313-9l1.65625-.10937c.34375 0 .5.15625.70312 1.04687l.73438 3.04688L5.21875-4c-.90625 1.53125-1.6875 2.64063-2.20312 2.64063-.59375 0-.75-.51563-1.42188-.51563-.54687 0-.92187.53125-.92187 1.04688m0 0"/><path id="e" d="m1.07813 2.57813.40625.39062c1.04687-.98437 2.5625-2.39062 2.5625-4.04687 0-1.10938-.59375-1.89063-1.40625-1.89063-.65625 0-1.04688.5-1.04688 1.04688 0 .76562.6875 1.15625.6875 2.0625 0 .85937-.53125 1.6875-1.20312 2.4375m0 0"/><path id="f" d="M.875-7.03125C.875-2.8125 2.10938.25 5.57813.25s4.71875-3.0625 4.71875-7.28125c0-4.20312-1.25-7.26562-4.71875-7.26562S.875-11.23437.875-7.03125m2.125 0c0-3.42187.57813-6.53125 2.57813-6.53125 1.98437 0 2.5625 3.10938 2.5625 6.53125S7.5625-.5 5.57813-.5C3.57813-.5 3-3.60937 3-7.03125m0 0"/><path id="g" d="M1.25 3.57813v.625c4.45313-.17188 5.53125-5.39063 5.53125-10.125 0-4.75-1.07812-9.96875-5.53125-10.14063v.625c1.60938.32813 3.84375 2.1875 3.84375 9.51563 0 7.35937-2.34375 9.21875-3.84375 9.5m0 0"/><path id="h" d="M1.54688-5.92187C1.54688.09375 2.625 6.6875 7.07813 6.90625V6.125c-1.5-.35937-3.85938-2.71875-3.85938-12.04687 0-9.29688 2.23438-11.64063 3.85938-12.0625v-.78126c-4.45313.21876-5.53125 6.8125-5.53125 12.84376m0 0"/><path id="m" d="M1.54688 6.125v.78125C6 6.6875 7.07813.09375 7.07813-5.92187c0-6.03125-1.07813-12.625-5.53125-12.84375v.78124c1.60937.42188 3.84375 2.76563 3.84375 12.0625 0 9.32813-2.34375 11.6875-3.84375 12.04688m0 0"/><path id="n" d="m2.59375-6.73437.29688.40625c.32812-.14063.9375-.25 1.15625-.25.09375.20312 4.75 11.04687 4.75 11.04687H9.625l11.67188-24.42187c.10937-.23438.15624-.3125.15624-.39063 0-.21875-.10937-.79687-.42187-.79687-.15625 0-.32812.28124-.46875.5625L9.84375 1.90624 5.53125-8.1875C5.4375-8.375 5.42188-8.5 5.26563-8.5c-.07813 0-.09375.01563-.29688.17188Zm0 0"/><path id="o" d="M1.79688-5.32812h11.5625V-6.5625H1.79688Zm0 0"/><path id="i" d="M.5-.625c0 .4375.375.79688 1 .79688.98438 0 1.53125-.9375 2.125-1.92188l.57813-.96875h.03125L4.5-1.59375c.26563 1.125.54688 1.76563 1.32813 1.76563 1.15625 0 1.79687-1.15625 2.23437-2.14063l-.39062-.21875c-.35938.70313-.78125 1.5-1.1875 1.5-.28125 0-.39063-.3125-.67188-1.45312l-.51562-2.09375c.5-.875 1.1875-1.9375 1.59375-1.9375.4375 0 .51562.25.95312.25.34375 0 .67188-.34375.67188-.78125 0-.48438-.35938-.6875-.78125-.6875-.75 0-1.39063.625-1.90625 1.4375L5.17188-4.9375h-.03125l-.5625-2.39062L4.5-7.39062l-2.59375.73437.03125.39063 1.07813-.07813c.26562 0 .39062.10938.51562.67188l.54688 2.20312-.42188.71875c-.5625.98438-1.0625 1.70313-1.40625 1.70313-.4375 0-.57812-.39063-1.04687-.39063C.8125-1.4375.5-1.03125.5-.625m0 0"/><path id="j" d="M1.25-3.65625h3.5625v3.54688h.98438v-3.54688h3.54687v-1H5.79688v-3.54687H4.8125v3.54687H1.25Zm0 0"/><path id="k" d="M1.59375 0h4.9375v-.45312L5.35938-.5625C5.03125-.59375 4.875-.70312 4.875-1.25v-8.67187L4.78125-10l-3.17187.53125v.39063l1.26562.17187c.28125.04688.375.15625.375.60938V-1.25c0 .54688-.14062.65625-.48437.6875l-1.17188.10938Zm0 0"/><path id="l" d="M.42188-.17187.59375 0h6.23438l.53125-2.09375-.4375-.07812c-.34375.78125-.60938.89062-1.20313.89062H1.95313c.23437-.70312 1.01562-1.6875 2.45312-2.65625 1.48438-1 2.54688-1.6875 2.54688-3.29687C6.95313-9.28125 5.5625-10 3.9375-10 1.92188-10 .78125-8.84375.78125-7.95312c0 .53125.60938.78125.92188.78125.28124 0 .42187-.15625.48437-.4375.23438-1.03125.78125-1.84375 1.64063-1.84375 1.04687 0 1.375.89062 1.375 1.95312 0 1.42188-.64063 2.35938-2.03125 3.54688-1.875 1.625-2.53125 2.6875-2.75 3.78125m0 0"/><clipPath id="a"><path d="M159 3h1v319.54297h-1Zm0 0"/></clipPath></defs><path fill="none" stroke="#007F7F" stroke-miterlimit="10" stroke-width=".39776" d="M350.33976 163.1875c0-52.73826-42.75389-95.49214-95.49215-95.49214-52.74216 0-95.49605 42.75388-95.49605 95.49214 0 52.74216 42.75389 95.49605 95.49605 95.49605 52.73826 0 95.49215-42.75389 95.49215-95.49605Zm0 0"/><path fill="none" stroke="#000" stroke-miterlimit="10" stroke-width=".39776" d="M.19538 163.1875h318.31236"/><g clip-path="url(#a)"><path fill="none" stroke="#000" stroke-miterlimit="10" stroke-width=".39776" d="M159.35156 322.34368V4.03132"/></g><path fill="none" stroke="#007F7F" stroke-miterlimit="10" stroke-width=".39776" d="M286.664 16.78132v292.81236"/><path fill="none" stroke="#00ADEF" stroke-dasharray="2.9833006645 2.9833006645" stroke-miterlimit="10" stroke-width=".39776" d="M159.35156 163.1875 286.664 73.1641m-127.31244 90.0234L286.664 253.2109"/><path fill="none" stroke="red" stroke-miterlimit="10" stroke-width=".39776" d="M286.664 163.1875v-19.09765h-19.09764v19.09765Zm0 0"/><use xlink:href="#b" x="280.61088" y="168.21099"/><use xlink:href="#c" x="294.56806" y="151.07668"/><use xlink:href="#d" x="303.15989" y="151.07668"/><use xlink:href="#e" x="316.47274" y="151.07668"/><use xlink:href="#f" x="324.52758" y="151.07668"/><use xlink:href="#g" x="335.6701" y="151.07668"/><use xlink:href="#b" x="280.61088" y="40.9015"/><use xlink:href="#c" x="294.56806" y="23.7672"/><use xlink:href="#d" x="303.15989" y="23.7672"/><use xlink:href="#e" x="316.47274" y="23.7672"/><use xlink:href="#d" x="324.52758" y="23.7672"/><use xlink:href="#g" x="337.84044" y="23.7672"/><use xlink:href="#b" x="153.3004" y="168.21099"/><use xlink:href="#c" x="103.92275" y="187.15794"/><use xlink:href="#f" x="112.51457" y="187.15794"/><use xlink:href="#e" x="123.6571" y="187.15794"/><use xlink:href="#f" x="131.71194" y="187.15794"/><use xlink:href="#g" x="142.85446" y="187.15794"/><use xlink:href="#b" x="248.78276" y="168.21099"/><use xlink:href="#h" x="220.79953" y="190.0955"/><use xlink:href="#i" x="231.22474" y="181.10089"/><use xlink:href="#j" x="240.71603" y="181.10089"/><use xlink:href="#k" x="251.30367" y="181.10089"/><path fill="none" stroke="#000" stroke-miterlimit="10" stroke-width="1.23073" d="M231.22656 184.16797h28.01562"/><use xlink:href="#l" x="241.26592" y="197.97168"/><use xlink:href="#e" x="261.92994" y="190.0955"/><use xlink:href="#f" x="269.98478" y="190.0955"/><use xlink:href="#m" x="281.1273" y="190.0955"/><use xlink:href="#b" x="280.61088" y="78.18952" fill="#007F7F"/><g fill="#007F7F"><use xlink:href="#c" x="294.56806" y="58.99703"/><use xlink:href="#d" x="303.15989" y="58.99703"/></g><use xlink:href="#e" x="316.47274" y="58.99703" fill="#007F7F"/><use xlink:href="#n" x="324.52988" y="60.78697" fill="#007F7F"/><path fill="none" stroke="#007F7F" stroke-miterlimit="10" stroke-width="1.23073" d="M345.5625 40.25781h12.82031"/><g fill="#007F7F"><use xlink:href="#d" x="345.56222" y="58.99703"/><use xlink:href="#g" x="358.38284" y="58.99703"/></g><use xlink:href="#b" x="280.61088" y="258.23345" fill="#007F7F"/><g fill="#007F7F"><use xlink:href="#c" x="294.56806" y="281.69904"/><use xlink:href="#d" x="303.15989" y="281.69904"/></g><use xlink:href="#e" x="316.47274" y="281.69904" fill="#007F7F"/><use xlink:href="#o" x="324.52758" y="281.69904" fill="#007F7F"/><use xlink:href="#n" x="339.65565" y="283.48898" fill="#007F7F"/><path fill="none" stroke="#007F7F" stroke-miterlimit="10" stroke-width="1.23073" d="M360.6875 262.96094h12.82031"/><g fill="#007F7F"><use xlink:href="#d" x="360.68574" y="281.69904"/><use xlink:href="#g" x="373.50636" y="281.69904"/></g></svg>