<svg xmlns="http://www.w3.org/2000/svg" xmlns:xlink="http://www.w3.org/1999/xlink" width="260.58pt" height="215.328pt" viewBox="0 0 260.58 215.328"><defs><path id="c" d="M1.26563-3.95312c0 1.60937 1.17187 2.79687 2.79687 2.79687 1.5625 0 2.75-1.1875 2.75-2.79687 0-1.5625-1.1875-2.73438-2.75-2.73438-1.625 0-2.79687 1.17188-2.79687 2.73438m0 0"/><path id="d" d="M1.20313-3.95312c0 3.15625.71875 6.64062 3.6875 6.75V2.375c-1-.1875-2.5625-1.42187-2.5625-6.32812 0-4.85938 1.48437-6.09375 2.5625-6.32813v-.40625c-2.96875.10938-3.6875 3.57813-3.6875 6.73438m0 0"/><path id="e" d="M.45313-.54687c0 .39062.32812.70312.89062.70312.95313 0 1.48438-.95312 2.0625-1.89062l.5625-.92188H4l.26563 1.10938C4.53125-.4375 4.78125.15624 5.5.15624c1.01563 0 1.5625-1.04687 1.96875-1.90625L7.125-1.9375c-.34375.625-.73437 1.375-1.125 1.375-.26562 0-.375-.3125-.6875-1.5625L4.875-3.95312c.5-.90625 1.21875-2.01563 1.625-2.01563s.42188.21875.84375.21875c.3125 0 .59375-.29687.59375-.67187 0-.42188-.32812-.60938-.71875-.60938-.73437 0-1.35937.67188-1.85937 1.46875L4.75-4.60937h-.03125l-.5625-2.35938-.07812-.0625-2.3125.70313.03124.34375 1.10938-.07813c.21875 0 .32813.10938.45313.70313l.5 2.03125-.39063.65625C2.875-1.64062 2.35938-.90625 2.01563-.90625 1.60938-.90625 1.5-1.25 1.0625-1.25c-.35937 0-.60937.35938-.60937.70313m0 0"/><path id="f" d="m.71875 1.71875.26563.26563C1.6875 1.32813 2.6875.39063 2.6875-.71875c0-.73437-.39062-1.26562-.9375-1.26562-.42187 0-.6875.34375-.6875.70312 0 .5.45313.78125.45313 1.375 0 .57813-.35938 1.125-.79688 1.625m0 0"/><path id="g" d="M.57813-4.67187c0 2.79687.84375 4.82812 3.14062 4.82812 2.3125 0 3.125-2.03125 3.125-4.82812s-.8125-4.84375-3.125-4.84375c-2.29687 0-3.14062 2.04687-3.14062 4.84375m1.42187 0c0-2.28125.39063-4.35938 1.71875-4.35938 1.32813 0 1.70313 2.07813 1.70313 4.35938s-.375 4.34375-1.70313 4.34375C2.39063-.32812 2-2.39062 2-4.67187m0 0"/><path id="h" d="M.82813 2.375v.42188c2.96875-.10938 3.6875-3.59375 3.6875-6.75s-.71875-6.625-3.6875-6.73438v.40625c1.07812.23438 2.5625 1.46875 2.5625 6.32813 0 4.90625-1.5625 6.14062-2.5625 6.32812m0 0"/><path id="i" d="M1.03125-3.95312c0 4.01562.71875 8.40625 3.67188 8.54687v-.51562c-1-.23438-2.5625-1.8125-2.5625-8.03125 0-6.17188 1.5-7.73438 2.5625-8.01563V-12.5C1.75-12.34375 1.03125-7.95312 1.03125-3.95312m0 0"/><path id="n" d="M1.03125 4.07813v.51562C3.98438 4.45313 4.70313.0625 4.70313-3.95312c0-4-.71875-8.39063-3.67188-8.54688v.53125c1.0625.28125 2.5625 1.84375 2.5625 8.01563 0 6.21875-1.5625 7.79687-2.5625 8.03125m0 0"/><path id="o" d="m1.73438-4.48437.1875.26562c.21874-.07812.625-.15625.76562-.15625.0625.125 3.17188 7.35938 3.17188 7.35938h.54687l7.76563-16.26563c.07812-.15625.10937-.20312.10937-.25 0-.15625-.07812-.54687-.28125-.54687-.10937 0-.21875.20312-.3125.375L6.54688 1.26563l-2.875-6.71875C3.625-5.5625 3.60938-5.65625 3.5-5.65625c-.04687 0-.0625.01563-.1875.10938Zm0 0"/><path id="p" d="M1.1875-3.54687h7.70313v-.8125H1.1875Zm0 0"/><path id="j" d="M.32813-.42187c0 .29687.25.53125.67187.53125.65625 0 1.01563-.625 1.42188-1.28125l.375-.64063h.01562l.17188.75c.1875.75.375 1.17188.89062 1.17188.76563 0 1.20313-.76563 1.5-1.42188l-.26562-.14062c-.25.46875-.53125 1-.79688 1-.1875 0-.26562-.21875-.45312-.96875L3.51563-2.8125c.34375-.57812.79687-1.29687 1.0625-1.29687.29687 0 .34375.17187.64062.17187.23438 0 .45313-.23437.45313-.51562 0-.32813-.23438-.46875-.51563-.46875-.51562 0-.9375.42187-1.28125.96875l-.4375.67187h-.01562l-.375-1.59375-.0625-.04687-1.71875.5.03124.25.71876-.04688c.17187 0 .25.07813.34375.45313l.34375 1.45312-.26563.48438c-.375.65625-.70312 1.125-.9375 1.125-.29687 0-.39062-.25-.70312-.25-.25 0-.46875.26562-.46875.53125m0 0"/><path id="k" d="M.82813-2.4375h2.375v2.35938h.65625V-2.4375h2.35937v-.65625H3.85938v-2.375h-.65625v2.375h-2.375Zm0 0"/><path id="l" d="M1.0625 0h3.28125v-.29687L3.5625-.375c-.21875-.01562-.32812-.09375-.32812-.45312v-5.78125l-.0625-.04688-2.09375.34375v.26563l.84375.10937c.1875.03125.25.10938.25.40625v4.70313c0 .35937-.09375.4375-.32813.45312l-.78125.07813Zm0 0"/><path id="m" d="M.28125-.10937.39063 0h4.15625l.34375-1.39062-.28125-.0625c-.23438.53125-.40625.59375-.8125.59375h-2.5c.15624-.46875.6875-1.125 1.625-1.75 1-.67188 1.70312-1.125 1.70312-2.20313 0-1.375-.92187-1.84375-2.01562-1.84375-1.32813 0-2.09375.76563-2.09375 1.35938 0 .35937.40625.53125.625.53125.1875 0 .28124-.10938.3125-.29688.15624-.6875.53125-1.23437 1.09375-1.23437.6875 0 .90625.59375.90625 1.3125 0 .9375-.42188 1.5625-1.34375 2.35937C.85938-1.54687.42188-.84375.28124-.10937m0 0"/><clipPath id="a"><path d="M.19531 108H213v1H.19531Zm0 0"/></clipPath><clipPath id="b"><path d="M106 2h1v212.65625h-1Zm0 0"/></clipPath></defs><path fill="none" stroke="#007f7f" stroke-miterlimit="10" stroke-width=".39726" d="M233.52736 108.49219c0-35.1172-28.46876-63.58204-63.58204-63.58204-35.1172 0-63.58204 28.46485-63.58204 63.58204 0 35.11328 28.46485 63.58204 63.58204 63.58204 35.11328 0 63.58204-28.46876 63.58204-63.58204Zm0 0"/><g clip-path="url(#a)"><path fill="none" stroke="#000" stroke-miterlimit="10" stroke-width=".39726" d="M.39452 108.49219h211.93752"/></g><g clip-path="url(#b)"><path fill="none" stroke="#000" stroke-miterlimit="10" stroke-width=".39726" d="M106.36328 214.46095V2.52343"/></g><path fill="none" stroke="#007f7f" stroke-miterlimit="10" stroke-width=".39726" d="M191.12892 11.0117v194.96097"/><path fill="none" stroke="#00adef" stroke-dasharray="2.9795347387000004 2.9795347387000004" stroke-miterlimit="10" stroke-width=".39726" d="m106.36328 108.49219 84.76564-59.94141m-84.76564 59.94141 84.76564 59.9375"/><path fill="none" stroke="red" stroke-miterlimit="10" stroke-width=".39726" d="M191.12892 108.49219V95.77344h-12.71485v12.71875Zm0 0"/><use xlink:href="#c" x="187.09871" y="111.83498"/><use xlink:href="#d" x="196.39171" y="100.42659"/><use xlink:href="#e" x="202.11234" y="100.42659"/><use xlink:href="#f" x="210.97633" y="100.42659"/><use xlink:href="#g" x="216.33942" y="100.42659"/><use xlink:href="#h" x="223.78815" y="100.42659"/><use xlink:href="#c" x="187.09871" y="27.06952"/><use xlink:href="#d" x="196.39171" y="15.66112"/><use xlink:href="#e" x="202.11234" y="15.66112"/><use xlink:href="#f" x="210.97633" y="15.66112"/><use xlink:href="#e" x="216.33942" y="15.66112"/><use xlink:href="#h" x="225.20341" y="15.66112"/><use xlink:href="#c" x="102.33325" y="111.83498"/><use xlink:href="#d" x="69.39604" y="124.45061"/><use xlink:href="#g" x="75.11667" y="124.45061"/><use xlink:href="#f" x="82.5654" y="124.45061"/><use xlink:href="#g" x="87.92849" y="124.45061"/><use xlink:href="#h" x="95.37722" y="124.45061"/><use xlink:href="#c" x="165.90784" y="111.83498"/><use xlink:href="#i" x="147.26004" y="126.40651"/><use xlink:href="#j" x="154.20287" y="120.4177"/><use xlink:href="#k" x="160.52238" y="120.4177"/><use xlink:href="#l" x="167.57186" y="120.4177"/><path fill="none" stroke="#000" stroke-miterlimit="10" stroke-width=".81944" d="M154.20312 122.45703h18.65625"/><use xlink:href="#m" x="160.88701" y="131.65064"/><use xlink:href="#f" x="174.64707" y="126.40651"/><use xlink:href="#g" x="180.01016" y="126.40651"/><use xlink:href="#n" x="187.45889" y="126.40651"/><use xlink:href="#c" x="187.09871" y="51.89704" fill="#007f7f"/><g fill="#007f7f"><use xlink:href="#d" x="196.39171" y="39.11792"/><use xlink:href="#e" x="202.11234" y="39.11792"/></g><use xlink:href="#f" x="210.97633" y="39.11792" fill="#007f7f"/><use xlink:href="#o" x="216.34095" y="40.3097" fill="#007f7f"/><path fill="none" stroke="#007f7f" stroke-miterlimit="10" stroke-width=".81944" d="M230.34375 26.64063h8.86719"/><use xlink:href="#e" x="230.34475" y="39.11792" fill="#007f7f"/><use xlink:href="#h" x="239.20874" y="39.11792" fill="#007f7f"/><use xlink:href="#c" x="187.09871" y="171.77392" fill="#007f7f"/><g fill="#007f7f"><use xlink:href="#d" x="196.39171" y="187.39816"/><use xlink:href="#e" x="202.11234" y="187.39816"/></g><use xlink:href="#f" x="210.97633" y="187.39816" fill="#007f7f"/><use xlink:href="#p" x="216.33942" y="187.39816" fill="#007f7f"/><use xlink:href="#o" x="226.41202" y="188.58995" fill="#007f7f"/><path fill="none" stroke="#007f7f" stroke-miterlimit="10" stroke-width=".81944" d="M240.41406 174.92188h8.86719"/><use xlink:href="#e" x="240.41582" y="187.39816" fill="#007f7f"/><use xlink:href="#h" x="249.27981" y="187.39816" fill="#007f7f"/></svg>