<svg xmlns="http://www.w3.org/2000/svg" xmlns:xlink="http://www.w3.org/1999/xlink" width="319.296" height="191.737" viewBox="0 0 319.296 191.737"><defs><path id="c" d="M1.90625-5.92187c0 2.40625 1.76563 4.17187 4.20313 4.17187 2.34375 0 4.10937-1.76562 4.10937-4.17187 0-2.34375-1.76562-4.125-4.10937-4.125-2.4375 0-4.20313 1.78125-4.20313 4.125m0 0"/><path id="d" d="M1.8125-5.92187c0 4.73437 1.07813 9.95312 5.51563 10.125v-.625c-1.5-.29688-3.84375-2.14063-3.84375-9.5 0-7.3125 2.23437-9.17188 3.84375-9.5v-.625c-4.4375.17187-5.51563 5.375-5.51563 10.125m0 0"/><path id="e" d="M2.45313-1.40625C2.45313-.42187 2.89063.25 4.0625.25c2.01563 0 4.23438-2.21875 5.48438-4.65625h.04687l-.6875 2.39063c-.125.42187-.1875.78125-.1875 1.09375 0 .75.35938 1.17187 1.14063 1.17187 1.51562 0 2.78125-1.4375 3.51562-3l-.5-.3125c-.42187.71875-1.35937 2.21875-1.9375 2.21875-.26562 0-.39062-.1875-.39062-.46875 0-.1875.04687-.40625.125-.65625l2.25-8.57812-1.875.23437c-.60938 2.15625-.96875 3.26563-1.5 4.54688-.92188 2.125-2.75 4.92187-4.5 4.92187-.4375 0-.67188-.28125-.67188-.82812 0-.26563.04688-.60938.15625-1.01563l2.01563-7.75-.10938-.10937-3.82812.57812-.125.51563 1.3125.10937c.3125.01563.42187.15625.42187.40625 0 .15625-.03125.34375-.10937.59375L2.65625-2.79687c-.125.5-.20312.96875-.20312 1.39062m0 0"/><path id="f" d="m1.07813 2.57813.39062.39062c1.0625-.98437 2.57813-2.39062 2.57813-4.04687 0-1.10938-.60938-1.89063-1.40625-1.89063-.65625 0-1.04688.51563-1.04688 1.04688 0 .76562.6875 1.15625.6875 2.0625 0 .85937-.53125 1.6875-1.20312 2.4375m0 0"/><path id="g" d="M.875-7.01562C.875-2.8125 2.10938.25 5.5625.25c3.46875 0 4.71875-3.0625 4.71875-7.26562s-1.25-7.26563-4.71875-7.26563c-3.45312 0-4.6875 3.0625-4.6875 7.26563m2.125 0c0-3.42188.57813-6.53125 2.5625-6.53125 2 0 2.57813 3.10937 2.57813 6.53125S7.5625-.48437 5.5625-.48437C3.57813-.48437 3-3.59375 3-7.01562m0 0"/><path id="h" d="M1.25 3.57813v.625c4.45313-.17188 5.53125-5.39063 5.53125-10.125 0-4.75-1.07812-9.95313-5.53125-10.125v.625c1.60938.32812 3.84375 2.1875 3.84375 9.5 0 7.35937-2.34375 9.20312-3.84375 9.5m0 0"/><path id="i" d="M1.78125-5.32812h11.5625v-1.21875H1.78125Zm0 0"/><clipPath id="a"><path d="M0 95h318.59375v1H0Zm0 0"/></clipPath><clipPath id="b"><path d="M159 .07813h1v191.3164h-1Zm0 0"/></clipPath></defs><g clip-path="url(#a)"><path fill="none" stroke="#000" stroke-miterlimit="10" stroke-width=".39762" d="M.19531 95.73828h318.20313"/></g><g clip-path="url(#b)"><path fill="none" stroke="#000" stroke-miterlimit="10" stroke-width=".39762" d="M159.29687 191.19922V.27734"/></g><use xlink:href="#c" x="216.8858" y="100.75872"/><use xlink:href="#d" x="230.83105" y="83.63048"/><use xlink:href="#e" x="239.41984" y="83.63048"/><use xlink:href="#f" x="254.18181" y="83.63048"/><use xlink:href="#g" x="262.23379" y="83.63048"/><use xlink:href="#h" x="273.37237" y="83.63048"/><use xlink:href="#c" x="89.60743" y="100.75872" fill="#007F7F"/><g fill="#007F7F"><use xlink:href="#d" x="21.50958" y="83.63048"/><use xlink:href="#i" x="30.09836" y="83.63048"/><use xlink:href="#e" x="45.2182" y="83.63048"/></g><use xlink:href="#f" x="59.98017" y="83.63048" fill="#007F7F"/><g fill="#007F7F"><use xlink:href="#g" x="68.03215" y="83.63048"/><use xlink:href="#h" x="79.17073" y="83.63048"/></g><path fill="none" stroke="#007F7F" stroke-miterlimit="10" stroke-width=".39762" d="M222.9375 95.73828c0-35.14844-28.49219-63.64062-63.64063-63.64062-35.14843 0-63.64062 28.49218-63.64062 63.64062s28.49219 63.64063 63.64062 63.64063c35.14844 0 63.64063-28.4922 63.64063-63.64063Zm0 0"/></svg>