<svg xmlns="http://www.w3.org/2000/svg" xmlns:xlink="http://www.w3.org/1999/xlink" width="229.683pt" height="191.723pt" viewBox="0 0 229.683 191.723"><defs><path id="b" d="M1.20313-3.95312c0 3.15625.71875 6.64062 3.6875 6.76562v-.42187c-1-.20313-2.5625-1.4375-2.5625-6.34375 0-4.875 1.48437-6.125 2.5625-6.34375v-.42188c-2.96875.125-3.6875 3.59375-3.6875 6.76563m0 0"/><path id="c" d="M.57813-4.6875c0 2.8125.84375 4.85938 3.15625 4.85938s3.125-2.04688 3.125-4.85938c0-2.79687-.8125-4.84375-3.125-4.84375S.57813-7.48437.57813-4.6875M2-4.6875c0-2.28125.40625-4.35937 1.73438-4.35937 1.32812 0 1.70312 2.07812 1.70312 4.35937S5.0625-.32812 3.73438-.32812C2.40625-.32812 2-2.40625 2-4.6875m0 0"/><path id="d" d="m.71875 1.71875.26563.26563C1.6875 1.32813 2.70313.39063 2.70313-.71875c0-.75-.40625-1.26562-.9375-1.26562-.4375 0-.70313.34375-.70313.70312 0 .5.45313.78125.45313 1.375 0 .57813-.35938 1.125-.79688 1.625m0 0"/><path id="e" d="M1.64063-.9375c0 .65625.28124 1.10938 1.07812 1.10938 1.34375 0 2.8125-1.48438 3.65625-3.10938h.03125L5.9375-1.34375c-.07812.28125-.125.51563-.125.73438 0 .48437.25.78125.76563.78125 1.01562 0 1.85937-.96875 2.34375-2l-.32813-.21876C8.3125-1.5625 7.6875-.5625 7.29688-.5625c-.17188 0-.25-.125-.25-.3125 0-.125.03125-.28125.07812-.4375l1.5-5.73437-1.25.17187c-.40625 1.42188-.64062 2.17188-1 3.03125-.60937 1.40625-1.84375 3.28125-3 3.28125-.29687 0-.45312-.1875-.45312-.5625 0-.17187.03125-.39062.10937-.67187L4.375-6.96875l-.07812-.07812L1.75-6.65625l-.09375.34375.875.07813c.21875.01562.28125.09375.28125.26562 0 .10938-.01562.23438-.0625.40625l-.96875 3.70313c-.09375.32812-.14062.64062-.14062.92187m0 0"/><path id="f" d="M.82813 2.39063v.42187c2.98437-.125 3.6875-3.60937 3.6875-6.76562 0-3.17188-.70313-6.64063-3.6875-6.76563v.42188c1.07812.21875 2.57812 1.46875 2.57812 6.34375 0 4.90625-1.57812 6.14062-2.57812 6.34375m0 0"/><path id="g" d="M1.26563-3.95312c0 1.60937 1.1875 2.79687 2.8125 2.79687 1.5625 0 2.73437-1.1875 2.73437-2.79687 0-1.5625-1.17187-2.75-2.73437-2.75-1.625 0-2.8125 1.1875-2.8125 2.75m0 0"/><path id="h" d="M1.1875-3.54687h7.71875V-4.375H1.1875Zm0 0"/><path id="i" d="M1.64063-6.3125 2.5-6.23437c.21875.01562.28125.09375.28125.25 0 .10937-.01562.23437-.0625.42187l-.85937 3.89063c-.04688.26562-.07813.5-.07813.70312 0 .79688.40625 1.14063 1.04688 1.14063C4.04688.17188 5.25-.95312 6.21875-2.25c.95313-1.28125 1.625-2.84375 1.64063-3.70312 0-.54688-.3125-1.09375-.42188-1.09375-.34375 0-.73437.125-1.03125.29687.125.5.17188 1.01563.17188 1.75-.10938 1.90625-1.92188 4.4375-3.0625 4.4375-.3125 0-.5-.20312-.5-.59375 0-.10937.01562-.25.04687-.375l1.21875-5.4375-.07812-.07812-2.46875.39062Zm0 0"/><path id="j" d="M1.1875-3.54687h3.45313v3.4375h.82812v-3.4375h3.4375V-4.375h-3.4375v-3.4375h-.82812v3.4375H1.1875Zm0 0"/><clipPath id="a"><path d="M117 21h2v170.44531h-2Zm0 0"/></clipPath></defs><path fill="none" stroke="#007f7f" stroke-miterlimit="10" stroke-width=".39793" d="M181.84764.19535 22.64456 159.40233M160.62108.19535v161.32808"/><path fill="none" stroke="#00adef" stroke-dasharray="2.9845260848 2.9845260848" stroke-miterlimit="10" stroke-width=".39793" d="m160.62108 85.10548-42.45702 42.45311"/><path fill="none" stroke="#000" stroke-miterlimit="10" stroke-width=".39793" d="M12.01956 127.5586h212.2929"/><g clip-path="url(#a)"><path fill="none" stroke="#000" stroke-miterlimit="10" stroke-width=".39793" d="M118.16406 191.24608V21.41409"/></g><use xlink:href="#b" x="78.74965" y="55.80138"/><use xlink:href="#c" x="84.47985" y="55.80138"/><use xlink:href="#d" x="91.94105" y="55.80138"/><use xlink:href="#e" x="97.31311" y="55.80138"/><use xlink:href="#f" x="107.1619" y="55.80138"/><use xlink:href="#g" x="114.12853" y="67.22887"/><use xlink:href="#b" x="4.98123" y="119.48237"/><use xlink:href="#h" x="10.71143" y="119.48237"/><use xlink:href="#e" x="20.79897" y="119.48237"/><use xlink:href="#d" x="30.64775" y="119.48237"/><use xlink:href="#c" x="36.01982" y="119.48237"/><use xlink:href="#f" x="43.48102" y="119.48237"/><use xlink:href="#g" x="50.44853" y="130.90986"/><use xlink:href="#b" x="165.89074" y="143.5466"/><use xlink:href="#i" x="171.62095" y="143.5466"/><use xlink:href="#d" x="180.41024" y="143.5466"/><use xlink:href="#c" x="185.7823" y="143.5466"/><use xlink:href="#f" x="193.2435" y="143.5466"/><use xlink:href="#g" x="156.58219" y="130.90986"/><use xlink:href="#b" x="165.89074" y="89.06033"/><use xlink:href="#i" x="171.62095" y="89.06033"/><use xlink:href="#d" x="180.41024" y="89.06033"/><use xlink:href="#i" x="185.7823" y="89.06033"/><use xlink:href="#f" x="194.5716" y="89.06033"/><use xlink:href="#g" x="156.58219" y="88.4562"/><g fill="#007f7f"><use xlink:href="#b" x="165.89074" y="25.38033"/><use xlink:href="#i" x="171.62095" y="25.38033"/></g><use xlink:href="#d" x="180.41024" y="25.38033" fill="#007f7f"/><use xlink:href="#e" x="185.7823" y="25.38033" fill="#007f7f"/><use xlink:href="#j" x="197.7053" y="25.38033" fill="#007f7f"/><use xlink:href="#i" x="209.85214" y="25.38033" fill="#007f7f"/><use xlink:href="#f" x="218.64143" y="25.38033" fill="#007f7f"/><use xlink:href="#g" x="156.58219" y="24.7752" fill="#007f7f"/></svg>