<svg xmlns="http://www.w3.org/2000/svg" xmlns:xlink="http://www.w3.org/1999/xlink" width="367.025" height="322.886" viewBox="0 0 367.025 322.886"><defs><path id="c" d="M1.8125-5.92187c0 4.73437 1.07813 9.95312 5.51563 10.125v-.625c-1.5-.29688-3.84375-2.14063-3.84375-9.5 0-7.3125 2.23437-9.17188 3.84375-9.5v-.625c-4.4375.17187-5.51563 5.375-5.51563 10.125m0 0"/><path id="d" d="M2.45313-9.45312 3.75-9.34375c.3125.01563.40625.125.40625.375 0 .15625-.01562.35938-.09375.625L2.79688-2.5c-.09375.39063-.14063.73438-.14063 1.04688C2.65625-.26562 3.28125.25 4.25.25c1.8125 0 3.625-1.6875 5.07813-3.625 1.42187-1.92187 2.4375-4.25 2.45312-5.54687 0-.82813-.46875-1.625-.64062-1.625-.51563 0-1.09375.17187-1.54688.4375.20313.73437.26563 1.51562.26563 2.625C9.6875-4.625 6.96875-.84375 5.28125-.84375c-.46875 0-.76562-.29687-.76562-.90625 0-.15625.01562-.35937.0625-.54687l1.84375-8.14063-.10938-.10937-3.71875.57812Zm0 0"/><path id="e" d="M1.78125-5.32812h5.17188v5.17187H8.1875v-5.17187h5.15625v-1.21875H8.1875v-5.17188H6.95313v5.17188H1.78125Zm0 0"/><path id="f" d="M2.28125 0H9.1875v-.60937L7.42188-.76563c-.45313-.04687-.6875-.20312-.6875-1.01562v-12.39062l-.10938-.10938-4.34375.73438v.51562l1.96875.23438c.35938.04687.48438.20312.48438.8125v10.20312c0 .8125-.20313.96875-.6875 1.01563l-1.76563.15624Zm0 0"/><path id="g" d="M1.78125-5.32812h11.5625v-1.21875H1.78125Zm0 0"/><path id="h" d="M2.45313-1.40625C2.45313-.42187 2.89063.25 4.0625.25c2.01563 0 4.23438-2.21875 5.48438-4.65625h.04687l-.6875 2.39063c-.125.42187-.1875.78125-.1875 1.09375 0 .75.35938 1.17187 1.14063 1.17187 1.51562 0 2.78125-1.4375 3.51562-3l-.5-.3125c-.42187.71875-1.35937 2.21875-1.9375 2.21875-.26562 0-.39062-.1875-.39062-.46875 0-.1875.04687-.40625.125-.65625l2.25-8.57812-1.875.23437c-.60938 2.15625-.96875 3.26563-1.5 4.54688-.92188 2.125-2.75 4.92187-4.5 4.92187-.4375 0-.67188-.28125-.67188-.82812 0-.26563.04688-.60938.15625-1.01563l2.01563-7.75-.10938-.10937-3.82812.57812-.125.51563 1.3125.10937c.3125.01563.42187.15625.42187.40625 0 .15625-.03125.34375-.10937.59375L2.65625-2.79687c-.125.5-.20312.96875-.20312 1.39062m0 0"/><path id="i" d="m1.07813 2.57813.39062.39062c1.0625-.98437 2.57813-2.39062 2.57813-4.04687 0-1.10938-.60938-1.89063-1.40625-1.89063-.65625 0-1.04688.51563-1.04688 1.04688 0 .76562.6875 1.15625.6875 2.0625 0 .85937-.53125 1.6875-1.20312 2.4375m0 0"/><path id="j" d="M1.25 3.57813v.625c4.45313-.17188 5.53125-5.39063 5.53125-10.125 0-4.75-1.07812-9.95313-5.53125-10.125v.625c1.60938.32812 3.84375 2.1875 3.84375 9.5 0 7.35937-2.34375 9.20312-3.84375 9.5m0 0"/><path id="k" d="M1.90625-5.92187c0 2.40625 1.76563 4.17187 4.20313 4.17187 2.34375 0 4.10937-1.76562 4.10937-4.17187 0-2.34375-1.76562-4.125-4.10937-4.125-2.4375 0-4.20313 1.78125-4.20313 4.125m0 0"/><path id="l" d="M.875-7.01562C.875-2.8125 2.10938.25 5.5625.25c3.46875 0 4.71875-3.0625 4.71875-7.26562s-1.25-7.26563-4.71875-7.26563c-3.45312 0-4.6875 3.0625-4.6875 7.26563m2.125 0c0-3.42188.57813-6.53125 2.5625-6.53125 2 0 2.57813 3.10937 2.57813 6.53125S7.5625-.48437 5.5625-.48437C3.57813-.48437 3-3.59375 3-7.01562m0 0"/><clipPath id="a"><path d="M95 3h1v319.40234h-1Zm0 0"/></clipPath><clipPath id="b"><path d="M169 .3711h139V265H169Zm0 0"/></clipPath></defs><path fill="none" stroke="#000" stroke-miterlimit="10" stroke-width=".39744" d="M.19527 226.78906H254.6407"/><g clip-path="url(#a)"><path fill="none" stroke="#000" stroke-miterlimit="10" stroke-width=".39744" d="M95.61328 322.20317V4.14834"/></g><g clip-path="url(#b)"><path fill="none" stroke="#007F7F" stroke-miterlimit="10" stroke-width=".39744" d="M302.32822 258.58986 175.12113 4.17177"/></g><path fill="none" stroke="#007F7F" stroke-miterlimit="10" stroke-width=".39744" d="M318.23057 226.78906H63.81249"/><path fill="none" stroke="#00ADEF" stroke-dasharray="2.9809096005 2.9809096005" stroke-miterlimit="10" stroke-width=".39744" d="m95.61328 226.78906 95.4063-190.8165m-31.8008 190.8165 63.6055-127.211"/><use xlink:href="#c" x="198.91857" y="23.87445"/><use xlink:href="#d" x="207.50349" y="23.87445"/><use xlink:href="#e" x="223.7567" y="23.87445"/><use xlink:href="#f" x="241.97729" y="23.87445"/><use xlink:href="#g" x="256.21841" y="23.87445"/><use xlink:href="#h" x="274.439" y="23.87445"/><use xlink:href="#i" x="289.19432" y="23.87445"/><use xlink:href="#d" x="297.24268" y="23.87445"/><use xlink:href="#e" x="313.51825" y="23.87445"/><use xlink:href="#f" x="331.73884" y="23.87445"/><use xlink:href="#j" x="342.8724" y="23.87445"/><use xlink:href="#k" x="184.97262" y="40.99497"/><use xlink:href="#c" x="230.72009" y="87.47749"/><use xlink:href="#d" x="239.30501" y="87.47749"/><use xlink:href="#i" x="252.47302" y="87.47749"/><use xlink:href="#d" x="260.52137" y="87.47749"/><use xlink:href="#j" x="273.68938" y="87.47749"/><use xlink:href="#k" x="216.77414" y="104.59901"/><use xlink:href="#c" x="40.22813" y="250.73779"/><use xlink:href="#l" x="48.81305" y="250.73779"/><use xlink:href="#i" x="59.94661" y="250.73779"/><use xlink:href="#l" x="67.99497" y="250.73779"/><use xlink:href="#j" x="79.12853" y="250.73779"/><use xlink:href="#k" x="89.56707" y="231.80608"/><use xlink:href="#c" x="135.47411" y="250.73779"/><use xlink:href="#f" x="144.05903" y="250.73779"/><use xlink:href="#i" x="155.19259" y="250.73779"/><use xlink:href="#l" x="163.24095" y="250.73779"/><use xlink:href="#j" x="174.37451" y="250.73779"/><use xlink:href="#k" x="153.1711" y="231.80608"/><g fill="#007F7F"><use xlink:href="#c" x="294.32413" y="250.73779"/><use xlink:href="#h" x="302.90904" y="250.73779"/></g><use xlink:href="#d" x="317.66437" y="250.73779" fill="#007F7F"/><use xlink:href="#i" x="330.83238" y="250.73779" fill="#007F7F"/><g fill="#007F7F"><use xlink:href="#l" x="338.88073" y="250.73779"/><use xlink:href="#j" x="350.0143" y="250.73779"/></g><use xlink:href="#k" x="280.37818" y="231.80608" fill="#007F7F"/></svg>