<svg xmlns="http://www.w3.org/2000/svg" xmlns:xlink="http://www.w3.org/1999/xlink" width="394.275pt" height="252.183pt" viewBox="0 0 394.275 252.183"><defs><path id="a" d="M-.40625 0H2.6875v-.40625l-.73437-.0625c-.42188-.04687-.48438-.20312-.35938-.57812.23438-.82813.51563-1.6875.84375-2.6875h3.14063l.9375 2.67187c.14062.40625.07812.5625-.35938.59375l-.64062.0625V0h3.57812v-.40625C8.28125-.46875 8.125-.51562 7.875-1.25L4.90625-9.67187H3.875l-1.46875 4.125C1.98438-4.3125 1.39063-2.65625.89063-1.375c-.29688.76563-.42188.92188-1.29688.96875Zm3.04688-4.28125c.4375-1.39062.9375-2.76562 1.34375-4h.04687l1.39063 4Zm0 0"/><path id="b" d="M1.28125-9.15625c0 .5.35938.85938.85938.85938.51562 0 .85937-.35938.85937-.85938S2.65625-10 2.14063-10c-.5 0-.85938.34375-.85938.84375M.45313 0h3.40625v-.40625c-1-.0625-1.04688-.09375-1.04688-.8125V-6.9375l-.10937-.09375-2.1875.35938v.34375l.53125.07812c.35937.0625.45312.10938.45312.625v4.40625c0 .71875-.04687.75-1.04687.8125Zm0 0"/><path id="c" d="M.45313 0h3.6875v-.40625C2.89063-.46875 2.8125-.5 2.8125-1.21875V-4.5c0-1.0625.48438-1.4375.8125-1.4375.21875 0 .45313.07813.85938.3125.10937.0625.20312.07813.28125.07813.34375 0 .64062-.35938.64062-.79688 0-.3125-.1875-.6875-.75-.6875-.5 0-.92187.29688-1.84375 1.125l-.15625-1.125-2.14062.35938v.34375l.53125.07812c.35937.0625.45312.10938.45312.625v4.40625c0 .71875-.07812.75-1.04687.8125Zm0 0"/><path id="d" d="M.6875-3.375c0 2.21875.95313 3.53125 3.23438 3.53125 1.54687 0 2.34375-.85937 2.71875-1.95312l-.42188-.23438c-.375.82813-.92187 1.48438-2.01562 1.48438-1.75 0-2.09375-1.67188-2.0625-3.125h4.03125c.3125 0 .5625-.07813.5625-.54688 0-.8125-.26563-2.8125-2.82813-2.8125C1.71875-7.03125.6875-5.48437.6875-3.375m1.46875-.84375c0-.57812.21875-2.3125 1.67188-2.3125 1.29687 0 1.4375 1.3125 1.4375 1.875 0 .26563-.07813.4375-.46875.4375Zm0 0"/><path id="e" d="M.6875-3.29687C.6875-1.21875 1.76563.15625 3.625.15625c.75 0 1.39063-.32812 2.15625-.95312v.6875L5.89063 0h2.26562v-.40625c-1-.0625-1.03125-.09375-1.03125-.8125v-9.07812l-.10937-.07813-2.20313.34375v.35938l.53125.03125c.35938.04687.45313.125.45313.65625v2.29687c-.39063-.20312-.90625-.34375-1.54688-.34375-1.15625 0-2.01562.375-2.59375.96875C1.0625-5.4375.6875-4.51562.6875-3.29687m1.45313-.15625c0-1.8125.65625-3.07813 2.09375-3.07813.65625 0 1.1875.29688 1.4375.875.125.23438.125.4375.125.8125V-2.375c0 .3125 0 .54688-.09375.78125-.28125.73438-.89063 1.01563-1.625 1.01563-1.28125 0-1.9375-1.26563-1.9375-2.875m0 0"/><path id="f" d="M.35938-6.32812.89063-6.25c.35937.0625.45312.10938.45312.625v3.6875c0 1.60938.95313 2.09375 1.98438 2.09375 1.20312 0 2.17187-.79687 2.5625-.98437L6.03125 0h2.25v-.40625c-.96875-.0625-1.0625-.09375-1.0625-.8125V-6.9375L7.125-7.03125l-2.20312.35938v.34375l.54687.07812c.35938.0625.4375.10938.4375.625v3.15625c0 .39063-.04687.70313-.10937.82813C5.46875-1 4.8125-.57812 4.07813-.57812c-.8125 0-1.40625-.53125-1.40625-1.60938v-4.75l-.10938-.09375-2.20312.35938Zm0 0"/><path id="g" d="M.6875-3.35937c0 2.32812 1.14063 3.51562 3.25 3.51562.96875 0 2.29688-.5 2.6875-2l-.42187-.20312c-.42188.98437-.96875 1.48437-2 1.48437-1.67188 0-2.0625-1.75-2.0625-3.0625 0-2.07812.82812-2.90625 1.79687-2.90625.64063 0 1.03125.45313 1.3125 1.21875.09375.21875.1875.35938.45313.35938.28125 0 .8125-.1875.8125-.71875 0-.64063-.92188-1.35938-2.4375-1.35938-2.54688 0-3.39063 1.79688-3.39063 3.67188m0 0"/><path id="h" d="M.4375-6.29687h1v4.875C1.4375 0 2.5.15624 3 .15624c.70313 0 1.375-.34375 1.78125-.60937L4.67188-.75c-.34375.14063-.64063.1875-1 .1875-.46875 0-.92188-.34375-.92188-1.40625v-4.32812h1.8125v-.5625H2.75V-8.625h-.39062L1.5-6.85937H.4375Zm0 0"/><path id="i" d="M.6875-1.8125c0 1.03125.70313 1.96875 2 1.96875.82813 0 1.64063-.53125 2.09375-.82812.1875.51562.4375.82812.92188.82812.51562 0 1.10937-.14062 1.65625-.40625l-.09375-.32812c-.1875.04687-.5.0625-.71875 0-.25-.0625-.48438-.3125-.48438-1.1875v-3.40625c0-.8125-.1875-1.85938-2.29687-1.85938-1.57813 0-2.82813.82813-2.82813 1.59375 0 .45313.51563.65625.79688.65625.29687 0 .35937-.14062.4375-.39062.3125-1.03125.875-1.35938 1.45312-1.35938.54688 0 1.17188.28125 1.17188 1.39063v.57812c-.35938.35938-1.71875.71875-2.8125 1.07813C.96875-3.17187.6875-2.46875.6875-1.8125m1.40625-.20312c0-.65625.29688-1 1.09375-1.29688.5625-.20312 1.29688-.46875 1.60938-.65625V-2c0 1.14063-.85938 1.42188-1.42188 1.42188-.85937 0-1.28125-.60938-1.28125-1.4375m0 0"/><path id="j" d="M.45313 0h3.40625v-.40625c-1-.0625-1.04688-.09375-1.04688-.8125V-4.5c0-.35937.01563-.53125.14063-.75.29687-.5625.92187-1.01562 1.65625-1.01562.95312 0 1.48437.51562 1.48437 1.73437v3.3125c0 .71875-.04687.75-1.0625.8125V0h3.42188v-.40625c-1-.0625-1.04688-.09375-1.04688-.8125v-3.57812c0-1.40625-.78125-2.23438-2.0625-2.23438-1.04687 0-1.6875.51563-2.54687 1.07813l-.1875-1.07813-2.09375.35938v.34375l.53125.07812c.35937.0625.45312.10938.45312.625v4.40625c0 .71875-.04687.75-1.04687.8125Zm0 0"/><path id="k" d="M.57813 1.34375C.57813 2.75 2 3.375 3.625 3.375c.82813 0 1.70313-.15625 2.375-.5625C6.64063 2.42188 7.125 1.75 7.125.89063c0-1.51563-1.21875-2.03125-2.71875-2.03125H3.29688c-1.01563 0-1.17188-.34375-1.17188-.60938 0-.40625.54688-.625.71875-.6875.26563.03125.5625.04688.71875.04688 1.32813 0 2.82813-.59375 2.82813-2.28125 0-.57813-.20313-1.07813-.4375-1.3125l1.125-.1875.28125-.875-.125-.10938-1.78125.5625c-.39063-.26562-1.17188-.4375-1.8125-.4375C1.48438-7.03125.75-5.71875.75-4.67187c0 1.3125.85938 1.92187 1.5 2.07812v.03125c-.76562.29688-1.28125.70313-1.28125 1.25 0 .5.5625 1.01563 1.23438 1.09375v.03125C1.60938 0 .57813.32813.57813 1.34375m1.34375-.0625c0-.48437.14062-.82812.4375-1.0625.3125-.23437.76562-.32812 1.4375-.32812 1.23437 0 2.14062.3125 2.14062 1.35937 0 1.125-1.01562 1.65625-2 1.65625-1.20312 0-2.01562-.60937-2.01562-1.625m.25-5.95312c0-1.39063.71875-1.85938 1.46875-1.85938.67187 0 1.39062.5 1.39062 1.85938 0 1.17187-.59375 1.78125-1.40625 1.78125-.79687 0-1.45312-.60938-1.45312-1.78125m0 0"/><path id="l" d="M.28125 0H3.6875v-.40625c-1-.0625-1.03125-.09375-1.03125-.8125v-9.07812l-.10937-.07813-2.1875.34375v.35938l.51562.03125c.35938.04687.45313.125.45313.65625v7.76562c0 .71875-.03126.75-1.04688.8125Zm0 0"/><path id="m" d="m2.8125-7.85937.20313.28125L5.14063-8.75c.40625-.23437.78125-.46875.78125-.76562 0-.28125-.34375-.60938-.54688-.60938-.23437 0-.46875.14063-.89062.57813ZM.6875-3.375c0 2.21875.95313 3.53125 3.23438 3.53125 1.54687 0 2.34375-.85937 2.71875-1.95312l-.42188-.23438c-.375.82813-.92187 1.48438-2.01562 1.48438-1.75 0-2.09375-1.67188-2.0625-3.125h4.03125c.3125 0 .5625-.07813.5625-.54688 0-.8125-.26563-2.8125-2.82813-2.8125C1.71875-7.03125.6875-5.48437.6875-3.375m1.46875-.84375c0-.57812.21875-2.3125 1.67188-2.3125 1.29687 0 1.4375 1.3125 1.4375 1.875 0 .26563-.07813.4375-.46875.4375Zm0 0"/><path id="n" d="M1.54688-9.51562c0 .29687.375.53125.79687.76562l2.10938 1.17188.20312-.28125L3-9.54687c-.42187-.4375-.65625-.57813-.90625-.57813-.20312 0-.54687.32813-.54687.60938M.6875-1.8125c0 1.03125.70313 1.96875 2 1.96875.82813 0 1.64063-.53125 2.09375-.82812.1875.51562.4375.82812.92188.82812.51562 0 1.10937-.14062 1.65625-.40625l-.09375-.32812c-.1875.04687-.5.0625-.71875 0-.25-.0625-.48438-.3125-.48438-1.1875v-3.40625c0-.8125-.1875-1.85938-2.29687-1.85938-1.57813 0-2.82813.82813-2.82813 1.59375 0 .45313.51563.65625.79688.65625.29687 0 .35937-.14062.4375-.39062.3125-1.03125.875-1.35938 1.45312-1.35938.54688 0 1.17188.28125 1.17188 1.39063v.57812c-.35938.35938-1.71875.71875-2.8125 1.07813C.96875-3.17187.6875-2.46875.6875-1.8125m1.40625-.20312c0-.65625.29688-1 1.09375-1.29688.5625-.20312 1.29688-.46875 1.60938-.65625V-2c0 1.14063-.85938 1.42188-1.42188 1.42188-.85937 0-1.28125-.60938-1.28125-1.4375m0 0"/><path id="o" d="M1.0625 0h3.28125v-.29687L3.5625-.375c-.21875-.01562-.32812-.09375-.32812-.45312v-5.78125l-.0625-.04688-2.09375.34375v.26563l.84375.10937c.1875.03125.25.10938.25.40625v4.70313c0 .35937-.09375.4375-.32813.45312l-.78125.07813Zm0 0"/><path id="p" d="M.9375.10938 1.95313 0l1.71875-7.21875-.04688-.04687-1.85937.23437-.0625.25.54687.0625c.15625.03125.23438.0625.23438.20313 0 .0625-.01563.14062-.04688.26562Zm1.71875-2.6875c.17188.57812.39063 1.1875.64063 1.78125.26562.59375.5625.90625 1.04687.90625.65625 0 1.125-.54688 1.4375-1.39063l-.26562-.14062c-.26563.5625-.53125.9375-.78125.9375-.15625 0-.28125-.1875-.5-.64063-.28125-.60937-.53125-1.29687-.71875-1.95312.28125-.34375.9375-1.03125 1.25-1.03125s.53125.28125.79687.28125c.29688 0 .51563-.29688.51563-.59375 0-.26563-.14063-.5-.54688-.5-.45312 0-.96875.40625-1.40625.78125-.51562.45312-1.09375 1.07812-1.46875 1.5625m0 0"/><path id="r" d="M.84375-2.76562c0 2.125.53125 4.64062 2.51563 4.71875v-.3125C2.67188 1.5 1.70313.51563 1.70313-2.76562c0-3.26563.9375-4.25 1.65625-4.39063v-.32812C1.375-7.40625.84375-4.875.84375-2.76562m0 0"/><path id="s" d="M.82813-2.4375h2.375v2.35938h.65625V-2.4375h2.35937v-.65625H3.85938v-2.375h-.65625v2.375h-2.375Zm0 0"/><path id="t" d="M.59375 1.64063v.3125C2.57813 1.875 3.10938-.64062 3.10938-2.76562c0-2.10938-.53125-4.64063-2.51563-4.71875v.32812C1.3125-7.01562 2.25-6.01562 2.25-2.76562c0 3.28125-.98437 4.28125-1.65625 4.40625m0 0"/><path id="A" d="M.32813-.42187c0 .29687.25.53125.67187.53125.65625 0 1.01563-.625 1.42188-1.28125l.375-.64063h.01562l.17188.75c.1875.75.375 1.17188.89062 1.17188.76563 0 1.20313-.76563 1.5-1.42188l-.26562-.14062c-.25.46875-.53125 1-.79688 1-.1875 0-.26562-.21875-.45312-.96875L3.51563-2.8125c.34375-.57812.79687-1.29687 1.0625-1.29687.29687 0 .34375.17187.64062.17187.23438 0 .45313-.23437.45313-.51562 0-.32813-.23438-.46875-.51563-.46875-.51562 0-.9375.42187-1.28125.96875l-.4375.67187h-.01562l-.375-1.59375-.0625-.04687-1.71875.5.03124.25.71876-.04688c.17187 0 .25.07813.34375.45313l.34375 1.45312-.26563.48438c-.375.65625-.70312 1.125-.9375 1.125-.29687 0-.39062-.25-.70312-.25-.25 0-.46875.26562-.46875.53125m0 0"/><path id="q" d="M.625-1.20312C.625-.5.90625.09374 1.8125.09374c.59375 0 1.03125-.4375 1.35938-.90625.03125.625.28125.90625.65625.90625.8125 0 1.26562-.92187 1.375-1.17187l-.21875-.10938c-.20313.375-.5625.73438-.73438.73438-.23437 0-.25-.375-.25-.65625 0-.28126.03125-.64063.0625-.96875l1.20313-1.71875H4.5625L4-2.70312C3.90625-3.59375 3.60938-3.875 2.82813-3.875 1.5625-3.875.625-2.60937.625-1.20312m.9375.07812c0-.76562.4375-2.4375 1.26563-2.4375.32812 0 .42187.48438.42187 1.03125 0 .32813-.03125.6875-.07812.98438C2.85938-.90625 2.4375-.3125 1.96875-.3125c-.34375 0-.40625-.40625-.40625-.8125m0 0"/><path id="u" d="M1.26563-3.95312c0 1.60937 1.17187 2.79687 2.79687 2.79687 1.5625 0 2.75-1.1875 2.75-2.79687 0-1.5625-1.1875-2.73438-2.75-2.73438-1.625 0-2.79687 1.17188-2.79687 2.73438m0 0"/><path id="v" d="M1.34375.15625 2.64063 0l2.45312-10.3125-.0625-.0625-2.51562.32813-.07813.32812.79688.07813c.23437.03125.34375.07812.34375.29687 0 .09375-.01563.21875-.0625.39063Zm2.29688-3.89062c.26562.89062.59375 1.71875.96875 2.57812.40625.89063.82812 1.3125 1.5 1.3125C7 .15625 7.625-.625 8.04688-1.79687l-.35938-.1875c-.39062.84375-.75 1.39062-1.125 1.39062-.23437 0-.42187-.26562-.78125-1C5.34375-2.46875 5-3.375 4.73438-4.3125c.39062-.45312 1.46875-1.64062 1.98437-1.64062.40625 0 .73438.375 1.07813.375.39062 0 .6875-.40625.6875-.76563 0-.375-.17188-.6875-.71875-.6875-.57813 0-1.26563.45313-1.96875 1.04688q-1.19532 1.03125-2.15625 2.25m0 0"/><path id="w" d="M1.1875-3.54687H4.625v3.4375h.82813v-3.4375h3.4375v-.8125h-3.4375v-3.4375H4.625v3.4375H1.1875Zm0 0"/><path id="x" d="M1.51563 0H6.125v-.40625L4.9375-.5c-.29687-.03125-.45312-.14062-.45312-.6875v-8.25l-.07813-.07812-2.89062.48437v.34375l1.3125.17188c.23437.03125.32812.125.32812.53125v6.79687c0 .54688-.14062.65625-.46875.6875l-1.17187.09375Zm0 0"/><path id="y" d="M0 2.625c0 .375.42188.75 1.03125.75 1.1875 0 1.6875-.875 2.92188-3 .29687-.48437 1.14062-1.95312 2-3.39062.8125-1.29688 1.6875-2.65625 1.6875-3.21875 0-.5-.15625-.79688-.25-.79688-.26563 0-.75.125-1.10938.35938 0 0-.04687 1.4375-.17187 1.92187C5.875-3.95312 5.0625-2.4375 4.14063-.84375h-.04688c-.10937-2.15625-.375-5.09375-.5625-6.125l-.10937-.0625-2.34375.67188L1.10937-6l.96876-.03125c.29687 0 .34375.23438.46875.95313.14062 1.09375.46875 3.78125.46875 4.90625 0 .40625-.01563.96875-.32813 1.71875-.26562.57812-.625 1-.90625 1-.5 0-.5625-.78125-1.0625-.78125C.35938 1.76563 0 2.21875 0 2.625m0 0"/><path id="z" d="M1.1875-2h7.70313v-.8125H1.1875Zm0-3.07812h7.70313v-.8125H1.1875Zm0 0"/></defs><path fill="#7fd6f7" stroke="#7fd6f7" stroke-miterlimit="10" stroke-width=".39721" d="M174.56644 172.90234h-63.56642v-63.56642l63.58204-.00781Zm0 0"/><path fill="#33bdf2" stroke="#33bdf2" stroke-miterlimit="10" stroke-width=".39721" d="M174.56644 172.90234h-63.56642l.0078-15.89453 63.55862.0039Zm0 0"/><path fill="none" stroke="#00adef" stroke-miterlimit="10" stroke-width=".39721" d="M87.16798 10.16012s3.58594 26.02344 4.96484 34.15235c1.37891 8.125 3.58985 18.53125 4.96876 24.4297 1.375 5.89843 3.58593 13.66406 4.96484 18.08203 1.3789 4.41406 3.58984 10.35937 4.96875 13.75 1.375 3.39453 3.58594 8.03907 4.96485 10.69922 1.3789 2.66016 3.58984 6.35938 4.96875 8.48829 1.375 2.1289 3.58594 5.125 4.96484 6.85156 1.3789 1.73047 3.58985 4.17969 4.96875 5.60156 1.375 1.42188 3.58594 3.46875 4.96485 4.65235 1.3789 1.1875 3.58984 2.89453 4.96484 3.89062 1.37891 1 3.58985 2.44922 4.96875 3.29688 1.37891.84375 3.58985 2.08203 4.96485 2.8086 1.3789.72656 3.58984 1.79296 4.96875 2.42187 1.3789.625 3.58985 1.55078 4.96485 2.09766 1.3789.54687 3.58984 1.35547 4.96875 1.83203s3.58984 1.1836 4.96484 1.60547c1.3789.41797 3.58985 1.04687 4.96875 1.41797 1.37891.3711 3.58985.92578 4.96485 1.25781 1.3789.32813 3.58984.82422 4.96875 1.11719 1.3789.29687 3.58984.73828 4.96485 1.0039 1.3789.26563 3.58984.66407 4.96875.90235 1.3789.23437 3.58593.59766 4.96484.8086 1.3789.21484 3.58985.54296 4.96875.73437 1.3789.19531 4.96485.66797 4.96485.66797"/><g fill="#7fd6f7"><use xlink:href="#a" x="215.14117" y="49.40295"/><use xlink:href="#b" x="224.01901" y="49.40295"/><use xlink:href="#c" x="228.08554" y="49.40295"/></g><use xlink:href="#d" x="233.23945" y="49.40295" fill="#7fd6f7"/><g fill="#7fd6f7"><use xlink:href="#e" x="243.57707" y="49.40295"/><use xlink:href="#f" x="251.94845" y="49.40295"/></g><use xlink:href="#c" x="263.5671" y="49.40295" fill="#7fd6f7"/><g fill="#7fd6f7"><use xlink:href="#d" x="268.72101" y="49.40295"/><use xlink:href="#g" x="275.91564" y="49.40295"/><use xlink:href="#h" x="282.85704" y="49.40295"/><use xlink:href="#i" x="287.66835" y="49.40295"/><use xlink:href="#j" x="294.98214" y="49.40295"/><use xlink:href="#k" x="303.63654" y="49.40295"/><use xlink:href="#l" x="310.90564" y="49.40295"/><use xlink:href="#d" x="314.80832" y="49.40295"/></g><g fill="#7fd6f7"><use xlink:href="#m" x="325.14593" y="49.40295"/><use xlink:href="#k" x="332.34056" y="49.40295"/><use xlink:href="#i" x="339.60966" y="49.40295"/><use xlink:href="#l" x="346.92345" y="49.40295"/><use xlink:href="#d" x="350.82612" y="49.40295"/></g><use xlink:href="#n" x="361.16374" y="49.40295" fill="#7fd6f7"/><use xlink:href="#o" x="377.32375" y="43.41485" fill="#7fd6f7"/><path fill="none" stroke="#7fd6f7" stroke-miterlimit="10" stroke-width=".81935" d="M373.40625 45.45312h13.11719"/><use xlink:href="#p" x="373.40794" y="54.64497" fill="#7fd6f7"/><use xlink:href="#q" x="380.12418" y="51.30927" fill="#7fd6f7"/><g fill="#33bdf2"><use xlink:href="#a" x="46.08786" y="239.20006"/><use xlink:href="#b" x="54.9657" y="239.20006"/><use xlink:href="#c" x="59.03222" y="239.20006"/></g><use xlink:href="#d" x="64.18613" y="239.20006" fill="#33bdf2"/><g fill="#33bdf2"><use xlink:href="#e" x="74.52375" y="239.20006"/><use xlink:href="#f" x="82.89514" y="239.20006"/></g><use xlink:href="#c" x="94.51378" y="239.20006" fill="#33bdf2"/><g fill="#33bdf2"><use xlink:href="#d" x="99.6677" y="239.20006"/><use xlink:href="#g" x="106.86232" y="239.20006"/><use xlink:href="#h" x="113.80372" y="239.20006"/><use xlink:href="#i" x="118.61503" y="239.20006"/><use xlink:href="#j" x="125.92882" y="239.20006"/><use xlink:href="#k" x="134.58322" y="239.20006"/><use xlink:href="#l" x="141.85233" y="239.20006"/><use xlink:href="#d" x="145.755" y="239.20006"/></g><g fill="#33bdf2"><use xlink:href="#m" x="156.09262" y="239.20006"/><use xlink:href="#k" x="163.28724" y="239.20006"/><use xlink:href="#i" x="170.55634" y="239.20006"/><use xlink:href="#l" x="177.87014" y="239.20006"/><use xlink:href="#d" x="181.77281" y="239.20006"/></g><use xlink:href="#n" x="192.11043" y="239.20006" fill="#33bdf2"/><use xlink:href="#o" x="218.38965" y="233.21196" fill="#33bdf2"/><path fill="none" stroke="#33bdf2" stroke-miterlimit="10" stroke-width=".81935" d="M204.35547 235.2539h33.35546"/><g fill="#33bdf2"><use xlink:href="#r" x="204.35462" y="244.44357"/><use xlink:href="#p" x="208.30645" y="244.44357"/></g><g fill="#33bdf2"><use xlink:href="#s" x="215.02143" y="244.44357"/><use xlink:href="#o" x="222.07008" y="244.44357"/><use xlink:href="#t" x="227.35657" y="244.44357"/></g><use xlink:href="#q" x="231.30929" y="241.10788" fill="#33bdf2"/><path fill="none" stroke="#00adef" stroke-miterlimit="10" stroke-width=".39721" d="M301.70319 58.48044c-30.89063 53.50783-132.2891 5.89844-142.94535 66.35158"/><path fill="none" stroke="#00adef" stroke-linecap="round" stroke-linejoin="round" stroke-miterlimit="10" stroke-width=".39721" d="M161.42969 123.40625c-1.47657.125-2.28516.83594-2.70703 1.6211-.12891-.88282-.64454-1.82813-1.98829-2.44922"/><path fill="none" stroke="#00adef" stroke-miterlimit="10" stroke-width=".39721" d="M142.78518 223.75392c-11.46485-19.85548.00781-35.8672.00781-58.40236"/><path fill="none" stroke="#00adef" stroke-linecap="round" stroke-linejoin="round" stroke-miterlimit="10" stroke-width=".39721" d="M140.41016 167.21875c1.42968-.375 2.10546-1.21875 2.3828-2.0625.27735.84375.95313 1.6875 2.38282 2.0625"/><use xlink:href="#u" x="106.97061" y="176.24701"/><use xlink:href="#v" x="106.29281" y="188.54816"/><use xlink:href="#u" x="170.53668" y="176.24701"/><use xlink:href="#v" x="159.03195" y="188.54816"/><use xlink:href="#w" x="170.50164" y="188.54816"/><use xlink:href="#x" x="182.64164" y="188.54816"/><use xlink:href="#u" x="106.97061" y="112.68095"/><use xlink:href="#u" x="170.53668" y="160.35549"/><use xlink:href="#u" x="43.40355" y="112.68095"/><use xlink:href="#o" x="31.18115" y="106.99487"/><path fill="none" stroke="#000" stroke-miterlimit="10" stroke-width=".81935" d="M27.26563 109.03516H40.3828"/><use xlink:href="#p" x="27.26683" y="118.22648"/><use xlink:href="#q" x="33.98158" y="114.88929"/><use xlink:href="#u" x="43.40355" y="160.35549"/><use xlink:href="#o" x="21.06193" y="153.7474"/><path fill="none" stroke="#000" stroke-miterlimit="10" stroke-width=".81935" d="M7.02734 155.78906h33.35547"/><use xlink:href="#r" x="7.0269" y="164.97902"/><use xlink:href="#p" x="10.97873" y="164.97902"/><use xlink:href="#s" x="17.69372" y="164.97902"/><use xlink:href="#o" x="24.74237" y="164.97902"/><use xlink:href="#t" x="30.02885" y="164.97902"/><use xlink:href="#q" x="33.98158" y="161.64183"/><use xlink:href="#y" x="97.19628" y="17.61593" fill="#00adef"/><use xlink:href="#z" x="108.59149" y="17.61593" fill="#00adef"/><use xlink:href="#o" x="127.08296" y="11.62783" fill="#00adef"/><path fill="none" stroke="#00adef" stroke-miterlimit="10" stroke-width=".81935" d="M123.36719 13.66797h12.71875"/><use xlink:href="#A" x="123.366" y="22.85944" fill="#00adef"/><use xlink:href="#q" x="129.68602" y="19.52225" fill="#00adef"/><path fill="none" stroke="#000" stroke-dasharray="2.9791760791 2.9791760791" stroke-miterlimit="10" stroke-width=".39721" d="M174.56644 172.90234v-15.89063H47.43359"/><path fill="none" stroke="#000" stroke-dasharray="2.9791760791 2.9791760791" stroke-miterlimit="10" stroke-width=".39721" d="M111.00002 172.90234v-63.56642H47.43359"/><path fill="none" stroke="#000" stroke-miterlimit="10" stroke-width=".39721" d="M15.64452 172.90234H205.9727"/><path fill="none" stroke="#000" stroke-linecap="round" stroke-linejoin="round" stroke-miterlimit="10" stroke-width=".39721" d="M204.10547 170.51953c.375 1.42969 1.21875 2.10547 2.0625 2.38281-.84375.27735-1.6875.95313-2.0625 2.38282"/><path fill="none" stroke="#000" stroke-miterlimit="10" stroke-width=".39721" d="M47.4336 204.69141V14.36324"/><path fill="none" stroke="#000" stroke-linecap="round" stroke-linejoin="round" stroke-miterlimit="10" stroke-width=".39721" d="M45.05078 16.23047c1.42969-.375 2.10547-1.21875 2.38281-2.0664.27735.84765.95313 1.6914 2.38282 2.0664"/></svg>