<svg xmlns="http://www.w3.org/2000/svg" xmlns:xlink="http://www.w3.org/1999/xlink" width="564.974" height="376.886" viewBox="0 0 564.974 376.886"><defs><path id="a" d="M-.60937 0h4.64062v-.60937L2.9375-.71875c-.625-.0625-.71875-.29687-.54687-.84375C2.75-2.82812 3.1875-4.125 3.67188-5.625h4.73437L9.8125-1.59375c.20313.60938.10938.82813-.5625.90625l-.95312.07813V0h5.39062v-.60937c-1.23437-.10938-1.45312-.17188-1.82812-1.26563L7.39063-14.5625h-1.5625L3.625-8.32812C2.98438-6.5 2.07813-3.98437 1.34375-2.0625.89063-.92187.71875-.67187-.60937-.60937Zm4.57812-6.4375C4.64063-8.53125 5.375-10.59375 6-12.45312h.07813L8.15625-6.4375Zm0 0"/><path id="b" d="M1.92188-13.78125c0 .76563.54687 1.29688 1.29687 1.29688.76563 0 1.28125-.53125 1.28125-1.29688 0-.76562-.51562-1.28125-1.28125-1.28125-.75 0-1.29687.51563-1.29687 1.28125M.67188 0h5.125v-.60937c-1.5-.10938-1.5625-.15626-1.5625-1.23438v-8.59375l-.15625-.14062-3.29688.54687v.51563l.78125.10937c.54688.07813.70313.17188.70313.9375v6.625c0 1.07813-.0625 1.125-1.59375 1.23438Zm0 0"/><path id="c" d="M.67188 0h5.5625v-.60937c-1.89063-.10938-2-.15626-2-1.23438v-4.92187c0-1.60938.71875-2.17188 1.20312-2.17188.34375 0 .70313.125 1.3125.46875.15625.09375.3125.10938.42188.10938.51562 0 .96875-.53125.96875-1.1875 0-.46875-.29688-1.03125-1.125-1.03125-.76563 0-1.39063.45312-2.78125 1.6875l-.25-1.6875-3.20313.54687v.51563l.78125.10937c.54688.07813.70313.17188.70313.9375v6.625c0 1.07813-.10938 1.125-1.59375 1.23438Zm0 0"/><path id="d" d="M1.03125-5.09375C1.03125-1.75 2.46875.25 5.89063.25 8.21875.25 9.4375-1.04687 10-2.71875l-.64062-.32812C8.78125-1.8125 7.98438-.82812 6.3125-.82812c-2.60937 0-3.125-2.51563-3.09375-4.70313h6.07813c.45312 0 .82812-.10937.82812-.8125 0-1.23437-.40625-4.23437-4.25-4.23437-3.29687 0-4.84375 2.32812-4.84375 5.48437m2.21875-1.25c0-.875.3125-3.5 2.51563-3.5 1.9375 0 2.17187 2 2.17187 2.82813 0 .40625-.14062.67187-.71875.67187Zm0 0"/><path id="e" d="M1.03125-4.95312C1.03125-1.84375 2.67188.25 5.4375.25c1.15625 0 2.10938-.51562 3.25-1.4375v1.03125L8.875 0h3.40625v-.60937c-1.5-.10938-1.57812-.15626-1.57812-1.23438V-15.5l-.15625-.125-3.3125.51563v.54687l.8125.0625c.53125.07813.67187.1875.67187.98438v3.45312c-.57812-.3125-1.375-.51562-2.32812-.51562-1.73438 0-3.03125.5625-3.90625 1.45312-.89063.95313-1.45313 2.32813-1.45313 4.17188m2.1875-.25c0-2.73438 1-4.64063 3.14063-4.64063.98437 0 1.79687.45313 2.17187 1.32813.1875.35937.1875.67187.1875 1.23437v3.70313c0 .46875 0 .82812-.14062 1.1875C8.15625-1.29687 7.23438-.875 6.14063-.875c-1.92188 0-2.92188-1.90625-2.92188-4.32812m0 0"/><path id="f" d="m.53125-9.51562.8125.10937c.53125.07813.67188.17188.67188.9375v5.5625C2.01563-.5 3.45313.25 5.01563.25c1.79687 0 3.25-1.21875 3.85937-1.5L9.07813 0h3.375v-.60937C11-.71875 10.85938-.76563 10.85938-1.84375v-8.59375l-.15625-.14062-3.28125.54687v.51563l.79687.10937c.54688.07813.67188.17188.67188.9375v4.75c0 .57813-.0625 1.04688-.17188 1.25C8.21875-1.5 7.23438-.875 6.14063-.875c-1.23438 0-2.125-.78125-2.125-2.42187v-7.14063l-.15625-.14062-3.32813.54687Zm0 0"/><path id="g" d="M1.03125-5.0625C1.03125-1.54687 2.75.25 5.92188.25c1.46875 0 3.46875-.76562 4.04687-3.03125l-.625-.28125C8.6875-1.59375 7.85938-.84375 6.3125-.84375c-2.5 0-3.09375-2.625-3.09375-4.59375 0-3.14062 1.23438-4.40625 2.70313-4.40625.95312 0 1.5625.70313 1.98437 1.84375.14063.34375.26563.53125.67188.53125.42187 0 1.23437-.26562 1.23437-1.0625 0-.96875-1.39062-2.04687-3.67187-2.04687-3.82813 0-5.10938 2.71875-5.10938 5.51562m0 0"/><path id="h" d="M.65625-9.48437h1.51563v7.32812C2.17188 0 3.76563.25 4.5.25c1.07813 0 2.09375-.54687 2.6875-.92187L7.03125-1.125c-.51562.20313-.95312.28125-1.5.28125-.71875 0-1.39062-.51562-1.39062-2.10937v-6.53125h2.71875v-.84375H4.14063v-2.64063h-.59375l-1.28125 2.64063H.65625Zm0 0"/><path id="i" d="M1.03125-2.73437C1.03125-1.17187 2.07813.25 4.0625.25c1.21875 0 2.45313-.8125 3.125-1.26562C7.48438-.21876 7.84375.25 8.57813.25c.78125 0 1.6875-.23437 2.48437-.625l-.125-.5c-.29687.0625-.76562.09375-1.07812 0-.375-.09375-.73438-.46875-.73438-1.79687v-5.10938c0-1.21875-.28125-2.79687-3.45312-2.79687-2.375 0-4.26563 1.23437-4.26563 2.40625 0 .67187.79688.98437 1.1875.98437.45313 0 .5625-.23437.67188-.59375.46875-1.5625 1.32812-2.0625 2.17187-2.0625s1.78125.4375 1.78125 2.10938v.875C6.67188-6.3125 4.64063-5.78125 2.98438-5.25c-1.53125.48438-1.95313 1.53125-1.95313 2.51563m2.125-.29688c0-.98437.45313-1.5 1.64063-1.9375.84375-.3125 1.95312-.71875 2.42187-1.01562V-3c0 1.70313-1.29687 2.125-2.125 2.125-1.3125 0-1.9375-.92187-1.9375-2.15625m0 0"/><path id="j" d="M.67188 0h5.125v-.60937c-1.5-.10938-1.5625-.15626-1.5625-1.23438v-4.92187c0-.53125.01562-.8125.20312-1.14063.45313-.82812 1.39063-1.53125 2.51563-1.53125 1.42187 0 2.21875.78125 2.21875 2.625v4.96875c0 1.07813-.07813 1.125-1.59375 1.23438V0h5.15625v-.60937c-1.51563-.10938-1.59375-.15626-1.59375-1.23438v-5.375c0-2.125-1.17188-3.35937-3.09375-3.35937-1.57813 0-2.53125.76562-3.82813 1.60937l-.29687-1.60937-3.14063.54687v.51563l.78125.10937c.54688.07813.70313.17188.70313.9375v6.625c0 1.07813-.0625 1.125-1.59375 1.23438Zm0 0"/><path id="k" d="M.875 2.01563c0 2.125 2.125 3.07812 4.5625 3.07812 1.26563 0 2.57813-.25 3.59375-.85937.96875-.57813 1.67188-1.59375 1.67188-2.89063 0-2.28125-1.8125-3.0625-4.07813-3.0625H4.95313c-1.53125 0-1.75-.51562-1.75-.92187 0-.60938.8125-.9375 1.07812-1.03125.40625.04687.84375.0625 1.07813.0625 1.98437 0 4.25-.875 4.25-3.42188 0-.875-.28125-1.625-.64063-1.96875l1.67188-.28125.42187-1.3125-.17187-.1875-2.6875.85938c-.57813-.40625-1.76563-.65625-2.73438-.65625-3.23437 0-4.34375 1.96875-4.34375 3.54687 0 1.96875 1.29688 2.89063 2.26563 3.125v.04688c-1.15625.45312-1.9375 1.0625-1.9375 1.89062 0 .73438.85937 1.51563 1.85937 1.625v.04688C2.42188 0 .875.5.875 2.01563m2.01563-.09375c0-.71875.20312-1.25.65625-1.57813.46875-.35937 1.15625-.5 2.17187-.5 1.85938 0 3.21875.46875 3.21875 2.03125 0 1.6875-1.51562 2.5-3.01562 2.5-1.79688 0-3.03125-.92187-3.03125-2.45312m.375-8.95313c0-2.09375 1.07812-2.8125 2.20312-2.8125 1.03125 0 2.10938.76563 2.10938 2.8125 0 1.76563-.90625 2.6875-2.14063 2.6875-1.1875 0-2.17187-.92187-2.17187-2.6875m0 0"/><path id="l" d="M.42188 0H5.5625v-.60937c-1.5-.10938-1.57812-.15626-1.57812-1.23438V-15.5l-.15625-.125-3.29688.51563v.54687l.79688.0625c.53125.07813.67187.1875.67187.98438v11.67187C2-.76562 1.95313-.71875.42188-.60937Zm0 0"/><path id="m" d="m4.23438-11.82812.3125.42187 3.1875-1.76562c.625-.34375 1.1875-.70313 1.1875-1.14063s-.51563-.92187-.82813-.92187c-.35937 0-.71875.21875-1.34375.875ZM1.03125-5.09375C1.03125-1.75 2.46875.25 5.89063.25 8.21875.25 9.4375-1.04687 10-2.71875l-.64062-.32812C8.78125-1.8125 7.98438-.82812 6.3125-.82812c-2.60937 0-3.125-2.51563-3.09375-4.70313h6.07813c.45312 0 .82812-.10937.82812-.8125 0-1.23437-.40625-4.23437-4.25-4.23437-3.29687 0-4.84375 2.32812-4.84375 5.48437m2.21875-1.25c0-.875.3125-3.5 2.51563-3.5 1.9375 0 2.17187 2 2.17187 2.82813 0 .40625-.14062.67187-.71875.67187Zm0 0"/><path id="n" d="M2.32813-14.3125c0 .4375.5625.79688 1.1875 1.14063l3.1875 1.76562.3125-.42187L4.5-14.35937c-.625-.65625-.98437-.875-1.34375-.875-.3125 0-.82812.48437-.82812.92187M1.03125-2.73437C1.03125-1.17187 2.07813.25 4.0625.25c1.21875 0 2.45313-.8125 3.125-1.26562C7.48438-.21876 7.84375.25 8.57813.25c.78125 0 1.6875-.23437 2.48437-.625l-.125-.5c-.29687.0625-.76562.09375-1.07812 0-.375-.09375-.73438-.46875-.73438-1.79687v-5.10938c0-1.21875-.28125-2.79687-3.45312-2.79687-2.375 0-4.26563 1.23437-4.26563 2.40625 0 .67187.79688.98437 1.1875.98437.45313 0 .5625-.23437.67188-.59375.46875-1.5625 1.32812-2.0625 2.17187-2.0625s1.78125.4375 1.78125 2.10938v.875C6.67188-6.3125 4.64063-5.78125 2.98438-5.25c-1.53125.48438-1.95313 1.53125-1.95313 2.51563m2.125-.29688c0-.98437.45313-1.5 1.64063-1.9375.84375-.3125 1.95312-.71875 2.42187-1.01562V-3c0 1.70313-1.29687 2.125-2.125 2.125-1.3125 0-1.9375-.92187-1.9375-2.15625m0 0"/><path id="o" d="M1.59375 0h4.95313v-.45312L5.35938-.5625C5.03125-.59375 4.875-.70312 4.875-1.25v-8.70312l-.09375-.07813-3.17187.54688v.39062l1.28125.17188c.28125.04687.375.15625.375.60937V-1.25c0 .54688-.14063.65625-.48438.6875l-1.1875.10938Zm0 0"/><path id="p" d="M1.40625.17188 2.95313 0l2.57812-10.875-.07812-.0625-2.79688.35938-.09375.375.82813.09375c.23437.03125.34375.07812.34375.3125 0 .09375-.01563.21875-.0625.39062ZM4-3.89062c.25.875.59375 1.79687.96875 2.6875.39063.90625.82813 1.375 1.57813 1.375.98437 0 1.67187-.82813 2.14062-2.09375l-.39062-.21876C7.89063-1.28124 7.5-.71874 7.14063-.71874c-.25 0-.4375-.28125-.76563-.96875-.42187-.92187-.8125-1.96875-1.09375-2.95312.42188-.5 1.4375-1.5625 1.90625-1.5625.45313 0 .78125.45312 1.1875.45312.4375 0 .76563-.46875.76563-.90625 0-.40625-.21875-.75-.8125-.75-.67188 0-1.45313.59375-2.10938 1.15625C5.42188-5.54687 4.5625-4.60937 4-3.89062m0 0"/><path id="q" d="M1.25-3.67187h3.5625v3.5625h.98438v-3.5625h3.5625v-.98438h-3.5625v-3.5625H4.8125v3.5625H1.25Zm0 0"/><path id="x" d="M.5-.625c0 .4375.375.79688 1 .79688 1 0 1.54688-.9375 2.14063-1.92188l.5625-.98437h.03125L4.5-1.59375c.26563 1.125.54688 1.76563 1.32813 1.76563 1.17187 0 1.8125-1.15625 2.25-2.15625l-.39063-.21876C7.32813-1.48437 6.90625-.6875 6.5-.6875c-.28125 0-.39062-.3125-.6875-1.46875l-.51562-2.07812c.5-.875 1.20312-1.95313 1.60937-1.95313.4375 0 .51563.25.95313.25.34375 0 .67187-.34375.67187-.78125 0-.48437-.35937-.6875-.78125-.6875-.75 0-1.39062.625-1.92187 1.4375L5.17188-4.9375h-.03125l-.5625-2.40625L4.5-7.40625l-2.59375.73438.03125.39062 1.09375-.07812c.26563 0 .39063.10937.51563.6875l.53125 2.1875-.40625.71875c-.5625 1-1.0625 1.71875-1.40625 1.71875-.45313 0-.59375-.39063-1.0625-.39063C.8125-1.4375.5-1.03125.5-.625m0 0"/><path id="r" d="M1.90625-5.9375c0 2.42188 1.76563 4.1875 4.20313 4.1875 2.35937 0 4.125-1.76562 4.125-4.1875 0-2.35937-1.76563-4.125-4.125-4.125-2.4375 0-4.20313 1.76563-4.20313 4.125m0 0"/><path id="s" d="M2.01563.25 3.96875 0l3.6875-15.53125-.07812-.09375-3.79688.5-.10937.5 1.1875.125c.35937.04688.51562.10938.51562.42188 0 .15625-.01562.34375-.09375.60937Zm3.45312-5.875c.40625 1.34375.89063 2.59375 1.48438 3.875.59375 1.34375 1.21875 2 2.23437 2 1.34375 0 2.28125-1.1875 2.90625-2.96875l-.53125-.26562c-.57812 1.26562-1.125 2.09375-1.6875 2.09375-.35937 0-.64062-.40625-1.1875-1.5C8.04688-3.71875 7.53125-5.09375 7.125-6.5c.57813-.67187 2.21875-2.46875 2.98438-2.46875.625 0 1.10937.5625 1.625.5625.59375 0 1.03125-.59375 1.03125-1.14062 0-.5625-.26563-1.03125-1.09375-1.03125-.84375 0-1.875.67187-2.95313 1.57812-1.1875 1.01563-2.26562 2.17188-3.25 3.375m0 0"/><path id="t" d="M1.79688-5.32812h5.17187v5.17187h1.23438v-5.17187H13.375V-6.5625H8.20313v-5.17187H6.96875v5.17187H1.79688Zm0 0"/><path id="u" d="M2.28125 0h6.92188v-.60937L7.4375-.76563C6.98438-.8125 6.75-.96874 6.75-1.79686v-12.40625l-.125-.10938-4.34375.73438v.51562l1.96875.25c.35938.04688.5.20313.5.79688v10.21875c0 .82812-.20312.98437-.6875 1.03125l-1.78125.15624Zm0 0"/><path id="v" d="M0 3.9375C0 4.5.625 5.09375 1.54688 5.09375c1.79687 0 2.54687-1.32812 4.40625-4.53125.4375-.71875 1.70312-2.9375 3.01562-5.09375C10.17188-6.5 11.5-8.53125 11.5-9.39062c0-.73438-.23437-1.1875-.39062-1.1875-.40625 0-1.10938.1875-1.65625.54687 0 0-.0625 2.14063-.26563 2.89063-.34375 1.1875-1.5625 3.46875-2.95312 5.85937h-.07813C6-4.5 5.60938-8.9375 5.3125-10.48437l-.15625-.09375L1.60938-9.5625l.07812.53125 1.45313-.04687c.42187 0 .51562.35937.6875 1.4375.23437 1.64062.70312 5.6875.70312 7.375 0 .625-.03125 1.46875-.5 2.59375-.375.875-.92187 1.5-1.34375 1.5-.76562 0-.84375-1.15625-1.60937-1.15625C.53125 2.67188 0 3.34375 0 3.9375m0 0"/><path id="w" d="M1.79688-3H13.375v-1.23437H1.79688Zm0-4.64062H13.375V-8.875H1.79688Zm0 0"/></defs><path fill="#7FBFBF" stroke="#7FBFBF" stroke-miterlimit="10" stroke-width=".39838" d="M240.71882 260.11719h-95.61331v-95.61332l95.6719-.02735Zm0 0"/><path fill="#399" stroke="#399" stroke-miterlimit="10" stroke-width=".39838" d="M240.71882 260.11719h-95.61331l.03125-47.82033 95.58206.01562Zm0 0"/><path fill="none" stroke="#007F7F" stroke-miterlimit="10" stroke-width=".39838" d="M87.75001 21.01163s6.04688 32.81641 8.3711 42.91407c2.32031 10.09767 6.04297 22.66798 8.3672 29.8594 2.3203 7.1914 6.04687 16.58594 8.36718 21.96875 2.32032 5.38672 6.04688 12.66016 8.3672 16.84376 2.32421 4.1836 6.04687 9.97656 8.36719 13.32422 2.32421 3.34375 6.04687 8.0586 8.3711 10.79688 2.3203 2.73828 6.04296 6.64844 8.36718 8.9336 2.32032 2.28125 6.04688 5.58203 8.3672 7.51562 2.32421 1.9336 6.04687 4.75391 8.36718 6.41016 2.32422 1.65625 6.04688 4.08985 8.3711 5.52735 2.32031 1.4336 6.04297 3.5625 8.3672 4.82031 2.3203 1.25391 6.04687 3.12891 8.36718 4.23438 2.32032 1.10938 6.04688 2.76563 8.3672 3.75 2.32421.98438 6.04687 2.46875 8.36718 3.34766 2.32422.88281 6.04688 2.21094 8.3711 3.0039 2.32031.79688 6.04297 2.00782 8.3672 2.72657 2.3203.71875 6.04687 1.80469 8.36718 2.45703 2.32422.65235 6.04688 1.65235 8.3672 2.2461 2.32421.59765 6.04687 1.51172 8.37109 2.0586 2.32031.54687 6.04297 1.3789 8.3672 1.8828 2.3203.50391 6.04687 1.27735 8.36718 1.73829 2.32032.46484 6.04688 1.17968 8.3672 1.60937 2.32421.42969 6.04687 1.09375 8.36718 1.4922 2.32422.39843 8.3711 1.3828 8.3711 1.3828"/><g fill="#7FBFBF"><use xlink:href="#a" x="306.70667" y="74.32152"/><use xlink:href="#b" x="320.06253" y="74.32152"/><use xlink:href="#c" x="326.18024" y="74.32152"/></g><use xlink:href="#d" x="333.93381" y="74.32152" fill="#7FBFBF"/><g fill="#7FBFBF"><use xlink:href="#e" x="349.48576" y="74.32152"/><use xlink:href="#f" x="362.07971" y="74.32152"/></g><use xlink:href="#c" x="379.55886" y="74.32152" fill="#7FBFBF"/><g fill="#7FBFBF"><use xlink:href="#d" x="387.31243" y="74.32152"/><use xlink:href="#g" x="398.13605" y="74.32152"/><use xlink:href="#h" x="408.57872" y="74.32152"/><use xlink:href="#i" x="415.81688" y="74.32152"/><use xlink:href="#j" x="426.81978" y="74.32152"/><use xlink:href="#k" x="439.8395" y="74.32152"/><use xlink:href="#l" x="450.77517" y="74.32152"/><use xlink:href="#d" x="456.64637" y="74.32152"/></g><g fill="#7FBFBF"><use xlink:href="#m" x="472.19833" y="74.32152"/><use xlink:href="#k" x="483.02196" y="74.32152"/><use xlink:href="#i" x="493.95763" y="74.32152"/><use xlink:href="#l" x="504.96053" y="74.32152"/><use xlink:href="#d" x="510.83173" y="74.32152"/></g><use xlink:href="#n" x="526.38369" y="74.32152" fill="#7FBFBF"/><use xlink:href="#o" x="545.78461" y="65.31299" fill="#7FBFBF"/><path fill="none" stroke="#7FBFBF" stroke-miterlimit="10" stroke-width="1.23263" d="M544.80469 68.38281h9.91016"/><use xlink:href="#p" x="544.8039" y="82.20988" fill="#7FBFBF"/><g fill="#399"><use xlink:href="#a" x="58.23283" y="361.24273"/><use xlink:href="#b" x="71.58869" y="361.24273"/><use xlink:href="#c" x="77.70639" y="361.24273"/></g><use xlink:href="#d" x="85.45996" y="361.24273" fill="#399"/><g fill="#399"><use xlink:href="#e" x="101.01192" y="361.24273"/><use xlink:href="#f" x="113.60587" y="361.24273"/></g><use xlink:href="#c" x="131.08502" y="361.24273" fill="#399"/><g fill="#399"><use xlink:href="#d" x="138.83859" y="361.24273"/><use xlink:href="#g" x="149.66221" y="361.24273"/><use xlink:href="#h" x="160.10488" y="361.24273"/><use xlink:href="#i" x="167.34304" y="361.24273"/><use xlink:href="#j" x="178.34594" y="361.24273"/><use xlink:href="#k" x="191.36566" y="361.24273"/><use xlink:href="#l" x="202.30133" y="361.24273"/><use xlink:href="#d" x="208.17253" y="361.24273"/></g><g fill="#399"><use xlink:href="#m" x="223.72449" y="361.24273"/><use xlink:href="#k" x="234.54812" y="361.24273"/><use xlink:href="#i" x="245.48379" y="361.24273"/><use xlink:href="#l" x="256.48669" y="361.24273"/><use xlink:href="#d" x="262.35789" y="361.24273"/></g><use xlink:href="#n" x="277.90984" y="361.24273" fill="#399"/><use xlink:href="#o" x="306.68368" y="352.23421" fill="#399"/><path fill="none" stroke="#399" stroke-miterlimit="10" stroke-width="1.23263" d="M296.33203 355.30469h28.66016"/><use xlink:href="#p" x="296.33231" y="369.1311" fill="#399"/><g fill="#399"><use xlink:href="#q" x="306.41868" y="369.1311"/><use xlink:href="#o" x="317.0227" y="369.1311"/></g><path fill="none" stroke="#007F7F" stroke-miterlimit="10" stroke-width=".39838" d="M431.94155 88.01946c-46.45314 80.46488-198.94148 8.8672-215.00398 99.9727"/><path fill="none" stroke="#007F7F" stroke-linecap="round" stroke-linejoin="round" stroke-miterlimit="10" stroke-width=".39838" d="M219.61719 186.5625c-1.48047.125-2.29297.83984-2.71485 1.625-.125-.88281-.64843-1.83203-1.99218-2.45312"/><path fill="none" stroke="#007F7F" stroke-miterlimit="10" stroke-width=".39838" d="M192.91412 336.6016c-19.57813-33.90627.04297-61.24613.04297-99.99614"/><path fill="none" stroke="#007F7F" stroke-linecap="round" stroke-linejoin="round" stroke-miterlimit="10" stroke-width=".39838" d="M190.5664 238.47656c1.4336-.3789 2.11329-1.22265 2.39063-2.07031.28125.84766.95703 1.6914 2.39063 2.07031"/><use xlink:href="#r" x="139.04439" y="265.1478"/><use xlink:href="#s" x="138.15966" y="283.6532"/><use xlink:href="#r" x="234.65447" y="265.1478"/><use xlink:href="#s" x="217.3687" y="283.6532"/><use xlink:href="#t" x="234.62375" y="283.6532"/><use xlink:href="#u" x="252.88722" y="283.6532"/><use xlink:href="#r" x="139.04439" y="169.53672"/><use xlink:href="#r" x="234.65447" y="217.34226"/><use xlink:href="#r" x="43.43431" y="169.53672"/><use xlink:href="#o" x="29.95514" y="160.98306"/><path fill="none" stroke="#000" stroke-miterlimit="10" stroke-width="1.23263" d="M28.97656 164.05469h9.91407"/><use xlink:href="#p" x="28.97668" y="177.87994"/><use xlink:href="#r" x="43.43431" y="217.34226"/><use xlink:href="#o" x="20.58272" y="208.7886"/><path fill="none" stroke="#000" stroke-miterlimit="10" stroke-width="1.23263" d="M10.23047 211.85937h28.66016"/><use xlink:href="#p" x="10.23135" y="225.68548"/><use xlink:href="#q" x="20.3334" y="225.68548"/><use xlink:href="#o" x="30.93742" y="225.68548"/><use xlink:href="#v" x="95.66851" y="26.50098" fill="#007F7F"/><use xlink:href="#w" x="112.81152" y="26.50098" fill="#007F7F"/><use xlink:href="#o" x="135.64117" y="17.49471" fill="#007F7F"/><path fill="none" stroke="#007F7F" stroke-miterlimit="10" stroke-width="1.23263" d="M135.03906 20.5625h9.16016"/><use xlink:href="#x" x="135.03835" y="34.38935" fill="#007F7F"/><path fill="none" stroke="#000" stroke-dasharray="2.987933351 2.987933351" stroke-miterlimit="10" stroke-width=".39838" d="M240.71882 260.11719v-47.8047H49.4961"/><path fill="none" stroke="#000" stroke-dasharray="2.987933351 2.987933351" stroke-miterlimit="10" stroke-width=".39838" d="M145.1055 260.11719v-95.61332H49.4961"/><path fill="none" stroke="#000" stroke-miterlimit="10" stroke-width=".39838" d="M1.67576 260.11719h286.52355"/><path fill="none" stroke="#000" stroke-linecap="round" stroke-linejoin="round" stroke-miterlimit="10" stroke-width=".39838" d="M286.32812 257.72656c.37891 1.4336 1.22266 2.10938 2.07032 2.39063-.84766.27734-1.69141.95703-2.07032 2.39062"/><path fill="none" stroke="#000" stroke-miterlimit="10" stroke-width=".39838" d="M49.4961 307.93752V21.41006"/><path fill="none" stroke="#000" stroke-linecap="round" stroke-linejoin="round" stroke-miterlimit="10" stroke-width=".39838" d="M47.10547 23.28516c1.4336-.3789 2.10937-1.22266 2.39062-2.07422.27735.85156.95704 1.69531 2.39063 2.07422"/></svg>