<svg xmlns="http://www.w3.org/2000/svg" xmlns:xlink="http://www.w3.org/1999/xlink" width="376.712pt" height="251.257pt" viewBox="0 0 376.712 251.257"><defs><path id="a" d="M-.40625 0H2.6875v-.40625l-.73437-.07812c-.42188-.03125-.48438-.1875-.35938-.5625.23438-.82813.51563-1.70313.84375-2.6875h3.15625l.9375 2.67187c.125.40625.07813.5625-.375.59375l-.64062.0625V0h3.59375v-.40625C8.28125-.48437 8.14063-.51562 7.89063-1.25L4.92188-9.6875H3.875L2.42188-5.54687C1.98438-4.32812 1.39063-2.65625.89063-1.375c-.29688.76563-.40625.92188-1.29688.96875Zm3.04688-4.28125c.4375-1.39062.9375-2.76562 1.35937-4h.04688l1.375 4Zm0 0"/><path id="b" d="M1.28125-9.17187c0 .51562.35938.875.85938.875.51562 0 .85937-.35938.85937-.875 0-.5-.34375-.84375-.85937-.84375-.5 0-.85938.34375-.85938.84375M.45313 0h3.40625v-.40625c-1-.07812-1.04688-.09375-1.04688-.8125v-5.73437l-.09375-.07813-2.20312.35938v.34375l.53125.0625c.35937.0625.45312.125.45312.625v4.42187c0 .71875-.04687.73438-1.04687.8125Zm0 0"/><path id="c" d="M.45313 0h3.6875v-.40625C2.89063-.48437 2.8125-.5 2.8125-1.21875V-4.5c0-1.07812.48438-1.45312.8125-1.45312.21875 0 .45313.09375.85938.3125.10937.0625.21875.07812.28125.07812.34375 0 .64062-.35937.64062-.78125 0-.3125-.1875-.6875-.73437-.6875-.51563 0-.9375.29688-1.85938 1.10938l-.15625-1.10938-2.14062.35938v.34375l.53125.0625c.35937.0625.45312.125.45312.625v4.42187c0 .71875-.0625.73438-1.04687.8125Zm0 0"/><path id="d" d="M.6875-3.39062c0 2.23437.95313 3.54687 3.23438 3.54687 1.54687 0 2.35937-.85937 2.71875-1.95312l-.40625-.23438c-.39063.82813-.92188 1.48438-2.03125 1.48438-1.75 0-2.09375-1.67188-2.0625-3.14063H6.1875c.29688 0 .54688-.0625.54688-.53125 0-.8125-.26563-2.8125-2.82813-2.8125-2.1875 0-3.21875 1.54688-3.21875 3.64063m1.46875-.82813c0-.57812.21875-2.32812 1.67188-2.32812 1.29687 0 1.45312 1.32812 1.45312 1.875 0 .28125-.09375.45312-.48437.45312Zm0 0"/><path id="e" d="M.6875-3.29687C.6875-1.21875 1.78125.15625 3.625.15625c.75 0 1.39063-.32812 2.15625-.95312v.6875L5.90625 0h2.26563v-.40625C7.17188-.48437 7.125-.5 7.125-1.21875v-9.09375l-.10937-.07812-2.20313.34375v.35937l.53125.04688c.35938.04687.45313.10937.45313.65625v2.29687c-.39063-.21875-.90625-.34375-1.54688-.34375-1.15625 0-2.01562.375-2.59375.96875C1.0625-5.4375.6875-4.51562.6875-3.29687m1.45313-.15625c0-1.82813.65625-3.09375 2.09375-3.09375.65625 0 1.1875.29687 1.4375.875.125.25.125.45312.125.82812v2.45313c0 .3125 0 .5625-.09375.79687-.28125.73438-.89063 1.01563-1.625 1.01563-1.28125 0-1.9375-1.26563-1.9375-2.875m0 0"/><path id="f" d="m.35938-6.32812.53125.0625c.35937.0625.45312.125.45312.625v3.70312c0 1.60938.95313 2.09375 2 2.09375 1.1875 0 2.15625-.79687 2.5625-.98437L6.03125 0h2.25v-.40625C7.3125-.48437 7.23438-.5 7.23438-1.21875v-5.73437L7.125-7.03125l-2.1875.35938v.34375l.53125.0625c.35938.0625.45313.125.45313.625v3.17187c0 .375-.04688.6875-.125.82813C5.46875-1 4.8125-.57812 4.07813-.57812c-.8125 0-1.40625-.53125-1.40625-1.60938v-4.76562l-.10938-.07813-2.20312.35938Zm0 0"/><path id="g" d="M.6875-3.375c0 2.34375 1.14063 3.53125 3.25 3.53125.98438 0 2.3125-.5 2.70313-2l-.42188-.20312C5.78125-1.0625 5.23438-.5625 4.20313-.5625c-1.67188 0-2.0625-1.75-2.0625-3.0625 0-2.07812.82812-2.92187 1.79687-2.92187.64063 0 1.04688.46875 1.32813 1.21875.07812.23437.17187.35937.4375.35937.29687 0 .82812-.17187.82812-.70312 0-.64063-.92187-1.35938-2.45312-1.35938C1.53125-7.03125.6875-5.23437.6875-3.375m0 0"/><path id="h" d="M.4375-6.3125h1.01563v4.875C1.45313 0 2.5.15625 3 .15625c.71875 0 1.375-.34375 1.78125-.60937L4.6875-.75c-.34375.14063-.64062.1875-1 .1875-.48437 0-.9375-.34375-.9375-1.40625V-6.3125h1.8125v-.5625H2.75v-1.75h-.39062L1.5-6.875H.4375Zm0 0"/><path id="i" d="M.6875-1.8125c0 1.03125.70313 1.96875 2.01563 1.96875.8125 0 1.64062-.53125 2.07812-.82812.20313.51562.4375.82812.92188.82812.53125 0 1.125-.14062 1.65625-.40625l-.07813-.32812c-.20312.04687-.51562.0625-.71875 0-.25-.0625-.5-.3125-.5-1.20313v-3.39062c0-.82813-.17187-1.85938-2.29687-1.85938-1.57813 0-2.82813.8125-2.82813 1.59375 0 .4375.51563.65625.79688.65625.29687 0 .375-.15625.4375-.39062.3125-1.04688.89062-1.375 1.45312-1.375.54688 0 1.17188.28125 1.17188 1.40625v.57812c-.35938.35938-1.71875.71875-2.8125 1.07813C.96875-3.17187.6875-2.46875.6875-1.8125m1.42188-.20312c0-.65625.29687-1 1.07812-1.29688.5625-.20312 1.29688-.46875 1.60938-.67187V-2c0 1.14063-.85938 1.42188-1.40625 1.42188-.875 0-1.28125-.60938-1.28125-1.4375m0 0"/><path id="j" d="M.45313 0h3.40625v-.40625c-1-.07812-1.04688-.09375-1.04688-.8125V-4.5c0-.35937.01563-.53125.14063-.76562C3.25-5.8125 3.875-6.28125 4.625-6.28125c.95313 0 1.46875.53125 1.46875 1.75v3.3125c0 .71875-.04687.73438-1.0625.8125V0h3.4375v-.40625c-1-.07812-1.0625-.09375-1.0625-.8125v-3.57812c0-1.42188-.76562-2.23438-2.0625-2.23438-1.03125 0-1.67187.5-2.54687 1.0625l-.1875-1.0625-2.09375.35938v.34375l.53125.0625c.35937.0625.45312.125.45312.625v4.42187c0 .71875-.04687.73438-1.04687.8125Zm0 0"/><path id="k" d="M.57813 1.34375C.57813 2.75 2 3.39063 3.625 3.39063c.82813 0 1.71875-.17188 2.375-.57813.64063-.375 1.125-1.04687 1.125-1.92187 0-1.51563-1.20312-2.03125-2.71875-2.03125H3.29688c-1.01563 0-1.17188-.34375-1.17188-.625 0-.39063.54688-.625.71875-.67188.26563.01563.5625.03125.71875.03125 1.32813 0 2.82813-.57812 2.82813-2.28125 0-.57812-.1875-1.0625-.42188-1.3125l1.10938-.17187.28125-.875-.10938-.125-1.79687.5625c-.39063-.26563-1.17188-.42188-1.8125-.42188C1.48438-7.03125.75-5.71875.75-4.6875c0 1.3125.85938 1.9375 1.5 2.09375v.03125c-.76562.29688-1.28125.70313-1.28125 1.25 0 .5.5625 1.01563 1.23438 1.09375v.03125C1.60938 0 .57813.32813.57813 1.34375m1.34375-.0625c0-.46875.14062-.82812.4375-1.0625.3125-.23437.76562-.32812 1.4375-.32812 1.23437 0 2.15625.3125 2.15625 1.35937 0 1.125-1.01563 1.65625-2.01563 1.65625-1.1875 0-2.01562-.60937-2.01562-1.625m.25-5.96875c0-1.375.71875-1.85937 1.46875-1.85937.6875 0 1.39062.51562 1.39062 1.85937 0 1.1875-.59375 1.79688-1.40625 1.79688-.79687 0-1.45312-.60938-1.45312-1.79688m0 0"/><path id="l" d="M.28125 0h3.42188v-.40625c-1-.07812-1.04688-.09375-1.04688-.8125v-9.09375l-.10937-.07812-2.1875.34375v.35937l.51562.04688c.35938.04687.45313.10937.45313.65625v7.76562c0 .71875-.03126.73438-1.04688.8125Zm0 0"/><path id="m" d="m2.8125-7.875.21875.28125 2.10938-1.17187c.42187-.21875.79687-.46875.79687-.76563 0-.28125-.34375-.60937-.5625-.60937-.23437 0-.46875.15625-.89062.57812ZM.6875-3.39062c0 2.23437.95313 3.54687 3.23438 3.54687 1.54687 0 2.35937-.85937 2.71875-1.95312l-.40625-.23438c-.39063.82813-.92188 1.48438-2.03125 1.48438-1.75 0-2.09375-1.67188-2.0625-3.14063H6.1875c.29688 0 .54688-.0625.54688-.53125 0-.8125-.26563-2.8125-2.82813-2.8125-2.1875 0-3.21875 1.54688-3.21875 3.64063m1.46875-.82813c0-.57812.21875-2.32812 1.67188-2.32812 1.29687 0 1.45312 1.32812 1.45312 1.875 0 .28125-.09375.45312-.48437.45312Zm0 0"/><path id="n" d="M1.54688-9.53125c0 .29688.375.54688.79687.76563l2.10938 1.17187.21875-.28125L3-9.5625c-.42187-.42187-.65625-.57812-.89062-.57812-.21875 0-.5625.32812-.5625.60937M.6875-1.8125c0 1.03125.70313 1.96875 2.01563 1.96875.8125 0 1.64062-.53125 2.07812-.82812.20313.51562.4375.82812.92188.82812.53125 0 1.125-.14062 1.65625-.40625l-.07813-.32812c-.20312.04687-.51562.0625-.71875 0-.25-.0625-.5-.3125-.5-1.20313v-3.39062c0-.82813-.17187-1.85938-2.29687-1.85938-1.57813 0-2.82813.8125-2.82813 1.59375 0 .4375.51563.65625.79688.65625.29687 0 .375-.15625.4375-.39062.3125-1.04688.89062-1.375 1.45312-1.375.54688 0 1.17188.28125 1.17188 1.40625v.57812c-.35938.35938-1.71875.71875-2.8125 1.07813C.96875-3.17187.6875-2.46875.6875-1.8125m1.42188-.20312c0-.65625.29687-1 1.07812-1.29688.5625-.20312 1.29688-.46875 1.60938-.67187V-2c0 1.14063-.85938 1.42188-1.40625 1.42188-.875 0-1.28125-.60938-1.28125-1.4375m0 0"/><path id="o" d="M1.0625 0h3.29688v-.29687L3.5625-.375C3.34375-.39062 3.25-.46875 3.25-.82812V-6.625l-.0625-.04687-2.10937.35937v.26563l.84375.10937c.1875.03125.25.10938.25.40625v4.70313c0 .35937-.09375.4375-.32813.45312l-.78125.07813Zm0 0"/><path id="p" d="M.9375.10938 1.96875 0 3.6875-7.23437l-.0625-.04688-1.85937.25-.0625.25.54687.0625c.15625.01563.23438.04688.23438.20313 0 .0625-.01563.14062-.04688.25Zm1.71875-2.70313C2.82813-2 3.0625-1.39062 3.3125-.79687s.54688.90625 1.04688.90625c.65625 0 1.10937-.54688 1.42187-1.39063l-.26562-.14062c-.26563.5625-.53125.9375-.76563.9375-.17187 0-.29687-.1875-.51562-.64063-.28125-.60937-.53125-1.3125-.71875-1.96875.28125-.32812.95312-1.03125 1.26562-1.03125.29688 0 .51563.29688.79688.29688s.5-.3125.5-.59375-.14063-.5-.53125-.5c-.45313 0-.96875.39062-1.40625.76562-.53125.46875-1.10938 1.09375-1.48438 1.5625m0 0"/><path id="q" d="M.82813-2.4375h2.375v2.35938h.65625V-2.4375h2.375v-.65625h-2.375v-2.375h-.65625v2.375h-2.375Zm0 0"/><path id="x" d="M.32813-.42187c0 .29687.25.53125.67187.53125.65625 0 1.03125-.625 1.42188-1.28125l.375-.64063h.01562l.1875.75c.17188.75.35938 1.17188.875 1.17188.78125 0 1.20313-.76563 1.5-1.42188l-.26562-.15625C4.875-.98437 4.59375-.45312 4.32813-.45312c-.1875 0-.26563-.21875-.45313-.98438l-.34375-1.375c.32813-.59375.79688-1.29687 1.0625-1.29687.29688 0 .34375.15625.64063.15625.21875 0 .4375-.21875.4375-.51563 0-.32812-.23438-.45312-.51563-.45312-.5 0-.92187.40625-1.28125.95312l-.4375.6875h-.01562l-.375-1.60937L3-4.92187l-1.73437.48437.03124.26563.71876-.0625c.17187 0 .26562.07812.34375.45312l.35937 1.46875-.28125.46875c-.375.67188-.70312 1.14063-.9375 1.14063-.29687 0-.39062-.25-.70312-.25-.25 0-.46875.26562-.46875.53125m0 0"/><path id="r" d="M1.26563-3.95312c0 1.60937 1.17187 2.79687 2.79687 2.79687 1.57813 0 2.75-1.1875 2.75-2.79687 0-1.5625-1.17187-2.73438-2.75-2.73438-1.625 0-2.79687 1.17188-2.79687 2.73438m0 0"/><path id="s" d="M1.34375.15625 2.64063 0l2.45312-10.32812-.0625-.0625-2.51562.32812-.07813.32813.79688.09375c.23437.03125.34375.07812.34375.28125 0 .10937-.01563.21875-.0625.40625Zm2.29688-3.89062c.26562.89062.59375 1.71875.98437 2.57812.39063.89063.8125 1.3125 1.48438 1.3125C7 .15625 7.625-.625 8.04688-1.79687l-.35938-.1875c-.39062.84375-.73437 1.39062-1.10937 1.39062-.25 0-.4375-.26562-.79688-1-.4375-.875-.76562-1.79687-1.04687-2.73437.39062-.4375 1.48437-1.64063 1.98437-1.64063.42188 0 .75.375 1.09375.375.39063 0 .6875-.40625.6875-.75 0-.375-.1875-.6875-.73437-.6875-.5625 0-1.25.4375-1.96875 1.03125-.78125.6875-1.5 1.45313-2.15625 2.26563m0 0"/><path id="t" d="M1.1875-3.54687h3.45313v3.4375h.8125v-3.4375h3.45312V-4.375H5.45313v-3.4375h-.8125v3.4375H1.1875Zm0 0"/><path id="u" d="M1.51563 0H6.125v-.40625L4.95313-.5c-.29688-.03125-.46875-.14062-.46875-.6875v-8.26562l-.07813-.07813-2.89062.5v.34375l1.3125.15625c.25.03125.32812.14063.32812.54688v6.79687c0 .54688-.125.65625-.45312.6875l-1.1875.09375Zm0 0"/><path id="v" d="M0 2.625c0 .375.42188.76563 1.03125.76563 1.1875 0 1.70313-.89063 2.9375-3.01563.28125-.48437 1.125-1.95312 2-3.39062.79688-1.3125 1.67188-2.65625 1.67188-3.23438 0-.48437-.14063-.78125-.25-.78125-.26563 0-.75.10938-1.09375.35938 0 0-.04688 1.42187-.1875 1.92187-.21875.78125-1.04688 2.3125-1.96875 3.90625h-.04688C4-3 3.71875-5.95312 3.53125-6.96875l-.10937-.0625-2.34375.67188L1.125-6l.96875-.03125c.28125 0 .34375.23438.45313.95313C2.70313-4 3.01563-1.29687 3.01563-.17187c0 .40625-.01563.98437-.32813 1.71875-.25.57812-.60937 1-.90625 1-.5 0-.5625-.76563-1.0625-.76563C.35938 1.78125 0 2.21875 0 2.625m0 0"/><path id="w" d="M1.1875-2h7.71875v-.8125H1.1875Zm0-3.07812h7.71875v-.82813H1.1875Zm0 0"/></defs><path fill="#7fbfbf" stroke="#7fbfbf" stroke-miterlimit="10" stroke-width=".39732" d="M160.44537 172.95312H96.8594v-63.58596l63.59768-.00781Zm0 0"/><path fill="#399" stroke="#399" stroke-miterlimit="10" stroke-width=".39732" d="M160.44537 172.95312H96.8594l.00781-31.79688 63.57816.0039Zm0 0"/><path fill="none" stroke="#007f7f" stroke-miterlimit="10" stroke-width=".39732" d="M58.71095 13.97259s4.01953 21.82032 5.5625 28.53126c1.54297 6.71485 4.01953 15.07423 5.5664 19.85548 1.54298 4.78125 4.01954 11.02735 5.56251 14.60547 1.54297 3.58204 4.01953 8.41798 5.5625 11.19923 1.54688 2.78125 4.01954 6.63281 5.56641 8.85938 1.54297 2.22265 4.01953 5.35937 5.5625 7.17969s4.01954 4.42187 5.5625 5.9375c1.54688 1.51953 4.01954 3.71484 5.56642 5 1.54296 1.28516 4.01953 3.16016 5.5625 4.26172 1.54297 1.09766 4.01953 2.71875 5.5625 3.67188 1.54688.95703 4.02344 2.3711 5.5664 3.20703 1.54298.83594 4.01954 2.07813 5.56251 2.8164 1.54297.73829 4.01953 1.83985 5.56641 2.4922 1.54297.65625 4.01953 1.64062 5.5625 2.22656s4.01953 1.46875 5.5625 1.9961c1.54688.53124 4.01954 1.33593 5.56641 1.8125 1.54297.48046 4.01954 1.20312 5.5625 1.63671 1.54297.4336 4.01954 1.09766 5.5625 1.4922 1.54688.39843 4.02345 1.0039 5.56642 1.36718s4.01953.91797 5.5625 1.2539c1.54297.33204 4.01953.84766 5.5625 1.15626 1.54688.3086 4.02344.78125 5.5664 1.07031 1.54298.28516 4.01954.72656 5.56251.99219 1.54297.26562 5.5664.91797 5.5664.91797"/><g fill="#7fbfbf"><use xlink:href="#a" x="204.23105" y="49.41587"/><use xlink:href="#b" x="213.11139" y="49.41587"/><use xlink:href="#c" x="217.17907" y="49.41587"/></g><use xlink:href="#d" x="222.33443" y="49.41587" fill="#7fbfbf"/><g fill="#7fbfbf"><use xlink:href="#e" x="232.67496" y="49.41587"/><use xlink:href="#f" x="241.04871" y="49.41587"/></g><use xlink:href="#c" x="252.67063" y="49.41587" fill="#7fbfbf"/><g fill="#7fbfbf"><use xlink:href="#d" x="257.82599" y="49.41587"/><use xlink:href="#g" x="265.02264" y="49.41587"/><use xlink:href="#h" x="271.966" y="49.41587"/><use xlink:href="#i" x="276.77866" y="49.41587"/><use xlink:href="#j" x="284.09451" y="49.41587"/><use xlink:href="#k" x="292.75136" y="49.41587"/><use xlink:href="#l" x="300.02251" y="49.41587"/><use xlink:href="#d" x="303.92628" y="49.41587"/></g><g fill="#7fbfbf"><use xlink:href="#m" x="314.26681" y="49.41587"/><use xlink:href="#k" x="321.46346" y="49.41587"/><use xlink:href="#i" x="328.73461" y="49.41587"/><use xlink:href="#l" x="336.05046" y="49.41587"/><use xlink:href="#d" x="339.95424" y="49.41587"/></g><use xlink:href="#n" x="350.29477" y="49.41587" fill="#7fbfbf"/><use xlink:href="#o" x="363.25729" y="43.42608" fill="#7fbfbf"/><path fill="none" stroke="#7fbfbf" stroke-miterlimit="10" stroke-width=".81958" d="M362.54297 45.46875h6.71484"/><use xlink:href="#p" x="362.54241" y="54.66086" fill="#7fbfbf"/><g fill="#399"><use xlink:href="#a" x="39.08342" y="240.19072"/><use xlink:href="#b" x="47.96376" y="240.19072"/><use xlink:href="#c" x="52.03143" y="240.19072"/></g><use xlink:href="#d" x="57.1868" y="240.19072" fill="#399"/><g fill="#399"><use xlink:href="#e" x="67.52733" y="240.19072"/><use xlink:href="#f" x="75.90107" y="240.19072"/></g><use xlink:href="#c" x="87.52299" y="240.19072" fill="#399"/><g fill="#399"><use xlink:href="#d" x="92.67836" y="240.19072"/><use xlink:href="#g" x="99.87501" y="240.19072"/><use xlink:href="#h" x="106.81836" y="240.19072"/><use xlink:href="#i" x="111.63103" y="240.19072"/><use xlink:href="#j" x="118.94688" y="240.19072"/><use xlink:href="#k" x="127.60372" y="240.19072"/><use xlink:href="#l" x="134.87487" y="240.19072"/><use xlink:href="#d" x="138.77864" y="240.19072"/></g><g fill="#399"><use xlink:href="#m" x="149.11917" y="240.19072"/><use xlink:href="#k" x="156.31582" y="240.19072"/><use xlink:href="#i" x="163.58697" y="240.19072"/><use xlink:href="#l" x="170.90283" y="240.19072"/><use xlink:href="#d" x="174.8066" y="240.19072"/></g><use xlink:href="#n" x="185.14713" y="240.19072" fill="#399"/><use xlink:href="#o" x="204.27742" y="234.20094" fill="#399"/><path fill="none" stroke="#399" stroke-miterlimit="10" stroke-width=".81958" d="M197.39453 236.24219h19.05468"/><use xlink:href="#p" x="197.39477" y="245.43571" fill="#399"/><g fill="#399"><use xlink:href="#q" x="204.11165" y="245.43571"/><use xlink:href="#o" x="211.16228" y="245.43571"/></g><path fill="none" stroke="#007f7f" stroke-miterlimit="10" stroke-width=".39732" d="M287.6173 58.49995c-30.90236 53.51956-132.32428 5.89844-142.98835 66.36722"/><path fill="none" stroke="#007f7f" stroke-linecap="round" stroke-linejoin="round" stroke-miterlimit="10" stroke-width=".39732" d="M147.30078 123.4414c-1.47266.1211-2.28516.83594-2.70703 1.6211-.125-.88281-.64453-1.82812-1.98828-2.44922"/><path fill="none" stroke="#007f7f" stroke-miterlimit="10" stroke-width=".39732" d="M128.65238 223.82033c-13.01953-22.55079.00782-40.73048.00782-66.37112"/><path fill="none" stroke="#007f7f" stroke-linecap="round" stroke-linejoin="round" stroke-miterlimit="10" stroke-width=".39732" d="M126.27734 159.3164c1.4297-.375 2.10547-1.21484 2.38282-2.0625.28125.84766.95703 1.6875 2.38672 2.0625"/><use xlink:href="#r" x="92.82749" y="176.29667"/><use xlink:href="#s" x="92.1495" y="188.60128"/><use xlink:href="#r" x="156.41246" y="176.29667"/><use xlink:href="#s" x="144.90349" y="188.60128"/><use xlink:href="#t" x="156.37642" y="188.60128"/><use xlink:href="#u" x="168.51984" y="188.60128"/><use xlink:href="#r" x="92.82749" y="112.7117"/><use xlink:href="#r" x="156.41246" y="144.50468"/><use xlink:href="#r" x="29.24252" y="112.7117"/><use xlink:href="#o" x="20.2187" y="107.02501"/><path fill="none" stroke="#000" stroke-miterlimit="10" stroke-width=".81958" d="M19.5039 109.0664h6.71485"/><use xlink:href="#p" x="19.50382" y="118.25979"/><use xlink:href="#r" x="29.24252" y="144.50468"/><use xlink:href="#o" x="14.04945" y="138.817"/><path fill="none" stroke="#000" stroke-miterlimit="10" stroke-width=".81958" d="M7.16406 140.85938h19.05469"/><use xlink:href="#p" x="7.16531" y="150.05178"/><use xlink:href="#q" x="13.88218" y="150.05178"/><use xlink:href="#o" x="20.93282" y="150.05178"/><use xlink:href="#v" x="63.97381" y="17.62089" fill="#007f7f"/><use xlink:href="#w" x="75.37224" y="17.62089" fill="#007f7f"/><use xlink:href="#o" x="90.66688" y="11.6311" fill="#007f7f"/><path fill="none" stroke="#007f7f" stroke-miterlimit="10" stroke-width=".81958" d="M90.15234 13.67187h6.32031"/><use xlink:href="#x" x="90.1509" y="22.86439" fill="#007f7f"/><path fill="none" stroke="#000" stroke-dasharray="2.9800129515 2.9800129515" stroke-miterlimit="10" stroke-width=".39732" d="M160.44537 172.95312v-31.79298H33.27344"/><path fill="none" stroke="#000" stroke-dasharray="2.9800129515 2.9800129515" stroke-miterlimit="10" stroke-width=".39732" d="M96.8594 172.95312v-63.58596H33.27344"/><path fill="none" stroke="#000" stroke-miterlimit="10" stroke-width=".39732" d="M1.47655 172.95312h190.37898"/><path fill="none" stroke="#000" stroke-linecap="round" stroke-linejoin="round" stroke-miterlimit="10" stroke-width=".39732" d="M189.98828 170.5664c.3789 1.4297 1.21875 2.10547 2.0664 2.38672-.84765.27735-1.6875.95313-2.0664 2.38282"/><path fill="none" stroke="#000" stroke-miterlimit="10" stroke-width=".39732" d="M33.27344 204.7461V14.36713"/><path fill="none" stroke="#000" stroke-linecap="round" stroke-linejoin="round" stroke-miterlimit="10" stroke-width=".39732" d="M30.89062 16.23438c1.4297-.375 2.10547-1.21875 2.38282-2.06641.27734.84766.95312 1.6914 2.38281 2.0664"/></svg>