<svg xmlns="http://www.w3.org/2000/svg" xmlns:xlink="http://www.w3.org/1999/xlink" width="591.098" height="378.274" viewBox="0 0 591.098 378.274"><defs><path id="a" d="M-.60937 0h4.64062v-.60937L2.9375-.71875C2.29688-.78125 2.21875-1 2.39063-1.5625c.35937-1.25.78125-2.54687 1.28125-4.04687h4.71875l1.40625 4.01562c.20312.60938.10937.82813-.5625.90625l-.95313.07813V0h5.39063v-.60937C12.4375-.71875 12.21875-.78125 11.84375-1.875L7.39063-14.54687H5.8125L3.625-8.32812C2.96875-6.48437 2.07813-3.98437 1.34375-2.0625.89063-.92187.71875-.67187-.60937-.60937Zm4.5625-6.42187C4.625-8.53125 5.375-10.57812 6-12.4375h.0625l2.07813 6.01563Zm0 0"/><path id="b" d="M1.92188-13.76562c0 .76562.54687 1.29687 1.29687 1.29687C3.98438-12.46875 4.5-13 4.5-13.76562c0-.75-.51562-1.26563-1.28125-1.26563-.75 0-1.29687.51563-1.29687 1.26563M.67188 0h5.125v-.60937c-1.5-.10938-1.5625-.15626-1.5625-1.21875v-8.59375l-.15625-.14063-3.29688.53125v.51563l.78125.125c.54688.07812.70313.17187.70313.9375v6.625c0 1.0625-.07813 1.10937-1.59375 1.21875Zm0 0"/><path id="c" d="M.67188 0h5.54687v-.60937c-1.875-.10938-1.98437-.15626-1.98437-1.21875V-6.75c0-1.625.70312-2.17187 1.20312-2.17187.32813 0 .6875.125 1.29688.46875.15625.07812.3125.10937.42187.10937.51563 0 .96875-.54687.96875-1.1875C8.125-10 7.82813-10.5625 7-10.5625c-.75 0-1.39062.45313-2.76562 1.67188l-.25-1.67188-3.20313.53125v.51563l.78125.125c.54688.07812.70313.17187.70313.9375v6.625c0 1.0625-.125 1.10937-1.59375 1.21875Zm0 0"/><path id="d" d="M1.03125-5.07812C1.03125-1.75 2.46875.25 5.89063.25c2.32812 0 3.53125-1.29687 4.09375-2.95312l-.625-.34375C8.76563-1.8125 7.96875-.82812 6.3125-.82812c-2.625 0-3.14062-2.5-3.09375-4.70313h6.0625c.45313 0 .82813-.10937.82813-.79687 0-1.23438-.40625-4.23438-4.25-4.23438-3.28125 0-4.82813 2.32813-4.82813 5.48438m2.21875-1.25c0-.875.3125-3.5 2.5-3.5 1.95313 0 2.17188 2 2.17188 2.82812 0 .40625-.14063.67188-.71875.67188Zm0 0"/><path id="e" d="M1.03125-4.9375C1.03125-1.82812 2.65625.25 5.4375.25c1.14063 0 2.10938-.51562 3.25-1.4375v1.03125L8.85938 0h3.40625v-.60937c-1.5-.10938-1.57813-.15626-1.57813-1.21875v-13.65625l-.15625-.10938-3.29687.51563v.53125l.79687.0625c.53125.07812.67188.1875.67188.98437v3.45313c-.57813-.3125-1.35938-.51563-2.32813-.51563-1.71875 0-3.01562.5625-3.89062 1.45313-.89063.9375-1.45313 2.32812-1.45313 4.17187m2.1875-.25c0-2.73437.98438-4.64062 3.14063-4.64062.98437 0 1.78125.45312 2.17187 1.32812.17188.35938.17188.67188.17188 1.23438v3.6875c0 .46875 0 .82812-.14063 1.1875C8.14063-1.29687 7.23438-.875 6.125-.875c-1.92187 0-2.90625-1.90625-2.90625-4.3125m0 0"/><path id="f" d="m.53125-9.51562.8125.125c.53125.07812.67188.17187.67188.9375v5.54687C2.01563-.5 3.45313.25 5.01563.25 6.79688.25 8.25-.96875 8.85938-1.25L9.0625 0h3.375v-.60937c-1.45312-.10938-1.57812-.15626-1.57812-1.21875v-8.59375l-.17188-.14063-3.28125.53125v.51563l.8125.125c.53125.07812.67188.17187.67188.9375v4.73437c0 .59375-.07813 1.0625-.1875 1.25C8.21875-1.5 7.23438-.875 6.125-.875 4.90625-.875 4-1.65625 4-3.29687v-7.125l-.15625-.14063-3.3125.53125Zm0 0"/><path id="g" d="M1.03125-5.0625C1.03125-1.54687 2.75.25 5.90625.25 7.39063.25 9.375-.51562 9.95313-2.78125l-.625-.28125C8.6875-1.59375 7.85938-.84375 6.3125-.84375c-2.51562 0-3.09375-2.625-3.09375-4.59375 0-3.125 1.23438-4.39062 2.6875-4.39062.96875 0 1.5625.70312 1.98438 1.84375.14062.32812.28125.53125.67187.53125.4375 0 1.23438-.26563 1.23438-1.07813 0-.95312-1.39063-2.03125-3.67188-2.03125-3.82812 0-5.09375 2.70313-5.09375 5.5m0 0"/><path id="h" d="M.65625-9.46875h1.51563v7.32813C2.17188 0 3.76563.25 4.5.25c1.07813 0 2.07813-.54687 2.6875-.92187L7.03125-1.125c-.51562.20313-.96875.28125-1.5.28125-.71875 0-1.39062-.51562-1.39062-2.10937v-6.51563h2.70312v-.84375H4.14063v-2.64062h-.60938L2.26563-10.3125H.65625Zm0 0"/><path id="i" d="M1.03125-2.73437C1.03125-1.15625 2.07813.25 4.04688.25 5.28125.25 6.51563-.5625 7.1875-1c.28125.78125.64063 1.25 1.375 1.25.79688 0 1.6875-.23437 2.48438-.625l-.125-.5c-.29688.0625-.76563.09375-1.07813 0-.375-.09375-.73437-.46875-.73437-1.78125v-5.10937c0-1.23438-.26563-2.79688-3.45313-2.79688-2.35937 0-4.25 1.23438-4.25 2.39063 0 .67187.78125.98437 1.1875.98437.45313 0 .5625-.21875.67188-.57812.46875-1.5625 1.32812-2.0625 2.17187-2.0625.82813 0 1.76563.4375 1.76563 2.10937v.875C6.67188-6.3125 4.625-5.76562 2.96875-5.23437c-1.51562.46875-1.9375 1.51562-1.9375 2.5m2.125-.28125c0-.98438.45313-1.5 1.625-1.95313.85938-.3125 1.95313-.71875 2.42188-1V-3c0 1.70313-1.29688 2.125-2.125 2.125-1.29688 0-1.92188-.92187-1.92188-2.14062m0 0"/><path id="j" d="M.67188 0h5.125v-.60937c-1.5-.10938-1.5625-.15626-1.5625-1.21875V-6.75c0-.54687.01562-.8125.20312-1.14062.4375-.82813 1.375-1.53125 2.5-1.53125 1.4375 0 2.21875.78125 2.21875 2.625v4.96875c0 1.0625-.07812 1.10937-1.59375 1.21875V0h5.14063v-.60937c-1.5-.10938-1.57813-.15626-1.57813-1.21875v-5.375c0-2.125-1.17187-3.35938-3.09375-3.35938-1.5625 0-2.53125.76563-3.82812 1.60938l-.28125-1.60938-3.14063.53125v.51563l.78125.125c.54688.07812.70313.17187.70313.9375v6.625c0 1.0625-.07813 1.10937-1.59375 1.21875Zm0 0"/><path id="k" d="M.875 2.01563c0 2.125 2.125 3.0625 4.5625 3.0625 1.25 0 2.57813-.25 3.57813-.84375.96875-.59375 1.67187-1.59375 1.67187-2.89063 0-2.28125-1.79687-3.0625-4.0625-3.0625H4.9375c-1.51562 0-1.73437-.51562-1.73437-.92187 0-.60938.79687-.9375 1.07812-1.03125.39063.04687.84375.0625 1.0625.0625 2 0 4.25-.85938 4.25-3.42188 0-.85937-.28125-1.60937-.64062-1.96875l1.67187-.26562.42188-1.3125-.17188-.1875-2.6875.85937c-.57812-.40625-1.76562-.65625-2.73437-.65625-3.21875 0-4.32813 1.96875-4.32813 3.53125 0 1.96875 1.29688 2.89063 2.25 3.14063v.04687c-1.14062.4375-1.92187 1.04688-1.92187 1.875 0 .73438.84375 1.51563 1.85937 1.64063v.03125C2.42188 0 .875.5.875 2.01563m2.01563-.09375c0-.71875.20312-1.25.64062-1.59375C4-.01562 4.70313-.15625 5.70313-.15625c1.85937 0 3.21875.46875 3.21875 2.03125 0 1.6875-1.51563 2.48438-3.01563 2.48438-1.79687 0-3.01562-.90625-3.01562-2.4375m.375-8.95313c0-2.07812 1.07812-2.79687 2.1875-2.79687 1.03125 0 2.10937.76562 2.10937 2.79687 0 1.76563-.89062 2.6875-2.125 2.6875-1.1875 0-2.17187-.92187-2.17187-2.6875m0 0"/><path id="l" d="M.42188 0h5.125v-.60937c-1.5-.10938-1.5625-.15626-1.5625-1.21875v-13.65625l-.15625-.10938-3.29688.51563v.53125l.78125.0625c.54688.07812.67188.1875.67188.98437v11.67188c0 1.0625-.03126 1.10937-1.5625 1.21875Zm0 0"/><path id="m" d="m4.23438-11.8125.3125.42188 3.17187-1.76563c.625-.34375 1.1875-.6875 1.1875-1.14062 0-.42188-.51562-.92188-.82812-.92188-.35938 0-.71875.23438-1.34375.875ZM1.03125-5.07812C1.03125-1.75 2.46875.25 5.89063.25c2.32812 0 3.53125-1.29687 4.09375-2.95312l-.625-.34375C8.76563-1.8125 7.96875-.82812 6.3125-.82812c-2.625 0-3.14062-2.5-3.09375-4.70313h6.0625c.45313 0 .82813-.10937.82813-.79687 0-1.23438-.40625-4.23438-4.25-4.23438-3.28125 0-4.82813 2.32813-4.82813 5.48438m2.21875-1.25c0-.875.3125-3.5 2.5-3.5 1.95313 0 2.17188 2 2.17188 2.82812 0 .40625-.14063.67188-.71875.67188Zm0 0"/><path id="n" d="M2.32813-14.29687c0 .45312.5625.79687 1.1875 1.14062l3.17187 1.76563L7-11.8125l-2.5-2.53125c-.625-.64062-.98437-.875-1.34375-.875-.3125 0-.82812.5-.82812.92188M1.03125-2.73437C1.03125-1.15625 2.07813.25 4.04688.25 5.28125.25 6.51563-.5625 7.1875-1c.28125.78125.64063 1.25 1.375 1.25.79688 0 1.6875-.23437 2.48438-.625l-.125-.5c-.29688.0625-.76563.09375-1.07813 0-.375-.09375-.73437-.46875-.73437-1.78125v-5.10937c0-1.23438-.26563-2.79688-3.45313-2.79688-2.35937 0-4.25 1.23438-4.25 2.39063 0 .67187.78125.98437 1.1875.98437.45313 0 .5625-.21875.67188-.57812.46875-1.5625 1.32812-2.0625 2.17187-2.0625.82813 0 1.76563.4375 1.76563 2.10937v.875C6.67188-6.3125 4.625-5.76562 2.96875-5.23437c-1.51562.46875-1.9375 1.51562-1.9375 2.5m2.125-.28125c0-.98438.45313-1.5 1.625-1.95313.85938-.3125 1.95313-.71875 2.42188-1V-3c0 1.70313-1.29688 2.125-2.125 2.125-1.29688 0-1.92188-.92187-1.92188-2.14062m0 0"/><path id="o" d="M1.59375 0h4.9375v-.45312L5.35938-.5625C5.03125-.59375 4.875-.70312 4.875-1.25v-8.67187L4.78125-10l-3.17187.53125v.39063l1.26562.17187c.28125.04688.375.15625.375.60938V-1.25c0 .54688-.14062.65625-.48437.6875l-1.17188.10938Zm0 0"/><path id="p" d="M1.40625.17188 2.9375 0l2.59375-10.84375-.07812-.0625-2.8125.35938-.09375.375.82812.09375c.23438.03125.34375.07812.34375.29687 0 .09375-.01562.21875-.0625.39063ZM4-3.875c.25.875.59375 1.79688.96875 2.67188.39063.90625.82813 1.375 1.5625 1.375.98438 0 1.67188-.82813 2.14063-2.09375L8.28125-2.125C7.875-1.28125 7.48438-.71875 7.125-.71875c-.25 0-.4375-.28125-.76562-.96875-.42188-.90625-.79688-1.95312-1.07813-2.95312.42188-.5 1.42188-1.54688 1.89063-1.54688.45312 0 .78125.4375 1.1875.4375.4375 0 .76562-.45312.76562-.89062 0-.40625-.21875-.75-.8125-.75-.67187 0-1.45312.59375-2.10937 1.15625C5.42188-5.54687 4.5625-4.60937 4-3.875m0 0"/><path id="r" d="M1.26563-4.15625c0 3.1875.79687 6.96875 3.78125 7.09375v-.48437C4.03125 2.25 2.5625.76563 2.5625-4.15625c0-4.89062 1.42188-6.375 2.48438-6.59375v-.48437c-2.98438.125-3.78125 3.90625-3.78125 7.07812m0 0"/><path id="s" d="M1.25-3.65625h3.5625v3.54688h.98438v-3.54688h3.54687v-1H5.79688v-3.54687H4.8125v3.54687H1.25Zm0 0"/><path id="t" d="M.89063 2.45313v.48437C3.85938 2.8125 4.6875-.96875 4.6875-4.15625c0-3.17187-.82812-6.95312-3.79687-7.07812v.48437C1.96875-10.53125 3.375-9.03125 3.375-4.15625c0 4.92188-1.48437 6.42188-2.48437 6.60938m0 0"/><path id="A" d="M.5-.625c0 .4375.375.79688 1 .79688.98438 0 1.53125-.9375 2.125-1.92188l.57813-.96875h.03125L4.5-1.59375c.26563 1.125.54688 1.76563 1.32813 1.76563 1.15625 0 1.79687-1.15625 2.23437-2.14063l-.39062-.21875c-.35938.70313-.78125 1.5-1.1875 1.5-.28125 0-.39063-.3125-.67188-1.45312l-.51562-2.09375c.5-.875 1.1875-1.9375 1.59375-1.9375.4375 0 .51562.25.95312.25.34375 0 .67188-.34375.67188-.78125 0-.48438-.35938-.6875-.78125-.6875-.75 0-1.39063.625-1.90625 1.4375L5.17188-4.9375h-.03125l-.5625-2.39062L4.5-7.39062l-2.59375.73437.03125.39063 1.07813-.07813c.26562 0 .39062.10938.51562.67188l.54688 2.20312-.42188.71875c-.5625.98438-1.0625 1.70313-1.40625 1.70313-.4375 0-.57812-.39063-1.04687-.39063C.8125-1.4375.5-1.03125.5-.625m0 0"/><path id="q" d="M.9375-1.79687c0 1.03125.42188 1.9375 1.79688 1.9375.89062 0 1.53125-.65625 2.03125-1.35938.04687.9375.42187 1.35938 1 1.35938 1.21875 0 1.90625-1.39063 2.04687-1.75l-.32812-.17188c-.29688.54688-.82813 1.10938-1.07813 1.10938-.375 0-.39062-.57813-.39062-1 0-.42188.04687-.96875.10937-1.4375l1.79688-2.59375H6.875l-.85937 1.625c-.125-1.32813-.59375-1.75-1.76563-1.75-1.90625 0-3.3125 1.90625-3.3125 4.03125m1.40625.10937c0-1.15625.67188-3.67187 1.90625-3.67187.48438 0 .625.73437.625 1.54687 0 .48438-.03125 1.03125-.09375 1.48438-.48437.96875-1.125 1.84375-1.8125 1.84375-.51562 0-.625-.59375-.625-1.20313m0 0"/><path id="u" d="M1.90625-5.92187c0 2.40625 1.76563 4.17187 4.20313 4.17187 2.34375 0 4.10937-1.76562 4.10937-4.17187 0-2.35938-1.76562-4.125-4.10937-4.125-2.4375 0-4.20313 1.76562-4.20313 4.125m0 0"/><path id="v" d="M2.01563.25 3.95313 0l3.70312-15.5-.09375-.09375-3.78125.48438-.10937.5 1.1875.125c.35937.04687.51562.125.51562.4375 0 .15625-.03125.32812-.09375.59375Zm3.4375-5.85937C5.85938-4.28125 6.35938-3.01562 6.9375-1.75c.60938 1.34375 1.23438 2 2.23438 2 1.34375 0 2.28125-1.1875 2.90625-2.95312l-.53125-.26563c-.57813 1.25-1.125 2.07813-1.67188 2.07813-.35937 0-.65625-.40625-1.1875-1.5-.65625-1.32813-1.17187-2.6875-1.57812-4.09375.59375-.67188 2.21875-2.46875 2.98437-2.46875.625 0 1.10938.5625 1.625.5625C12.3125-8.39062 12.75-9 12.75-9.53125c0-.5625-.26562-1.03125-1.09375-1.03125-.84375 0-1.875.67188-2.95312 1.5625-1.1875 1.03125-2.26563 2.17188-3.25 3.39063m0 0"/><path id="w" d="M1.79688-5.32812h5.15625v5.17187H8.1875v-5.17187h5.17188V-6.5625H8.1875v-5.15625H6.95313v5.15625H1.79688Zm0 0"/><path id="x" d="M2.28125 0h6.92188v-.60937L7.42188-.76563c-.4375-.04687-.6875-.20312-.6875-1.03124V-14.1875l-.10938-.10937-4.34375.73437v.51563l1.96875.25c.35938.04687.5.20312.5.79687v10.20313c0 .82812-.20312.98437-.70312 1.03125l-1.76563.15624Zm0 0"/><path id="y" d="M0 3.9375C0 4.5.625 5.07813 1.54688 5.07813c1.78125 0 2.54687-1.3125 4.40625-4.51563.42187-.71875 1.70312-2.9375 3-5.07812 1.20312-1.96875 2.53125-4.01563 2.53125-4.85938 0-.73437-.23438-1.1875-.39063-1.1875-.40625 0-1.10937.1875-1.65625.53125 0 0-.0625 2.15625-.26562 2.89063-.32813 1.1875-1.5625 3.46875-2.95313 5.85937h-.0625C6-4.5 5.59375-8.92187 5.29688-10.46875l-.15625-.09375-3.53125 1.01563.0625.53125L3.125-9.0625c.4375 0 .51563.35938.70313 1.4375.21875 1.625.6875 5.67188.6875 7.35938 0 .625-.01563 1.46875-.48438 2.59375-.39062.875-.92187 1.5-1.34375 1.5-.76562 0-.85937-1.17188-1.60937-1.17188C.53125 2.65625 0 3.32813 0 3.9375m0 0"/><path id="z" d="M1.79688-3h11.5625v-1.23437H1.79688Zm0-4.625h11.5625v-1.23437H1.79688Zm0 0"/></defs><path fill="#7FD6F7" stroke="#7FD6F7" stroke-miterlimit="10" stroke-width=".39773" d="M261.65226 259.69531h-95.45699v-95.45699l95.51558-.03125Zm0 0"/><path fill="#33BDF2" stroke="#33BDF2" stroke-miterlimit="10" stroke-width=".39773" d="M261.65226 259.69531h-95.45699l.02734-23.87108 95.42965.00781Zm0 0"/><path fill="none" stroke="#00ADEF" stroke-miterlimit="10" stroke-width=".39773" d="M130.41404 15.25792s5.39062 39.08592 7.46093 51.29685c2.07031 12.20703 5.39062 27.83593 7.46094 36.6953 2.0703 8.85937 5.39062 20.52343 7.46093 27.15624s5.39062 15.55858 7.45703 20.65233c2.0703 5.09766 5.39062 12.07421 7.46093 16.0703 2.07031 4 5.39062 9.55078 7.46094 12.75 2.0703 3.19531 5.39062 7.69531 7.46093 10.29297 2.07031 2.59374 5.38672 6.27343 7.45703 8.41015 2.07031 2.14062 5.39062 5.21093 7.46093 6.99218s5.39062 4.34766 7.46094 5.84375c2.0703 1.4961 5.39062 3.67578 7.46093 4.94531 2.07031 1.27344 5.38672 3.1289 7.45703 4.21875 2.07031 1.08984 5.39062 2.69922 7.46093 3.64062s5.39063 2.33203 7.46094 3.15234c2.0703.81641 5.39062 2.03125 7.46093 2.75 2.07031.71485 5.38672 1.77735 7.45703 2.41016 2.07031.6289 5.39062 1.57031 7.46093 2.1289 2.07032.5586 5.39063 1.39453 7.46094 1.89063s5.39062 1.23828 7.46093 1.67968c2.07031.44141 5.38672 1.10938 7.45703 1.50782 2.07031.39453 5.39062.99609 7.46094 1.35156 2.0703.35547 5.39062.89843 7.46093 1.21875 2.07031.32422 5.39062.8125 7.46093 1.10547 2.07031.28906 7.45703 1 7.45703 1"/><g fill="#7FD6F7"><use xlink:href="#a" x="322.73582" y="74.20059"/><use xlink:href="#b" x="336.07013" y="74.20059"/><use xlink:href="#c" x="342.17796" y="74.20059"/></g><use xlink:href="#d" x="349.91902" y="74.20059" fill="#7FD6F7"/><g fill="#7FD6F7"><use xlink:href="#e" x="365.44588" y="74.20059"/><use xlink:href="#f" x="378.01951" y="74.20059"/></g><use xlink:href="#c" x="395.47045" y="74.20059" fill="#7FD6F7"/><g fill="#7FD6F7"><use xlink:href="#d" x="403.21151" y="74.20059"/><use xlink:href="#g" x="414.01767" y="74.20059"/><use xlink:href="#h" x="424.44348" y="74.20059"/><use xlink:href="#i" x="431.66996" y="74.20059"/><use xlink:href="#j" x="442.65511" y="74.20059"/><use xlink:href="#k" x="455.65382" y="74.20059"/><use xlink:href="#l" x="466.57184" y="74.20059"/><use xlink:href="#d" x="472.43357" y="74.20059"/></g><g fill="#7FD6F7"><use xlink:href="#m" x="487.96043" y="74.20059"/><use xlink:href="#k" x="498.76659" y="74.20059"/><use xlink:href="#i" x="509.68462" y="74.20059"/><use xlink:href="#l" x="520.66976" y="74.20059"/><use xlink:href="#d" x="526.53149" y="74.20059"/></g><use xlink:href="#n" x="542.05835" y="74.20059" fill="#7FD6F7"/><use xlink:href="#o" x="566.22476" y="65.2066" fill="#7FD6F7"/><path fill="none" stroke="#7FD6F7" stroke-miterlimit="10" stroke-width="1.23064" d="M560.44922 68.27344h19.48828"/><use xlink:href="#p" x="560.44884" y="82.07623" fill="#7FD6F7"/><use xlink:href="#q" x="570.53424" y="77.45684" fill="#7FD6F7"/><g fill="#33BDF2"><use xlink:href="#a" x="68.82115" y="359.27247"/><use xlink:href="#b" x="82.15545" y="359.27247"/><use xlink:href="#c" x="88.26328" y="359.27247"/></g><use xlink:href="#d" x="96.00434" y="359.27247" fill="#33BDF2"/><g fill="#33BDF2"><use xlink:href="#e" x="111.5312" y="359.27247"/><use xlink:href="#f" x="124.10483" y="359.27247"/></g><use xlink:href="#c" x="141.55577" y="359.27247" fill="#33BDF2"/><g fill="#33BDF2"><use xlink:href="#d" x="149.29683" y="359.27247"/><use xlink:href="#g" x="160.10299" y="359.27247"/><use xlink:href="#h" x="170.52881" y="359.27247"/><use xlink:href="#i" x="177.75529" y="359.27247"/><use xlink:href="#j" x="188.74043" y="359.27247"/><use xlink:href="#k" x="201.73914" y="359.27247"/><use xlink:href="#l" x="212.65717" y="359.27247"/><use xlink:href="#d" x="218.51889" y="359.27247"/></g><g fill="#33BDF2"><use xlink:href="#m" x="234.04576" y="359.27247"/><use xlink:href="#k" x="244.85192" y="359.27247"/><use xlink:href="#i" x="255.76994" y="359.27247"/><use xlink:href="#l" x="266.75508" y="359.27247"/><use xlink:href="#d" x="272.61681" y="359.27247"/></g><use xlink:href="#n" x="288.14367" y="359.27247" fill="#33BDF2"/><use xlink:href="#o" x="327.50891" y="350.27848" fill="#33BDF2"/><path fill="none" stroke="#33BDF2" stroke-miterlimit="10" stroke-width="1.23064" d="M306.53516 353.34375h49.89062"/><g fill="#33BDF2"><use xlink:href="#r" x="306.53417" y="367.1481"/><use xlink:href="#p" x="312.46973" y="367.1481"/></g><g fill="#33BDF2"><use xlink:href="#s" x="322.55548" y="367.1481"/><use xlink:href="#o" x="333.14238" y="367.1481"/><use xlink:href="#t" x="341.08256" y="367.1481"/></g><use xlink:href="#q" x="347.01947" y="362.52872" fill="#33BDF2"/><path fill="none" stroke="#00ADEF" stroke-miterlimit="10" stroke-width=".39773" d="M452.56624 87.87898c-46.37889 80.332-198.621 8.84765-214.66006 99.80855"/><path fill="none" stroke="#00ADEF" stroke-linecap="round" stroke-linejoin="round" stroke-miterlimit="10" stroke-width=".39773" d="M240.58203 186.26172c-1.47656.125-2.28516.83594-2.70703 1.6211-.1289-.88282-.64844-1.82813-1.99219-2.44923"/><path fill="none" stroke="#00ADEF" stroke-miterlimit="10" stroke-width=".39773" d="M213.92181 336.05465c-17.21483-29.8203.04688-53.86325.04688-87.8984"/><path fill="none" stroke="#00ADEF" stroke-linecap="round" stroke-linejoin="round" stroke-miterlimit="10" stroke-width=".39773" d="M211.58203 250.02734c1.42969-.3789 2.10547-1.21875 2.38672-2.0703.27734.85155.95312 1.6914 2.38672 2.0703"/><use xlink:href="#u" x="160.13988" y="264.71894"/><use xlink:href="#v" x="159.25658" y="283.19448"/><use xlink:href="#u" x="255.59668" y="264.71894"/><use xlink:href="#v" x="238.3388" y="283.19448"/><use xlink:href="#w" x="255.56601" y="283.19448"/><use xlink:href="#x" x="273.80001" y="283.19448"/><use xlink:href="#u" x="160.13988" y="169.26314"/><use xlink:href="#u" x="255.59668" y="240.85474"/><use xlink:href="#u" x="64.68409" y="169.26314"/><use xlink:href="#o" x="46.43087" y="160.72328"/><path fill="none" stroke="#000" stroke-miterlimit="10" stroke-width="1.23064" d="M40.65625 163.78906h19.48828"/><use xlink:href="#p" x="40.65495" y="177.59066"/><use xlink:href="#q" x="50.74035" y="172.97128"/><use xlink:href="#u" x="64.68409" y="240.85474"/><use xlink:href="#o" x="31.23329" y="230.92854"/><path fill="none" stroke="#000" stroke-miterlimit="10" stroke-width="1.23064" d="M10.25781 233.99219h49.89063"/><use xlink:href="#r" x="10.25854" y="247.79817"/><use xlink:href="#p" x="16.1941" y="247.79817"/><use xlink:href="#s" x="26.27985" y="247.79817"/><use xlink:href="#o" x="36.86676" y="247.79817"/><use xlink:href="#t" x="44.80694" y="247.79817"/><use xlink:href="#q" x="50.74159" y="243.17878"/><use xlink:href="#y" x="145.48002" y="26.45822" fill="#00ADEF"/><use xlink:href="#z" x="162.59536" y="26.45822" fill="#00ADEF"/><use xlink:href="#o" x="190.26581" y="17.46423" fill="#00ADEF"/><path fill="none" stroke="#00ADEF" stroke-miterlimit="10" stroke-width="1.23064" d="M184.78906 20.53125h18.89453"/><use xlink:href="#A" x="184.78858" y="34.33385" fill="#00ADEF"/><use xlink:href="#q" x="194.27886" y="29.71223" fill="#00ADEF"/><path fill="none" stroke="#000" stroke-dasharray="2.9830914464 2.9830914464" stroke-miterlimit="10" stroke-width=".39773" d="M261.65226 259.69531v-23.86327H70.73828"/><path fill="none" stroke="#000" stroke-dasharray="2.9830914464 2.9830914464" stroke-miterlimit="10" stroke-width=".39773" d="M166.19527 259.69531v-95.45699H70.73828"/><path fill="none" stroke="#000" stroke-miterlimit="10" stroke-width=".39773" d="M22.9922 259.69531h286.0663"/><path fill="none" stroke="#000" stroke-linecap="round" stroke-linejoin="round" stroke-miterlimit="10" stroke-width=".39773" d="M307.1875 257.3086c.3789 1.43359 1.21875 2.10937 2.0664 2.38671-.84765.27735-1.6875.95313-2.0664 2.38672"/><path fill="none" stroke="#000" stroke-miterlimit="10" stroke-width=".39773" d="M70.73828 307.43748V21.3751"/><path fill="none" stroke="#000" stroke-linecap="round" stroke-linejoin="round" stroke-miterlimit="10" stroke-width=".39773" d="M68.35156 23.2461c1.4297-.37891 2.10547-1.22266 2.38672-2.07032.27735.84766.95313 1.6914 2.38281 2.07031"/></svg>