<svg xmlns="http://www.w3.org/2000/svg" xmlns:xlink="http://www.w3.org/1999/xlink" width="275.621" height="227.804" viewBox="0 0 275.621 227.804"><defs><path id="a" d="M1.90625-5.9375c0 2.42188 1.76563 4.1875 4.20313 4.1875 2.35937 0 4.125-1.76562 4.125-4.1875 0-2.34375-1.76563-4.10937-4.125-4.10937-2.4375 0-4.20313 1.76562-4.20313 4.10937m0 0"/><path id="b" d="M.90625-2.96875c0 2.1875.60938 5 2.65625 5.07813v-.39063c-.70312-.14062-1.65625-1.3125-1.65625-4.6875S2.84375-7.5 3.5625-7.65625v-.39062C1.51563-7.95312.90625-5.14062.90625-2.96875m0 0"/><path id="c" d="M.40625-3.51562C.40625-1.48437 1.04688.125 2.89063.125c1.82812 0 2.46875-1.60937 2.46875-3.64062 0-2.01563-.64063-3.64063-2.46875-3.64063-1.84375 0-2.48438 1.625-2.48438 3.64063m1.34375 0c0-1.46875.20313-3.21875 1.14063-3.21875s1.14062 1.75 1.14062 3.21875c0 1.48437-.20312 3.21875-1.14062 3.21875S1.75-2.03125 1.75-3.51562m0 0"/><path id="d" d="m.53125 1.3125.28125.23438c.51563-.5 1.40625-1.25 1.40625-2.07813 0-.5625-.29687-1.01562-.79687-1.01562-.42188 0-.625.3125-.625.57812 0 .39063.29687.59375.29687 1.03125S.875.95313.53125 1.3125m0 0"/><path id="e" d="M.65625 1.71875v.39063c2.04688-.07813 2.64063-2.89063 2.64063-5.07813 0-2.17187-.59375-4.98437-2.64063-5.07812v.39062c.73438.15625 1.64063 1.32813 1.64063 4.6875 0 3.39063-.95313 4.5625-1.64063 4.6875m0 0"/><path id="f" d="M1.14063 0h3.57812v-.34375l-.79687-.0625C3.6875-.4375 3.5625-.51562 3.5625-.89062v-6.1875l-.07812-.07813-2.32813.39063v.29687L2-6.34375c.21875.03125.29688.125.29688.45313v5c0 .375-.10938.45312-.34375.48437l-.8125.0625Zm0 0"/></defs><path fill="none" stroke="#000" stroke-miterlimit="10" stroke-width=".39795" d="M176.793 202.01562H49.40624V74.6328h127.38674m.00002 127.38282 49.04297-49.04297V25.5898l-49.04298 49.04298ZM49.40625 74.63279 98.44923 25.5898h127.38674"/><path fill="none" stroke="#000" stroke-dasharray="2.9847353029000003 2.9847353029000003" stroke-miterlimit="10" stroke-width=".39795" d="M225.83597 152.97265H98.44923V25.5898M49.40625 202.01562l49.04298-49.04297"/><use xlink:href="#a" x="43.35339" y="207.04292" fill="#007F7F"/><g fill="#007F7F"><use xlink:href="#b" x="32.38946" y="217.97289"/><use xlink:href="#c" x="36.58668" y="217.97289"/><use xlink:href="#d" x="42.35086" y="217.97289"/></g><g fill="#007F7F"><use xlink:href="#c" x="46.52569" y="217.97289"/><use xlink:href="#d" x="52.28987" y="217.97289"/></g><g fill="#007F7F"><use xlink:href="#c" x="56.4647" y="217.97289"/><use xlink:href="#e" x="62.22888" y="217.97289"/></g><use xlink:href="#a" x="92.39495" y="30.61652" fill="#007F7F"/><g fill="#007F7F"><use xlink:href="#b" x="81.43103" y="15.56722"/><use xlink:href="#f" x="85.62824" y="15.56722"/><use xlink:href="#d" x="91.39242" y="15.56722"/></g><g fill="#007F7F"><use xlink:href="#f" x="95.56725" y="15.56722"/><use xlink:href="#d" x="101.33143" y="15.56722"/></g><g fill="#007F7F"><use xlink:href="#c" x="105.50626" y="15.56722"/><use xlink:href="#e" x="111.27044" y="15.56722"/></g><use xlink:href="#a" x="170.73722" y="79.65909" fill="#007F7F"/><g fill="#007F7F"><use xlink:href="#b" x="159.7733" y="64.60978"/><use xlink:href="#c" x="163.97052" y="64.60978"/><use xlink:href="#d" x="169.73469" y="64.60978"/></g><g fill="#007F7F"><use xlink:href="#f" x="173.90953" y="64.60978"/><use xlink:href="#d" x="179.67371" y="64.60978"/></g><g fill="#007F7F"><use xlink:href="#f" x="183.84854" y="64.60978"/><use xlink:href="#e" x="189.61272" y="64.60978"/></g><use xlink:href="#a" x="219.77879" y="158.00036" fill="#007F7F"/><g fill="#007F7F"><use xlink:href="#b" x="233.74259" y="155.94119"/><use xlink:href="#f" x="237.9398" y="155.94119"/><use xlink:href="#d" x="243.70398" y="155.94119"/></g><g fill="#007F7F"><use xlink:href="#c" x="247.87881" y="155.94119"/><use xlink:href="#d" x="253.64299" y="155.94119"/></g><g fill="#007F7F"><use xlink:href="#f" x="257.81782" y="155.94119"/><use xlink:href="#e" x="263.582" y="155.94119"/></g><use xlink:href="#a" x="170.73722" y="207.04292"/><use xlink:href="#b" x="159.7733" y="217.97289"/><use xlink:href="#c" x="163.97052" y="217.97289"/><use xlink:href="#d" x="169.73469" y="217.97289"/><use xlink:href="#c" x="173.90953" y="217.97289"/><use xlink:href="#d" x="179.67371" y="217.97289"/><use xlink:href="#f" x="183.84854" y="217.97289"/><use xlink:href="#e" x="189.61272" y="217.97289"/><use xlink:href="#a" x="92.39495" y="158.00036"/><use xlink:href="#b" x="56.5033" y="155.94119"/><use xlink:href="#f" x="60.70052" y="155.94119"/><use xlink:href="#d" x="66.4647" y="155.94119"/><use xlink:href="#c" x="70.63953" y="155.94119"/><use xlink:href="#d" x="76.40371" y="155.94119"/><use xlink:href="#c" x="80.57854" y="155.94119"/><use xlink:href="#e" x="86.34272" y="155.94119"/><use xlink:href="#a" x="43.35339" y="79.65909"/><use xlink:href="#b" x="7.46074" y="77.59992"/><use xlink:href="#c" x="11.65796" y="77.59992"/><use xlink:href="#d" x="17.42214" y="77.59992"/><use xlink:href="#f" x="21.59697" y="77.59992"/><use xlink:href="#d" x="27.36115" y="77.59992"/><use xlink:href="#c" x="31.53598" y="77.59992"/><use xlink:href="#e" x="37.30016" y="77.59992"/><use xlink:href="#a" x="219.77879" y="30.61652"/><use xlink:href="#b" x="208.81486" y="15.56722"/><use xlink:href="#f" x="213.01208" y="15.56722"/><use xlink:href="#d" x="218.77626" y="15.56722"/><use xlink:href="#f" x="222.95109" y="15.56722"/><use xlink:href="#d" x="228.71527" y="15.56722"/><use xlink:href="#f" x="232.8901" y="15.56722"/><use xlink:href="#e" x="238.65428" y="15.56722"/></svg>