<svg xmlns="http://www.w3.org/2000/svg" xmlns:xlink="http://www.w3.org/1999/xlink" width="183.748pt" height="151.869pt" viewBox="0 0 183.748 151.869"><defs><path id="a" d="M1.26563-3.95312c0 1.60937 1.1875 2.79687 2.8125 2.79687 1.5625 0 2.73437-1.1875 2.73437-2.79687 0-1.5625-1.17187-2.75-2.73437-2.75-1.625 0-2.8125 1.1875-2.8125 2.75m0 0"/><path id="b" d="M.60938-1.98437c0 1.46875.40625 3.34375 1.76562 3.39062v-.25c-.46875-.10937-1.10937-.875-1.10937-3.14062 0-2.25.625-3.03125 1.10937-3.125V-5.375C1.01563-5.3125.60938-3.4375.60938-1.98437m0 0"/><path id="c" d="M.28125-2.34375C.28125-1 .70313.07813 1.92188.07813 3.15625.07813 3.57813-1 3.57813-2.34375c0-1.35937-.42188-2.42187-1.65625-2.42187-1.21875 0-1.64063 1.0625-1.64063 2.42187m.89063 0c0-.98437.125-2.15625.75-2.15625s.76562 1.17188.76562 2.15625c0 .98438-.14062 2.15625-.76562 2.15625s-.75-1.17187-.75-2.15625m0 0"/><path id="d" d="m.35938.875.17187.15625c.35938-.32812.95313-.84375.95313-1.39062 0-.375-.20313-.67188-.53125-.67188-.28126 0-.42188.20313-.42188.39063 0 .25.20313.39062.20313.6875S.57811.64063.35938.875m0 0"/><path id="e" d="M.4375 1.15625v.25c1.35938-.04687 1.76563-1.92187 1.76563-3.39062 0-1.45313-.40625-3.32813-1.76563-3.39063v.26563c.48438.10937 1.09375.875 1.09375 3.125C1.53125.28125.89063 1.0625.4375 1.15625m0 0"/><path id="f" d="M.76563 0h2.39062v-.23437l-.54687-.04688c-.15625-.01562-.23438-.0625-.23438-.3125v-4.14062l-.04687-.03125-1.54688.25v.20312l.5625.07813c.14063.01562.1875.07812.1875.3125v3.32812c0 .25-.0625.29688-.23437.3125l-.53125.04688Zm0 0"/></defs><path fill="none" stroke="#000" stroke-miterlimit="10" stroke-width=".39795" d="M117.86324 134.67969H32.9375V49.75394h84.92574"/><path fill="none" stroke="#000" stroke-miterlimit="10" stroke-width=".39795" d="m117.86324 134.67969 32.6953-32.6953V17.05865l-32.6953 32.6953ZM32.9375 49.75394l32.6953-32.6953h84.92574"/><path fill="none" stroke="#000" stroke-dasharray="2.9847353029000003 2.9847353029000003" stroke-miterlimit="10" stroke-width=".39795" d="M150.55854 101.98439H65.6328V17.05865M32.9375 134.67969l32.6953-32.6953"/><use xlink:href="#a" x="28.90236" y="138.02834" fill="#007f7f"/><g fill="#007f7f"><use xlink:href="#b" x="21.59239" y="145.31535"/><use xlink:href="#c" x="24.39054" y="145.31535"/><use xlink:href="#d" x="28.23334" y="145.31535"/></g><g fill="#007f7f"><use xlink:href="#c" x="31.01657" y="145.31535"/><use xlink:href="#d" x="34.85937" y="145.31535"/></g><g fill="#007f7f"><use xlink:href="#c" x="37.6426" y="145.31535"/><use xlink:href="#e" x="41.4854" y="145.31535"/></g><use xlink:href="#a" x="61.59752" y="20.41065" fill="#007f7f"/><g fill="#007f7f"><use xlink:href="#b" x="54.28755" y="10.37741"/><use xlink:href="#f" x="57.0857" y="10.37741"/><use xlink:href="#d" x="60.9285" y="10.37741"/></g><g fill="#007f7f"><use xlink:href="#f" x="63.71173" y="10.37741"/><use xlink:href="#d" x="67.55453" y="10.37741"/></g><g fill="#007f7f"><use xlink:href="#c" x="70.33777" y="10.37741"/><use xlink:href="#e" x="74.18056" y="10.37741"/></g><use xlink:href="#a" x="113.8249" y="53.10581" fill="#007f7f"/><g fill="#007f7f"><use xlink:href="#b" x="106.51592" y="43.07257"/><use xlink:href="#c" x="109.31407" y="43.07257"/><use xlink:href="#d" x="113.15687" y="43.07257"/></g><g fill="#007f7f"><use xlink:href="#f" x="115.94011" y="43.07257"/><use xlink:href="#d" x="119.7829" y="43.07257"/></g><g fill="#007f7f"><use xlink:href="#f" x="122.56614" y="43.07257"/><use xlink:href="#e" x="126.40894" y="43.07257"/></g><use xlink:href="#a" x="146.52006" y="105.33318" fill="#007f7f"/><g fill="#007f7f"><use xlink:href="#b" x="155.82929" y="103.96007"/><use xlink:href="#f" x="158.62744" y="103.96007"/><use xlink:href="#d" x="162.47024" y="103.96007"/></g><g fill="#007f7f"><use xlink:href="#c" x="165.25348" y="103.96007"/><use xlink:href="#d" x="169.09627" y="103.96007"/></g><g fill="#007f7f"><use xlink:href="#f" x="171.87951" y="103.96007"/><use xlink:href="#e" x="175.72231" y="103.96007"/></g><use xlink:href="#a" x="113.8249" y="138.02834"/><use xlink:href="#b" x="106.51592" y="145.31535"/><use xlink:href="#c" x="109.31407" y="145.31535"/><use xlink:href="#d" x="113.15687" y="145.31535"/><use xlink:href="#c" x="115.94011" y="145.31535"/><use xlink:href="#d" x="119.7829" y="145.31535"/><use xlink:href="#f" x="122.56614" y="145.31535"/><use xlink:href="#e" x="126.40894" y="145.31535"/><use xlink:href="#a" x="61.59752" y="105.33318"/><use xlink:href="#b" x="37.66834" y="103.96007"/><use xlink:href="#f" x="40.4665" y="103.96007"/><use xlink:href="#d" x="44.30929" y="103.96007"/><use xlink:href="#c" x="47.09253" y="103.96007"/><use xlink:href="#d" x="50.93533" y="103.96007"/><use xlink:href="#c" x="53.71856" y="103.96007"/><use xlink:href="#e" x="57.56136" y="103.96007"/><use xlink:href="#a" x="28.90236" y="53.10581"/><use xlink:href="#b" x="4.97418" y="51.73269"/><use xlink:href="#c" x="7.77233" y="51.73269"/><use xlink:href="#d" x="11.61513" y="51.73269"/><use xlink:href="#f" x="14.39836" y="51.73269"/><use xlink:href="#d" x="18.24116" y="51.73269"/><use xlink:href="#c" x="21.02439" y="51.73269"/><use xlink:href="#e" x="24.86719" y="51.73269"/><use xlink:href="#a" x="146.52006" y="20.41065"/><use xlink:href="#b" x="139.21008" y="10.37741"/><use xlink:href="#f" x="142.00824" y="10.37741"/><use xlink:href="#d" x="145.85104" y="10.37741"/><use xlink:href="#f" x="148.63427" y="10.37741"/><use xlink:href="#d" x="152.47707" y="10.37741"/><use xlink:href="#f" x="155.2603" y="10.37741"/><use xlink:href="#e" x="159.1031" y="10.37741"/></svg>