<svg xmlns="http://www.w3.org/2000/svg" xmlns:xlink="http://www.w3.org/1999/xlink" width="822.718" height="57.057" viewBox="0 0 822.718 57.057"><defs><path id="a" d="M-.59375 0h4.5625v-.59375L2.89063-.70312c-.625-.0625-.70313-.28126-.53125-.84375.35937-1.23438.76562-2.51563 1.25-3.98438h4.65625L9.65625-1.5625c.20313.59375.10938.8125-.54687.875l-.95313.09375V0h5.3125v-.59375c-1.20312-.10937-1.4375-.17187-1.8125-1.26562l-4.375-12.46875H5.73438l-2.15625 6.125c-.64063 1.8125-1.53125 4.28125-2.25 6.17187-.45313 1.125-.625 1.375-1.92188 1.4375Zm4.5-6.32812c.65625-2.07813 1.39063-4.09375 2-5.9375h.0625l2.0625 5.9375Zm0 0"/><path id="b" d="M.42188 0h5.04687v-.59375C3.98438-.70312 3.92188-.75 3.92188-1.8125V-15.25l-.15625-.10937-3.23438.5v.53125l.76563.0625c.53125.0625.67187.17187.67187.96875V-1.8125c0 1.0625-.04687 1.10938-1.54687 1.21875Zm0 0"/><path id="c" d="M1.89063-13.5625c0 .75.53125 1.28125 1.28125 1.28125S4.4375-12.8125 4.4375-13.5625s-.51562-1.25-1.26562-1.25-1.28125.5-1.28125 1.25M.65625 0h5.04688v-.59375C4.23438-.70312 4.17188-.75 4.17188-1.8125v-8.46875l-.15625-.125-3.25.53125v.5l.78125.10938c.53125.09375.6875.1875.6875.9375v6.51562c0 1.0625-.07813 1.10938-1.57813 1.21875Zm0 0"/><path id="d" d="M1.01563-4.98437C1.01563-1.51562 2.71875.25 5.82813.25 7.28125.25 9.23438-.5 9.8125-2.73437l-.625-.28125C8.54688-1.5625 7.73438-.84375 6.21875-.84375c-2.46875 0-3.04687-2.57812-3.04687-4.51562 0-3.07813 1.21875-4.3125 2.65625-4.3125.9375 0 1.53125.67187 1.95312 1.79687.14063.32813.26563.53125.65625.53125.42188 0 1.21875-.26562 1.21875-1.0625 0-.9375-1.35937-2-3.60937-2-3.78125 0-5.03125 2.67188-5.03125 5.42188m0 0"/><path id="e" d="M1.01563-5c0 3.28125 1.40625 5.25 4.78125 5.25 2.29687 0 3.48437-1.28125 4.03125-2.92187L9.21875-3c-.57812 1.21875-1.375 2.1875-3 2.1875-2.57812 0-3.09375-2.46875-3.04687-4.64062h5.98437c.4375 0 .8125-.10938.8125-.78125 0-1.21875-.40625-4.17188-4.1875-4.17188-3.25 0-4.76562 2.29688-4.76562 5.40625m2.1875-1.23437c0-.85938.29687-3.4375 2.46875-3.4375 1.90625 0 2.125 1.95312 2.125 2.76562 0 .40625-.125.67188-.70313.67188Zm0 0"/><path id="g" d="M.46875-10.89062h.60938c.25-2.25.6875-2.73438 3.10937-2.73438h1.21875v11.70313c0 1.17187-.04687 1.1875-2.28125 1.32812V0H9.75v-.59375C7.51563-.73437 7.45313-.75 7.45313-1.92187V-13.625H8.6875c2.42188 0 2.85938.48438 3.10938 2.73438h.60937v-3.4375H.46875Zm0 0"/><path id="h" d="M.01563 0h3.96875v-.59375L3.125-.70312c-.28125-.04688-.28125-.28126-.15625-.51563.46875-.875 1.125-1.875 1.84375-2.95312h.03125l1.85938 2.89062c.21875.35938.15625.53125-.15625.57813l-.85938.10937V0h4.84375v-.59375c-.92187-.04687-1.25-.10937-1.78125-.85937-.95312-1.375-1.9375-2.79688-2.84375-4.25.6875-1.04688 1.48438-2.09375 2.29688-3.07813.53125-.65625.8125-.71875 1.8125-.76562v-.60938H6.15625v.60938l.8125.0625c.32813.04687.28125.26562.125.48437-.48437.79688-1.03125 1.65625-1.64062 2.60938h-.03125L3.6875-8.96875c-.1875-.25-.10937-.48437.1875-.53125l.625-.04687v-.60938H.17188v.60938c.84375.04687 1.01562.0625 1.53125.75.85937 1.21875 1.76562 2.5625 2.64062 3.875C3.57813-3.79687 2.78125-2.625 1.92188-1.5c-.53125.73438-1 .84375-1.90625.90625Zm0 0"/><path id="i" d="M.64063-9.32812h1.5v7.21875C2.14063 0 3.70313.25 4.4375.25c1.04688 0 2.04688-.53125 2.64063-.90625l-.15625-.45312c-.5.20312-.95313.26562-1.46875.26562-.71875 0-1.375-.5-1.375-2.0625v-6.42187H6.75v-.82813H4.07813v-2.60937h-.59375l-1.25 2.60937H.64063Zm0 0"/><path id="j" d="M.65625 0h5.04688v-.59375C4.23438-.70312 4.17188-.75 4.17188-1.8125v-4.84375c0-.53125.01562-.79687.1875-1.125.45312-.8125 1.375-1.5 2.46875-1.5 1.42187 0 2.1875.76563 2.1875 2.57813v4.89062c0 1.0625-.0625 1.10938-1.5625 1.21875V0h5.0625v-.59375c-1.46875-.10937-1.5625-.15625-1.5625-1.21875v-5.28125c0-2.09375-1.14063-3.3125-3.03125-3.3125-1.54688 0-2.5.75-3.78125 1.59375l-.28125-1.59375L.76563-9.875v.5l.78125.10938c.53125.09375.6875.1875.6875.9375v6.51562c0 1.0625-.07813 1.10938-1.57813 1.21875Zm0 0"/><path id="k" d="M1.01563-2.6875C1.01563-1.14062 2.04688.25 3.98438.25c1.21875 0 2.4375-.79687 3.09375-1.23437C7.35938-.21876 7.71875.25 8.4375.25c.78125 0 1.65625-.23437 2.45313-.625l-.125-.48437c-.29688.0625-.75.09374-1.0625 0-.375-.09376-.73438-.46875-.73438-1.76563v-5.03125c0-1.20312-.26562-2.75-3.39062-2.75-2.34375 0-4.1875 1.21875-4.1875 2.35938 0 .65625.76562.96875 1.17187.96875.4375 0 .54688-.21875.65625-.57813.46875-1.53125 1.29688-2.01562 2.14063-2.01562.8125 0 1.73437.40625 1.73437 2.0625V-6.75C6.5625-6.21875 4.5625-5.6875 2.9375-5.15625c-1.5.45313-1.92187 1.5-1.92187 2.46875m2.09375-.28125c0-.98437.4375-1.48437 1.60937-1.92187.84375-.3125 1.92188-.70313 2.375-1v2.9375C7.09375-1.28125 5.82813-.85937 5-.85937c-1.28125 0-1.89062-.90625-1.89062-2.10938m0 0"/><path id="l" d="M.65625 0H6.125v-.59375C4.28125-.70312 4.17188-.75 4.17188-1.8125v-4.84375c0-1.59375.70312-2.14062 1.1875-2.14062.32812 0 .6875.125 1.28125.46875.15625.07812.29687.10937.42187.10937.5 0 .9375-.53125.9375-1.17187 0-.46875-.28125-1.01563-1.09375-1.01563-.75 0-1.375.4375-2.73437 1.65625l-.25-1.65625L.76563-9.875v.5l.78125.10938c.53125.09375.6875.1875.6875.9375v6.51562c0 1.0625-.125 1.10938-1.57813 1.21875Zm0 0"/><path id="n" d="M.4375 0h5.03125v-.59375C4.03125-.70312 3.92188-.79687 3.92188-1.8125v-4.84375c0-.53125 0-.79687.17187-1.10937.45313-.82813 1.39063-1.51563 2.5-1.51563 1.40625 0 2.1875.76563 2.1875 2.57813v4.89062c0 1.01563-.10937 1.10938-1.57812 1.21875V0h5.0625v-.59375c-1.4375-.10937-1.54688-.20312-1.54688-1.21875v-5.28125c0-2.09375-1.15625-3.3125-3.0625-3.3125-1.53125 0-2.45312.73438-3.75 1.59375V-15.25L3.75-15.35937l-3.21875.5v.53125l.76563.07812c.53125.09375.67187.20313.67187.95313V-1.8125c0 1.01563-.07812 1.10938-1.53125 1.21875Zm0 0"/><path id="o" d="M.625-9.32812h1.60938v7.51562c0 1.0625-.07813 1.10938-1.57813 1.21875V0H5.9375v-.59375C4.25-.6875 4.17188-.73437 4.17188-1.78125v-7.54687H8.8125v7.51562c0 1.0625-.03125 1.10938-1.53125 1.21875V0H12.75v-.59375c-1.90625-.09375-1.96875-.14062-1.96875-1.1875v-7.54687h2.51563v-.82813h-2.51563l-.09375-2.32812c-.0625-1.95313.67188-2.17188 1-2.17188.4375 0 .875.1875 1.40625 1.40625.10938.20313.25.35938.54688.35938.42187 0 1.04687-.35938 1.04687-.98438 0-.67187-.89062-1.48437-2.54687-1.48437-1.04688 0-2 .4375-2.53125 1.14062-.70313-.46875-1.9375-.84375-3.01563-.84375-1.125 0-2.67187.51563-3.20312 1.3125-.48438.71875-1.15625 1.67188-1.15625 3.03125v.5625H.625Zm8.5-3.3125c-.10937.51562-.15625 1.09375-.15625 1.75v.73437H4.32813v-1.01562c0-2.34375 1.04687-3.14063 2-3.14063 1.0625 0 1.65625.375 2.42187 1.375.10938.125.20313.26563.375.29688m0 0"/><path id="p" d="m4.17188-11.64062.29687.42187 3.14063-1.75c.60937-.32812 1.17187-.67187 1.17187-1.125 0-.40625-.51562-.89062-.82812-.89062-.34375 0-.70313.21875-1.3125.85937ZM1.01563-5c0 3.28125 1.40625 5.25 4.78125 5.25 2.29687 0 3.48437-1.28125 4.03125-2.92187L9.21875-3c-.57812 1.21875-1.375 2.1875-3 2.1875-2.57812 0-3.09375-2.46875-3.04687-4.64062h5.98437c.4375 0 .8125-.10938.8125-.78125 0-1.21875-.40625-4.17188-4.1875-4.17188-3.25 0-4.76562 2.29688-4.76562 5.40625m2.1875-1.23437c0-.85938.29687-3.4375 2.46875-3.4375 1.90625 0 2.125 1.95312 2.125 2.76562 0 .40625-.125.67188-.70313.67188Zm0 0"/><path id="r" d="M.73438 0h6.40625c3.15625 0 5.1875-1.125 5.1875-4.01562 0-2.4375-1.75-3.53125-3.75-3.78125v-.04688c1.9375-.40625 3.07812-1.60937 3.07812-3.20312 0-1.14063-.4375-2-1.26562-2.5625-.82813-.51563-2.01563-.71875-3.67188-.71875H.73438v.59375c1.82812.125 1.85937.15625 1.85937 1.32812v10.48438C2.59375-.75 2.5625-.73437.73438-.59375Zm3.92187-2.3125v-5.04687H6.125c2.57813 0 4 1.28125 4 3.48437 0 2.48438-1.70312 3.14063-3.48437 3.14063-1.65625 0-1.98438-.29688-1.98438-1.57813m0-5.78125v-4.5c0-.875.0625-1.03125 1.67188-1.03125 1.51562 0 3.17187.57813 3.17187 2.71875 0 2.01563-1.29687 2.8125-3.45312 2.8125Zm0 0"/><path id="s" d="M1.01563-5.07812C1.01563-1.71875 2.67188.25 6 .25s4.95313-1.96875 4.95313-5.32812c0-3.34375-1.625-5.32813-4.95313-5.32813S1.01563-8.42187 1.01563-5.07812m2.15625 0c0-2.85938.92187-4.59375 2.82812-4.59375 1.89063 0 2.8125 1.73437 2.8125 4.59375 0 2.875-.92187 4.59375-2.8125 4.59375-1.90625 0-2.82812-1.71875-2.82812-4.59375m0 0"/><path id="t" d="m.42188-14.32812.79687.0625c.51563.0625.65625.17187.65625.96875V.09375L2.25.25l.8125-.79687C3.79688-.125 4.67188.25 6.21875.25c2.75 0 5.15625-1.32812 5.15625-5.5625 0-1.28125-.26562-5.09375-3.98437-5.09375-1.5625 0-2.8125 1.01563-3.57813 1.48438V-15.25l-.15625-.10937-3.23437.5ZM3.8125-3.375v-3.28125c0-.53125.03125-.84375.20313-1.17187.5-.98438 1.35937-1.45313 2.53125-1.45313.85937 0 2.67187.48438 2.67187 4.09375 0 3.04688-.92187 4.70313-2.98437 4.70313-1.09375 0-1.89063-.54688-2.26563-1.59375-.125-.375-.15625-.78125-.15625-1.29688m0 0"/><path id="u" d="M.35938 0h2.73437v-.29687c-.42187-.04688-.67187-.04688-.75-.17188C2.3125-.5 2.32813-.51562 2.32813-.95312V-3.375h.70312c.625 0 1.10938.1875 1.28125.89063.07813.29687.1875 1.10937.29688 1.59375C4.76563-.23437 5.17188 0 5.78125 0H6.625v-.29687c-.8125-.09375-.98437-.65625-1.07812-1.375-.125-.92188-.3125-1.60938-1.40625-1.875v-.03125c.96875-.1875 1.6875-.84375 1.6875-1.82813 0-.98437-.625-1.76562-2.4375-1.76562H.35938v.29687c.92187.0625.9375.07813.9375.67188v5.25c0 .57812-.01563.59375-.9375.65625Zm1.96875-3.73437v-2.5625c0-.4375.0625-.51563.75-.51563.76562 0 1.64062.28125 1.64062 1.5 0 1.09375-.57812 1.57813-1.57812 1.57813Zm0 0"/><path id="v" d="m2.07813-5.82812.15625.21875 1.57812-.875c.29688-.17188.57813-.34375.57813-.5625S4.14063-7.5 3.98438-7.5c-.17188 0-.35938.10938-.65625.42188ZM.5-2.5C.5-.85937 1.21875.125 2.90625.125c1.14063 0 1.73438-.64062 2.01563-1.45312L4.60938-1.5c-.28125.60938-.6875 1.09375-1.5 1.09375-1.29688 0-1.54688-1.23437-1.51563-2.3125h2.98438c.21875 0 .40625-.0625.40625-.40625 0-.60937-.20313-2.07812-2.09375-2.07812C1.26563-5.20312.5-4.0625.5-2.5m1.09375-.625c0-.42187.15625-1.71875 1.23438-1.71875.96875 0 1.07812.98438 1.07812 1.39063 0 .20312-.0625.32812-.35937.32812Zm0 0"/><path id="w" d="M.5-2.4375C.5-.90625 1.3125.125 2.6875.125c.5625 0 1.03125-.25 1.59375-.70312v.5L4.375 0h1.67188v-.29687c-.73438-.0625-.78125-.07813-.78125-.60938v-6.73437l-.0625-.04688-1.64063.25v.26563l.39063.03125c.26562.03125.34375.09375.34375.48437v1.70313c-.29688-.15625-.67188-.25-1.15625-.25-.84375 0-1.48438.26562-1.92188.71875S.5-3.34375.5-2.4375m1.09375-.125c0-1.34375.48438-2.28125 1.54688-2.28125.48437 0 .875.21875 1.0625.65625.09375.17188.09375.32813.09375.60938v1.8125c0 .23437 0 .40625-.07813.57812-.20312.54688-.65625.75-1.20312.75-.9375 0-1.42188-.9375-1.42188-2.125m0 0"/><path id="x" d="M.5-1.34375C.5-.57812 1.03125.125 2 .125c.60938 0 1.20313-.40625 1.54688-.625.14062.39063.3125.625.67187.625.39063 0 .82813-.10937 1.23438-.3125l-.0625-.25c-.15625.04688-.375.04688-.53125 0-.1875-.03125-.375-.21875-.375-.875v-2.51562c0-.60938-.125-1.375-1.6875-1.375-1.17188 0-2.10938.60937-2.10938 1.17187 0 .32813.39063.48438.59375.48438.21875 0 .28125-.10938.32813-.28125.23437-.76563.65625-1.01563 1.07812-1.01563.40625 0 .85938.20313.85938 1.03125v.4375c-.26563.26563-1.26563.53125-2.07813.79688-.75.23437-.96875.75-.96875 1.23437m1.0625-.14062c0-.48438.21875-.75.79688-.96875.42187-.15625.96875-.34375 1.1875-.5v1.46875C3.54688-.64062 2.90625-.4375 2.5-.4375c-.64062 0-.9375-.4375-.9375-1.04687m0 0"/><path id="y" d="M.5-2.5C.5-.76562 1.35938.125 2.90625.125c.73438 0 1.71875-.375 2-1.5l-.3125-.14062C4.28125-.78125 3.875-.42187 3.10938-.42187c-1.23438 0-1.51563-1.28125-1.51563-2.26563 0-1.53125.59375-2.15625 1.3125-2.15625.48438 0 .78125.34375.98438.90625.0625.17188.14062.26563.32812.26563.21875 0 .60938-.14063.60938-.53125 0-.46875-.6875-1-1.8125-1C1.14063-5.20312.5-3.875.5-2.5m0 0"/><path id="z" d="M.3125-4.67187h.75v3.60937C1.0625 0 1.85938.125 2.21875.125 2.75.125 3.25-.14062 3.54688-.32812l-.07813-.21875c-.26562.09374-.48437.125-.75.125-.34375 0-.67187-.25-.67187-1.03125v-3.21875H3.375v-.40625H2.04688v-1.3125H1.75l-.64062 1.3125H.3125Zm0 0"/><path id="A" d="M.95313-6.78125c0 .375.26562.64063.64062.64063s.625-.26563.625-.64063-.25-.625-.625-.625-.64062.25-.64062.625M.32813 0h2.53125v-.29687C2.125-.35937 2.07813-.375 2.07813-.90625v-4.23437L2-5.20312.39063-4.9375v.25l.375.04688c.26562.04687.34375.09375.34375.46875v3.26562c0 .53125-.03126.54688-.78125.60938Zm0 0"/><path id="B" d="M.5-2.53125C.5-.85937 1.32813.125 3 .125c1.67188 0 2.48438-.98437 2.48438-2.65625 0-1.6875-.8125-2.67187-2.48438-2.67187S.5-4.21875.5-2.53125m1.09375 0c0-1.4375.45313-2.3125 1.40625-2.3125.95313 0 1.40625.875 1.40625 2.3125C4.40625-1.10937 3.95313-.25 3-.25c-.95312 0-1.40625-.85937-1.40625-2.28125m0 0"/><path id="C" d="M.32813 0h2.53125v-.29687C2.125-.35937 2.07813-.375 2.07813-.90625v-2.42187c0-.26563.01562-.40625.10937-.5625.21875-.40625.6875-.75 1.23438-.75.70312 0 1.09375.375 1.09375 1.28125v2.45312c0 .53125-.03125.54688-.78125.60938V0h2.53125v-.29687c-.73438-.0625-.78125-.07813-.78125-.60938v-2.64062c0-1.04688-.57813-1.65625-1.53125-1.65625-.76563 0-1.23438.375-1.875.79687l-.14063-.79687-1.54687.26562v.25l.375.04688c.26562.04687.34375.09375.34375.46875v3.26562c0 .53125-.03126.54688-.78125.60938Zm0 0"/><path id="D" d="M.5-3.54687c0 1.21875.35938 2.20312.98438 2.8125.64062.64062 1.65625.89062 2.8125.89062.82812 0 1.79687-.23437 2.28125-.5l.15625-1.73437h-.3125C6.14063-1 5.59375-.20312 4.23438-.20312c-2.14063 0-2.57813-2.10938-2.57813-3.35938 0-1.70312.67188-3.40625 2.60938-3.40625 1.04687 0 1.79687.4375 1.98437 1.65625h.3125v-1.60937c-.46875-.21875-1.25-.40625-2.1875-.40625-1.28125 0-2.3125.375-2.9375 1.0625C.84375-5.60937.5-4.70312.5-3.54687m0 0"/><path id="E" d="M.21875 0h2.51563v-.29687c-.71875-.0625-.76563-.09375-.76563-.60938v-2.42187c0-.26563 0-.40625.07813-.5625.21875-.40625.70312-.75 1.25-.75.70312 0 1.09375.375 1.09375 1.28125v2.45312c0 .51563-.0625.54688-.78125.60938V0h2.53125v-.29687c-.71875-.0625-.78125-.09375-.78125-.60938v-2.64062c0-1.04688-.57813-1.65625-1.53125-1.65625-.76563 0-1.21875.35937-1.875.79687v-3.23437L1.875-7.6875l-1.60937.25v.26563l.39062.04687c.26563.04688.32813.09375.32813.46875v5.75c0 .51563-.03126.54688-.76563.60938Zm0 0"/><path id="F" d="M.3125-4.67187h.79688v3.76562c0 .53125-.03126.54688-.78125.60938V0h2.64062v-.29687c-.84375-.04688-.89062-.0625-.89062-.59375v-3.78125h2.32812v3.76562c0 .53125-.01562.54688-.76562.60938V0H6.375v-.29687c-.95312-.04688-.98437-.0625-.98437-.59375v-3.78125h1.26562v-.40625H5.39063L5.34375-6.25c-.03125-.96875.34375-1.07812.5-1.07812.21875 0 .4375.09375.70313.70312.0625.09375.125.17188.28125.17188.20312 0 .51562-.17188.51562-.48438 0-.34375-.4375-.75-1.26562-.75-.53125 0-1 .21875-1.26563.57813-.35937-.23438-.96875-.42188-1.51562-.42188-.5625 0-1.32813.25-1.59375.64063-.25.375-.59375.84375-.59375 1.53125v.28125H.3125Zm4.25-1.65625c-.04687.26562-.07812.54687-.07812.875v.375H2.15625v-.51563c0-1.17187.53125-1.5625 1.01563-1.5625.53125 0 .82812.1875 1.20312.6875.0625.0625.10938.125.1875.14063m0 0"/><path id="G" d="M.32813 0H3.0625v-.29687c-.92187-.0625-.98437-.07813-.98437-.60938v-2.42187c0-.79688.35937-1.07813.60937-1.07813.15625 0 .32813.07813.64063.23438.0625.04687.14062.0625.20312.0625.25 0 .46875-.26563.46875-.59375 0-.23438-.14062-.5-.54687-.5-.375 0-.6875.21875-1.375.82812l-.10938-.82812-1.57812.26562v.25l.375.04688c.26562.04687.34375.09375.34375.46875v3.26562c0 .53125-.04688.54688-.78125.60938Zm0 0"/><path id="H" d="M.5-2.5C.5-.85937 1.21875.125 2.90625.125c1.14063 0 1.73438-.64062 2.01563-1.45312L4.60938-1.5c-.28125.60938-.6875 1.09375-1.5 1.09375-1.29688 0-1.54688-1.23437-1.51563-2.3125h2.98438c.21875 0 .40625-.0625.40625-.40625 0-.60937-.20313-2.07812-2.09375-2.07812C1.26563-5.20312.5-4.0625.5-2.5m1.09375-.625c0-.42187.15625-1.71875 1.23438-1.71875.96875 0 1.07812.98438 1.07812 1.39063 0 .20312-.0625.32812-.35937.32812Zm0 0"/><path id="I" d="M.32813 0h2.53125v-.29687C2.125-.35937 2.07813-.375 2.07813-.90625v-2.42187c0-.26563 0-.40625.07812-.5625.20313-.40625.65625-.75 1.23438-.75.89062 0 1 .64062 1 1.28125v2.45312c0 .53125-.03125.54688-.78125.60938V0h2.53125v-.29687c-.75-.0625-.78125-.07813-.78125-.60938v-2.42187c0-.26563.01562-.40625.07812-.5625.15625-.42188.59375-.75 1.1875-.75.64063 0 1.04688.35937 1.04688 1.28125v2.45312c0 .53125-.03125.54688-.78125.60938V0h2.53125v-.29687c-.73438-.0625-.78125-.07813-.78125-.60938v-2.64062c0-1.04688-.5625-1.65625-1.54688-1.65625-.84375 0-1.45312.5625-1.82812.79687-.25-.48437-.64063-.79687-1.375-.79687-.79688 0-1.4375.53125-1.8125.79687l-.09375-.79687-1.59375.26562v.25l.375.04688c.26562.04687.34375.09375.34375.46875v3.26562c0 .53125-.03126.54688-.78125.60938Zm0 0"/><path id="J" d="M.20313 0h2.53125v-.29687C2-.35937 1.96875-.375 1.96875-.90625v-6.73437l-.07812-.04688-1.625.25v.26563l.39062.03125c.26563.03125.32813.09375.32813.48437v5.75c0 .53125-.03126.54688-.78125.60938Zm0 0"/><path id="K" d="M.26563 2.07813V2.375h2.6875v-.29687C2.07813 2.03125 2 2 2 1.48438V-.10937c.23438.125.71875.23437 1.20313.23437 1.39062 0 2.59375-.64062 2.59375-2.78125 0-.73437-.14063-2.54687-2.03125-2.54687-.75 0-1.34375.5-1.76563.76562l-.125-.76562-1.5625.26562v.25l.39063.04688c.26562.04687.32812.09375.32812.46875v5.65625C1.03125 2 1 2.03125.26563 2.07813M2-1.625v-1.70312c0-.26563.0625-.40625.15625-.59375.23438-.46875.67188-.71875 1.21875-.71875.42188 0 1.34375.26562 1.34375 2.04687C4.71875-1.0625 4.23438-.25 3.20313-.25c-.54688 0-.95313-.26562-1.125-.75C2.01563-1.1875 2-1.39062 2-1.625m0 0"/><path id="L" d="m.26563-4.6875.39062.04688C.92188-4.59375 1-4.54687 1-4.17187v2.73437C1-.25 1.70313.125 2.46875.125c.89063 0 1.60938-.59375 1.90625-.75L4.46875 0h1.67188v-.29687c-.71875-.0625-.79688-.07813-.79688-.60938v-4.23437l-.07812-.0625-1.60938.26562v.25l.39063.04688c.26562.04687.32812.09375.32812.46875v2.34375c0 .28124-.03125.51562-.07812.60937-.25.48438-.73438.78125-1.28125.78125-.59375 0-1.04688-.375-1.04688-1.1875v-3.51562l-.07812-.0625-1.625.26562Zm0 0"/><path id="M" d="m.20313-7.17187.40625.03125c.26562.03125.32812.09375.32812.48437V.04688L1.125.125l.40625-.40625c.35938.21875.8125.40625 1.57813.40625 1.375 0 2.57812-.67187 2.57812-2.78125 0-.64062-.125-2.54687-1.98437-2.54687-.79688 0-1.40625.5-1.79688.73437v-3.17187l-.07812-.04688-1.625.25ZM1.90625-1.6875v-1.64062c0-.26563.01563-.42188.09375-.59375.26563-.48438.6875-.71875 1.28125-.71875.42188 0 1.32813.23437 1.32813 2.04687C4.60938-1.0625 4.14063-.25 3.125-.25c-.5625 0-.95312-.26562-1.14062-.78125-.0625-.1875-.07813-.40625-.07813-.65625m0 0"/><path id="N" d="M.5-2.42187C.5-.76562 1.40625.125 2.67188.125 3.25.125 3.75-.15625 4.29688-.54687v2.03125c0 .51562-.0625.54687-.82813.59375V2.375h2.57813v-.29687C5.32813 2.03125 5.26563 2 5.26563 1.48438v-6.6875h-.28125l-.4375.3125c-.40625-.21875-.92188-.3125-1.375-.3125-.82813 0-1.48438.25-1.9375.71875C.78125-4.03125.5-3.35937.5-2.42187m1.09375-.125c0-1.28125.4375-2.29688 1.5-2.29688.53125 0 .92188.1875 1.125.71875.0625.17188.07813.34375.07813.59375v1.75c0 .23438 0 .40625-.07813.57813-.1875.54687-.59375.76562-1.15625.76562-1.03125 0-1.46875-.9375-1.46875-2.10937m0 0"/><path id="O" d="M.35938 0h3.23437c3.1875 0 3.98438-1.85937 3.98438-3.71875 0-1.70312-.75-3.45312-3.76563-3.45312H.35938v.29687c.92187.0625.9375.07813.9375.67188v5.25c0 .57812-.01563.59375-.9375.65625Zm1.96875-1.29687v-4.92188c0-.54687.09375-.59375 1.20312-.59375 2.1875 0 2.89063 1.39063 2.89063 3.14063 0 2.60937-1.28125 3.3125-3.03125 3.3125-.89063 0-1.0625-.125-1.0625-.9375m0 0"/><path id="P" d="M.01563-4.78125C.5-4.73437.59375-4.70312.75-4.3125c.28125.6875.5 1.35938.76563 2.07813L2.32813 0h.73437L4-2.5c.29688-.8125.59375-1.5.75-1.82812.14063-.375.26563-.42188.73438-.45313v-.29687H3.51563v.29687l.51562.04688c.15625.03125.1875.14062.15625.28125-.09375.34375-.28125.9375-.53125 1.60937L2.96875-.9375h-.01562l-.64063-1.75c-.20312-.59375-.42187-1.17187-.60937-1.73437-.07813-.20313-.03126-.28125.15624-.3125l.48438-.04688v-.29687H.01563Zm0 0"/><path id="Q" d="M.35938 0H5.75l.125-1.85937h-.3125c-.21875 1.35937-.78125 1.5-1.85937 1.5-.53125 0-.90625-.01563-1.125-.10938-.21875-.07812-.25-.26562-.25-.78125v-4.95312c0-.59375.03125-.60938 1-.67188v-.29687H.35938v.29687c.92187.0625.9375.07813.9375.67188v5.25c0 .57812-.01563.59375-.9375.65625Zm0 0"/><clipPath id="f"><path d="M182 0h86v56.1289h-86Zm0 0"/></clipPath><clipPath id="m"><path d="M375 0h77v56.1289h-77Zm0 0"/></clipPath><clipPath id="q"><path d="M559 0h85v56.1289h-85Zm0 0"/></clipPath></defs><use xlink:href="#a" x="13.89895" y="35.62816"/><use xlink:href="#b" x="27.04164" y="35.62816"/><use xlink:href="#c" x="32.81913" y="35.62816"/><use xlink:href="#d" x="38.83919" y="35.62816"/><use xlink:href="#e" x="49.11518" y="35.62816"/><g clip-path="url(#f)"><path fill="none" stroke="#000" stroke-miterlimit="10" stroke-width=".39202" d="M266.94522.19532h-83.76559v55.73826h83.7656Zm0 0"/></g><use xlink:href="#g" x="200.42837" y="21.87964"/><use xlink:href="#e" x="211.21155" y="21.87964"/><use xlink:href="#h" x="221.86242" y="21.87964"/><use xlink:href="#i" x="231.91789" y="21.87964"/><use xlink:href="#e" x="239.04053" y="21.87964"/><use xlink:href="#e" x="190.52775" y="48.34105"/><use xlink:href="#j" x="201.17862" y="48.34105"/><use xlink:href="#d" x="218.6434" y="48.34105"/><use xlink:href="#b" x="228.91939" y="48.34105"/><use xlink:href="#k" x="234.69688" y="48.34105"/><use xlink:href="#c" x="245.52416" y="48.34105"/><use xlink:href="#l" x="251.54422" y="48.34105"/><g clip-path="url(#m)"><path fill="none" stroke="#000" stroke-miterlimit="10" stroke-width=".39202" d="M451.01937.19532h-75.4531v55.73826h75.4531Zm0 0"/></g><use xlink:href="#g" x="388.65597" y="21.87964"/><use xlink:href="#e" x="399.43915" y="21.87964"/><use xlink:href="#h" x="410.09002" y="21.87964"/><use xlink:href="#i" x="420.14549" y="21.87964"/><use xlink:href="#e" x="427.26813" y="21.87964"/><use xlink:href="#d" x="382.91215" y="48.34105"/><use xlink:href="#n" x="393.18814" y="48.34105"/><use xlink:href="#c" x="405.75749" y="48.34105"/><use xlink:href="#o" x="411.77755" y="48.34105"/><use xlink:href="#l" x="424.96434" y="48.34105"/><use xlink:href="#p" x="433.01313" y="48.34105"/><g clip-path="url(#q)"><path fill="none" stroke="#000" stroke-miterlimit="10" stroke-width=".39202" d="M643.40602.19532h-83.7656v55.73826h83.7656Zm0 0"/></g><use xlink:href="#g" x="576.88357" y="21.87964"/><use xlink:href="#e" x="587.66675" y="21.87964"/><use xlink:href="#h" x="598.31762" y="21.87964"/><use xlink:href="#i" x="608.3731" y="21.87964"/><use xlink:href="#e" x="615.49572" y="21.87964"/><use xlink:href="#e" x="566.98295" y="48.34105"/><use xlink:href="#j" x="577.63382" y="48.34105"/><use xlink:href="#d" x="595.0986" y="48.34105"/><use xlink:href="#b" x="605.37459" y="48.34105"/><use xlink:href="#k" x="611.15208" y="48.34105"/><use xlink:href="#c" x="621.97936" y="48.34105"/><use xlink:href="#l" x="627.99942" y="48.34105"/><use xlink:href="#r" x="770.94402" y="35.62816"/><use xlink:href="#s" x="784.19696" y="35.62816"/><use xlink:href="#t" x="796.14887" y="35.62816"/><path fill="none" stroke="#000" stroke-miterlimit="10" stroke-width=".39202" d="M80.75389 28.0664h81.17184"/><path fill="none" stroke="#000" stroke-linecap="round" stroke-linejoin="round" stroke-miterlimit="10" stroke-width=".39202" d="M160.08594 25.71485c.3711 1.41015 1.20312 2.07421 2.03906 2.35156-.83594.27343-1.66797.9414-2.03906 2.35156"/><use xlink:href="#u" x="97.68618" y="43.54039"/><use xlink:href="#v" x="104.35675" y="43.54039"/><use xlink:href="#w" x="109.68218" y="43.54039"/><use xlink:href="#x" x="115.87865" y="43.54039"/><use xlink:href="#y" x="121.29229" y="43.54039"/><use xlink:href="#z" x="126.43029" y="43.54039"/><use xlink:href="#A" x="129.9916" y="43.54039"/><use xlink:href="#B" x="133.00163" y="43.54039"/><use xlink:href="#C" x="138.97759" y="43.54039"/><path fill="none" stroke="#000" stroke-miterlimit="10" stroke-width=".39202" d="M287.80459 28.0664h62.35154"/><path fill="none" stroke="#000" stroke-linecap="round" stroke-linejoin="round" stroke-miterlimit="10" stroke-width=".39202" d="M348.3164 25.71485c.3711 1.41015 1.19922 2.07421 2.03907 2.35156-.83985.27343-1.66797.9414-2.03906 2.35156"/><use xlink:href="#D" x="290.69427" y="43.54039"/><use xlink:href="#E" x="297.77279" y="43.54039"/><use xlink:href="#A" x="304.05747" y="43.54039"/><use xlink:href="#F" x="307.0675" y="43.54039"/><use xlink:href="#G" x="313.66089" y="43.54039"/><use xlink:href="#H" x="317.48682" y="43.54039"/><use xlink:href="#I" x="322.81226" y="43.54039"/><use xlink:href="#H" x="332.37158" y="43.54039"/><use xlink:href="#C" x="337.69701" y="43.54039"/><use xlink:href="#z" x="344.10297" y="43.54039"/><use xlink:href="#D" x="289.1734" y="17.89229"/><use xlink:href="#J" x="296.25193" y="17.89229"/><use xlink:href="#v" x="299.14067" y="17.89229"/><use xlink:href="#K" x="306.78152" y="17.89229"/><use xlink:href="#L" x="313.07722" y="17.89229"/><use xlink:href="#M" x="319.35086" y="17.89229"/><use xlink:href="#J" x="325.54733" y="17.89229"/><use xlink:href="#A" x="328.43608" y="17.89229"/><use xlink:href="#N" x="331.4461" y="17.89229"/><use xlink:href="#L" x="337.56539" y="17.89229"/><use xlink:href="#H" x="343.83904" y="17.89229"/><path fill="none" stroke="#000" stroke-miterlimit="10" stroke-width=".39202" d="M476.03499 28.0664h62.35154"/><path fill="none" stroke="#000" stroke-linecap="round" stroke-linejoin="round" stroke-miterlimit="10" stroke-width=".39202" d="M536.54688 25.71485c.37109 1.41015 1.19921 2.07421 2.03515 2.35156-.83594.27343-1.66406.9414-2.03515 2.35156"/><use xlink:href="#O" x="473.19403" y="43.54039"/><use xlink:href="#v" x="481.26488" y="43.54039"/><use xlink:href="#y" x="486.59031" y="43.54039"/><use xlink:href="#E" x="491.72831" y="43.54039"/><use xlink:href="#A" x="498.01298" y="43.54039"/><use xlink:href="#F" x="501.02301" y="43.54039"/><use xlink:href="#G" x="507.6164" y="43.54039"/><use xlink:href="#H" x="511.44234" y="43.54039"/><use xlink:href="#I" x="516.75675" y="43.54039"/><use xlink:href="#H" x="526.31607" y="43.54039"/><use xlink:href="#C" x="531.6415" y="43.54039"/><use xlink:href="#z" x="538.04746" y="43.54039"/><use xlink:href="#D" x="483.95026" y="17.89229"/><use xlink:href="#J" x="491.02879" y="17.89229"/><use xlink:href="#v" x="493.91753" y="17.89229"/><use xlink:href="#K" x="501.55837" y="17.89229"/><use xlink:href="#G" x="507.85407" y="17.89229"/><use xlink:href="#A" x="511.96668" y="17.89229"/><use xlink:href="#P" x="514.9767" y="17.89229"/><use xlink:href="#v" x="520.19188" y="17.89229"/><use xlink:href="#H" x="525.51731" y="17.89229"/><path fill="none" stroke="#000" stroke-miterlimit="10" stroke-width=".39202" d="M664.26538 28.0664h81.17575"/><path fill="none" stroke="#000" stroke-linecap="round" stroke-linejoin="round" stroke-miterlimit="10" stroke-width=".39202" d="M743.59766 25.71485c.375 1.41015 1.20312 2.07421 2.03906 2.35156-.83594.27343-1.66406.9414-2.03906 2.35156"/><use xlink:href="#Q" x="687.38306" y="43.02196"/><use xlink:href="#H" x="693.25978" y="43.02196"/><use xlink:href="#y" x="698.58521" y="43.02196"/><use xlink:href="#z" x="703.72321" y="43.02196"/><use xlink:href="#L" x="707.28453" y="43.02196"/><use xlink:href="#G" x="713.55818" y="43.02196"/><use xlink:href="#H" x="717.37308" y="43.02196"/></svg>