<svg xmlns="http://www.w3.org/2000/svg" xmlns:xlink="http://www.w3.org/1999/xlink" width="548.479pt" height="38.171pt" viewBox="0 0 548.479 38.171"><defs><path id="a" d="M-.39062 0H2.625v-.39062l-.70312-.07813c-.42188-.04687-.46875-.1875-.35938-.5625.23438-.8125.51563-1.65625.84375-2.64062h3.07813l.92187 2.64062c.125.39063.07813.53125-.35937.57813l-.64063.0625V0H8.9375v-.39062c-.8125-.07813-.95312-.125-1.20312-.84375L4.82813-9.5H3.79688L2.375-5.4375c-.4375 1.20313-1.01562 2.82813-1.5 4.09375-.29687.75-.40625.90625-1.26562.95313Zm2.98437-4.20312c.4375-1.375.92188-2.71875 1.32813-3.92188h.04687l1.35938 3.92188Zm0 0"/><path id="b" d="M.28125 0H3.625v-.39062C2.64063-.46875 2.60938-.5 2.60938-1.20312V-10.125L2.5-10.1875l-2.15625.32813V-9.5l.51563.03125c.35937.04688.4375.125.4375.65625v7.60938c0 .70312-.03126.73437-1.01563.8125Zm0 0"/><path id="c" d="M1.25-9c0 .5.35938.85938.85938.85938S2.9375-8.5 2.9375-9c0-.48437-.32812-.82812-.82812-.82812S1.25-9.48437 1.25-9M.4375 0h3.34375v-.39062C2.8125-.46875 2.76563-.5 2.76563-1.20312V-6.8125l-.10938-.09375-2.14062.35938v.32812l.51562.07813c.34375.0625.45313.10937.45313.60937v4.32813c0 .70312-.04688.73437-1.04688.8125Zm0 0"/><path id="d" d="M.67188-3.3125c0 2.29688 1.125 3.46875 3.1875 3.46875.96875 0 2.26562-.5 2.65625-1.96875L6.09375-2C5.67188-1.03125 5.14063-.5625 4.125-.5625c-1.64062 0-2.01562-1.70312-2.01562-2.98437 0-2.04688.79687-2.875 1.75-2.875.625 0 1.03125.45312 1.29687 1.20312.09375.21875.1875.34375.4375.34375.28125 0 .8125-.17187.8125-.70312 0-.625-.90625-1.32813-2.40625-1.32813-2.5 0-3.32812 1.76563-3.32812 3.59375m0 0"/><path id="e" d="M.67188-3.3125c0 2.17188.9375 3.46875 3.17187 3.46875 1.53125 0 2.3125-.84375 2.67188-1.92187l-.40625-.21876c-.375.79688-.90625 1.4375-1.98438 1.4375-1.71875 0-2.04687-1.625-2.01562-3.0625H6.0625c.29688 0 .54688-.07812.54688-.53125 0-.79687-.26563-2.76562-2.78125-2.76562C1.6875-6.90625.67188-5.375.67188-3.3125M2.125-4.14062c0-.5625.20313-2.28125 1.64063-2.28125 1.26562 0 1.40625 1.29687 1.40625 1.84375 0 .26562-.07813.4375-.46875.4375Zm0 0"/><path id="g" d="M.3125-7.21875h.40625c.15625-1.5.45313-1.8125 2.0625-1.8125h.79688v7.76563c0 .76562-.03125.78125-1.5.875V0h4.39062v-.39062C4.98438-.48437 4.9375-.5 4.9375-1.26562v-7.76563h.82813c1.60937 0 1.89062.3125 2.0625 1.8125h.40625V-9.5H.3125Zm0 0"/><path id="h" d="M.01563 0h2.625v-.39062l-.5625-.07813c-.1875-.03125-.1875-.1875-.10938-.32812.3125-.59375.75-1.25 1.21875-1.96875h.03125L4.45313-.84375c.14062.23438.09375.34375-.10938.375l-.57812.07813V0h3.21875v-.39062C6.375-.42187 6.15625-.46875 5.8125-.96875c-.64062-.90625-1.29687-1.85937-1.89062-2.8125.45312-.6875.98437-1.39062 1.51562-2.04687.35938-.4375.54688-.46875 1.20313-.5v-.40625h-2.5625v.40625l.54687.04687c.21875.01563.1875.17188.07813.3125-.3125.53125-.6875 1.09375-1.09375 1.73438h-.01563L2.4375-5.95312c-.10937-.15625-.0625-.32813.14063-.34375l.40625-.03125v-.40625h-2.875v.40625c.5625.03125.6875.04687 1.01562.5.57813.79687 1.17188 1.6875 1.75 2.5625-.5.75-1.03125 1.53125-1.60937 2.26562-.34375.48438-.65625.5625-1.25.60938Zm0 0"/><path id="i" d="M.42188-6.1875h1v4.78125C1.42188 0 2.45313.15625 2.9375.15625c.70313 0 1.35938-.34375 1.75-.59375l-.09375-.29687c-.34375.14062-.625.17187-.98437.17187-.46875 0-.90625-.32812-.90625-1.375v-4.25h1.76562v-.54687H2.70313v-1.73438H2.3125l-.82812 1.73438H.42188Zm0 0"/><path id="j" d="M.4375 0h3.34375v-.39062C2.8125-.46875 2.76563-.5 2.76563-1.20312v-3.21875c0-.34375.01562-.51563.125-.73438.29687-.54687.90625-1 1.64062-1 .9375 0 1.45313.51563 1.45313 1.70313v3.25c0 .70312-.04688.73437-1.04688.8125V0h3.375v-.39062C7.32813-.46875 7.26563-.5 7.26563-1.20312v-3.5c0-1.39063-.75-2.20313-2.01563-2.20313-1.01562 0-1.65625.5-2.5 1.0625l-.1875-1.0625-2.04687.35938v.32812l.51562.07813c.34375.0625.45313.10937.45313.60937v4.32813c0 .70312-.04688.73437-1.04688.8125Zm0 0"/><path id="k" d="M.67188-1.78125c0 1.01563.6875 1.9375 1.96875 1.9375.8125 0 1.60937-.51562 2.04687-.8125.20313.51563.4375.8125.90625.8125.51563 0 1.10938-.14062 1.625-.40625l-.07812-.32812c-.1875.04687-.5.0625-.70313 0-.25-.04688-.48437-.29688-.48437-1.15625v-3.34375c0-.79688-.17188-1.82813-2.25-1.82813-1.54688 0-2.78125.8125-2.78125 1.5625 0 .4375.51562.65625.78125.65625.28124 0 .35937-.15625.4375-.39062C2.4375-6.09375 3-6.42187 3.54688-6.42187c.54687 0 1.15625.28125 1.15625 1.375v.57812c-.34375.34375-1.67188.70313-2.76563 1.04688-.98437.3125-1.26562 1-1.26562 1.64062m1.39062-.1875c0-.65625.29688-.98437 1.0625-1.28125.5625-.20312 1.28125-.46875 1.57813-.65625v1.95313c0 1.10937-.84375 1.375-1.39063 1.375-.84375 0-1.25-.59375-1.25-1.39063m0 0"/><path id="l" d="M.4375 0h3.625v-.39062C2.84375-.46875 2.76563-.5 2.76563-1.20312v-3.21875c0-1.04688.46875-1.40625.78125-1.40625.21875 0 .45312.07812.85937.29687.09375.0625.20313.07813.28125.07813.32813 0 .625-.35938.625-.78125 0-.29688-.1875-.67188-.73437-.67188-.5 0-.90625.29688-1.8125 1.09375l-.15625-1.09375-2.09375.35938v.32812l.51562.07813c.34375.0625.45313.10937.45313.60937v4.32813c0 .70312-.07813.73437-1.04688.8125Zm0 0"/><path id="n" d="M.29688 0H3.625v-.39062c-.95312-.07813-1.01562-.14063-1.01562-.8125v-3.21875c0-.34375 0-.51563.10937-.71875.29688-.5625.92188-1.01563 1.65625-1.01563.9375 0 1.45313.51563 1.45313 1.70313v3.25c0 .67187-.07813.73437-1.04688.8125V0H8.125v-.39062c-.9375-.07813-1.01562-.14063-1.01562-.8125v-3.5c0-1.39063-.76563-2.20313-2.03125-2.20313-1.01563 0-1.625.48438-2.48438 1.0625V-10.125l-.10937-.0625-2.14063.32813V-9.5l.51563.04688c.35937.0625.4375.14062.4375.64062v7.60938c0 .67187-.04688.73437-1 .8125Zm0 0"/><path id="o" d="M.40625-6.1875h1.07813v4.98438c0 .70312-.04688.73437-1.04688.8125V0h3.5v-.39062c-1.10937-.0625-1.17187-.09375-1.17187-.79688v-5h3.07812v4.98438c0 .70312-.01562.73437-1.01562.8125V0h3.625v-.39062c-1.25-.0625-1.29688-.09375-1.29688-.79688v-5H8.8125v-.54687H7.15625l-.0625-1.54688c-.04687-1.29687.4375-1.4375.65625-1.4375.29688 0 .59375.125.9375.92188.07813.14062.15625.23437.35938.23437.28125 0 .6875-.23437.6875-.64062 0-.45313-.57813-.98438-1.67188-.98438-.70312 0-1.32812.28125-1.6875.75-.46875-.29687-1.28125-.54687-2-.54687-.75 0-1.76562.32812-2.125.85937-.3125.48438-.76562 1.10938-.76562 2.01563v.375H.40625ZM6.0625-8.375c-.07812.32813-.10937.71875-.10937 1.15625v.48438H2.85938v-.6875c0-1.54688.70312-2.0625 1.34375-2.0625.70312 0 1.09375.23437 1.60937.90625.0625.07812.125.17187.25.20312m0 0"/><path id="p" d="m2.76563-7.71875.20312.28125 2.07813-1.15625c.40625-.21875.78125-.45312.78125-.75 0-.28125-.34375-.59375-.54688-.59375-.23437 0-.46875.14063-.875.5625ZM.67188-3.3125c0 2.17188.9375 3.46875 3.17187 3.46875 1.53125 0 2.3125-.84375 2.67188-1.92187l-.40625-.21876c-.375.79688-.90625 1.4375-1.98438 1.4375-1.71875 0-2.04687-1.625-2.01562-3.0625H6.0625c.29688 0 .54688-.07812.54688-.53125 0-.79687-.26563-2.76562-2.78125-2.76562C1.6875-6.90625.67188-5.375.67188-3.3125M2.125-4.14062c0-.5625.20313-2.28125 1.64063-2.28125 1.26562 0 1.40625 1.29687 1.40625 1.84375 0 .26562-.07813.4375-.46875.4375Zm0 0"/><path id="r" d="M.48438 0h4.25c2.09375 0 3.4375-.75 3.4375-2.65625 0-1.625-1.15625-2.34375-2.48438-2.51562v-.03125c1.28125-.26563 2.04688-1.07813 2.04688-2.125 0-.76563-.29688-1.32813-.84375-1.70313C6.34375-9.375 5.5625-9.5 4.45313-9.5H.48438v.39063c1.21875.07812 1.23437.09375 1.23437.875v6.96875c0 .76562-.01562.78125-1.23437.875Zm2.59375-1.53125v-3.35937h.98437c1.71875 0 2.65625.85937 2.65625 2.3125 0 1.65625-1.125 2.09375-2.3125 2.09375-1.09375 0-1.32812-.20313-1.32812-1.04688m0-3.84375v-2.96875c0-.59375.04687-.6875 1.125-.6875 1 0 2.09375.375 2.09375 1.79688C6.29688-5.89062 5.4375-5.375 4-5.375Zm0 0"/><path id="s" d="M.67188-3.35937c0 2.21875 1.09375 3.51562 3.3125 3.51562 2.20312 0 3.28125-1.29687 3.28125-3.51562 0-2.23438-1.07813-3.54688-3.28125-3.54688-2.21875 0-3.3125 1.3125-3.3125 3.54688m1.4375 0c0-1.90625.60937-3.0625 1.875-3.0625 1.25 0 1.85937 1.15625 1.85937 3.0625 0 1.89062-.60937 3.03125-1.85937 3.03125-1.26563 0-1.875-1.14063-1.875-3.03125m0 0"/><path id="t" d="m.28125-9.5.51563.03125c.35937.04688.45312.125.45312.65625v8.875l.23438.09375.54687-.51562c.48438.26562 1.0625.51562 2.09375.51562 1.82813 0 3.42188-.875 3.42188-3.6875 0-.84375-.17188-3.375-2.64063-3.375-1.04687 0-1.85937.67188-2.375.98438V-10.125l-.10937-.0625-2.14063.32813Zm2.25 7.26563v-2.1875c0-.34375.01563-.54688.125-.76563.34375-.65625.90625-.96875 1.6875-.96875.5625 0 1.76563.32813 1.76563 2.71875 0 2.01563-.60938 3.10938-1.96875 3.10938C3.40625-.32812 2.875-.6875 2.625-1.375c-.07812-.25-.09375-.53125-.09375-.85937m0 0"/><path id="u" d="M.23438 0H2.0625v-.20312c-.29687-.03126-.45312-.03126-.5-.10938-.03125-.03125-.01562-.03125-.01562-.32812v-1.59375h.46875c.40625 0 .73437.125.84375.59375.04687.1875.125.73437.20312 1.04687.09375.4375.35938.59375.76563.59375h.5625v-.20312c-.53125-.04688-.65625-.4375-.71875-.90625-.07813-.60938-.20313-1.0625-.92188-1.25V-2.375c.64063-.125 1.10938-.5625 1.10938-1.20312C3.85938-4.23437 3.4375-4.75 2.25-4.75H.23438v.1875c.60937.04688.625.0625.625.45313v3.46875c0 .39062-.01563.40625-.625.4375Zm1.3125-2.48437v-1.6875c0-.28125.04687-.34375.5-.34375.5 0 1.07812.1875 1.07812 1 0 .71875-.375 1.03125-1.04687 1.03125Zm0 0"/><path id="v" d="m1.375-3.85937.10938.14062 1.03125-.57812c.21875-.10938.39062-.23438.39062-.375 0-.14063-.15625-.29688-.26562-.29688-.125 0-.23438.0625-.4375.28125ZM.34375-1.65625c0 1.07813.45313 1.73438 1.57813 1.73438.76562 0 1.15625-.42188 1.34375-.96875L3.0625-1c-.20312.40625-.45312.73438-1 .73438-.85937 0-1.03125-.82813-1.01562-1.54688h1.98437c.15625 0 .28125-.03125.28125-.25 0-.40625-.14062-1.39062-1.39062-1.39062-1.07813 0-1.57813.76562-1.57813 1.79687m.71875-.40625c0-.29687.09375-1.14062.8125-1.14062.64063 0 .71875.64062.71875.92187 0 .125-.04687.21875-.23437.21875Zm0 0"/><path id="w" d="M.34375-1.60937c0 1.01562.53125 1.6875 1.4375 1.6875.375 0 .6875-.17188 1.0625-.46875v.34375L2.89063 0H4v-.20312C3.51563-.23438 3.5-.25 3.5-.59375V-5.0625l-.0625-.03125-1.07812.17188V-4.75l.26562.01563c.17188.03125.21875.0625.21875.32812v1.125c-.1875-.10937-.4375-.17187-.76562-.17187-.5625 0-.98438.1875-1.26563.48437-.29687.29688-.46875.75-.46875 1.35938m.70313-.09376c0-.89062.32812-1.5 1.03125-1.5.32812 0 .57812.14063.70312.42188.0625.125.0625.21875.0625.40625v1.20313c0 .15624 0 .26562-.04687.39062-.14063.35938-.4375.5-.79688.5-.625 0-.95312-.625-.95312-1.42187m0 0"/><path id="x" d="M.34375-.89062c0 .51562.34375.96875.98438.96875.39062 0 .79687-.26563 1.01562-.40625.09375.25.21875.40625.45313.40625.26562 0 .54687-.07813.8125-.20313L3.5625-.28125c-.09375.01563-.25.03125-.34375 0-.125-.03125-.25-.15625-.25-.59375v-1.65625c0-.40625-.07812-.92187-1.125-.92187-.76562 0-1.39062.40625-1.39062.78125 0 .21875.26562.32812.39062.32812.15625 0 .1875-.07812.21875-.1875.15625-.51562.4375-.67187.71875-.67187.26563 0 .57813.125.57813.6875v.28125c-.1875.17187-.84375.34375-1.39063.51562-.5.15625-.625.5-.625.82813m.6875-.09376c0-.32812.14063-.5.53125-.64062.28125-.09375.64063-.23437.79688-.32812v.96875c0 .5625-.42188.70312-.70313.70312-.42187 0-.625-.29687-.625-.70312m0 0"/><path id="y" d="M.34375-1.65625C.34375-.5.90625.07813 1.9375.07813c.46875 0 1.125-.25 1.3125-.98438L3.04688-1c-.20313.48438-.48438.71875-.98438.71875-.8125 0-1.01562-.85937-1.01562-1.5 0-1.01562.40625-1.42187.89062-1.42187.3125 0 .5.21875.64063.59375.04687.10937.09375.17187.21875.17187.14062 0 .40625-.07812.40625-.34375 0-.3125-.45313-.67187-1.20313-.67187-1.25 0-1.65625.89062-1.65625 1.79687m0 0"/><path id="z" d="M.21875-3.09375h.48438v2.39063c0 .70312.53125.78125.76562.78125.35938 0 .6875-.17188.875-.29688l-.04687-.14062c-.17188.0625-.3125.07812-.48438.07812-.23437 0-.45312-.17187-.45312-.6875v-2.125h.875V-3.375h-.875v-.85937h-.20313L.73438-3.375H.21874Zm0 0"/><path id="A" d="M.625-4.5c0 .25.17188.42188.42188.42188S1.46875-4.25 1.46875-4.5s-.17187-.40625-.42187-.40625S.625-4.75.625-4.5M.21875 0h1.67188v-.20312C1.40625-.23438 1.375-.25 1.375-.59375v-2.8125l-.04687-.04687L.25-3.28125v.17188l.26563.03125c.17187.03125.21874.0625.21874.3125v2.17187c0 .34375-.01562.35938-.51562.39063Zm0 0"/><path id="B" d="M.34375-1.6875c0 1.10938.54688 1.76563 1.64063 1.76563 1.10937 0 1.65625-.65625 1.65625-1.76563 0-1.10937-.54688-1.76562-1.65625-1.76562-1.09375 0-1.64063.65625-1.64063 1.76562m.70313 0c0-.9375.3125-1.51562.9375-1.51562.64062 0 .9375.57812.9375 1.51562 0 .95313-.29688 1.53125-.9375 1.53125-.625 0-.9375-.57812-.9375-1.53125m0 0"/><path id="C" d="M.21875 0h1.67188v-.20312C1.40625-.23438 1.375-.25 1.375-.59375v-1.60937c0-.1875.01563-.26563.07813-.375.14062-.28125.45312-.5.8125-.5.46875 0 .71875.25.71875.85937v1.625c0 .34375-.01563.35938-.51563.39063V0h1.6875v-.20312c-.5-.03126-.51562-.04688-.51562-.39063v-1.76562c0-.6875-.39063-1.09375-1.01563-1.09375-.51562 0-.82812.25-1.25.53125l-.09375-.53125L.25-3.28125v.17188l.26563.03125c.17187.03125.21874.0625.21874.3125v2.17187c0 .34375-.01562.35938-.51562.39063Zm0 0"/><path id="D" d="M.32813-2.34375c0 .79688.25 1.45313.65625 1.85938.42187.42187 1.09375.59375 1.875.59375.54687 0 1.17187-.15625 1.5-.34375L4.45313-1.375H4.25c-.1875.71875-.54687 1.23438-1.4375 1.23438-1.42187 0-1.71875-1.39063-1.71875-2.21875 0-1.125.45313-2.26563 1.73438-2.26563.70312 0 1.1875.29688 1.3125 1.10938h.20312v-1.07813c-.29687-.14062-.8125-.26562-1.45312-.26562-.84375 0-1.51563.25-1.9375.70312-.39063.4375-.625 1.03125-.625 1.8125m0 0"/><path id="E" d="M.14063 0H1.8125v-.20312c-.46875-.03126-.51562-.0625-.51562-.39063v-1.60937c0-.1875 0-.26563.0625-.375.14062-.28125.46875-.5.82812-.5.46875 0 .71875.25.71875.85937v1.625c0 .32813-.03125.35938-.51562.39063V0H4.0625v-.20312c-.46875-.03126-.51562-.0625-.51562-.39063v-1.76562c0-.6875-.375-1.09375-1.01563-1.09375-.5 0-.8125.25-1.23437.53125V-5.0625L1.25-5.09375l-1.07812.17188V-4.75l.26562.03125c.17188.03125.21875.0625.21875.3125v3.8125c0 .32813-.03125.35938-.51562.39063Zm0 0"/><path id="F" d="M.20313-3.09375h.53125v2.5c0 .34375-.01563.35938-.51563.39063V0h1.75v-.20312C1.40625-.23438 1.375-.23438 1.375-.59375v-2.5h1.54688v2.5c0 .34375-.01563.35938-.51563.39063V0h1.82813v-.20312c-.64063-.03126-.65625-.03126-.65625-.39063v-2.5h.82812V-3.375h-.82812l-.03125-.76562c-.01563-.65625.21875-.71875.32812-.71875.14063 0 .29688.0625.46875.46875.03125.0625.07813.10937.1875.10937.14063 0 .34375-.10937.34375-.3125 0-.23437-.29687-.5-.84375-.5-.35937 0-.67187.14063-.84375.375C2.95313-4.875 2.54688-5 2.1875-5c-.375 0-.89062.17188-1.0625.4375C.96875-4.32812.73438-4 .73438-3.54687v.17187H.20313ZM3.03125-4.1875c-.04687.17188-.0625.35938-.0625.57813v.23437H1.4375v-.32812c0-.78125.34375-1.04688.65625-1.04688.35938 0 .54688.125.8125.45313.03125.04687.0625.09375.125.10937m0 0"/><path id="G" d="M.21875 0h1.8125v-.20312C1.42188-.23438 1.375-.25 1.375-.59375v-1.60937c0-.53125.23438-.71875.40625-.71875.10938 0 .21875.04687.42188.15625.04687.03125.09375.03125.14062.03125.17188 0 .3125-.17188.3125-.375 0-.15625-.09375-.34375-.375-.34375-.23437 0-.45312.14062-.90625.54687l-.07812-.54687L.25-3.28125v.17188l.26563.03125c.17187.03125.21874.0625.21874.3125v2.17187c0 .34375-.03124.35938-.51562.39063Zm0 0"/><path id="H" d="M.34375-1.65625c0 1.07813.45313 1.73438 1.57813 1.73438.76562 0 1.15625-.42188 1.34375-.96875L3.0625-1c-.20312.40625-.45312.73438-1 .73438-.85937 0-1.03125-.82813-1.01562-1.54688h1.98437c.15625 0 .28125-.03125.28125-.25 0-.40625-.14062-1.39062-1.39062-1.39062-1.07813 0-1.57813.76562-1.57813 1.79687m.71875-.40625c0-.29687.09375-1.14062.8125-1.14062.64063 0 .71875.64062.71875.92187 0 .125-.04687.21875-.23437.21875Zm0 0"/><path id="I" d="M.21875 0h1.67188v-.20312C1.40625-.23438 1.375-.25 1.375-.59375v-1.60937c0-.1875 0-.28125.0625-.375.125-.28125.42188-.5.8125-.5.59375 0 .65625.4375.65625.85937v1.625c0 .34375-.01562.35938-.51562.39063V0H4.0625v-.20312C3.57813-.23438 3.54688-.25 3.54688-.59375v-1.60937c0-.1875.01562-.26563.0625-.375.09375-.28125.39062-.5.78125-.5.42187 0 .6875.23437.6875.85937v1.625c0 .34375-.01563.35938-.51563.39063V0H6.25v-.20312c-.5-.03126-.53125-.04688-.53125-.39063v-1.76562c0-.6875-.35937-1.09375-1.01562-1.09375-.5625 0-.96875.375-1.20313.53125-.17187-.32813-.4375-.53125-.92187-.53125-.51563 0-.95313.35937-1.20313.53125l-.0625-.53125L.25-3.28125v.17188l.26563.03125c.17187.03125.21874.0625.21874.3125v2.17187c0 .34375-.01562.35938-.51562.39063Zm0 0"/><path id="J" d="M.14063 0H1.8125v-.20312C1.32813-.23438 1.29688-.25 1.29688-.59375V-5.0625L1.25-5.09375l-1.07812.17188V-4.75l.26562.01563c.17188.03125.21875.0625.21875.32812v3.8125c0 .34375-.01562.35938-.51562.39063Zm0 0"/><path id="K" d="M.17188 1.375v.20313h1.78125V1.375c-.57813-.03125-.625-.04687-.625-.39062v-1.0625C1.48437 0 1.8125.07813 2.125.07813c.92188 0 1.71875-.42188 1.71875-1.84375 0-.48438-.09375-1.6875-1.34375-1.6875-.5 0-.90625.34375-1.17187.51562L1.25-3.45312l-1.04687.17187v.17188l.26562.03125c.17188.03125.21875.0625.21875.3125v3.75c0 .34375-.03125.35937-.51562.39062m1.15625-2.45312v-1.125c0-.1875.04687-.26563.09374-.39063.17188-.3125.45313-.48437.8125-.48437.28125 0 .89063.17187.89063 1.35937 0 1.01563-.3125 1.5625-1 1.5625-.35937 0-.64062-.1875-.75-.5q-.04687-.1875-.04687-.42187m0 0"/><path id="L" d="m.17188-3.10937.26562.03125c.17188.03125.21875.0625.21875.3125v1.8125c0 .79687.46875 1.03125.98438 1.03125.57812 0 1.0625-.39063 1.25-.48438L2.96875 0H4.0625v-.20312C3.59375-.23438 3.54688-.25 3.54688-.59375v-2.8125L3.5-3.45312l-1.07812.17187v.17188l.26562.03125c.17188.03125.21875.0625.21875.3125v1.54687c0 .1875-.03125.34375-.0625.42188-.15625.3125-.48437.51562-.84375.51562-.40625 0-.6875-.26562-.6875-.79687v-2.32813L1.25-3.45312l-1.07812.17187Zm0 0"/><path id="M" d="m.14063-4.75.26562.01563c.17188.03125.21875.0625.21875.32812v4.4375L.75.07813l.26563-.26563c.23437.14063.53125.26563 1.04687.26563.90625 0 1.70313-.4375 1.70313-1.84375 0-.42188-.07813-1.6875-1.3125-1.6875-.51563 0-.9375.34375-1.1875.48437V-5.0625l-.04688-.03125-1.07812.17188Zm1.125 3.625v-1.07812c0-.1875 0-.28125.0625-.39063.17187-.32812.45312-.48437.84375-.48437.28125 0 .89062.15625.89062 1.35937 0 1.01563-.3125 1.5625-1 1.5625-.35937 0-.625-.1875-.75-.53125-.04687-.125-.04687-.26562-.04687-.4375m0 0"/><path id="N" d="M.34375-1.59375C.34375-.5.9375.07813 1.76563.07813c.39062 0 .71875-.1875 1.07812-.4375V.98438c0 .34375-.03125.35937-.54687.39062v.20313H4V1.375c-.46875-.03125-.5-.04687-.5-.39062v-4.4375h-.1875l-.29687.21875c-.26563-.15625-.60938-.21875-.90625-.21875-.54688 0-.98438.17187-1.29688.48437-.29687.29688-.46875.75-.46875 1.375m.70313-.09375c0-.84375.29687-1.51562 1-1.51562.35937 0 .60937.125.75.46875.04687.10937.04687.21875.04687.39062v1.17188c0 .14062 0 .26562-.04687.375-.125.35937-.39063.51562-.76563.51562-.6875 0-.98437-.64062-.98437-1.40625m0 0"/><path id="O" d="M.23438 0h2.15625C4.5 0 5.03125-1.23437 5.03125-2.46875c0-1.125-.5-2.28125-2.51562-2.28125H.23438v.1875c.60937.04688.625.0625.625.45313v3.46875c0 .39062-.01563.40625-.625.4375Zm1.3125-.85937V-4.125c0-.35937.04687-.39062.79687-.39062 1.45313 0 1.90625.92187 1.90625 2.07812 0 1.73438-.84375 2.20313-2 2.20313-.59375 0-.70312-.09375-.70312-.625m0 0"/><path id="P" d="M0-3.17187c.32813.03125.39063.0625.5.3125.1875.45312.32813.90625.51563 1.375L1.54688 0h.48437l.60938-1.65625c.20312-.53125.40625-1 .5-1.21875.10937-.23437.17187-.28125.5-.29687V-3.375h-1.3125v.20313l.34375.03125c.10937.01562.125.09375.09375.1875-.04688.21875-.17188.625-.34375 1.0625L1.96875-.625h-.01562l-.42188-1.15625C1.39063-2.17187 1.25-2.5625 1.125-2.9375c-.04687-.125-.01562-.1875.10938-.20312l.3125-.03125V-3.375H0Zm0 0"/><path id="Q" d="M.23438 0H3.8125l.07813-1.23437H3.6875c-.14062.90625-.51562 1-1.23437 1-.34375 0-.59375-.01563-.73438-.07813-.15625-.04687-.17187-.17187-.17187-.51562v-3.28125c0-.39063.01562-.40625.65625-.45313V-4.75H.23438v.1875c.60937.04688.625.0625.625.45313v3.46875c0 .39062-.01563.40625-.625.4375Zm0 0"/><clipPath id="f"><path d="M122 0h57v37.35938h-57Zm0 0"/></clipPath><clipPath id="m"><path d="M250 0h51v37.35938h-51Zm0 0"/></clipPath><clipPath id="q"><path d="M372 0h57v37.35938h-57Zm0 0"/></clipPath></defs><use xlink:href="#a" x="10.44951" y="23.69636"/><use xlink:href="#b" x="19.16678" y="23.69636"/><use xlink:href="#c" x="22.99888" y="23.69636"/><use xlink:href="#d" x="26.99186" y="23.69636"/><use xlink:href="#e" x="33.80772" y="23.69636"/><g clip-path="url(#f)"><path fill="none" stroke="#000" stroke-miterlimit="10" stroke-width=".39003" d="M178.28913.1953H122.7305v36.96877h55.55862Zm0 0"/></g><use xlink:href="#g" x="134.17004" y="14.57643"/><use xlink:href="#e" x="141.3223" y="14.57643"/><use xlink:href="#h" x="148.38681" y="14.57643"/><use xlink:href="#i" x="155.0564" y="14.57643"/><use xlink:href="#e" x="159.7807" y="14.57643"/><use xlink:href="#e" x="127.60316" y="32.12922"/><use xlink:href="#j" x="134.66766" y="32.12922"/><use xlink:href="#d" x="146.2517" y="32.12922"/><use xlink:href="#b" x="153.06755" y="32.12922"/><use xlink:href="#k" x="156.89965" y="32.12922"/><use xlink:href="#c" x="164.08116" y="32.12922"/><use xlink:href="#l" x="168.07414" y="32.12922"/><g clip-path="url(#m)"><path fill="none" stroke="#000" stroke-miterlimit="10" stroke-width=".39003" d="M300.38293.1953h-50.0469v36.96877h50.0469Zm0 0"/></g><use xlink:href="#g" x="259.01759" y="14.57643"/><use xlink:href="#e" x="266.16985" y="14.57643"/><use xlink:href="#h" x="273.23436" y="14.57643"/><use xlink:href="#i" x="279.90395" y="14.57643"/><use xlink:href="#e" x="284.62825" y="14.57643"/><use xlink:href="#d" x="255.20783" y="32.12922"/><use xlink:href="#n" x="262.02369" y="32.12922"/><use xlink:href="#c" x="270.36068" y="32.12922"/><use xlink:href="#o" x="274.35366" y="32.12922"/><use xlink:href="#l" x="283.10019" y="32.12922"/><use xlink:href="#p" x="288.4388" y="32.12922"/><g clip-path="url(#q)"><path fill="none" stroke="#000" stroke-miterlimit="10" stroke-width=".39003" d="M427.98845.1953h-55.56252v36.96877h55.56252Zm0 0"/></g><use xlink:href="#g" x="383.86514" y="14.57643"/><use xlink:href="#e" x="391.01741" y="14.57643"/><use xlink:href="#h" x="398.08191" y="14.57643"/><use xlink:href="#i" x="404.75151" y="14.57643"/><use xlink:href="#e" x="409.4758" y="14.57643"/><use xlink:href="#e" x="377.29826" y="32.12922"/><use xlink:href="#j" x="384.36277" y="32.12922"/><use xlink:href="#d" x="395.9468" y="32.12922"/><use xlink:href="#b" x="402.76266" y="32.12922"/><use xlink:href="#k" x="406.59475" y="32.12922"/><use xlink:href="#c" x="413.77627" y="32.12922"/><use xlink:href="#l" x="417.76925" y="32.12922"/><use xlink:href="#r" x="512.58216" y="23.69636"/><use xlink:href="#s" x="521.37257" y="23.69636"/><use xlink:href="#t" x="529.30003" y="23.69636"/><path fill="none" stroke="#000" stroke-miterlimit="10" stroke-width=".39003" d="M54.79298 18.67969h53.71096"/><path fill="none" stroke="#000" stroke-linecap="round" stroke-linejoin="round" stroke-miterlimit="10" stroke-width=".39003" d="M106.66797 16.33984c.3711 1.40625 1.19922 2.06641 2.03125 2.33985-.83203.27343-1.66016.9375-2.03125 2.33984"/><use xlink:href="#u" x="66.02355" y="28.94438"/><use xlink:href="#v" x="70.448" y="28.94438"/><use xlink:href="#w" x="73.98026" y="28.94438"/><use xlink:href="#x" x="78.09025" y="28.94438"/><use xlink:href="#y" x="81.68101" y="28.94438"/><use xlink:href="#z" x="85.08894" y="28.94438"/><use xlink:href="#A" x="87.45108" y="28.94438"/><use xlink:href="#B" x="89.44757" y="28.94438"/><use xlink:href="#C" x="93.4113" y="28.94438"/><path fill="none" stroke="#000" stroke-miterlimit="10" stroke-width=".39003" d="M192.12507 18.67969h41.22658"/><path fill="none" stroke="#000" stroke-linecap="round" stroke-linejoin="round" stroke-miterlimit="10" stroke-width=".39003" d="M231.51953 16.33984c.3711 1.40625 1.19531 2.06641 2.02735 2.33985-.83204.27343-1.65625.9375-2.02735 2.33984"/><use xlink:href="#D" x="194.04223" y="28.94438"/><use xlink:href="#E" x="198.73727" y="28.94438"/><use xlink:href="#A" x="202.90577" y="28.94438"/><use xlink:href="#F" x="204.90226" y="28.94438"/><use xlink:href="#G" x="209.27553" y="28.94438"/><use xlink:href="#H" x="211.80588" y="28.94438"/><use xlink:href="#I" x="215.33813" y="28.94438"/><use xlink:href="#H" x="221.67863" y="28.94438"/><use xlink:href="#C" x="225.21088" y="28.94438"/><use xlink:href="#z" x="229.45983" y="28.94438"/><use xlink:href="#D" x="193.03314" y="11.93284"/><use xlink:href="#J" x="197.72819" y="11.93284"/><use xlink:href="#v" x="199.64423" y="11.93284"/><use xlink:href="#K" x="204.71225" y="11.93284"/><use xlink:href="#L" x="208.88806" y="11.93284"/><use xlink:href="#M" x="213.04924" y="11.93284"/><use xlink:href="#J" x="217.15923" y="11.93284"/><use xlink:href="#A" x="219.07528" y="11.93284"/><use xlink:href="#N" x="221.07177" y="11.93284"/><use xlink:href="#L" x="225.13057" y="11.93284"/><use xlink:href="#H" x="229.29175" y="11.93284"/><path fill="none" stroke="#000" stroke-miterlimit="10" stroke-width=".39003" d="M316.97669 18.67969h41.22657"/><path fill="none" stroke="#000" stroke-linecap="round" stroke-linejoin="round" stroke-miterlimit="10" stroke-width=".39003" d="M356.36719 16.33984c.3711 1.40625 1.19531 2.06641 2.02734 2.33985-.83203.27343-1.65625.9375-2.02734 2.33984"/><use xlink:href="#O" x="315.0903" y="28.94438"/><use xlink:href="#v" x="320.44353" y="28.94438"/><use xlink:href="#y" x="323.97578" y="28.94438"/><use xlink:href="#E" x="327.38371" y="28.94438"/><use xlink:href="#A" x="331.55221" y="28.94438"/><use xlink:href="#F" x="333.5487" y="28.94438"/><use xlink:href="#G" x="337.92196" y="28.94438"/><use xlink:href="#H" x="340.45231" y="28.94438"/><use xlink:href="#I" x="343.98457" y="28.94438"/><use xlink:href="#H" x="350.32507" y="28.94438"/><use xlink:href="#C" x="353.85732" y="28.94438"/><use xlink:href="#z" x="358.10626" y="28.94438"/><use xlink:href="#D" x="322.22436" y="11.93284"/><use xlink:href="#J" x="326.91941" y="11.93284"/><use xlink:href="#v" x="328.83545" y="11.93284"/><use xlink:href="#K" x="333.91078" y="11.93284"/><use xlink:href="#G" x="338.08659" y="11.93284"/><use xlink:href="#A" x="340.8144" y="11.93284"/><use xlink:href="#P" x="342.81089" y="11.93284"/><use xlink:href="#v" x="346.27001" y="11.93284"/><use xlink:href="#H" x="349.80226" y="11.93284"/><path fill="none" stroke="#000" stroke-miterlimit="10" stroke-width=".39003" d="M441.8244 18.67969h53.71095"/><path fill="none" stroke="#000" stroke-linecap="round" stroke-linejoin="round" stroke-miterlimit="10" stroke-width=".39003" d="M493.70312 16.33984c.3711 1.40625 1.19532 2.06641 2.02735 2.33985-.83203.27343-1.65625.9375-2.02735 2.33984"/><use xlink:href="#Q" x="457.15787" y="28.60084"/><use xlink:href="#H" x="461.05578" y="28.60084"/><use xlink:href="#y" x="464.58803" y="28.60084"/><use xlink:href="#z" x="467.99596" y="28.60084"/><use xlink:href="#L" x="470.35811" y="28.60084"/><use xlink:href="#G" x="474.51929" y="28.60084"/><use xlink:href="#H" x="477.04964" y="28.60084"/></svg>