<svg xmlns="http://www.w3.org/2000/svg" xmlns:xlink="http://www.w3.org/1999/xlink" width="384.995pt" height="189.445pt" viewBox="0 0 384.995 189.445"><defs><path id="c" d="M-.40625 0H2.6875v-.40625l-.73437-.07812c-.42188-.03125-.48438-.1875-.35938-.5625.23438-.82813.51563-1.70313.84375-2.6875h3.15625l.9375 2.67187c.125.40625.07813.5625-.375.59375l-.64062.0625V0h3.59375v-.40625C8.28125-.48437 8.14063-.51562 7.89063-1.25L4.92188-9.6875H3.875L2.42188-5.54687C1.98438-4.32812 1.39063-2.65625.89063-1.375c-.29688.76563-.40625.92188-1.29688.96875Zm3.04688-4.28125c.4375-1.39062.9375-2.76562 1.35937-4h.04688l1.375 4Zm0 0"/><path id="d" d="M.45313 0h3.40625v-.40625c-1-.07812-1.04688-.09375-1.04688-.8125V-4.5c0-.35937.01563-.53125.14063-.76562C3.25-5.8125 3.875-6.28125 4.625-6.28125c.95313 0 1.46875.53125 1.46875 1.75v3.3125c0 .71875-.04687.73438-1.0625.8125V0h3.4375v-.40625c-1-.07812-1.0625-.09375-1.0625-.8125v-3.57812c0-1.42188-.76562-2.23438-2.0625-2.23438-1.03125 0-1.67187.5-2.54687 1.0625l-.1875-1.0625-2.09375.35938v.34375l.53125.0625c.35937.0625.45312.125.45312.625v4.42187c0 .71875-.04687.73438-1.04687.8125Zm0 0"/><path id="e" d="M.57813 1.34375C.57813 2.75 2 3.39063 3.625 3.39063c.82813 0 1.71875-.17188 2.375-.57813.64063-.375 1.125-1.04687 1.125-1.92187 0-1.51563-1.20312-2.03125-2.71875-2.03125H3.29688c-1.01563 0-1.17188-.34375-1.17188-.625 0-.39063.54688-.625.71875-.67188.26563.01563.5625.03125.71875.03125 1.32813 0 2.82813-.57812 2.82813-2.28125 0-.57812-.1875-1.0625-.42188-1.3125l1.10938-.17187.28125-.875-.10938-.125-1.79687.5625c-.39063-.26563-1.17188-.42188-1.8125-.42188C1.48438-7.03125.75-5.71875.75-4.6875c0 1.3125.85938 1.9375 1.5 2.09375v.03125c-.76562.29688-1.28125.70313-1.28125 1.25 0 .5.5625 1.01563 1.23438 1.09375v.03125C1.60938 0 .57813.32813.57813 1.34375m1.34375-.0625c0-.46875.14062-.82812.4375-1.0625.3125-.23437.76562-.32812 1.4375-.32812 1.23437 0 2.15625.3125 2.15625 1.35937 0 1.125-1.01563 1.65625-2.01563 1.65625-1.1875 0-2.01562-.60937-2.01562-1.625m.25-5.96875c0-1.375.71875-1.85937 1.46875-1.85937.6875 0 1.39062.51562 1.39062 1.85937 0 1.1875-.59375 1.79688-1.40625 1.79688-.79687 0-1.45312-.60938-1.45312-1.79688m0 0"/><path id="f" d="M.28125 0h3.42188v-.40625c-1-.07812-1.04688-.09375-1.04688-.8125v-9.09375l-.10937-.07812-2.1875.34375v.35937l.51562.04688c.35938.04687.45313.10937.45313.65625v7.76562c0 .71875-.03126.73438-1.04688.8125Zm0 0"/><path id="g" d="M.6875-3.39062c0 2.23437.95313 3.54687 3.23438 3.54687 1.54687 0 2.35937-.85937 2.71875-1.95312l-.40625-.23438c-.39063.82813-.92188 1.48438-2.03125 1.48438-1.75 0-2.09375-1.67188-2.0625-3.14063H6.1875c.29688 0 .54688-.0625.54688-.53125 0-.8125-.26563-2.8125-2.82813-2.8125-2.1875 0-3.21875 1.54688-3.21875 3.64063m1.46875-.82813c0-.57812.21875-2.32812 1.67188-2.32812 1.29687 0 1.45312 1.32812 1.45312 1.875 0 .28125-.09375.45312-.48437.45312Zm0 0"/><path id="h" d="M.6875-3.42187c0 2.26562 1.10938 3.57812 3.35938 3.57812 2.26562 0 3.35937-1.3125 3.35937-3.57812S6.3125-7.03125 4.04688-7.03125c-2.25 0-3.35938 1.34375-3.35938 3.60938m1.45313 0c0-1.9375.625-3.125 1.90625-3.125 1.29687 0 1.92187 1.1875 1.92187 3.125s-.625 3.09375-1.92187 3.09375c-1.28125 0-1.90625-1.15625-1.90625-3.09375m0 0"/><path id="i" d="m.28125-9.6875.53125.04688c.35938.04687.45313.10937.45313.65625V.0625l.25.09375.5625-.53125c.48437.28125 1.07812.53125 2.125.53125 1.85937 0 3.48437-.89062 3.48437-3.75 0-.85937-.17187-3.4375-2.6875-3.4375-1.0625 0-1.90625.6875-2.42187 1v-4.28125l-.10938-.07812-2.1875.34375Zm2.29688 7.40625V-4.5c0-.35937.01562-.5625.14062-.79687.34375-.67188.92188-.98438 1.70313-.98438.59375 0 1.8125.32813 1.8125 2.78125 0 2.04688-.625 3.17188-2.01563 3.17188-.75 0-1.28125-.375-1.53125-1.07813-.09375-.25-.10937-.53125-.10937-.875m0 0"/><path id="j" d="M.4375-6.3125h1.01563v4.875C1.45313 0 2.5.15625 3 .15625c.71875 0 1.375-.34375 1.78125-.60937L4.6875-.75c-.34375.14063-.64062.1875-1 .1875-.48437 0-.9375-.34375-.9375-1.40625V-6.3125h1.8125v-.5625H2.75v-1.75h-.39062L1.5-6.875H.4375Zm0 0"/><path id="k" d="m.35938-6.32812.53125.0625c.35937.0625.45312.125.45312.625v3.70312c0 1.60938.95313 2.09375 2 2.09375 1.1875 0 2.15625-.79687 2.5625-.98437L6.03125 0h2.25v-.40625C7.3125-.48437 7.23438-.5 7.23438-1.21875v-5.73437L7.125-7.03125l-2.1875.35938v.34375l.53125.0625c.35938.0625.45313.125.45313.625v3.17187c0 .375-.04688.6875-.125.82813C5.46875-1 4.8125-.57812 4.07813-.57812c-.8125 0-1.40625-.53125-1.40625-1.60938v-4.76562l-.10938-.07813-2.20312.35938Zm0 0"/><path id="l" d="M.65625-2.34375.8125-.5c.5.4375 1.34375.65625 2.17188.65625 1.67187 0 2.625-.875 2.625-2.0625 0-1.23437-.76563-1.79687-2.20313-2.23437-.59375-.1875-1.5-.48438-1.5-1.26563 0-.73437.54688-1.14062 1.25-1.14062 1 0 1.48438.78125 1.57813 1.625h.40625V-6.5625c-.45313-.34375-1.17188-.46875-1.79688-.46875C1.8125-7.03125.79688-6.3125.79688-5c0 1.17188.95312 1.6875 2.10937 2.04688.625.20312 1.5.51562 1.5 1.46875 0 .70312-.54687 1.15625-1.29687 1.15625-1.125 0-1.76563-.8125-2.04688-2.01563Zm0 0"/><path id="m" d="M.73438-3.84375C.73438-2 1.64063.20313 5.10938.20313c1 0 1.95312-.125 2.84375-.57813l.6875-2.23437h-.40625C7.45313-1.20312 6.75-.28125 5.01563-.28125c-1.60938 0-2.78125-1.04687-2.78125-3.20312 0-1.26563.32812-2.82813 1-3.9375.70312-1.17188 1.79687-2 3.3125-2 1.76562 0 2.28125.82812 2.28125 2.35937H9.25l.51563-2.10937c-.8125-.5-2.125-.73438-3.10938-.73438-2.625 0-4.15625 1.23438-4.96875 2.54688-.78125 1.25-.95312 2.54687-.95312 3.51562m0 0"/><path id="n" d="M1.26563-3.95312c0 1.60937 1.17187 2.79687 2.79687 2.79687 1.57813 0 2.75-1.1875 2.75-2.79687 0-1.5625-1.17187-2.73438-2.75-2.73438-1.625 0-2.79687 1.17188-2.79687 2.73438m0 0"/><path id="o" d="M0 0h3.98438l.0625-.40625-.96875-.07812C2.84375-.5 2.75-.60937 2.75-.82812c0-.09376 0-.20313.03125-.32813l.625-2.76562h1.04688c1.20312 0 2.29687-.15625 3.10937-.65625.89063-.54688 1.40625-1.5 1.40625-2.54688 0-.95312-.4375-1.6875-1.125-2.07812-.65625-.35938-1.54687-.48438-2.48437-.48438H2.09375l-.10937.40625.82812.04688c.25.01562.34375.14062.34375.375q0 .14062-.04687.32812l-1.67188 7.375c-.125.46875-.25.64063-.59375.67188l-.76562.07812Zm3.60938-4.70312c0-.09375.01562-.1875.04687-.3125L4.5-8.71875c.09375-.35937.1875-.5.89063-.5C6.78125-9.21875 7.5-8.5625 7.5-7.35937c0 2-1.125 2.95312-3.01562 2.95312-.71875 0-.875-.07812-.875-.29687m0 0"/><path id="q" d="M1.20313-3.95312c0 3.15625.71875 6.64062 3.6875 6.75v-.40625c-1-.20313-2.5625-1.4375-2.5625-6.34375 0-4.875 1.48437-6.10938 2.5625-6.32813v-.42187c-2.96875.125-3.6875 3.59375-3.6875 6.75m0 0"/><path id="r" d="M.45313-.54687c0 .39062.32812.70312.89062.70312.95313 0 1.48438-.95312 2.0625-1.89062l.57813-.92188h.03125l.25 1.10938C4.53125-.4375 4.78125.15624 5.5.15624c1.03125 0 1.5625-1.04687 1.98438-1.90625L7.125-1.9375c-.34375.625-.73437 1.375-1.125 1.375-.26562 0-.35937-.3125-.67187-1.5625L4.875-3.96875c.5-.89062 1.21875-2.01562 1.625-2.01562.42188 0 .4375.23437.84375.23437.3125 0 .59375-.29687.59375-.67187 0-.4375-.32812-.60938-.70312-.60938-.75 0-1.375.67188-1.875 1.45313L4.75-4.625h-.03125l-.5625-2.34375-.07812-.0625-2.29688.70313L1.79688-6l1.10937-.0625c.21875 0 .32813.09375.46875.70313l.48438 2.01562-.39063.67188C2.875-1.64062 2.35938-.90625 2.01563-.90625 1.60938-.90625 1.5-1.25 1.0625-1.25c-.35937 0-.60937.35938-.60937.70313m0 0"/><path id="s" d="M.82813 2.39063v.40625c2.96875-.10938 3.6875-3.59375 3.6875-6.75s-.71875-6.625-3.6875-6.75v.42187c1.07812.21875 2.57812 1.45313 2.57812 6.32813 0 4.90625-1.57812 6.14062-2.57812 6.34375m0 0"/><path id="t" d="M.59375-.25c0 .17188.07813.40625.3125.40625.20313 0 .65625-.07812.65625-.3125v-.64062c0-.14063.07813-.25.20313-.25.21874 0 .70312.32812 1.53125.65625.75.29687 1.40625.54687 2.04687.54687.92188 0 1.34375-1.21875 1.71875-2.6875l-.39062-.10937c-.35938.85937-.6875 1.71875-1.32813 1.71875-.42187 0-1.04687-.21876-1.57812-.40625-.45313-.15626-.95313-.35938-1.3125-.40625 1.5625-1.625 3.15625-3.28125 4.84375-4.92188L7.1875-6.875H2.64063c-.20313.25-.625 1.03125-.9375 2l.34375.15625c.4375-.82812.6875-1.25 1.34375-1.25h2.45312C4.0625-4.17187 2.4375-2.54687.92188-1.01562.70312-.79688.59375-.48437.59375-.25m0 0"/><path id="p" d="M.28125-2.6875C.28125-1.5.82813.14063 3.375.14063c.6875 0 1.39063-.09375 2.01563-.40625l.5-1.64063h-.3125c-.5625.98438-1.0625 1.67188-2.25 1.67188-1.07813 0-1.84375-.6875-1.84375-2.17188 0-1.625.73437-4.15625 2.9375-4.15625 1.21875 0 1.54687.64063 1.54687 1.67188h.32813l.35937-1.53125c-.5625-.35938-1.51562-.51563-2.17187-.51563-3 0-4.20313 2.20313-4.20313 4.25m0 0"/><clipPath id="a"><path d="M.5586 61H256v127.89063H.5586Zm0 0"/></clipPath><clipPath id="b"><path d="M.5586 55H261v133.89063H.5586Zm0 0"/></clipPath><clipPath id="u"><path d="M183 17h129v171.89063H183Zm0 0"/></clipPath></defs><g clip-path="url(#a)"><path fill="#b2b2ff" fill-opacity=".3" d="M255.13281 125.09766c0-35.1211-56.9414-63.59375-127.1875-63.59375S.75781 89.97656.75781 125.09766c0 35.125 56.9414 63.59765 127.1875 63.59765s127.1875-28.47265 127.1875-63.59765m0 0"/></g><g clip-path="url(#b)"><path fill="none" stroke="#000" stroke-miterlimit="10" stroke-width=".39734" d="M255.13282 125.09766c0-35.1211-56.94141-63.59376-127.1875-63.59376S.7578 89.97656.7578 125.09766c0 35.125 56.9414 63.59766 127.1875 63.59766s127.18751-28.47266 127.18751-63.59766Zm0 0"/></g><path fill="none" stroke="red" stroke-miterlimit="10" stroke-width=".39734" d="m247.44923 103.35156 8.5664-6.24219 6.23438 8.57032-8.56641 6.24218-6.23437-8.5703"/><path fill="none" stroke="#00adef" stroke-miterlimit="10" stroke-width=".39734" d="M226.65626 130.14453c14.79687 11.48438 36.10156 8.80078 47.58594-6 9.26562-11.9336 9.51562-28.5625.85156-40.44922"/><path fill="none" stroke="#00adef" stroke-linecap="round" stroke-linejoin="round" stroke-miterlimit="10" stroke-width=".39732" d="M274.26562 86.60938c.9336-1.14844.98438-2.22657.71094-3.07422.72266.51953 1.76563.80468 3.14063.26562"/><g fill="#00adef"><use xlink:href="#c" x="294.80478" y="106.85396"/><use xlink:href="#d" x="303.68536" y="106.85396"/><use xlink:href="#e" x="312.34244" y="106.85396"/><use xlink:href="#f" x="319.61379" y="106.85396"/><use xlink:href="#g" x="323.51767" y="106.85396"/></g><g fill="#00adef"><use xlink:href="#h" x="333.85849" y="106.85396"/><use xlink:href="#i" x="341.93445" y="106.85396"/><use xlink:href="#j" x="350.30843" y="106.85396"/><use xlink:href="#k" x="355.12123" y="106.85396"/><use xlink:href="#l" x="363.5995" y="106.85396"/></g><use xlink:href="#m" x="122.59529" y="129.9503"/><use xlink:href="#n" x="243.41832" y="106.69742"/><use xlink:href="#o" x="206.18939" y="106.98956"/><use xlink:href="#p" x="213.67047" y="110.26646"/><use xlink:href="#q" x="221.87543" y="106.98956"/><use xlink:href="#r" x="227.59715" y="106.98956"/><use xlink:href="#s" x="236.46284" y="106.98956"/><use xlink:href="#n" x="361.30396" y="20.77215"/><use xlink:href="#r" x="370.59873" y="11.99885"/><use xlink:href="#n" x="200.21788" y="162.35736"/><use xlink:href="#t" x="191.05772" y="153.58406"/><g clip-path="url(#u)"><path fill="none" stroke="#000" stroke-dasharray="2.9801026164 2.9801026164" stroke-miterlimit="10" stroke-width=".39734" d="M305.78126 183.54688 189.09376 23.16015"/></g><path fill="none" stroke="#000" stroke-dasharray="2.9801026164 2.9801026164" stroke-miterlimit="10" stroke-width=".39734" d="m247.3672 103.25781 117.96875-85.83203M204.25 159.01172l43.19923-55.66016"/></svg>