<svg xmlns="http://www.w3.org/2000/svg" xmlns:xlink="http://www.w3.org/1999/xlink" width="576.9" height="284.068" viewBox="0 0 576.9 284.068"><defs><path id="b" d="M-.60937 0h4.625v-.60937L2.92188-.71875c-.625-.0625-.70313-.28125-.53125-.84375.35937-1.25.78125-2.54687 1.28125-4.04687H8.375l1.40625 4.01562c.20313.60938.10938.82813-.54687.90625l-.96875.07813V0h5.39062v-.60937C12.42188-.71875 12.20313-.78125 11.8125-1.875L7.375-14.51562H5.8125L3.625-8.3125c-.65625 1.82813-1.54687 4.32813-2.28125 6.25C.89063-.92187.71875-.67187-.60937-.60937Zm4.5625-6.40625c.67187-2.10937 1.40625-4.15625 2.03125-6.01562h.07812l2.07813 6.01562Zm0 0"/><path id="c" d="M.67188 0h5.10937v-.60937c-1.48437-.10938-1.5625-.15626-1.5625-1.21875V-6.75c0-.53125.03125-.79687.20313-1.14062.45312-.82813 1.39062-1.51563 2.5-1.51563 1.4375 0 2.21875.78125 2.21875 2.60938v4.96875c0 1.0625-.0625 1.10937-1.59375 1.21875V0h5.14062v-.60937c-1.5-.10938-1.57812-.15626-1.57812-1.21875V-7.1875c0-2.125-1.17188-3.35937-3.09375-3.35937-1.5625 0-2.51563.76562-3.8125 1.60937l-.29688-1.60937-3.125.53125V-9.5l.78125.10938c.53125.09375.6875.1875.6875.9375v6.625c0 1.0625-.0625 1.10937-1.57812 1.21875Zm0 0"/><path id="d" d="M.875 2.01563c0 2.125 2.125 3.0625 4.54688 3.0625C6.6875 5.07813 8 4.82813 9 4.21875c.96875-.57812 1.6875-1.57812 1.6875-2.875 0-2.28125-1.8125-3.0625-4.07812-3.0625H4.9375c-1.51562 0-1.75-.51562-1.75-.92187 0-.59375.8125-.9375 1.07813-1.03125.40625.04687.84375.07812 1.07812.07812 1.98438 0 4.23438-.875 4.23438-3.42187 0-.875-.28125-1.60938-.64063-1.96875L10.60938-9.25l.42187-1.3125-.17187-.1875-2.6875.85938c-.57813-.40625-1.76563-.65625-2.71875-.65625-3.21875 0-4.34375 1.96875-4.34375 3.53125 0 1.96875 1.29687 2.875 2.26562 3.125v.04687c-1.14062.45313-1.92187 1.04688-1.92187 1.875 0 .73438.84375 1.51563 1.85937 1.64063v.03125C2.40625 0 .875.48438.875 2.01563m2-.09375c0-.71875.20313-1.25.65625-1.59375C4-.01562 4.6875-.15625 5.70313-.15625c1.84375 0 3.21875.46875 3.21875 2.03125 0 1.67188-1.53125 2.48438-3.01563 2.48438-1.79687 0-3.03125-.92188-3.03125-2.4375m.39063-8.9375c0-2.07813 1.0625-2.79688 2.1875-2.79688 1.03125 0 2.09375.76563 2.09375 2.79688 0 1.76562-.89063 2.6875-2.125 2.6875-1.17188 0-2.15625-.92188-2.15625-2.6875m0 0"/><path id="e" d="M.42188 0h5.125v-.60937c-1.5-.10938-1.5625-.15626-1.5625-1.21875v-13.64063l-.15625-.10937-3.29688.51562v.54688l.78125.0625c.54688.0625.67188.17187.67188.98437v11.64063c0 1.0625-.04688 1.10937-1.5625 1.21875Zm0 0"/><path id="f" d="M1.03125-5.07812C1.03125-1.75 2.45313.25 5.875.25c2.32813 0 3.53125-1.29687 4.09375-2.95312l-.625-.32813C8.76563-1.8125 7.95313-.82812 6.29688-.82812c-2.60938 0-3.125-2.5-3.07813-4.6875h6.04688c.45312 0 .82812-.10938.82812-.8125 0-1.21875-.39062-4.21875-4.23437-4.21875-3.29688 0-4.82813 2.32812-4.82813 5.46875m2.20313-1.25c0-.85938.3125-3.48438 2.51562-3.48438 1.9375 0 2.15625 2 2.15625 2.8125 0 .40625-.125.67188-.71875.67188Zm0 0"/><path id="g" d="M1.03125-5.14062C1.03125-1.75 2.70313.25 6.07813.25s5.03125-2 5.03125-5.39062-1.65625-5.40625-5.03125-5.40625-5.04688 2.01562-5.04688 5.40625m2.1875 0c0-2.90625.9375-4.67188 2.85938-4.67188S8.9375-8.04687 8.9375-5.14062 8-.48437 6.07813-.48437s-2.85938-1.75-2.85938-4.65625m0 0"/><path id="h" d="m.42188-14.51562.8125.0625c.53125.0625.67187.17187.67187.98437V.09375l.375.15625.82813-.8125c.73437.42188 1.625.8125 3.1875.8125 2.79687 0 5.23437-1.34375 5.23437-5.64062 0-1.29688-.26562-5.15625-4.04687-5.15625-1.57813 0-2.84375 1.03125-3.625 1.5v-6.42188l-.15625-.10937-3.28125.51562Zm3.4375 11.09375V-6.75c0-.53125.03125-.84375.20312-1.1875.51563-1 1.39063-1.46875 2.57813-1.46875.85937 0 2.70312.48438 2.70312 4.15625 0 3.07813-.9375 4.76563-3.01562 4.76563-1.125 0-1.92188-.5625-2.3125-1.60938-.125-.39062-.15625-.8125-.15625-1.32812m0 0"/><path id="i" d="M.64063-9.45312h1.53125v7.3125C2.17188 0 3.75.25 4.48438.25c1.07812 0 2.07812-.54687 2.6875-.92187l-.15625-.4375c-.51563.1875-.95313.26562-1.5.26562-.71875 0-1.375-.51562-1.375-2.10937v-6.5h2.70312v-.84375H4.14063v-2.64063h-.60938L2.25-10.29687H.64063Zm0 0"/><path id="j" d="m.53125-9.5.8125.10938c.53125.09375.67188.1875.67188.9375v5.54687C2.01563-.48437 3.4375.25 5 .25c1.79688 0 3.25-1.20312 3.84375-1.5L9.04688 0h3.375v-.60937c-1.45313-.10938-1.57813-.15626-1.57813-1.21875v-8.57813l-.15625-.14062-3.29687.53125V-9.5l.8125.10938c.53125.09375.67187.1875.67187.9375v4.75c0 .57812-.07812 1.04687-.1875 1.25C8.20313-1.5 7.21875-.875 6.125-.875 4.89063-.875 4-1.65625 4-3.28125v-7.125l-.15625-.14062-3.3125.53125Zm0 0"/><path id="k" d="m.98438-3.51562.21874 2.75C1.96876-.09376 3.23438.25 4.46876.25c2.5 0 3.9375-1.32812 3.9375-3.10937 0-1.85938-1.14062-2.6875-3.3125-3.35938-.875-.26562-2.23437-.70312-2.23437-1.89062 0-1.09375.82812-1.70313 1.875-1.70313 1.5 0 2.21875 1.17188 2.375 2.4375h.59375v-2.45312c-.6875-.51563-1.76563-.71875-2.70313-.71875-2.28125 0-3.8125 1.07812-3.8125 3.0625 0 1.73437 1.42188 2.53125 3.17188 3.0625.9375.28125 2.25.75 2.25 2.1875 0 1.07812-.82813 1.75-1.9375 1.75-1.70313 0-2.65625-1.23438-3.07813-3.03125Zm0 0"/><path id="l" d="M1.09375-5.76562C1.09375-3 2.45313.3125 7.65625.3125c1.5 0 2.9375-.20312 4.28125-.875l1.01563-3.34375h-.625C11.17188-1.8125 10.125-.42187 7.53125-.42187c-2.4375 0-4.1875-1.5625-4.1875-4.8125 0-1.89063.5-4.21875 1.5-5.89063 1.0625-1.76562 2.70313-3 4.96875-3 2.65625 0 3.42188 1.23438 3.42188 3.53125h.64062l.76563-3.14062c-1.21875-.76563-3.17188-1.125-4.65625-1.125-3.95313 0-6.23438 1.85937-7.45313 3.82812-1.17187 1.875-1.4375 3.8125-1.4375 5.26563m0 0"/><path id="m" d="M1.90625-5.92187c0 2.40625 1.76563 4.17187 4.1875 4.17187 2.35938 0 4.125-1.76562 4.125-4.17187 0-2.34375-1.76562-4.10938-4.125-4.10938-2.42187 0-4.1875 1.76563-4.1875 4.10938m0 0"/><path id="n" d="M0 0h5.96875l.10938-.60937-1.45313-.125c-.35937-.03126-.51562-.1875-.51562-.51563 0-.14062.03125-.29687.0625-.5l.9375-4.125H6.6875c1.78125 0 3.4375-.25 4.64063-.98437 1.34375-.82813 2.125-2.25 2.125-3.82813 0-1.42187-.67188-2.51562-1.70313-3.09375-.98437-.5625-2.32812-.73437-3.70312-.73437H3.125l-.15625.59375 1.25.09375c.35938.01562.51563.20312.51563.5625 0 .125-.01563.28125-.0625.48437L2.14063-1.75c-.17188.71875-.35938.96875-.85938 1.01563l-1.17187.125Zm5.40625-7.0625c0-.125.01563-.26562.0625-.4375L6.75-13.07812c.125-.53125.26563-.73438 1.34375-.73438 2.07813 0 3.14063.98438 3.14063 2.78125 0 2.98438-1.67188 4.42188-4.51563 4.42188-1.0625 0-1.3125-.10938-1.3125-.45313m0 0"/><path id="p" d="M1.8125-5.92187c0 4.73437 1.0625 9.9375 5.51563 10.125v-.625c-1.5-.29688-3.84375-2.14063-3.84375-9.5 0-7.3125 2.23437-9.15625 3.84375-9.5v-.625c-4.45313.1875-5.51563 5.39062-5.51563 10.125m0 0"/><path id="q" d="M.67188-.82812C.67188-.21876 1.15625.25 2.01563.25 3.4375.25 4.25-1.1875 5.10938-2.59375l.85937-1.39062h.04688l.375 1.65625C6.79688-.64062 7.17188.25 8.25.25c1.53125 0 2.34375-1.59375 2.96875-2.85937l-.53125-.29688C10.17188-1.96875 9.57813-.84375 9-.84375c-.39062 0-.54687-.46875-1.01562-2.34375l-.67188-2.75c.75-1.34375 1.82813-3.01562 2.42188-3.01562.64062 0 .65625.32812 1.28125.32812.46875 0 .89062-.45312.89062-1 0-.65625-.48437-.92187-1.0625-.92187-1.125 0-2.0625 1-2.79687 2.1875L7.125-6.92187h-.04687l-.84375-3.53125-.10938-.09375L2.65625-9.5l.04688.51563 1.65625-.10938c.32812 0 .48437.15625.6875 1.04688L5.78125-5l-.57812 1c-.89063 1.54688-1.67188 2.64063-2.1875 2.64063-.60938 0-.76563-.51563-1.42188-.51563-.54687 0-.92187.53125-.92187 1.04688m0 0"/><path id="r" d="M1.25 3.57813v.625c4.45313-.1875 5.51563-5.39063 5.51563-10.125s-1.0625-9.9375-5.51563-10.125v.625c1.60938.34375 3.84375 2.1875 3.84375 9.5 0 7.35937-2.34375 9.20312-3.84375 9.5m0 0"/><path id="s" d="M.89063-.375c0 .26563.10937.625.46875.625.29687 0 .98437-.14062.98437-.5v-.9375c0-.21875.10938-.375.29688-.375.32812 0 1.0625.48438 2.29687.98438C6.0625-.14062 7.03125.25 8.01563.25c1.375 0 2.01562-1.84375 2.57812-4.04687l-.57812-.15625c-.54688 1.29687-1.0625 2.5625-2 2.5625-.64063 0-1.57813-.3125-2.35938-.59375-.70312-.25-1.4375-.54688-1.96875-.60938C6.01563-5.03125 8.40625-7.5 10.95313-9.98437l-.1875-.3125h-6.8125c-.28125.375-.9375 1.53125-1.40625 2.98437l.51562.23438C3.73438-8.3125 4.09375-8.9375 5.07813-8.9375h3.6875C6.09375-6.25 3.67188-3.82812 1.39063-1.51562c-.34375.32812-.5.79687-.5 1.14062m0 0"/><path id="o" d="M.42188-4.03125c0 1.78125.82812 4.25 4.625 4.25 1.03125 0 2.09375-.14062 3.04687-.60937l.73438-2.46875h-.46875C7.5-1.375 6.75-.34375 4.98438-.34375c-1.60938 0-2.76563-1.04687-2.76563-3.26562 0-2.42188 1.10938-6.23438 4.40625-6.23438 1.84375 0 2.32813.96875 2.32813 2.53125h.48437l.54688-2.32812c-.84375-.53125-2.28125-.76563-3.26563-.76563-4.5 0-6.29687 3.32813-6.29687 6.375m0 0"/><clipPath id="a"><path d="M.89453 86H389v197.14063H.89453Zm0 0"/></clipPath></defs><path fill="#B2B2FF" fill-opacity=".3" d="M382.51953 187.58594c0-52.66797-85.38281-95.35938-190.71484-95.35938-105.32813 0-190.71485 42.6914-190.71485 95.35938 0 52.66406 85.38672 95.35547 190.71485 95.35547 105.33203 0 190.71484-42.69141 190.71484-95.35547m0 0"/><g clip-path="url(#a)"><path fill="none" stroke="#000" stroke-miterlimit="10" stroke-width=".3972" d="M382.51956 187.58594c0-52.66798-85.38282-95.3594-190.71487-95.3594-105.32815 0-190.71488 42.69142-190.71488 95.3594 0 52.66407 85.38673 95.35548 190.71488 95.35548 105.33205 0 190.71487-42.69141 190.71487-95.35548Zm0 0"/></g><path fill="none" stroke="red" stroke-miterlimit="10" stroke-width=".3972" d="m371.00003 154.97265 12.84375-9.35938 9.34766 12.85157-12.84375 9.35938-9.34766-12.85157"/><path fill="none" stroke="#00ADEF" stroke-miterlimit="10" stroke-width=".3972" d="M339.82034 195.14844c22.1875 17.22266 54.13673 13.19531 71.35548-8.99219 13.89063-17.89454 14.26563-42.83204 1.15625-60.81642"/><path fill="none" stroke="#00ADEF" stroke-linecap="round" stroke-linejoin="round" stroke-miterlimit="10" stroke-width=".39718" d="M411.50781 128.2539c.9336-1.14843.98047-2.22656.70703-3.07421.72657.51953 1.76563.80078 3.14453.26562"/><g fill="#00ADEF"><use xlink:href="#b" x="442.0062" y="160.22432"/><use xlink:href="#c" x="455.32241" y="160.22432"/><use xlink:href="#d" x="468.30348" y="160.22432"/><use xlink:href="#e" x="479.20669" y="160.22432"/><use xlink:href="#f" x="485.06046" y="160.22432"/></g><g fill="#00ADEF"><use xlink:href="#g" x="500.56625" y="160.22432"/><use xlink:href="#h" x="512.67595" y="160.22432"/><use xlink:href="#i" x="525.23252" y="160.22432"/><use xlink:href="#j" x="532.44919" y="160.22432"/><use xlink:href="#k" x="545.16215" y="160.22432"/></g><use xlink:href="#l" x="184.72232" y="194.85669"/><use xlink:href="#m" x="364.954" y="159.99009"/><use xlink:href="#n" x="310.13186" y="160.42765"/><use xlink:href="#o" x="321.34956" y="165.34352"/><use xlink:href="#p" x="332.65248" y="160.42765"/><use xlink:href="#q" x="341.23205" y="160.42765"/><use xlink:href="#r" x="354.52592" y="160.42765"/><use xlink:href="#m" x="541.72104" y="31.14781"/><use xlink:href="#q" x="555.65832" y="17.99197"/><use xlink:href="#m" x="300.17653" y="243.45126"/><use xlink:href="#s" x="286.48545" y="230.29642"/><path fill="none" stroke="#000" stroke-dasharray="2.9790565259 2.9790565259" stroke-miterlimit="10" stroke-width=".3972" d="M458.4688 275.22658 283.4961 34.72654m87.37893 120.10549L547.7696 26.12888M306.22268 238.4375l64.77735-83.46485"/></svg>