<svg xmlns="http://www.w3.org/2000/svg" xmlns:xlink="http://www.w3.org/1999/xlink" width="826.358" height="454.452" viewBox="0 0 826.358 454.452"><defs><path id="b" d="M1.90625-5.9375c0 2.42188 1.76563 4.1875 4.20313 4.1875 2.35937 0 4.125-1.76562 4.125-4.1875 0-2.34375-1.76563-4.10937-4.125-4.10937-2.4375 0-4.20313 1.76562-4.20313 4.10937m0 0"/><path id="c" d="M1.48438-2.26562C1.48438-1 2.0625.25 3.5.25c2.25 0 4.20313-2.59375 5.4375-4.75h.04688l-.71875 2.39063c-.14063.46875-.23438.875-.23438 1.21875C8.03125-.15626 8.39063.25 9.1875.25c1.57813 0 2.76563-1.4375 3.48438-3.03125l-.48438-.28125c-.39062.73438-1.32812 2.21875-1.90625 2.21875-.25 0-.34375-.15625-.34375-.40625 0-.20312.07813-.45312.14063-.75l2.21875-8.39062h-1.76563l-.09375.26562c-.35937-.23437-.98437-.4375-1.54687-.4375-5.01563 0-7.40625 5.53125-7.40625 8.29688M3.5625-2.3125c0-2.29687 2.0625-7.51562 5.375-7.51562.51563 0 .95313.17187 1.26563.46875-.375 1.5625-1.10938 3.65625-2.23438 5.32812-1.1875 1.79688-2.48437 3.1875-3.48437 3.1875-.70313 0-.92188-.64062-.92188-1.46875m0 0"/><path id="d" d="m1.5625-13.95312.85938.09375c.48437.0625.67187.25.78125 1 .25 1.9375.48437 4.01562.76562 6.125L4.85938 0H6.3125l4.25-7.25c1.375-2.32812 2.67188-4.48437 3.51563-5.78125.46875-.71875.79687-.82812 1.90625-.92187l.10937-.59375h-4.625l-.10937.59375 1.15625.09375c.25.01562.35937.10937.35937.29687 0 .35938-1.5625 3.15625-3.34375 6.21875L6.51563-2.10937 5.75-7.70312c-.23437-1.85938-.64062-5.26563-.64062-5.6875 0-.25.07812-.40625.375-.45313l1.34375-.10937.10937-.59375H1.67188Zm0 0"/><path id="e" d="M-.45312 3.875c.03125.6875.95312 1.20313 1.9375 1.20313 2.09375 0 3-1.70313 3.85937-5.73438l1.95313-8.85937h2.67187l.20313-.8125H7.4375l.57813-2.375c.40625-1.57813.8125-2.1875 1.39062-2.1875.5625 0 .9375.46875 1.40625 1.48437.10938.20313.26563.35938.57813.35938.4375 0 1.03125-.39063 1.03125-.92188 0-.90625-1.14063-1.64062-2.39063-1.64062-2.48437 0-3.51562 1.75-4.32812 4.53125l-.21875.75h-1.8125l-.25.8125H5.3125L2.85938 2.89063c-.23438 1.29687-.46875 1.4375-.67188 1.4375-.21875 0-.54687-.15625-1.10937-1.03125-.15626-.20313-.29688-.46875-.5625-.46875-.46875 0-.96875.51562-.96875 1.04687m0 0"/><path id="f" d="M1.8125-5.9375c0 4.75 1.07813 9.96875 5.53125 10.14063v-.625C5.84375 3.29688 3.5 1.4375 3.5-5.9375c0-7.3125 2.23438-9.17187 3.84375-9.51562v-.625C2.89063-15.89062 1.8125-10.6875 1.8125-5.9375m0 0"/><path id="g" d="M1.25 3.57813v.625C5.70313 4.03125 6.78125-1.1875 6.78125-5.9375S5.70313-15.89062 1.25-16.07812v.625c1.60938.34375 3.85938 2.20312 3.85938 9.51562 0 7.375-2.35938 9.23438-3.85938 9.51563m0 0"/><path id="h" d="m1.5625-13.95312.92188.09375c.46875.04687.5625.26562.60937.89062L4.03125 0h1.48438l5.75-11.59375h.10937L12.46875 0h1.45313l3.67187-7.51562c1.1875-2.40625 2.26563-4.53125 2.64063-5.1875.59374-1 .75-1.10938 2.04687-1.25l.09375-.59375h-4.70312l-.125.59375 1.375.14062c.20312.01563.3125.125.3125.28125 0 .34375-1.23438 3-2.51563 5.67188l-2.51562 5.28125h-.09375l-1.07813-11.625h-1.48437l-5.6875 11.625H5.75l-.6875-10.75c0-.35938.15625-.48438.45313-.51563l1.35937-.10937.14063-.59375H1.67188Zm0 0"/><path id="m" d="M1.71875-3.60937c0 2.84375 2.09375 3.92187 5.125 3.92187 2.875 0 5.5-.60937 6.65625-5.5l1.79688-7.625c.17187-.71875.35937-1 .89062-1.04687l1.17188-.09375.125-.59375h-5.75l-.15625.59375 1.23437.09375c.35938.01562.53125.20312.53125.57812 0 .14063-.01562.29688-.0625.46875l-1.70312 7.34375c-.65625 2.79688-1.6875 5.04688-4.60938 5.04688-1.85937 0-3.15625-.8125-3.15625-3.14063 0-.57812.07813-1.29687.26563-2.10937L5.75-12.8125c.1875-.71875.34375-1 .875-1.04687l1.17188-.09375.125-.59375h-5.75l-.15625.59375 1.25.09375c.35937.01562.51562.20312.51562.5625 0 .125-.01562.28125-.0625.48437L1.95313-5.39062c-.15626.67187-.23438 1.25-.23438 1.78125m0 0"/><path id="i" d="M1.1875-3.67187h8.21875v-.96875H1.1875Zm0 0"/><path id="j" d="M1.59375 0h4.9375v-.45312L5.35938-.5625C5.03125-.59375 4.875-.70312 4.875-1.25v-8.6875l-.09375-.07812-3.17187.53125v.39062l1.28125.17188c.28125.04687.375.15625.375.60937V-1.25c0 .54688-.14063.65625-.48438.6875l-1.1875.10938Zm0 0"/><path id="k" d="M1.875 2.95313h1V-11.25h-1Zm0 0"/><path id="l" d="m.75-9.73437.5625.0625c.32813.04687.45313.20312.53125.70312.15625 1.26563.32813 2.73438.51563 4.29688L2.96875 0h1.20313l2.90625-5.03125C8.03125-6.64062 8.92188-8.15625 9.5-9.04687c.29688-.46875.48438-.625 1.32813-.6875l.09375-.45313h-3.3125l-.07813.45313.82813.0625c.17187.01562.25.07812.25.20312 0 .28125-1.125 2.3125-2.25 4.28125L4.3125-1.59375l-.48437-3.82812c-.14063-1.0625-.4375-3.64063-.4375-3.92188 0-.17187.0625-.28125.26562-.3125l.92188-.07812.09375-.45313H.82813Zm0 0"/><clipPath id="a"><path d="M.17578 69H353v375H.17578Zm0 0"/></clipPath></defs><path fill="#007F7F" fill-opacity=".05" d="M76.64844 113.35938s38.95703-28.14063 63.70312-31.85547c24.75-3.71094 36.48047 6.55468 63.70313 12.74218 27.22265 6.1875 57.88281 3.02344 76.44531 19.11329 18.5625 16.08593 9.21094 32.76562 19.10938 63.70312 9.90234 30.9336 25.66796 52.2461 31.85156 95.55469 6.1875 43.3086 18.5625 96.47265 0 127.40625-18.5586 30.9336-46.0586 31.85156-95.55469 31.85156-49.4961 0-115.94922-7.10547-159.25781-31.85156-43.3086-24.75-51.32813-58.4336-63.70313-95.55469-12.375-37.1211-12.375-58.4336 0-95.55469 12.375-37.125 63.70313-95.55468 63.70313-95.55468"/><g clip-path="url(#a)"><path fill="none" stroke="#000" stroke-miterlimit="10" stroke-width=".79605" d="M76.64834 113.35931s38.95704-28.14063 63.70315-31.85548c24.75-3.71094 36.48048 6.55469 63.70315 12.7422 27.22266 6.1875 57.88283 3.02343 76.44534 19.11328 18.5625 16.08595 9.21094 32.76564 19.10938 63.70315 9.90235 30.9336 25.66798 52.24612 31.85158 95.55473 6.1875 43.3086 18.5625 96.4727 0 127.4063-18.5586 30.9336-46.05861 31.85157-95.55473 31.85157-49.49611 0-115.94926-7.10547-159.25787-31.85157-43.30861-24.75001-51.32815-58.43362-63.70315-95.55473-12.375-37.1211-12.375-58.43361 0-95.55472 12.375-37.12502 63.70315-95.55473 63.70315-95.55473"/></g><path fill="#007F7F" fill-opacity=".05" stroke="#000" stroke-miterlimit="10" stroke-width=".79605" d="M522.5743 208.91404s31.88282-66.918 63.70315-95.55473c31.81641-28.64063 31.88282-27.06642 63.70314-19.11329 31.81642 7.95313 39.83986 14.3711 63.70316 50.96487 23.86329 36.58985 15.9414 63.7344 31.85157 95.55472 15.91016 31.81642 15.94141 7.98829 31.85158 31.85158s47.76173 31.88282 31.85157 63.70315c-15.91016 31.81642-39.8711 39.83986-95.55472 63.70315s-87.63285 39.8047-127.4063 31.85157c-39.77346-7.95313-15.94142-8.01953-31.85158-63.70315-15.91016-55.68361-31.85157-159.25787-31.85157-159.25787"/><path fill="#007F7F" fill-opacity=".2" stroke="#000" stroke-miterlimit="10" stroke-width=".79605" d="M126.66398 333.53518s-30.1836-21.50782-41.52345-39.66408c-11.33594-18.15235-10.5586-18.05079-3.87891-33.02735 6.67969-14.97657 10.53516-18.3672 30.62501-26.94142s32.76955-2.3164 49.81643-7.39063c17.05079-5.07031 5.32031-7.15625 18.44922-12.91797 13.13282-5.76172 19.84767-20.75001 34.13283-10.15235 14.28907 10.59766 16.15626 23.09376 23.07423 52.58205 6.91406 29.4922 11.9922 46.6094 4.6211 65.50003-7.3672 18.89454-5.33204 7.15625-34.13283 10.15625s-81.18363 1.85547-81.18363 1.85547"/><use xlink:href="#b" x="138.12967" y="285.05127"/><use xlink:href="#c" x="137.62627" y="271.86817"/><use xlink:href="#d" x="191.02988" y="296.97989"/><path fill="#007F7F" fill-opacity=".2" stroke="#000" stroke-miterlimit="10" stroke-width=".79605" d="M618.12902 256.6914s15.94141-19.92188 31.85157-31.85158c15.91017-11.9336 15.94142-15.92578 31.85158-15.92578s19.91798 3.99219 31.85158 15.92578c11.9336 11.9297 7.97266 15.94142 15.92578 31.85158 7.95313 15.91016 15.92579 11.96485 15.92579 31.85158s-.01562 31.8672-15.92579 47.77736-23.91407 15.92579-47.77736 15.92579-23.91407-7.97266-47.77736-15.9258c-23.8633-7.95703-35.84767 3.96095-47.77736-15.92578-11.9336-19.88673-7.95704-47.79299 0-63.70315 7.95312-15.91016 31.85157 0 31.85157 0"/><use xlink:href="#b" x="667.80796" y="293.568"/><use xlink:href="#e" x="651.66542" y="275.54973"/><use xlink:href="#f" x="664.80773" y="275.54973"/><use xlink:href="#c" x="673.40508" y="275.54973"/><use xlink:href="#g" x="687.46534" y="275.54973"/><use xlink:href="#h" x="606.94135" y="303.78069"/><path fill="none" stroke="#000" stroke-miterlimit="10" stroke-width=".39802" d="M140.35149 145.21089c140.5313-140.5313 369.0978-140.5313 509.34786-.28125"/><path fill="none" stroke="#000" stroke-linecap="round" stroke-linejoin="round" stroke-miterlimit="10" stroke-width=".39802" d="M650.0664 141.91797c-.74609 1.27734-.6289 2.35156-.22656 3.15234-.79687-.40625-1.87109-.52344-3.15234.22266"/><path fill="none" stroke="#000" stroke-miterlimit="10" stroke-width=".39802" d="M140.63274 304.75001c140.25005 140.25006 368.81655 140.25006 509.34785-.28125"/><path fill="none" stroke="#000" stroke-linecap="round" stroke-linejoin="round" stroke-miterlimit="10" stroke-width=".39802" d="M140.26953 307.76172c.74219-1.28125.625-2.35547.22266-3.15235.79687.40235 1.8711.51954 3.15234-.22656"/><use xlink:href="#e" x="388.95221" y="23.06718"/><use xlink:href="#e" x="378.65163" y="436.27392"/><use xlink:href="#i" x="391.79379" y="427.31622"/><use xlink:href="#j" x="402.38824" y="427.31622"/><use xlink:href="#k" x="386.6003" y="443.49446"/><use xlink:href="#l" x="391.349" y="443.49446"/><use xlink:href="#m" x="163.76476" y="407.14105"/></svg>