<svg xmlns="http://www.w3.org/2000/svg" xmlns:xlink="http://www.w3.org/1999/xlink" width="524.554pt" height="361.262pt" viewBox="0 0 524.554 361.262"><defs><path id="a" d="M.45313-.54687c0 .39062.32812.70312.89062.70312.95313 0 1.48438-.95312 2.0625-1.89062l.57813-.92188h.03125l.25 1.10938C4.53125-.4375 4.78125.15624 5.5.15624c1.03125 0 1.5625-1.04687 1.98438-1.90625L7.125-1.9375c-.34375.625-.73437 1.375-1.125 1.375-.26562 0-.35937-.3125-.67187-1.5625L4.875-3.96875c.5-.89062 1.21875-2.01562 1.625-2.01562.42188 0 .4375.23437.84375.23437.3125 0 .59375-.29687.59375-.67187 0-.4375-.32812-.60938-.70312-.60938-.75 0-1.375.67188-1.875 1.45313L4.75-4.625h-.03125l-.5625-2.34375-.07812-.0625-2.29688.70313L1.79688-6l1.10937-.0625c.21875 0 .32813.09375.46875.70313l.48438 2.01562-.39063.67188C2.875-1.64062 2.35938-.90625 2.01563-.90625 1.60938-.90625 1.5-1.25 1.0625-1.25c-.35937 0-.60937.35938-.60937.70313m0 0"/><path id="c" d="M0 2.625c0 .375.42188.76563 1.03125.76563 1.1875 0 1.70313-.89063 2.9375-3.01563.28125-.48437 1.125-1.95312 2-3.39062.79688-1.3125 1.67188-2.65625 1.67188-3.23438 0-.48437-.14063-.78125-.25-.78125-.26563 0-.75.10938-1.09375.35938 0 0-.04688 1.42187-.1875 1.92187-.21875.78125-1.04688 2.3125-1.96875 3.90625h-.04688C4-3 3.71875-5.95312 3.53125-6.96875l-.10937-.0625-2.34375.67188L1.125-6l.96875-.03125c.28125 0 .34375.23438.45313.95313C2.70313-4 3.01563-1.29687 3.01563-.17187c0 .40625-.01563.98437-.32813 1.71875-.25.57812-.60937 1-.90625 1-.5 0-.5625-.76563-1.0625-.76563C.35938 1.78125 0 2.21875 0 2.625m0 0"/><path id="e" d="M1.1875-2h7.71875v-.8125H1.1875Zm0-3.07812h7.71875v-.82813H1.1875Zm0 0"/><path id="f" d="m.35938-5.01562.32812.21875c.35938-.71875 1-1.46875 1.3125-1.46875.14063 0 .21875.14062.21875.40625 0 .65625-.54687 2.57812-.54687 3.42187 0 1.85938.73437 2.59375 2.54687 2.59375 0 .14063-.5 2.92188-.5 3.10938.03125.125.0625.125.23438.125.17187 0 .20312 0 .29687-.09375.0625-.07813.54688-2.09375.8125-3.14063 1.42188 0 2.60938-1.10937 3.23438-2.29687.875-1.64063.875-3.92188 2.39062-4.57813 0-.07812-.0625-.3125-.0625-.3125-.5625 0-1.3125.0625-1.89062.60938-.71875.67187-.51563 3.96875-1.9375 5.21875-.90625.78125-1.125.8125-1.57813.8125 0 0 1.57813-6.5 1.89063-7.53125-.23438 0-1.17188.29687-1.4375.40625-.28125 1.60937-1.34375 7.125-1.34375 7.125-1.14063 0-1.34375-.4375-1.34375-1.9375 0-1.04688.53125-2.46875.53125-3.70313 0-.5625-.15625-1-.73438-1-1.01562 0-2 .76563-2.42187 2.01563m0 0"/><path id="h" d="M1.20313-3.95312c0 3.15625.71875 6.64062 3.6875 6.75v-.40625c-1-.20313-2.5625-1.4375-2.5625-6.34375 0-4.875 1.48437-6.10938 2.5625-6.32813v-.42187c-2.96875.125-3.6875 3.59375-3.6875 6.75m0 0"/><path id="i" d="M.82813 2.39063v.40625c2.96875-.10938 3.6875-3.59375 3.6875-6.75s-.71875-6.625-3.6875-6.75v.42187c1.07812.21875 2.57812 1.45313 2.57812 6.32813 0 4.90625-1.57812 6.14062-2.57812 6.34375m0 0"/><path id="j" d="M.59375-2.71875C.59375-1.0625 1.875.0625 3.54688.15625l-.6875 3.23438L4.20313 3 4.8125.15625c2.75-.14062 4.67188-2.48437 4.67188-4.95312 0-1.76563-1.09375-2.23438-2.35938-2.23438-1.1875 0-2.26562 1.39063-2.625 2.95313-.29687 1.28125-.625 2.64062-.82812 3.6875-1.32813-.09375-1.76563-.79688-1.76563-1.82813 0-1.5.4375-3.03125 1.625-4.40625l-.14062-.26562C1.42188-5.84375.59375-4.46875.59375-2.71875m4.32813 2.375.85937-3.98437c.20313-.89063.64063-2.21875 1.51563-2.21875.64062 0 .82812.73437.82812 1.53125 0 2.125-.82812 4.60937-3.20312 4.67187m0 0"/><path id="g" d="M1.0625 0h3.29688v-.29687L3.5625-.375C3.34375-.39062 3.25-.46875 3.25-.82812V-6.625l-.0625-.04687-2.10937.35937v.26563l.84375.10937c.1875.03125.25.10938.25.40625v4.70313c0 .35937-.09375.4375-.32813.45312l-.78125.07813Zm0 0"/><path id="k" d="M.79688-2.4375h5.46875v-.65625H.79688Zm0 0"/><path id="l" d="M.28125-.10937.39063 0h4.15625l.35937-1.40625-.29687-.04687c-.21875.53125-.40625.59375-.79688.59375H1.29688c.17187-.46875.6875-1.125 1.64062-1.76563.98438-.65625 1.70313-1.125 1.70313-2.20312 0-1.35938-.9375-1.84375-2.01563-1.84375-1.34375 0-2.10937.78125-2.10937 1.375 0 .34375.40625.51562.625.51562.1875 0 .28124-.10937.32812-.29687.15625-.6875.51563-1.21875 1.09375-1.21875.6875 0 .90625.59375.90625 1.29687 0 .95313-.4375 1.57813-1.34375 2.375C.85938-1.5625.42188-.84375.28125-.10937m0 0"/><clipPath id="b"><path d="M269 20h1v340.52734h-1Zm0 0"/></clipPath><clipPath id="d"><path d="M88 76h370v284.52734H88Zm0 0"/></clipPath></defs><path fill="none" stroke="#000" stroke-miterlimit="10" stroke-width=".39769" d="M15.1993 317.69531h466.37094"/><path fill="none" stroke="#000" stroke-linecap="round" stroke-linejoin="round" stroke-miterlimit="10" stroke-width=".39769" d="M479.69922 315.3086c.3789 1.43359 1.21875 2.10937 2.0664 2.38671-.84765.27735-1.6875.95313-2.0664 2.38672"/><use xlink:href="#a" x="487.23245" y="321.13198"/><g clip-path="url(#b)"><path fill="none" stroke="#000" stroke-miterlimit="10" stroke-width=".39769" d="M269.79688 360.1289V21.05868"/></g><path fill="none" stroke="#000" stroke-linecap="round" stroke-linejoin="round" stroke-miterlimit="10" stroke-width=".39769" d="M267.41406 22.92578c1.4297-.375 2.10547-1.21875 2.38282-2.0664.28124.84765.95703 1.6914 2.38671 2.0664"/><use xlink:href="#c" x="265.54033" y="12.00947"/><g clip-path="url(#d)"><path fill="none" stroke="#007f7f" stroke-miterlimit="10" stroke-width=".79538" d="M163.71488 146.26177c6.80468 4.76563 14.85546 7.03906 21.21484 1.69922 70.207-70.207 212.64055-89.98434 254.60148 0 25.3164 54.28514-25.875 116.8984-84.86717 127.30074-67.27732 11.86328-102.45309-54.29686-169.73431-42.43358-58.98827 10.40234-84.86326 67.40232-84.86326 127.30074"/></g><path fill="none" stroke="#000" stroke-miterlimit="10" stroke-width=".39769" d="m163.42191 233.09378-46.08983 41.89842"/><path fill="none" stroke="#000" stroke-linecap="round" stroke-linejoin="round" stroke-miterlimit="10" stroke-width=".39767" d="M160.4336 232.58594c1.24218.80469 2.3203.74219 3.1328.375-.4375.77734-.60546 1.84375.07813 3.15625m-43.32422 39.38671c-1.24218-.80859-2.3203-.74218-3.13672-.375.44141-.77734.60938-1.84375-.07421-3.15625"/><use xlink:href="#a" x="5.283" y="245.47903"/><use xlink:href="#e" x="17.04974" y="245.47903"/><use xlink:href="#f" x="30.0394" y="245.47903"/><use xlink:href="#g" x="40.07343" y="248.76032"/><use xlink:href="#h" x="46.26178" y="245.47903"/><use xlink:href="#a" x="51.98857" y="245.47903"/><use xlink:href="#i" x="60.86209" y="245.47903"/><use xlink:href="#e" x="69.4821" y="245.47903"/><use xlink:href="#j" x="82.47175" y="245.47903"/><use xlink:href="#k" x="92.84961" y="239.51371"/><use xlink:href="#g" x="99.90668" y="239.51371"/><use xlink:href="#g" x="91.79127" y="248.76032"/><use xlink:href="#h" x="106.09456" y="245.47903"/><use xlink:href="#c" x="112.71615" y="245.47903"/><use xlink:href="#i" x="121.23175" y="245.47903"/><use xlink:href="#c" x="5.283" y="263.37497"/><use xlink:href="#e" x="16.69182" y="263.37497"/><use xlink:href="#j" x="29.68147" y="263.37497"/><use xlink:href="#g" x="39.00012" y="266.65626"/><use xlink:href="#h" x="45.18848" y="263.37497"/><use xlink:href="#a" x="50.91526" y="263.37497"/><use xlink:href="#i" x="59.78879" y="263.37497"/><path fill="none" stroke="#000" stroke-miterlimit="10" stroke-width=".39769" d="M308.3867 276.96095h58.60936"/><path fill="none" stroke="#000" stroke-linecap="round" stroke-linejoin="round" stroke-miterlimit="10" stroke-width=".39769" d="M310.2539 279.34375c-.375-1.42969-1.21874-2.10547-2.0664-2.38281.84766-.28125 1.6914-.95703 2.0664-2.38672m54.875 0c.37891 1.42969 1.21876 2.10547 2.06641 2.38672-.84765.27734-1.6875.95312-2.0664 2.3828"/><use xlink:href="#c" x="307.57546" y="295.89653"/><use xlink:href="#e" x="318.98429" y="295.89653"/><use xlink:href="#j" x="331.97394" y="295.89653"/><use xlink:href="#l" x="341.29258" y="299.17633"/><use xlink:href="#h" x="347.48094" y="295.89653"/><use xlink:href="#a" x="353.20772" y="295.89653"/><use xlink:href="#i" x="362.08125" y="295.89653"/><path fill="none" stroke="#000" stroke-miterlimit="10" stroke-width=".39769" d="M446.32026 206.96879v-58.60936"/><path fill="none" stroke="#000" stroke-linecap="round" stroke-linejoin="round" stroke-miterlimit="10" stroke-width=".39769" d="M448.70703 205.10156c-1.42969.3789-2.10547 1.21875-2.38672 2.0664-.27734-.84765-.95312-1.6875-2.38281-2.0664m0-54.875c1.42969-.375 2.10547-1.21875 2.38281-2.0664.28125.84765.95703 1.6914 2.38672 2.0664"/><use xlink:href="#a" x="456.98325" y="181.32758"/><use xlink:href="#e" x="468.74999" y="181.32758"/><use xlink:href="#f" x="481.73965" y="181.32758"/><use xlink:href="#l" x="491.77368" y="184.60887"/><use xlink:href="#h" x="497.96203" y="181.32758"/><use xlink:href="#c" x="504.58362" y="181.32758"/><use xlink:href="#i" x="513.09923" y="181.32758"/></svg>