<svg xmlns="http://www.w3.org/2000/svg" xmlns:xlink="http://www.w3.org/1999/xlink" width="242.914pt" height="256.85pt" viewBox="0 0 242.914 256.85"><defs><path id="c" d="M1.26563-3.95312c0 1.60937 1.1875 2.78125 2.8125 2.78125 1.5625 0 2.75-1.17188 2.75-2.78125 0-1.57813-1.1875-2.75-2.75-2.75-1.625 0-2.8125 1.17187-2.8125 2.75m0 0"/><path id="o" d="M0 0h3.84375l.07813-.40625-.82813-.0625C2.85938-.48437 2.75-.60937 2.75-.84375c0-.07812.01563-.20312.04688-.32812l.875-3.89063h.03125c.64062 1.3125 1.32812 2.71875 2.1875 3.875C6.5625-.26562 7.17188.03125 8.25.0625l.6875.01563.09375-.42188c-.79687-.07812-1.125-.45312-1.64062-1.07812-.9375-1.17188-1.89063-2.875-2.46875-4.125 1.26562-1.0625 2.42187-2.03125 3.71875-2.92188.79687-.5625 1.125-.76562 2.26562-.84375l.0625-.39062h-3.5l-.0625.39062.54688.04688c.14062.01562.1875.07812.1875.17187 0 .07813-.07813.17188-.20313.29688l-4.15625 3.5625h-.0625l.75-3.3125c.10938-.4375.23438-.67188.59375-.70313l.78125-.0625.09375-.39062H2.09375l-.10937.39062.84375.0625c.23437.01563.34375.17188.34375.39063 0 .09375-.01563.20312-.04688.3125l-1.6875 7.375c-.10937.45312-.25.65625-.59375.67187l-.76562.09375Zm0 0"/><path id="p" d="M.15625 0h7.3125l.71875-2.46875h-.42187C7.04688-.73437 6.42188-.5 4.6875-.5c-1.65625 0-1.75-.20312-1.75-.57812 0-.14063.04688-.35938.10938-.64063l.71875-3.07812h1.82812c1.04688 0 1.25.21875 1.25.82812 0 .10938 0 .23438-.01562.39063H7.25l.65625-2.9375h-.4375c-.35937.96875-.51562 1.20312-1.75 1.20312H3.89063l.78125-3.5c.07812-.34375.17187-.42187.40625-.42187h1.6875c1.375 0 1.65625.35937 1.65625 1.125 0 .34375-.04688.73437-.04688.73437h.42188l.53125-2.32812H2.21875L2.125-9.3125l.84375.0625c.25.01563.34375.125.34375.34375q0 .14063-.04687.32813L1.59375-1.17187c-.10937.48437-.23437.65625-.57812.67187l-.79688.09375Zm0 0"/><path id="d" d="M.25-.3125c0 .21875.1875.39063.5.39063.46875 0 .73438-.42188 1-.89063l.26563-.45312h.01562l.125.51562c.10938.51563.25.82813.64063.82813C3.39063.07813 3.71875-.5 3.92188-1l-.1875-.09375C3.5625-.75 3.34375-.375 3.15625-.375c-.125 0-.17187-.14062-.29687-.625l-.26563-1.04687c.23438-.40625.51563-.85938.71875-.85938.20313 0 .26563.14063.48438.14063.17187 0 .32812-.1875.32812-.40625 0-.25-.17187-.35938-.39062-.35938-.34375 0-.64063.26563-.89063.65625l-.3125.5h-.01562l-.25-1.125-.04688-.03125-1.29687.35938.01562.1875.5-.03125c.14063 0 .1875.04687.25.29687l.25 1.0625-.1875.35938c-.23437.4375-.46875.76562-.625.76562-.20312 0-.28125-.20312-.51562-.20312C.42188-.73437.25-.53125.25-.3125m0 0"/><path id="e" d="M.28125-2.34375C.28125-1 .70313.07813 1.92188.07813 3.15625.07813 3.57813-1 3.57813-2.34375c0-1.35937-.42188-2.42187-1.65625-2.42187-1.21875 0-1.64063 1.0625-1.64063 2.42187m.89063 0c0-.98437.125-2.15625.75-2.15625s.76562 1.17188.76562 2.15625c0 .98438-.14062 2.15625-.76562 2.15625s-.75-1.17187-.75-2.15625m0 0"/><path id="f" d="M.82813-.46875c0 .32813.14062.54688.53125.54688.71875 0 1.39062-.73438 1.82812-1.54688h.01563l-.21875.79688c-.04688.125-.0625.21874-.0625.32812 0 .26563.15625.42188.4375.42188.57812 0 1-.5 1.26562-1.04688l-.17187-.125C4.29688-.8125 4-.375 3.82813-.375c-.09375 0-.125-.0625-.125-.14062 0-.0625.01562-.14063.03125-.20313l.73437-2.8125-.79687.09375c-.20313.71875-.3125 1.09375-.48438 1.48438C2.90625-1.29687 2.3125-.375 1.84375-.375c-.14062 0-.20312-.07812-.20312-.23437q0-.1172.04687-.28126l.67188-2.59375-.04688-.04687-1.4375.20313-.04687.1875.4375.04687q.14061 0 .14062.14063 0 .0703-.04687.1875L.89063-.9375c-.04688.17188-.0625.32813-.0625.46875m0 0"/><path id="g" d="M.67188.07813 1.46875 0c.20313-.71875.32813-1.09375.5-1.51562.23438-.5625.89063-1.54688 1.35938-1.54688.15625 0 .21875.09375.21875.23438 0 .0625-.01563.14062-.03125.21875L2.9375-.67187c-.03125.10937-.04687.21874-.04687.3125 0 .28125.15625.4375.46875.4375.59375 0 1-.5 1.26562-1.0625l-.1875-.10938C4.28125-.8125 4-.375 3.8125-.375c-.07812 0-.10937-.04687-.10937-.14062 0-.0625.01562-.14063.03125-.21876l.54687-1.78124c.04688-.15625.07813-.29688.07813-.42188 0-.34375-.17188-.59375-.59375-.59375-.6875 0-1.375.75-1.79688 1.57813H1.9375l.45313-1.53125-.03125-.04688-1.4375.20313-.0625.20312.4375.03125q.14061.02344.14062.14063c0 .04687-.01562.10937-.03125.1875Zm0 0"/><path id="h" d="M.76563 0h2.39062v-.23437l-.54687-.04688c-.15625-.01562-.23438-.0625-.23438-.3125v-4.14062l-.04687-.03125-1.54688.25v.20312l.5625.07813c.14063.01562.1875.07812.1875.3125v3.32812c0 .25-.0625.29688-.23437.3125l-.53125.04688Zm0 0"/><path id="i" d="M0 1.28125c0 .25.14063.42188.5625.42188.65625 0 .96875-.5 1.5625-1.51563.14063-.23437.54688-.98437.98438-1.6875.40625-.67187.82812-1.35937.82812-1.64062 0-.20313-.07812-.39063-.125-.39063-.15625 0-.42187.0625-.64062.1875 0 0-.01563.6875-.07813.96875-.10937.42188-.42187 1.07813-.89062 1.90625h-.03125C2.14063-1.53125 2-3.04687 1.90625-3.5l-.04687-.03125-1.34375.34375L.53125-3H1c.14063 0 .1875.10938.23438.45313.09374.54687.28124 1.90625.28124 2.53125 0 .23437-.01562.5-.14062.79687-.09375.28125-.25.45313-.375.45313-.26562 0-.3125-.4375-.59375-.4375-.20312 0-.40625.25-.40625.48437m0 0"/><path id="j" d="M.21875-.09375.29688 0h3.03125l.26562-1.0625-.21875-.03125c-.17187.375-.29687.42188-.57812.42188H1.01563c.10937-.3125.4375-.76563 1.14062-1.20313.73438-.48437 1.23438-.8125 1.23438-1.57812 0-.96875-.67188-1.3125-1.48438-1.3125-.9375 0-1.53125.51562-1.53125 1 0 .26562.3125.39062.48438.39062.14062 0 .20312-.07812.25-.21875.10937-.51562.35937-.90625.75-.90625.46875 0 .625.40625.625.90625 0 .625-.26563 1.09375-.95313 1.6875C.625-1.125.29688-.60937.21875-.09375m0 0"/><path id="k" d="M.54688-1.73437H4.5v-.5H.54688Zm0 0"/><path id="l" d="M-.23437 0h2.84375l.07812-.35937-.70312-.07813c-.15626 0-.21876-.09375-.21876-.20312 0-.07813.01563-.17188.0625-.26563.42188-.79687.8125-1.625 1.29688-2.46875h2.82813l.3125 2.60938s-.07813.3125-.34375.32812L5.25-.35937 5.1875 0h3.10938L8.375-.35937l-.48437-.04688C7.5-.4375 7.4375-.625 7.375-1.14062l-.92187-7.59375h-.90625l-2.125 3.71875C2.78125-3.89062 1.73438-2 1.26563-1.25.85938-.59375.64063-.45312.25-.42187l-.40625.0625ZM3.375-3.85937 5.42188-7.5625l.46875 3.70313Zm0 0"/><path id="n" d="M0 0h3.82813C6.875 0 7.5-1.57812 7.5-2.625c0-1.32812-.98437-1.90625-1.90625-2.07812l.01563-.03125C7.28125-4.9375 8-5.89062 8-6.84375c0-1.01562-.60937-1.89062-2.9375-1.89062H1.875l-.09375.35937.76563.07813c.20312 0 .29687.09375.29687.29687 0 .07813-.01562.1875-.04687.3125l-1.5 6.64063c-.09376.42187-.20313.5625-.51563.60937L.0625-.35937Zm2.53125-.96875c0-.09375.01563-.1875.03125-.28125l.73438-3.23437h.5c1.25 0 2.34375.35937 2.34375 1.79687 0 1.125-.6875 2.25-2.375 2.25-1 0-1.23438-.20312-1.23438-.53125m.85938-3.96875.65625-2.92187c.09375-.375.15625-.4375 1-.4375 1.0625 0 1.65625.53125 1.65625 1.42187 0 1.3125-1.09375 1.9375-2.5 1.9375Zm0 0"/><path id="m" d="M.3125-.14062c0 .04687.07813.15625.21875.15625.0625 0 .25-.03126.28125-.09375l1.5-3.84375c.0625-.125.0625-.20313.0625-.23438 0-.1875-.29687-.25-.54687-.25-.26563 0-.76563.10938-.79688.29688Zm0 0"/><clipPath id="a"><path d="M4 22h236v234.69922H4Zm0 0"/></clipPath><clipPath id="b"><path d="M.02734 10h242.77344v246.69922H.02734Zm0 0"/></clipPath></defs><g clip-path="url(#a)"><path fill-opacity=".05" d="M47.04688 43.82422s25.98437-18.76953 42.49609-21.2461c16.50781-2.47656 24.33203 4.3711 42.49219 8.5 18.16015 4.125 38.61328 2.01563 50.99609 12.7461 12.38281 10.73437 2.01563 21.85937 12.75 42.4961 10.73047 20.63671 38.36719 34.85156 42.49219 63.74218 4.1289 28.89063-4.73828 64.35547-21.2461 84.99219-16.5078 20.63672-30.72656 21.25-63.74218 21.25-33.01953 0-89.73047-4.74219-106.23828-21.25-16.51172-16.50781 29.5-38.98047 21.24609-63.74219-8.2539-24.76562-59.61719-38.98047-63.74219-63.74219-4.1289-24.76562 42.4961-63.7461 42.4961-63.7461"/></g><g clip-path="url(#b)"><path fill="none" stroke="#000" stroke-miterlimit="10" stroke-width=".79655" d="M47.04693 43.82426s25.98437-18.76953 42.49608-21.2461c16.5078-2.47655 24.33203 4.3711 42.49218 8.5 18.16015 4.125 38.61326 2.01563 50.99607 12.7461 12.3828 10.73437 2.01563 21.85936 12.75 42.49607 10.73046 20.63672 38.36717 34.85156 42.49217 63.74217 4.1289 28.89062-4.73828 64.35545-21.24609 84.99216s-30.72655 21.25-63.74216 21.25c-33.01952 0-89.73044-4.7422-106.23825-21.25-16.51171-16.5078 29.5-38.98046 21.24609-63.74217-8.2539-24.76561-59.61717-38.98045-63.74217-63.74216C.42195 82.8047 47.04693 43.82426 47.04693 43.82426"/></g><path fill="#66e066" fill-opacity=".3" stroke="#000" stroke-miterlimit="10" stroke-width=".79655" d="M89.54301 43.82426s-11.34374.36718-21.24999 12.75c-9.90625 12.3828-42.1289 39.43748-29.74608 50.99607 12.3828 11.55468 68.72653 16.7539 93.48825 8.49609 24.76561-8.2539 42.25389-36.96093 33.99608-50.99217-8.2539-14.03515-76.48826-21.25-76.48826-21.25"/><path fill="#0c0" fill-opacity=".3" stroke="#000" stroke-miterlimit="10" stroke-width=".79655" d="M92.7266 54.44925s-8.5039.27735-15.93358 9.5625c-7.42969 9.28515-31.59765 29.57811-22.30859 38.24608 9.28515 8.66797 51.54295 12.5625 70.11716 6.375 18.57031-6.1914 31.6875-27.72265 25.49609-38.24608-6.1914-10.52734-57.37108-15.9375-57.37108-15.9375"/><path fill="#66e066" fill-opacity=".3" stroke="#000" stroke-miterlimit="10" stroke-width=".79655" d="M134.16018 164.9375s-11.40234 2.07812-23.37108 14.87499c-11.96875 12.79296-50.62889 40.2617-38.24608 50.99217 12.3828 10.73046 74.74997 19.51953 101.98824 4.25 27.24218-15.26953 46.08593-69.24607 38.24609-82.86716-7.83985-13.61718-78.61717 12.75-78.61717 12.75"/><path fill="#0c0" fill-opacity=".3" stroke="#000" stroke-miterlimit="10" stroke-width=".79655" d="M135.75393 175.5625s-8.55077 1.55858-17.52733 11.15233c-8.97656 9.59765-37.97265 30.19921-28.68359 38.24608 9.28516 8.05078 56.05858 14.64062 76.48826 3.1875S200.59767 176.21484 194.71485 166c-5.8789-10.21484-58.96092 9.5625-58.96092 9.5625"/><use xlink:href="#c" x="85.503" y="98.17467"/><use xlink:href="#d" x="75.69373" y="95.53021"/><use xlink:href="#e" x="79.97223" y="97.55403"/><use xlink:href="#c" x="81.25348" y="118.57175"/><use xlink:href="#f" x="65.87346" y="115.14775"/><use xlink:href="#g" x="70.65267" y="116.79079"/><use xlink:href="#h" x="75.27447" y="118.81461"/><use xlink:href="#c" x="161.99433" y="183.16403"/><use xlink:href="#i" x="171.31089" y="180.52058"/><use xlink:href="#e" x="174.7154" y="182.54439"/><use xlink:href="#c" x="157.74381" y="166.16596"/><use xlink:href="#f" x="142.36379" y="162.74196"/><use xlink:href="#g" x="147.143" y="164.385"/><use xlink:href="#j" x="151.7663" y="166.40882"/><use xlink:href="#c" x="106.75059" y="121.54702"/><use xlink:href="#f" x="116.06715" y="117.89115"/><use xlink:href="#g" x="120.84636" y="119.91497"/><use xlink:href="#e" x="125.46816" y="121.93879"/><use xlink:href="#k" x="129.76315" y="119.91497"/><use xlink:href="#h" x="134.81126" y="119.91497"/><use xlink:href="#c" x="115.24962" y="136.42033"/><use xlink:href="#f" x="124.56618" y="132.95535"/><use xlink:href="#g" x="129.34539" y="134.5984"/><use xlink:href="#e" x="133.96719" y="136.62071"/><use xlink:href="#l" x="106.18692" y="90.69104"/><use xlink:href="#l" x="153.41134" y="76.34142"/><use xlink:href="#m" x="162.61896" y="70.96556"/><use xlink:href="#n" x="144.62047" y="205.42703"/><use xlink:href="#n" x="142.97543" y="242.92213"/><use xlink:href="#m" x="151.80678" y="237.54477"/><use xlink:href="#o" x="181.33703" y="125.13492"/><use xlink:href="#p" x="105.65323" y="14.68542"/></svg>