<svg xmlns="http://www.w3.org/2000/svg" xmlns:xlink="http://www.w3.org/1999/xlink" width="363.973" height="385.076" viewBox="0 0 363.973 385.076"><defs><path id="b" d="M1.90625-5.92187c0 2.40625 1.76563 4.17187 4.20313 4.17187 2.34375 0 4.10937-1.76562 4.10937-4.17187 0-2.34375-1.76562-4.125-4.10937-4.125-2.4375 0-4.20313 1.78125-4.20313 4.125m0 0"/><path id="n" d="M0 0h5.75l.125-.60937-1.25-.07813c-.35937-.03125-.51562-.23437-.51562-.5625 0-.14062.03125-.3125.07812-.5L5.5-7.57812h.04688C6.5-5.60937 7.53125-3.51562 8.8125-1.76562c1 1.35937 1.92188 1.8125 3.53125 1.85937L13.375.10938l.15625-.625C12.3125-.625 11.82813-1.1875 11.0625-2.125 9.65625-3.89062 8.23438-6.4375 7.35938-8.29687 9.25-9.89062 11-11.34375 12.92188-12.67187c1.20312-.85938 1.70312-1.14063 3.40625-1.26563l.07812-.59375h-5.23437l-.07813.59375.79688.07813c.23437.01562.29687.10937.29687.25 0 .10937-.10937.26562-.3125.4375L5.65625-7.82812H5.5625l1.125-4.96875c.15625-.64063.35938-1 .89063-1.04688L8.75-13.9375l.125-.59375h-5.75l-.15625.59375 1.25.09375c.35938.03125.51563.25.51563.57813 0 .14062-.01563.29687-.0625.46875L2.14063-1.75c-.15625.67188-.35938.96875-.85938 1.01563l-1.17187.125Zm0 0"/><path id="o" d="M.21875 0h10.95313L12.25-3.6875h-.625C10.54688-1.09375 9.60938-.73437 7.01563-.73437c-2.48438 0-2.60938-.3125-2.60938-.875 0-.21876.0625-.53125.15625-.96875l1.07813-4.59375h2.75c1.5625 0 1.84375.3125 1.84375 1.21875 0 .1875 0 .35937-.01563.59375h.625L11.82813-9.75h-.65625c-.53125 1.45313-.75 1.79688-2.60938 1.79688h-2.75L7-13.1875c.10938-.51562.25-.625.60938-.625H10.125c2.0625 0 2.48438.53125 2.48438 1.67188 0 .51562-.0625 1.09375-.0625 1.09375h.625l.78125-3.48438h-10.625l-.15625.59375 1.28125.09375c.35937.03125.51562.1875.51562.51563 0 .14062-.03125.29687-.07812.5L2.39063-1.75c-.17188.71875-.35938.96875-.875 1.01563l-1.1875.125Zm0 0"/><path id="c" d="M.375-.46875c0 .32813.28125.59375.75.59375.70313 0 1.09375-.64062 1.5-1.34375l.39063-.6875h.03125l.17187.78125c.1875.78125.39063 1.25.98438 1.25C5.0625.125 5.5625-.73437 5.875-1.5l-.29687-.14062c-.25.51562-.5625 1.07812-.84375 1.07812-.1875 0-.26563-.20312-.45313-.92187L3.89063-3.0625c.34375-.60937.78125-1.29687 1.0625-1.29687.3125 0 .42187.20312.73437.20312.26563 0 .5-.26562.5-.59375 0-.375-.26562-.53125-.57812-.53125-.53125 0-.98438.39063-1.34375.96875l-.46875.75h-.03125l-.375-1.67187-.0625-.04688-1.9375.53125.01562.28125.73438-.04687c.21875 0 .29687.07812.39062.4375l.375 1.60937-.28125.51563c-.35937.65625-.71875 1.14062-.9375 1.14062-.3125 0-.42187-.29687-.76562-.29687-.29688 0-.54688.3125-.54688.64062m0 0"/><path id="d" d="M.40625-3.51562C.40625-1.48437 1.04688.125 2.89063.125c1.82812 0 2.46875-1.60937 2.46875-3.64062 0-2.01563-.64063-3.64063-2.46875-3.64063-1.84375 0-2.48438 1.625-2.48438 3.64063m1.34375 0c0-1.46875.20313-3.21875 1.14063-3.21875s1.14062 1.75 1.14062 3.21875c0 1.48437-.20312 3.21875-1.14062 3.21875S1.75-2.03125 1.75-3.51562m0 0"/><path id="e" d="M1.23438-.70312c0 .48437.20312.82812.79687.82812C3.125.125 4.125-.98437 4.76563-2.20312h.03125L4.46875-1c-.0625.17188-.07812.32813-.07812.46875 0 .42188.23437.65625.64062.65625.875 0 1.5-.75 1.90625-1.57812l-.26562-.1875C6.4375-1.21875 6-.5625 5.73438-.5625c-.14063 0-.20313-.09375-.20313-.21875 0-.09375.03125-.1875.0625-.29687L6.6875-5.28125l-1.1875.125c-.29687 1.07813-.46875 1.64063-.71875 2.21875-.42187 1-1.32812 2.375-2.03125 2.375-.20312 0-.29687-.125-.29687-.34375 0-.125.03125-.26562.07812-.4375l1-3.875-.0625-.0625-2.15625.29688-.07812.28125.65625.0625c.14062.01562.21874.09375.21874.20312 0 .07813-.03125.17188-.0625.28125l-.71875 2.75q-.09374.375-.09374.70313m0 0"/><path id="f" d="M1 .125 2.1875 0c.3125-1.07812.5-1.64062.75-2.26562.35938-.85938 1.34375-2.32813 2.04688-2.32813.23437 0 .32812.14063.32812.35938 0 .09375-.01562.21875-.04687.32812L4.40625-1c-.04687.15625-.07812.3125-.07812.45313 0 .42187.23437.67187.6875.67187.90625 0 1.51562-.75 1.90625-1.59375l-.28125-.17187C6.42188-1.21875 6-.5625 5.71875-.5625c-.125 0-.17187-.07812-.17187-.20312 0-.09376.03125-.20313.0625-.32813l.8125-2.67187c.0625-.23438.10937-.4375.10937-.64063 0-.5-.25-.875-.875-.875-1.04687 0-2.07812 1.125-2.71875 2.34375h-.04687l.70312-2.28125-.0625-.0625-2.15625.29688-.07812.29687.65625.0625c.14062 0 .20312.07813.20312.1875q0 .1172-.04687.28125Zm0 0"/><path id="g" d="M1.14063 0h3.57812v-.34375l-.79687-.0625C3.6875-.4375 3.5625-.51562 3.5625-.89062v-6.1875l-.07812-.07813-2.32813.39063v.29687L2-6.34375c.21875.03125.29688.125.29688.45313v5c0 .375-.10938.45312-.34375.48437l-.8125.0625Zm0 0"/><path id="h" d="M0 1.92188c0 .35937.20313.625.84375.625.98438 0 1.4375-.75 2.32813-2.25C3.39063-.0625 4-1.1875 4.65625-2.25c.60938-1 1.25-2.03125 1.25-2.45312 0-.3125-.125-.57813-.20312-.57813-.21875 0-.60938.09375-.95313.26563 0 0-.01562 1.04687-.125 1.46875C4.46875-2.9375 4-1.9375 3.29688-.6875H3.25C3.20313-2.29687 3-4.54687 2.85938-5.23437l-.07813-.04688-2 .5.01563.29688L1.5-4.5c.21875 0 .26563.1875.35938.6875.125.8125.40625 2.85938.40625 3.78125 0 .35938-.03125.75-.20313 1.1875-.15625.4375-.375.70313-.57812.70313-.375 0-.4375-.65625-.875-.65625-.3125 0-.60938.35937-.60938.71875m0 0"/><path id="i" d="M.32813-.14062.45313 0h4.53125l.40625-1.59375-.32813-.04687C4.79688-1.07812 4.60938-1 4.1875-1H1.51563c.15624-.48437.65625-1.15625 1.71875-1.8125 1.10937-.71875 1.84375-1.21875 1.84375-2.35937 0-1.46875-1-1.98438-2.21875-1.98438-1.40625 0-2.29688.79688-2.29688 1.5 0 .40625.46875.59375.71875.59375.20313 0 .3125-.10937.375-.32812.17188-.78125.54688-1.34375 1.14063-1.34375.6875 0 .92187.60937.92187 1.35937 0 .92188-.39062 1.64063-1.42187 2.51563C.92188-1.6875.45313-.90625.32813-.14062m0 0"/><path id="j" d="M.84375-2.625h5.875v-.6875h-5.875Zm0 0"/><path id="k" d="M-.35937 0h4.26562l.125-.54687-1.04687-.09376c-.25-.03124-.34375-.14062-.34375-.32812 0-.09375.03125-.23437.09375-.375.625-1.21875 1.23437-2.4375 1.9375-3.70312h4.25L9.375-1.14062s-.09375.45312-.5.5l-1 .09374L7.76563 0h4.65625l.10937-.54687-.71875-.0625c-.57812-.0625-.65625-.3125-.76562-1.09375l-1.39063-11.375H8.3125L5.125-7.5C4.17188-5.8125 2.59375-3 1.89063-1.875 1.28125-.89062.96875-.6875.375-.625l-.60937.07813Zm5.40625-5.78125L8.125-11.32812l.6875 5.54687Zm0 0"/><path id="m" d="M0 0h5.73438c4.5625 0 5.5-2.35937 5.5-3.92187 0-2-1.46875-2.85938-2.85938-3.125l.01563-.03125c2.51562-.3125 3.57812-1.73438 3.57812-3.17188 0-1.51562-.90625-2.82812-4.375-2.82812H2.79688l-.125.54687 1.125.09375c.32812.01563.46875.15625.46875.46875 0 .10938-.04688.28125-.07813.45313L1.95313-1.5625c-.14063.60938-.32813.84375-.78125.89063l-1.07813.125Zm3.78125-1.45312c0-.14063.01563-.28126.0625-.42188L4.9375-6.71875h.73438c1.875 0 3.53125.54688 3.53125 2.6875 0 1.70313-1.03125 3.35938-3.5625 3.35938-1.5 0-1.85938-.29688-1.85938-.78125m1.29688-5.9375.98437-4.375c.14063-.57813.23438-.67188 1.5-.67188 1.59375 0 2.48438.8125 2.48438 2.14063 0 1.96875-1.65625 2.90625-3.75 2.90625Zm0 0"/><path id="l" d="M.5625-.6875C.5625-.625.71875-.5.89063-.5 1-.5 1.1875-.53125 1.21875-.60937l2.25-5.76563c.09375-.1875.09375-.29687.09375-.34375 0-.28125-.40625-.375-.79687-.375-.375 0-.98438.14063-1.01563.39063Zm0 0"/><clipPath id="a"><path d="M.42188 21h363.10156v363.15234H.42188Zm0 0"/></clipPath></defs><path fill-opacity=".05" d="M70.6211 65.6211s38.91015-28.10547 63.6289-31.8125c24.71875-3.71094 36.4375 6.54296 63.6289 12.72265 27.1875 6.17969 57.8125 3.02344 76.35157 19.08984C292.76953 81.6875 277.2539 98.35156 293.3203 129.25s57.44531 52.1836 63.625 95.4414c6.17969 43.25782-7.09375 96.35548-31.8125 127.25391s-46.0039 31.8125-95.4414 31.8125-134.35157-7.09375-159.07032-31.8125 44.17579-58.36328 31.81641-95.4414c-12.35937-37.07813-89.26172-58.36329-95.4414-95.44141-6.1797-37.07812 63.625-95.4414 63.625-95.4414"/><g clip-path="url(#a)"><path fill="none" stroke="#000" stroke-miterlimit="10" stroke-width=".79511" d="M70.62115 65.62113s38.91015-28.10546 63.6289-31.8125c24.71874-3.71093 36.43748 6.54297 63.62888 12.72266 27.1875 6.17969 57.8125 3.02344 76.35155 19.08984s3.02344 32.73046 19.08984 63.6289c16.0664 30.89842 57.4453 52.18357 63.62499 95.44138s-7.09375 96.35544-31.8125 127.25388-46.0039 31.81249-95.44138 31.81249c-49.4375 0-134.35154-7.09375-159.07028-31.8125-24.71875-24.71874 44.17577-58.36326 31.8164-95.44138s-89.2617-58.36327-95.44139-95.44139 63.62499-95.44138 63.62499-95.44138"/></g><path fill="#66E066" fill-opacity=".3" stroke="#000" stroke-miterlimit="10" stroke-width=".79511" d="M134.25004 65.62113s-16.98437.55078-31.8125 19.08984c-14.83202 18.53906-63.0781 59.04686-44.53904 76.35154 18.53905 17.30078 102.90232 25.08594 139.98043 12.72656 37.07812-12.35937 63.2617-55.34373 50.90234-76.35545-12.35938-21.01171-114.53123-31.8125-114.53123-31.8125"/><path fill="#0C0" fill-opacity=".3" stroke="#000" stroke-miterlimit="10" stroke-width=".79511" d="M139.02348 81.52738s-12.73828.41406-23.85937 14.3164c-11.125 13.90625-47.30859 44.28905-33.40624 57.26561 13.90234 12.97656 77.17576 18.8125 104.98435 9.54297s47.4453-41.5078 38.17968-57.26561c-9.26953-15.75781-85.89842-23.85937-85.89842-23.85937"/><path fill="#66E066" fill-opacity=".3" stroke="#000" stroke-miterlimit="10" stroke-width=".79511" d="M201.05862 246.96093s-17.07421 3.10938-34.99609 22.26953c-17.91796 19.15624-75.80076 60.28514-57.2617 76.35154s111.91794 29.22656 152.70309 6.36329 69.0078-103.67967 57.26561-124.0742c-11.74218-20.39062-117.7109 19.08984-117.7109 19.08984"/><path fill="#0C0" fill-opacity=".3" stroke="#000" stroke-miterlimit="10" stroke-width=".79511" d="M203.44534 262.86718s-12.80469 2.33203-26.24609 16.69921c-13.4414 14.3711-56.85155 45.21484-42.9492 57.26562 13.90624 12.05078 83.94138 21.92187 114.53122 4.77343 30.58593-17.14843 51.7539-77.7617 42.9453-93.05466-8.80469-15.29688-88.28123 14.3164-88.28123 14.3164"/><use xlink:href="#b" x="128.20355" y="146.99528"/><use xlink:href="#c" x="113.5168" y="143.03678"/><use xlink:href="#d" x="119.92292" y="146.06701"/><use xlink:href="#b" x="121.84082" y="177.535"/><use xlink:href="#e" x="98.81208" y="172.4093"/><use xlink:href="#f" x="105.96791" y="174.8694"/><use xlink:href="#g" x="112.8903" y="177.89738"/><use xlink:href="#b" x="242.73274" y="274.24893"/><use xlink:href="#h" x="256.68227" y="270.29043"/><use xlink:href="#d" x="261.77978" y="273.32066"/><use xlink:href="#b" x="236.36901" y="248.798"/><use xlink:href="#e" x="213.34027" y="243.6713"/><use xlink:href="#f" x="220.49609" y="246.1314"/><use xlink:href="#i" x="227.41849" y="249.16163"/><use xlink:href="#b" x="160.01722" y="181.99031"/><use xlink:href="#e" x="173.96674" y="176.51644"/><use xlink:href="#f" x="181.12257" y="179.54667"/><use xlink:href="#d" x="188.04496" y="182.5769"/><use xlink:href="#j" x="194.47354" y="179.54667"/><use xlink:href="#g" x="202.03199" y="179.54667"/><use xlink:href="#b" x="172.74268" y="204.25987"/><use xlink:href="#e" x="186.69221" y="199.07132"/><use xlink:href="#f" x="193.84804" y="201.53142"/><use xlink:href="#d" x="200.76818" y="204.56165"/><use xlink:href="#k" x="159.57528" y="135.79017"/><use xlink:href="#k" x="229.88157" y="114.55412"/><use xlink:href="#l" x="243.66799" y="106.50269"/><use xlink:href="#m" x="217.14115" y="307.58295"/><use xlink:href="#m" x="214.25707" y="363.97164"/><use xlink:href="#l" x="227.47784" y="355.92021"/><use xlink:href="#n" x="272.72377" y="187.36242"/><use xlink:href="#o" x="158.97771" y="21.98824"/></svg>