<svg xmlns="http://www.w3.org/2000/svg" xmlns:xlink="http://www.w3.org/1999/xlink" width="676.696pt" height="162.242pt" viewBox="0 0 676.696 162.242"><defs><path id="a" d="M.67188-4.78125C.67188-3.14062 1.15625-1.8125 2-.98437 2.85938-.125 4.23438.20313 5.79688.20313c1.125 0 2.42187-.3125 3.07812-.67188l.20313-2.32812h-.42188C8.26563-1.34375 7.54688-.28125 5.71875-.28125c-2.89062 0-3.48437-2.82812-3.48437-4.51562 0-2.29688.90625-4.60938 3.5-4.60938 1.4375 0 2.4375.59375 2.70312 2.25h.40625v-2.1875c-.625-.29687-1.67187-.54687-2.95312-.54687-1.71875 0-3.10938.5-3.9375 1.4375C1.14063-7.5625.67188-6.35937.67188-4.78125m0 0"/><path id="b" d="M.6875-3.42187c0 2.26562 1.10938 3.57812 3.35938 3.57812s3.34375-1.3125 3.34375-3.57812-1.09375-3.59375-3.34375-3.59375S.6875-5.6875.6875-3.42187m1.45313 0c0-1.9375.625-3.10938 1.90625-3.10938s1.90625 1.17188 1.90625 3.10938-.625 3.09375-1.90625 3.09375-1.90625-1.15625-1.90625-3.09375m0 0"/><path id="c" d="M.45313 0h3.40625v-.40625c-1-.0625-1.04688-.09375-1.04688-.8125V-4.5c0-.34375.01563-.53125.125-.75.3125-.54687.9375-1.01562 1.67188-1.01562.95312 0 1.46875.53125 1.46875 1.75v3.29687c0 .71875-.03125.75-1.04688.8125V0h3.42188v-.40625c-1-.0625-1.0625-.09375-1.0625-.8125v-3.57812c0-1.40625-.76563-2.21875-2.04688-2.21875-1.04687 0-1.6875.5-2.54687 1.0625l-.1875-1.0625-2.09375.35937v.32813l.53125.07812c.34375.0625.45312.125.45312.625v4.40625c0 .71875-.04687.75-1.04687.8125Zm0 0"/><path id="d" d="M.01563-6.4375c.65625.0625.78125.09375 1 .625.375.92188.6875 1.82813 1.03125 2.79688L3.14063 0h1l1.25-3.375c.39062-1.09375.8125-2.03125 1-2.46875.21875-.5.35937-.5625 1-.59375v-.42187H4.75v.42187l.67188.0625c.23437.01563.28125.1875.21875.375-.125.45313-.375 1.26563-.70313 2.15625L4-1.26562h-.03125L3.125-3.60937c-.28125-.8125-.5625-1.59375-.82812-2.35938-.10938-.26562-.04688-.39062.21875-.40625l.64062-.0625v-.42187H.01563Zm0 0"/><path id="e" d="M.6875-3.375c0 2.21875.95313 3.53125 3.21875 3.53125 1.54688 0 2.35938-.85937 2.73438-1.95312l-.42188-.21876c-.39062.8125-.92187 1.46875-2.03125 1.46875-1.73437 0-2.07812-1.67187-2.04687-3.125h4.03125c.29687 0 .54687-.07812.54687-.53125 0-.82812-.26562-2.8125-2.82812-2.8125C1.70313-7.01562.6875-5.46874.6875-3.375m1.46875-.82812c0-.59375.20313-2.32813 1.67188-2.32813 1.28125 0 1.4375 1.32813 1.4375 1.875 0 .26563-.09375.45313-.46875.45313Zm0 0"/><path id="f" d="M.45313 0h3.6875v-.40625C2.89063-.46875 2.8125-.5 2.8125-1.21875V-4.5c0-1.0625.46875-1.4375.79688-1.4375.23437 0 .46875.09375.875.3125.09375.0625.20312.07813.28125.07813.34375 0 .64062-.35938.64062-.79688 0-.3125-.20312-.67187-.75-.67187-.5 0-.92187.29687-1.84375 1.10937l-.17187-1.10937-2.125.35937v.32813l.53125.07812c.34375.0625.45312.125.45312.625v4.40625c0 .71875-.07812.75-1.04687.8125Zm0 0"/><path id="g" d="M.57813 1.34375C.57813 2.75 2 3.375 3.60938 3.375c.84375 0 1.71875-.15625 2.39062-.5625C6.64063 2.42188 7.10938 1.75 7.10938.89063c0-1.51563-1.20313-2.03125-2.70313-2.03125h-1.125c-1 0-1.15625-.34375-1.15625-.60938 0-.40625.53125-.625.71875-.6875.26563.03125.5625.04688.71875.04688 1.3125 0 2.8125-.57813 2.8125-2.28125 0-.57813-.1875-1.0625-.42187-1.3125l1.10937-.17188.28125-.875-.10937-.125-1.79688.5625c-.375-.26562-1.17187-.42187-1.8125-.42187-2.14062 0-2.875 1.29687-2.875 2.34375 0 1.3125.85938 1.92187 1.5 2.07812v.03125c-.76562.29688-1.28125.70313-1.28125 1.25 0 .5.5625 1.01563 1.23438 1.09375v.03125C1.60938 0 .57813.32813.57813 1.34375m1.34375-.0625c0-.48437.125-.82812.42187-1.0625.3125-.23437.78125-.32812 1.45313-.32812 1.23437 0 2.14062.3125 2.14062 1.35937 0 1.10938-1.01562 1.65625-2.01562 1.65625-1.1875 0-2-.60937-2-1.625m.25-5.95312c0-1.375.71875-1.85938 1.45312-1.85938.6875 0 1.40625.5 1.40625 1.85938 0 1.17187-.59375 1.78125-1.42187 1.78125-.78125 0-1.4375-.60938-1.4375-1.78125m0 0"/><path id="h" d="M.6875-3.35937c0 2.32812 1.14063 3.51562 3.23438 3.51562.98437 0 2.3125-.5 2.70312-2l-.42187-.1875C5.76563-1.0625 5.21875-.5625 4.1875-.5625c-1.65625 0-2.04687-1.75-2.04687-3.04687 0-2.09375.8125-2.92188 1.78125-2.92188.64062 0 1.04687.46875 1.32812 1.21875.09375.21875.17188.35938.45313.35938s.8125-.17188.8125-.71875c0-.64063-.92188-1.34375-2.4375-1.34375-2.54688 0-3.39063 1.79687-3.39063 3.65625m0 0"/><path id="i" d="M.35938 2.8125v.40625h3.60937V2.8125C2.79688 2.73438 2.70313 2.70313 2.70313 2V-.15625C3 .01563 3.67188.15625 4.3125.15625c1.89063 0 3.5-.85937 3.5-3.73437 0-1-.1875-3.4375-2.71875-3.4375-1.03125 0-1.84375.67187-2.39062 1.03125l-.17188-1.03125-2.10937.35937v.32813L.95313-6.25c.35937.0625.4375.125.4375.625V2c0 .70313-.04688.73438-1.03125.8125m2.34375-5.01562V-4.5c0-.34375.07812-.53125.20312-.78125.32813-.64062.90625-.98437 1.64063-.98437.5625 0 1.8125.35937 1.8125 2.76562 0 2.0625-.64063 3.17188-2.04688 3.17188-.73437 0-1.28125-.375-1.5-1.01563-.09375-.25-.10937-.53125-.10937-.85937m0 0"/><path id="j" d="M.65625-2.32812.79688-.5c.51562.4375 1.35937.65625 2.17187.65625 1.67188 0 2.625-.875 2.625-2.0625 0-1.23437-.76562-1.78125-2.20312-2.23437-.57813-.17188-1.48438-.46875-1.48438-1.26563 0-.71875.54688-1.125 1.25-1.125 1 0 1.46875.78125 1.57813 1.625H5.125v-1.64062c-.45312-.34375-1.17187-.46875-1.79687-.46875-1.51563 0-2.54688.70312-2.54688 2.03125 0 1.15625.95313 1.6875 2.125 2.04687.625.1875 1.5.5 1.5 1.45313 0 .70312-.54687 1.15625-1.29687 1.15625-1.125 0-1.76563-.8125-2.04688-2Zm0 0"/><path id="k" d="M.6875-3.25c0 2.21875 1.21875 3.40625 2.90625 3.40625.79688 0 1.46875-.35937 2.1875-.90625V2c0 .70313-.0625.73438-1.10937.8125v.40625h3.48437V2.8125C7.1875 2.73438 7.10938 2.70313 7.10938 2v-9.01562h-.39063l-.59375.42187c-.53125-.29687-1.25-.42187-1.84375-.42187-1.10937 0-2 .34375-2.60937.96875S.6875-4.51562.6875-3.25m1.45313-.1875c0-1.71875.59375-3.09375 2.03125-3.09375.71875 0 1.25.25 1.51562.96875.07813.21875.09375.45313.09375.79688v2.375c0 .3125 0 .54687-.07812.76562-.28125.75-.8125 1.04688-1.57813 1.04688-1.39062 0-1.98437-1.28125-1.98437-2.85938m0 0"/><path id="l" d="M.35938-6.32812.89063-6.25c.35937.0625.45312.125.45312.625v3.6875c0 1.60938.95313 2.09375 1.98438 2.09375 1.1875 0 2.15625-.79687 2.5625-.98437L6.03125 0h2.23438v-.40625C7.29688-.46875 7.21875-.5 7.21875-1.21875V-6.9375l-.10937-.07812-2.1875.35937v.32813l.53125.07812c.35937.0625.45312.125.45312.625v3.15625c0 .39063-.04687.70313-.125.82813C5.45313-1 4.79688-.57812 4.07813-.57812c-.82813 0-1.42188-.51563-1.42188-1.60938v-4.75l-.09375-.07812-2.20312.35937Zm0 0"/><path id="m" d="m2.03125-7.85937.28125.28125L3.75-8.64062c.14063-.125.3125-.20313.4375-.20313.10938 0 .28125.07813.42188.20313l1.4375 1.0625.28125-.28125L4.6875-9.71875c-.17187-.17187-.34375-.35937-.5-.35937-.17187 0-.32812.17187-.51562.35937ZM.35938-6.32812.89063-6.25c.35937.0625.45312.125.45312.625v3.6875c0 1.60938.95313 2.09375 1.98438 2.09375 1.1875 0 2.15625-.79687 2.5625-.98437L6.03125 0h2.23438v-.40625C7.29688-.46875 7.21875-.5 7.21875-1.21875V-6.9375l-.10937-.07812-2.1875.35937v.32813l.53125.07812c.35937.0625.45312.125.45312.625v3.15625c0 .39063-.04687.70313-.125.82813C5.45313-1 4.79688-.57812 4.07813-.57812c-.82813 0-1.42188-.51563-1.42188-1.60938v-4.75l-.09375-.07812-2.20312.35937Zm0 0"/><path id="n" d="M.28125-9.67187.8125-9.625c.35938.04688.45313.125.45313.65625V.0625l.25.09375L2.0625-.375c.5.28125 1.09375.53125 2.125.53125 1.85938 0 3.48438-.89062 3.48438-3.73437 0-.875-.17188-3.4375-2.6875-3.4375-1.0625 0-1.89063.67187-2.40625.98437v-4.26562l-.10938-.07813-2.1875.34375Zm2.29688 7.39062V-4.5c0-.34375.01562-.5625.125-.78125.34375-.67187.92187-.98437 1.71875-.98437C5-6.26562 6.21875-5.9375 6.21875-3.5c0 2.0625-.625 3.17188-2.01562 3.17188-.73438 0-1.26563-.375-1.53125-1.0625-.07813-.26563-.09375-.54688-.09375-.89063m0 0"/><path id="o" d="M.6875-1.8125c0 1.03125.70313 1.96875 2 1.96875.82813 0 1.64063-.53125 2.09375-.82812.1875.51562.42188.82812.92188.82812.51562 0 1.10937-.14062 1.64062-.40625l-.07812-.32812c-.20313.04687-.51563.0625-.71875 0-.25-.0625-.5-.3125-.5-1.1875v-3.39063c0-.82812-.17188-1.85937-2.28125-1.85937-1.57813 0-2.82813.8125-2.82813 1.59375 0 .4375.51563.64062.78125.64062.29688 0 .375-.14062.45313-.375.3125-1.04687.875-1.375 1.4375-1.375S4.79688-6.25 4.79688-5.125v.57813c-.35938.35937-1.71875.70312-2.8125 1.0625C.96875-3.17187.6875-2.46875.6875-1.8125m1.40625-.20312c0-.64063.29688-.98438 1.09375-1.28125.5625-.21875 1.29688-.48438 1.60938-.67188V-2c0 1.14063-.875 1.42188-1.42188 1.42188-.85937 0-1.28125-.60938-1.28125-1.4375m0 0"/><path id="p" d="M1.28125-9.14062c0 .5.35938.85937.85938.85937s.84375-.35937.84375-.85937c0-.51563-.34375-.85938-.84375-.85938s-.85938.34375-.85938.85938M.45313 0h3.40625v-.40625c-1-.0625-1.04688-.09375-1.04688-.8125V-6.9375l-.10937-.07812-2.1875.35937v.32813l.53125.07812c.34375.0625.45312.125.45312.625v4.40625c0 .71875-.04687.75-1.04687.8125Zm0 0"/><path id="q" d="M.28125 0H3.6875v-.40625c-1-.0625-1.04687-.09375-1.04687-.8125v-9.07812l-.09375-.07813-2.1875.34375v.35938L.875-9.625c.35938.04688.45313.125.45313.65625v7.75c0 .71875-.03126.75-1.04688.8125Zm0 0"/><path id="r" d="M.4375-6.29687h1v4.875C1.4375 0 2.5.15624 2.98438.15624c.71875 0 1.39062-.34375 1.79687-.60937L4.67188-.75c-.34375.14063-.64063.1875-1 .1875-.46875 0-.92188-.34375-.92188-1.40625v-4.32812h1.79688v-.5625H2.75v-1.75h-.40625L1.5-6.85937H.4375Zm0 0"/><path id="s" d="m2.8125-7.85937.20313.28125L5.125-8.75c.42188-.21875.79688-.45312.79688-.75 0-.28125-.34375-.60937-.54688-.60937-.25 0-.48437.14062-.89062.57812ZM.6875-3.375c0 2.21875.95313 3.53125 3.21875 3.53125 1.54688 0 2.35938-.85937 2.73438-1.95312l-.42188-.21876c-.39062.8125-.92187 1.46875-2.03125 1.46875-1.73437 0-2.07812-1.67187-2.04687-3.125h4.03125c.29687 0 .54687-.07812.54687-.53125 0-.82812-.26562-2.8125-2.82812-2.8125C1.70313-7.01562.6875-5.46874.6875-3.375m1.46875-.82812c0-.59375.20313-2.32813 1.67188-2.32813 1.28125 0 1.4375 1.32813 1.4375 1.875 0 .26563-.09375.45313-.46875.45313Zm0 0"/><path id="t" d="M.29688 0h7.15625l.71875-2.45312H7.75C7.03125-.73437 6.39063-.48437 4.8125-.48437c-1.42187 0-1.73437-.14063-1.73437-.59375 0-.14063.04687-.34375.10937-.625L4.75-8.51562c.10938-.45313.23438-.65625.59375-.6875l.82813-.0625.10937-.40625H2.375l-.09375.40625.82813.0625c.23437.01562.34375.125.34375.375 0 .07812-.01563.1875-.04688.3125l-1.6875 7.35937c-.10937.48438-.23437.64063-.57812.67188L.375-.40625Zm0 0"/><path id="u" d="M1.0625 0h3.28125v-.29687L3.5625-.375c-.21875-.01562-.32812-.09375-.32812-.45312v-5.76563l-.0625-.0625-2.09375.35938v.26562l.84375.10938c.1875.03125.25.10937.25.40625v4.6875c0 .35937-.09375.4375-.32813.45312l-.78125.07813Zm0 0"/><path id="v" d="m.51563 2.35938 1-.10938.54687-2.34375c.20313.125.53125.20313 1.03125.20313 2.39063 0 3.0625-2.95313 3.0625-3.73438 0-.82812-.375-1.28125-1.09375-1.28125-.78125 0-1.71875.71875-2.45312 2.10938h-.03125l.54687-2.0625-.03125-.04688-1.89062.26563-.0625.26562.59375.04688c.15624.01562.1875.07812.1875.20312 0 .0625 0 .15625-.03126.25ZM2.15625-.54687c.125-.59375.40625-1.59375.78125-2.23438.45313-.8125 1.10938-1.54687 1.625-1.54687.34375 0 .5.26562.5.73437C5.0625-2.8125 4.46875-.25 2.98438-.25c-.35938 0-.625-.10937-.82813-.29687m0 0"/><path id="x" d="m.34375-1.4375.07813 1.125c.29687.29688.89062.42188 1.375.42188 1.23437 0 1.73437-.71875 1.73437-1.42188 0-.82812-.5625-1.21875-1.375-1.51562l-.23437-.09375c-.46875-.17188-.85938-.46875-.85938-.89063 0-.51562.3125-.89062.89063-.89062.60937 0 .9375.34375 1.04687 1.04687h.21875v-.98437c-.23437-.17188-.70312-.3125-1.1875-.3125-.84375 0-1.60937.4375-1.60937 1.35937 0 .73438.59375 1.10938 1.32812 1.375l.125.04688c.29688.125.96875.4375.96875 1.0625 0 .60937-.375.96875-1 .96875C1.1875-.14062.75-.65625.57813-1.4375Zm0 0"/><path id="y" d="M.34375-1.70312c0 1.125.5625 1.78125 1.67188 1.78125 1.125 0 1.6875-.65625 1.6875-1.78125 0-1.14063-.5625-1.8125-1.6875-1.8125-1.10938 0-1.67188.67187-1.67188 1.8125m.73438 0c0-.96875.3125-1.5625.9375-1.5625.64062 0 .95312.59375.95312 1.5625 0 .95312-.3125 1.54687-.95312 1.54687-.625 0-.9375-.59375-.9375-1.54687m0 0"/><path id="z" d="m.17188-3.15625.28124.03125c.17188.03125.21875.0625.21875.3125v1.84375c0 .8125.46876 1.04688 1 1.04688.59376 0 1.07813-.39063 1.26563-.5L3.01563 0h1.125v-.20312C3.65625-.23438 3.60938-.25 3.60938-.60937v-2.85938l-.04688-.04687-1.09375.1875v.17187l.26563.03125c.17187.03125.21875.0625.21875.3125v1.57813c0 .1875-.01563.34375-.0625.42187-.15625.3125-.48438.51563-.85938.51563-.40625 0-.70312-.25-.70312-.79688v-2.375l-.04688-.04687-1.10937.1875Zm0 0"/><path id="A" d="M.32813-1.17187.40625-.25c.25.21875.67188.32813 1.07813.32813.84375 0 1.3125-.4375 1.3125-1.03125 0-.60938-.375-.89063-1.09375-1.10938-.29688-.09375-.75-.25-.75-.64062 0-.35938.28124-.5625.625-.5625.5 0 .73437.39062.78125.8125h.20312v-.8125c-.23437-.17188-.57812-.25-.89062-.25-.76563 0-1.28125.35937-1.28125 1.03125 0 .57812.48437.82812 1.0625 1.01562.3125.09375.75.25.75.71875 0 .35938-.28125.59375-.65625.59375-.5625 0-.875-.42187-1.01563-1.01562Zm0 0"/><path id="B" d="M.51563-1.51562h1.71875V-2H.51563Zm0 0"/><path id="C" d="M.64063-4.57812c0 .25.17187.4375.4375.4375.25 0 .42187-.1875.42187-.4375S1.32813-5 1.07813-5c-.26563 0-.4375.17188-.4375.42188M.21875 0h1.70313v-.20312c-.5-.03126-.51563-.04688-.51563-.40625v-2.85938l-.04687-.04687-1.09375.1875v.17187l.25.03125c.1875.03125.23437.0625.23437.3125v2.20313c0 .35937-.01562.375-.53125.40625Zm0 0"/><path id="D" d="M.21875-3.14062h.5v2.42187C.71875 0 1.25.07813 1.5.07813c.35938 0 .6875-.17188.89063-.29688L2.32813-.375c-.15625.0625-.3125.09375-.48438.09375-.25 0-.46875-.17187-.46875-.70312v-2.15625h.90625v-.28125H1.375v-.89063h-.20312L.75-3.42187H.21875Zm0 0"/><path id="E" d="M.34375-1.6875C.34375-.57812.8125.07813 1.95313.07813c.78125 0 1.17187-.42188 1.35937-.98438l-.20312-.10937c-.1875.40625-.46875.73437-1.01563.73437-.85937 0-1.03125-.82812-1.01562-1.5625h2.01562c.14063 0 .26563-.03125.26563-.26562 0-.40625-.125-1.40625-1.40625-1.40625-1.09375 0-1.60938.78125-1.60938 1.82812m.73438-.42187c0-.28125.10937-1.15625.82812-1.15625.65625 0 .73438.65625.73438.9375 0 .14062-.04688.21875-.25.21875Zm0 0"/><path id="F" d="M.25 0h3.625l.07813-1.25H3.75c-.14062.92188-.51562 1-1.26562 1-.34375 0-.59375 0-.75-.0625C1.59375-.375 1.5625-.5 1.5625-.84375V-4.1875c0-.39062.03125-.40625.67188-.45312v-.1875H.25v.1875c.60938.04687.625.0625.625.45312v3.54688C.875-.25.85938-.25.25-.20312Zm0 0"/><path id="G" d="M.21875 0h1.70313v-.20312c-.5-.03126-.51563-.04688-.51563-.40625V-2.25c0-.17187 0-.26562.04688-.375.14062-.28125.4375-.5.82812-.5.60938 0 .67188.4375.67188.85938v1.65625c0 .35937-.01563.375-.51563.40625V0h1.70313v-.20312c-.5-.03126-.53125-.04688-.53125-.40625V-2.25c0-.17187.01562-.26562.0625-.375.09375-.28125.39062-.5.79687-.5.4375 0 .70313.23438.70313.85938v1.65625c0 .35937-.03125.375-.53125.40625V0h1.71875v-.20312c-.5-.03126-.53125-.04688-.53125-.40625v-1.78125c0-.70313-.39063-1.125-1.04688-1.125-.57812 0-.98437.39062-1.21875.54687-.17187-.32812-.45312-.54687-.9375-.54687-.53125 0-.96875.35937-1.21875.54687l-.0625-.54687-1.07812.1875v.17187l.25.03125c.1875.03125.23437.0625.23437.3125v2.20313c0 .35937-.01562.375-.53125.40625Zm0 0"/><path id="H" d="M.34375-1.6875c0 1.17188.57813 1.76563 1.625 1.76563.48438 0 1.14063-.25 1.34375-1l-.21875-.09376c-.20312.48438-.48437.73438-1 .73438-.82812 0-1.01562-.875-1.01562-1.53125 0-1.03125.40625-1.45312.89062-1.45312.3125 0 .51563.23437.65625.60937.04688.10938.09375.17188.21875.17188.14063 0 .40625-.07813.40625-.34375 0-.32813-.45312-.6875-1.21875-.6875-1.26562 0-1.6875.90625-1.6875 1.82812m0 0"/><path id="I" d="M.21875 0h1.70313v-.20312c-.5-.03126-.51563-.04688-.51563-.40625V-2.25c0-.17187 0-.26562.0625-.375.15625-.28125.46875-.5.84375-.5.46875 0 .73438.25.73438.85938v1.65625c0 .35937-.03125.375-.53125.40625V0h1.70312v-.20312c-.5-.03126-.51562-.04688-.51562-.40625v-1.78125c0-.70313-.39063-1.125-1.03125-1.125-.51563 0-.84375.26562-1.28125.54687l-.09376-.54687-1.03124.1875v.17187l.25.03125c.1875.03125.23437.0625.23437.3125v2.20313c0 .35937-.01562.375-.53125.40625Zm0 0"/><path id="J" d="M.34375-.90625c0 .51563.34375.98438 1 .98438.40625 0 .82813-.26563 1.04688-.40625.09375.25.21875.40625.45312.40625.26563 0 .5625-.07813.82813-.20313L3.625-.29687c-.09375.03125-.25.03125-.35937 0-.125-.01563-.23438-.15625-.23438-.59375v-1.6875c0-.40625-.09375-.9375-1.15625-.9375-.78125 0-1.40625.42187-1.40625.79687 0 .23438.26563.32813.39063.32813.15624 0 .1875-.07813.21874-.1875.15626-.51563.45313-.6875.73438-.6875.26563 0 .57813.14062.57813.70312v.28125c-.17188.1875-.84375.35938-1.40625.54688-.5.15624-.64063.5-.64063.82812M1.04688-1c0-.32812.15624-.5.54687-.65625.28125-.09375.64063-.23437.79688-.32812V-1c0 .5625-.42188.70313-.70313.70313-.4375 0-.64062-.29688-.64062-.70313m0 0"/><path id="K" d="M.25 0h2.17188c2.15625 0 2.6875-1.25 2.6875-2.5 0-1.15625-.5-2.32812-2.54688-2.32812H.25v.1875c.60938.04687.625.0625.625.45312v3.54688C.875-.25.85938-.25.25-.20312Zm1.3125-.875v-3.3125c0-.375.0625-.40625.8125-.40625 1.48438 0 1.95313.9375 1.95313 2.10938C4.32813-.71875 3.46875-.25 2.29688-.25c-.60938 0-.73438-.07812-.73438-.625m0 0"/><clipPath id="w"><path d="M312 74h71v87.48828h-71Zm0 0"/></clipPath></defs><use xlink:href="#a" x="6.37997" y="43.46095"/><use xlink:href="#b" x="15.76575" y="43.46095"/><use xlink:href="#c" x="23.82771" y="43.46095"/><use xlink:href="#d" x="32.46978" y="43.46095"/><use xlink:href="#e" x="39.43103" y="43.46095"/><use xlink:href="#f" x="46.6154" y="43.46095"/><use xlink:href="#g" x="51.95533" y="43.46095"/><use xlink:href="#e" x="59.21407" y="43.46095"/><use xlink:href="#c" x="66.39844" y="43.46095"/><use xlink:href="#h" x="75.0405" y="43.46095"/><use xlink:href="#e" x="81.972" y="43.46095"/><use xlink:href="#i" x="92.29488" y="43.46095"/><use xlink:href="#f" x="100.7882" y="43.46095"/><use xlink:href="#e" x="105.93477" y="43.46095"/><use xlink:href="#j" x="113.11913" y="43.46095"/><use xlink:href="#k" x="119.20279" y="43.46095"/><use xlink:href="#l" x="127.45812" y="43.46095"/><use xlink:href="#e" x="135.92169" y="43.46095"/><use xlink:href="#j" x="146.24457" y="43.46095"/><use xlink:href="#m" x="152.32823" y="43.46095"/><use xlink:href="#f" x="160.7918" y="43.46095"/><use xlink:href="#e" x="165.93836" y="43.46095"/><use xlink:href="#a" x="260.25386" y="43.61025"/><use xlink:href="#b" x="269.63965" y="43.61025"/><use xlink:href="#c" x="277.70161" y="43.61025"/><use xlink:href="#d" x="286.34367" y="43.61025"/><use xlink:href="#e" x="293.30492" y="43.61025"/><use xlink:href="#f" x="300.48929" y="43.61025"/><use xlink:href="#g" x="305.82922" y="43.61025"/><use xlink:href="#e" x="313.08796" y="43.61025"/><use xlink:href="#c" x="320.27233" y="43.61025"/><use xlink:href="#h" x="328.91439" y="43.61025"/><use xlink:href="#e" x="335.84589" y="43.61025"/><use xlink:href="#e" x="346.16877" y="43.61025"/><use xlink:href="#c" x="353.35314" y="43.61025"/><use xlink:href="#i" x="365.13372" y="43.61025"/><use xlink:href="#f" x="373.62704" y="43.61025"/><use xlink:href="#b" x="378.96697" y="43.61025"/><use xlink:href="#n" x="387.02893" y="43.61025"/><use xlink:href="#o" x="395.38838" y="43.61025"/><use xlink:href="#n" x="402.69175" y="43.61025"/><use xlink:href="#p" x="411.0512" y="43.61025"/><use xlink:href="#q" x="415.11192" y="43.61025"/><use xlink:href="#p" x="419.00903" y="43.61025"/><use xlink:href="#r" x="423.06976" y="43.61025"/><use xlink:href="#s" x="427.87422" y="43.61025"/><use xlink:href="#a" x="297.46501" y="97.81998"/><use xlink:href="#b" x="306.8508" y="97.81998"/><use xlink:href="#c" x="314.91276" y="97.81998"/><use xlink:href="#d" x="323.55482" y="97.81998"/><use xlink:href="#e" x="330.51607" y="97.81998"/><use xlink:href="#f" x="337.70044" y="97.81998"/><use xlink:href="#g" x="343.04037" y="97.81998"/><use xlink:href="#e" x="350.29911" y="97.81998"/><use xlink:href="#c" x="357.48348" y="97.81998"/><use xlink:href="#h" x="366.12554" y="97.81998"/><use xlink:href="#e" x="373.05704" y="97.81998"/><use xlink:href="#t" x="383.37961" y="97.81998"/><use xlink:href="#u" x="391.61961" y="101.09269"/><use xlink:href="#a" x="549.1133" y="43.61025"/><use xlink:href="#b" x="558.49909" y="43.61025"/><use xlink:href="#c" x="566.56105" y="43.61025"/><use xlink:href="#d" x="575.20311" y="43.61025"/><use xlink:href="#e" x="582.16436" y="43.61025"/><use xlink:href="#f" x="589.34873" y="43.61025"/><use xlink:href="#g" x="594.68866" y="43.61025"/><use xlink:href="#e" x="601.9474" y="43.61025"/><use xlink:href="#c" x="609.13177" y="43.61025"/><use xlink:href="#h" x="617.77383" y="43.61025"/><use xlink:href="#e" x="624.70533" y="43.61025"/><use xlink:href="#e" x="635.02821" y="43.61025"/><use xlink:href="#c" x="642.21258" y="43.61025"/><use xlink:href="#q" x="653.99316" y="43.61025"/><use xlink:href="#b" x="657.89027" y="43.61025"/><use xlink:href="#p" x="665.95223" y="43.61025"/><use xlink:href="#a" x="296.63588" y="150.89402"/><use xlink:href="#b" x="306.02167" y="150.89402"/><use xlink:href="#c" x="314.08363" y="150.89402"/><use xlink:href="#d" x="322.72569" y="150.89402"/><use xlink:href="#e" x="329.68694" y="150.89402"/><use xlink:href="#f" x="336.87131" y="150.89402"/><use xlink:href="#g" x="342.21124" y="150.89402"/><use xlink:href="#e" x="349.46998" y="150.89402"/><use xlink:href="#c" x="356.65435" y="150.89402"/><use xlink:href="#h" x="365.29642" y="150.89402"/><use xlink:href="#e" x="372.22792" y="150.89402"/><use xlink:href="#t" x="382.55048" y="150.89402"/><use xlink:href="#v" x="390.79049" y="154.16673"/><path fill="none" stroke="#000" stroke-miterlimit="10" stroke-width="2.4538" d="M178.37112 40.11328h74.2969"/><path fill="none" stroke="#fff" stroke-miterlimit="10" stroke-width="1.66048" d="M178.37112 40.11328h74.2969"/><path fill="none" stroke="#000" stroke-linecap="round" stroke-linejoin="round" stroke-miterlimit="10" stroke-width=".39665" d="M251.28906 37.39062c.66797 1.4375 2.46875 2.67188 3.4961 2.72266-1.02735.05078-2.82813 1.28516-3.4961 2.72656"/><path fill="none" stroke="#000" stroke-miterlimit="10" stroke-width="2.4538" d="m347.59774 82.66798.01953-28.10938"/><path fill="none" stroke="#fff" stroke-miterlimit="10" stroke-width="1.66048" d="m347.59774 82.66798.01953-28.10938"/><path fill="none" stroke="#000" stroke-linecap="round" stroke-linejoin="round" stroke-miterlimit="10" stroke-width=".39664" d="M344.89062 55.9336c1.44141-.66797 2.67579-2.46485 2.72657-3.4961.05078 1.03125 1.28515 2.83203 2.72265 3.5"/><path fill="none" stroke="#000" stroke-miterlimit="10" stroke-width="2.4538" d="M440.28136 40.11328h101.21878"/><path fill="none" stroke="#fff" stroke-miterlimit="10" stroke-width="1.66048" d="M440.28136 40.11328h101.21878"/><path fill="none" stroke="#000" stroke-linecap="round" stroke-linejoin="round" stroke-miterlimit="10" stroke-width=".39665" d="M540.1211 37.39062c.66796 1.4375 2.46874 2.67188 3.49609 2.72266-1.02735.05078-2.82813 1.28516-3.4961 2.72656"/><g clip-path="url(#w)"><path fill="none" stroke="#000" stroke-miterlimit="10" stroke-width="2.4538" d="m347.5704 135.73831.01952-26.97657"/></g><path fill="none" stroke="#fff" stroke-miterlimit="10" stroke-width="1.66048" d="m347.5704 135.73831.01952-26.97657"/><path fill="none" stroke="#000" stroke-linecap="round" stroke-linejoin="round" stroke-miterlimit="10" stroke-width=".39664" d="M344.86328 110.13672c1.4414-.66406 2.67578-2.46485 2.72656-3.49219.05079 1.02734 1.28516 2.82813 2.72266 3.4961"/><path fill="none" stroke="#000" stroke-miterlimit="10" stroke-width="2.4538" d="M254.98443 27.98828c-25.97657-14.9961-50.64064-14.84766-74.6094-1.00782"/><path fill="none" stroke="#fff" stroke-miterlimit="10" stroke-width="1.66048" d="M254.98443 27.98828c-25.97657-14.9961-50.64064-14.84766-74.6094-1.00782"/><path fill="none" stroke="#000" stroke-linecap="round" stroke-linejoin="round" stroke-miterlimit="10" stroke-width=".39664" d="M182.9336 28.64844c-1.30079-.91016-3.47657-1.07813-4.39063-.60938.86328-.5586 1.80469-2.52734 1.66406-4.10937"/><use xlink:href="#x" x="200.15663" y="10.00725"/><use xlink:href="#y" x="203.85294" y="10.00725"/><use xlink:href="#z" x="207.88392" y="10.00725"/><use xlink:href="#A" x="212.1157" y="10.00725"/><use xlink:href="#B" x="215.15753" y="10.00725"/><use xlink:href="#A" x="217.89443" y="10.00725"/><use xlink:href="#z" x="220.93626" y="10.00725"/><use xlink:href="#C" x="225.16805" y="10.00725"/><use xlink:href="#D" x="227.19841" y="10.00725"/><use xlink:href="#E" x="229.60064" y="10.00725"/><path fill="none" stroke="#000" stroke-miterlimit="10" stroke-width="2.4538" d="M543.81655 27.98828c-34.96486-20.1875-68.57034-20.1875-101.52738-1.15625"/><path fill="none" stroke="#fff" stroke-miterlimit="10" stroke-width="1.66048" d="M543.81655 27.98828c-34.96486-20.1875-68.57034-20.1875-101.52738-1.15625"/><path fill="none" stroke="#000" stroke-linecap="round" stroke-linejoin="round" stroke-miterlimit="10" stroke-width=".39664" d="M444.84375 28.5c-1.30078-.91016-3.47656-1.08203-4.39063-.60937.86329-.5586 1.8047-2.52735 1.66407-4.10938"/><use xlink:href="#F" x="465.41036" y="9.95549"/><use xlink:href="#C" x="469.37441" y="9.95549"/><use xlink:href="#G" x="471.40477" y="9.95549"/><use xlink:href="#C" x="477.85285" y="9.95549"/><use xlink:href="#D" x="479.88322" y="9.95549"/><use xlink:href="#E" x="482.28544" y="9.95549"/><use xlink:href="#H" x="487.44688" y="9.95549"/><use xlink:href="#y" x="490.91263" y="9.95549"/><use xlink:href="#I" x="494.94361" y="9.95549"/><use xlink:href="#A" x="499.26464" y="9.95549"/><use xlink:href="#D" x="502.30647" y="9.95549"/><use xlink:href="#J" x="504.7087" y="9.95549"/><use xlink:href="#I" x="508.36038" y="9.95549"/><use xlink:href="#D" x="512.68141" y="9.95549"/><use xlink:href="#E" x="515.08364" y="9.95549"/><path fill="none" stroke="#000" stroke-miterlimit="10" stroke-width="2.4538" d="M178.37112 52.08985C219.53129 75.85548 244.6602 94.5586 289.87506 94.5586"/><path fill="none" stroke="#fff" stroke-miterlimit="10" stroke-width="1.66048" d="M178.37112 52.08985C219.53129 75.85548 244.6602 94.5586 289.87506 94.5586"/><path fill="none" stroke="#000" stroke-linecap="round" stroke-linejoin="round" stroke-miterlimit="10" stroke-width=".39665" d="M288.4961 91.83203c.66796 1.4414 2.46874 2.67188 3.49609 2.72656-1.02735.05079-2.82813 1.28516-3.4961 2.72266"/><use xlink:href="#K" x="191.31196" y="94.15709"/><use xlink:href="#y" x="196.75601" y="94.15709"/><use xlink:href="#G" x="200.78699" y="94.15709"/><use xlink:href="#C" x="207.23507" y="94.15709"/><use xlink:href="#I" x="209.26544" y="94.15709"/><use xlink:href="#J" x="213.58647" y="94.15709"/><use xlink:href="#D" x="217.23815" y="94.15709"/><use xlink:href="#C" x="219.64038" y="94.15709"/><use xlink:href="#y" x="221.67074" y="94.15709"/><use xlink:href="#I" x="225.70172" y="94.15709"/></svg>