<svg xmlns="http://www.w3.org/2000/svg" xmlns:xlink="http://www.w3.org/1999/xlink" width="1015.044" height="243.363" viewBox="0 0 1015.044 243.363"><defs><path id="a" d="M1-7.17187c0 2.45312.75 4.4375 2 5.70312C4.29688-.17187 6.375.3125 8.71875.3125c1.67188 0 3.625-.46875 4.625-1l.29688-3.51562h-.625c-.57813 2.1875-1.67188 3.78125-4.42188 3.78125-4.34375 0-5.23437-4.25-5.23437-6.79688 0-3.45312 1.35937-6.90625 5.26562-6.90625 2.15625 0 3.65625.89063 4.04688 3.375h.625v-3.29687c-.9375-.4375-2.51563-.82813-4.4375-.82813-2.59375 0-4.67188.76563-5.9375 2.17188C1.71875-11.35937 1-9.54687 1-7.17187m0 0"/><path id="b" d="M1.03125-5.14062C1.03125-1.75 2.70313.25 6.07813.25s5.03125-2 5.03125-5.39062c0-3.40625-1.65625-5.40625-5.03125-5.40625s-5.04688 2-5.04688 5.40625m2.1875 0c0-2.90625.9375-4.67188 2.85938-4.67188S8.9375-8.04687 8.9375-5.14062 8-.48437 6.07813-.48437s-2.85938-1.75-2.85938-4.65625m0 0"/><path id="c" d="M.67188 0h5.125v-.60937c-1.5-.10938-1.57813-.15626-1.57813-1.21875V-6.75c0-.54687.03125-.8125.20313-1.14062C4.875-8.71875 5.8125-9.40625 6.9375-9.40625c1.42188 0 2.20313.78125 2.20313 2.60938v4.96875c0 1.0625-.0625 1.10937-1.57813 1.21875V0h5.14063v-.60937c-1.5-.10938-1.59375-.15626-1.59375-1.21875v-5.375c0-2.125-1.15625-3.34375-3.07813-3.34375-1.5625 0-2.53125.75-3.82812 1.60937l-.29688-1.60937-3.125.53125V-9.5l.78125.10938c.54688.09375.70313.17187.70313.9375v6.625c0 1.0625-.07813 1.10937-1.59375 1.21875Zm0 0"/><path id="d" d="M.01563-9.6875c.98437.09375 1.1875.15625 1.5.9375.5625 1.39063 1.03125 2.75 1.5625 4.21875L4.71875 0h1.5l1.875-5.07812c.60938-1.625 1.23438-3.03125 1.51563-3.70313.3125-.75.54687-.85937 1.5-.90625v-.625H7.125v.625l1.03125.09375c.34375.04688.40625.29688.3125.57813-.17187.67187-.54687 1.90625-1.04687 3.25L6.01563-1.90625h-.04688L4.70313-5.4375c-.4375-1.20312-.85938-2.39062-1.26563-3.53125-.15625-.40625-.0625-.57812.34375-.625l.95313-.09375v-.625H.01563Zm0 0"/><path id="e" d="M1.03125-5.07812C1.03125-1.75 2.45313.25 5.875.25c2.32813 0 3.53125-1.29687 4.09375-2.95312l-.625-.34375C8.76563-1.8125 7.95313-.82812 6.3125-.82812c-2.625 0-3.14062-2.5-3.09375-4.6875h6.0625c.4375 0 .82813-.125.82813-.8125 0-1.23438-.40625-4.21875-4.25-4.21875-3.28125 0-4.82813 2.3125-4.82813 5.46875m2.20313-1.25c0-.875.32812-3.48438 2.51562-3.48438 1.9375 0 2.17188 1.98438 2.17188 2.8125 0 .40625-.14063.67188-.71875.67188Zm0 0"/><path id="f" d="M.67188 0h5.54687v-.60937c-1.875-.10938-2-.15626-2-1.21875V-6.75c0-1.60937.71875-2.17187 1.21875-2.17187.32813 0 .6875.14062 1.29688.46875.15625.09375.3125.10937.42187.10937.51563 0 .95313-.53125.95313-1.1875C8.10938-10 7.82813-10.54687 7-10.54687c-.76562 0-1.39062.4375-2.78125 1.67187l-.23437-1.67187-3.20313.53125V-9.5l.78125.10938c.54688.09375.70313.17187.70313.9375v6.625c0 1.0625-.125 1.10937-1.59375 1.21875Zm0 0"/><path id="g" d="M.875 2.01563c0 2.125 2.125 3.0625 4.5625 3.0625 1.25 0 2.5625-.25 3.57813-.85938.95312-.57812 1.67187-1.57812 1.67187-2.875 0-2.28125-1.8125-3.0625-4.0625-3.0625H4.9375c-1.51562 0-1.73437-.51562-1.73437-.92187 0-.59375.79687-.9375 1.0625-1.03125.40625.04687.85937.07812 1.07812.07812 1.98438 0 4.25-.875 4.25-3.42187 0-.875-.29687-1.60938-.65625-1.96875L10.625-9.25l.42188-1.32812-.1875-.17188-2.67188.84375c-.57812-.40625-1.76562-.64062-2.73437-.64062-3.21875 0-4.32813 1.95312-4.32813 3.53125 0 1.96875 1.29688 2.875 2.25 3.125v.04687c-1.14062.4375-1.92187 1.04688-1.92187 1.875 0 .73438.84375 1.51563 1.85937 1.64063v.03125C2.42188 0 .875.48438.875 2.01563m2.01563-.09375c0-.71875.1875-1.25.64062-1.59375C4-.01562 4.70313-.15625 5.70313-.15625c1.85937 0 3.21875.46875 3.21875 2.03125 0 1.6875-1.51563 2.48438-3.01563 2.48438-1.79687 0-3.01562-.92188-3.01562-2.4375m.375-8.9375c0-2.07813 1.07812-2.79688 2.1875-2.79688 1.03125 0 2.10937.75 2.10937 2.79688 0 1.76562-.90625 2.67187-2.125 2.67187-1.1875 0-2.17187-.90625-2.17187-2.67187m0 0"/><path id="h" d="M1.03125-5.04687C1.03125-1.54687 2.75.25 5.90625.25 7.375.25 9.375-.51562 9.95313-2.76562l-.625-.29688C8.67188-1.59375 7.84375-.84375 6.3125-.84375c-2.51562 0-3.09375-2.625-3.09375-4.59375 0-3.125 1.23438-4.375 2.6875-4.375.95313 0 1.5625.6875 1.98438 1.82813.14062.34375.26562.53125.67187.53125.42188 0 1.23438-.26563 1.23438-1.0625 0-.96875-1.39063-2.03125-3.67188-2.03125-3.82812 0-5.09375 2.70312-5.09375 5.5m0 0"/><path id="i" d="M.53125 4.21875v.60938h5.4375v-.60938C4.20313 4.10938 4.0625 4.0625 4.0625 3V-.21875C4.51563.01563 5.51563.25 6.48438.25c2.84375 0 5.25-1.29687 5.25-5.64062 0-1.5-.26563-5.15625-4.09375-5.15625-1.53125 0-2.75 1.01562-3.57813 1.5625l-.26562-1.5625-3.17188.53125V-9.5l.8125.10938c.53125.09375.67188.17187.67188.9375V3c0 1.0625-.09375 1.10938-1.57813 1.21875M4.0625-3.3125V-6.75c0-.54687.125-.8125.29688-1.1875.5-.96875 1.35937-1.46875 2.48437-1.46875.84375 0 2.71875.53125 2.71875 4.15625 0 3.07813-.96875 4.76563-3.07812 4.76563-1.09375 0-1.92188-.5625-2.26563-1.53125-.125-.375-.15625-.79688-.15625-1.29688m0 0"/><path id="j" d="m.98438-3.51562.21874 2.75C1.96876-.09376 3.23438.25 4.46876.25c2.5 0 3.9375-1.32812 3.9375-3.10937 0-1.85938-1.14062-2.6875-3.3125-3.35938-.875-.26562-2.23437-.71875-2.23437-1.89062 0-1.10938.82812-1.70313 1.875-1.70313 1.5 0 2.21875 1.15625 2.375 2.4375h.60937v-2.46875c-.70312-.51562-1.76562-.70312-2.70312-.70312-2.28125 0-3.82813 1.0625-3.82813 3.0625 0 1.73437 1.42188 2.51562 3.17188 3.0625.9375.28125 2.26562.75 2.26562 2.1875 0 1.07812-.82812 1.75-1.95312 1.75-1.70313 0-2.65625-1.23438-3.07813-3.03125Zm0 0"/><path id="k" d="M1.03125-4.89062C1.03125-1.54687 2.85938.25 5.40625.25c1.1875 0 2.20313-.5625 3.29688-1.375V3c0 1.0625-.10938 1.10938-1.6875 1.21875v.60938H12.25v-.60938C10.79688 4.10938 10.6875 4.0625 10.6875 3v-13.54687h-.57812l-.89063.64062c-.8125-.45312-1.89062-.64062-2.78125-.64062-1.67187 0-3.01562.5-3.9375 1.45312-.90625.9375-1.46875 2.29688-1.46875 4.20313m2.1875-.28125c0-2.59375.89063-4.64063 3.04688-4.64063 1.09375 0 1.875.375 2.28125 1.45313.125.32812.15625.6875.15625 1.20312v3.5625c0 .46875 0 .82813-.14063 1.15625C8.15625-1.3125 7.35938-.875 6.1875-.875c-2.07812 0-2.96875-1.92187-2.96875-4.29687m0 0"/><path id="l" d="m.53125-9.5.8125.10938c.53125.09375.67188.17187.67188.9375v5.54687c0 2.42188 1.42187 3.15625 3 3.15625C6.79688.25 8.25-.96875 8.85938-1.25L9.0625 0h3.375v-.60937c-1.45312-.10938-1.59375-.15626-1.59375-1.21875v-8.59375l-.15625-.125-3.28125.53125V-9.5l.79688.10938c.54687.09375.67187.17187.67187.9375v4.73437c0 .59375-.0625 1.0625-.17187 1.26563C8.20313-1.5 7.21875-.875 6.125-.875 4.89063-.875 4-1.65625 4-3.28125v-7.14062l-.15625-.125-3.3125.53125Zm0 0"/><path id="m" d="m3.0625-11.8125.40625.4375 2.17188-1.60937c.21875-.1875.46875-.3125.64062-.3125.1875 0 .42188.125.65625.3125L9.09375-11.375 9.5-11.8125l-2.45312-2.78125c-.25-.28125-.51563-.54687-.76563-.54687s-.48437.25-.76562.54687ZM.53125-9.5l.8125.10938c.53125.09375.67188.17187.67188.9375v5.54687c0 2.42188 1.42187 3.15625 3 3.15625C6.79688.25 8.25-.96875 8.85938-1.25L9.0625 0h3.375v-.60937c-1.45312-.10938-1.59375-.15626-1.59375-1.21875v-8.59375l-.15625-.125-3.28125.53125V-9.5l.79688.10938c.54687.09375.67187.17187.67187.9375v4.73437c0 .59375-.0625 1.0625-.17187 1.26563C8.20313-1.5 7.21875-.875 6.125-.875 4.89063-.875 4-1.65625 4-3.28125v-7.14062l-.15625-.125-3.3125.53125Zm0 0"/><path id="n" d="m.42188-14.53125.8125.0625c.53125.0625.67187.1875.67187.98438V.09375l.375.15625.82813-.8125C3.84375-.14062 4.73438.25 6.3125.25c2.78125 0 5.21875-1.34375 5.21875-5.64062 0-1.29688-.26562-5.15625-4.04687-5.15625-1.57813 0-2.82813 1.01562-3.60938 1.48437v-6.40625l-.15625-.10937-3.29687.51562ZM3.875-3.42187V-6.75c0-.54687.01563-.85937.1875-1.1875.51563-1 1.39063-1.46875 2.57813-1.46875.875 0 2.70312.48438 2.70312 4.15625 0 3.07813-.9375 4.76563-3.01562 4.76563-1.125 0-1.92188-.5625-2.29688-1.625-.14062-.375-.15625-.79688-.15625-1.3125m0 0"/><path id="o" d="M1.03125-2.73437C1.03125-1.15625 2.07813.25 4.04688.25 5.28125.25 6.5-.5625 7.17188-1 7.46875-.21875 7.82813.25 8.5625.25c.78125 0 1.67188-.23437 2.48438-.625l-.14063-.5c-.28125.0625-.75.09375-1.0625 0-.39062-.09375-.75-.46875-.75-1.78125v-5.10937c0-1.21875-.26562-2.78125-3.4375-2.78125-2.375 0-4.25 1.21875-4.25 2.39062 0 .67188.78125.98438 1.1875.98438.45313 0 .5625-.23438.67188-.59375.46875-1.5625 1.3125-2.04688 2.17187-2.04688.82813 0 1.76563.42188 1.76563 2.09375v.875C6.65625-6.3125 4.625-5.76562 2.96875-5.23437c-1.51562.46875-1.9375 1.51562-1.9375 2.5m2.125-.28125c0-.98438.4375-1.5 1.625-1.95313.85938-.3125 1.95313-.70312 2.42188-1V-3c0 1.70313-1.29688 2.125-2.125 2.125-1.29688 0-1.92188-.90625-1.92188-2.14062m0 0"/><path id="p" d="M1.92188-13.75c0 .76563.53125 1.29688 1.29687 1.29688.76563 0 1.28125-.53125 1.28125-1.29688 0-.76562-.51562-1.28125-1.28125-1.28125-.76562 0-1.29687.51563-1.29687 1.28125M.67188 0h5.125v-.60937c-1.5-.10938-1.57813-.15626-1.57813-1.21875v-8.59375l-.15625-.125-3.28125.53125V-9.5l.78125.10938c.54688.09375.70313.17187.70313.9375v6.625c0 1.0625-.07813 1.10937-1.59375 1.21875Zm0 0"/><path id="q" d="M.42188 0h5.125v-.60937c-1.5-.10938-1.5625-.15626-1.5625-1.21875v-13.64063l-.15625-.10937-3.29688.51562v.53125l.78125.0625c.54688.0625.67188.1875.67188.98438v11.65625c0 1.0625-.04688 1.10937-1.5625 1.21875Zm0 0"/><path id="r" d="M.64063-9.45312h1.53125v7.3125C2.17188 0 3.75.25 4.5.25c1.0625 0 2.07813-.54687 2.67188-.92187L7.01563-1.125c-.51563.20313-.95313.28125-1.5.28125-.70313 0-1.375-.51562-1.375-2.10937v-6.5h2.70312v-.85938H4.14063v-2.64062h-.60938L2.26563-10.3125h-1.625Zm0 0"/><path id="s" d="m4.21875-11.8125.3125.4375 3.1875-1.76562c.625-.34375 1.1875-.70313 1.1875-1.14063s-.51562-.92187-.82812-.92187c-.35938 0-.71875.21875-1.34375.875Zm-3.1875 6.73438C1.03125-1.75 2.45313.25 5.875.25c2.32813 0 3.53125-1.29687 4.09375-2.95312l-.625-.34375C8.76563-1.8125 7.95313-.82812 6.3125-.82812c-2.625 0-3.14062-2.5-3.09375-4.6875h6.0625c.4375 0 .82813-.125.82813-.8125 0-1.23438-.40625-4.21875-4.25-4.21875-3.28125 0-4.82813 2.3125-4.82813 5.46875m2.20313-1.25c0-.875.32812-3.48438 2.51562-3.48438 1.9375 0 2.17188 1.98438 2.17188 2.8125 0 .40625-.14063.67188-.71875.67188Zm0 0"/><path id="t" d="M.45313 0h10.75l1.07812-3.6875h-.625C10.57813-1.09375 9.60938-.73437 7.25-.73437c-2.15625 0-2.625-.20313-2.625-.875 0-.21876.07813-.53125.15625-.96875L7.125-12.79687c.1875-.6875.35938-1 .90625-1.04688l1.25-.09375.15625-.59375H3.57813l-.15625.59375 1.25.09375c.35937.03125.51562.20313.51562.5625 0 .14063-.01562.29688-.0625.48438L2.59375-1.75c-.17187.75-.35937.96875-.875 1.01563l-1.15625.125Zm0 0"/><path id="u" d="M1.59375 0h4.9375v-.45312L5.35938-.5625C5.03125-.59375 4.875-.70312 4.875-1.25v-8.67187L4.78125-10l-3.17187.53125v.39063l1.26562.17187c.28125.04688.375.15625.375.60938V-1.25c0 .54688-.14062.65625-.48437.6875l-1.17188.10938Zm0 0"/><path id="v" d="M.78125 3.54688 2.26563 3.375l.82812-3.51562c.3125.1875.79688.3125 1.57813.3125 3.57812 0 4.59375-4.46875 4.59375-5.625 0-1.25-.5625-1.9375-1.65625-1.9375-1.15625 0-2.5625 1.07812-3.67188 3.17187H3.875l.84375-3.09375-.0625-.07812-2.85937.40625-.09376.39062.90626.07813c.21875.01562.28125.125.28125.29687 0 .10938-.01563.23438-.0625.39063ZM3.23438-.8125c.1875-.90625.60937-2.39062 1.1875-3.39062.6875-1.21875 1.67187-2.3125 2.45312-2.3125.5 0 .73438.39062.73438 1.10937C7.60938-4.23437 6.71875-.375 4.5-.375c-.54687 0-.95312-.15625-1.26562-.4375m0 0"/><path id="w" d="M.53125-2.15625.625-.46875c.45313.4375 1.34375.625 2.07813.625 1.85937 0 2.59375-1.0625 2.59375-2.14062 0-1.23438-.84375-1.82813-2.0625-2.26563L2.875-4.375c-.70312-.26562-1.28125-.71875-1.28125-1.34375 0-.76562.46875-1.34375 1.34375-1.34375.90625 0 1.40625.51563 1.57813 1.57813h.32812v-1.46875c-.35937-.28125-1.0625-.46875-1.78125-.46875-1.28125 0-2.42187.64062-2.42187 2.03125 0 1.09375.875 1.67187 1.98437 2.0625l.1875.07812c.45313.17188 1.46875.64063 1.46875 1.57813 0 .90625-.57812 1.45312-1.51562 1.45312-.98438 0-1.64063-.76562-1.90625-1.9375Zm0 0"/><path id="x" d="M.51563-2.5625C.51563-.875 1.35938.125 3.03125.125c1.6875 0 2.51563-1 2.51563-2.6875 0-1.70312-.82813-2.70312-2.51563-2.70312-1.67187 0-2.51562 1-2.51562 2.70312m1.09375 0c0-1.45312.46875-2.34375 1.42187-2.34375.96875 0 1.4375.89063 1.4375 2.34375C4.46875-1.10937 4-.25 3.03125-.25c-.95312 0-1.42187-.85937-1.42187-2.3125m0 0"/><path id="y" d="m.26563-4.75.40625.0625C.9375-4.64062 1-4.60937 1-4.21875v2.76563C1-.25 1.71875.125 2.5.125c.89063 0 1.625-.60937 1.92188-.75L4.53125 0h1.6875v-.29687c-.73437-.0625-.79687-.07813-.79687-.625v-4.28125l-.07813-.0625L3.70313-5v.25l.39062.0625c.28125.04688.34375.07813.34375.46875v2.35938c0 .29687-.03125.53125-.09375.625-.25.48437-.73437.79687-1.28125.79687C2.45313-.4375 2-.82812 2-1.64062v-3.5625l-.07812-.0625L.26563-5Zm0 0"/><path id="z" d="m.48438-1.75.125 1.375c.375.32813 1.01562.5 1.625.5 1.25 0 1.96875-.65625 1.96875-1.5625 0-.92187-.57813-1.32812-1.65625-1.67187-.4375-.125-1.10938-.35938-1.10938-.95313 0-.54687.40625-.84375.9375-.84375.73438 0 1.09375.57813 1.17188 1.21875h.3125v-1.23437c-.34375-.25-.89063-.34375-1.35938-.34375-1.14062 0-1.90625.53125-1.90625 1.51562 0 .875.71875 1.26563 1.57813 1.53125.46875.15625 1.14062.39063 1.14062 1.10938 0 .53125-.42187.85937-.98437.85937C1.48438-.25 1-.85937.79688-1.75Zm0 0"/><path id="A" d="M.78125-2.26562h2.5625V-3H.78125Zm0 0"/><path id="B" d="M.95313-6.875c0 .39063.28124.65625.65625.65625.375 0 .64062-.26562.64062-.65625 0-.375-.26562-.625-.64062-.625s-.65625.25-.65625.625M.32813 0h2.5625v-.29687c-.75-.0625-.78125-.07813-.78125-.625v-4.28125l-.07813-.0625L.39063-5v.25l.39062.0625c.26563.04688.34375.07813.34375.46875v3.29688c0 .54687-.03125.5625-.79687.625Zm0 0"/><path id="C" d="M.32813-4.71875h.75v3.64063C1.07813 0 1.875.125 2.25.125c.53125 0 1.03125-.26562 1.34375-.45312L3.51563-.5625c-.26563.10938-.48438.14063-.75.14063-.35938 0-.70313-.26563-.70313-1.04688v-3.25h1.35938v-.4375H2.0625v-1.3125h-.29687L1.125-5.15625H.32813Zm0 0"/><path id="D" d="M.51563-2.53125C.51563-.875 1.23438.125 2.9375.125c1.15625 0 1.76563-.65625 2.04688-1.48437l-.3125-.15626C4.375-.90624 3.98438-.40624 3.15625-.40624c-1.3125 0-1.5625-1.26562-1.54687-2.35937h3.03125c.21875 0 .40625-.04688.40625-.39063 0-.625-.20313-2.10937-2.125-2.10937-1.64063 0-2.40625 1.15625-2.40625 2.73437m1.10937-.625c0-.4375.15625-1.75 1.25-1.75.96875 0 1.07813 1 1.07813 1.40625 0 .20313-.0625.34375-.35938.34375Zm0 0"/><path id="E" d="M.375 0h5.45313l.10937-1.875H5.625C5.42188-.5 4.84375-.375 3.75-.375c-.53125 0-.90625 0-1.14062-.09375-.21875-.09375-.25-.28125-.25-.79687v-5.03125c0-.57813.03125-.59375 1-.65625v-.3125H.375v.3125c.92188.0625.9375.07812.9375.65625v5.32812c0 .59375-.01562.59375-.9375.67188Zm0 0"/><path id="F" d="M.32813 0h2.5625v-.29687c-.75-.0625-.78125-.07813-.78125-.625V-3.375c0-.26562 0-.40625.07812-.5625.20313-.42187.65625-.76562 1.25-.76562.89063 0 1.01563.65625 1.01563 1.3125v2.46875c0 .54687-.04688.5625-.79688.625V0h2.5625v-.29687c-.75-.0625-.79687-.07813-.79687-.625V-3.375c0-.26562.01562-.40625.07812-.5625.17188-.4375.60938-.76562 1.20313-.76562.65625 0 1.0625.375 1.0625 1.3125v2.46875c0 .54687-.03125.5625-.79688.625V0h2.57813v-.29687c-.75-.0625-.79688-.07813-.79688-.625v-2.67188c0-1.0625-.57812-1.67187-1.5625-1.67187-.85937 0-1.48437.5625-1.84375.79687-.26562-.48437-.65625-.79687-1.40625-.79687-.79687 0-1.45312.53125-1.82812.79687l-.09375-.79687L.39063-5v.25l.39062.0625c.26563.04688.34375.07813.34375.46875v3.29688c0 .54687-.03125.5625-.79687.625Zm0 0"/><path id="G" d="M.51563-2.53125C.51563-.76562 1.375.125 2.95313.125c.73437 0 1.73437-.375 2.01562-1.51562l-.3125-.14063c-.32812.73438-.73437 1.10938-1.5 1.10938-1.25 0-1.54687-1.3125-1.54687-2.29688 0-1.5625.60937-2.1875 1.34375-2.1875.48437 0 .78125.34375.98437.92188.07813.15625.14063.26562.34375.26562.20313 0 .60938-.14062.60938-.53125 0-.48437-.6875-1.01562-1.82813-1.01562-1.90625 0-2.54687 1.34375-2.54687 2.73437m0 0"/><path id="H" d="M.32813 0h2.5625v-.29687c-.75-.0625-.78125-.07813-.78125-.625V-3.375c0-.26562.01562-.40625.10937-.5625.21875-.42187.6875-.76562 1.25-.76562.70313 0 1.09375.39062 1.09375 1.3125v2.46875c0 .54687-.03125.5625-.78125.625V0h2.5625v-.29687c-.75-.0625-.79687-.07813-.79687-.625v-2.67188c0-1.0625-.57813-1.67187-1.53125-1.67187-.78125 0-1.26563.375-1.92188.79687l-.14062-.79687L.39063-5v.25l.39062.0625c.26563.04688.34375.07813.34375.46875v3.29688c0 .54687-.03125.5625-.79687.625Zm0 0"/><path id="I" d="M.51563-1.35937c0 .78125.51562 1.48437 1.5 1.48437.625 0 1.23437-.40625 1.57812-.625.14063.39063.3125.625.6875.625.39063 0 .82813-.10937 1.23438-.3125l-.0625-.25c-.14063.03125-.375.04688-.53125 0-.20313-.04687-.375-.23437-.375-.89062V-3.875c0-.60937-.14063-1.39062-1.71875-1.39062-1.1875 0-2.125.60937-2.125 1.1875 0 .32812.39062.48437.59375.48437.21874 0 .28124-.10937.32812-.28125.23438-.78125.67188-1.03125 1.09375-1.03125.40625 0 .875.21875.875 1.04688v.4375c-.26562.26562-1.28125.54687-2.10937.8125-.76563.23437-.96875.75-.96875 1.25m1.0625-.15626c0-.48437.21874-.73437.8125-.96874.42187-.15625.96875-.35938 1.20312-.5V-1.5c0 .85938-.64062 1.0625-1.0625 1.0625-.64062 0-.95312-.45312-.95312-1.07812m0 0"/><path id="J" d="M.375 0h3.26563C6.875 0 7.67188-1.89062 7.67188-3.76562c0-1.71875-.75-3.5-3.8125-3.5H.375v.3125c.92188.0625.9375.07812.9375.65625v5.32812c0 .59375-.01562.59375-.9375.67188Zm1.98438-1.3125v-4.98437c0-.54688.09375-.60938 1.21875-.60938C5.79688-6.90625 6.5-5.5 6.5-3.71875 6.5-1.07812 5.20313-.375 3.4375-.375c-.90625 0-1.07812-.10937-1.07812-.9375m0 0"/></defs><use xlink:href="#a" x="8.29971" y="65.32501"/><use xlink:href="#b" x="22.40724" y="65.32501"/><use xlink:href="#c" x="34.52496" y="65.32501"/><use xlink:href="#d" x="47.51462" y="65.32501"/><use xlink:href="#e" x="57.97789" y="65.32501"/><use xlink:href="#f" x="68.77653" y="65.32501"/><use xlink:href="#g" x="76.80284" y="65.32501"/><use xlink:href="#e" x="87.71326" y="65.32501"/><use xlink:href="#c" x="98.5119" y="65.32501"/><use xlink:href="#h" x="111.50156" y="65.32501"/><use xlink:href="#e" x="121.92012" y="65.32501"/><use xlink:href="#i" x="137.43616" y="65.32501"/><use xlink:href="#f" x="150.20225" y="65.32501"/><use xlink:href="#e" x="157.93792" y="65.32501"/><use xlink:href="#j" x="168.73655" y="65.32501"/><use xlink:href="#k" x="177.88074" y="65.32501"/><use xlink:href="#l" x="190.28911" y="65.32501"/><use xlink:href="#e" x="203.01048" y="65.32501"/><use xlink:href="#j" x="218.52653" y="65.32501"/><use xlink:href="#m" x="227.67071" y="65.32501"/><use xlink:href="#f" x="240.39208" y="65.32501"/><use xlink:href="#e" x="248.12775" y="65.32501"/><use xlink:href="#a" x="389.8909" y="65.54942"/><use xlink:href="#b" x="403.99843" y="65.54942"/><use xlink:href="#c" x="416.11615" y="65.54942"/><use xlink:href="#d" x="429.10581" y="65.54942"/><use xlink:href="#e" x="439.56908" y="65.54942"/><use xlink:href="#f" x="450.36772" y="65.54942"/><use xlink:href="#g" x="458.39403" y="65.54942"/><use xlink:href="#e" x="469.30445" y="65.54942"/><use xlink:href="#c" x="480.10309" y="65.54942"/><use xlink:href="#h" x="493.09275" y="65.54942"/><use xlink:href="#e" x="503.5113" y="65.54942"/><use xlink:href="#e" x="519.02735" y="65.54942"/><use xlink:href="#c" x="529.82599" y="65.54942"/><use xlink:href="#i" x="547.53306" y="65.54942"/><use xlink:href="#f" x="560.29915" y="65.54942"/><use xlink:href="#b" x="568.32547" y="65.54942"/><use xlink:href="#n" x="580.44319" y="65.54942"/><use xlink:href="#o" x="593.00806" y="65.54942"/><use xlink:href="#n" x="603.98555" y="65.54942"/><use xlink:href="#p" x="616.55042" y="65.54942"/><use xlink:href="#q" x="622.654" y="65.54942"/><use xlink:href="#p" x="628.51164" y="65.54942"/><use xlink:href="#r" x="634.61521" y="65.54942"/><use xlink:href="#s" x="641.83666" y="65.54942"/><use xlink:href="#a" x="445.8225" y="147.03015"/><use xlink:href="#b" x="459.93003" y="147.03015"/><use xlink:href="#c" x="472.04775" y="147.03015"/><use xlink:href="#d" x="485.03741" y="147.03015"/><use xlink:href="#e" x="495.50068" y="147.03015"/><use xlink:href="#f" x="506.29932" y="147.03015"/><use xlink:href="#g" x="514.32563" y="147.03015"/><use xlink:href="#e" x="525.23605" y="147.03015"/><use xlink:href="#c" x="536.03469" y="147.03015"/><use xlink:href="#h" x="549.02435" y="147.03015"/><use xlink:href="#e" x="559.4429" y="147.03015"/><use xlink:href="#t" x="574.95849" y="147.03015"/><use xlink:href="#u" x="587.34382" y="151.94927"/><use xlink:href="#a" x="824.06944" y="65.54942"/><use xlink:href="#b" x="838.17697" y="65.54942"/><use xlink:href="#c" x="850.29469" y="65.54942"/><use xlink:href="#d" x="863.28436" y="65.54942"/><use xlink:href="#e" x="873.74763" y="65.54942"/><use xlink:href="#f" x="884.54626" y="65.54942"/><use xlink:href="#g" x="892.57257" y="65.54942"/><use xlink:href="#e" x="903.48299" y="65.54942"/><use xlink:href="#c" x="914.28163" y="65.54942"/><use xlink:href="#h" x="927.27129" y="65.54942"/><use xlink:href="#e" x="937.68985" y="65.54942"/><use xlink:href="#e" x="953.2059" y="65.54942"/><use xlink:href="#c" x="964.00453" y="65.54942"/><use xlink:href="#q" x="981.71161" y="65.54942"/><use xlink:href="#b" x="987.56925" y="65.54942"/><use xlink:href="#p" x="999.68697" y="65.54942"/><use xlink:href="#a" x="444.73235" y="226.80434"/><use xlink:href="#b" x="458.83988" y="226.80434"/><use xlink:href="#c" x="470.95761" y="226.80434"/><use xlink:href="#d" x="483.94727" y="226.80434"/><use xlink:href="#e" x="494.41054" y="226.80434"/><use xlink:href="#f" x="505.20917" y="226.80434"/><use xlink:href="#g" x="513.23549" y="226.80434"/><use xlink:href="#e" x="524.14591" y="226.80434"/><use xlink:href="#c" x="534.94454" y="226.80434"/><use xlink:href="#h" x="547.9342" y="226.80434"/><use xlink:href="#e" x="558.35276" y="226.80434"/><use xlink:href="#t" x="573.86834" y="226.80434"/><use xlink:href="#v" x="586.25367" y="231.72347"/><path fill="none" stroke="#000" stroke-miterlimit="10" stroke-width="2.45883" d="M266.81246 60.29687h112.83199"/><path fill="none" stroke="#FFF" stroke-miterlimit="10" stroke-width="1.66389" d="M266.81246 60.29687h112.83199"/><path fill="none" stroke="#000" stroke-linecap="round" stroke-linejoin="round" stroke-miterlimit="10" stroke-width=".39746" d="M378.26563 57.5625c.66796 1.44531 2.47265 2.67969 3.5039 2.73437-1.03125.05079-2.83594 1.28516-3.5039 2.73047"/><path fill="none" stroke="#000" stroke-miterlimit="10" stroke-width="2.45883" d="m521.17565 124.25779.02734-43.41405"/><path fill="none" stroke="#FFF" stroke-miterlimit="10" stroke-width="1.66389" d="m521.17565 124.25779.02734-43.41405"/><path fill="none" stroke="#000" stroke-linecap="round" stroke-linejoin="round" stroke-miterlimit="10" stroke-width=".39745" d="M518.47266 82.22266c1.4414-.66797 2.67968-2.47266 2.73046-3.5039.05079 1.03124 1.28907 2.83593 2.73047 3.5078"/><path fill="none" stroke="#000" stroke-miterlimit="10" stroke-width="2.45883" d="M660.4842 60.29687h153.30072"/><path fill="none" stroke="#FFF" stroke-miterlimit="10" stroke-width="1.66389" d="M660.4842 60.29687h153.30072"/><path fill="none" stroke="#000" stroke-linecap="round" stroke-linejoin="round" stroke-miterlimit="10" stroke-width=".39746" d="M812.40234 57.5625c.67188 1.44531 2.47266 2.67969 3.5039 2.73437-1.03124.05079-2.83202 1.28516-3.5039 2.73047"/><path fill="none" stroke="#000" stroke-miterlimit="10" stroke-width="2.45883" d="m521.13659 204.02339.02734-41.70702"/><path fill="none" stroke="#FFF" stroke-miterlimit="10" stroke-width="1.66389" d="m521.13659 204.02339.02734-41.70702"/><path fill="none" stroke="#000" stroke-linecap="round" stroke-linejoin="round" stroke-miterlimit="10" stroke-width=".39745" d="M518.42969 163.69531c1.44531-.66797 2.6836-2.47265 2.73437-3.5.05078 1.02735 1.28516 2.83203 2.73047 3.5039"/><path fill="none" stroke="#000" stroke-miterlimit="10" stroke-width="2.45883" d="M381.96867 42.07032c-39.04296-22.54296-76.11326-22.3203-113.1445-.9375"/><path fill="none" stroke="#FFF" stroke-miterlimit="10" stroke-width="1.66389" d="M381.96867 42.07032c-39.04296-22.54296-76.11326-22.3203-113.1445-.9375"/><path fill="none" stroke="#000" stroke-linecap="round" stroke-linejoin="round" stroke-miterlimit="10" stroke-width=".39745" d="M271.38281 42.80469c-1.30078-.91407-3.48047-1.08203-4.39843-.61328.86718-.5586 1.80859-2.53125 1.66796-4.1172"/><use xlink:href="#w" x="299.56034" y="15.04163"/><use xlink:href="#x" x="305.11616" y="15.04163"/><use xlink:href="#y" x="311.17502" y="15.04163"/><use xlink:href="#z" x="317.5357" y="15.04163"/><use xlink:href="#A" x="322.1078" y="15.04163"/><use xlink:href="#z" x="326.22156" y="15.04163"/><use xlink:href="#y" x="330.79365" y="15.04163"/><use xlink:href="#B" x="337.15434" y="15.04163"/><use xlink:href="#C" x="340.20613" y="15.04163"/><use xlink:href="#D" x="343.81685" y="15.04163"/><path fill="none" stroke="#000" stroke-miterlimit="10" stroke-width="2.45883" d="M816.10523 42.07032c-52.55857-30.34374-103.06246-30.34374-153.60932-1.16406"/><path fill="none" stroke="#FFF" stroke-miterlimit="10" stroke-width="1.66389" d="M816.10523 42.07032c-52.55857-30.34374-103.06246-30.34374-153.60932-1.16406"/><path fill="none" stroke="#000" stroke-linecap="round" stroke-linejoin="round" stroke-miterlimit="10" stroke-width=".39745" d="M665.05469 42.58203c-1.30078-.91406-3.48047-1.08203-4.39844-.61328.86719-.5586 1.8086-2.53125 1.66797-4.11719"/><use xlink:href="#E" x="698.25675" y="14.96284"/><use xlink:href="#B" x="704.21501" y="14.96284"/><use xlink:href="#F" x="707.26679" y="14.96284"/><use xlink:href="#B" x="716.95874" y="14.96284"/><use xlink:href="#C" x="720.01052" y="14.96284"/><use xlink:href="#D" x="723.62125" y="14.96284"/><use xlink:href="#G" x="731.37927" y="14.96284"/><use xlink:href="#x" x="736.58855" y="14.96284"/><use xlink:href="#H" x="742.64741" y="14.96284"/><use xlink:href="#z" x="749.14224" y="14.96284"/><use xlink:href="#C" x="753.71433" y="14.96284"/><use xlink:href="#I" x="757.32506" y="14.96284"/><use xlink:href="#H" x="762.8138" y="14.96284"/><use xlink:href="#C" x="769.30863" y="14.96284"/><use xlink:href="#D" x="772.91936" y="14.96284"/><path fill="none" stroke="#000" stroke-miterlimit="10" stroke-width="2.45883" d="M266.81246 78.29687c61.87107 35.72264 99.64059 63.8281 168.76165 63.8281"/><path fill="none" stroke="#FFF" stroke-miterlimit="10" stroke-width="1.66389" d="M266.81246 78.29687c61.87107 35.72264 99.64059 63.8281 168.76165 63.8281"/><path fill="none" stroke="#000" stroke-linecap="round" stroke-linejoin="round" stroke-miterlimit="10" stroke-width=".39746" d="M434.1914 139.39453c.67188 1.44532 2.47266 2.67969 3.50391 2.73047-1.03125.05469-2.83203 1.28906-3.5039 2.73437"/><use xlink:href="#J" x="286.26713" y="141.52556"/><use xlink:href="#x" x="294.44995" y="141.52556"/><use xlink:href="#F" x="300.50881" y="141.52556"/><use xlink:href="#B" x="310.20075" y="141.52556"/><use xlink:href="#H" x="313.25254" y="141.52556"/><use xlink:href="#I" x="319.74737" y="141.52556"/><use xlink:href="#C" x="325.23611" y="141.52556"/><use xlink:href="#B" x="328.84684" y="141.52556"/><use xlink:href="#x" x="331.89863" y="141.52556"/><use xlink:href="#H" x="337.95749" y="141.52556"/></svg>