<svg xmlns="http://www.w3.org/2000/svg" xmlns:xlink="http://www.w3.org/1999/xlink" width="443.172" height="413.936" viewBox="0 0 443.172 413.936"><defs><path id="a" d="M.67188-.82812C.67188-.21876 1.15625.25 2.01563.25 3.45313.25 4.25-1.1875 5.125-2.59375l.84375-1.39062h.04688l.39062 1.65625C6.79688-.65625 7.1875.25 8.25.25c1.54688 0 2.35938-1.59375 2.98438-2.875l-.54688-.28125c-.5.9375-1.09375 2.0625-1.67187 2.0625-.40625 0-.5625-.46875-1.03125-2.35937l-.67188-2.75C8.07813-7.29687 9.15625-8.96875 9.75-8.96875c.625 0 .65625.32813 1.28125.32813.46875 0 .89063-.4375.89063-1 0-.65625-.48438-.92188-1.0625-.92188-1.125 0-2.0625 1.01563-2.79688 2.1875l-.92187 1.4375h-.04688L6.25-10.46875l-.125-.09375-3.46875 1.04688L2.70313-9l1.65625-.10937c.34375 0 .5.15625.70312 1.04687l.73438 3.04688L5.21875-4c-.90625 1.53125-1.6875 2.64063-2.20312 2.64063-.59375 0-.75-.51563-1.42188-.51563-.54687 0-.92187.53125-.92187 1.04688m0 0"/><path id="c" d="M0 3.9375C0 4.5.625 5.07813 1.54688 5.07813c1.78125 0 2.54687-1.3125 4.40625-4.51563.42187-.71875 1.70312-2.9375 3-5.07812 1.20312-1.96875 2.53125-4.01563 2.53125-4.85938 0-.73437-.23438-1.1875-.39063-1.1875-.40625 0-1.10937.1875-1.65625.53125 0 0-.0625 2.15625-.26562 2.89063-.32813 1.1875-1.5625 3.46875-2.95313 5.85937h-.0625C6-4.5 5.59375-8.92187 5.29688-10.46875l-.15625-.09375-3.53125 1.01563.0625.53125L3.125-9.0625c.4375 0 .51563.35938.70313 1.4375.21875 1.625.6875 5.67188.6875 7.35938 0 .625-.01563 1.46875-.48438 2.59375-.39062.875-.92187 1.5-1.34375 1.5-.76562 0-.85937-1.17188-1.60937-1.17188C.53125 2.65625 0 3.32813 0 3.9375m0 0"/><path id="d" d="M1.90625-5.92187c0 2.40625 1.76563 4.17187 4.20313 4.17187 2.34375 0 4.10937-1.76562 4.10937-4.17187 0-2.35938-1.76562-4.125-4.10937-4.125-2.4375 0-4.20313 1.76562-4.20313 4.125m0 0"/><path id="e" d="M2.28125 0h6.92188v-.60937L7.42188-.76563c-.4375-.04687-.6875-.20312-.6875-1.03124V-14.1875l-.10938-.10937-4.34375.73437v.51563l1.96875.25c.35938.04687.5.20312.5.79687v10.20313c0 .82812-.20312.98437-.70312 1.03125l-1.76563.15624Zm0 0"/><path id="k" d="M.67188-3.89062C.67188-1.5 1.5.26563 4.09375.26563c3.84375 0 5.5-3.89063 6.40625-7.92188.23438-1.23437.4375-2.53125.4375-3.70312 0-2.32813-.75-4.23438-3.39062-4.23438-5.04688 0-6.875 7.5-6.875 11.70313m1.90625.73437c0-1.45312.32812-3.17187.57812-4.39062h5.25C7.875-5.0625 6.71875-.35937 4.23438-.35937c-1.28125 0-1.65625-1.23438-1.65625-2.79688m.75-5.14062c.39062-1.79688 1.53125-6.60938 4.0625-6.60938 1.3125 0 1.6875 1.29688 1.6875 2.82813 0 1.35937-.3125 2.90625-.48438 3.78125Zm0 0"/><path id="m" d="M.92188 0H14.1875L8.21875-14.59375H6.64063Zm1.29687-1.14062 4.51563-11.5 4.76562 11.5Zm0 0"/><path id="l" d="M.59375-4.92187c0 2.89062.875 5.09375 3.39063 5.09375 2.5 0 3.375-2.20313 3.375-5.09375 0-2.875-.875-5.07813-3.375-5.07813C1.46875-10 .59375-7.79687.59375-4.92187m1.6875 0c0-2.21875.34375-4.53125 1.70313-4.53125 1.34375 0 1.6875 2.3125 1.6875 4.53125 0 2.23437-.34375 4.54687-1.6875 4.54687-1.35938 0-1.70313-2.3125-1.70313-4.54687m0 0"/><path id="n" d="M.46875-2.76562C.46875-1.0625 1.0625.1875 2.95313.1875 5.65625.1875 6.8125-2.35937 7.5-5.25c.20313-.89062.34375-1.8125.34375-2.64062 0-1.65625-.5625-3.01563-2.48437-3.01563-3.4375 0-4.89063 4.84375-4.89063 8.14063m1.51563.60937c0-1.01562.25-2.25.42187-3.09375h3.45313C5.48438-3.51562 4.70313-.28125 3.0625-.28125c-.82812 0-1.07812-.82812-1.07812-1.875m.54687-3.6875c.26563-1.23437 1.04688-4.54687 2.71875-4.54687.84375 0 1.10938.85937 1.10938 1.875 0 .95312-.23438 2.0625-.35938 2.67187Zm0 0"/><path id="o" d="M.45313-3.85937c0 2.21875.70312 4 2.71875 4 2.03125 0 2.71875-1.78125 2.71875-4 0-2.23438-.6875-4.01563-2.71875-4.01563-2.01563 0-2.71875 1.78125-2.71875 4.01563m1.46875 0c0-1.625.21874-3.54688 1.25-3.54688 1.03125 0 1.26562 1.92188 1.26562 3.54688S4.20313-.3125 3.17188-.3125s-1.25-1.92187-1.25-3.54687m0 0"/><clipPath id="b"><path d="M222 31h2v382.51953h-2Zm0 0"/></clipPath><clipPath id="f"><path d="M95 95h256v255H95Zm0 0"/></clipPath><clipPath id="g"><path d="M350.5039 222.33594c0-70.3164-57.0039-127.32031-127.3203-127.32031-70.32032 0-127.32423 57.0039-127.32423 127.3203 0 70.32032 57.00391 127.32423 127.32422 127.32423 70.31641 0 127.32032-57.00391 127.32032-127.32422m0 0"/></clipPath><clipPath id="h"><path d="M79.97266 51.67188V393.0039l270.51953-170.66797Zm0 0"/></clipPath><clipPath id="i"><path d="M281 153h70v70h-70Zm0 0"/></clipPath><clipPath id="j"><path d="M79.97266 51.67188.36719 222.33594h350.125Zm0 0"/></clipPath></defs><path fill="none" stroke="#000" stroke-miterlimit="10" stroke-width=".39775" d="M32.19924 222.33594h381.57027"/><path fill="none" stroke="#000" stroke-linecap="round" stroke-linejoin="round" stroke-miterlimit="10" stroke-width=".39775" d="M411.89844 219.94922c.3789 1.4336 1.21875 2.10937 2.07031 2.38672-.85156.28125-1.6914.95703-2.07031 2.38672"/><use xlink:href="#a" x="422.06843" y="227.49465"/><g clip-path="url(#b)"><path fill="none" stroke="#000" stroke-miterlimit="10" stroke-width=".39775" d="M223.1836 413.32029V31.75003"/></g><path fill="none" stroke="#000" stroke-linecap="round" stroke-linejoin="round" stroke-miterlimit="10" stroke-width=".39775" d="M220.79688 33.6211c1.42968-.37891 2.10546-1.21876 2.38671-2.07032.27735.85156.95313 1.6914 2.38672 2.07031"/><use xlink:href="#c" x="216.79395" y="18.37236"/><use xlink:href="#d" x="217.12933" y="100.03978"/><use xlink:href="#e" x="231.08625" y="87.11193"/><use xlink:href="#d" x="344.45045" y="227.3609"/><use xlink:href="#e" x="358.40737" y="244.5388"/><path fill="none" stroke="#000" stroke-miterlimit="10" stroke-width=".39775" d="M350.50389 222.33594c0-70.3164-57.0039-127.3203-127.3203-127.3203-70.3203 0-127.3242 57.0039-127.3242 127.3203 0 70.3203 57.0039 127.3242 127.3242 127.3242 70.3164 0 127.3203-57.0039 127.3203-127.3242Zm0 0"/><g clip-path="url(#f)"><g clip-path="url(#g)"><g clip-path="url(#h)"><path fill="#B2B2FF" fill-opacity=".3" d="M923.44531 222.33594c0-316.4375-256.51562-572.94922-572.95312-572.94922S-222.46094-94.10156-222.46094 222.33594 34.0547 795.28906 350.4922 795.28906s572.9531-256.51562 572.9531-572.95312m0 0"/></g></g></g><g clip-path="url(#i)"><g clip-path="url(#j)"><path fill="none" stroke="#000" stroke-miterlimit="10" stroke-width=".39775" d="M414.15232 222.33594c0-35.16015-28.5-63.66015-63.66015-63.66015s-63.66405 28.5-63.66405 63.66015 28.5039 63.66405 63.66405 63.66405 63.66015-28.5039 63.66015-63.66405Zm0 0"/></g></g><use xlink:href="#k" x="257.83328" y="205.30611"/><use xlink:href="#l" x="268.37059" y="210.22891"/><path fill="none" stroke="#000" stroke-miterlimit="10" stroke-width=".39775" d="M350.49217 222.33594 79.97267 51.6719m270.5195 170.66404L79.97267 393.00388M30.2383 333.73436c45.1289-53.78124 111.47265-129.21483 160.83592-79.85155"/><path fill="none" stroke="#000" stroke-linecap="round" stroke-linejoin="round" stroke-miterlimit="10" stroke-width=".39775" d="M191.4375 250.875c-.74219 1.27734-.625 2.35156-.22266 3.14844-.79687-.40235-1.87109-.51953-3.15234.22656"/><use xlink:href="#m" x="7.45707" y="350.19939"/><use xlink:href="#n" x="22.44781" y="355.1222"/><use xlink:href="#o" x="30.77974" y="358.56726"/></svg>